<svg xmlns="http://www.w3.org/2000/svg" xmlns:xlink="http://www.w3.org/1999/xlink" width="700" height="500">
<defs>
<style type="text/css"><![CDATA[
  .borderLine {
	   stroke: none;
	   fill-opacity: 0.4;
  }
  .outLine {
	   stroke-width: 1;
	   fill: none;
  }
  .circle {
	   stroke: #888888;
	   stroke-width: 0.5;
	   fill: none;
    pointer-events: all;
  }
  .spcircle {
	   stroke: #FF2222;
	   stroke-width: 1;
	   fill: none;
    pointer-events: all;
  }
  .tLabel {
	   font-family: Arial;
    pointer-events: none;
	   font-size: 14px;
	   text-anchor: middle;
	   alignment-baseline: central;
  }
  .nLabel {
	   font-family: Arial;
    pointer-events: none;
	   font-size: 10px;
	   text-anchor: middle;
	   alignment-baseline: central;
  }
  .belong {
	   font-family: Arial;
    pointer-events: none;
	   font-size: 5px;
	   text-anchor: middle;
	   alignment-baseline: central;
  }
  .p0{
    stroke: none;
    fill: #e6194b;
  }
  .q0{
    fill: none;
    stroke: #e6194b;
  }
  .p1{
    stroke: none;
    fill: #3cb44b;
  }
  .q1{
    fill: none;
    stroke: #3cb44b;
  }
  .p2{
    stroke: none;
    fill: #ffe119;
  }
  .q2{
    fill: none;
    stroke: #ffe119;
  }
  .p3{
    stroke: none;
    fill: #0082c8;
  }
  .q3{
    fill: none;
    stroke: #0082c8;
  }
  .p4{
    stroke: none;
    fill: #f58231;
  }
  .q4{
    fill: none;
    stroke: #f58231;
  }
  .p5{
    stroke: none;
    fill: #911eb4;
  }
  .q5{
    fill: none;
    stroke: #911eb4;
  }
]]>
</style>
</defs>
<!-- isDone: 0 -->
<rect width="700" height="500" style="fill:#fff;stroke-width:0" />
<circle onclick="fromCircle(1)" class="circle" cx="39.9067" cy="348.9930" r="21.1245" />
<text class="tLabel" x="39.91" y="328.99"></text>
<text class="nLabel" x="39.91" y="343.99">40</text>
<text class="belong" x="39.91" y="353.99">(1)</text>
<circle onclick="fromCircle(3)" class="circle" cx="87.8563" cy="279.4800" r="4.6527" />
<text class="tLabel" x="87.86" y="259.48"></text>
<text class="nLabel" x="87.86" y="274.48">1</text>
<text class="belong" x="87.86" y="284.48">(1, 2)</text>
<circle onclick="fromCircle(7)" class="circle" cx="343.6453" cy="202.8010" r="4.6527" />
<text class="tLabel" x="343.65" y="182.80"></text>
<text class="nLabel" x="343.65" y="197.80">1</text>
<text class="belong" x="343.65" y="207.80">(1, 2, 3)</text>
<circle onclick="fromCircle(15)" class="circle" cx="267.6003" cy="166.4149" r="4.7236" />
<text class="tLabel" x="267.60" y="146.41"></text>
<text class="nLabel" x="267.60" y="161.41">2</text>
<text class="belong" x="267.60" y="171.41">(1, 2, 3, 4)</text>
<circle onclick="fromCircle(2)" class="circle" cx="22.0178" cy="225.8345" r="4.6527" />
<text class="tLabel" x="22.02" y="205.83"></text>
<text class="nLabel" x="22.02" y="220.83">1</text>
<text class="belong" x="22.02" y="230.83">(2)</text>
<circle onclick="fromCircle(6)" class="circle" cx="220.2094" cy="96.5883" r="5.7852" />
<text class="tLabel" x="220.21" y="76.59"></text>
<text class="nLabel" x="220.21" y="91.59">3</text>
<text class="belong" x="220.21" y="101.59">(2, 3)</text>
<circle onclick="fromCircle(14)" class="circle" cx="274.2926" cy="251.1929" r="8.8370" />
<text class="tLabel" x="274.29" y="231.19"></text>
<text class="nLabel" x="274.29" y="246.19">7</text>
<text class="belong" x="274.29" y="256.19">(2, 3, 4)</text>
<circle onclick="fromCircle(10)" class="circle" cx="425.7473" cy="183.0374" r="9.4472" />
<text class="tLabel" x="425.75" y="163.04"></text>
<text class="nLabel" x="425.75" y="178.04">8</text>
<text class="belong" x="425.75" y="188.04">(2, 4)</text>
<circle onclick="fromCircle(18)" class="circle" cx="101.0965" cy="196.1509" r="7.4686" />
<text class="tLabel" x="101.10" y="176.15"></text>
<text class="nLabel" x="101.10" y="191.15">5</text>
<text class="belong" x="101.10" y="201.15">(2, 5)</text>
<circle onclick="fromCircle(4)" class="circle" cx="199.8057" cy="14.6527" r="5.7852" />
<text class="tLabel" x="199.81" y="-5.35"></text>
<text class="nLabel" x="199.81" y="9.65">3</text>
<text class="belong" x="199.81" y="19.65">(3)</text>
<circle onclick="fromCircle(5)" class="circle" cx="246.9705" cy="331.1374" r="5.7852" />
<text class="tLabel" x="246.97" y="311.14"></text>
<text class="nLabel" x="246.97" y="326.14">3</text>
<text class="belong" x="246.97" y="336.14">(1, 3)</text>
<circle onclick="fromCircle(13)" class="circle" cx="331.2893" cy="326.9320" r="7.4686" />
<text class="tLabel" x="331.29" y="306.93"></text>
<text class="nLabel" x="331.29" y="321.93">5</text>
<text class="belong" x="331.29" y="331.93">(1, 3, 4)</text>
<circle onclick="fromCircle(12)" class="circle" cx="299.4578" cy="67.4026" r="6.6802" />
<text class="tLabel" x="299.46" y="47.40"></text>
<text class="nLabel" x="299.46" y="62.40">4</text>
<text class="belong" x="299.46" y="72.40">(3, 4)</text>
<circle onclick="fromCircle(20)" class="circle" cx="288.4632" cy="404.6578" r="7.4686" />
<text class="tLabel" x="288.46" y="384.66"></text>
<text class="nLabel" x="288.46" y="399.66">5</text>
<text class="belong" x="288.46" y="409.66">(3, 5)</text>
<circle onclick="fromCircle(21)" class="circle" cx="363.2041" cy="443.9574" r="7.4686" />
<text class="tLabel" x="363.20" y="423.96"></text>
<text class="nLabel" x="363.20" y="438.96">5</text>
<text class="belong" x="363.20" y="448.96">(1, 3, 5)</text>
<circle onclick="fromCircle(8)" class="circle" cx="440.3000" cy="341.0321" r="4.6527" />
<text class="tLabel" x="440.30" y="321.03"></text>
<text class="nLabel" x="440.30" y="336.03">1</text>
<text class="belong" x="440.30" y="346.03">(4)</text>
<circle onclick="fromCircle(9)" class="circle" cx="445.5853" cy="425.3130" r="8.8370" />
<text class="tLabel" x="445.59" y="405.31"></text>
<text class="nLabel" x="445.59" y="420.31">7</text>
<text class="belong" x="445.59" y="430.31">(1, 4)</text>
<circle onclick="fromCircle(11)" class="circle" cx="186.8042" cy="190.6612" r="5.7852" />
<text class="tLabel" x="186.80" y="170.66"></text>
<text class="nLabel" x="186.80" y="185.66">3</text>
<text class="belong" x="186.80" y="195.66">(1, 2, 4)</text>
<circle onclick="fromCircle(40)" class="circle" cx="394.0409" cy="270.4328" r="4.6527" />
<text class="tLabel" x="394.04" y="250.43"></text>
<text class="nLabel" x="394.04" y="265.43">1</text>
<text class="belong" x="394.04" y="275.43">(4, 6)</text>
<circle onclick="fromCircle(16)" class="circle" cx="219.9710" cy="485.3473" r="4.6527" />
<text class="tLabel" x="219.97" y="465.35"></text>
<text class="nLabel" x="219.97" y="480.35">1</text>
<text class="belong" x="219.97" y="490.35">(5)</text>
<circle onclick="fromCircle(17)" class="circle" cx="202.2316" cy="402.7710" r="7.4686" />
<text class="tLabel" x="202.23" y="382.77"></text>
<text class="nLabel" x="202.23" y="397.77">5</text>
<text class="belong" x="202.23" y="407.77">(1, 5)</text>
<circle onclick="fromCircle(19)" class="circle" cx="184.1288" cy="274.8600" r="7.4686" />
<text class="tLabel" x="184.13" y="254.86"></text>
<text class="nLabel" x="184.13" y="269.86">5</text>
<text class="belong" x="184.13" y="279.86">(1, 2, 5)</text>
<circle onclick="fromCircle(32)" class="circle" cx="477.9821" cy="261.2121" r="4.7236" />
<text class="tLabel" x="477.98" y="241.21"></text>
<text class="nLabel" x="477.98" y="256.21">2</text>
<text class="belong" x="477.98" y="266.21">(6)</text>
<rect class="p0 borderLine" x="500.00" y="50.00" width="30.00" height="15.00" />
<rect class="q0" x="500.00" y="50.00" width="30.00" height="15.00" />
<text class="legend" x="540.00" y="65.00">Ball2017</text>
<rect class="p1 borderLine" x="500.00" y="90.00" width="30.00" height="15.00" />
<rect class="q1" x="500.00" y="90.00" width="30.00" height="15.00" />
<text class="legend" x="540.00" y="105.00">Courtois2015</text>
<rect class="p2 borderLine" x="500.00" y="130.00" width="30.00" height="15.00" />
<rect class="q2" x="500.00" y="130.00" width="30.00" height="15.00" />
<text class="legend" x="540.00" y="145.00">Hilton2017</text>
<rect class="p3 borderLine" x="500.00" y="170.00" width="30.00" height="15.00" />
<rect class="q3" x="500.00" y="170.00" width="30.00" height="15.00" />
<text class="legend" x="540.00" y="185.00">Ball2017</text>
<rect class="p4 borderLine" x="500.00" y="210.00" width="30.00" height="15.00" />
<rect class="q4" x="500.00" y="210.00" width="30.00" height="15.00" />
<text class="legend" x="540.00" y="225.00">Courtois2015</text>
<rect class="p5 borderLine" x="500.00" y="250.00" width="30.00" height="15.00" />
<rect class="q5" x="500.00" y="250.00" width="30.00" height="15.00" />
<text class="legend" x="540.00" y="265.00">Hilton2017</text>
</svg>
