<svg xmlns="http://www.w3.org/2000/svg" xmlns:xlink="http://www.w3.org/1999/xlink" width="700" height="500">
<defs>
<style type="text/css"><![CDATA[
  .borderLine {
	   stroke: none;
	   fill-opacity: 0.4;
  }
  .outLine {
	   stroke-width: 1;
	   fill: none;
  }
  .circle {
	   stroke: #888888;
	   stroke-width: 0.5;
	   fill: none;
    pointer-events: all;
  }
  .spcircle {
	   stroke: #FF2222;
	   stroke-width: 1;
	   fill: none;
    pointer-events: all;
  }
  .tLabel {
	   font-family: Arial;
    pointer-events: none;
	   font-size: 14px;
	   text-anchor: middle;
	   alignment-baseline: central;
  }
  .nLabel {
	   font-family: Arial;
    pointer-events: none;
	   font-size: 10px;
	   text-anchor: middle;
	   alignment-baseline: central;
  }
  .belong {
	   font-family: Arial;
    pointer-events: none;
	   font-size: 5px;
	   text-anchor: middle;
	   alignment-baseline: central;
  }
  .p0{
    stroke: none;
    fill: #e6194b;
  }
  .q0{
    fill: none;
    stroke: #e6194b;
  }
  .p1{
    stroke: none;
    fill: #3cb44b;
  }
  .q1{
    fill: none;
    stroke: #3cb44b;
  }
  .p2{
    stroke: none;
    fill: #ffe119;
  }
  .q2{
    fill: none;
    stroke: #ffe119;
  }
  .p3{
    stroke: none;
    fill: #0082c8;
  }
  .q3{
    fill: none;
    stroke: #0082c8;
  }
  .p4{
    stroke: none;
    fill: #f58231;
  }
  .q4{
    fill: none;
    stroke: #f58231;
  }
  .p5{
    stroke: none;
    fill: #911eb4;
  }
  .q5{
    fill: none;
    stroke: #911eb4;
  }
]]>
</style>
</defs>
<!-- isDone: 0 -->
<rect width="700" height="500" style="fill:#fff;stroke-width:0" />
<circle onclick="fromCircle(1)" class="circle" cx="360.0760" cy="24.1259" r="4.5771" />
<text class="tLabel" x="360.08" y="4.13"></text>
<text class="nLabel" x="360.08" y="19.13">7</text>
<text class="belong" x="360.08" y="29.13">(1)</text>
<circle onclick="fromCircle(2)" class="circle" cx="109.5981" cy="104.2139" r="5.4707" />
<text class="tLabel" x="109.60" y="84.21"></text>
<text class="nLabel" x="109.60" y="99.21">10</text>
<text class="belong" x="109.60" y="109.21">(2)</text>
<circle onclick="fromCircle(6)" class="circle" cx="314.9134" cy="475.8741" r="12.1100" />
<text class="tLabel" x="314.91" y="455.87"></text>
<text class="nLabel" x="314.91" y="470.87">49</text>
<text class="belong" x="314.91" y="480.87">(2, 3)</text>
<circle onclick="fromCircle(14)" class="circle" cx="211.7200" cy="161.7140" r="4.5175" />
<text class="tLabel" x="211.72" y="141.71"></text>
<text class="nLabel" x="211.72" y="156.71">2</text>
<text class="belong" x="211.72" y="166.71">(2, 3, 4)</text>
<circle onclick="fromCircle(10)" class="circle" cx="122.0866" cy="237.2088" r="4.5175" />
<text class="tLabel" x="122.09" y="217.21"></text>
<text class="nLabel" x="122.09" y="232.21">3</text>
<text class="belong" x="122.09" y="242.21">(2, 4)</text>
<circle onclick="fromCircle(26)" class="circle" cx="245.1772" cy="49.4012" r="4.5175" />
<text class="tLabel" x="245.18" y="29.40"></text>
<text class="nLabel" x="245.18" y="44.40">1</text>
<text class="belong" x="245.18" y="54.40">(2, 4, 5)</text>
<circle onclick="fromCircle(38)" class="circle" cx="293.9651" cy="245.1474" r="4.5175" />
<text class="tLabel" x="293.97" y="225.15"></text>
<text class="nLabel" x="293.97" y="240.15">4</text>
<text class="belong" x="293.97" y="250.15">(2, 3, 6)</text>
<circle onclick="fromCircle(4)" class="circle" cx="470.3466" cy="69.0779" r="29.3079" />
<text class="tLabel" x="470.35" y="49.08"></text>
<text class="nLabel" x="470.35" y="64.08">287</text>
<text class="belong" x="470.35" y="74.08">(3)</text>
<circle onclick="fromCircle(5)" class="circle" cx="346.9081" cy="140.5894" r="4.5175" />
<text class="tLabel" x="346.91" y="120.59"></text>
<text class="nLabel" x="346.91" y="135.59">1</text>
<text class="belong" x="346.91" y="145.59">(1, 3)</text>
<circle onclick="fromCircle(12)" class="circle" cx="41.7207" cy="322.5211" r="6.9200" />
<text class="tLabel" x="41.72" y="302.52"></text>
<text class="nLabel" x="41.72" y="317.52">16</text>
<text class="belong" x="41.72" y="327.52">(3, 4)</text>
<circle onclick="fromCircle(44)" class="circle" cx="123.3954" cy="406.5977" r="4.5175" />
<text class="tLabel" x="123.40" y="386.60"></text>
<text class="nLabel" x="123.40" y="401.60">1</text>
<text class="belong" x="123.40" y="411.60">(3, 4, 6)</text>
<circle onclick="fromCircle(20)" class="circle" cx="411.1508" cy="242.9345" r="4.5175" />
<text class="tLabel" x="411.15" y="222.93"></text>
<text class="nLabel" x="411.15" y="237.93">2</text>
<text class="belong" x="411.15" y="247.93">(3, 5)</text>
<circle onclick="fromCircle(36)" class="circle" cx="419.7754" cy="423.5042" r="10.8038" />
<text class="tLabel" x="419.78" y="403.50"></text>
<text class="nLabel" x="419.78" y="418.50">39</text>
<text class="belong" x="419.78" y="428.50">(3, 6)</text>
<circle onclick="fromCircle(32)" class="circle" cx="321.9900" cy="358.8965" r="10.8038" />
<text class="tLabel" x="321.99" y="338.90"></text>
<text class="nLabel" x="321.99" y="353.90">39</text>
<text class="belong" x="321.99" y="363.90">(6)</text>
<circle onclick="fromCircle(47)" class="circle" cx="209.2511" cy="326.7900" r="4.5175" />
<text class="tLabel" x="209.25" y="306.79"></text>
<text class="nLabel" x="209.25" y="321.79">1</text>
<text class="belong" x="209.25" y="331.79">(1, 2, 3, 4, 6)</text>
<rect class="p0 borderLine" x="500.00" y="50.00" width="30.00" height="15.00" />
<rect class="q0" x="500.00" y="50.00" width="30.00" height="15.00" />
<text class="legend" x="540.00" y="65.00">iba</text>
<rect class="p1 borderLine" x="500.00" y="90.00" width="30.00" height="15.00" />
<rect class="q1" x="500.00" y="90.00" width="30.00" height="15.00" />
<text class="legend" x="540.00" y="105.00">ic</text>
<rect class="p2 borderLine" x="500.00" y="130.00" width="30.00" height="15.00" />
<rect class="q2" x="500.00" y="130.00" width="30.00" height="15.00" />
<text class="legend" x="540.00" y="145.00">ida</text>
<rect class="p3 borderLine" x="500.00" y="170.00" width="30.00" height="15.00" />
<rect class="q3" x="500.00" y="170.00" width="30.00" height="15.00" />
<text class="legend" x="540.00" y="185.00">iea</text>
<rect class="p4 borderLine" x="500.00" y="210.00" width="30.00" height="15.00" />
<rect class="q4" x="500.00" y="210.00" width="30.00" height="15.00" />
<text class="legend" x="540.00" y="225.00">iss</text>
<rect class="p5 borderLine" x="500.00" y="250.00" width="30.00" height="15.00" />
<rect class="q5" x="500.00" y="250.00" width="30.00" height="15.00" />
<text class="legend" x="540.00" y="265.00">nas</text>
</svg>
