<svg xmlns="http://www.w3.org/2000/svg" xmlns:xlink="http://www.w3.org/1999/xlink" width="700" height="500">
<defs>
<style type="text/css"><![CDATA[
  .borderLine {
	   stroke: none;
	   fill-opacity: 0.4;
  }
  .outLine {
	   stroke-width: 1;
	   fill: none;
  }
  .circle {
	   stroke: #888888;
	   stroke-width: 0.5;
	   fill: none;
    pointer-events: all;
  }
  .spcircle {
	   stroke: #FF2222;
	   stroke-width: 1;
	   fill: none;
    pointer-events: all;
  }
  .tLabel {
	   font-family: Arial;
    pointer-events: none;
	   font-size: 14px;
	   text-anchor: middle;
	   alignment-baseline: central;
  }
  .nLabel {
	   font-family: Arial;
    pointer-events: none;
	   font-size: 10px;
	   text-anchor: middle;
	   alignment-baseline: central;
  }
  .belong {
	   font-family: Arial;
    pointer-events: none;
	   font-size: 5px;
	   text-anchor: middle;
	   alignment-baseline: central;
  }
  .p0{
    stroke: none;
    fill: #e6194b;
  }
  .q0{
    fill: none;
    stroke: #e6194b;
  }
  .p1{
    stroke: none;
    fill: #3cb44b;
  }
  .q1{
    fill: none;
    stroke: #3cb44b;
  }
  .p2{
    stroke: none;
    fill: #ffe119;
  }
  .q2{
    fill: none;
    stroke: #ffe119;
  }
  .p3{
    stroke: none;
    fill: #0082c8;
  }
  .q3{
    fill: none;
    stroke: #0082c8;
  }
  .p4{
    stroke: none;
    fill: #f58231;
  }
  .q4{
    fill: none;
    stroke: #f58231;
  }
]]>
</style>
<symbol id="bl0">
<path d="M 58.12 428.42 L 31.00 433.44 L 33.35 460.92 L 60.93 461.25 L 63.94 433.83 L 283.59 274.56 L 263.37 246.67 L 234.70 242.10 L 239.27 213.43 L 267.94 218.00 L 263.37 246.67 L 283.59 274.56 L 315.21 251.63 L 329.92 260.02 L 345.93 254.49 L 352.34 238.82 L 344.78 223.66 L 342.42 226.56 L 362.87 229.75 L 375.70 213.51 L 367.86 194.35 L 347.33 191.76 L 348.80 195.20 L 361.02 179.54 L 354.26 160.86 L 334.84 156.66 L 320.96 170.87 L 289.01 162.08 L 286.21 145.12 L 271.49 136.24 L 255.18 141.67 L 248.72 157.60 L 252.47 157.43 L 242.41 140.72 L 222.92 139.97 L 211.60 155.86 L 218.68 174.03 L 220.00 172.47 L 204.28 167.73 L 190.11 176.04 L 186.57 192.07 L 195.91 205.57 Z" />
</symbol>
<symbol id="bl1">
<path d="M 172.65 318.33 L 145.77 318.47 L 142.08 345.10 L 167.91 352.55 L 178.96 328.04 L 265.57 302.19 L 278.38 315.66 L 296.81 313.27 L 305.76 296.98 L 297.88 280.14 L 365.39 193.74 L 390.13 194.15 L 397.29 170.47 L 376.48 157.10 L 357.92 173.45 L 326.10 166.94 L 319.55 147.41 L 299.34 143.41 L 285.83 158.96 L 292.63 178.41 Z" />
</symbol>
<symbol id="bl2">
<path d="M 231.98 276.70 L 210.95 283.68 L 208.51 305.70 L 227.49 317.11 L 245.80 304.63 L 471.11 400.52 L 479.57 426.24 L 506.17 421.20 L 504.64 394.17 L 477.64 392.17 L 284.40 135.82 L 290.77 111.02 L 268.00 99.31 L 251.52 118.91 L 266.97 139.32 Z" />
</symbol>
<symbol id="bl3">
<path d="M 29.91 49.77 L 17.58 25.71 L -7.91 34.75 L -2.32 61.20 L 24.64 59.18 L 213.52 244.91 L 207.92 262.77 L 219.15 277.75 L 237.87 277.39 L 248.51 261.99 L 245.72 261.62 L 250.09 277.19 L 264.37 284.76 L 279.71 279.65 L 286.59 265.01 L 336.14 266.72 L 352.30 287.48 L 375.61 275.30 L 367.81 250.18 L 341.70 253.37 L 174.26 96.16 L 179.56 78.86 L 169.12 64.09 L 151.05 63.31 L 139.38 77.13 Z" />
</symbol>
<symbol id="bl4">
<path d="M 179.82 82.11 L 163.42 62.00 L 140.42 74.02 L 147.58 98.97 L 173.45 96.97 L 217.81 143.53 L 211.45 159.05 L 218.79 174.13 L 234.93 178.70 L 249.09 169.71 L 265.31 180.44 L 262.57 196.93 L 273.01 210.00 L 289.70 210.96 L 301.57 199.19 L 298.07 197.83 L 298.93 214.61 L 312.03 225.12 L 328.59 222.34 L 337.54 208.13 L 335.05 207.78 L 343.67 227.50 L 365.16 228.69 L 375.89 210.02 L 364.05 192.04 L 406.67 100.71 L 430.78 95.65 L 432.67 71.08 L 409.61 62.40 L 394.83 82.11 Z" />
</symbol>
</defs>
<!-- isDone: 0 -->
<rect width="700" height="500" style="fill:#fff;stroke-width:0" />
<use class="p0 borderLine" xlink:href="#bl0"/>
<use class="p1 borderLine" xlink:href="#bl1"/>
<use class="p2 borderLine" xlink:href="#bl2"/>
<use class="p3 borderLine" xlink:href="#bl3"/>
<use class="p4 borderLine" xlink:href="#bl4"/>
<use class="q0 outLine" xlink:href="#bl0"/>
<use class="q1 outLine" xlink:href="#bl1"/>
<use class="q2 outLine" xlink:href="#bl2"/>
<use class="q3 outLine" xlink:href="#bl3"/>
<use class="q4 outLine" xlink:href="#bl4"/>
<circle onclick="fromCircle(1)" class="spcircle" cx="47.3228" cy="445.8829" r="17.5941" />
<text class="tLabel" x="47.32" y="425.88"></text>
<text class="nLabel" x="47.32" y="440.88">40</text>
<text class="belong" x="47.32" y="450.88">(1)</text>
<circle onclick="fromCircle(3)" class="spcircle" cx="159.2912" cy="333.9145" r="2.7819" />
<text class="tLabel" x="159.29" y="313.91"></text>
<text class="nLabel" x="159.29" y="328.91">1</text>
<text class="belong" x="159.29" y="338.91">(1, 2)</text>
<circle onclick="fromCircle(7)" class="spcircle" cx="226.9074" cy="296.5917" r="2.7819" />
<text class="tLabel" x="226.91" y="276.59"></text>
<text class="nLabel" x="226.91" y="291.59">1</text>
<text class="belong" x="226.91" y="301.59">(1, 2, 3)</text>
<circle onclick="fromCircle(15)" class="spcircle" cx="266.0701" cy="264.3070" r="3.9342" />
<text class="tLabel" x="266.07" y="244.31"></text>
<text class="nLabel" x="266.07" y="259.31">2</text>
<text class="belong" x="266.07" y="269.31">(1, 2, 3, 4)</text>
<circle onclick="fromCircle(2)" class="circle" cx="378.0316" cy="177.5680" r="2.7819" />
<text class="tLabel" x="378.03" y="157.57"></text>
<text class="nLabel" x="378.03" y="172.57">1</text>
<text class="belong" x="378.03" y="182.57">(2)</text>
<circle onclick="fromCircle(6)" class="circle" cx="285.2439" cy="296.3143" r="4.8184" />
<text class="tLabel" x="285.24" y="276.31"></text>
<text class="nLabel" x="285.24" y="291.31">3</text>
<text class="belong" x="285.24" y="301.31">(2, 3)</text>
<circle onclick="fromCircle(14)" class="circle" cx="303.3731" cy="263.6995" r="7.3602" />
<text class="tLabel" x="303.37" y="243.70"></text>
<text class="nLabel" x="303.37" y="258.70">7</text>
<text class="belong" x="303.37" y="268.70">(2, 3, 4)</text>
<circle onclick="fromCircle(10)" class="spcircle" cx="251.3192" cy="230.0525" r="7.8683" />
<text class="tLabel" x="251.32" y="210.05"></text>
<text class="nLabel" x="251.32" y="225.05">8</text>
<text class="belong" x="251.32" y="235.05">(2, 4)</text>
<circle onclick="fromCircle(18)" class="circle" cx="305.9924" cy="162.8267" r="6.2205" />
<text class="tLabel" x="305.99" y="142.83"></text>
<text class="nLabel" x="305.99" y="157.83">5</text>
<text class="belong" x="305.99" y="167.83">(2, 5)</text>
<circle onclick="fromCircle(22)" class="spcircle" cx="317.2106" cy="205.2615" r="18.6614" />
<text class="tLabel" x="317.21" y="185.26"></text>
<text class="nLabel" x="317.21" y="200.26">45</text>
<text class="belong" x="317.21" y="210.26">(2, 3, 5)</text>
<circle onclick="fromCircle(5)" class="circle" cx="331.8257" cy="239.5806" r="4.8184" />
<text class="tLabel" x="331.83" y="219.58"></text>
<text class="nLabel" x="331.83" y="234.58">3</text>
<text class="belong" x="331.83" y="244.58">(1, 3)</text>
<circle onclick="fromCircle(13)" class="spcircle" cx="288.7278" cy="229.3759" r="6.2205" />
<text class="tLabel" x="288.73" y="209.38"></text>
<text class="nLabel" x="288.73" y="224.38">5</text>
<text class="belong" x="288.73" y="234.38">(1, 3, 4)</text>
<circle onclick="fromCircle(12)" class="circle" cx="356.6601" cy="267.4200" r="5.5638" />
<text class="tLabel" x="356.66" y="247.42"></text>
<text class="nLabel" x="356.66" y="262.42">4</text>
<text class="belong" x="356.66" y="272.42">(3, 4)</text>
<circle onclick="fromCircle(20)" class="circle" cx="272.0419" cy="119.4320" r="6.2205" />
<text class="tLabel" x="272.04" y="99.43"></text>
<text class="nLabel" x="272.04" y="114.43">5</text>
<text class="belong" x="272.04" y="124.43">(3, 5)</text>
<circle onclick="fromCircle(21)" class="circle" cx="269.2207" cy="156.6404" r="6.2205" />
<text class="tLabel" x="269.22" y="136.64"></text>
<text class="nLabel" x="269.22" y="151.64">5</text>
<text class="belong" x="269.22" y="161.64">(1, 3, 5)</text>
<circle onclick="fromCircle(9)" class="spcircle" cx="206.7081" cy="188.1151" r="7.3602" />
<text class="tLabel" x="206.71" y="168.12"></text>
<text class="nLabel" x="206.71" y="183.12">7</text>
<text class="belong" x="206.71" y="193.12">(1, 4)</text>
<circle onclick="fromCircle(11)" class="spcircle" cx="228.1570" cy="259.3047" r="4.8184" />
<text class="tLabel" x="228.16" y="239.30"></text>
<text class="nLabel" x="228.16" y="254.30">3</text>
<text class="belong" x="228.16" y="264.30">(1, 2, 4)</text>
<circle onclick="fromCircle(24)" class="circle" cx="159.2912" cy="82.1092" r="7.8683" />
<text class="tLabel" x="159.29" y="62.11"></text>
<text class="nLabel" x="159.29" y="77.11">8</text>
<text class="belong" x="159.29" y="87.11">(4, 5)</text>
<circle onclick="fromCircle(25)" class="circle" cx="231.9685" cy="158.3910" r="3.9342" />
<text class="tLabel" x="231.97" y="138.39"></text>
<text class="nLabel" x="231.97" y="153.39">2</text>
<text class="belong" x="231.97" y="163.39">(1, 4, 5)</text>
<circle onclick="fromCircle(16)" class="circle" cx="415.3544" cy="82.1092" r="2.7819" />
<text class="tLabel" x="415.35" y="62.11"></text>
<text class="nLabel" x="415.35" y="77.11">1</text>
<text class="belong" x="415.35" y="87.11">(5)</text>
<circle onclick="fromCircle(17)" class="circle" cx="355.3727" cy="210.6419" r="6.2205" />
<text class="tLabel" x="355.37" y="190.64"></text>
<text class="nLabel" x="355.37" y="205.64">5</text>
<text class="belong" x="355.37" y="215.64">(1, 5)</text>
<circle onclick="fromCircle(19)" class="circle" cx="340.7526" cy="176.3156" r="6.2205" />
<text class="tLabel" x="340.75" y="156.32"></text>
<text class="nLabel" x="340.75" y="171.32">5</text>
<text class="belong" x="340.75" y="181.32">(1, 2, 5)</text>
<circle onclick="fromCircle(23)" class="circle" cx="282.4355" cy="191.7637" r="4.8184" />
<text class="tLabel" x="282.44" y="171.76"></text>
<text class="nLabel" x="282.44" y="186.76">3</text>
<text class="belong" x="282.44" y="196.76">(1, 2, 3, 5)</text>
<rect class="p0 borderLine" x="500.00" y="50.00" width="30.00" height="15.00" />
<rect class="q0" x="500.00" y="50.00" width="30.00" height="15.00" />
<text class="legend" x="540.00" y="65.00">Ball2017</text>
<rect class="p1 borderLine" x="500.00" y="90.00" width="30.00" height="15.00" />
<rect class="q1" x="500.00" y="90.00" width="30.00" height="15.00" />
<text class="legend" x="540.00" y="105.00">Courtois2015</text>
<rect class="p2 borderLine" x="500.00" y="130.00" width="30.00" height="15.00" />
<rect class="q2" x="500.00" y="130.00" width="30.00" height="15.00" />
<text class="legend" x="540.00" y="145.00">Hilton2017</text>
<rect class="p3 borderLine" x="500.00" y="170.00" width="30.00" height="15.00" />
<rect class="q3" x="500.00" y="170.00" width="30.00" height="15.00" />
<text class="legend" x="540.00" y="185.00">Ball2017</text>
<rect class="p4 borderLine" x="500.00" y="210.00" width="30.00" height="15.00" />
<rect class="q4" x="500.00" y="210.00" width="30.00" height="15.00" />
<text class="legend" x="540.00" y="225.00">Hilton2017</text>
</svg>
