<svg xmlns="http://www.w3.org/2000/svg" xmlns:xlink="http://www.w3.org/1999/xlink" width="700" height="500">
<defs>
<style type="text/css"><![CDATA[
  .borderLine {
	   stroke: none;
	   fill-opacity: 0.4;
  }
  .outLine {
	   stroke-width: 1;
	   fill: none;
  }
  .circle {
	   stroke: #888888;
	   stroke-width: 0.5;
	   fill: none;
    pointer-events: all;
  }
  .spcircle {
	   stroke: #FF2222;
	   stroke-width: 1;
	   fill: none;
    pointer-events: all;
  }
  .tLabel {
	   font-family: Arial;
    pointer-events: none;
	   font-size: 14px;
	   text-anchor: middle;
	   alignment-baseline: central;
  }
  .nLabel {
	   font-family: Arial;
    pointer-events: none;
	   font-size: 10px;
	   text-anchor: middle;
	   alignment-baseline: central;
  }
  .belong {
	   font-family: Arial;
    pointer-events: none;
	   font-size: 5px;
	   text-anchor: middle;
	   alignment-baseline: central;
  }
  .p0{
    stroke: none;
    fill: #e6194b;
  }
  .q0{
    fill: none;
    stroke: #e6194b;
  }
  .p1{
    stroke: none;
    fill: #3cb44b;
  }
  .q1{
    fill: none;
    stroke: #3cb44b;
  }
  .p2{
    stroke: none;
    fill: #ffe119;
  }
  .q2{
    fill: none;
    stroke: #ffe119;
  }
  .p3{
    stroke: none;
    fill: #0082c8;
  }
  .q3{
    fill: none;
    stroke: #0082c8;
  }
  .p4{
    stroke: none;
    fill: #f58231;
  }
  .q4{
    fill: none;
    stroke: #f58231;
  }
  .p5{
    stroke: none;
    fill: #911eb4;
  }
  .q5{
    fill: none;
    stroke: #911eb4;
  }
  .p6{
    stroke: none;
    fill: #46f0f0;
  }
  .q6{
    fill: none;
    stroke: #46f0f0;
  }
  .p7{
    stroke: none;
    fill: #f032e6;
  }
  .q7{
    fill: none;
    stroke: #f032e6;
  }
]]>
</style>
</defs>
<!-- isDone: 0 -->
<rect width="700" height="500" style="fill:#fff;stroke-width:0" />
<circle onclick="fromCircle(1)" class="circle" cx="77.4801" cy="127.9586" r="7.5840" />
<text class="tLabel" x="77.48" y="107.96"></text>
<text class="nLabel" x="77.48" y="122.96">40</text>
<text class="belong" x="77.48" y="132.96">(1)</text>
<circle onclick="fromCircle(3)" class="circle" cx="158.1453" cy="147.9445" r="4.3197" />
<text class="tLabel" x="158.15" y="127.94"></text>
<text class="nLabel" x="158.15" y="142.94">1</text>
<text class="belong" x="158.15" y="152.94">(1, 2)</text>
<circle onclick="fromCircle(7)" class="circle" cx="261.7159" cy="208.6892" r="4.3197" />
<text class="tLabel" x="261.72" y="188.69"></text>
<text class="nLabel" x="261.72" y="203.69">1</text>
<text class="belong" x="261.72" y="213.69">(1, 2, 3)</text>
<circle onclick="fromCircle(15)" class="circle" cx="257.3283" cy="291.5565" r="4.3197" />
<text class="tLabel" x="257.33" y="271.56"></text>
<text class="nLabel" x="257.33" y="286.56">2</text>
<text class="belong" x="257.33" y="296.56">(1, 2, 3, 4)</text>
<circle onclick="fromCircle(127)" class="circle" cx="331.2661" cy="254.0303" r="4.3197" />
<text class="tLabel" x="331.27" y="234.03"></text>
<text class="nLabel" x="331.27" y="249.03">6</text>
<text class="belong" x="331.27" y="259.03">(1, 2, 3, 4, 5, 6, 7)</text>
<circle onclick="fromCircle(2)" class="circle" cx="118.8864" cy="55.9865" r="4.3197" />
<text class="tLabel" x="118.89" y="35.99"></text>
<text class="nLabel" x="118.89" y="50.99">1</text>
<text class="belong" x="118.89" y="60.99">(2)</text>
<circle onclick="fromCircle(6)" class="circle" cx="91.0653" cy="290.1768" r="4.3197" />
<text class="tLabel" x="91.07" y="270.18"></text>
<text class="nLabel" x="91.07" y="285.18">3</text>
<text class="belong" x="91.07" y="295.18">(2, 3)</text>
<circle onclick="fromCircle(14)" class="circle" cx="339.8722" cy="88.2206" r="4.3197" />
<text class="tLabel" x="339.87" y="68.22"></text>
<text class="nLabel" x="339.87" y="83.22">7</text>
<text class="belong" x="339.87" y="93.22">(2, 3, 4)</text>
<circle onclick="fromCircle(10)" class="circle" cx="199.4725" cy="75.9393" r="4.3197" />
<text class="tLabel" x="199.47" y="55.94"></text>
<text class="nLabel" x="199.47" y="70.94">8</text>
<text class="belong" x="199.47" y="80.94">(2, 4)</text>
<circle onclick="fromCircle(18)" class="circle" cx="418.2882" cy="380.5134" r="4.3197" />
<text class="tLabel" x="418.29" y="360.51"></text>
<text class="nLabel" x="418.29" y="375.51">5</text>
<text class="belong" x="418.29" y="385.51">(2, 5)</text>
<circle onclick="fromCircle(130)" class="circle" cx="100.4871" cy="207.7111" r="4.3197" />
<text class="tLabel" x="100.49" y="187.71"></text>
<text class="nLabel" x="100.49" y="202.71">1</text>
<text class="belong" x="100.49" y="212.71">(2, 8)</text>
<circle onclick="fromCircle(4)" class="circle" cx="96.8110" cy="372.9974" r="4.3197" />
<text class="tLabel" x="96.81" y="353.00"></text>
<text class="nLabel" x="96.81" y="368.00">3</text>
<text class="belong" x="96.81" y="378.00">(3)</text>
<circle onclick="fromCircle(5)" class="circle" cx="181.0013" cy="227.7628" r="4.3197" />
<text class="tLabel" x="181.00" y="207.76"></text>
<text class="nLabel" x="181.00" y="222.76">3</text>
<text class="belong" x="181.00" y="232.76">(1, 3)</text>
<circle onclick="fromCircle(13)" class="circle" cx="335.7066" cy="171.1247" r="4.3197" />
<text class="tLabel" x="335.71" y="151.12"></text>
<text class="nLabel" x="335.71" y="166.12">5</text>
<text class="belong" x="335.71" y="176.12">(1, 3, 4)</text>
<circle onclick="fromCircle(12)" class="circle" cx="413.9105" cy="50.6540" r="4.3197" />
<text class="tLabel" x="413.91" y="30.65"></text>
<text class="nLabel" x="413.91" y="45.65">4</text>
<text class="belong" x="413.91" y="55.65">(3, 4)</text>
<circle onclick="fromCircle(20)" class="circle" cx="174.4642" cy="402.3967" r="4.3197" />
<text class="tLabel" x="174.46" y="382.40"></text>
<text class="nLabel" x="174.46" y="397.40">5</text>
<text class="belong" x="174.46" y="407.40">(3, 5)</text>
<circle onclick="fromCircle(21)" class="circle" cx="252.6262" cy="374.4151" r="4.3197" />
<text class="tLabel" x="252.63" y="354.42"></text>
<text class="nLabel" x="252.63" y="369.42">5</text>
<text class="belong" x="252.63" y="379.42">(1, 3, 5)</text>
<circle onclick="fromCircle(8)" class="circle" cx="273.4935" cy="38.3353" r="4.3197" />
<text class="tLabel" x="273.49" y="18.34"></text>
<text class="nLabel" x="273.49" y="33.34">1</text>
<text class="belong" x="273.49" y="43.34">(4)</text>
<circle onclick="fromCircle(9)" class="circle" cx="409.7717" cy="133.5918" r="4.3197" />
<text class="tLabel" x="409.77" y="113.59"></text>
<text class="nLabel" x="409.77" y="128.59">7</text>
<text class="belong" x="409.77" y="138.59">(1, 4)</text>
<circle onclick="fromCircle(11)" class="circle" cx="265.8394" cy="125.8110" r="20.7695" />
<text class="tLabel" x="265.84" y="105.81"></text>
<text class="nLabel" x="265.84" y="120.81">300</text>
<text class="belong" x="265.84" y="130.81">(1, 2, 4)</text>
<circle onclick="fromCircle(40)" class="circle" cx="17.5840" cy="212.1091" r="4.3197" />
<text class="tLabel" x="17.58" y="192.11"></text>
<text class="nLabel" x="17.58" y="207.11">1</text>
<text class="belong" x="17.58" y="217.11">(4, 6)</text>
<circle onclick="fromCircle(16)" class="circle" cx="400.7235" cy="461.6647" r="4.3197" />
<text class="tLabel" x="400.72" y="441.66"></text>
<text class="nLabel" x="400.72" y="456.66">1</text>
<text class="belong" x="400.72" y="466.66">(5)</text>
<circle onclick="fromCircle(17)" class="circle" cx="253.5142" cy="457.4339" r="4.3197" />
<text class="tLabel" x="253.51" y="437.43"></text>
<text class="nLabel" x="253.51" y="452.43">5</text>
<text class="belong" x="253.51" y="462.43">(1, 5)</text>
<circle onclick="fromCircle(19)" class="circle" cx="326.7780" cy="337.0477" r="4.3197" />
<text class="tLabel" x="326.78" y="317.05"></text>
<text class="nLabel" x="326.78" y="332.05">5</text>
<text class="belong" x="326.78" y="342.05">(1, 2, 5)</text>
<circle onclick="fromCircle(80)" class="circle" cx="328.8276" cy="420.0639" r="4.3197" />
<text class="tLabel" x="328.83" y="400.06"></text>
<text class="nLabel" x="328.83" y="415.06">1</text>
<text class="belong" x="328.83" y="425.06">(5, 7)</text>
<circle onclick="fromCircle(32)" class="circle" cx="485.6803" cy="195.8712" r="4.3197" />
<text class="tLabel" x="485.68" y="175.87"></text>
<text class="nLabel" x="485.68" y="190.87">2</text>
<text class="belong" x="485.68" y="200.87">(6)</text>
<circle onclick="fromCircle(96)" class="circle" cx="400.7556" cy="299.3923" r="4.3197" />
<text class="tLabel" x="400.76" y="279.39"></text>
<text class="nLabel" x="400.76" y="294.39">1</text>
<text class="belong" x="400.76" y="304.39">(6, 7)</text>
<circle onclick="fromCircle(64)" class="circle" cx="482.2799" cy="283.7694" r="4.3197" />
<text class="tLabel" x="482.28" y="263.77"></text>
<text class="nLabel" x="482.28" y="278.77">4</text>
<text class="belong" x="482.28" y="288.77">(7)</text>
<circle onclick="fromCircle(128)" class="circle" cx="405.2721" cy="216.4932" r="4.3197" />
<text class="tLabel" x="405.27" y="196.49"></text>
<text class="nLabel" x="405.27" y="211.49">8</text>
<text class="belong" x="405.27" y="221.49">(8)</text>
<rect class="p0 borderLine" x="500.00" y="50.00" width="30.00" height="15.00" />
<rect class="q0" x="500.00" y="50.00" width="30.00" height="15.00" />
<text class="legend" x="540.00" y="65.00">Ball2017</text>
<rect class="p1 borderLine" x="500.00" y="90.00" width="30.00" height="15.00" />
<rect class="q1" x="500.00" y="90.00" width="30.00" height="15.00" />
<text class="legend" x="540.00" y="105.00">Courtois2015</text>
<rect class="p2 borderLine" x="500.00" y="130.00" width="30.00" height="15.00" />
<rect class="q2" x="500.00" y="130.00" width="30.00" height="15.00" />
<text class="legend" x="540.00" y="145.00">Hilton2017</text>
<rect class="p3 borderLine" x="500.00" y="170.00" width="30.00" height="15.00" />
<rect class="q3" x="500.00" y="170.00" width="30.00" height="15.00" />
<text class="legend" x="540.00" y="185.00">Ball2017</text>
<rect class="p4 borderLine" x="500.00" y="210.00" width="30.00" height="15.00" />
<rect class="q4" x="500.00" y="210.00" width="30.00" height="15.00" />
<text class="legend" x="540.00" y="225.00">Courtois2015</text>
<rect class="p5 borderLine" x="500.00" y="250.00" width="30.00" height="15.00" />
<rect class="q5" x="500.00" y="250.00" width="30.00" height="15.00" />
<text class="legend" x="540.00" y="265.00">Hilton2017</text>
<rect class="p6 borderLine" x="500.00" y="290.00" width="30.00" height="15.00" />
<rect class="q6" x="500.00" y="290.00" width="30.00" height="15.00" />
<text class="legend" x="540.00" y="305.00">Courtois2015</text>
<rect class="p7 borderLine" x="500.00" y="330.00" width="30.00" height="15.00" />
<rect class="q7" x="500.00" y="330.00" width="30.00" height="15.00" />
<text class="legend" x="540.00" y="345.00">Hilton2017</text>
</svg>
