<svg xmlns="http://www.w3.org/2000/svg" xmlns:xlink="http://www.w3.org/1999/xlink" width="700" height="500">
<defs>
<style type="text/css"><![CDATA[
  .borderLine {
	   stroke: none;
	   fill-opacity: 0.4;
  }
  .outLine {
	   stroke-width: 1;
	   fill: none;
  }
  .circle {
	   stroke: #888888;
	   stroke-width: 0.5;
	   fill: none;
    pointer-events: all;
  }
  .spcircle {
	   stroke: #FF2222;
	   stroke-width: 1;
	   fill: none;
    pointer-events: all;
  }
  .tLabel {
	   font-family: Arial;
    pointer-events: none;
	   font-size: 14px;
	   text-anchor: middle;
	   alignment-baseline: central;
  }
  .nLabel {
	   font-family: Arial;
    pointer-events: none;
	   font-size: 10px;
	   text-anchor: middle;
	   alignment-baseline: central;
  }
  .belong {
	   font-family: Arial;
    pointer-events: none;
	   font-size: 5px;
	   text-anchor: middle;
	   alignment-baseline: central;
  }
  .p0{
    stroke: none;
    fill: #e6194b;
  }
  .q0{
    fill: none;
    stroke: #e6194b;
  }
  .p1{
    stroke: none;
    fill: #3cb44b;
  }
  .q1{
    fill: none;
    stroke: #3cb44b;
  }
  .p2{
    stroke: none;
    fill: #ffe119;
  }
  .q2{
    fill: none;
    stroke: #ffe119;
  }
  .p3{
    stroke: none;
    fill: #0082c8;
  }
  .q3{
    fill: none;
    stroke: #0082c8;
  }
]]>
</style>
</defs>
<!-- isDone: 0 -->
<rect width="700" height="500" style="fill:#fff;stroke-width:0" />
<circle onclick="fromCircle(1)" class="circle" cx="172.2559" cy="25.5558" r="36.0417" />
<text class="tLabel" x="172.26" y="5.56"></text>
<text class="nLabel" x="172.26" y="20.56">20000</text>
<text class="belong" x="172.26" y="30.56">(1)</text>
<circle onclick="fromCircle(2)" class="circle" cx="46.8268" cy="485.5771" r="4.4229" />
<text class="tLabel" x="46.83" y="465.58"></text>
<text class="nLabel" x="46.83" y="480.58">12</text>
<text class="belong" x="46.83" y="490.58">(2)</text>
<circle onclick="fromCircle(6)" class="circle" cx="435.1037" cy="353.1120" r="4.4229" />
<text class="tLabel" x="435.10" y="333.11"></text>
<text class="nLabel" x="435.10" y="348.11">6</text>
<text class="belong" x="435.10" y="358.11">(2, 3)</text>
<circle onclick="fromCircle(14)" class="circle" cx="291.1223" cy="346.0627" r="4.4229" />
<text class="tLabel" x="291.12" y="326.06"></text>
<text class="nLabel" x="291.12" y="341.06">1</text>
<text class="belong" x="291.12" y="351.06">(2, 3, 4)</text>
<circle onclick="fromCircle(10)" class="circle" cx="39.4013" cy="300.8862" r="4.4229" />
<text class="tLabel" x="39.40" y="280.89"></text>
<text class="nLabel" x="39.40" y="295.89">11</text>
<text class="belong" x="39.40" y="305.89">(2, 4)</text>
<circle onclick="fromCircle(4)" class="circle" cx="184.3478" cy="247.7406" r="4.4229" />
<text class="tLabel" x="184.35" y="227.74"></text>
<text class="nLabel" x="184.35" y="242.74">28</text>
<text class="belong" x="184.35" y="252.74">(3)</text>
<circle onclick="fromCircle(5)" class="spcircle" cx="353.5914" cy="14.4229" r="4.4229" />
<text class="tLabel" x="353.59" y="-5.58"></text>
<text class="nLabel" x="353.59" y="9.42">7</text>
<text class="belong" x="353.59" y="19.42">(1, 3)</text>
<circle onclick="fromCircle(13)" class="circle" cx="269.7847" cy="131.6874" r="4.4229" />
<text class="tLabel" x="269.78" y="111.69"></text>
<text class="nLabel" x="269.78" y="126.69">2</text>
<text class="belong" x="269.78" y="136.69">(1, 3, 4)</text>
<circle onclick="fromCircle(12)" class="circle" cx="385.3605" cy="217.8156" r="4.4229" />
<text class="tLabel" x="385.36" y="197.82"></text>
<text class="nLabel" x="385.36" y="212.82">16</text>
<text class="belong" x="385.36" y="222.82">(3, 4)</text>
<circle onclick="fromCircle(8)" class="circle" cx="153.3556" cy="388.4711" r="4.4229" />
<text class="tLabel" x="153.36" y="368.47"></text>
<text class="nLabel" x="153.36" y="383.47">84</text>
<text class="belong" x="153.36" y="393.47">(4)</text>
<circle onclick="fromCircle(9)" class="circle" cx="33.2775" cy="63.8012" r="4.4229" />
<text class="tLabel" x="33.28" y="43.80"></text>
<text class="nLabel" x="33.28" y="58.80">15</text>
<text class="belong" x="33.28" y="68.80">(1, 4)</text>
<rect class="p0 borderLine" x="500.00" y="50.00" width="30.00" height="15.00" />
<rect class="q0" x="500.00" y="50.00" width="30.00" height="15.00" />
<text class="legend" x="540.00" y="65.00">S_salivarius</text>
<rect class="p1 borderLine" x="500.00" y="90.00" width="30.00" height="15.00" />
<rect class="q1" x="500.00" y="90.00" width="30.00" height="15.00" />
<text class="legend" x="540.00" y="105.00">Other</text>
<rect class="p2 borderLine" x="500.00" y="130.00" width="30.00" height="15.00" />
<rect class="q2" x="500.00" y="130.00" width="30.00" height="15.00" />
<text class="legend" x="540.00" y="145.00">GAS</text>
<rect class="p3 borderLine" x="500.00" y="170.00" width="30.00" height="15.00" />
<rect class="q3" x="500.00" y="170.00" width="30.00" height="15.00" />
<text class="legend" x="540.00" y="185.00">GCS/GGS</text>
</svg>
