<svg xmlns="http://www.w3.org/2000/svg" xmlns:xlink="http://www.w3.org/1999/xlink" width="700" height="500">
<defs>
<style type="text/css"><![CDATA[
  .borderLine {
	   stroke: none;
	   fill-opacity: 0.4;
  }
  .outLine {
	   stroke-width: 1;
	   fill: none;
  }
  .circle {
	   stroke: #888888;
	   stroke-width: 0.5;
	   fill: none;
    pointer-events: all;
  }
  .spcircle {
	   stroke: #FF2222;
	   stroke-width: 1;
	   fill: none;
    pointer-events: all;
  }
  .tLabel {
	   font-family: Arial;
    pointer-events: none;
	   font-size: 14px;
	   text-anchor: middle;
	   alignment-baseline: central;
  }
  .nLabel {
	   font-family: Arial;
    pointer-events: none;
	   font-size: 10px;
	   text-anchor: middle;
	   alignment-baseline: central;
  }
  .belong {
	   font-family: Arial;
    pointer-events: none;
	   font-size: 5px;
	   text-anchor: middle;
	   alignment-baseline: central;
  }
  .p0{
    stroke: none;
    fill: #e6194b;
  }
  .q0{
    fill: none;
    stroke: #e6194b;
  }
  .p1{
    stroke: none;
    fill: #3cb44b;
  }
  .q1{
    fill: none;
    stroke: #3cb44b;
  }
  .p2{
    stroke: none;
    fill: #ffe119;
  }
  .q2{
    fill: none;
    stroke: #ffe119;
  }
  .p3{
    stroke: none;
    fill: #0082c8;
  }
  .q3{
    fill: none;
    stroke: #0082c8;
  }
  .p4{
    stroke: none;
    fill: #f58231;
  }
  .q4{
    fill: none;
    stroke: #f58231;
  }
  .p5{
    stroke: none;
    fill: #911eb4;
  }
  .q5{
    fill: none;
    stroke: #911eb4;
  }
]]>
</style>
</defs>
<!-- isDone: 0 -->
<rect width="700" height="500" style="fill:#fff;stroke-width:0" />
<circle onclick="fromCircle(1)" class="circle" cx="220.6371" cy="131.7705" r="21.1929" />
<text class="tLabel" x="220.64" y="111.77"></text>
<text class="nLabel" x="220.64" y="126.77">40</text>
<text class="belong" x="220.64" y="136.77">(1)</text>
<circle onclick="fromCircle(3)" class="circle" cx="292.3255" cy="313.8105" r="4.1841" />
<text class="tLabel" x="292.33" y="293.81"></text>
<text class="nLabel" x="292.33" y="308.81">1</text>
<text class="belong" x="292.33" y="318.81">(1, 2)</text>
<circle onclick="fromCircle(7)" class="circle" cx="211.9549" cy="287.0027" r="4.1841" />
<text class="tLabel" x="211.95" y="267.00"></text>
<text class="nLabel" x="211.95" y="282.00">1</text>
<text class="belong" x="211.95" y="292.00">(1, 2, 3)</text>
<circle onclick="fromCircle(15)" class="circle" cx="182.8247" cy="207.5217" r="4.7389" />
<text class="tLabel" x="182.82" y="187.52"></text>
<text class="nLabel" x="182.82" y="202.52">2</text>
<text class="belong" x="182.82" y="212.52">(1, 2, 3, 4)</text>
<circle onclick="fromCircle(2)" class="circle" cx="132.2047" cy="75.9207" r="4.1841" />
<text class="tLabel" x="132.20" y="55.92"></text>
<text class="nLabel" x="132.20" y="70.92">1</text>
<text class="belong" x="132.20" y="80.92">(2)</text>
<circle onclick="fromCircle(6)" class="circle" cx="224.8724" cy="454.4674" r="5.8039" />
<text class="tLabel" x="224.87" y="434.47"></text>
<text class="nLabel" x="224.87" y="449.47">3</text>
<text class="belong" x="224.87" y="459.47">(2, 3)</text>
<circle onclick="fromCircle(14)" class="circle" cx="69.6581" cy="133.1049" r="8.8656" />
<text class="tLabel" x="69.66" y="113.10"></text>
<text class="nLabel" x="69.66" y="128.10">7</text>
<text class="belong" x="69.66" y="138.10">(2, 3, 4)</text>
<circle onclick="fromCircle(10)" class="circle" cx="212.0545" cy="47.4956" r="9.4778" />
<text class="tLabel" x="212.05" y="27.50"></text>
<text class="nLabel" x="212.05" y="42.50">8</text>
<text class="belong" x="212.05" y="52.50">(2, 4)</text>
<circle onclick="fromCircle(18)" class="circle" cx="77.0466" cy="386.0650" r="7.4928" />
<text class="tLabel" x="77.05" y="366.07"></text>
<text class="nLabel" x="77.05" y="381.07">5</text>
<text class="belong" x="77.05" y="391.07">(2, 5)</text>
<circle onclick="fromCircle(4)" class="circle" cx="14.1841" cy="202.7108" r="5.8039" />
<text class="tLabel" x="14.18" y="182.71"></text>
<text class="nLabel" x="14.18" y="197.71">3</text>
<text class="belong" x="14.18" y="207.71">(3)</text>
<circle onclick="fromCircle(5)" class="circle" cx="98.3153" cy="212.8367" r="5.8039" />
<text class="tLabel" x="98.32" y="192.84"></text>
<text class="nLabel" x="98.32" y="207.84">3</text>
<text class="belong" x="98.32" y="217.84">(1, 3)</text>
<circle onclick="fromCircle(13)" class="circle" cx="270.0411" cy="225.3860" r="7.4928" />
<text class="tLabel" x="270.04" y="205.39"></text>
<text class="nLabel" x="270.04" y="220.39">5</text>
<text class="belong" x="270.04" y="230.39">(1, 3, 4)</text>
<circle onclick="fromCircle(12)" class="circle" cx="300.1139" cy="63.0781" r="6.7018" />
<text class="tLabel" x="300.11" y="43.08"></text>
<text class="nLabel" x="300.11" y="58.08">4</text>
<text class="belong" x="300.11" y="68.08">(3, 4)</text>
<circle onclick="fromCircle(20)" class="circle" cx="60.6453" cy="288.6942" r="7.4928" />
<text class="tLabel" x="60.65" y="268.69"></text>
<text class="nLabel" x="60.65" y="283.69">5</text>
<text class="belong" x="60.65" y="293.69">(3, 5)</text>
<circle onclick="fromCircle(21)" class="circle" cx="136.7024" cy="325.8849" r="7.4928" />
<text class="tLabel" x="136.70" y="305.88"></text>
<text class="nLabel" x="136.70" y="320.88">5</text>
<text class="belong" x="136.70" y="330.88">(1, 3, 5)</text>
<circle onclick="fromCircle(8)" class="circle" cx="468.8071" cy="169.7872" r="4.1841" />
<text class="tLabel" x="468.81" y="149.79"></text>
<text class="nLabel" x="468.81" y="164.79">1</text>
<text class="belong" x="468.81" y="174.79">(4)</text>
<circle onclick="fromCircle(9)" class="circle" cx="350.4514" cy="252.1729" r="8.8656" />
<text class="tLabel" x="350.45" y="232.17"></text>
<text class="nLabel" x="350.45" y="247.17">7</text>
<text class="belong" x="350.45" y="257.17">(1, 4)</text>
<circle onclick="fromCircle(11)" class="circle" cx="303.8406" cy="147.7206" r="5.8039" />
<text class="tLabel" x="303.84" y="127.72"></text>
<text class="nLabel" x="303.84" y="142.72">3</text>
<text class="belong" x="303.84" y="152.72">(1, 2, 4)</text>
<circle onclick="fromCircle(40)" class="circle" cx="384.2131" cy="174.4595" r="4.1841" />
<text class="tLabel" x="384.21" y="154.46"></text>
<text class="nLabel" x="384.21" y="169.46">1</text>
<text class="belong" x="384.21" y="179.46">(4, 6)</text>
<circle onclick="fromCircle(16)" class="circle" cx="138.1393" cy="444.8221" r="4.1841" />
<text class="tLabel" x="138.14" y="424.82"></text>
<text class="nLabel" x="138.14" y="439.82">1</text>
<text class="belong" x="138.14" y="449.82">(5)</text>
<circle onclick="fromCircle(17)" class="circle" cx="288.3469" cy="398.4507" r="7.4928" />
<text class="tLabel" x="288.35" y="378.45"></text>
<text class="nLabel" x="288.35" y="393.45">5</text>
<text class="belong" x="288.35" y="403.45">(1, 5)</text>
<circle onclick="fromCircle(19)" class="circle" cx="208.0117" cy="371.5474" r="7.4928" />
<text class="tLabel" x="208.01" y="351.55"></text>
<text class="nLabel" x="208.01" y="366.55">5</text>
<text class="belong" x="208.01" y="376.55">(1, 2, 5)</text>
<circle onclick="fromCircle(32)" class="circle" cx="366.0737" cy="364.9518" r="4.7389" />
<text class="tLabel" x="366.07" y="344.95"></text>
<text class="nLabel" x="366.07" y="359.95">2</text>
<text class="belong" x="366.07" y="369.95">(6)</text>
<rect class="p0 borderLine" x="500.00" y="50.00" width="30.00" height="15.00" />
<rect class="q0" x="500.00" y="50.00" width="30.00" height="15.00" />
<text class="legend" x="540.00" y="65.00">Ball2017</text>
<rect class="p1 borderLine" x="500.00" y="90.00" width="30.00" height="15.00" />
<rect class="q1" x="500.00" y="90.00" width="30.00" height="15.00" />
<text class="legend" x="540.00" y="105.00">Courtois2015</text>
<rect class="p2 borderLine" x="500.00" y="130.00" width="30.00" height="15.00" />
<rect class="q2" x="500.00" y="130.00" width="30.00" height="15.00" />
<text class="legend" x="540.00" y="145.00">Hilton2017</text>
<rect class="p3 borderLine" x="500.00" y="170.00" width="30.00" height="15.00" />
<rect class="q3" x="500.00" y="170.00" width="30.00" height="15.00" />
<text class="legend" x="540.00" y="185.00">Ball2017</text>
<rect class="p4 borderLine" x="500.00" y="210.00" width="30.00" height="15.00" />
<rect class="q4" x="500.00" y="210.00" width="30.00" height="15.00" />
<text class="legend" x="540.00" y="225.00">Courtois2015</text>
<rect class="p5 borderLine" x="500.00" y="250.00" width="30.00" height="15.00" />
<rect class="q5" x="500.00" y="250.00" width="30.00" height="15.00" />
<text class="legend" x="540.00" y="265.00">Hilton2017</text>
</svg>
