<svg xmlns="http://www.w3.org/2000/svg" xmlns:xlink="http://www.w3.org/1999/xlink" width="700" height="500">
<defs>
<style type="text/css"><![CDATA[
  .borderLine {
	   stroke: none;
	   fill-opacity: 0.4;
  }
  .outLine {
	   stroke-width: 1;
	   fill: none;
  }
  .circle {
	   stroke: #888888;
	   stroke-width: 0.5;
	   fill: none;
    pointer-events: all;
  }
  .spcircle {
	   stroke: #FF2222;
	   stroke-width: 1;
	   fill: none;
    pointer-events: all;
  }
  .tLabel {
	   font-family: Arial;
    pointer-events: none;
	   font-size: 14px;
	   text-anchor: middle;
	   alignment-baseline: central;
  }
  .nLabel {
	   font-family: Arial;
    pointer-events: none;
	   font-size: 10px;
	   text-anchor: middle;
	   alignment-baseline: central;
  }
  .belong {
	   font-family: Arial;
    pointer-events: none;
	   font-size: 5px;
	   text-anchor: middle;
	   alignment-baseline: central;
  }
  .p0{
    stroke: none;
    fill: #e6194b;
  }
  .q0{
    fill: none;
    stroke: #e6194b;
  }
  .p1{
    stroke: none;
    fill: #3cb44b;
  }
  .q1{
    fill: none;
    stroke: #3cb44b;
  }
  .p2{
    stroke: none;
    fill: #ffe119;
  }
  .q2{
    fill: none;
    stroke: #ffe119;
  }
  .p3{
    stroke: none;
    fill: #0082c8;
  }
  .q3{
    fill: none;
    stroke: #0082c8;
  }
  .p4{
    stroke: none;
    fill: #f58231;
  }
  .q4{
    fill: none;
    stroke: #f58231;
  }
  .p5{
    stroke: none;
    fill: #911eb4;
  }
  .q5{
    fill: none;
    stroke: #911eb4;
  }
]]>
</style>
</defs>
<!-- isDone: 0 -->
<rect width="700" height="500" style="fill:#fff;stroke-width:0" />
<circle onclick="fromCircle(1)" class="circle" cx="484.6525" cy="386.8160" r="4.4747" />
<text class="tLabel" x="484.65" y="366.82"></text>
<text class="nLabel" x="484.65" y="381.82">7</text>
<text class="belong" x="484.65" y="391.82">(1)</text>
<circle onclick="fromCircle(2)" class="circle" cx="76.7749" cy="399.9051" r="5.3474" />
<text class="tLabel" x="76.77" y="379.91"></text>
<text class="nLabel" x="76.77" y="394.91">10</text>
<text class="belong" x="76.77" y="404.91">(2)</text>
<circle onclick="fromCircle(6)" class="circle" cx="29.9575" cy="252.5239" r="11.8370" />
<text class="tLabel" x="29.96" y="232.52"></text>
<text class="nLabel" x="29.96" y="247.52">49</text>
<text class="belong" x="29.96" y="257.52">(2, 3)</text>
<circle onclick="fromCircle(14)" class="circle" cx="134.0734" cy="124.5981" r="4.4747" />
<text class="tLabel" x="134.07" y="104.60"></text>
<text class="nLabel" x="134.07" y="119.60">2</text>
<text class="belong" x="134.07" y="129.60">(2, 3, 4)</text>
<circle onclick="fromCircle(10)" class="circle" cx="20.5604" cy="109.0642" r="4.4747" />
<text class="tLabel" x="20.56" y="89.06"></text>
<text class="nLabel" x="20.56" y="104.06">3</text>
<text class="belong" x="20.56" y="114.06">(2, 4)</text>
<circle onclick="fromCircle(26)" class="circle" cx="185.4830" cy="363.8056" r="4.4747" />
<text class="tLabel" x="185.48" y="343.81"></text>
<text class="nLabel" x="185.48" y="358.81">1</text>
<text class="belong" x="185.48" y="368.81">(2, 4, 5)</text>
<circle onclick="fromCircle(38)" class="circle" cx="348.6354" cy="208.1618" r="4.4747" />
<text class="tLabel" x="348.64" y="188.16"></text>
<text class="nLabel" x="348.64" y="203.16">4</text>
<text class="belong" x="348.64" y="213.16">(2, 3, 6)</text>
<circle onclick="fromCircle(4)" class="circle" cx="235.2970" cy="466.9726" r="28.6475" />
<text class="tLabel" x="235.30" y="446.97"></text>
<text class="nLabel" x="235.30" y="461.97">287</text>
<text class="belong" x="235.30" y="471.97">(3)</text>
<circle onclick="fromCircle(5)" class="circle" cx="398.5842" cy="311.2278" r="4.4747" />
<text class="tLabel" x="398.58" y="291.23"></text>
<text class="nLabel" x="398.58" y="306.23">1</text>
<text class="belong" x="398.58" y="316.23">(1, 3)</text>
<circle onclick="fromCircle(12)" class="circle" cx="245.6530" cy="150.6304" r="6.7640" />
<text class="tLabel" x="245.65" y="130.63"></text>
<text class="nLabel" x="245.65" y="145.63">16</text>
<text class="belong" x="245.65" y="155.63">(3, 4)</text>
<circle onclick="fromCircle(44)" class="circle" cx="143.6650" cy="238.7586" r="4.4747" />
<text class="tLabel" x="143.67" y="218.76"></text>
<text class="nLabel" x="143.67" y="233.76">1</text>
<text class="belong" x="143.67" y="243.76">(3, 4, 6)</text>
<circle onclick="fromCircle(20)" class="circle" cx="387.0353" cy="452.7920" r="4.4747" />
<text class="tLabel" x="387.04" y="432.79"></text>
<text class="nLabel" x="387.04" y="447.79">2</text>
<text class="belong" x="387.04" y="457.79">(3, 5)</text>
<circle onclick="fromCircle(36)" class="circle" cx="466.9188" cy="210.2287" r="10.5603" />
<text class="tLabel" x="466.92" y="190.23"></text>
<text class="nLabel" x="466.92" y="205.23">39</text>
<text class="belong" x="466.92" y="215.23">(3, 6)</text>
<circle onclick="fromCircle(8)" class="circle" cx="258.9576" cy="36.8238" r="7.5624" />
<text class="tLabel" x="258.96" y="16.82"></text>
<text class="nLabel" x="258.96" y="31.82">20</text>
<text class="belong" x="258.96" y="41.82">(4)</text>
<circle onclick="fromCircle(16)" class="circle" cx="303.2098" cy="374.7047" r="4.4747" />
<text class="tLabel" x="303.21" y="354.70"></text>
<text class="nLabel" x="303.21" y="369.70">2</text>
<text class="belong" x="303.21" y="379.70">(5)</text>
<circle onclick="fromCircle(32)" class="circle" cx="406.8978" cy="109.6408" r="10.5603" />
<text class="tLabel" x="406.90" y="89.64"></text>
<text class="nLabel" x="406.90" y="104.64">39</text>
<text class="belong" x="406.90" y="114.64">(6)</text>
<circle onclick="fromCircle(47)" class="circle" cx="253.3611" cy="271.5792" r="4.4747" />
<text class="tLabel" x="253.36" y="251.58"></text>
<text class="nLabel" x="253.36" y="266.58">1</text>
<text class="belong" x="253.36" y="276.58">(1, 2, 3, 4, 6)</text>
<rect class="p0 borderLine" x="500.00" y="50.00" width="30.00" height="15.00" />
<rect class="q0" x="500.00" y="50.00" width="30.00" height="15.00" />
<text class="legend" x="540.00" y="65.00">iba</text>
<rect class="p1 borderLine" x="500.00" y="90.00" width="30.00" height="15.00" />
<rect class="q1" x="500.00" y="90.00" width="30.00" height="15.00" />
<text class="legend" x="540.00" y="105.00">ic</text>
<rect class="p2 borderLine" x="500.00" y="130.00" width="30.00" height="15.00" />
<rect class="q2" x="500.00" y="130.00" width="30.00" height="15.00" />
<text class="legend" x="540.00" y="145.00">ida</text>
<rect class="p3 borderLine" x="500.00" y="170.00" width="30.00" height="15.00" />
<rect class="q3" x="500.00" y="170.00" width="30.00" height="15.00" />
<text class="legend" x="540.00" y="185.00">iea</text>
<rect class="p4 borderLine" x="500.00" y="210.00" width="30.00" height="15.00" />
<rect class="q4" x="500.00" y="210.00" width="30.00" height="15.00" />
<text class="legend" x="540.00" y="225.00">iss</text>
<rect class="p5 borderLine" x="500.00" y="250.00" width="30.00" height="15.00" />
<rect class="q5" x="500.00" y="250.00" width="30.00" height="15.00" />
<text class="legend" x="540.00" y="265.00">nas</text>
</svg>
