<svg xmlns="http://www.w3.org/2000/svg" xmlns:xlink="http://www.w3.org/1999/xlink" width="700" height="500">
<defs>
<style type="text/css"><![CDATA[
  .borderLine {
	   stroke: none;
	   fill-opacity: 0.4;
  }
  .outLine {
	   stroke-width: 1;
	   fill: none;
  }
  .circle {
	   stroke: #888888;
	   stroke-width: 0.5;
	   fill: none;
    pointer-events: all;
  }
  .spcircle {
	   stroke: #FF2222;
	   stroke-width: 1;
	   fill: none;
    pointer-events: all;
  }
  .tLabel {
	   font-family: Arial;
    pointer-events: none;
	   font-size: 14px;
	   text-anchor: middle;
	   alignment-baseline: central;
  }
  .nLabel {
	   font-family: Arial;
    pointer-events: none;
	   font-size: 10px;
	   text-anchor: middle;
	   alignment-baseline: central;
  }
  .belong {
	   font-family: Arial;
    pointer-events: none;
	   font-size: 5px;
	   text-anchor: middle;
	   alignment-baseline: central;
  }
  .p0{
    stroke: none;
    fill: #e6194b;
  }
  .q0{
    fill: none;
    stroke: #e6194b;
  }
  .p1{
    stroke: none;
    fill: #3cb44b;
  }
  .q1{
    fill: none;
    stroke: #3cb44b;
  }
  .p2{
    stroke: none;
    fill: #ffe119;
  }
  .q2{
    fill: none;
    stroke: #ffe119;
  }
  .p3{
    stroke: none;
    fill: #0082c8;
  }
  .q3{
    fill: none;
    stroke: #0082c8;
  }
  .p4{
    stroke: none;
    fill: #f58231;
  }
  .q4{
    fill: none;
    stroke: #f58231;
  }
]]>
</style>
<symbol id="bl0">
<path d="M 158.94 298.96 Z" />
</symbol>
<symbol id="bl1">
<path d="M 135.65 72.26 L 96.44 38.87 L 53.17 66.79 L 67.44 116.27 L 118.93 116.86 L 161.71 175.80 L 145.39 221.97 L 182.71 253.67 L 225.63 230.09 L 218.90 181.59 L 374.58 39.14 L 431.22 45.32 L 444.63 -10.07 L 391.42 -30.47 L 364.35 19.67 Z" />
</symbol>
<symbol id="bl2">
<path d="M 145.11 220.70 L 98.88 187.73 L 59.99 229.10 L 95.76 273.20 L 144.27 243.70 L 203.09 262.31 L 225.80 314.35 L 280.43 298.85 L 272.41 242.64 L 215.63 243.01 L 215.66 243.05 L 229.28 201.77 L 200.08 169.58 L 157.68 179.12 L 145.07 220.71 Z" />
</symbol>
<symbol id="bl3">
<path d="M 135.77 382.10 Z" />
</symbol>
<symbol id="bl4">
<path d="M 266.75 238.51 L 221.38 238.72 L 201.27 279.39 L 228.64 315.57 L 273.24 307.29 L 377.41 422.07 L 369.68 476.69 L 421.96 494.30 L 448.84 446.13 L 406.42 410.88 L 406.42 53.16 L 449.17 15.90 L 418.11 -31.55 L 366.86 -7.26 L 383.91 46.82 Z" />
</symbol>
</defs>
<!-- isDone: 0 -->
<rect width="700" height="500" style="fill:#fff;stroke-width:0" />
<use class="p0 borderLine" xlink:href="#bl0"/>
<use class="p1 borderLine" xlink:href="#bl1"/>
<use class="p2 borderLine" xlink:href="#bl2"/>
<use class="p3 borderLine" xlink:href="#bl3"/>
<use class="p4 borderLine" xlink:href="#bl4"/>
<use class="q0 outLine" xlink:href="#bl0"/>
<use class="q1 outLine" xlink:href="#bl1"/>
<use class="q2 outLine" xlink:href="#bl2"/>
<use class="q3 outLine" xlink:href="#bl3"/>
<use class="q4 outLine" xlink:href="#bl4"/>
<circle onclick="fromCircle(1)" class="spcircle" cx="158.9439" cy="298.9587" r="13.4927" />
<text class="tLabel" x="158.94" y="278.96"></text>
<text class="nLabel" x="158.94" y="293.96">38</text>
<text class="belong" x="158.94" y="303.96">(1)</text>
<circle onclick="fromCircle(2)" class="circle" cx="93.5839" cy="81.9314" r="13.8432" />
<text class="tLabel" x="93.58" y="61.93"></text>
<text class="nLabel" x="93.58" y="76.93">40</text>
<text class="belong" x="93.58" y="86.93">(2)</text>
<circle onclick="fromCircle(6)" class="circle" cx="187.0588" cy="210.7285" r="2.4090" />
<text class="tLabel" x="187.06" y="190.73"></text>
<text class="nLabel" x="187.06" y="205.73">1</text>
<text class="belong" x="187.06" y="215.73">(2, 3)</text>
<circle onclick="fromCircle(18)" class="circle" cx="406.4161" cy="10.0000" r="4.3776" />
<text class="tLabel" x="406.42" y="-10.00"></text>
<text class="nLabel" x="406.42" y="5.00">4</text>
<text class="belong" x="406.42" y="15.00">(2, 5)</text>
<circle onclick="fromCircle(4)" class="circle" cx="103.1211" cy="230.6779" r="22.2139" />
<text class="tLabel" x="103.12" y="210.68"></text>
<text class="nLabel" x="103.12" y="225.68">103</text>
<text class="belong" x="103.12" y="235.68">(3)</text>
<circle onclick="fromCircle(20)" class="circle" cx="244.2389" cy="275.3318" r="10.9440" />
<text class="tLabel" x="244.24" y="255.33"></text>
<text class="nLabel" x="244.24" y="270.33">25</text>
<text class="belong" x="244.24" y="280.33">(3, 5)</text>
<circle onclick="fromCircle(8)" class="spcircle" cx="135.7652" cy="382.1029" r="27.7728" />
<text class="tLabel" x="135.77" y="362.10"></text>
<text class="nLabel" x="135.77" y="377.10">161</text>
<text class="belong" x="135.77" y="387.10">(4)</text>
<circle onclick="fromCircle(16)" class="circle" cx="406.4161" cy="454.0343" r="35.9657" />
<text class="tLabel" x="406.42" y="434.03"></text>
<text class="nLabel" x="406.42" y="449.03">270</text>
<text class="belong" x="406.42" y="459.03">(5)</text>
<rect class="p0 borderLine" x="500.00" y="50.00" width="30.00" height="15.00" />
<rect class="q0" x="500.00" y="50.00" width="30.00" height="15.00" />
<text class="legend" x="540.00" y="65.00">Pocket_1</text>
<rect class="p1 borderLine" x="500.00" y="90.00" width="30.00" height="15.00" />
<rect class="q1" x="500.00" y="90.00" width="30.00" height="15.00" />
<text class="legend" x="540.00" y="105.00">Pocket_2</text>
<rect class="p2 borderLine" x="500.00" y="130.00" width="30.00" height="15.00" />
<rect class="q2" x="500.00" y="130.00" width="30.00" height="15.00" />
<text class="legend" x="540.00" y="145.00">Pocket_3</text>
<rect class="p3 borderLine" x="500.00" y="170.00" width="30.00" height="15.00" />
<rect class="q3" x="500.00" y="170.00" width="30.00" height="15.00" />
<text class="legend" x="540.00" y="185.00">Pocket_5</text>
<rect class="p4 borderLine" x="500.00" y="210.00" width="30.00" height="15.00" />
<rect class="q4" x="500.00" y="210.00" width="30.00" height="15.00" />
<text class="legend" x="540.00" y="225.00">Pocket_6</text>
</svg>
