<svg xmlns="http://www.w3.org/2000/svg" xmlns:xlink="http://www.w3.org/1999/xlink" width="700" height="500">
<defs>
<style type="text/css"><![CDATA[
  .borderLine {
	   stroke: none;
	   fill-opacity: 0.4;
  }
  .outLine {
	   stroke-width: 1;
	   fill: none;
  }
  .circle {
	   stroke: #888888;
	   stroke-width: 0.5;
	   fill: none;
    pointer-events: all;
  }
  .spcircle {
	   stroke: #FF2222;
	   stroke-width: 1;
	   fill: none;
    pointer-events: all;
  }
  .tLabel {
	   font-family: Arial;
    pointer-events: none;
	   font-size: 14px;
	   text-anchor: middle;
	   alignment-baseline: central;
  }
  .nLabel {
	   font-family: Arial;
    pointer-events: none;
	   font-size: 10px;
	   text-anchor: middle;
	   alignment-baseline: central;
  }
  .belong {
	   font-family: Arial;
    pointer-events: none;
	   font-size: 5px;
	   text-anchor: middle;
	   alignment-baseline: central;
  }
  .p0{
    stroke: none;
    fill: #e6194b;
  }
  .q0{
    fill: none;
    stroke: #e6194b;
  }
  .p1{
    stroke: none;
    fill: #3cb44b;
  }
  .q1{
    fill: none;
    stroke: #3cb44b;
  }
  .p2{
    stroke: none;
    fill: #ffe119;
  }
  .q2{
    fill: none;
    stroke: #ffe119;
  }
  .p3{
    stroke: none;
    fill: #0082c8;
  }
  .q3{
    fill: none;
    stroke: #0082c8;
  }
  .p4{
    stroke: none;
    fill: #f58231;
  }
  .q4{
    fill: none;
    stroke: #f58231;
  }
  .p5{
    stroke: none;
    fill: #911eb4;
  }
  .q5{
    fill: none;
    stroke: #911eb4;
  }
]]>
</style>
<symbol id="bl0">
<path d="M 84.17 474.70 L 55.60 476.28 L 56.73 504.87 L 85.34 504.19 L 85.11 475.58 L 90.26 470.43 L 105.09 476.40 L 119.66 469.84 L 125.03 454.79 L 117.90 440.48 L 207.21 335.56 L 235.90 333.31 L 233.78 304.61 L 205.07 306.61 L 206.95 335.33 Z" />
</symbol>
<symbol id="bl1">
<path d="M 195.98 294.41 L 173.05 289.94 L 160.97 309.94 L 175.59 328.16 L 197.72 320.70 L 226.49 341.93 L 223.73 361.02 L 238.10 373.87 L 256.76 369.00 L 263.02 350.77 L 263.01 350.77 L 276.97 366.93 L 297.69 361.78 L 302.46 340.96 L 286.05 327.31 L 286.04 327.31 L 305.90 318.46 L 306.50 296.73 L 287.15 286.82 L 269.85 299.99 L 269.89 300.00 L 269.34 284.39 L 257.91 273.75 L 242.30 274.32 L 231.67 285.76 L 231.46 285.68 L 227.80 265.28 L 208.16 258.63 L 192.85 272.60 L 197.68 292.76 Z" />
</symbol>
<symbol id="bl2">
<path d="M 115.83 438.94 L 90.86 441.01 L 86.74 465.72 L 109.69 475.78 L 125.07 456.01 L 408.92 456.01 L 424.17 475.75 L 447.12 465.95 L 443.42 441.29 L 418.61 438.65 L 331.54 297.33 L 340.89 283.71 L 337.07 267.63 L 322.60 259.65 L 306.97 265.02 L 275.32 230.91 L 280.10 207.72 L 259.73 195.64 L 241.68 210.98 L 250.30 233.04 L 227.94 267.28 L 271.88 295.98 L 300.10 290.05 L 306.03 318.28 L 277.80 324.20 L 271.88 295.98 L 227.94 267.28 Z" />
</symbol>
<symbol id="bl3">
<path d="M 50.81 24.72 L 52.21 -3.24 L 24.37 -6.24 L 19.78 21.38 L 47.10 27.54 L 210.03 302.48 L 200.13 318.10 L 206.92 335.30 L 224.82 339.94 L 239.11 328.21 L 264.46 339.31 L 269.42 362.58 L 293.05 365.31 L 303.19 343.80 L 286.05 327.31 L 286.04 327.31 L 302.37 322.49 L 309.34 306.96 L 302.11 291.55 L 285.71 286.99 L 285.63 286.51 L 300.53 275.70 L 300.64 257.29 L 285.89 246.29 L 268.28 251.66 Z" />
</symbol>
<symbol id="bl4">
<path d="M 304.48 293.91 L 282.41 287.81 L 268.59 306.07 L 280.44 325.66 L 303.02 321.89 L 449.23 475.24 L 447.97 503.45 L 476.10 505.87 L 479.69 477.86 L 451.85 473.12 L 332.29 296.85 L 340.69 275.31 L 323.58 259.76 L 302.94 270.19 L 305.31 293.19 Z" />
</symbol>
<symbol id="bl5">
<path d="M 227.14 300.77 L 202.17 310.95 L 209.12 337.00 L 235.84 333.39 L 235.63 306.43 L 235.60 306.46 L 250.35 313.25 L 265.38 307.11 L 271.17 291.94 L 264.04 277.35 L 450.06 59.50 L 478.27 57.83 L 477.73 29.58 L 449.47 29.00 L 447.78 57.21 L 276.97 202.74 L 260.94 195.58 L 245.29 203.53 L 241.62 220.70 L 252.65 234.36 L 252.67 234.32 L 236.55 233.69 L 225.01 244.96 L 225.27 261.08 L 237.16 271.98 Z" />
</symbol>
</defs>
<!-- isDone: 0 -->
<rect width="700" height="500" style="fill:#fff;stroke-width:0" />
<use class="p0 borderLine" xlink:href="#bl0"/>
<use class="p1 borderLine" xlink:href="#bl1"/>
<use class="p2 borderLine" xlink:href="#bl2"/>
<use class="p3 borderLine" xlink:href="#bl3"/>
<use class="p4 borderLine" xlink:href="#bl4"/>
<use class="p5 borderLine" xlink:href="#bl5"/>
<use class="q0 outLine" xlink:href="#bl0"/>
<use class="q1 outLine" xlink:href="#bl1"/>
<use class="q2 outLine" xlink:href="#bl2"/>
<use class="q3 outLine" xlink:href="#bl3"/>
<use class="q4 outLine" xlink:href="#bl4"/>
<use class="q5 outLine" xlink:href="#bl5"/>
<circle onclick="fromCircle(1)" class="spcircle" cx="70.6898" cy="490.0000" r="2.6541" />
<text class="tLabel" x="70.69" y="470.00"></text>
<text class="nLabel" x="70.69" y="485.00">7</text>
<text class="belong" x="70.69" y="495.00">(1)</text>
<circle onclick="fromCircle(2)" class="spcircle" cx="181.3175" cy="308.5849" r="3.1722" />
<text class="tLabel" x="181.32" y="288.58"></text>
<text class="nLabel" x="181.32" y="303.58">10</text>
<text class="belong" x="181.32" y="313.58">(2)</text>
<circle onclick="fromCircle(6)" class="spcircle" cx="242.8921" cy="354.0459" r="7.0220" />
<text class="tLabel" x="242.89" y="334.05"></text>
<text class="nLabel" x="242.89" y="349.05">49</text>
<text class="belong" x="242.89" y="359.05">(2, 3)</text>
<circle onclick="fromCircle(14)" class="circle" cx="283.1388" cy="347.4911" r="1.5469" />
<text class="tLabel" x="283.14" y="327.49"></text>
<text class="nLabel" x="283.14" y="342.49">2</text>
<text class="belong" x="283.14" y="352.49">(2, 3, 4)</text>
<circle onclick="fromCircle(10)" class="spcircle" cx="212.3442" cy="278.5878" r="1.7375" />
<text class="tLabel" x="212.34" y="258.59"></text>
<text class="nLabel" x="212.34" y="273.59">3</text>
<text class="belong" x="212.34" y="283.59">(2, 4)</text>
<circle onclick="fromCircle(26)" class="spcircle" cx="288.9521" cy="307.1283" r="1.5469" />
<text class="tLabel" x="288.95" y="287.13"></text>
<text class="nLabel" x="288.95" y="302.13">1</text>
<text class="belong" x="288.95" y="312.13">(2, 4, 5)</text>
<circle onclick="fromCircle(38)" class="spcircle" cx="250.7928" cy="292.8590" r="2.0063" />
<text class="tLabel" x="250.79" y="272.86"></text>
<text class="nLabel" x="250.79" y="287.86">4</text>
<text class="belong" x="250.79" y="297.86">(2, 3, 6)</text>
<circle onclick="fromCircle(4)" class="circle" cx="429.3102" cy="456.0115" r="16.9943" />
<text class="tLabel" x="429.31" y="436.01"></text>
<text class="nLabel" x="429.31" y="451.01">287</text>
<text class="belong" x="429.31" y="461.01">(3)</text>
<circle onclick="fromCircle(5)" class="spcircle" cx="104.6783" cy="456.0115" r="1.5469" />
<text class="tLabel" x="104.68" y="436.01"></text>
<text class="nLabel" x="104.68" y="451.01">1</text>
<text class="belong" x="104.68" y="461.01">(1, 3)</text>
<circle onclick="fromCircle(12)" class="circle" cx="282.3876" cy="266.3796" r="4.0126" />
<text class="tLabel" x="282.39" y="246.38"></text>
<text class="nLabel" x="282.39" y="261.38">16</text>
<text class="belong" x="282.39" y="271.38">(3, 4)</text>
<circle onclick="fromCircle(44)" class="circle" cx="243.8689" cy="252.7215" r="1.5469" />
<text class="tLabel" x="243.87" y="232.72"></text>
<text class="nLabel" x="243.87" y="247.72">1</text>
<text class="belong" x="243.87" y="257.72">(3, 4, 6)</text>
<circle onclick="fromCircle(20)" class="circle" cx="320.8391" cy="279.9716" r="1.5469" />
<text class="tLabel" x="320.84" y="259.97"></text>
<text class="nLabel" x="320.84" y="274.97">2</text>
<text class="belong" x="320.84" y="284.97">(3, 5)</text>
<circle onclick="fromCircle(36)" class="circle" cx="261.4510" cy="215.9625" r="6.2646" />
<text class="tLabel" x="261.45" y="195.96"></text>
<text class="nLabel" x="261.45" y="210.96">39</text>
<text class="belong" x="261.45" y="220.96">(3, 6)</text>
<circle onclick="fromCircle(8)" class="circle" cx="36.7013" cy="10.0000" r="4.4862" />
<text class="tLabel" x="36.70" y="-10.00"></text>
<text class="nLabel" x="36.70" y="5.00">20</text>
<text class="belong" x="36.70" y="15.00">(4)</text>
<circle onclick="fromCircle(16)" class="circle" cx="463.2987" cy="490.0000" r="1.5469" />
<text class="tLabel" x="463.30" y="470.00"></text>
<text class="nLabel" x="463.30" y="485.00">2</text>
<text class="belong" x="463.30" y="495.00">(5)</text>
<circle onclick="fromCircle(32)" class="circle" cx="463.2987" cy="43.9885" r="6.2646" />
<text class="tLabel" x="463.30" y="23.99"></text>
<text class="nLabel" x="463.30" y="38.99">39</text>
<text class="belong" x="463.30" y="48.99">(6)</text>
<circle onclick="fromCircle(47)" class="circle" cx="220.4310" cy="320.0284" r="1.5469" />
<text class="tLabel" x="220.43" y="300.03"></text>
<text class="nLabel" x="220.43" y="315.03">1</text>
<text class="belong" x="220.43" y="325.03">(1, 2, 3, 4, 6)</text>
<rect class="p0 borderLine" x="500.00" y="50.00" width="30.00" height="15.00" />
<rect class="q0" x="500.00" y="50.00" width="30.00" height="15.00" />
<text class="legend" x="540.00" y="65.00">IBA</text>
<rect class="p1 borderLine" x="500.00" y="90.00" width="30.00" height="15.00" />
<rect class="q1" x="500.00" y="90.00" width="30.00" height="15.00" />
<text class="legend" x="540.00" y="105.00">IC</text>
<rect class="p2 borderLine" x="500.00" y="130.00" width="30.00" height="15.00" />
<rect class="q2" x="500.00" y="130.00" width="30.00" height="15.00" />
<text class="legend" x="540.00" y="145.00">IDA</text>
<rect class="p3 borderLine" x="500.00" y="170.00" width="30.00" height="15.00" />
<rect class="q3" x="500.00" y="170.00" width="30.00" height="15.00" />
<text class="legend" x="540.00" y="185.00">IEA</text>
<rect class="p4 borderLine" x="500.00" y="210.00" width="30.00" height="15.00" />
<rect class="q4" x="500.00" y="210.00" width="30.00" height="15.00" />
<text class="legend" x="540.00" y="225.00">ISS</text>
<rect class="p5 borderLine" x="500.00" y="250.00" width="30.00" height="15.00" />
<rect class="q5" x="500.00" y="250.00" width="30.00" height="15.00" />
<text class="legend" x="540.00" y="265.00">NAS</text>
</svg>
