<svg xmlns="http://www.w3.org/2000/svg" xmlns:xlink="http://www.w3.org/1999/xlink" width="700" height="500">
<defs>
<style type="text/css"><![CDATA[
  .borderLine {
	   stroke: none;
	   fill-opacity: 0.4;
  }
  .outLine {
	   stroke-width: 1;
	   fill: none;
  }
  .circle {
	   stroke: #888888;
	   stroke-width: 0.5;
	   fill: none;
    pointer-events: all;
  }
  .spcircle {
	   stroke: #FF2222;
	   stroke-width: 1;
	   fill: none;
    pointer-events: all;
  }
  .tLabel {
	   font-family: Arial;
    pointer-events: none;
	   font-size: 14px;
	   text-anchor: middle;
	   alignment-baseline: central;
  }
  .nLabel {
	   font-family: Arial;
    pointer-events: none;
	   font-size: 10px;
	   text-anchor: middle;
	   alignment-baseline: central;
  }
  .belong {
	   font-family: Arial;
    pointer-events: none;
	   font-size: 5px;
	   text-anchor: middle;
	   alignment-baseline: central;
  }
  .p0{
    stroke: none;
    fill: #e6194b;
  }
  .q0{
    fill: none;
    stroke: #e6194b;
  }
  .p1{
    stroke: none;
    fill: #3cb44b;
  }
  .q1{
    fill: none;
    stroke: #3cb44b;
  }
  .p2{
    stroke: none;
    fill: #ffe119;
  }
  .q2{
    fill: none;
    stroke: #ffe119;
  }
  .p3{
    stroke: none;
    fill: #0082c8;
  }
  .q3{
    fill: none;
    stroke: #0082c8;
  }
]]>
</style>
<symbol id="bl0">
<path d="M 198.02 421.99 L 138.89 456.06 L 160.75 520.69 L 228.42 511.88 L 232.99 443.80 L 379.46 339.22 L 369.17 324.82 L 294.15 312.30 L 306.67 237.27 L 381.70 249.79 L 369.17 324.82 L 379.46 339.22 L 436.88 298.23 L 493.15 319.29 L 533.83 275.06 L 508.14 220.74 L 448.15 224.12 L 408.25 171.50 L 427.55 114.16 L 381.32 75.15 L 328.04 103.81 L 335.11 163.89 L 265.62 224.17 L 219.50 205.90 L 178.05 233.14 L 176.51 282.71 L 216.18 312.47 Z" />
</symbol>
<symbol id="bl1">
<path d="M 36.30 174.99 L -14.18 186.29 L -31.78 234.92 L -0.24 275.92 L 51.28 271.36 L 72.93 303.71 L 49.09 346.54 L 69.89 390.93 L 118.06 400.01 L 153.59 366.24 L 291.51 414.69 L 317.38 480.21 L 385.92 463.93 L 379.57 393.77 L 309.22 390.07 L 97.91 118.58 L 113.86 53.92 L 54.71 23.32 L 11.14 73.68 L 49.94 127.81 Z" />
</symbol>
<symbol id="bl2">
<path d="M 71.23 206.49 L 19.05 172.92 L -30.05 210.85 L -10.74 269.81 L 51.28 271.36 L 72.93 303.71 L 50.06 338.08 L 58.28 378.53 L 92.74 401.24 L 133.15 392.85 L 158.91 430.62 L 137.60 490.20 L 187.72 528.82 L 239.91 493.03 L 221.94 432.36 L 305.20 323.73 L 350.40 333.36 L 386.39 304.37 L 386.60 258.16 L 350.88 228.84 L 362.79 180.85 L 422.21 155.74 L 414.80 91.66 L 351.21 80.78 L 322.92 138.75 L 215.97 159.22 L 191.14 123.40 L 147.93 117.73 L 114.70 145.93 L 113.27 189.49 Z" />
</symbol>
<symbol id="bl3">
<path d="M 36.30 174.99 L -21.66 194.38 L -24.06 255.46 L 32.20 279.34 L 74.47 235.20 L 171.88 250.87 L 189.26 299.62 L 239.72 311.14 L 276.54 274.76 L 265.62 224.17 L 335.11 163.89 L 394.47 179.07 L 429.53 128.82 L 394.81 78.35 L 335.35 93.13 L 298.19 60.46 L 309.03 8.57 L 270.11 -27.41 L 219.23 -12.54 L 205.81 38.74 L 116.86 62.34 L 79.14 24.28 L 27.26 37.69 L 12.71 89.26 L 49.94 127.81 Z" />
</symbol>
</defs>
<!-- isDone: 0 -->
<rect width="700" height="500" style="fill:#fff;stroke-width:0" />
<use class="p0 borderLine" xlink:href="#bl0"/>
<use class="p1 borderLine" xlink:href="#bl1"/>
<use class="p2 borderLine" xlink:href="#bl2"/>
<use class="p3 borderLine" xlink:href="#bl3"/>
<use class="q0 outLine" xlink:href="#bl0"/>
<use class="q1 outLine" xlink:href="#bl1"/>
<use class="q2 outLine" xlink:href="#bl2"/>
<use class="q3 outLine" xlink:href="#bl3"/>
<circle onclick="fromCircle(1)" class="circle" cx="480.6542" cy="266.9745" r="9.3759" />
<text class="tLabel" x="480.65" y="246.97"></text>
<text class="nLabel" x="480.65" y="261.97">2</text>
<text class="belong" x="480.65" y="271.97">(1)</text>
<circle onclick="fromCircle(2)" class="circle" cx="342.2568" cy="432.5181" r="10.1649" />
<text class="tLabel" x="342.26" y="412.52"></text>
<text class="nLabel" x="342.26" y="427.52">12</text>
<text class="belong" x="342.26" y="437.52">(2)</text>
<circle onclick="fromCircle(6)" class="circle" cx="102.8471" cy="348.4145" r="9.3759" />
<text class="tLabel" x="102.85" y="328.41"></text>
<text class="nLabel" x="102.85" y="343.41">6</text>
<text class="belong" x="102.85" y="353.41">(2, 3)</text>
<circle onclick="fromCircle(14)" class="circle" cx="21.3647" cy="226.6592" r="9.3759" />
<text class="tLabel" x="21.36" y="206.66"></text>
<text class="nLabel" x="21.36" y="221.66">1</text>
<text class="belong" x="21.36" y="231.66">(2, 3, 4)</text>
<circle onclick="fromCircle(10)" class="circle" cx="64.8700" cy="76.1355" r="9.7321" />
<text class="tLabel" x="64.87" y="56.14"></text>
<text class="nLabel" x="64.87" y="71.14">11</text>
<text class="belong" x="64.87" y="81.14">(2, 4)</text>
<circle onclick="fromCircle(4)" class="circle" cx="337.9210" cy="281.0428" r="15.5271" />
<text class="tLabel" x="337.92" y="261.04"></text>
<text class="nLabel" x="337.92" y="276.04">28</text>
<text class="belong" x="337.92" y="286.04">(3)</text>
<circle onclick="fromCircle(5)" class="circle" cx="189.2137" cy="475.0524" r="9.3759" />
<text class="tLabel" x="189.21" y="455.05"></text>
<text class="nLabel" x="189.21" y="470.05">7</text>
<text class="belong" x="189.21" y="480.05">(1, 3)</text>
<circle onclick="fromCircle(13)" class="circle" cx="375.7462" cy="128.6438" r="9.3759" />
<text class="tLabel" x="375.75" y="108.64"></text>
<text class="nLabel" x="375.75" y="123.64">2</text>
<text class="belong" x="375.75" y="133.64">(1, 3, 4)</text>
<circle onclick="fromCircle(12)" class="circle" cx="163.1384" cy="169.3261" r="11.7374" />
<text class="tLabel" x="163.14" y="149.33"></text>
<text class="nLabel" x="163.14" y="164.33">16</text>
<text class="belong" x="163.14" y="174.33">(3, 4)</text>
<circle onclick="fromCircle(8)" class="circle" cx="257.7988" cy="24.9476" r="26.8937" />
<text class="tLabel" x="257.80" y="4.95"></text>
<text class="nLabel" x="257.80" y="19.95">84</text>
<text class="belong" x="257.80" y="29.95">(4)</text>
<circle onclick="fromCircle(9)" class="circle" cx="224.9854" cy="259.4106" r="11.3647" />
<text class="tLabel" x="224.99" y="239.41"></text>
<text class="nLabel" x="224.99" y="254.41">15</text>
<text class="belong" x="224.99" y="264.41">(1, 4)</text>
<rect class="p0 borderLine" x="500.00" y="50.00" width="30.00" height="15.00" />
<rect class="q0" x="500.00" y="50.00" width="30.00" height="15.00" />
<text class="legend" x="540.00" y="65.00">S_salivarius</text>
<rect class="p1 borderLine" x="500.00" y="90.00" width="30.00" height="15.00" />
<rect class="q1" x="500.00" y="90.00" width="30.00" height="15.00" />
<text class="legend" x="540.00" y="105.00">Other</text>
<rect class="p2 borderLine" x="500.00" y="130.00" width="30.00" height="15.00" />
<rect class="q2" x="500.00" y="130.00" width="30.00" height="15.00" />
<text class="legend" x="540.00" y="145.00">GAS</text>
<rect class="p3 borderLine" x="500.00" y="170.00" width="30.00" height="15.00" />
<rect class="q3" x="500.00" y="170.00" width="30.00" height="15.00" />
<text class="legend" x="540.00" y="185.00">GCS/GGS</text>
</svg>
