<svg xmlns="http://www.w3.org/2000/svg" xmlns:xlink="http://www.w3.org/1999/xlink" width="700" height="500">
<defs>
<style type="text/css"><![CDATA[
  .borderLine {
	   stroke: none;
	   fill-opacity: 0.4;
  }
  .outLine {
	   stroke-width: 1;
	   fill: none;
  }
  .circle {
	   stroke: #888888;
	   stroke-width: 0.5;
	   fill: none;
    pointer-events: all;
  }
  .spcircle {
	   stroke: #FF2222;
	   stroke-width: 1;
	   fill: none;
    pointer-events: all;
  }
  .tLabel {
	   font-family: Arial;
    pointer-events: none;
	   font-size: 14px;
	   text-anchor: middle;
	   alignment-baseline: central;
  }
  .nLabel {
	   font-family: Arial;
    pointer-events: none;
	   font-size: 10px;
	   text-anchor: middle;
	   alignment-baseline: central;
  }
  .belong {
	   font-family: Arial;
    pointer-events: none;
	   font-size: 5px;
	   text-anchor: middle;
	   alignment-baseline: central;
  }
  .p0{
    stroke: none;
    fill: #e6194b;
  }
  .q0{
    fill: none;
    stroke: #e6194b;
  }
  .p1{
    stroke: none;
    fill: #3cb44b;
  }
  .q1{
    fill: none;
    stroke: #3cb44b;
  }
  .p2{
    stroke: none;
    fill: #ffe119;
  }
  .q2{
    fill: none;
    stroke: #ffe119;
  }
  .p3{
    stroke: none;
    fill: #0082c8;
  }
  .q3{
    fill: none;
    stroke: #0082c8;
  }
]]>
</style>
</defs>
<!-- isDone: 0 -->
<rect width="700" height="500" style="fill:#fff;stroke-width:0" />
<circle onclick="fromCircle(1)" class="circle" cx="242.4710" cy="211.7542" r="23.9908" />
<text class="tLabel" x="242.47" y="191.75"></text>
<text class="nLabel" x="242.47" y="206.75">20000</text>
<text class="belong" x="242.47" y="216.75">(1)</text>
<circle onclick="fromCircle(2)" class="circle" cx="466.0092" cy="242.6849" r="9.0245" />
<text class="tLabel" x="466.01" y="222.68"></text>
<text class="nLabel" x="466.01" y="237.68">12</text>
<text class="belong" x="466.01" y="247.68">(2)</text>
<circle onclick="fromCircle(6)" class="circle" cx="344.3372" cy="250.1642" r="9.0245" />
<text class="tLabel" x="344.34" y="230.16"></text>
<text class="nLabel" x="344.34" y="245.16">6</text>
<text class="belong" x="344.34" y="255.16">(2, 3)</text>
<circle onclick="fromCircle(14)" class="circle" cx="258.2383" cy="352.6192" r="9.0245" />
<text class="tLabel" x="258.24" y="332.62"></text>
<text class="nLabel" x="258.24" y="347.62">1</text>
<text class="belong" x="258.24" y="357.62">(2, 3, 4)</text>
<circle onclick="fromCircle(10)" class="circle" cx="122.2780" cy="339.2131" r="9.0245" />
<text class="tLabel" x="122.28" y="319.21"></text>
<text class="nLabel" x="122.28" y="334.21">11</text>
<text class="belong" x="122.28" y="344.21">(2, 4)</text>
<circle onclick="fromCircle(4)" class="circle" cx="354.3914" cy="112.2356" r="9.0245" />
<text class="tLabel" x="354.39" y="92.24"></text>
<text class="nLabel" x="354.39" y="107.24">28</text>
<text class="belong" x="354.39" y="117.24">(3)</text>
<circle onclick="fromCircle(5)" class="circle" cx="236.6210" cy="33.3566" r="9.0245" />
<text class="tLabel" x="236.62" y="13.36"></text>
<text class="nLabel" x="236.62" y="28.36">7</text>
<text class="belong" x="236.62" y="38.36">(1, 3)</text>
<circle onclick="fromCircle(13)" class="circle" cx="146.1787" cy="202.9539" r="9.0245" />
<text class="tLabel" x="146.18" y="182.95"></text>
<text class="nLabel" x="146.18" y="197.95">2</text>
<text class="belong" x="146.18" y="207.95">(1, 3, 4)</text>
<circle onclick="fromCircle(12)" class="circle" cx="193.5350" cy="466.6434" r="9.0245" />
<text class="tLabel" x="193.53" y="446.64"></text>
<text class="nLabel" x="193.53" y="461.64">16</text>
<text class="belong" x="193.53" y="471.64">(3, 4)</text>
<circle onclick="fromCircle(8)" class="circle" cx="101.0444" cy="79.9331" r="9.0245" />
<text class="tLabel" x="101.04" y="59.93"></text>
<text class="nLabel" x="101.04" y="74.93">84</text>
<text class="belong" x="101.04" y="84.93">(4)</text>
<circle onclick="fromCircle(9)" class="circle" cx="18.9693" cy="229.1644" r="9.0245" />
<text class="tLabel" x="18.97" y="209.16"></text>
<text class="nLabel" x="18.97" y="224.16">15</text>
<text class="belong" x="18.97" y="234.16">(1, 4)</text>
<rect class="p0 borderLine" x="500.00" y="50.00" width="30.00" height="15.00" />
<rect class="q0" x="500.00" y="50.00" width="30.00" height="15.00" />
<text class="legend" x="540.00" y="65.00">S_salivarius</text>
<rect class="p1 borderLine" x="500.00" y="90.00" width="30.00" height="15.00" />
<rect class="q1" x="500.00" y="90.00" width="30.00" height="15.00" />
<text class="legend" x="540.00" y="105.00">Other</text>
<rect class="p2 borderLine" x="500.00" y="130.00" width="30.00" height="15.00" />
<rect class="q2" x="500.00" y="130.00" width="30.00" height="15.00" />
<text class="legend" x="540.00" y="145.00">GAS</text>
<rect class="p3 borderLine" x="500.00" y="170.00" width="30.00" height="15.00" />
<rect class="q3" x="500.00" y="170.00" width="30.00" height="15.00" />
<text class="legend" x="540.00" y="185.00">GCS/GGS</text>
</svg>
