<svg xmlns="http://www.w3.org/2000/svg" xmlns:xlink="http://www.w3.org/1999/xlink" viewBox="0 0 700 500">
<defs>
<style type="text/css"><![CDATA[
  .borderLine {
	   stroke: none;
	   fill-opacity: 0.4;
  }
  .outLine {
	   stroke-width: 1;
	   fill: none;
  }
  .circle {
	   stroke: #888888;
	   stroke-width: 0.5;
	   fill: none;
    pointer-events: all;
  }
  .spcircle {
	   stroke: #FF2222;
	   stroke-width: 1;
	   fill: none;
    pointer-events: all;
  }
  .tLabel {
	   font-family: Arial;
    pointer-events: none;
	   font-size: 14px;
	   text-anchor: middle;
	   alignment-baseline: central;
  }
  .nLabel {
	   font-family: Arial;
    pointer-events: none;
	   font-size: 10px;
	   text-anchor: middle;
	   alignment-baseline: central;
  }
  .belong {
	   font-family: Arial;
    pointer-events: none;
	   font-size: 5px;
	   text-anchor: middle;
	   alignment-baseline: central;
  }
  .p0{
    stroke: none;
    fill: #e6194b;
  }
  .q0{
    fill: none;
    stroke: #e6194b;
  }
  .p1{
    stroke: none;
    fill: #3cb44b;
  }
  .q1{
    fill: none;
    stroke: #3cb44b;
  }
  .p2{
    stroke: none;
    fill: #ffe119;
  }
  .q2{
    fill: none;
    stroke: #ffe119;
  }
]]>
</style>
<symbol id="bl0">
<path d="M 70.87 303.40 L 24.49 321.42 L 24.49 321.42 L 20.92 347.70 L 35.34 369.97 L 35.34 369.97 L 84.97 366.52 L 89.02 316.94 L 250.91 199.20 L 295.40 212.40 L 319.73 172.88 L 287.90 139.10 L 247.00 161.04 L 173.27 127.70 L 165.77 85.29 L 123.53 76.89 L 100.36 113.20 L 125.79 147.96 Z" />
</symbol>
<symbol id="bl1">
<path d="M 89.02 316.94 L 42.53 304.57 L 20.88 347.53 L 58.48 377.53 L 95.56 346.90 L 262.65 380.49 L 262.65 380.49 L 265.31 403.79 L 281.10 421.13 L 281.10 421.13 L 325.48 416.46 L 335.08 372.88 L 296.76 350.00 L 285.06 214.78 L 319.37 183.25 L 297.60 142.05 L 252.22 152.62 L 250.91 199.20 Z" />
</symbol>
<symbol id="bl2">
<path d="M 312.53 199.35 L 304.35 146.01 L 251.01 154.18 L 259.19 207.52 L 259.19 207.52 L 287.55 214.48 L 312.53 199.35 L 312.53 199.35 L 411.09 271.72 L 411.09 271.72 L 404.13 300.08 L 419.26 325.05 L 419.26 325.05 L 419.26 325.05 L 447.62 332.01 L 472.60 316.88 L 472.60 316.88 L 472.60 316.88 L 479.56 288.52 L 464.43 263.54 L 464.43 263.54 L 464.43 263.54 L 436.06 256.58 L 411.09 271.72 L 411.09 271.72 Z" />
</symbol>
</defs>
<!-- signature: 1816953412;3;a;b;c;0;1;1;1;1;0;0;1; -->
<desc>STEP: 4;BEST: 0;CANDIDATE: 3</desc>
<rect width="700" height="500" style="fill:#fff;stroke-width:0" />
<use class="p0 borderLine" xlink:href="#bl0"/>
<use class="p1 borderLine" xlink:href="#bl1"/>
<use class="p2 borderLine" xlink:href="#bl2"/>
<use class="q0 outLine" xlink:href="#bl0"/>
<use class="q1 outLine" xlink:href="#bl1"/>
<use class="q2 outLine" xlink:href="#bl2"/>
<circle onclick="fromCircle(1)" class="circle" cx="138.4998" cy="111.9845" r="38.1561" />
<text class="tLabel" x="138.50" y="91.98"></text>
<text class="nLabel" x="138.50" y="106.98">1</text>
<text class="belong" x="138.50" y="116.98">(1)</text>
<circle onclick="fromCircle(3)" class="circle" cx="58.1561" cy="339.3801" r="38.1561" />
<text class="tLabel" x="58.16" y="319.38"></text>
<text class="nLabel" x="58.16" y="334.38">1</text>
<text class="belong" x="58.16" y="344.38">(1, 2)</text>
<circle onclick="fromCircle(7)" class="circle" cx="281.7695" cy="176.7633" r="38.1561" />
<text class="tLabel" x="281.77" y="156.76"></text>
<text class="nLabel" x="281.77" y="171.76">1</text>
<text class="belong" x="281.77" y="181.76">(1, 2, 3)</text>
<circle onclick="fromCircle(2)" class="circle" cx="300.0536" cy="388.0155" r="38.1561" />
<text class="tLabel" x="300.05" y="368.02"></text>
<text class="nLabel" x="300.05" y="383.02">1</text>
<text class="belong" x="300.05" y="393.02">(2)</text>
<circle onclick="fromCircle(4)" class="circle" cx="441.8439" cy="294.2986" r="38.1561" />
<text class="tLabel" x="441.84" y="274.30"></text>
<text class="nLabel" x="441.84" y="289.30">1</text>
<text class="belong" x="441.84" y="299.30">(3)</text>
<rect class="p0 borderLine" x="500.00" y="50.00" width="30.00" height="15.00" />
<rect class="q0" x="500.00" y="50.00" width="30.00" height="15.00" />
<text class="legend" x="540.00" y="65.00">a</text>
<rect class="p1 borderLine" x="500.00" y="90.00" width="30.00" height="15.00" />
<rect class="q1" x="500.00" y="90.00" width="30.00" height="15.00" />
<text class="legend" x="540.00" y="105.00">b</text>
<rect class="p2 borderLine" x="500.00" y="130.00" width="30.00" height="15.00" />
<rect class="q2" x="500.00" y="130.00" width="30.00" height="15.00" />
<text class="legend" x="540.00" y="145.00">c</text>
</svg>
