<svg xmlns="http://www.w3.org/2000/svg" xmlns:xlink="http://www.w3.org/1999/xlink" width="700" height="500">
<defs>
<style type="text/css"><![CDATA[
  .borderLine {
	   stroke: none;
	   fill-opacity: 0.4;
  }
  .outLine {
	   stroke-width: 1;
	   fill: none;
  }
  .circle {
	   stroke: #888888;
	   stroke-width: 0.5;
	   fill: none;
    pointer-events: all;
  }
  .spcircle {
	   stroke: #FF2222;
	   stroke-width: 1;
	   fill: none;
    pointer-events: all;
  }
  .tLabel {
	   font-family: Arial;
    pointer-events: none;
	   font-size: 14px;
	   text-anchor: middle;
	   alignment-baseline: central;
  }
  .nLabel {
	   font-family: Arial;
    pointer-events: none;
	   font-size: 10px;
	   text-anchor: middle;
	   alignment-baseline: central;
  }
  .belong {
	   font-family: Arial;
    pointer-events: none;
	   font-size: 5px;
	   text-anchor: middle;
	   alignment-baseline: central;
  }
  .p0{
    stroke: none;
    fill: #e6194b;
  }
  .q0{
    fill: none;
    stroke: #e6194b;
  }
  .p1{
    stroke: none;
    fill: #3cb44b;
  }
  .q1{
    fill: none;
    stroke: #3cb44b;
  }
  .p2{
    stroke: none;
    fill: #ffe119;
  }
  .q2{
    fill: none;
    stroke: #ffe119;
  }
  .p3{
    stroke: none;
    fill: #0082c8;
  }
  .q3{
    fill: none;
    stroke: #0082c8;
  }
  .p4{
    stroke: none;
    fill: #f58231;
  }
  .q4{
    fill: none;
    stroke: #f58231;
  }
  .p5{
    stroke: none;
    fill: #911eb4;
  }
  .q5{
    fill: none;
    stroke: #911eb4;
  }
  .p6{
    stroke: none;
    fill: #46f0f0;
  }
  .q6{
    fill: none;
    stroke: #46f0f0;
  }
  .p7{
    stroke: none;
    fill: #f032e6;
  }
  .q7{
    fill: none;
    stroke: #f032e6;
  }
]]>
</style>
<symbol id="bl0">
<path d="M 204.35 246.55 L 197.56 249.62 L 196.47 257.00 L 202.10 261.89 L 209.26 259.80 L 287.38 338.03 L 286.52 340.26 L 287.61 342.39 L 289.92 343.01 L 291.92 341.70 L 448.79 442.78 L 452.70 467.27 L 477.47 466.06 L 478.98 441.31 L 454.54 437.10 L 312.23 210.13 L 314.61 205.56 L 311.77 201.25 L 306.63 201.65 L 304.47 206.33 L 211.73 215.58 L 208.35 211.28 L 203.03 212.53 L 201.91 217.88 L 206.29 221.16 Z" />
</symbol>
<symbol id="bl1">
<path d="M 93.88 85.76 L 93.18 82.03 L 89.38 82.11 L 88.83 85.87 L 92.44 87.03 L 164.52 262.02 L 162.78 264.05 L 163.40 266.65 L 165.87 267.67 L 168.14 266.27 L 252.31 317.63 L 251.53 322.61 L 254.51 326.67 L 259.48 327.43 L 263.54 324.45 L 286.94 338.59 L 287.38 342.19 L 290.97 342.62 L 292.26 339.23 L 289.27 337.18 L 287.27 304.39 L 291.84 302.13 L 293.42 297.28 L 291.04 292.76 L 286.15 291.31 L 275.65 196.15 L 281.83 191.73 L 281.28 184.15 L 274.54 180.66 L 268.03 184.59 Z" />
</symbol>
<symbol id="bl2">
<path d="M 208.20 177.60 L 203.71 174.03 L 198.75 176.92 L 199.64 182.59 L 205.25 183.82 L 237.23 262.83 L 234.76 265.68 L 235.61 269.35 L 239.09 270.82 L 242.32 268.87 L 313.35 313.11 L 313.79 320.68 L 321.07 322.79 L 325.50 316.64 L 321.18 310.41 L 388.35 126.25 L 394.35 124.26 L 393.78 117.96 L 387.53 117.08 L 385.24 122.97 Z" />
</symbol>
<symbol id="bl3">
<path d="M 179.17 224.76 L 171.63 219.80 L 164.01 224.64 L 165.30 233.57 L 173.97 236.06 L 190.03 289.04 L 188.19 290.68 L 188.26 293.16 L 190.19 294.70 L 192.62 294.22 L 224.37 337.78 L 223.28 341.01 L 225.97 343.09 L 228.82 341.25 L 228.03 337.94 L 306.27 248.14 L 312.28 249.54 L 316.80 245.32 L 315.81 239.22 L 310.21 236.63 L 306.67 174.68 L 312.03 170.25 L 309.40 163.81 L 302.47 164.39 L 300.96 171.18 Z" />
</symbol>
<symbol id="bl4">
<path d="M 257.79 356.58 L 254.93 358.81 L 256.41 362.12 L 259.97 361.48 L 260.21 357.86 L 347.52 298.25 L 353.47 301.09 L 358.89 297.32 L 358.30 290.75 L 352.30 288.01 L 347.90 243.40 L 350.47 241.19 L 349.24 238.03 L 345.86 238.12 L 344.81 241.34 L 282.56 260.35 L 277.42 255.47 L 270.59 257.37 L 268.70 264.20 L 273.59 269.33 L 259.82 314.77 L 254.40 315.50 L 251.42 320.08 L 252.93 325.33 L 257.89 327.62 Z" />
</symbol>
<symbol id="bl5">
<path d="M 19.95 487.06 L 14.20 486.94 L 13.84 492.69 L 19.57 493.27 L 20.39 487.58 L 223.71 341.87 L 225.89 343.09 L 228.23 342.18 L 229.01 339.80 L 227.68 337.68 L 271.81 268.51 L 281.45 266.75 L 280.39 257.01 L 270.60 257.35 L 270.22 267.14 L 56.40 450.93 L 54.33 449.91 L 52.17 450.69 L 51.23 452.79 L 52.09 454.92 Z" />
</symbol>
<symbol id="bl6">
<path d="M 56.34 450.87 L 52.25 450.61 L 51.89 454.69 L 55.95 455.17 L 56.55 451.12 L 345.24 242.20 L 349.14 242.99 L 350.25 239.17 L 346.53 237.75 L 344.81 241.34 L 282.56 260.35 L 278.46 255.81 L 272.36 256.07 L 268.65 260.93 L 270.01 266.88 L 195.32 325.35 L 191.30 323.13 L 186.91 324.48 L 184.84 328.58 L 186.35 332.92 Z" />
</symbol>
<symbol id="bl7">
<path d="M 22.89 15.88 L 22.89 4.12 L 11.14 4.12 L 11.14 15.88 L 22.89 15.88 L 89.25 82.24 L 89.25 86.39 L 93.40 86.39 L 93.40 82.24 L 89.25 82.24 Z" />
</symbol>
</defs>
<!-- isDone: 0 -->
<rect width="700" height="500" style="fill:#fff;stroke-width:0" />
<use class="p0 borderLine" xlink:href="#bl0"/>
<use class="p1 borderLine" xlink:href="#bl1"/>
<use class="p2 borderLine" xlink:href="#bl2"/>
<use class="p3 borderLine" xlink:href="#bl3"/>
<use class="p4 borderLine" xlink:href="#bl4"/>
<use class="p5 borderLine" xlink:href="#bl5"/>
<use class="p6 borderLine" xlink:href="#bl6"/>
<use class="p7 borderLine" xlink:href="#bl7"/>
<use class="q0 outLine" xlink:href="#bl0"/>
<use class="q1 outLine" xlink:href="#bl1"/>
<use class="q2 outLine" xlink:href="#bl2"/>
<use class="q3 outLine" xlink:href="#bl3"/>
<use class="q4 outLine" xlink:href="#bl4"/>
<use class="q5 outLine" xlink:href="#bl5"/>
<use class="q6 outLine" xlink:href="#bl6"/>
<use class="q7 outLine" xlink:href="#bl7"/>
<circle onclick="fromCircle(1)" class="circle" cx="464.4109" cy="452.8433" r="18.5783" />
<text class="tLabel" x="464.41" y="432.84"></text>
<text class="nLabel" x="464.41" y="447.84">40</text>
<text class="belong" x="464.41" y="457.84">(1)</text>
<circle onclick="fromCircle(3)" class="circle" cx="289.4514" cy="340.1081" r="2.9375" />
<text class="tLabel" x="289.45" y="320.11"></text>
<text class="nLabel" x="289.45" y="335.11">1</text>
<text class="belong" x="289.45" y="345.11">(1, 2)</text>
<circle onclick="fromCircle(7)" class="spcircle" cx="241.1804" cy="229.6849" r="2.9375" />
<text class="tLabel" x="241.18" y="209.68"></text>
<text class="nLabel" x="241.18" y="224.68">1</text>
<text class="belong" x="241.18" y="234.68">(1, 2, 3)</text>
<circle onclick="fromCircle(15)" class="circle" cx="238.7920" cy="266.6787" r="4.1542" />
<text class="tLabel" x="238.79" y="246.68"></text>
<text class="nLabel" x="238.79" y="261.68">2</text>
<text class="belong" x="238.79" y="271.68">(1, 2, 3, 4)</text>
<circle onclick="fromCircle(127)" class="circle" cx="275.6804" cy="262.4480" r="7.1954" />
<text class="tLabel" x="275.68" y="242.45"></text>
<text class="nLabel" x="275.68" y="257.45">6</text>
<text class="belong" x="275.68" y="267.45">(1, 2, 3, 4, 5, 6, 7)</text>
<circle onclick="fromCircle(2)" class="circle" cx="165.6375" cy="264.7397" r="2.9375" />
<text class="tLabel" x="165.64" y="244.74"></text>
<text class="nLabel" x="165.64" y="259.74">1</text>
<text class="belong" x="165.64" y="269.74">(2)</text>
<circle onclick="fromCircle(6)" class="circle" cx="203.3412" cy="179.1003" r="5.0879" />
<text class="tLabel" x="203.34" y="159.10"></text>
<text class="nLabel" x="203.34" y="174.10">3</text>
<text class="belong" x="203.34" y="184.10">(2, 3)</text>
<circle onclick="fromCircle(14)" class="circle" cx="274.7931" cy="188.4270" r="7.7719" />
<text class="tLabel" x="274.79" y="168.43"></text>
<text class="nLabel" x="274.79" y="183.43">7</text>
<text class="belong" x="274.79" y="193.43">(2, 3, 4)</text>
<circle onclick="fromCircle(10)" class="circle" cx="171.5619" cy="228.1100" r="8.3085" />
<text class="tLabel" x="171.56" y="208.11"></text>
<text class="nLabel" x="171.56" y="223.11">8</text>
<text class="belong" x="171.56" y="233.11">(2, 4)</text>
<circle onclick="fromCircle(18)" class="circle" cx="257.9143" cy="321.0557" r="6.5684" />
<text class="tLabel" x="257.91" y="301.06"></text>
<text class="nLabel" x="257.91" y="316.06">5</text>
<text class="belong" x="257.91" y="326.06">(2, 5)</text>
<circle onclick="fromCircle(130)" class="circle" cx="91.3241" cy="84.3134" r="2.9375" />
<text class="tLabel" x="91.32" y="64.31"></text>
<text class="nLabel" x="91.32" y="79.31">1</text>
<text class="belong" x="91.32" y="89.31">(2, 8)</text>
<circle onclick="fromCircle(4)" class="circle" cx="390.0975" cy="121.4701" r="5.0879" />
<text class="tLabel" x="390.10" y="101.47"></text>
<text class="nLabel" x="390.10" y="116.47">3</text>
<text class="belong" x="390.10" y="126.47">(3)</text>
<circle onclick="fromCircle(5)" class="circle" cx="309.5307" cy="205.8233" r="5.0879" />
<text class="tLabel" x="309.53" y="185.82"></text>
<text class="nLabel" x="309.53" y="200.82">3</text>
<text class="belong" x="309.53" y="210.82">(1, 3)</text>
<circle onclick="fromCircle(13)" class="circle" cx="310.5807" cy="243.1913" r="6.5684" />
<text class="tLabel" x="310.58" y="223.19"></text>
<text class="nLabel" x="310.58" y="238.19">5</text>
<text class="belong" x="310.58" y="248.19">(1, 3, 4)</text>
<circle onclick="fromCircle(12)" class="circle" cx="306.3329" cy="168.8148" r="5.8750" />
<text class="tLabel" x="306.33" y="148.81"></text>
<text class="nLabel" x="306.33" y="163.81">4</text>
<text class="belong" x="306.33" y="173.81">(3, 4)</text>
<circle onclick="fromCircle(20)" class="spcircle" cx="319.0632" cy="279.3369" r="6.5684" />
<text class="tLabel" x="319.06" y="259.34"></text>
<text class="nLabel" x="319.06" y="274.34">5</text>
<text class="belong" x="319.06" y="284.34">(3, 5)</text>
<circle onclick="fromCircle(21)" class="circle" cx="318.9304" cy="316.5824" r="6.5684" />
<text class="tLabel" x="318.93" y="296.58"></text>
<text class="nLabel" x="318.93" y="311.58">5</text>
<text class="belong" x="318.93" y="321.58">(1, 3, 5)</text>
<circle onclick="fromCircle(8)" class="circle" cx="190.8849" cy="291.8476" r="2.9375" />
<text class="tLabel" x="190.88" y="271.85"></text>
<text class="nLabel" x="190.88" y="286.85">1</text>
<text class="belong" x="190.88" y="296.85">(4)</text>
<circle onclick="fromCircle(9)" class="spcircle" cx="203.7636" cy="254.2987" r="7.7719" />
<text class="tLabel" x="203.76" y="234.30"></text>
<text class="nLabel" x="203.76" y="249.30">7</text>
<text class="belong" x="203.76" y="259.30">(1, 4)</text>
<circle onclick="fromCircle(11)" class="circle" cx="206.6720" cy="216.0858" r="5.0879" />
<text class="tLabel" x="206.67" y="196.09"></text>
<text class="nLabel" x="206.67" y="211.09">3</text>
<text class="belong" x="206.67" y="221.09">(1, 2, 4)</text>
<circle onclick="fromCircle(40)" class="circle" cx="226.0955" cy="340.1561" r="2.9375" />
<text class="tLabel" x="226.10" y="320.16"></text>
<text class="nLabel" x="226.10" y="335.16">1</text>
<text class="belong" x="226.10" y="345.16">(4, 6)</text>
<circle onclick="fromCircle(16)" class="circle" cx="257.7818" cy="359.5200" r="2.9375" />
<text class="tLabel" x="257.78" y="339.52"></text>
<text class="nLabel" x="257.78" y="354.52">1</text>
<text class="belong" x="257.78" y="364.52">(5)</text>
<circle onclick="fromCircle(17)" class="circle" cx="352.9409" cy="294.5457" r="6.5684" />
<text class="tLabel" x="352.94" y="274.55"></text>
<text class="nLabel" x="352.94" y="289.55">5</text>
<text class="belong" x="352.94" y="299.55">(1, 5)</text>
<circle onclick="fromCircle(19)" class="circle" cx="286.8710" cy="297.8385" r="6.5684" />
<text class="tLabel" x="286.87" y="277.84"></text>
<text class="nLabel" x="286.87" y="292.84">5</text>
<text class="belong" x="286.87" y="302.84">(1, 2, 5)</text>
<circle onclick="fromCircle(80)" class="circle" cx="347.6153" cy="240.4775" r="2.9375" />
<text class="tLabel" x="347.62" y="220.48"></text>
<text class="nLabel" x="347.62" y="235.48">1</text>
<text class="belong" x="347.62" y="245.48">(5, 7)</text>
<circle onclick="fromCircle(32)" class="circle" cx="17.0108" cy="490.0000" r="4.1542" />
<text class="tLabel" x="17.01" y="470.00"></text>
<text class="nLabel" x="17.01" y="485.00">2</text>
<text class="belong" x="17.01" y="495.00">(6)</text>
<circle onclick="fromCircle(96)" class="circle" cx="54.1674" cy="452.8433" r="2.9375" />
<text class="tLabel" x="54.17" y="432.84"></text>
<text class="nLabel" x="54.17" y="447.84">1</text>
<text class="belong" x="54.17" y="457.84">(6, 7)</text>
<circle onclick="fromCircle(64)" class="circle" cx="190.6974" cy="328.9763" r="5.8750" />
<text class="tLabel" x="190.70" y="308.98"></text>
<text class="nLabel" x="190.70" y="323.98">4</text>
<text class="belong" x="190.70" y="333.98">(7)</text>
<circle onclick="fromCircle(128)" class="circle" cx="17.0108" cy="10.0000" r="8.3085" />
<text class="tLabel" x="17.01" y="-10.00"></text>
<text class="nLabel" x="17.01" y="5.00">8</text>
<text class="belong" x="17.01" y="15.00">(8)</text>
<rect class="p0 borderLine" x="500.00" y="50.00" width="30.00" height="15.00" />
<rect class="q0" x="500.00" y="50.00" width="30.00" height="15.00" />
<text class="legend" x="540.00" y="65.00">Ball2017</text>
<rect class="p1 borderLine" x="500.00" y="90.00" width="30.00" height="15.00" />
<rect class="q1" x="500.00" y="90.00" width="30.00" height="15.00" />
<text class="legend" x="540.00" y="105.00">Courtois2015</text>
<rect class="p2 borderLine" x="500.00" y="130.00" width="30.00" height="15.00" />
<rect class="q2" x="500.00" y="130.00" width="30.00" height="15.00" />
<text class="legend" x="540.00" y="145.00">Hilton2017</text>
<rect class="p3 borderLine" x="500.00" y="170.00" width="30.00" height="15.00" />
<rect class="q3" x="500.00" y="170.00" width="30.00" height="15.00" />
<text class="legend" x="540.00" y="185.00">Ball2017</text>
<rect class="p4 borderLine" x="500.00" y="210.00" width="30.00" height="15.00" />
<rect class="q4" x="500.00" y="210.00" width="30.00" height="15.00" />
<text class="legend" x="540.00" y="225.00">Ball2017</text>
<rect class="p5 borderLine" x="500.00" y="250.00" width="30.00" height="15.00" />
<rect class="q5" x="500.00" y="250.00" width="30.00" height="15.00" />
<text class="legend" x="540.00" y="265.00">Ball2017</text>
<rect class="p6 borderLine" x="500.00" y="290.00" width="30.00" height="15.00" />
<rect class="q6" x="500.00" y="290.00" width="30.00" height="15.00" />
<text class="legend" x="540.00" y="305.00">Courtois2015</text>
<rect class="p7 borderLine" x="500.00" y="330.00" width="30.00" height="15.00" />
<rect class="q7" x="500.00" y="330.00" width="30.00" height="15.00" />
<text class="legend" x="540.00" y="345.00">Hilton2017</text>
</svg>
