<svg xmlns="http://www.w3.org/2000/svg" xmlns:xlink="http://www.w3.org/1999/xlink" width="700" height="500">
<defs>
<style type="text/css"><![CDATA[
  .borderLine {
	   stroke: none;
	   fill-opacity: 0.4;
  }
  .outLine {
	   stroke-width: 1;
	   fill: none;
  }
  .circle {
	   stroke: #888888;
	   stroke-width: 0.5;
	   fill: none;
    pointer-events: all;
  }
  .spcircle {
	   stroke: #FF2222;
	   stroke-width: 1;
	   fill: none;
    pointer-events: all;
  }
  .tLabel {
	   font-family: Arial;
    pointer-events: none;
	   font-size: 14px;
	   text-anchor: middle;
	   alignment-baseline: central;
  }
  .nLabel {
	   font-family: Arial;
    pointer-events: none;
	   font-size: 10px;
	   text-anchor: middle;
	   alignment-baseline: central;
  }
  .belong {
	   font-family: Arial;
    pointer-events: none;
	   font-size: 5px;
	   text-anchor: middle;
	   alignment-baseline: central;
  }
  .p0{
    stroke: none;
    fill: #e6194b;
  }
  .q0{
    fill: none;
    stroke: #e6194b;
  }
  .p1{
    stroke: none;
    fill: #3cb44b;
  }
  .q1{
    fill: none;
    stroke: #3cb44b;
  }
  .p2{
    stroke: none;
    fill: #ffe119;
  }
  .q2{
    fill: none;
    stroke: #ffe119;
  }
  .p3{
    stroke: none;
    fill: #0082c8;
  }
  .q3{
    fill: none;
    stroke: #0082c8;
  }
  .p4{
    stroke: none;
    fill: #f58231;
  }
  .q4{
    fill: none;
    stroke: #f58231;
  }
  .p5{
    stroke: none;
    fill: #911eb4;
  }
  .q5{
    fill: none;
    stroke: #911eb4;
  }
]]>
</style>
<symbol id="bl0">
<path d="M 155.66 233.13 L 155.47 235.13 L 155.38 236.94 L 155.41 238.72 L 155.61 240.63 L 155.89 242.33 L 156.28 244.13 L 156.28 246.15 L 156.43 248.36 L 156.72 250.48 L 157.13 252.58 L 157.60 254.39 L 158.24 256.34 L 158.96 258.15 L 159.83 260.05 L 167.21 260.59 L 154.45 268.81 L 163.33 266.57 L 167.88 267.87 L 163.97 278.16 L 166.02 279.84 L 163.10 285.95 L 166.12 280.05 L 171.65 275.67 L 173.29 277.58 L 174.96 279.33 L 176.34 280.93 L 177.28 282.35 L 178.29 283.97 L 179.41 285.58 L 180.61 287.25 L 181.93 288.82 L 182.62 290.42 L 183.37 291.92 L 184.23 293.41 L 185.22 294.90 L 186.31 296.39 L 187.52 297.88 L 188.14 299.23 L 188.53 300.51 L 189.06 301.74 L 189.71 303.00 L 190.55 304.23 L 191.53 305.45 L 192.55 306.73 L 192.05 307.80 L 191.85 308.89 L 191.92 309.99 L 192.21 311.04 L 192.85 312.42 L 194.00 314.22 L 195.40 315.92 L 196.94 317.49 L 198.73 319.01 L 200.90 320.48 L 217.04 319.51 L 210.43 332.33 L 206.21 324.38 L 229.29 313.23 L 213.23 340.50 L 213.87 328.54 L 220.74 333.70 L 237.32 322.19 L 224.74 331.56 L 228.65 331.82 L 232.45 331.69 L 249.42 322.10 L 239.32 343.65 L 257.01 320.66 L 248.99 342.33 L 251.99 328.64 L 255.53 325.45 L 260.17 322.69 L 263.93 319.18 L 267.29 315.33 L 270.27 312.60 L 273.40 310.30 L 276.20 298.74 L 283.93 322.41 L 286.11 304.02 L 287.53 300.55 L 290.33 290.85 L 293.39 278.07 L 295.19 278.97 L 299.13 289.95 L 301.54 287.39 L 303.70 285.04 L 305.51 282.81 L 307.03 280.84 L 308.07 279.78 L 309.34 278.76 L 310.71 277.83 L 311.74 276.93 L 312.51 276.10 L 312.18 277.18 L 316.79 280.83 L 313.23 274.61 L 313.29 274.47 L 313.80 274.07 L 309.64 270.56 L 304.10 268.99 L 317.03 269.82 L 318.06 267.87 L 318.94 266.09 L 319.62 264.42 L 320.20 262.78 L 320.64 261.48 L 320.94 260.34 L 321.37 258.89 L 322.09 257.55 L 322.92 256.00 L 324.05 254.09 L 325.00 252.36 L 325.85 250.46 L 326.57 248.49 L 327.22 246.62 L 328.05 245.40 L 328.61 244.37 L 329.12 243.14 L 329.40 241.96 L 329.58 240.65 L 329.75 239.25 L 329.70 238.07 L 329.55 236.64 L 329.21 235.28 L 328.68 233.93 L 320.62 237.49 L 331.51 224.64 L 322.84 232.12 L 324.07 228.14 L 322.44 225.83 L 320.58 223.28 L 318.45 220.45 L 316.24 217.78 L 313.86 215.06 L 311.29 212.29 L 308.35 209.73 L 305.14 207.04 L 301.96 204.51 L 298.53 202.15 L 295.07 199.81 L 288.98 203.02 L 287.41 193.36 L 287.51 175.13 L 281.68 195.20 L 279.04 184.46 L 278.20 198.38 L 270.56 191.11 L 268.09 190.95 L 265.63 190.99 L 263.26 190.96 L 262.05 190.71 L 260.76 190.70 L 259.40 190.80 L 258.16 190.95 L 256.26 197.07 L 255.79 175.08 L 255.06 173.43 L 253.67 192.37 L 252.24 188.02 L 251.72 192.25 L 251.21 193.62 L 250.53 193.45 L 249.80 193.26 L 248.95 193.17 L 248.02 193.48 L 247.11 194.50 L 246.05 196.10 L 243.35 197.50 L 240.73 201.33 L 238.65 207.67 L 235.46 223.43 L 231.53 204.89 L 221.09 203.30 L 219.83 190.70 L 217.24 186.16 L 214.09 196.25 L 209.88 195.80 L 205.80 195.85 L 201.24 195.93 L 197.24 196.08 L 193.35 196.16 L 189.60 196.18 L 192.12 202.03 L 185.87 187.03 L 184.68 191.25 L 180.06 185.21 L 176.13 190.23 L 178.28 203.64 L 170.15 203.90 L 168.27 205.84 L 166.55 207.84 L 165.03 209.95 L 163.70 212.00 L 162.56 214.19 L 161.69 216.36 L 160.97 218.39 L 160.42 220.05 L 159.82 221.64 L 158.78 223.46 L 157.88 225.51 L 157.12 227.48 L 156.51 229.44 L 156.00 231.25 Z" />
</symbol>
<symbol id="bl1">
<path d="M 138.94 124.18 L 136.82 124.39 L 134.72 124.70 L 132.65 125.13 L 130.68 125.68 L 128.79 126.34 L 127.00 127.11 L 125.32 127.98 L 123.77 128.95 L 122.36 130.03 L 121.11 131.20 L 120.03 132.47 L 119.14 133.82 L 118.43 135.25 L 117.92 136.73 L 117.59 138.30 L 117.47 139.88 L 117.58 141.52 L 117.86 143.23 L 118.31 145.11 L 119.00 146.97 L 119.91 148.86 L 120.97 150.84 L 122.23 152.88 L 123.73 155.04 L 127.08 156.96 L 128.07 161.51 L 128.72 166.87 L 133.16 161.59 L 136.04 162.62 L 138.75 163.96 L 141.34 165.55 L 143.97 167.17 L 146.68 168.64 L 149.41 169.91 L 152.02 171.18 L 154.45 172.54 L 156.73 173.85 L 158.89 175.22 L 160.94 176.72 L 162.93 178.07 L 164.83 179.26 L 165.83 179.66 L 166.66 179.92 L 167.52 180.18 L 168.28 180.54 L 169.01 180.94 L 169.04 180.89 L 167.69 180.43 L 166.24 179.97 L 166.05 180.43 L 166.50 181.30 L 167.46 182.11 L 168.73 183.37 L 170.27 185.09 L 172.22 185.87 L 174.64 187.01 L 177.43 188.69 L 180.67 190.72 L 184.33 193.05 L 188.28 195.75 L 196.38 198.95 L 199.20 195.96 L 204.14 198.25 L 207.00 212.65 L 205.23 207.37 L 203.03 212.08 L 210.34 227.37 L 212.65 231.87 L 214.82 236.22 L 216.24 239.41 L 217.47 242.19 L 218.67 244.91 L 213.89 250.48 L 226.85 237.02 L 225.47 244.82 L 221.38 250.71 L 221.03 251.35 L 220.15 251.41 L 218.94 251.16 L 217.40 251.06 L 214.49 249.98 L 205.73 255.81 L 213.12 251.52 L 212.66 252.70 L 212.86 254.32 L 213.19 256.19 L 213.95 259.30 L 212.97 261.01 L 211.58 261.75 L 227.06 275.11 L 224.14 282.44 L 229.64 288.92 L 241.19 286.43 L 225.48 278.74 L 230.77 280.99 L 235.84 283.72 L 240.93 286.74 L 246.43 289.55 L 252.17 292.13 L 268.13 290.73 L 268.25 285.17 L 274.62 282.50 L 279.59 293.56 L 268.60 306.58 L 270.52 310.81 L 272.37 314.85 L 274.08 318.69 L 275.73 322.30 L 280.72 321.78 L 283.69 317.24 L 282.64 323.77 L 277.83 336.06 L 283.02 335.01 L 284.42 337.41 L 286.09 339.81 L 288.55 342.61 L 290.73 345.03 L 292.64 347.06 L 293.90 349.28 L 294.88 351.07 L 293.35 353.41 L 293.81 349.30 L 298.10 356.07 L 299.77 358.01 L 301.53 360.00 L 303.15 361.56 L 304.70 362.72 L 306.05 363.48 L 307.19 363.88 L 308.12 364.01 L 309.80 364.87 L 311.22 365.57 L 312.61 366.56 L 314.36 368.25 L 316.05 369.80 L 317.70 371.15 L 319.31 372.32 L 320.79 373.40 L 322.15 374.39 L 323.43 375.35 L 324.78 376.10 L 326.23 376.67 L 327.62 377.15 L 329.55 378.78 L 331.39 380.39 L 333.03 381.97 L 334.55 383.48 L 336.13 384.93 L 337.84 386.30 L 339.57 387.61 L 341.30 388.95 L 343.15 390.29 L 345.12 391.58 L 347.19 392.83 L 349.14 394.06 L 350.78 395.21 L 352.33 396.27 L 353.96 397.28 L 355.55 398.24 L 356.28 398.76 L 356.97 399.19 L 357.79 399.51 L 358.66 399.75 L 359.60 399.91 L 360.58 400.03 L 361.53 400.12 L 362.52 400.13 L 363.53 400.08 L 364.58 399.91 L 365.64 399.65 L 366.69 399.27 L 367.74 398.77 L 368.78 398.15 L 369.80 397.40 L 370.80 396.53 L 371.75 395.56 L 372.64 394.48 L 373.46 393.32 L 374.20 392.09 L 374.87 390.80 L 375.45 389.47 L 375.97 388.11 L 376.41 386.70 L 376.80 385.29 L 377.14 383.86 L 377.43 382.45 L 377.68 381.07 L 377.90 379.73 L 378.07 378.47 L 378.22 377.28 L 378.32 376.20 L 378.30 375.06 L 377.79 373.05 L 377.23 371.06 L 376.60 369.19 L 375.93 367.17 L 375.19 364.91 L 374.38 362.62 L 373.52 360.44 L 372.63 358.31 L 371.72 356.25 L 370.82 354.28 L 369.97 352.25 L 369.17 350.10 L 368.40 347.91 L 367.61 345.71 L 366.75 343.49 L 365.80 341.26 L 364.72 339.05 L 363.66 336.73 L 362.62 334.32 L 361.41 331.97 L 360.02 329.75 L 358.76 327.54 L 357.62 325.25 L 356.33 322.96 L 354.89 320.72 L 355.01 319.32 L 354.92 317.82 L 354.56 316.25 L 354.02 314.51 L 353.33 312.51 L 352.45 310.31 L 351.44 307.97 L 350.21 305.52 L 348.75 303.01 L 347.07 300.40 L 345.83 297.54 L 344.32 294.62 L 342.58 291.68 L 340.60 288.63 L 338.41 285.50 L 336.08 282.41 L 334.11 280.02 L 333.37 278.76 L 335.71 274.64 L 328.40 273.28 L 330.19 272.10 L 328.55 269.71 L 326.87 267.27 L 325.18 264.72 L 323.33 262.13 L 321.40 259.39 L 321.11 257.56 L 320.82 255.91 L 320.16 253.97 L 319.25 252.01 L 317.94 251.13 L 315.85 250.11 L 313.28 248.85 L 310.44 247.30 L 300.09 259.24 L 295.37 263.89 L 290.02 257.09 L 297.95 238.78 L 295.32 235.90 L 291.39 232.12 L 287.24 228.43 L 282.53 225.02 L 278.08 221.29 L 269.34 219.94 L 274.94 215.92 L 268.64 211.77 L 264.30 213.04 L 263.15 214.31 L 255.80 216.01 L 259.74 200.64 L 258.76 198.42 L 257.87 196.54 L 257.16 195.01 L 256.41 192.67 L 255.79 190.33 L 255.30 188.32 L 254.70 186.37 L 253.38 183.87 L 252.10 181.63 L 250.87 179.71 L 249.71 178.12 L 249.03 176.55 L 244.21 185.42 L 251.71 158.82 L 247.46 166.32 L 248.20 164.41 L 243.90 166.05 L 240.67 163.62 L 237.41 161.44 L 234.10 159.49 L 230.78 157.78 L 227.50 156.31 L 224.33 155.12 L 221.25 154.20 L 218.26 153.55 L 215.32 153.18 L 212.51 153.09 L 209.84 153.28 L 207.50 153.29 L 205.35 153.34 L 203.24 152.63 L 201.26 152.01 L 199.37 151.50 L 197.61 151.09 L 196.00 150.76 L 194.27 150.11 L 192.08 148.82 L 189.88 147.58 L 187.83 146.34 L 186.78 145.01 L 185.63 143.67 L 184.37 142.34 L 183.03 140.99 L 181.59 139.65 L 180.08 138.35 L 178.51 137.07 L 176.90 135.83 L 175.19 134.63 L 173.45 133.47 L 171.65 132.32 L 169.74 131.23 L 167.79 130.21 L 165.71 129.22 L 163.48 128.26 L 161.13 127.40 L 158.78 126.65 L 156.63 126.00 L 154.54 125.43 L 152.30 124.92 L 150.00 124.52 L 147.79 124.27 L 145.56 124.12 L 143.28 124.05 L 141.08 124.07 Z" />
</symbol>
<symbol id="bl2">
<path d="M 223.25 334.77 L 223.63 338.01 L 224.26 341.00 L 225.07 343.74 L 243.81 333.61 L 231.85 343.14 L 228.75 343.94 L 229.27 351.93 L 230.37 353.25 L 231.56 354.33 L 232.78 355.17 L 232.63 357.16 L 239.70 353.06 L 232.02 363.66 L 237.99 358.92 L 239.38 359.67 L 240.67 360.26 L 242.07 360.78 L 243.35 361.18 L 244.73 361.53 L 246.01 361.79 L 247.48 362.02 L 248.79 362.16 L 250.42 362.26 L 251.89 362.28 L 257.09 363.50 L 264.10 359.18 L 257.56 362.03 L 259.81 361.74 L 268.17 352.64 L 270.16 337.92 L 275.25 349.70 L 280.26 352.73 L 274.24 356.82 L 278.24 354.89 L 281.86 352.74 L 285.15 350.38 L 288.69 347.70 L 292.20 345.21 L 295.48 342.84 L 298.74 340.18 L 302.73 327.13 L 304.11 316.83 L 303.35 311.66 L 311.91 327.13 L 314.88 323.56 L 317.42 320.02 L 319.57 316.53 L 321.39 313.11 L 322.86 309.80 L 323.96 306.65 L 324.65 303.69 L 325.73 300.99 L 326.66 298.49 L 327.24 296.21 L 328.85 293.61 L 330.15 291.14 L 331.90 288.90 L 334.65 288.95 L 336.58 286.93 L 335.84 283.10 L 336.43 281.63 L 337.10 279.81 L 339.14 277.03 L 341.46 274.16 L 343.70 271.29 L 345.81 268.44 L 347.68 265.66 L 349.33 262.93 L 350.89 260.27 L 352.24 257.71 L 353.25 255.28 L 353.99 252.97 L 354.82 250.89 L 355.73 249.04 L 356.51 247.32 L 357.12 245.95 L 358.49 244.96 L 360.29 243.41 L 362.14 241.70 L 364.08 239.83 L 366.11 237.79 L 368.22 235.59 L 370.38 233.25 L 372.54 230.75 L 374.68 228.11 L 376.79 225.31 L 378.86 222.37 L 380.90 219.27 L 382.89 216.04 L 385.46 214.61 L 390.30 212.27 L 388.39 205.90 L 390.04 202.46 L 391.58 199.03 L 393.02 195.68 L 394.37 192.46 L 395.62 189.39 L 396.79 186.49 L 397.88 183.73 L 398.88 181.10 L 399.79 178.58 L 400.58 176.18 L 401.24 173.93 L 402.89 171.44 L 404.94 168.82 L 406.95 166.21 L 408.88 163.58 L 410.68 160.94 L 412.35 158.26 L 413.96 155.55 L 415.59 152.84 L 417.25 150.13 L 418.93 147.46 L 420.57 144.79 L 422.16 142.10 L 423.75 139.41 L 425.35 136.79 L 426.96 134.23 L 428.54 131.67 L 430.12 129.12 L 431.70 126.60 L 433.26 124.11 L 434.78 121.60 L 436.28 119.09 L 437.77 116.61 L 439.24 114.16 L 440.70 111.72 L 442.14 109.31 L 443.55 106.91 L 444.96 104.52 L 446.34 102.15 L 447.69 99.77 L 449.04 97.36 L 450.36 94.90 L 451.64 92.39 L 452.89 89.95 L 454.09 87.69 L 455.25 85.52 L 456.37 83.32 L 457.44 81.14 L 458.46 79.06 L 459.42 77.02 L 460.32 75.00 L 461.15 73.07 L 461.91 71.19 L 462.59 69.38 L 463.19 67.66 L 463.69 66.00 L 464.09 64.45 L 464.39 62.99 L 464.58 61.64 L 464.65 60.41 L 464.59 59.31 L 464.41 58.33 L 464.11 57.51 L 463.68 56.83 L 463.12 56.31 L 462.44 55.94 L 461.64 55.74 L 460.72 55.69 L 459.70 55.79 L 458.57 56.05 L 457.35 56.44 L 456.04 56.97 L 454.65 57.62 L 453.17 58.39 L 451.63 59.27 L 450.02 60.24 L 448.35 61.29 L 446.64 62.42 L 444.85 63.62 L 443.02 64.86 L 441.16 66.12 L 439.21 67.40 L 437.22 68.68 L 435.24 69.96 L 433.19 71.27 L 430.98 72.63 L 428.68 74.02 L 426.44 75.42 L 424.26 76.82 L 422.10 78.23 L 419.95 79.65 L 417.82 81.08 L 415.78 82.53 L 413.79 84.00 L 411.79 85.51 L 409.80 87.05 L 407.79 88.63 L 405.74 90.26 L 403.71 91.91 L 401.75 93.60 L 399.81 95.31 L 397.85 96.97 L 395.91 98.60 L 393.96 100.22 L 391.90 101.81 L 389.76 103.38 L 387.61 105.01 L 385.52 106.77 L 383.47 108.63 L 381.44 110.46 L 379.37 112.15 L 377.28 113.76 L 375.23 115.50 L 373.23 117.48 L 371.27 119.53 L 369.32 121.57 L 367.38 123.78 L 365.45 126.07 L 363.51 128.19 L 361.57 130.26 L 359.66 132.52 L 357.77 134.82 L 355.91 136.29 L 353.98 137.23 L 351.89 138.26 L 349.69 139.42 L 347.32 140.78 L 344.68 142.07 L 341.75 143.36 L 338.67 144.84 L 335.74 146.47 L 332.87 148.23 L 329.87 150.03 L 327.32 151.56 L 325.44 150.16 L 320.70 148.10 L 321.12 155.10 L 318.78 156.62 L 316.45 158.39 L 314.50 159.68 L 312.97 160.36 L 311.28 161.33 L 309.31 162.39 L 307.25 163.73 L 305.06 165.30 L 302.65 166.18 L 300.08 167.13 L 297.23 168.45 L 293.35 169.96 L 288.60 171.70 L 284.70 175.40 L 278.60 175.89 L 275.70 182.18 L 275.01 183.05 L 273.15 186.11 L 271.12 189.45 L 268.57 192.32 L 271.54 202.43 L 266.15 201.15 L 262.14 204.51 L 262.27 206.27 L 261.47 210.74 L 260.45 215.26 L 256.62 222.59 L 251.25 228.49 L 257.79 225.79 L 257.36 227.56 L 256.83 229.02 L 256.44 230.76 L 256.59 233.18 L 253.56 235.62 L 259.87 238.18 L 257.25 238.67 L 259.98 239.12 L 251.62 233.03 L 257.42 244.05 L 257.23 245.93 L 256.61 247.08 L 255.77 247.42 L 254.19 248.98 L 252.48 250.71 L 251.20 252.77 L 248.99 255.92 L 252.66 273.83 L 252.57 265.13 L 255.55 279.65 L 241.07 273.61 L 238.22 277.54 L 236.06 281.56 L 234.31 286.56 L 232.34 291.09 L 230.17 295.35 L 244.35 302.53 L 244.04 308.50 L 234.78 301.49 L 229.07 304.68 L 227.46 313.86 L 223.88 316.25 L 223.99 324.65 L 223.57 328.76 L 223.27 331.78 Z" />
</symbol>
<symbol id="bl3">
<path d="M 187.36 301.57 L 187.38 302.35 L 187.54 303.35 L 187.62 304.45 L 186.92 306.21 L 186.16 308.31 L 185.14 310.62 L 184.42 313.28 L 183.62 316.13 L 182.83 319.24 L 182.27 322.25 L 182.05 325.23 L 181.70 328.33 L 181.22 332.29 L 180.56 336.23 L 181.70 341.24 L 179.36 343.60 L 180.69 349.25 L 181.74 355.94 L 186.55 357.60 L 191.81 358.53 L 195.81 360.66 L 199.44 362.31 L 202.72 364.49 L 205.78 367.07 L 208.80 369.18 L 211.95 370.64 L 214.90 371.77 L 217.63 372.68 L 220.12 373.42 L 222.23 374.02 L 223.97 374.47 L 225.35 374.79 L 226.36 374.97 L 227.02 375.05 L 227.84 375.22 L 229.60 375.63 L 231.21 375.95 L 233.09 376.53 L 235.95 377.68 L 238.92 378.82 L 241.85 379.96 L 244.66 381.13 L 247.58 382.30 L 250.64 383.45 L 253.63 384.62 L 256.51 385.81 L 259.31 387.04 L 262.11 388.31 L 264.92 389.54 L 267.64 390.78 L 270.30 392.10 L 272.91 393.49 L 275.47 394.97 L 278.03 396.56 L 280.61 398.19 L 283.17 399.81 L 285.75 401.44 L 288.37 403.07 L 290.96 404.67 L 293.55 406.20 L 296.22 407.68 L 298.93 409.11 L 301.62 410.52 L 304.31 411.93 L 307.07 413.32 L 309.87 414.69 L 312.62 416.06 L 315.35 417.44 L 318.08 418.80 L 320.85 420.22 L 323.59 421.70 L 326.28 423.17 L 328.86 424.67 L 331.36 426.29 L 333.81 428.05 L 336.24 429.86 L 338.67 431.69 L 341.13 433.55 L 343.59 435.49 L 346.02 437.46 L 348.43 439.38 L 350.86 441.15 L 352.86 442.90 L 354.53 444.69 L 356.38 446.44 L 358.43 448.23 L 360.67 450.09 L 363.07 451.98 L 365.61 453.83 L 368.31 455.64 L 371.12 457.42 L 374.00 459.22 L 376.92 461.00 L 379.91 462.74 L 380.45 469.78 L 385.57 466.93 L 389.05 467.61 L 392.08 469.05 L 395.12 470.39 L 398.10 471.61 L 401.02 472.71 L 403.87 473.70 L 406.63 474.59 L 409.30 475.36 L 411.88 476.03 L 414.36 476.60 L 416.75 477.07 L 419.08 477.43 L 421.37 477.69 L 423.80 478.47 L 426.28 479.61 L 428.59 480.70 L 430.82 481.75 L 433.08 482.77 L 435.31 483.74 L 437.44 484.65 L 439.54 485.51 L 441.60 486.32 L 443.58 487.05 L 445.50 487.72 L 447.36 488.31 L 449.14 488.82 L 450.84 489.25 L 452.44 489.58 L 453.95 489.81 L 455.35 489.95 L 456.64 490.00 L 457.80 489.95 L 458.83 489.80 L 459.73 489.54 L 460.48 489.18 L 461.08 488.71 L 461.54 488.14 L 461.86 487.47 L 462.02 486.68 L 462.04 485.81 L 461.92 484.86 L 461.66 483.84 L 461.29 482.70 L 460.81 481.50 L 460.21 480.22 L 459.49 478.92 L 458.68 477.54 L 457.80 476.09 L 456.82 474.60 L 455.76 473.05 L 454.67 471.45 L 453.52 469.79 L 452.25 468.09 L 450.89 466.40 L 449.56 464.67 L 448.17 462.85 L 447.00 461.18 L 446.47 459.95 L 445.86 458.63 L 445.09 457.32 L 444.21 455.94 L 443.24 454.46 L 442.20 452.85 L 441.03 451.18 L 439.71 449.45 L 438.38 447.42 L 436.87 445.29 L 435.25 443.09 L 433.53 440.71 L 431.64 438.32 L 429.70 435.74 L 427.58 433.04 L 425.44 430.17 L 423.20 427.22 L 420.83 424.24 L 418.42 421.05 L 417.01 415.95 L 414.86 413.10 L 410.84 411.07 L 408.16 408.00 L 405.61 404.97 L 403.19 402.10 L 400.89 399.37 L 398.57 396.89 L 396.27 394.53 L 393.88 392.49 L 391.57 390.53 L 389.24 388.87 L 387.06 387.26 L 384.89 385.88 L 382.89 384.51 L 380.99 383.26 L 379.15 382.21 L 377.56 381.11 L 375.97 380.27 L 374.65 379.36 L 373.44 378.58 L 371.43 376.75 L 369.43 374.66 L 367.40 372.59 L 365.32 370.55 L 363.54 368.23 L 361.87 365.74 L 360.04 363.40 L 358.26 361.14 L 356.54 358.83 L 354.61 356.57 L 352.52 354.51 L 350.65 352.33 L 349.97 350.52 L 349.28 348.77 L 348.26 347.23 L 347.05 345.70 L 345.65 344.23 L 344.15 342.65 L 342.63 340.82 L 340.96 339.04 L 339.72 337.06 L 339.55 336.46 L 338.94 335.99 L 337.83 335.44 L 336.17 334.89 L 334.08 334.27 L 331.83 333.24 L 330.29 331.68 L 328.99 329.70 L 327.22 327.46 L 322.07 318.95 L 321.95 312.16 L 322.55 319.92 L 321.86 317.09 L 320.53 314.30 L 318.79 311.31 L 317.07 309.22 L 315.04 306.83 L 307.61 308.88 L 305.63 287.29 L 307.39 281.61 L 291.26 299.49 L 311.03 280.38 L 303.48 289.28 L 300.96 287.47 L 296.87 283.63 L 297.25 279.81 L 294.12 282.61 L 291.20 280.98 L 288.90 278.50 L 286.19 276.29 L 282.83 268.59 L 281.75 261.31 L 276.63 261.78 L 267.86 277.97 L 267.15 264.27 L 262.09 262.09 L 256.46 259.91 L 251.38 257.98 L 247.00 256.32 L 242.86 254.87 L 239.02 253.61 L 242.90 253.00 L 240.71 246.04 L 238.93 251.00 L 235.97 246.66 L 223.35 254.73 L 220.27 255.79 L 217.47 257.07 L 214.81 258.47 L 212.54 259.82 L 210.28 261.01 L 207.28 254.99 L 216.36 254.45 L 216.11 262.54 L 203.90 266.15 L 202.92 267.65 L 201.99 269.13 L 200.67 270.70 L 199.49 272.31 L 198.50 273.93 L 197.66 275.63 L 196.98 277.37 L 196.19 279.30 L 195.11 281.58 L 194.19 283.87 L 193.25 286.13 L 191.94 288.33 L 190.80 290.47 L 189.83 292.54 L 189.04 294.56 L 188.47 296.45 L 188.12 298.22 L 187.98 299.84 L 187.57 301.23 L 187.49 301.56 L 187.60 301.60 L 187.88 301.56 L 187.44 301.84 L 187.10 301.64 L 187.15 300.75 L 187.29 300.44 L 187.35 300.94 Z" />
</symbol>
<symbol id="bl4">
<path d="M 47.90 11.43 L 46.25 10.92 L 44.69 10.52 L 43.22 10.22 L 41.86 10.05 L 40.60 10.00 L 39.47 10.08 L 38.46 10.29 L 37.59 10.63 L 36.85 11.10 L 36.27 11.70 L 35.82 12.43 L 35.53 13.29 L 35.37 14.28 L 35.35 15.39 L 35.48 16.60 L 35.73 17.90 L 36.12 19.30 L 36.62 20.80 L 37.21 22.39 L 37.91 24.04 L 38.71 25.75 L 39.60 27.53 L 40.54 29.40 L 41.57 31.29 L 42.69 33.20 L 43.88 35.18 L 45.13 37.18 L 46.47 39.09 L 47.90 41.03 L 49.34 43.14 L 50.82 45.35 L 52.15 47.49 L 52.55 49.09 L 53.11 50.70 L 53.82 52.32 L 54.56 54.21 L 55.39 56.29 L 56.38 58.40 L 57.46 60.60 L 58.59 62.98 L 59.88 65.59 L 61.33 68.17 L 62.87 70.86 L 64.40 73.94 L 66.16 76.92 L 68.00 79.99 L 69.78 83.29 L 71.89 86.51 L 74.00 89.59 L 77.96 94.06 L 74.34 101.56 L 81.19 98.93 L 83.68 101.99 L 86.27 104.75 L 88.73 107.50 L 91.24 110.05 L 93.47 112.53 L 95.64 114.88 L 97.94 116.60 L 99.33 117.33 L 101.11 117.97 L 102.72 118.58 L 104.46 119.28 L 106.27 119.81 L 107.89 120.55 L 109.99 120.99 L 111.49 121.76 L 113.53 122.28 L 115.63 124.32 L 118.18 126.73 L 120.43 129.33 L 123.04 132.11 L 125.83 134.96 L 128.36 138.16 L 131.70 141.10 L 134.00 146.15 L 138.67 142.47 L 142.05 146.58 L 142.24 155.55 L 144.31 159.23 L 146.25 162.73 L 148.04 166.05 L 149.77 169.18 L 151.48 172.13 L 153.09 174.93 L 154.58 177.61 L 156.05 180.13 L 157.54 182.44 L 158.97 184.57 L 159.65 186.00 L 159.84 186.99 L 160.05 187.96 L 160.23 188.97 L 160.53 189.90 L 161.00 190.70 L 160.69 191.15 L 159.95 191.60 L 160.40 193.43 L 160.30 195.28 L 159.75 196.41 L 159.67 197.93 L 160.07 199.76 L 160.85 201.99 L 162.13 204.50 L 163.73 207.31 L 165.73 210.36 L 168.04 213.68 L 170.72 217.23 L 177.89 224.15 L 181.38 231.88 L 185.28 238.59 L 188.65 247.77 L 195.02 235.33 L 197.05 230.91 L 201.27 231.07 L 205.11 231.31 L 209.25 230.91 L 213.28 230.70 L 217.50 230.02 L 220.83 232.17 L 222.35 230.49 L 229.67 228.72 L 233.40 227.99 L 236.72 226.99 L 239.69 232.89 L 241.73 232.08 L 245.56 261.01 L 244.29 223.39 L 245.32 222.47 L 246.18 221.89 L 246.25 221.80 L 246.49 221.20 L 246.26 220.24 L 246.20 219.31 L 246.20 218.61 L 246.29 217.96 L 247.22 217.40 L 248.66 217.17 L 250.10 217.25 L 251.70 216.90 L 253.51 216.43 L 255.55 216.26 L 257.97 215.63 L 260.47 215.18 L 263.23 214.95 L 267.00 215.02 L 270.56 215.65 L 277.75 221.94 L 280.69 230.55 L 284.98 234.66 L 287.63 232.01 L 290.55 235.89 L 299.36 242.27 L 294.28 218.53 L 298.85 208.44 L 300.33 206.20 L 301.90 204.42 L 303.36 202.93 L 304.19 201.74 L 304.59 200.09 L 305.39 197.80 L 306.56 195.31 L 306.78 196.68 L 309.23 196.74 L 310.89 195.91 L 308.45 192.45 L 309.58 190.27 L 311.33 185.52 L 303.74 175.99 L 302.26 173.84 L 300.70 171.70 L 299.10 169.93 L 297.46 168.34 L 295.64 166.83 L 293.32 165.62 L 290.92 164.07 L 288.37 162.09 L 285.84 160.53 L 283.50 159.06 L 281.14 157.71 L 278.70 156.55 L 276.44 155.47 L 274.38 154.52 L 272.43 153.87 L 270.61 153.47 L 268.98 153.24 L 267.47 153.26 L 265.79 152.64 L 264.10 152.00 L 262.54 151.37 L 261.11 150.78 L 259.56 149.97 L 257.42 148.22 L 255.26 146.54 L 253.06 144.80 L 250.83 142.94 L 248.58 141.10 L 246.30 139.19 L 243.99 137.22 L 241.66 135.26 L 239.30 133.32 L 236.92 131.34 L 234.53 129.42 L 232.11 127.57 L 229.68 125.56 L 227.23 123.49 L 224.76 121.67 L 222.27 120.02 L 219.78 118.30 L 217.27 116.42 L 214.75 114.44 L 212.21 112.52 L 209.65 110.78 L 207.06 109.16 L 204.47 107.54 L 201.88 105.88 L 199.28 104.19 L 196.66 102.44 L 194.05 100.66 L 191.45 98.89 L 188.83 97.16 L 186.17 95.48 L 183.46 93.83 L 180.74 92.19 L 178.04 90.56 L 175.36 88.91 L 172.69 87.25 L 170.04 85.55 L 167.42 83.81 L 164.80 82.02 L 162.17 80.18 L 159.51 78.32 L 156.83 76.47 L 155.22 74.59 L 153.83 72.59 L 152.29 70.47 L 150.58 68.25 L 148.70 66.00 L 146.64 63.77 L 144.41 61.60 L 142.01 59.41 L 139.43 57.15 L 136.70 54.83 L 133.84 52.49 L 130.86 50.19 L 127.73 47.97 L 124.50 45.80 L 123.32 38.42 L 119.28 39.20 L 114.64 39.76 L 111.31 37.97 L 108.07 36.28 L 104.95 34.73 L 101.90 33.30 L 98.92 31.99 L 96.03 30.80 L 93.25 29.75 L 90.59 28.81 L 88.07 27.98 L 85.67 27.26 L 83.38 26.64 L 81.22 26.13 L 79.17 25.71 L 77.20 25.41 L 75.00 24.59 L 72.53 23.27 L 70.12 21.99 L 67.87 20.75 L 65.71 19.56 L 63.51 18.41 L 61.35 17.31 L 59.28 16.27 L 57.24 15.28 L 55.24 14.36 L 53.31 13.50 L 51.44 12.73 L 49.63 12.03 Z" />
</symbol>
<symbol id="bl5">
<path d="M 153.80 357.66 L 153.46 358.55 L 153.24 359.26 L 153.15 359.87 L 162.47 357.25 L 150.73 363.42 L 153.82 361.76 L 154.35 362.20 L 155.01 362.58 L 155.86 362.94 L 156.84 363.26 L 157.90 363.85 L 158.81 365.43 L 164.14 365.17 L 162.89 370.40 L 163.68 368.07 L 165.48 367.90 L 171.21 362.35 L 171.04 374.34 L 171.78 367.13 L 173.85 366.10 L 175.93 364.93 L 178.23 363.64 L 180.70 362.75 L 183.11 361.14 L 185.93 359.34 L 188.82 357.52 L 191.53 354.93 L 194.80 356.94 L 197.38 356.50 L 199.66 352.04 L 196.92 343.93 L 193.73 340.10 L 192.37 331.87 L 187.97 332.05 L 184.31 333.82 L 180.77 338.42 L 177.70 340.03 L 174.32 340.65 L 171.14 341.55 L 168.10 342.72 L 165.34 343.79 L 163.15 345.03 L 167.64 347.90 L 160.58 338.90 L 162.43 343.39 L 159.63 343.03 L 156.15 351.39 L 161.85 352.02 L 154.29 351.69 L 154.65 355.54 L 154.24 356.79 Z" />
</symbol>
</defs>
<!-- isDone: 0 -->
<rect width="700" height="500" style="fill:#fff;stroke-width:0" />
<use class="p0 borderLine" xlink:href="#bl0"/>
<use class="p1 borderLine" xlink:href="#bl1"/>
<use class="p2 borderLine" xlink:href="#bl2"/>
<use class="p3 borderLine" xlink:href="#bl3"/>
<use class="p4 borderLine" xlink:href="#bl4"/>
<use class="p5 borderLine" xlink:href="#bl5"/>
<use class="q0 outLine" xlink:href="#bl0"/>
<use class="q1 outLine" xlink:href="#bl1"/>
<use class="q2 outLine" xlink:href="#bl2"/>
<use class="q3 outLine" xlink:href="#bl3"/>
<use class="q4 outLine" xlink:href="#bl4"/>
<use class="q5 outLine" xlink:href="#bl5"/>
<circle onclick="fromCircle(1)" class="circle" cx="177.9916" cy="257.8351" r="46.6377" />
<text class="tLabel" x="177.99" y="237.84"></text>
<text class="nLabel" x="177.99" y="252.84">40</text>
<text class="belong" x="177.99" y="262.84">(1)</text>
<circle onclick="fromCircle(3)" class="circle" cx="255.4972" cy="255.9357" r="46.6377" />
<text class="tLabel" x="255.50" y="235.94"></text>
<text class="nLabel" x="255.50" y="250.94">1</text>
<text class="belong" x="255.50" y="260.94">(1, 2)</text>
<circle onclick="fromCircle(7)" class="circle" cx="282.2514" cy="248.9547" r="46.6377" />
<text class="tLabel" x="282.25" y="228.95"></text>
<text class="nLabel" x="282.25" y="243.95">1</text>
<text class="belong" x="282.25" y="253.95">(1, 2, 3)</text>
<circle onclick="fromCircle(15)" class="circle" cx="279.1594" cy="261.5096" r="46.6377" />
<text class="tLabel" x="279.16" y="241.51"></text>
<text class="nLabel" x="279.16" y="256.51">2</text>
<text class="belong" x="279.16" y="266.51">(1, 2, 3, 4)</text>
<circle onclick="fromCircle(2)" class="circle" cx="114.8905" cy="167.7441" r="46.6377" />
<text class="tLabel" x="114.89" y="147.74"></text>
<text class="nLabel" x="114.89" y="162.74">1</text>
<text class="belong" x="114.89" y="172.74">(2)</text>
<circle onclick="fromCircle(6)" class="circle" cx="344.3106" cy="281.6630" r="46.6377" />
<text class="tLabel" x="344.31" y="261.66"></text>
<text class="nLabel" x="344.31" y="276.66">3</text>
<text class="belong" x="344.31" y="286.66">(2, 3)</text>
<circle onclick="fromCircle(14)" class="circle" cx="316.3107" cy="324.2307" r="46.6377" />
<text class="tLabel" x="316.31" y="304.23"></text>
<text class="nLabel" x="316.31" y="319.23">7</text>
<text class="belong" x="316.31" y="329.23">(2, 3, 4)</text>
<circle onclick="fromCircle(10)" class="circle" cx="328.8069" cy="366.6133" r="46.6377" />
<text class="tLabel" x="328.81" y="346.61"></text>
<text class="nLabel" x="328.81" y="361.61">8</text>
<text class="belong" x="328.81" y="371.61">(2, 4)</text>
<circle onclick="fromCircle(18)" class="circle" cx="221.2038" cy="154.1018" r="46.6377" />
<text class="tLabel" x="221.20" y="134.10"></text>
<text class="nLabel" x="221.20" y="149.10">5</text>
<text class="belong" x="221.20" y="159.10">(2, 5)</text>
<circle onclick="fromCircle(4)" class="circle" cx="353.1202" cy="190.6611" r="46.6377" />
<text class="tLabel" x="353.12" y="170.66"></text>
<text class="nLabel" x="353.12" y="185.66">3</text>
<text class="belong" x="353.12" y="195.66">(3)</text>
<circle onclick="fromCircle(5)" class="circle" cx="332.9889" cy="249.8635" r="46.6377" />
<text class="tLabel" x="332.99" y="229.86"></text>
<text class="nLabel" x="332.99" y="244.86">3</text>
<text class="belong" x="332.99" y="254.86">(1, 3)</text>
<circle onclick="fromCircle(13)" class="circle" cx="240.6253" cy="314.0201" r="46.6377" />
<text class="tLabel" x="240.63" y="294.02"></text>
<text class="nLabel" x="240.63" y="309.02">5</text>
<text class="belong" x="240.63" y="319.02">(1, 3, 4)</text>
<circle onclick="fromCircle(12)" class="circle" cx="253.7320" cy="360.0789" r="46.6377" />
<text class="tLabel" x="253.73" y="340.08"></text>
<text class="nLabel" x="253.73" y="355.08">4</text>
<text class="belong" x="253.73" y="365.08">(3, 4)</text>
<circle onclick="fromCircle(20)" class="circle" cx="327.7507" cy="158.0391" r="46.6377" />
<text class="tLabel" x="327.75" y="138.04"></text>
<text class="nLabel" x="327.75" y="153.04">5</text>
<text class="belong" x="327.75" y="163.04">(3, 5)</text>
<circle onclick="fromCircle(21)" class="circle" cx="295.2634" cy="206.1264" r="46.6377" />
<text class="tLabel" x="295.26" y="186.13"></text>
<text class="nLabel" x="295.26" y="201.13">5</text>
<text class="belong" x="295.26" y="211.13">(1, 3, 5)</text>
<circle onclick="fromCircle(8)" class="circle" cx="414.9288" cy="429.9122" r="46.6377" />
<text class="tLabel" x="414.93" y="409.91"></text>
<text class="nLabel" x="414.93" y="424.91">1</text>
<text class="belong" x="414.93" y="434.91">(4)</text>
<circle onclick="fromCircle(9)" class="circle" cx="203.0943" cy="300.7990" r="46.6377" />
<text class="tLabel" x="203.09" y="280.80"></text>
<text class="nLabel" x="203.09" y="295.80">7</text>
<text class="belong" x="203.09" y="305.80">(1, 4)</text>
<circle onclick="fromCircle(11)" class="circle" cx="234.4603" cy="241.0468" r="46.6377" />
<text class="tLabel" x="234.46" y="221.05"></text>
<text class="nLabel" x="234.46" y="236.05">3</text>
<text class="belong" x="234.46" y="246.05">(1, 2, 4)</text>
<circle onclick="fromCircle(40)" class="circle" cx="194.5168" cy="348.2466" r="46.6377" />
<text class="tLabel" x="194.52" y="328.25"></text>
<text class="nLabel" x="194.52" y="343.25">1</text>
<text class="belong" x="194.52" y="353.25">(4, 6)</text>
<circle onclick="fromCircle(16)" class="circle" cx="105.0523" cy="78.4234" r="46.6377" />
<text class="tLabel" x="105.05" y="58.42"></text>
<text class="nLabel" x="105.05" y="73.42">1</text>
<text class="belong" x="105.05" y="83.42">(5)</text>
<circle onclick="fromCircle(17)" class="circle" cx="189.1055" cy="214.6653" r="46.6377" />
<text class="tLabel" x="189.11" y="194.67"></text>
<text class="nLabel" x="189.11" y="209.67">5</text>
<text class="belong" x="189.11" y="219.67">(1, 5)</text>
<circle onclick="fromCircle(19)" class="circle" cx="215.0533" cy="211.4501" r="46.6377" />
<text class="tLabel" x="215.05" y="191.45"></text>
<text class="nLabel" x="215.05" y="206.45">5</text>
<text class="belong" x="215.05" y="216.45">(1, 2, 5)</text>
<circle onclick="fromCircle(32)" class="circle" cx="150.8658" cy="367.1389" r="46.6377" />
<text class="tLabel" x="150.87" y="347.14"></text>
<text class="nLabel" x="150.87" y="362.14">2</text>
<text class="belong" x="150.87" y="372.14">(6)</text>
<rect class="p0 borderLine" x="500.00" y="50.00" width="30.00" height="15.00" />
<rect class="q0" x="500.00" y="50.00" width="30.00" height="15.00" />
<text class="legend" x="540.00" y="65.00">Ball2017</text>
<rect class="p1 borderLine" x="500.00" y="90.00" width="30.00" height="15.00" />
<rect class="q1" x="500.00" y="90.00" width="30.00" height="15.00" />
<text class="legend" x="540.00" y="105.00">Courtois2015</text>
<rect class="p2 borderLine" x="500.00" y="130.00" width="30.00" height="15.00" />
<rect class="q2" x="500.00" y="130.00" width="30.00" height="15.00" />
<text class="legend" x="540.00" y="145.00">Hilton2017</text>
<rect class="p3 borderLine" x="500.00" y="170.00" width="30.00" height="15.00" />
<rect class="q3" x="500.00" y="170.00" width="30.00" height="15.00" />
<text class="legend" x="540.00" y="185.00">Ball2017</text>
<rect class="p4 borderLine" x="500.00" y="210.00" width="30.00" height="15.00" />
<rect class="q4" x="500.00" y="210.00" width="30.00" height="15.00" />
<text class="legend" x="540.00" y="225.00">Ball2017</text>
<rect class="p5 borderLine" x="500.00" y="250.00" width="30.00" height="15.00" />
<rect class="q5" x="500.00" y="250.00" width="30.00" height="15.00" />
<text class="legend" x="540.00" y="265.00">Ball2017</text>
</svg>
