<svg xmlns="http://www.w3.org/2000/svg" xmlns:xlink="http://www.w3.org/1999/xlink" width="700" height="500">
<defs>
<style type="text/css"><![CDATA[
  .borderLine {
	   stroke: none;
	   fill-opacity: 0.4;
  }
  .outLine {
	   stroke-width: 1;
	   fill: none;
  }
  .circle {
	   stroke: #888888;
	   stroke-width: 0.5;
	   fill: none;
    pointer-events: all;
  }
  .spcircle {
	   stroke: #FF2222;
	   stroke-width: 1;
	   fill: none;
    pointer-events: all;
  }
  .tLabel {
	   font-family: Arial;
    pointer-events: none;
	   font-size: 14px;
	   text-anchor: middle;
	   alignment-baseline: central;
  }
  .nLabel {
	   font-family: Arial;
    pointer-events: none;
	   font-size: 10px;
	   text-anchor: middle;
	   alignment-baseline: central;
  }
  .belong {
	   font-family: Arial;
    pointer-events: none;
	   font-size: 5px;
	   text-anchor: middle;
	   alignment-baseline: central;
  }
  .p0{
    stroke: none;
    fill: #e6194b;
  }
  .q0{
    fill: none;
    stroke: #e6194b;
  }
  .p1{
    stroke: none;
    fill: #3cb44b;
  }
  .q1{
    fill: none;
    stroke: #3cb44b;
  }
  .p2{
    stroke: none;
    fill: #ffe119;
  }
  .q2{
    fill: none;
    stroke: #ffe119;
  }
  .p3{
    stroke: none;
    fill: #0082c8;
  }
  .q3{
    fill: none;
    stroke: #0082c8;
  }
  .p4{
    stroke: none;
    fill: #f58231;
  }
  .q4{
    fill: none;
    stroke: #f58231;
  }
  .p5{
    stroke: none;
    fill: #911eb4;
  }
  .q5{
    fill: none;
    stroke: #911eb4;
  }
  .p6{
    stroke: none;
    fill: #46f0f0;
  }
  .q6{
    fill: none;
    stroke: #46f0f0;
  }
  .p7{
    stroke: none;
    fill: #f032e6;
  }
  .q7{
    fill: none;
    stroke: #f032e6;
  }
]]>
</style>
<symbol id="bl0">
<path d="M 15.66 251.43 L 12.09 245.97 L 5.75 247.49 L 5.04 253.98 L 10.91 256.83 L 20.18 313.79 L 10.90 320.61 L 10.98 332.14 L 20.37 338.82 L 31.29 335.14 L 143.18 444.28 L 140.79 453.89 L 147.97 460.69 L 157.43 457.77 L 159.53 448.10 L 322.28 395.18 L 356.56 419.93 L 390.54 394.78 L 376.90 354.76 L 334.63 355.62 L 316.39 331.69 L 318.61 327.44 L 316.77 323.01 L 312.19 321.58 L 308.16 324.17 L 214.65 265.35 L 215.91 253.13 L 206.98 244.70 L 194.85 246.66 L 189.04 257.48 L 153.44 256.24 L 152.16 292.93 L 166.62 308.43 L 151.12 322.88 L 136.66 307.38 L 152.16 292.93 L 153.44 256.24 L 15.66 251.43 L 12.09 245.97 L 5.75 247.49 L 5.04 253.98 L 10.91 256.83 L 20.18 313.79 L 10.90 320.61 L 10.98 332.14 L 20.37 338.82 L 31.29 335.14 L 143.18 444.28 L 140.79 453.89 L 147.97 460.69 L 157.43 457.77 L 159.53 448.10 L 322.28 395.18 L 356.56 419.93 L 390.54 394.78 L 376.90 354.76 L 334.63 355.62 L 316.39 331.69 L 318.61 327.44 L 316.77 323.01 L 312.19 321.58 L 308.16 324.17 L 214.65 265.35 L 215.91 253.13 L 206.98 244.70 L 194.85 246.66 L 189.04 257.48 Z" />
</symbol>
<symbol id="bl1">
<path d="M 14.95 248.47 L 8.53 245.77 L 4.34 251.33 L 8.71 256.75 L 15.03 253.83 L 270.26 385.64 L 271.46 396.43 L 281.87 399.51 L 288.74 391.09 L 283.64 381.50 L 310.26 332.17 L 314.82 332.53 L 318.16 329.41 L 318.10 324.83 L 314.68 321.79 L 361.21 176.48 L 374.63 172.72 L 376.47 158.90 L 364.48 151.77 L 353.21 159.97 L 303.35 141.28 L 303.06 136.65 L 299.41 133.79 L 294.85 134.61 L 292.43 138.55 L 236.81 131.26 L 233.81 122.84 L 225.23 120.35 L 218.18 125.84 L 218.51 134.77 Z" />
</symbol>
<symbol id="bl2">
<path d="M 103.73 343.67 L 91.13 343.64 L 84.74 354.50 L 90.88 365.50 L 103.48 365.76 L 145.49 442.53 L 140.49 452.51 L 148.06 460.71 L 158.41 456.52 L 158.13 445.36 L 365.29 294.33 L 375.80 298.02 L 382.98 289.51 L 377.59 279.77 L 366.57 281.34 L 233.73 137.20 L 236.01 125.92 L 226.00 120.23 L 217.48 127.97 L 222.17 138.48 Z" />
</symbol>
<symbol id="bl3">
<path d="M 73.89 211.39 L 70.99 204.81 L 63.97 206.38 L 64.16 213.57 L 71.25 214.78 L 158.70 367.28 L 152.56 375.89 L 155.09 386.16 L 164.53 390.93 L 174.30 386.87 L 206.57 416.71 L 202.76 429.14 L 210.10 439.87 L 223.07 440.82 L 231.90 431.27 L 303.87 453.35 L 306.24 459.79 L 313.07 459.23 L 314.37 452.50 L 308.23 449.45 L 275.80 278.60 L 284.44 271.04 L 282.04 259.81 L 271.06 256.45 L 262.78 264.41 Z" />
</symbol>
<symbol id="bl4">
<path d="M -59.46 521.44 L -66.58 523.88 L -64.99 531.23 L -57.50 530.52 L -57.33 523.00 L 355.41 172.61 L 372.25 174.85 L 376.17 158.32 L 360.13 152.76 L 352.97 168.16 L 268.95 194.14 L 262.31 186.45 L 252.16 186.12 L 245.03 193.35 L 245.50 203.49 L 92.01 279.42 L 84.25 272.89 L 74.18 274.15 L 68.27 282.40 L 70.31 292.34 L 32.57 318.99 L 22.61 313.63 L 12.34 318.37 L 9.94 329.42 L 17.33 337.98 Z" />
</symbol>
<symbol id="bl5">
<path d="M -125.73 1.57 L -129.79 -8.27 L -140.03 -5.40 L -138.39 5.11 L -127.76 4.72 L 64.52 205.77 L 62.79 210.39 L 65.35 214.61 L 70.25 215.23 L 73.77 211.77 L 189.84 253.29 L 195.24 269.53 L 212.29 268.17 L 215.07 251.29 L 199.34 244.55 L 162.78 107.09 L 166.77 103.19 L 165.48 97.77 L 160.17 96.07 L 155.98 99.75 Z" />
</symbol>
<symbol id="bl6">
<path d="M 41.91 391.86 L 34.81 394.33 L 36.43 401.68 L 43.91 400.94 L 44.06 393.42 L 192.35 266.97 L 205.62 271.57 L 216.11 262.23 L 213.06 248.51 L 199.61 244.49 L 188.57 199.40 L 195.62 194.19 L 196.83 185.51 L 191.50 178.56 L 182.80 177.50 L 162.87 107.07 L 166.96 101.00 L 161.65 95.96 L 155.81 100.36 L 159.17 106.86 Z" />
</symbol>
<symbol id="bl7">
<path d="M 273.58 85.18 L 281.58 63.98 L 260.38 55.98 L 252.38 77.18 L 273.58 85.18 L 295.71 134.13 L 292.88 141.62 L 300.38 144.45 L 303.20 136.96 L 295.71 134.13 Z" />
</symbol>
</defs>
<!-- isDone: 0 -->
<rect width="700" height="500" style="fill:#fff;stroke-width:0" />
<use class="p0 borderLine" xlink:href="#bl0"/>
<use class="p1 borderLine" xlink:href="#bl1"/>
<use class="p2 borderLine" xlink:href="#bl2"/>
<use class="p3 borderLine" xlink:href="#bl3"/>
<use class="p4 borderLine" xlink:href="#bl4"/>
<use class="p5 borderLine" xlink:href="#bl5"/>
<use class="p6 borderLine" xlink:href="#bl6"/>
<use class="p7 borderLine" xlink:href="#bl7"/>
<use class="q0 outLine" xlink:href="#bl0"/>
<use class="q1 outLine" xlink:href="#bl1"/>
<use class="q2 outLine" xlink:href="#bl2"/>
<use class="q3 outLine" xlink:href="#bl3"/>
<use class="q4 outLine" xlink:href="#bl4"/>
<use class="q5 outLine" xlink:href="#bl5"/>
<use class="q6 outLine" xlink:href="#bl6"/>
<use class="q7 outLine" xlink:href="#bl7"/>
<circle onclick="fromCircle(1)" class="circle" cx="356.3477" cy="384.1051" r="35.8237" />
<text class="tLabel" x="356.35" y="364.11"></text>
<text class="nLabel" x="356.35" y="379.11">40</text>
<text class="belong" x="356.35" y="389.11">(1)</text>
<circle onclick="fromCircle(7)" class="circle" cx="312.9521" cy="327.1887" r="5.6642" />
<text class="tLabel" x="312.95" y="307.19"></text>
<text class="nLabel" x="312.95" y="322.19">1</text>
<text class="belong" x="312.95" y="332.19">(1, 2, 3)</text>
<circle onclick="fromCircle(15)" class="circle" cx="226.3804" cy="332.2999" r="8.0104" />
<text class="tLabel" x="226.38" y="312.30"></text>
<text class="nLabel" x="226.38" y="327.30">2</text>
<text class="belong" x="226.38" y="337.30">(1, 2, 3, 4)</text>
<circle onclick="fromCircle(127)" class="circle" cx="202.9025" cy="257.9623" r="13.8745" />
<text class="tLabel" x="202.90" y="237.96"></text>
<text class="nLabel" x="202.90" y="252.96">6</text>
<text class="belong" x="202.90" y="262.96">(1, 2, 3, 4, 5, 6, 7)</text>
<circle onclick="fromCircle(2)" class="circle" cx="333.8160" cy="228.7610" r="5.6642" />
<text class="tLabel" x="333.82" y="208.76"></text>
<text class="nLabel" x="333.82" y="223.76">1</text>
<text class="belong" x="333.82" y="233.76">(2)</text>
<circle onclick="fromCircle(6)" class="circle" cx="227.0779" cy="129.9834" r="9.8107" />
<text class="tLabel" x="227.08" y="109.98"></text>
<text class="nLabel" x="227.08" y="124.98">3</text>
<text class="belong" x="227.08" y="134.98">(2, 3)</text>
<circle onclick="fromCircle(14)" class="spcircle" cx="151.6418" cy="307.9051" r="14.9861" />
<text class="tLabel" x="151.64" y="287.91"></text>
<text class="nLabel" x="151.64" y="302.91">7</text>
<text class="belong" x="151.64" y="312.91">(2, 3, 4)</text>
<circle onclick="fromCircle(10)" class="spcircle" cx="134.2957" cy="237.8391" r="16.0208" />
<text class="tLabel" x="134.30" y="217.84"></text>
<text class="nLabel" x="134.30" y="232.84">8</text>
<text class="belong" x="134.30" y="242.84">(2, 4)</text>
<circle onclick="fromCircle(18)" class="circle" cx="365.0691" cy="164.4176" r="12.6656" />
<text class="tLabel" x="365.07" y="144.42"></text>
<text class="nLabel" x="365.07" y="159.42">5</text>
<text class="belong" x="365.07" y="169.42">(2, 5)</text>
<circle onclick="fromCircle(130)" class="circle" cx="298.0417" cy="139.2892" r="5.6642" />
<text class="tLabel" x="298.04" y="119.29"></text>
<text class="nLabel" x="298.04" y="134.29">1</text>
<text class="belong" x="298.04" y="144.29">(2, 8)</text>
<circle onclick="fromCircle(4)" class="circle" cx="373.2185" cy="288.5526" r="9.8107" />
<text class="tLabel" x="373.22" y="268.55"></text>
<text class="nLabel" x="373.22" y="283.55">3</text>
<text class="belong" x="373.22" y="293.55">(3)</text>
<circle onclick="fromCircle(5)" class="circle" cx="150.2023" cy="451.1346" r="9.8107" />
<text class="tLabel" x="150.20" y="431.13"></text>
<text class="nLabel" x="150.20" y="446.13">3</text>
<text class="belong" x="150.20" y="456.13">(1, 3)</text>
<circle onclick="fromCircle(13)" class="circle" cx="164.9962" cy="378.2696" r="12.6656" />
<text class="tLabel" x="165.00" y="358.27"></text>
<text class="nLabel" x="165.00" y="373.27">5</text>
<text class="belong" x="165.00" y="383.27">(1, 3, 4)</text>
<circle onclick="fromCircle(12)" class="spcircle" cx="273.6906" cy="267.4692" r="11.3285" />
<text class="tLabel" x="273.69" y="247.47"></text>
<text class="nLabel" x="273.69" y="262.47">4</text>
<text class="belong" x="273.69" y="272.47">(3, 4)</text>
<circle onclick="fromCircle(20)" class="spcircle" cx="256.8538" cy="197.8793" r="12.6656" />
<text class="tLabel" x="256.85" y="177.88"></text>
<text class="nLabel" x="256.85" y="192.88">5</text>
<text class="belong" x="256.85" y="202.88">(3, 5)</text>
<circle onclick="fromCircle(21)" class="circle" cx="97.4006" cy="354.6444" r="12.6656" />
<text class="tLabel" x="97.40" y="334.64"></text>
<text class="nLabel" x="97.40" y="349.64">5</text>
<text class="belong" x="97.40" y="359.64">(1, 3, 5)</text>
<circle onclick="fromCircle(8)" class="circle" cx="309.2894" cy="455.0135" r="5.6642" />
<text class="tLabel" x="309.29" y="435.01"></text>
<text class="nLabel" x="309.29" y="450.01">1</text>
<text class="belong" x="309.29" y="460.01">(4)</text>
<circle onclick="fromCircle(9)" class="circle" cx="217.5726" cy="426.8797" r="14.9861" />
<text class="tLabel" x="217.57" y="406.88"></text>
<text class="nLabel" x="217.57" y="421.88">7</text>
<text class="belong" x="217.57" y="431.88">(1, 4)</text>
<circle onclick="fromCircle(11)" class="circle" cx="278.9793" cy="390.1377" r="9.8107" />
<text class="tLabel" x="278.98" y="370.14"></text>
<text class="nLabel" x="278.98" y="385.14">3</text>
<text class="belong" x="278.98" y="395.14">(1, 2, 4)</text>
<circle onclick="fromCircle(40)" class="circle" cx="68.4335" cy="209.8619" r="5.6642" />
<text class="tLabel" x="68.43" y="189.86"></text>
<text class="nLabel" x="68.43" y="204.86">1</text>
<text class="belong" x="68.43" y="214.86">(4, 6)</text>
<circle onclick="fromCircle(17)" class="circle" cx="22.2193" cy="326.2928" r="12.6656" />
<text class="tLabel" x="22.22" y="306.29"></text>
<text class="nLabel" x="22.22" y="321.29">5</text>
<text class="belong" x="22.22" y="331.29">(1, 5)</text>
<circle onclick="fromCircle(19)" class="circle" cx="80.6616" cy="285.0332" r="12.6656" />
<text class="tLabel" x="80.66" y="265.03"></text>
<text class="nLabel" x="80.66" y="280.03">5</text>
<text class="belong" x="80.66" y="290.03">(1, 2, 5)</text>
<circle onclick="fromCircle(80)" class="circle" cx="39.7523" cy="397.0946" r="5.6642" />
<text class="tLabel" x="39.75" y="377.09"></text>
<text class="nLabel" x="39.75" y="392.09">1</text>
<text class="belong" x="39.75" y="402.09">(5, 7)</text>
<circle onclick="fromCircle(96)" class="circle" cx="161.3283" cy="101.6192" r="5.6642" />
<text class="tLabel" x="161.33" y="81.62"></text>
<text class="nLabel" x="161.33" y="96.62">1</text>
<text class="belong" x="161.33" y="106.62">(6, 7)</text>
<circle onclick="fromCircle(64)" class="spcircle" cx="185.8811" cy="188.3967" r="11.3285" />
<text class="tLabel" x="185.88" y="168.40"></text>
<text class="nLabel" x="185.88" y="183.40">4</text>
<text class="belong" x="185.88" y="193.40">(7)</text>
<circle onclick="fromCircle(128)" class="circle" cx="266.9805" cy="70.5774" r="16.0208" />
<text class="tLabel" x="266.98" y="50.58"></text>
<text class="nLabel" x="266.98" y="65.58">8</text>
<text class="belong" x="266.98" y="75.58">(8)</text>
<rect class="p0 borderLine" x="500.00" y="50.00" width="30.00" height="15.00" />
<rect class="q0" x="500.00" y="50.00" width="30.00" height="15.00" />
<text class="legend" x="540.00" y="65.00">Ball2017</text>
<rect class="p1 borderLine" x="500.00" y="90.00" width="30.00" height="15.00" />
<rect class="q1" x="500.00" y="90.00" width="30.00" height="15.00" />
<text class="legend" x="540.00" y="105.00">Courtois2015</text>
<rect class="p2 borderLine" x="500.00" y="130.00" width="30.00" height="15.00" />
<rect class="q2" x="500.00" y="130.00" width="30.00" height="15.00" />
<text class="legend" x="540.00" y="145.00">Hilton2017</text>
<rect class="p3 borderLine" x="500.00" y="170.00" width="30.00" height="15.00" />
<rect class="q3" x="500.00" y="170.00" width="30.00" height="15.00" />
<text class="legend" x="540.00" y="185.00">Ball2017</text>
<rect class="p4 borderLine" x="500.00" y="210.00" width="30.00" height="15.00" />
<rect class="q4" x="500.00" y="210.00" width="30.00" height="15.00" />
<text class="legend" x="540.00" y="225.00">Ball2017</text>
<rect class="p5 borderLine" x="500.00" y="250.00" width="30.00" height="15.00" />
<rect class="q5" x="500.00" y="250.00" width="30.00" height="15.00" />
<text class="legend" x="540.00" y="265.00">Ball2017</text>
<rect class="p6 borderLine" x="500.00" y="290.00" width="30.00" height="15.00" />
<rect class="q6" x="500.00" y="290.00" width="30.00" height="15.00" />
<text class="legend" x="540.00" y="305.00">Courtois2015</text>
<rect class="p7 borderLine" x="500.00" y="330.00" width="30.00" height="15.00" />
<rect class="q7" x="500.00" y="330.00" width="30.00" height="15.00" />
<text class="legend" x="540.00" y="345.00">Hilton2017</text>
</svg>
