<svg xmlns="http://www.w3.org/2000/svg" xmlns:xlink="http://www.w3.org/1999/xlink" width="700" height="500">
<defs>
<style type="text/css"><![CDATA[
  .borderLine {
	   stroke: none;
	   fill-opacity: 0.4;
  }
  .outLine {
	   stroke-width: 1;
	   fill: none;
  }
  .circle {
	   stroke: #888888;
	   stroke-width: 0.5;
	   fill: none;
    pointer-events: all;
  }
  .spcircle {
	   stroke: #FF2222;
	   stroke-width: 1;
	   fill: none;
    pointer-events: all;
  }
  .tLabel {
	   font-family: Arial;
    pointer-events: none;
	   font-size: 14px;
	   text-anchor: middle;
	   alignment-baseline: central;
  }
  .nLabel {
	   font-family: Arial;
    pointer-events: none;
	   font-size: 10px;
	   text-anchor: middle;
	   alignment-baseline: central;
  }
  .belong {
	   font-family: Arial;
    pointer-events: none;
	   font-size: 5px;
	   text-anchor: middle;
	   alignment-baseline: central;
  }
  .p0{
    stroke: none;
    fill: #e6194b;
  }
  .q0{
    fill: none;
    stroke: #e6194b;
  }
  .p1{
    stroke: none;
    fill: #3cb44b;
  }
  .q1{
    fill: none;
    stroke: #3cb44b;
  }
  .p2{
    stroke: none;
    fill: #ffe119;
  }
  .q2{
    fill: none;
    stroke: #ffe119;
  }
  .p3{
    stroke: none;
    fill: #0082c8;
  }
  .q3{
    fill: none;
    stroke: #0082c8;
  }
  .p4{
    stroke: none;
    fill: #f58231;
  }
  .q4{
    fill: none;
    stroke: #f58231;
  }
  .p5{
    stroke: none;
    fill: #911eb4;
  }
  .q5{
    fill: none;
    stroke: #911eb4;
  }
  .p6{
    stroke: none;
    fill: #46f0f0;
  }
  .q6{
    fill: none;
    stroke: #46f0f0;
  }
  .p7{
    stroke: none;
    fill: #f032e6;
  }
  .q7{
    fill: none;
    stroke: #f032e6;
  }
]]>
</style>
<symbol id="bl0">
<path d="M 249.72 245.33 L 248.89 246.75 L 248.23 248.05 L 247.95 249.56 L 248.36 251.29 L 248.96 252.74 L 249.25 254.13 L 249.90 255.49 L 250.33 257.17 L 250.80 258.84 L 251.28 260.46 L 251.71 262.03 L 252.16 263.60 L 252.80 265.14 L 253.80 266.49 L 255.14 267.53 L 256.69 268.23 L 258.28 268.72 L 259.85 269.21 L 261.44 269.70 L 263.06 270.17 L 264.43 270.82 L 266.05 271.24 L 267.86 270.49 L 269.78 270.45 L 271.78 272.11 L 273.46 272.22 L 275.27 272.58 L 277.11 272.89 L 278.99 273.24 L 280.73 274.10 L 282.17 275.42 L 283.30 276.99 L 284.25 278.53 L 285.76 280.12 L 288.93 273.39 L 288.47 282.64 L 290.35 284.24 L 291.95 285.15 L 293.56 286.35 L 295.19 287.55 L 296.84 288.75 L 298.48 289.95 L 300.10 291.19 L 301.71 292.45 L 303.36 293.65 L 305.04 294.84 L 306.70 296.06 L 308.35 297.31 L 310.02 298.52 L 311.72 299.69 L 313.44 300.85 L 315.16 302.03 L 316.88 303.20 L 318.60 304.39 L 320.29 305.60 L 321.98 306.84 L 323.66 308.09 L 325.35 309.33 L 327.04 310.57 L 328.74 311.81 L 330.44 313.06 L 332.14 314.29 L 333.85 315.52 L 335.55 316.76 L 337.25 318.00 L 338.94 319.23 L 340.63 320.45 L 342.30 321.71 L 343.98 323.01 L 345.66 324.33 L 347.35 325.66 L 349.04 327.01 L 350.72 328.37 L 352.39 329.73 L 354.06 331.06 L 355.73 332.39 L 357.40 333.74 L 359.06 335.10 L 360.72 336.47 L 362.38 337.83 L 364.04 339.19 L 365.70 340.56 L 367.36 341.94 L 369.02 343.31 L 370.68 344.67 L 372.35 346.02 L 374.02 347.33 L 375.69 348.62 L 377.36 349.88 L 379.03 351.11 L 380.70 352.33 L 382.37 353.54 L 384.04 354.76 L 385.71 355.97 L 387.38 357.16 L 389.05 358.33 L 390.72 359.49 L 392.40 360.65 L 394.07 361.80 L 395.75 362.95 L 397.44 364.09 L 399.13 365.24 L 400.80 366.38 L 402.48 367.51 L 404.14 368.64 L 405.81 369.77 L 407.47 370.90 L 409.13 372.03 L 410.79 373.14 L 412.45 374.23 L 414.10 375.31 L 415.75 376.39 L 417.39 377.47 L 419.03 378.54 L 420.68 379.59 L 422.31 380.65 L 423.94 381.70 L 425.56 382.74 L 427.19 383.76 L 428.83 384.77 L 430.49 385.79 L 432.15 386.81 L 433.81 387.83 L 435.46 388.83 L 437.10 389.82 L 438.71 390.78 L 440.31 391.71 L 441.90 392.62 L 443.49 393.52 L 445.08 394.40 L 446.65 395.26 L 448.22 396.12 L 449.78 396.97 L 451.33 397.82 L 452.88 398.65 L 454.42 399.46 L 455.96 400.25 L 457.49 401.02 L 459.00 401.77 L 460.49 402.50 L 461.94 403.19 L 463.38 403.86 L 464.81 404.50 L 466.21 405.11 L 467.59 405.68 L 468.95 406.22 L 470.29 406.72 L 471.60 407.18 L 472.91 407.59 L 474.22 407.96 L 475.58 408.27 L 476.99 408.51 L 478.38 408.67 L 479.68 408.75 L 480.90 408.74 L 482.05 408.63 L 483.16 408.41 L 484.20 408.08 L 485.18 407.65 L 486.09 407.14 L 486.92 406.55 L 487.67 405.88 L 488.33 405.13 L 488.88 404.33 L 489.33 403.47 L 489.66 402.56 L 489.89 401.60 L 490.00 400.60 L 490.00 399.55 L 489.89 398.43 L 489.67 397.28 L 489.36 396.06 L 488.97 394.77 L 488.50 393.39 L 487.97 392.01 L 487.37 390.72 L 486.73 389.53 L 486.03 388.36 L 485.30 387.20 L 484.52 386.02 L 483.71 384.82 L 482.86 383.61 L 481.98 382.40 L 481.06 381.16 L 480.11 379.85 L 479.13 378.47 L 478.13 377.06 L 477.09 375.69 L 476.03 374.36 L 474.95 373.06 L 473.84 371.80 L 472.71 370.56 L 471.55 369.30 L 470.37 368.04 L 469.17 366.78 L 467.95 365.52 L 466.71 364.24 L 465.46 362.90 L 464.18 361.50 L 462.89 360.08 L 461.58 358.66 L 460.25 357.27 L 458.91 355.91 L 457.56 354.58 L 456.19 353.27 L 454.80 351.96 L 453.40 350.66 L 451.99 349.35 L 450.57 348.04 L 449.14 346.72 L 447.70 345.40 L 446.24 344.08 L 444.78 342.75 L 443.30 341.43 L 441.82 340.10 L 440.34 338.77 L 438.85 337.44 L 437.36 336.09 L 435.88 334.73 L 434.40 333.37 L 432.92 331.99 L 431.44 330.62 L 429.96 329.23 L 428.48 327.84 L 427.00 326.43 L 425.51 325.03 L 424.00 323.63 L 422.49 322.22 L 420.99 320.80 L 419.50 319.35 L 418.02 317.88 L 416.55 316.40 L 415.07 314.91 L 413.58 313.44 L 412.09 311.99 L 410.59 310.56 L 409.07 309.12 L 407.56 307.68 L 406.03 306.24 L 404.50 304.84 L 402.96 303.46 L 401.41 302.09 L 399.88 300.71 L 398.35 299.31 L 396.81 297.90 L 395.26 296.49 L 393.71 295.10 L 392.18 293.72 L 390.66 292.35 L 389.15 290.97 L 387.64 289.57 L 386.11 288.17 L 384.58 286.75 L 383.05 285.31 L 381.52 283.86 L 380.00 282.40 L 378.47 280.95 L 376.92 279.51 L 375.35 278.08 L 373.78 276.67 L 372.24 275.25 L 370.71 273.85 L 369.17 272.47 L 367.62 271.10 L 366.06 269.73 L 364.52 268.36 L 362.98 267.02 L 361.42 265.69 L 359.86 264.37 L 358.31 263.04 L 356.76 261.73 L 355.19 260.43 L 353.62 259.15 L 352.05 257.87 L 350.45 256.61 L 348.82 255.37 L 347.18 254.13 L 345.53 252.88 L 343.89 251.62 L 342.23 250.37 L 340.57 249.12 L 338.90 247.91 L 337.25 246.69 L 335.63 245.45 L 334.03 244.19 L 332.43 242.93 L 330.84 241.69 L 329.27 240.45 L 327.71 239.21 L 326.17 237.98 L 324.61 236.78 L 323.22 235.82 L 321.55 234.36 L 320.10 233.23 L 319.20 231.54 L 317.96 229.94 L 317.35 228.39 L 316.34 227.14 L 315.54 225.43 L 314.84 219.74 L 314.59 222.26 L 313.03 220.81 L 312.58 219.26 L 312.30 217.96 L 311.59 216.50 L 310.99 215.03 L 310.14 213.61 L 309.06 212.66 L 307.60 212.10 L 306.30 212.11 L 304.66 212.53 L 303.38 209.56 L 302.00 213.89 L 301.04 214.69 L 300.17 215.67 L 299.42 216.78 L 298.48 217.79 L 297.54 218.78 L 296.60 219.76 L 295.68 220.75 L 294.84 221.81 L 293.99 222.95 L 292.99 224.10 L 291.73 224.99 L 290.29 225.56 L 288.77 225.77 L 287.27 225.63 L 285.89 225.16 L 284.69 224.43 L 283.73 223.51 L 282.99 222.41 L 282.49 221.21 L 282.24 219.99 L 282.16 218.81 L 282.15 217.70 L 282.10 216.63 L 281.99 215.55 L 281.87 214.47 L 281.76 213.39 L 281.65 212.30 L 281.53 211.21 L 281.41 210.11 L 281.31 209.03 L 281.23 207.95 L 281.15 206.87 L 281.04 205.79 L 280.89 204.71 L 280.94 203.73 L 281.00 202.69 L 281.01 201.57 L 280.96 200.42 L 280.88 199.27 L 280.61 198.16 L 280.10 197.23 L 279.42 197.88 L 278.48 197.39 L 277.38 199.82 L 276.19 202.64 L 274.96 207.07 L 273.73 211.05 L 272.55 207.12 L 271.51 195.94 L 270.48 196.56 L 269.56 197.24 L 268.66 197.90 L 267.69 198.52 L 266.73 199.04 L 265.70 199.55 L 264.55 200.17 L 263.37 200.95 L 262.34 201.75 L 262.52 205.63 L 260.99 203.71 L 260.42 204.99 L 259.97 206.15 L 259.74 207.28 L 259.38 208.44 L 258.98 209.64 L 258.55 210.84 L 258.15 212.02 L 257.79 213.21 L 257.43 214.43 L 257.02 215.67 L 256.58 216.94 L 256.14 218.21 L 255.67 219.49 L 255.17 220.78 L 254.69 222.10 L 254.28 223.42 L 253.93 224.74 L 253.58 226.07 L 253.20 227.38 L 252.80 228.68 L 252.33 229.95 L 251.97 230.94 L 251.48 232.29 L 250.73 233.86 L 249.78 235.13 L 249.71 236.54 L 250.05 237.85 L 249.93 239.34 L 250.33 240.84 L 250.28 242.24 L 247.89 243.90 Z" />
</symbol>
<symbol id="bl1">
<path d="M 138.56 101.80 L 137.36 101.73 L 136.19 101.72 L 135.04 101.77 L 133.91 101.89 L 132.81 102.08 L 131.75 102.34 L 130.69 102.66 L 129.63 103.05 L 128.61 103.50 L 127.64 104.03 L 126.73 104.62 L 125.86 105.27 L 124.99 105.98 L 124.13 106.73 L 123.28 107.28 L 122.36 108.09 L 121.40 109.01 L 120.70 109.98 L 119.73 114.10 L 119.27 115.21 L 119.10 113.98 L 119.32 114.59 L 119.87 116.34 L 121.42 116.32 L 122.43 117.86 L 123.87 118.71 L 125.16 119.48 L 126.37 120.11 L 127.67 121.00 L 128.93 121.94 L 130.16 122.92 L 131.38 123.93 L 132.62 124.96 L 133.87 126.03 L 135.14 127.12 L 136.40 128.24 L 137.65 129.39 L 138.90 130.57 L 140.16 131.78 L 141.44 133.01 L 142.73 134.26 L 144.02 135.54 L 145.33 136.84 L 146.66 138.15 L 148.03 139.48 L 149.38 140.83 L 150.72 142.19 L 152.03 143.56 L 153.32 144.94 L 154.63 146.31 L 155.96 147.68 L 157.32 149.05 L 158.70 150.42 L 160.09 151.80 L 161.47 153.18 L 162.83 154.57 L 164.21 155.97 L 165.60 157.37 L 167.02 158.75 L 168.44 160.15 L 169.87 161.54 L 171.30 162.93 L 172.73 164.32 L 174.15 165.72 L 175.56 167.12 L 176.95 168.53 L 178.36 169.93 L 179.77 171.33 L 181.20 172.72 L 182.63 174.12 L 184.02 175.53 L 185.41 176.93 L 186.82 178.33 L 188.28 179.74 L 189.75 181.14 L 191.23 182.55 L 192.72 183.97 L 194.20 185.38 L 195.66 186.80 L 197.12 188.22 L 198.60 189.63 L 200.09 191.04 L 201.55 192.47 L 202.98 193.91 L 204.37 195.37 L 205.76 196.83 L 207.18 198.29 L 208.60 199.74 L 210.02 201.20 L 211.42 202.66 L 212.81 204.13 L 214.22 205.61 L 215.65 207.08 L 217.06 208.57 L 218.45 210.04 L 219.82 211.48 L 221.20 212.91 L 222.59 214.34 L 223.98 215.77 L 225.37 217.21 L 226.73 218.65 L 228.08 220.08 L 229.44 221.49 L 230.83 222.89 L 232.22 224.29 L 233.59 225.69 L 234.91 227.11 L 236.23 228.54 L 237.50 229.99 L 238.76 231.47 L 239.84 232.90 L 241.01 234.40 L 242.38 235.99 L 243.75 236.08 L 245.39 237.51 L 247.54 238.40 L 249.14 240.08 L 250.47 241.12 L 251.89 242.20 L 253.05 243.21 L 254.38 243.85 L 256.09 244.82 L 257.56 247.23 L 258.46 248.67 L 259.51 249.20 L 260.11 250.54 L 260.78 251.94 L 261.54 253.32 L 262.29 254.68 L 262.93 256.06 L 263.47 257.45 L 264.06 258.77 L 264.57 260.18 L 264.81 261.67 L 264.68 262.92 L 264.66 264.30 L 264.96 265.92 L 264.92 267.25 L 267.77 268.82 L 265.55 270.20 L 266.02 271.44 L 266.58 272.61 L 267.12 273.56 L 267.52 274.73 L 267.93 275.89 L 268.37 277.04 L 268.85 278.20 L 269.39 279.43 L 270.02 280.73 L 270.67 282.07 L 271.36 283.37 L 272.28 284.48 L 273.41 285.36 L 274.68 285.96 L 275.94 286.28 L 277.14 286.35 L 278.27 286.28 L 279.40 286.16 L 280.50 286.02 L 281.60 285.84 L 282.67 285.61 L 283.71 285.32 L 284.71 284.99 L 285.74 284.62 L 286.78 284.35 L 287.85 284.09 L 289.02 283.62 L 290.24 283.05 L 291.37 282.60 L 292.51 277.55 L 293.30 275.05 L 293.32 272.03 L 292.12 277.47 L 294.31 277.89 L 294.64 276.75 L 294.74 275.83 L 294.54 274.87 L 294.65 273.81 L 294.75 272.46 L 294.95 271.08 L 297.42 269.82 L 295.77 268.69 L 296.34 267.55 L 296.96 266.40 L 297.59 265.47 L 298.10 264.34 L 298.60 263.15 L 299.12 261.95 L 299.61 260.73 L 300.06 259.48 L 300.46 258.20 L 300.86 256.91 L 301.28 255.60 L 301.72 254.28 L 302.17 252.94 L 302.63 251.58 L 303.12 250.21 L 303.63 248.84 L 304.15 247.47 L 304.64 246.08 L 305.08 244.68 L 305.48 243.27 L 305.85 241.85 L 306.22 240.42 L 306.57 239.00 L 306.93 237.60 L 307.29 236.19 L 307.66 234.79 L 308.05 233.38 L 308.45 231.96 L 308.86 230.53 L 309.29 229.10 L 309.69 227.66 L 310.07 226.21 L 310.43 224.76 L 310.79 223.29 L 311.28 221.92 L 311.73 220.46 L 312.06 218.90 L 311.98 217.44 L 311.41 215.88 L 310.59 214.32 L 309.70 213.06 L 308.19 212.27 L 306.68 212.06 L 305.04 212.38 L 303.17 212.54 L 301.30 200.99 L 299.51 208.94 L 297.86 211.71 L 296.26 211.04 L 294.78 210.38 L 293.05 209.85 L 291.31 209.44 L 289.57 209.14 L 287.83 208.86 L 286.09 208.51 L 284.34 208.11 L 282.55 207.69 L 280.72 207.24 L 278.88 206.74 L 277.11 206.44 L 275.13 205.98 L 273.11 203.77 L 271.61 204.13 L 270.57 202.39 L 269.22 201.20 L 267.51 199.51 L 266.01 198.35 L 264.62 196.91 L 263.22 195.42 L 261.85 193.91 L 260.48 192.38 L 259.10 190.91 L 257.67 189.50 L 256.19 188.08 L 254.72 186.61 L 253.53 184.97 L 252.02 183.40 L 250.61 181.80 L 248.99 180.53 L 247.51 179.22 L 246.00 177.89 L 244.42 176.62 L 242.83 175.34 L 241.24 174.02 L 239.69 172.63 L 238.18 171.16 L 236.70 169.64 L 235.23 168.11 L 233.76 166.58 L 232.30 165.07 L 230.84 163.58 L 229.38 162.11 L 227.91 160.67 L 226.41 159.24 L 224.89 157.83 L 223.36 156.43 L 221.83 155.07 L 220.31 153.71 L 218.79 152.37 L 217.30 151.02 L 215.83 149.69 L 214.36 148.38 L 212.89 147.09 L 211.41 145.79 L 209.92 144.51 L 208.45 143.24 L 206.99 142.00 L 205.51 140.77 L 204.01 139.54 L 202.47 138.32 L 200.90 137.13 L 199.28 135.97 L 197.64 134.82 L 196.02 133.67 L 194.47 132.52 L 193.00 131.37 L 191.58 130.23 L 190.14 129.10 L 188.68 127.99 L 187.21 126.90 L 185.75 125.81 L 184.30 124.73 L 182.84 123.68 L 181.37 122.63 L 179.89 121.60 L 178.39 120.58 L 176.87 119.58 L 175.34 118.59 L 173.85 117.62 L 172.37 116.67 L 170.91 115.74 L 169.44 114.83 L 167.97 113.94 L 166.51 113.06 L 165.06 112.20 L 163.61 111.36 L 162.16 110.54 L 160.72 109.75 L 159.28 108.98 L 157.86 108.24 L 156.45 107.53 L 155.05 106.85 L 153.63 106.20 L 152.18 105.58 L 150.67 104.99 L 149.12 104.44 L 147.63 103.93 L 146.24 103.48 L 144.90 103.06 L 143.58 102.70 L 142.27 102.39 L 141.02 102.14 L 139.77 101.94 Z" />
</symbol>
<symbol id="bl2">
<path d="M 241.87 238.80 L 241.81 239.88 L 241.96 241.22 L 241.90 242.16 L 241.79 243.65 L 244.69 244.97 L 242.93 246.01 L 243.73 247.09 L 244.65 248.26 L 245.54 249.17 L 246.37 250.04 L 247.07 250.96 L 247.83 251.90 L 248.69 252.86 L 249.68 253.76 L 250.76 254.04 L 251.99 249.20 L 253.46 253.43 L 255.03 255.46 L 256.44 255.52 L 257.84 255.44 L 259.40 255.63 L 260.96 256.08 L 262.39 256.91 L 263.72 257.89 L 265.11 258.82 L 266.59 259.73 L 268.06 260.51 L 269.63 261.27 L 271.33 262.40 L 272.88 263.72 L 274.43 264.18 L 275.73 265.34 L 277.26 266.39 L 278.83 267.42 L 280.42 268.40 L 282.04 269.34 L 283.68 270.27 L 285.35 271.20 L 287.05 272.12 L 288.69 272.79 L 290.50 273.91 L 292.27 290.64 L 294.13 275.87 L 295.76 277.27 L 297.24 278.38 L 298.97 279.35 L 300.65 280.45 L 302.33 281.56 L 304.05 282.64 L 305.78 283.67 L 307.53 284.65 L 309.27 285.65 L 310.99 286.69 L 312.70 287.75 L 314.42 288.79 L 316.15 289.80 L 317.90 290.80 L 319.64 291.81 L 321.39 292.84 L 323.14 293.89 L 324.91 294.91 L 326.69 295.89 L 328.49 296.83 L 330.29 297.75 L 332.09 298.67 L 333.89 299.61 L 335.68 300.57 L 337.45 301.53 L 339.22 302.48 L 340.98 303.41 L 342.73 304.35 L 344.48 305.28 L 346.22 306.23 L 347.95 307.17 L 349.69 308.12 L 351.44 309.07 L 353.18 310.02 L 354.93 310.96 L 356.67 311.88 L 358.42 312.79 L 360.16 313.69 L 361.89 314.58 L 363.61 315.48 L 365.33 316.39 L 367.04 317.31 L 368.75 318.24 L 370.48 319.17 L 372.21 320.09 L 373.96 320.98 L 375.70 321.85 L 377.44 322.71 L 379.16 323.57 L 380.87 324.42 L 382.58 325.26 L 384.30 326.10 L 386.01 326.94 L 387.72 327.78 L 389.43 328.62 L 391.13 329.46 L 392.84 330.30 L 394.54 331.14 L 396.24 331.99 L 397.93 332.83 L 399.60 333.65 L 401.26 334.46 L 402.94 335.24 L 404.63 336.01 L 406.32 336.76 L 408.01 337.50 L 409.71 338.22 L 411.40 338.92 L 413.07 339.62 L 414.72 340.31 L 416.34 340.99 L 417.94 341.65 L 419.53 342.28 L 421.10 342.90 L 422.66 343.51 L 424.20 344.10 L 425.71 344.68 L 427.19 345.23 L 428.65 345.76 L 430.08 346.25 L 431.51 346.69 L 432.97 347.09 L 434.44 347.43 L 435.88 347.70 L 437.23 347.90 L 438.50 348.01 L 439.69 348.02 L 440.82 347.94 L 441.86 347.76 L 442.80 347.48 L 443.64 347.10 L 444.36 346.62 L 444.94 346.04 L 445.39 345.38 L 445.69 344.63 L 445.84 343.81 L 445.84 342.92 L 445.71 341.97 L 445.46 340.96 L 445.10 339.88 L 444.63 338.74 L 444.09 337.52 L 443.46 336.23 L 442.77 334.87 L 442.03 333.50 L 441.24 332.21 L 440.43 330.99 L 439.59 329.79 L 438.72 328.59 L 437.83 327.39 L 436.90 326.19 L 435.95 324.97 L 434.98 323.76 L 433.99 322.54 L 432.97 321.29 L 431.95 320.02 L 430.91 318.75 L 429.87 317.48 L 428.81 316.22 L 427.73 314.98 L 426.64 313.73 L 425.53 312.49 L 424.40 311.25 L 423.26 310.01 L 422.11 308.77 L 420.96 307.54 L 419.80 306.28 L 418.64 305.00 L 417.48 303.72 L 416.31 302.43 L 415.13 301.15 L 413.94 299.89 L 412.74 298.63 L 411.54 297.38 L 410.32 296.14 L 409.08 294.89 L 407.83 293.65 L 406.55 292.40 L 405.25 291.14 L 403.94 289.87 L 402.61 288.60 L 401.28 287.33 L 399.94 286.06 L 398.59 284.79 L 397.25 283.51 L 395.90 282.24 L 394.55 280.97 L 393.18 279.70 L 391.80 278.41 L 390.42 277.12 L 389.04 275.82 L 387.65 274.50 L 386.24 273.19 L 384.83 271.88 L 383.40 270.58 L 381.98 269.29 L 380.56 268.00 L 379.15 266.70 L 377.74 265.39 L 376.32 264.07 L 374.88 262.74 L 373.42 261.42 L 371.94 260.11 L 370.44 258.82 L 368.93 257.54 L 367.40 256.27 L 365.87 255.00 L 364.33 253.74 L 362.79 252.46 L 361.28 251.17 L 359.78 249.87 L 358.27 248.57 L 356.74 247.28 L 355.17 246.01 L 353.58 244.76 L 352.00 243.52 L 350.47 242.28 L 348.99 241.04 L 347.54 239.80 L 346.12 238.55 L 344.74 237.32 L 343.37 236.10 L 341.99 234.89 L 340.60 233.71 L 339.22 232.54 L 337.86 231.36 L 336.53 230.18 L 335.19 229.01 L 333.83 227.87 L 332.47 226.75 L 331.12 225.63 L 329.80 224.50 L 328.47 223.38 L 327.11 222.28 L 325.75 221.20 L 324.66 220.03 L 323.33 218.75 L 321.93 217.78 L 320.49 217.09 L 318.67 222.30 L 316.83 216.94 L 315.13 216.99 L 313.69 213.67 L 312.36 215.69 L 311.07 214.55 L 310.06 213.43 L 308.87 212.58 L 307.40 212.05 L 305.96 212.17 L 304.37 212.49 L 302.71 211.42 L 301.03 211.39 L 299.40 212.80 L 297.93 212.85 L 296.65 212.70 L 295.15 212.78 L 293.67 212.86 L 292.19 212.91 L 290.73 212.93 L 289.27 212.88 L 287.75 212.98 L 286.31 213.37 L 284.95 213.93 L 283.72 214.63 L 282.40 215.23 L 281.10 215.85 L 279.80 216.49 L 278.51 217.13 L 277.23 217.77 L 275.94 218.40 L 274.66 219.05 L 273.37 219.71 L 272.10 220.35 L 270.83 220.91 L 269.56 221.41 L 268.28 221.87 L 267.01 222.30 L 265.74 222.71 L 264.47 223.09 L 263.20 223.43 L 261.94 223.74 L 260.69 224.06 L 259.44 224.42 L 258.22 224.80 L 257.02 225.19 L 255.84 225.59 L 254.68 226.01 L 253.54 226.45 L 252.42 226.91 L 251.33 227.37 L 250.25 227.81 L 249.29 228.05 L 248.27 228.35 L 247.12 228.80 L 245.83 229.26 L 244.58 229.84 L 243.43 232.87 L 242.69 234.76 L 242.30 234.41 L 244.57 234.92 L 241.97 234.86 L 241.92 236.09 L 241.95 237.18 L 241.93 237.99 Z" />
</symbol>
<symbol id="bl3">
<path d="M 14.73 414.63 L 15.17 414.90 L 15.79 415.14 L 16.56 415.33 L 17.47 415.50 L 18.50 415.63 L 19.62 415.72 L 20.84 415.77 L 22.16 415.81 L 23.58 415.83 L 25.05 415.85 L 26.52 415.85 L 27.99 415.83 L 29.49 415.76 L 31.00 415.66 L 32.56 415.53 L 34.14 415.38 L 35.74 415.20 L 37.38 414.99 L 39.04 414.76 L 40.72 414.49 L 42.42 414.19 L 44.15 413.85 L 45.89 413.49 L 47.66 413.09 L 49.44 412.66 L 51.23 412.19 L 53.03 411.71 L 54.83 411.19 L 56.66 410.62 L 58.49 410.02 L 60.33 409.38 L 62.18 408.71 L 64.05 408.03 L 65.92 407.33 L 67.80 406.63 L 69.70 405.92 L 71.59 405.20 L 73.50 404.47 L 75.42 403.74 L 77.34 402.99 L 79.27 402.25 L 81.20 401.49 L 83.14 400.73 L 85.09 399.96 L 87.04 399.19 L 89.00 398.42 L 90.96 397.64 L 92.93 396.86 L 94.89 396.08 L 96.86 395.31 L 98.82 394.54 L 100.78 393.79 L 102.73 393.04 L 104.67 392.30 L 106.61 391.56 L 108.56 390.82 L 110.52 390.07 L 112.48 389.32 L 114.47 388.57 L 116.46 387.81 L 118.45 387.04 L 120.44 386.26 L 122.43 385.46 L 124.42 384.65 L 126.41 383.83 L 128.39 383.00 L 130.37 382.14 L 132.34 381.25 L 134.32 380.33 L 136.29 379.38 L 138.24 378.42 L 140.20 377.45 L 142.15 376.49 L 144.10 375.54 L 146.04 374.58 L 147.98 373.61 L 149.90 372.63 L 151.83 371.63 L 153.76 370.62 L 155.70 369.62 L 157.65 368.63 L 159.62 367.66 L 161.60 366.69 L 163.58 365.73 L 165.56 364.78 L 167.54 363.84 L 169.51 362.92 L 171.49 362.00 L 173.45 361.07 L 175.42 360.14 L 177.37 359.22 L 179.33 358.28 L 181.27 357.34 L 183.22 356.38 L 185.15 355.42 L 187.08 354.46 L 189.01 353.49 L 190.93 352.50 L 192.84 351.51 L 194.75 350.53 L 196.65 349.54 L 198.54 348.54 L 200.42 347.53 L 202.30 346.52 L 204.17 345.50 L 206.03 344.48 L 207.89 343.45 L 209.73 342.41 L 211.57 341.37 L 213.40 340.32 L 215.21 339.27 L 217.02 338.22 L 218.82 337.16 L 220.61 336.09 L 222.38 335.02 L 224.15 333.95 L 225.90 332.87 L 227.64 331.79 L 229.37 330.71 L 231.08 329.62 L 232.78 328.52 L 234.47 327.42 L 236.14 326.32 L 237.80 325.21 L 239.44 324.10 L 241.06 322.98 L 242.67 321.86 L 244.27 320.73 L 245.84 319.60 L 247.40 318.46 L 248.94 317.31 L 250.46 316.16 L 251.96 315.00 L 253.43 313.84 L 254.89 312.67 L 256.33 311.49 L 257.75 310.31 L 259.14 309.13 L 260.52 307.93 L 261.87 306.73 L 263.20 305.51 L 264.51 304.30 L 265.80 303.07 L 267.07 301.84 L 268.31 300.60 L 269.52 299.35 L 270.72 298.09 L 271.88 296.81 L 273.03 295.53 L 274.14 294.23 L 275.24 292.93 L 276.32 291.62 L 277.37 290.31 L 278.41 289.00 L 279.42 287.69 L 280.41 286.36 L 281.36 285.02 L 282.32 283.68 L 283.17 282.28 L 283.83 280.94 L 284.53 279.57 L 285.43 278.01 L 286.08 276.38 L 287.61 276.14 L 288.41 274.10 L 289.71 272.93 L 290.85 271.97 L 291.91 270.97 L 292.85 269.81 L 293.77 268.57 L 294.77 267.35 L 295.84 266.24 L 296.85 265.12 L 297.81 263.94 L 298.75 262.75 L 299.67 261.55 L 300.57 260.36 L 301.44 259.20 L 302.29 258.05 L 303.11 256.88 L 303.90 255.69 L 304.67 254.48 L 305.41 253.27 L 306.12 252.06 L 306.79 250.86 L 307.45 249.66 L 308.07 248.48 L 308.66 247.31 L 309.23 246.12 L 309.75 244.89 L 310.25 243.66 L 310.71 242.41 L 311.13 241.17 L 311.32 240.00 L 311.55 238.74 L 311.86 237.36 L 312.11 235.96 L 312.65 234.82 L 314.02 236.22 L 314.32 233.06 L 315.30 232.22 L 316.14 231.50 L 316.88 230.81 L 317.46 229.95 L 317.93 229.03 L 318.52 228.13 L 319.38 227.25 L 319.84 226.66 L 321.06 232.96 L 321.63 225.25 L 322.78 224.00 L 323.26 223.63 L 323.53 220.85 L 323.49 220.98 L 323.40 220.33 L 321.67 219.04 L 322.51 217.79 L 322.03 216.72 L 321.70 215.83 L 321.32 214.81 L 320.87 213.51 L 320.40 212.18 L 319.97 211.05 L 319.10 211.62 L 317.80 216.28 L 316.31 239.49 L 314.77 237.36 L 313.41 209.54 L 312.17 209.92 L 310.93 210.32 L 309.90 210.74 L 308.58 211.00 L 307.46 211.41 L 306.18 211.77 L 304.79 212.17 L 303.21 212.25 L 301.74 208.46 L 300.04 212.67 L 298.54 212.78 L 297.17 212.68 L 295.85 212.64 L 294.38 212.78 L 292.88 212.94 L 291.36 213.03 L 289.82 212.92 L 288.17 212.94 L 286.50 213.28 L 284.99 214.05 L 283.63 215.02 L 282.36 216.04 L 281.02 217.07 L 279.71 218.13 L 278.37 219.20 L 277.02 220.28 L 275.68 221.38 L 274.37 222.51 L 273.08 223.67 L 271.74 224.85 L 270.37 226.06 L 269.01 227.30 L 267.65 228.57 L 266.28 229.88 L 264.88 231.19 L 263.46 232.50 L 262.08 233.85 L 260.74 235.26 L 259.71 236.46 L 258.41 237.89 L 256.80 239.79 L 255.22 240.59 L 253.41 242.31 L 252.27 243.28 L 250.77 244.33 L 249.05 245.70 L 247.42 245.12 L 245.35 247.89 L 243.62 248.74 L 241.88 249.66 L 240.04 250.67 L 238.19 251.71 L 236.37 252.79 L 234.61 253.91 L 232.84 255.03 L 231.03 256.12 L 229.20 257.19 L 227.37 258.26 L 225.53 259.36 L 223.70 260.48 L 221.88 261.63 L 220.08 262.81 L 218.31 263.99 L 216.53 265.14 L 214.74 266.28 L 212.93 267.43 L 211.12 268.60 L 209.31 269.76 L 207.51 270.94 L 205.71 272.14 L 203.92 273.34 L 202.15 274.55 L 200.37 275.76 L 198.59 276.97 L 196.83 278.21 L 195.07 279.50 L 193.32 280.81 L 191.54 282.11 L 189.74 283.38 L 187.92 284.65 L 186.11 285.89 L 184.32 287.12 L 182.53 288.37 L 180.79 289.70 L 179.03 291.06 L 177.31 292.44 L 175.55 293.80 L 173.81 295.14 L 172.03 296.45 L 170.26 297.76 L 168.49 299.07 L 166.69 300.37 L 164.90 301.64 L 163.05 302.69 L 160.95 304.59 L 159.29 305.61 L 157.29 306.79 L 155.72 308.19 L 153.89 309.51 L 152.07 310.84 L 150.25 312.19 L 148.41 313.54 L 146.58 314.90 L 144.78 316.31 L 143.03 317.76 L 141.30 319.26 L 139.59 320.80 L 137.88 322.34 L 136.16 323.86 L 134.42 325.33 L 132.63 326.73 L 130.78 328.05 L 128.88 329.33 L 126.96 330.60 L 125.05 331.88 L 123.15 333.16 L 121.25 334.44 L 119.34 335.71 L 117.41 336.96 L 115.47 338.19 L 113.56 339.42 L 111.68 340.69 L 109.86 342.02 L 108.06 343.38 L 106.26 344.77 L 104.43 346.18 L 102.59 347.59 L 100.76 349.00 L 98.96 350.39 L 97.18 351.76 L 95.41 353.11 L 93.62 354.46 L 91.82 355.81 L 90.01 357.16 L 88.23 358.49 L 86.48 359.80 L 84.75 361.10 L 83.03 362.41 L 81.30 363.71 L 79.58 364.99 L 77.86 366.25 L 76.14 367.50 L 74.43 368.75 L 72.71 369.99 L 71.00 371.22 L 69.30 372.44 L 67.60 373.66 L 65.91 374.88 L 64.22 376.09 L 62.54 377.30 L 60.86 378.51 L 59.20 379.72 L 57.54 380.93 L 55.89 382.13 L 54.25 383.33 L 52.61 384.51 L 50.99 385.69 L 49.38 386.85 L 47.78 388.00 L 46.19 389.15 L 44.61 390.30 L 43.05 391.45 L 41.49 392.60 L 39.96 393.78 L 38.43 394.95 L 36.93 396.11 L 35.45 397.24 L 33.98 398.32 L 32.54 399.39 L 31.12 400.45 L 29.73 401.50 L 28.36 402.53 L 27.02 403.55 L 25.72 404.55 L 24.44 405.53 L 23.20 406.49 L 21.97 407.43 L 20.77 408.32 L 19.63 409.15 L 18.58 409.93 L 17.61 410.66 L 16.74 411.34 L 15.99 411.97 L 15.36 412.55 L 14.87 413.07 L 14.56 413.54 L 14.42 413.95 L 14.48 414.31 Z" />
</symbol>
<symbol id="bl4">
<path d="M 106.02 84.52 L 106.25 84.54 L 106.66 84.55 L 107.23 84.56 L 107.92 84.56 L 108.73 84.57 L 109.64 84.57 L 110.61 84.56 L 111.68 84.57 L 112.84 84.58 L 114.10 84.61 L 115.39 84.68 L 116.64 84.81 L 117.84 85.00 L 119.04 85.22 L 120.25 85.50 L 121.47 85.83 L 122.70 86.23 L 123.95 86.71 L 125.19 87.26 L 126.46 87.90 L 127.75 88.61 L 129.06 89.39 L 130.40 90.24 L 131.75 91.15 L 133.11 92.10 L 134.46 93.11 L 135.81 94.18 L 137.18 95.32 L 138.56 96.51 L 139.96 97.75 L 141.37 99.01 L 142.78 100.31 L 144.19 101.62 L 145.61 102.94 L 147.05 104.26 L 148.49 105.57 L 149.93 106.90 L 151.38 108.23 L 152.85 109.56 L 154.32 110.89 L 155.80 112.23 L 157.29 113.56 L 158.79 114.88 L 160.29 116.21 L 161.79 117.57 L 163.29 118.95 L 164.79 120.34 L 166.29 121.74 L 167.77 123.15 L 169.24 124.56 L 170.72 125.98 L 172.22 127.39 L 173.76 128.77 L 175.32 130.14 L 176.90 131.52 L 178.49 132.91 L 180.07 134.33 L 181.62 135.76 L 183.14 137.20 L 184.68 138.62 L 186.26 140.00 L 187.87 141.34 L 189.46 142.66 L 191.06 144.00 L 192.65 145.35 L 194.25 146.70 L 195.84 148.06 L 197.44 149.43 L 199.05 150.79 L 200.67 152.13 L 202.30 153.46 L 203.94 154.78 L 205.56 156.12 L 207.18 157.47 L 208.81 158.84 L 210.45 160.22 L 212.08 161.60 L 213.68 162.99 L 215.25 164.40 L 216.80 165.83 L 218.33 167.27 L 219.87 168.69 L 221.45 170.11 L 223.05 171.55 L 224.69 173.02 L 226.35 174.48 L 228.02 175.91 L 229.67 177.31 L 231.30 178.72 L 232.89 180.18 L 234.42 181.74 L 235.91 183.38 L 237.40 185.05 L 238.95 186.67 L 240.55 188.21 L 242.00 189.77 L 243.54 191.38 L 245.24 192.88 L 246.88 194.25 L 248.38 195.88 L 249.91 197.51 L 251.49 199.07 L 253.06 200.57 L 254.60 202.04 L 256.11 203.52 L 257.62 205.03 L 259.15 206.50 L 260.49 207.98 L 262.14 209.44 L 263.86 210.20 L 265.78 206.45 L 268.04 211.54 L 269.94 211.55 L 271.91 211.79 L 273.84 212.06 L 275.76 212.38 L 277.69 212.64 L 279.64 212.75 L 281.58 212.74 L 283.48 212.74 L 285.35 212.82 L 287.18 212.86 L 289.07 212.93 L 290.98 213.37 L 292.65 214.32 L 293.93 215.67 L 294.95 217.09 L 295.95 218.40 L 297.00 219.67 L 298.04 220.93 L 299.08 222.16 L 300.13 223.37 L 301.20 224.56 L 302.27 225.73 L 303.33 226.89 L 304.35 228.04 L 305.30 229.19 L 306.17 230.34 L 307.00 231.52 L 307.83 232.69 L 308.67 233.83 L 309.48 234.94 L 310.25 236.07 L 310.84 237.19 L 311.39 238.38 L 312.12 239.65 L 312.61 240.87 L 313.45 241.56 L 314.49 240.21 L 315.72 237.94 L 317.08 236.85 L 318.48 232.07 L 319.84 231.26 L 321.04 229.32 L 321.77 227.61 L 322.77 240.15 L 323.52 239.12 L 324.11 238.18 L 324.82 237.28 L 325.59 236.42 L 326.43 235.67 L 327.29 234.82 L 328.06 233.93 L 328.85 232.93 L 329.37 231.77 L 329.66 230.82 L 329.66 229.63 L 329.42 228.19 L 328.85 226.73 L 327.92 225.82 L 326.72 227.00 L 325.35 228.37 L 324.00 232.57 L 322.60 240.18 L 321.48 245.54 L 320.33 223.65 L 318.95 222.80 L 317.55 218.00 L 316.07 213.82 L 314.87 211.84 L 316.69 202.05 L 313.72 222.22 L 312.94 220.44 L 312.60 219.05 L 312.23 217.83 L 311.52 216.45 L 310.91 214.97 L 310.06 213.40 L 309.23 212.17 L 308.29 210.97 L 307.71 209.71 L 306.78 208.27 L 305.98 206.67 L 304.92 205.50 L 303.44 204.46 L 302.19 203.88 L 300.55 202.99 L 299.20 201.68 L 298.17 200.40 L 296.87 199.21 L 295.55 198.04 L 294.24 196.84 L 292.93 195.61 L 291.62 194.34 L 290.28 193.10 L 288.93 191.86 L 287.59 190.59 L 286.24 189.27 L 284.88 187.93 L 283.50 186.57 L 282.12 185.20 L 280.75 183.83 L 279.38 182.47 L 278.00 181.12 L 276.61 179.77 L 275.21 178.39 L 273.81 176.98 L 272.40 175.56 L 270.98 174.15 L 269.55 172.75 L 268.11 171.34 L 266.66 169.93 L 265.21 168.53 L 263.73 167.16 L 262.24 165.81 L 260.74 164.45 L 259.23 163.09 L 257.70 161.73 L 256.16 160.39 L 254.61 159.06 L 253.04 157.73 L 251.47 156.39 L 249.91 155.03 L 248.34 153.65 L 246.75 152.28 L 245.16 150.90 L 243.56 149.52 L 241.96 148.15 L 240.34 146.79 L 238.73 145.43 L 237.10 144.09 L 235.48 142.76 L 233.85 141.43 L 232.22 140.10 L 230.59 138.75 L 228.96 137.38 L 227.34 136.00 L 225.72 134.60 L 224.11 133.19 L 222.50 131.77 L 220.89 130.33 L 219.27 128.90 L 217.64 127.46 L 216.01 126.02 L 214.38 124.59 L 212.73 123.18 L 211.08 121.78 L 209.40 120.39 L 207.70 119.03 L 205.99 117.67 L 204.27 116.31 L 202.55 114.95 L 200.84 113.61 L 199.14 112.28 L 197.44 110.97 L 195.73 109.67 L 194.00 108.38 L 192.29 107.10 L 190.61 105.83 L 188.95 104.60 L 187.29 103.39 L 185.60 102.17 L 183.87 100.95 L 182.15 99.75 L 180.45 98.57 L 178.75 97.41 L 177.06 96.26 L 175.37 95.13 L 173.70 94.04 L 172.05 93.02 L 170.38 92.09 L 168.70 91.24 L 167.02 90.44 L 165.37 89.68 L 163.72 88.96 L 162.07 88.28 L 160.42 87.64 L 158.76 87.05 L 157.11 86.52 L 155.45 86.04 L 153.80 85.62 L 152.14 85.26 L 150.50 84.95 L 148.86 84.69 L 147.23 84.48 L 145.61 84.30 L 143.99 84.19 L 142.37 84.15 L 140.74 84.16 L 139.10 84.20 L 137.45 84.25 L 135.80 84.30 L 134.16 84.34 L 132.54 84.37 L 130.95 84.40 L 129.37 84.43 L 127.82 84.45 L 126.29 84.47 L 124.77 84.48 L 123.29 84.49 L 121.82 84.48 L 120.37 84.48 L 118.93 84.48 L 117.46 84.48 L 115.97 84.48 L 114.52 84.47 L 113.16 84.46 L 111.91 84.46 L 110.73 84.45 L 109.64 84.45 L 108.65 84.46 L 107.79 84.46 L 107.07 84.47 L 106.52 84.48 L 106.15 84.49 L 105.98 84.51 Z" />
</symbol>
<symbol id="bl5">
<path d="M 321.70 194.73 L 320.25 196.30 L 318.70 197.77 L 317.10 199.21 L 315.55 200.65 L 314.00 202.13 L 312.46 203.62 L 310.92 205.13 L 309.38 206.61 L 308.12 208.10 L 306.35 209.66 L 301.88 204.05 L 303.43 212.58 L 301.52 214.26 L 300.37 215.85 L 300.07 218.14 L 300.74 220.52 L 302.00 222.50 L 303.94 223.33 L 306.16 222.50 L 308.43 221.24 L 310.40 218.58 L 311.99 220.96 L 313.29 219.49 L 315.04 218.28 L 317.06 217.13 L 318.27 215.05 L 320.67 214.96 L 322.25 213.38 L 323.45 211.96 L 324.88 210.54 L 326.29 209.09 L 327.71 207.65 L 329.15 206.28 L 330.61 204.96 L 332.07 203.63 L 333.52 202.28 L 334.98 200.92 L 336.44 199.57 L 337.88 198.23 L 339.30 196.87 L 340.71 195.51 L 342.12 194.13 L 343.52 192.75 L 344.93 191.40 L 346.35 190.08 L 347.78 188.78 L 349.21 187.45 L 350.63 186.09 L 352.03 184.72 L 353.44 183.35 L 354.85 181.97 L 356.30 180.70 L 357.72 179.34 L 358.98 177.91 L 360.38 176.56 L 361.77 175.20 L 363.15 173.84 L 364.51 172.46 L 365.87 171.08 L 367.20 169.68 L 368.51 168.26 L 369.80 166.81 L 371.08 165.36 L 372.35 163.91 L 373.61 162.45 L 374.88 160.97 L 376.15 159.49 L 377.43 158.01 L 378.74 156.54 L 380.05 155.06 L 381.35 153.57 L 382.63 152.09 L 383.92 150.61 L 385.22 149.14 L 386.52 147.67 L 387.82 146.20 L 389.12 144.75 L 390.43 143.30 L 391.75 141.86 L 393.07 140.41 L 394.39 138.97 L 395.70 137.53 L 397.03 136.09 L 398.36 134.66 L 399.71 133.24 L 401.07 131.84 L 402.42 130.44 L 403.77 129.02 L 405.13 127.59 L 406.47 126.14 L 407.81 124.67 L 409.13 123.20 L 410.43 121.73 L 411.71 120.27 L 412.97 118.78 L 414.21 117.27 L 415.45 115.77 L 416.70 114.29 L 417.97 112.83 L 419.27 111.37 L 420.55 109.89 L 421.84 108.41 L 423.13 106.95 L 424.42 105.51 L 425.70 104.09 L 426.96 102.68 L 428.20 101.31 L 429.42 99.97 L 430.62 98.64 L 431.78 97.34 L 432.94 96.08 L 434.09 94.88 L 435.24 93.76 L 436.40 92.70 L 437.56 91.69 L 438.73 90.74 L 439.93 89.85 L 441.17 89.03 L 442.47 88.28 L 443.79 87.61 L 445.08 87.01 L 446.29 86.50 L 447.40 86.06 L 448.48 85.69 L 449.56 85.39 L 450.66 85.14 L 451.79 84.94 L 453.00 84.78 L 454.30 84.69 L 455.57 84.64 L 456.72 84.62 L 457.73 84.61 L 458.63 84.59 L 459.45 84.57 L 460.17 84.55 L 460.80 84.53 L 461.32 84.51 L 461.71 84.50 L 461.95 84.49 L 462.02 84.48 L 461.91 84.47 L 461.63 84.46 L 461.18 84.46 L 460.58 84.46 L 459.84 84.46 L 458.99 84.46 L 458.06 84.46 L 457.01 84.47 L 455.83 84.50 L 454.52 84.53 L 453.18 84.56 L 451.89 84.59 L 450.65 84.62 L 449.43 84.64 L 448.20 84.65 L 446.96 84.66 L 445.71 84.66 L 444.44 84.66 L 443.14 84.65 L 441.79 84.65 L 440.42 84.66 L 439.03 84.70 L 437.63 84.80 L 436.24 84.95 L 434.84 85.15 L 433.45 85.40 L 432.06 85.71 L 430.64 86.08 L 429.23 86.53 L 427.82 87.06 L 426.41 87.67 L 424.99 88.36 L 423.55 89.13 L 422.11 89.98 L 420.67 90.90 L 419.22 91.90 L 417.76 92.95 L 416.28 94.06 L 414.82 95.25 L 413.36 96.50 L 411.89 97.80 L 410.43 99.12 L 408.97 100.47 L 407.50 101.84 L 406.00 103.24 L 404.49 104.70 L 403.01 106.22 L 401.56 107.76 L 400.08 109.27 L 398.58 110.73 L 397.09 112.20 L 395.63 113.73 L 394.19 115.35 L 392.77 117.01 L 391.40 118.69 L 390.05 120.35 L 388.73 122.00 L 387.38 123.63 L 386.01 125.27 L 384.63 126.90 L 383.23 128.51 L 381.84 130.12 L 380.45 131.71 L 379.08 133.31 L 377.70 134.89 L 376.30 136.47 L 374.91 138.04 L 373.50 139.60 L 372.08 141.16 L 370.66 142.70 L 369.26 144.24 L 367.84 145.77 L 366.39 147.30 L 364.92 148.83 L 363.41 150.39 L 361.85 151.97 L 360.25 153.57 L 358.65 155.17 L 357.09 156.72 L 355.61 158.22 L 354.15 159.69 L 352.70 161.19 L 351.21 162.71 L 349.78 164.22 L 348.35 165.70 L 346.95 167.21 L 345.51 168.69 L 344.11 170.19 L 342.69 171.65 L 341.30 173.13 L 339.87 174.57 L 338.42 176.00 L 336.96 177.43 L 335.49 178.88 L 334.06 180.23 L 332.45 181.57 L 330.76 183.29 L 329.90 184.98 L 327.91 186.41 L 326.77 188.03 L 325.48 189.65 L 324.23 191.33 L 323.00 193.06 Z" />
</symbol>
<symbol id="bl6">
<path d="M 319.02 178.55 L 318.01 179.31 L 317.01 180.07 L 315.98 180.86 L 314.97 181.67 L 313.99 182.51 L 313.04 183.38 L 312.05 184.32 L 311.01 185.31 L 310.01 186.31 L 309.06 187.27 L 308.15 188.22 L 307.28 189.18 L 306.43 190.16 L 305.61 191.14 L 304.80 192.15 L 304.01 193.17 L 303.18 194.00 L 302.31 194.98 L 301.50 196.06 L 300.79 197.16 L 300.25 198.33 L 301.54 199.61 L 299.72 201.31 L 299.39 202.52 L 299.02 203.68 L 298.50 205.09 L 298.20 206.67 L 297.78 208.17 L 300.54 209.94 L 298.33 211.65 L 298.80 213.17 L 299.42 214.53 L 299.78 215.97 L 299.96 217.59 L 300.19 219.29 L 300.90 220.87 L 301.97 222.26 L 303.46 223.30 L 305.19 223.82 L 306.95 223.95 L 308.55 223.50 L 309.90 222.69 L 310.95 221.60 L 311.69 220.27 L 312.08 218.77 L 312.02 217.40 L 311.77 215.96 L 311.92 214.44 L 312.06 212.68 L 312.61 211.17 L 313.43 211.88 L 314.56 211.66 L 315.88 208.28 L 317.10 207.29 L 318.18 206.63 L 319.27 205.74 L 320.36 204.79 L 321.40 203.75 L 322.42 202.66 L 323.43 201.59 L 324.45 200.55 L 325.50 199.59 L 326.55 198.71 L 327.62 197.87 L 328.67 197.02 L 329.72 196.14 L 330.75 195.20 L 331.76 194.19 L 332.73 193.27 L 333.76 192.31 L 334.89 191.21 L 335.98 190.03 L 336.51 188.77 L 337.82 188.49 L 338.77 187.50 L 339.62 186.58 L 340.21 185.74 L 341.03 184.91 L 341.83 184.07 L 342.63 183.21 L 343.42 182.25 L 344.19 181.18 L 344.92 180.05 L 345.58 178.96 L 346.18 177.92 L 346.51 177.03 L 346.80 176.19 L 347.45 175.21 L 349.86 173.66 L 347.42 173.25 L 347.12 172.54 L 347.24 171.89 L 347.21 171.42 L 346.96 170.93 L 346.43 170.37 L 345.78 169.87 L 345.07 169.43 L 344.33 169.06 L 343.57 168.77 L 342.72 168.59 L 341.81 168.50 L 340.86 168.52 L 339.90 168.61 L 338.87 168.79 L 337.80 169.04 L 336.69 169.34 L 335.54 169.71 L 334.34 170.12 L 333.18 170.59 L 332.12 171.08 L 331.12 171.61 L 330.07 172.17 L 328.91 172.75 L 327.65 173.34 L 326.41 173.90 L 325.29 174.48 L 324.21 175.10 L 323.16 175.74 L 322.07 176.39 L 321.03 177.06 L 320.01 177.79 Z" />
</symbol>
<symbol id="bl7">
<path d="M 12.95 355.90 L 13.67 355.57 L 14.46 355.04 L 15.33 354.32 L 16.28 353.42 L 17.28 352.36 L 18.38 351.17 L 19.60 349.85 L 20.93 348.41 L 22.29 346.87 L 23.64 345.24 L 24.99 343.54 L 26.38 341.77 L 27.83 339.93 L 29.34 338.02 L 30.90 336.04 L 32.52 334.00 L 34.20 331.89 L 35.93 329.71 L 37.72 327.47 L 39.61 325.20 L 41.56 322.84 L 42.30 319.77 L 41.56 316.71 L 39.71 314.47 L 37.57 313.35 L 35.85 312.73 L 34.55 311.99 L 33.54 311.12 L 32.75 310.13 L 32.14 309.03 L 31.68 307.83 L 31.35 306.56 L 31.13 305.22 L 31.00 303.81 L 30.95 302.35 L 30.96 300.83 L 31.04 299.27 L 31.18 297.66 L 31.36 296.02 L 31.58 294.34 L 31.84 292.64 L 32.13 290.90 L 32.46 289.14 L 32.81 287.36 L 33.19 285.55 L 33.59 283.72 L 34.01 281.88 L 34.46 280.02 L 34.92 278.14 L 35.39 276.25 L 35.89 274.35 L 36.40 272.44 L 36.93 270.52 L 37.48 268.60 L 38.05 266.68 L 38.64 264.77 L 39.25 262.86 L 39.88 260.95 L 40.53 259.05 L 41.18 257.14 L 41.85 255.22 L 42.53 253.29 L 43.22 251.36 L 43.92 249.43 L 44.63 247.50 L 45.36 245.57 L 46.09 243.64 L 46.84 241.70 L 47.60 239.75 L 48.37 237.81 L 49.16 235.85 L 49.96 233.89 L 50.77 231.93 L 51.60 229.97 L 52.43 228.00 L 53.28 226.03 L 54.13 224.06 L 55.00 222.08 L 55.88 220.10 L 56.76 218.12 L 57.66 216.15 L 58.56 214.16 L 59.47 212.18 L 60.39 210.19 L 61.33 208.20 L 62.29 206.20 L 63.26 204.20 L 64.24 202.20 L 65.23 200.20 L 66.22 198.21 L 67.23 196.23 L 68.23 194.24 L 69.24 192.27 L 70.26 190.30 L 71.28 188.34 L 72.31 186.38 L 73.34 184.43 L 74.38 182.49 L 75.43 180.56 L 76.48 178.64 L 77.54 176.72 L 78.61 174.81 L 79.68 172.92 L 80.77 171.03 L 81.86 169.16 L 82.96 167.29 L 84.07 165.44 L 85.19 163.60 L 86.31 161.77 L 87.45 159.96 L 88.59 158.16 L 89.75 156.38 L 90.91 154.61 L 92.08 152.85 L 93.26 151.12 L 94.44 149.40 L 95.64 147.70 L 96.85 146.03 L 98.07 144.37 L 99.29 142.74 L 100.52 141.13 L 101.76 139.55 L 103.00 137.99 L 104.25 136.45 L 105.50 134.95 L 106.76 133.48 L 108.03 132.04 L 109.31 130.64 L 110.60 129.27 L 111.90 127.94 L 113.20 126.64 L 114.49 125.38 L 115.77 124.16 L 117.06 122.98 L 118.37 121.86 L 119.70 120.79 L 121.00 119.83 L 122.28 119.10 L 123.76 118.10 L 125.26 116.93 L 126.52 115.59 L 127.22 114.35 L 127.05 113.27 L 127.09 111.97 L 126.41 110.54 L 124.93 112.26 L 124.36 109.33 L 123.19 108.88 L 122.09 108.44 L 121.04 108.12 L 120.07 107.99 L 119.16 108.04 L 118.19 108.03 L 117.20 108.06 L 116.19 108.19 L 115.16 108.40 L 114.11 108.70 L 113.07 109.09 L 112.02 109.56 L 110.98 110.11 L 109.94 110.74 L 108.92 111.44 L 107.90 112.22 L 106.89 113.07 L 105.89 113.98 L 104.90 114.96 L 103.92 116.00 L 102.95 117.10 L 101.98 118.25 L 101.02 119.46 L 100.08 120.71 L 99.13 122.01 L 98.17 123.36 L 97.20 124.74 L 96.22 126.17 L 95.24 127.63 L 94.26 129.12 L 93.28 130.65 L 92.30 132.21 L 91.33 133.79 L 90.35 135.41 L 89.38 137.05 L 88.42 138.71 L 87.45 140.39 L 86.50 142.10 L 85.54 143.83 L 84.59 145.57 L 83.65 147.33 L 82.72 149.11 L 81.78 150.91 L 80.84 152.72 L 79.90 154.55 L 78.96 156.39 L 78.03 158.24 L 77.10 160.10 L 76.16 161.98 L 75.22 163.87 L 74.30 165.77 L 73.41 167.67 L 72.54 169.59 L 71.64 171.52 L 70.74 173.45 L 69.85 175.40 L 68.98 177.35 L 68.13 179.31 L 67.29 181.27 L 66.45 183.25 L 65.60 185.23 L 64.73 187.21 L 63.85 189.21 L 62.99 191.20 L 62.14 193.21 L 61.32 195.22 L 60.51 197.23 L 59.70 199.24 L 58.88 201.26 L 58.05 203.28 L 57.19 205.29 L 56.32 207.29 L 55.44 209.28 L 54.54 211.27 L 53.63 213.24 L 52.73 215.22 L 51.83 217.19 L 50.95 219.17 L 50.08 221.16 L 49.21 223.15 L 48.34 225.14 L 47.47 227.12 L 46.60 229.11 L 45.73 231.09 L 44.86 233.07 L 43.98 235.05 L 43.09 237.03 L 42.20 239.00 L 41.32 240.98 L 40.47 242.96 L 39.65 244.97 L 38.88 247.01 L 38.17 249.09 L 37.52 251.17 L 36.89 253.24 L 36.26 255.28 L 35.60 257.30 L 34.94 259.32 L 34.28 261.38 L 33.64 263.46 L 33.01 265.54 L 32.35 267.61 L 31.69 269.66 L 31.02 271.71 L 30.36 273.75 L 29.69 275.77 L 29.01 277.79 L 28.35 279.82 L 27.68 281.84 L 27.02 283.85 L 26.37 285.85 L 25.72 287.85 L 25.07 289.84 L 24.43 291.84 L 23.80 293.83 L 23.17 295.82 L 22.55 297.80 L 21.94 299.77 L 21.33 301.73 L 20.74 303.67 L 20.15 305.60 L 19.56 307.53 L 18.99 309.45 L 18.42 311.36 L 17.86 313.25 L 17.32 315.14 L 16.78 317.01 L 16.25 318.87 L 15.74 320.72 L 15.24 322.55 L 14.76 324.37 L 14.29 326.17 L 13.83 327.95 L 13.40 329.71 L 12.98 331.45 L 12.58 333.17 L 12.20 334.86 L 11.83 336.52 L 11.50 338.15 L 11.18 339.76 L 10.90 341.33 L 10.64 342.89 L 10.42 344.43 L 10.24 345.97 L 10.11 347.45 L 10.02 348.83 L 10.00 350.13 L 10.04 351.35 L 10.15 352.46 L 10.33 353.46 L 10.57 354.32 L 10.89 355.03 L 11.29 355.56 L 11.76 355.88 L 12.32 356.00 Z" />
</symbol>
</defs>
<!-- isDone: 0 -->
<rect width="700" height="500" style="fill:#fff;stroke-width:0" />
<use class="p0 borderLine" xlink:href="#bl0"/>
<use class="p1 borderLine" xlink:href="#bl1"/>
<use class="p2 borderLine" xlink:href="#bl2"/>
<use class="p3 borderLine" xlink:href="#bl3"/>
<use class="p4 borderLine" xlink:href="#bl4"/>
<use class="p5 borderLine" xlink:href="#bl5"/>
<use class="p6 borderLine" xlink:href="#bl6"/>
<use class="p7 borderLine" xlink:href="#bl7"/>
<use class="q0 outLine" xlink:href="#bl0"/>
<use class="q1 outLine" xlink:href="#bl1"/>
<use class="q2 outLine" xlink:href="#bl2"/>
<use class="q3 outLine" xlink:href="#bl3"/>
<use class="q4 outLine" xlink:href="#bl4"/>
<use class="q5 outLine" xlink:href="#bl5"/>
<use class="q6 outLine" xlink:href="#bl6"/>
<use class="q7 outLine" xlink:href="#bl7"/>
<circle onclick="fromCircle(1)" class="circle" cx="460.4450" cy="383.4557" r="12.4255" />
<text class="tLabel" x="460.44" y="363.46"></text>
<text class="nLabel" x="460.44" y="378.46">40</text>
<text class="belong" x="460.44" y="388.46">(1)</text>
<circle onclick="fromCircle(3)" class="circle" cx="289.6541" cy="278.3256" r="3.3171" />
<text class="tLabel" x="289.65" y="258.33"></text>
<text class="nLabel" x="289.65" y="273.33">1</text>
<text class="belong" x="289.65" y="283.33">(1, 2)</text>
<circle onclick="fromCircle(7)" class="circle" cx="254.3440" cy="236.5127" r="3.3171" />
<text class="tLabel" x="254.34" y="216.51"></text>
<text class="nLabel" x="254.34" y="231.51">1</text>
<text class="belong" x="254.34" y="241.51">(1, 2, 3)</text>
<circle onclick="fromCircle(15)" class="circle" cx="260.1263" cy="242.6375" r="3.3171" />
<text class="tLabel" x="260.13" y="222.64"></text>
<text class="nLabel" x="260.13" y="237.64">2</text>
<text class="belong" x="260.13" y="247.64">(1, 2, 3, 4)</text>
<circle onclick="fromCircle(127)" class="circle" cx="305.8766" cy="218.3070" r="4.8124" />
<text class="tLabel" x="305.88" y="198.31"></text>
<text class="nLabel" x="305.88" y="213.31">6</text>
<text class="belong" x="305.88" y="223.31">(1, 2, 3, 4, 5, 6, 7)</text>
<circle onclick="fromCircle(2)" class="circle" cx="178.4856" cy="149.0837" r="3.3171" />
<text class="tLabel" x="178.49" y="129.08"></text>
<text class="nLabel" x="178.49" y="144.08">1</text>
<text class="belong" x="178.49" y="154.08">(2)</text>
<circle onclick="fromCircle(6)" class="circle" cx="246.7128" cy="233.5546" r="3.4029" />
<text class="tLabel" x="246.71" y="213.55"></text>
<text class="nLabel" x="246.71" y="228.55">3</text>
<text class="belong" x="246.71" y="238.55">(2, 3)</text>
<circle onclick="fromCircle(14)" class="circle" cx="288.7154" cy="219.4123" r="5.1980" />
<text class="tLabel" x="288.72" y="199.41"></text>
<text class="nLabel" x="288.72" y="214.41">7</text>
<text class="belong" x="288.72" y="224.41">(2, 3, 4)</text>
<circle onclick="fromCircle(10)" class="circle" cx="276.9225" cy="279.6184" r="5.5569" />
<text class="tLabel" x="276.92" y="259.62"></text>
<text class="nLabel" x="276.92" y="274.62">8</text>
<text class="belong" x="276.92" y="284.62">(2, 4)</text>
<circle onclick="fromCircle(18)" class="circle" cx="247.8402" cy="187.1696" r="4.3931" />
<text class="tLabel" x="247.84" y="167.17"></text>
<text class="nLabel" x="247.84" y="182.17">5</text>
<text class="belong" x="247.84" y="192.17">(2, 5)</text>
<circle onclick="fromCircle(130)" class="circle" cx="123.2572" cy="113.6111" r="3.3171" />
<text class="tLabel" x="123.26" y="93.61"></text>
<text class="nLabel" x="123.26" y="108.61">1</text>
<text class="belong" x="123.26" y="118.61">(2, 8)</text>
<circle onclick="fromCircle(4)" class="circle" cx="245.6699" cy="242.4908" r="3.4029" />
<text class="tLabel" x="245.67" y="222.49"></text>
<text class="nLabel" x="245.67" y="237.49">3</text>
<text class="belong" x="245.67" y="247.49">(3)</text>
<circle onclick="fromCircle(5)" class="circle" cx="299.7775" cy="272.1349" r="3.4029" />
<text class="tLabel" x="299.78" y="252.13"></text>
<text class="nLabel" x="299.78" y="267.13">3</text>
<text class="belong" x="299.78" y="277.13">(1, 3)</text>
<circle onclick="fromCircle(13)" class="circle" cx="253.8759" cy="249.6611" r="4.3931" />
<text class="tLabel" x="253.88" y="229.66"></text>
<text class="nLabel" x="253.88" y="244.66">5</text>
<text class="belong" x="253.88" y="254.66">(1, 3, 4)</text>
<circle onclick="fromCircle(12)" class="circle" cx="318.4033" cy="221.1390" r="3.9293" />
<text class="tLabel" x="318.40" y="201.14"></text>
<text class="nLabel" x="318.40" y="216.14">4</text>
<text class="belong" x="318.40" y="226.14">(3, 4)</text>
<circle onclick="fromCircle(20)" class="circle" cx="324.1776" cy="230.4053" r="4.3931" />
<text class="tLabel" x="324.18" y="210.41"></text>
<text class="nLabel" x="324.18" y="225.41">5</text>
<text class="belong" x="324.18" y="235.41">(3, 5)</text>
<circle onclick="fromCircle(21)" class="circle" cx="317.7262" cy="237.6160" r="4.3931" />
<text class="tLabel" x="317.73" y="217.62"></text>
<text class="nLabel" x="317.73" y="232.62">5</text>
<text class="belong" x="317.73" y="242.62">(1, 3, 5)</text>
<circle onclick="fromCircle(8)" class="circle" cx="163.2712" cy="308.3788" r="3.3171" />
<text class="tLabel" x="163.27" y="288.38"></text>
<text class="nLabel" x="163.27" y="303.38">1</text>
<text class="belong" x="163.27" y="313.38">(4)</text>
<circle onclick="fromCircle(9)" class="circle" cx="258.3238" cy="261.9830" r="5.1980" />
<text class="tLabel" x="258.32" y="241.98"></text>
<text class="nLabel" x="258.32" y="256.98">7</text>
<text class="belong" x="258.32" y="266.98">(1, 4)</text>
<circle onclick="fromCircle(11)" class="circle" cx="269.6319" cy="266.8633" r="3.4029" />
<text class="tLabel" x="269.63" y="246.86"></text>
<text class="nLabel" x="269.63" y="261.86">3</text>
<text class="belong" x="269.63" y="271.86">(1, 2, 4)</text>
<circle onclick="fromCircle(40)" class="circle" cx="316.7587" cy="212.9520" r="3.3171" />
<text class="tLabel" x="316.76" y="192.95"></text>
<text class="nLabel" x="316.76" y="207.95">1</text>
<text class="belong" x="316.76" y="217.95">(4, 6)</text>
<circle onclick="fromCircle(16)" class="circle" cx="211.9027" cy="136.4499" r="3.3171" />
<text class="tLabel" x="211.90" y="116.45"></text>
<text class="nLabel" x="211.90" y="131.45">1</text>
<text class="belong" x="211.90" y="141.45">(5)</text>
<circle onclick="fromCircle(17)" class="circle" cx="275.2118" cy="200.7299" r="4.3931" />
<text class="tLabel" x="275.21" y="180.73"></text>
<text class="nLabel" x="275.21" y="195.73">5</text>
<text class="belong" x="275.21" y="205.73">(1, 5)</text>
<circle onclick="fromCircle(19)" class="circle" cx="266.4956" cy="205.9338" r="4.3931" />
<text class="tLabel" x="266.50" y="185.93"></text>
<text class="nLabel" x="266.50" y="200.93">5</text>
<text class="belong" x="266.50" y="210.93">(1, 2, 5)</text>
<circle onclick="fromCircle(80)" class="circle" cx="301.6544" cy="207.0539" r="3.3171" />
<text class="tLabel" x="301.65" y="187.05"></text>
<text class="nLabel" x="301.65" y="202.05">1</text>
<text class="belong" x="301.65" y="212.05">(5, 7)</text>
<circle onclick="fromCircle(32)" class="circle" cx="352.9158" cy="175.2426" r="3.3171" />
<text class="tLabel" x="352.92" y="155.24"></text>
<text class="nLabel" x="352.92" y="170.24">2</text>
<text class="belong" x="352.92" y="180.24">(6)</text>
<circle onclick="fromCircle(96)" class="circle" cx="333.2952" cy="186.6741" r="3.3171" />
<text class="tLabel" x="333.30" y="166.67"></text>
<text class="nLabel" x="333.30" y="181.67">1</text>
<text class="belong" x="333.30" y="191.67">(6, 7)</text>
<circle onclick="fromCircle(64)" class="circle" cx="305.6251" cy="199.8841" r="3.9293" />
<text class="tLabel" x="305.63" y="179.88"></text>
<text class="nLabel" x="305.63" y="194.88">4</text>
<text class="belong" x="305.63" y="204.88">(7)</text>
<circle onclick="fromCircle(128)" class="circle" cx="35.5894" cy="319.7799" r="5.5569" />
<text class="tLabel" x="35.59" y="299.78"></text>
<text class="nLabel" x="35.59" y="314.78">8</text>
<text class="belong" x="35.59" y="324.78">(8)</text>
<rect class="p0 borderLine" x="500.00" y="50.00" width="30.00" height="15.00" />
<rect class="q0" x="500.00" y="50.00" width="30.00" height="15.00" />
<text class="legend" x="540.00" y="65.00">Ball2017</text>
<rect class="p1 borderLine" x="500.00" y="90.00" width="30.00" height="15.00" />
<rect class="q1" x="500.00" y="90.00" width="30.00" height="15.00" />
<text class="legend" x="540.00" y="105.00">Courtois2015</text>
<rect class="p2 borderLine" x="500.00" y="130.00" width="30.00" height="15.00" />
<rect class="q2" x="500.00" y="130.00" width="30.00" height="15.00" />
<text class="legend" x="540.00" y="145.00">Hilton2017</text>
<rect class="p3 borderLine" x="500.00" y="170.00" width="30.00" height="15.00" />
<rect class="q3" x="500.00" y="170.00" width="30.00" height="15.00" />
<text class="legend" x="540.00" y="185.00">Ball2017</text>
<rect class="p4 borderLine" x="500.00" y="210.00" width="30.00" height="15.00" />
<rect class="q4" x="500.00" y="210.00" width="30.00" height="15.00" />
<text class="legend" x="540.00" y="225.00">Courtois2015</text>
<rect class="p5 borderLine" x="500.00" y="250.00" width="30.00" height="15.00" />
<rect class="q5" x="500.00" y="250.00" width="30.00" height="15.00" />
<text class="legend" x="540.00" y="265.00">Hilton2017</text>
<rect class="p6 borderLine" x="500.00" y="290.00" width="30.00" height="15.00" />
<rect class="q6" x="500.00" y="290.00" width="30.00" height="15.00" />
<text class="legend" x="540.00" y="305.00">Ball2017</text>
<rect class="p7 borderLine" x="500.00" y="330.00" width="30.00" height="15.00" />
<rect class="q7" x="500.00" y="330.00" width="30.00" height="15.00" />
<text class="legend" x="540.00" y="345.00">Courtois2015</text>
</svg>
