<svg xmlns="http://www.w3.org/2000/svg" xmlns:xlink="http://www.w3.org/1999/xlink" width="700" height="500">
<defs>
<style type="text/css"><![CDATA[
  .borderLine {
	   stroke: none;
	   fill-opacity: 0.4;
  }
  .outLine {
	   stroke-width: 1;
	   fill: none;
  }
  .circle {
	   stroke: #888888;
	   stroke-width: 0.5;
	   fill: none;
    pointer-events: all;
  }
  .spcircle {
	   stroke: #FF2222;
	   stroke-width: 1;
	   fill: none;
    pointer-events: all;
  }
  .tLabel {
	   font-family: Arial;
    pointer-events: none;
	   font-size: 14px;
	   text-anchor: middle;
	   alignment-baseline: central;
  }
  .nLabel {
	   font-family: Arial;
    pointer-events: none;
	   font-size: 10px;
	   text-anchor: middle;
	   alignment-baseline: central;
  }
  .belong {
	   font-family: Arial;
    pointer-events: none;
	   font-size: 5px;
	   text-anchor: middle;
	   alignment-baseline: central;
  }
  .p0{
    stroke: none;
    fill: #e6194b;
  }
  .q0{
    fill: none;
    stroke: #e6194b;
  }
  .p1{
    stroke: none;
    fill: #3cb44b;
  }
  .q1{
    fill: none;
    stroke: #3cb44b;
  }
  .p2{
    stroke: none;
    fill: #ffe119;
  }
  .q2{
    fill: none;
    stroke: #ffe119;
  }
  .p3{
    stroke: none;
    fill: #0082c8;
  }
  .q3{
    fill: none;
    stroke: #0082c8;
  }
]]>
</style>
<symbol id="bl0">
<path d="M 250.40 10.00 L 250.39 10.00 L 250.38 10.00 L 250.37 10.00 L 250.37 10.00 L 250.36 10.00 L 250.35 10.00 L 250.35 10.00 L 250.34 10.00 L 250.33 10.00 L 250.33 10.00 L 250.32 10.00 L 250.32 10.00 L 250.31 10.00 L 250.31 10.00 L 250.31 10.00 L 250.31 10.00 L 250.30 10.00 L 250.30 10.00 L 250.30 10.00 L 250.29 10.00 L 250.29 10.00 L 250.29 10.00 L 250.28 10.00 L 250.28 10.00 L 250.28 10.00 L 250.28 10.00 L 250.27 10.00 L 250.27 10.00 L 250.27 10.00 L 250.27 10.00 L 250.26 10.00 L 250.26 10.00 L 250.26 10.00 L 250.25 10.00 L 250.25 10.00 L 250.25 10.00 L 250.25 10.00 L 250.24 10.00 L 250.24 10.00 L 250.24 10.00 L 250.24 10.00 L 250.24 10.00 L 250.23 10.00 L 250.23 10.00 L 250.23 10.00 L 250.23 10.00 L 250.23 10.00 L 250.22 10.00 L 250.22 10.00 L 250.22 10.00 L 250.22 10.00 L 250.22 10.00 L 250.22 10.00 L 250.22 10.00 L 250.22 10.00 L 250.22 10.00 L 250.22 10.00 L 250.22 10.00 L 250.22 10.00 L 250.22 10.00 L 250.22 10.00 L 250.22 10.00 L 250.22 10.00 L 250.22 10.00 L 250.22 10.00 L 250.22 10.00 L 250.22 10.00 L 250.22 10.00 L 250.22 10.00 L 250.23 10.00 L 250.23 10.00 L 250.23 10.00 L 250.23 10.00 L 250.23 10.00 L 250.23 10.00 L 250.23 10.00 L 250.23 10.00 L 250.23 10.00 L 250.23 10.00 L 250.24 10.00 L 250.24 10.00 L 250.24 10.00 L 250.25 10.00 L 250.26 10.00 L 250.26 10.00 L 250.27 10.00 L 250.28 10.00 L 250.28 10.00 L 250.29 10.00 L 250.29 10.00 L 250.30 10.00 L 250.31 10.00 L 250.31 10.00 L 250.32 10.00 L 250.33 10.00 L 250.33 10.00 L 250.34 10.00 L 250.35 10.00 L 250.35 10.00 L 250.36 10.00 L 250.36 10.00 L 250.37 10.00 L 250.38 10.00 L 250.38 10.00 L 250.39 10.00 L 250.40 10.00 L 250.40 10.00 L 250.41 10.00 L 250.42 10.00 L 250.42 10.00 L 250.43 10.00 L 250.43 10.00 L 250.44 10.00 L 250.45 10.00 L 250.45 10.00 L 250.46 10.00 L 250.46 10.00 L 250.47 10.00 L 250.48 10.00 L 250.48 10.00 L 250.49 10.00 L 250.49 10.00 L 250.50 10.00 L 250.50 10.00 L 250.51 10.00 L 250.51 10.00 L 250.52 10.00 L 250.52 10.00 L 250.53 10.00 L 250.53 10.00 L 250.54 10.00 L 250.54 10.00 L 250.54 10.00 L 250.55 10.00 L 250.55 10.00 L 250.55 10.00 L 250.56 10.00 L 250.56 10.00 L 250.56 10.00 L 250.57 10.00 L 250.57 10.00 L 250.57 10.00 L 250.57 10.00 L 250.57 10.00 L 250.57 10.00 L 250.58 10.00 L 250.58 10.00 L 250.58 10.00 L 250.58 10.00 L 250.58 10.00 L 250.58 10.00 L 250.58 10.00 L 250.58 10.00 L 250.58 10.00 L 250.58 10.00 L 250.57 10.00 L 250.57 10.00 L 250.57 10.00 L 250.57 10.00 L 250.57 10.00 L 250.56 10.00 L 250.56 10.00 L 250.56 10.00 L 250.56 10.00 L 250.55 10.00 L 250.55 10.00 L 250.55 10.00 L 250.54 10.00 L 250.54 10.00 L 250.53 10.00 L 250.53 10.00 L 250.53 10.00 L 250.52 10.00 L 250.52 10.00 L 250.51 10.00 L 250.51 10.00 L 250.50 10.00 L 250.49 10.00 L 250.49 10.00 L 250.48 10.00 L 250.48 10.00 L 250.47 10.00 L 250.46 10.00 L 250.46 10.00 L 250.45 10.00 L 250.44 10.00 L 250.43 10.00 L 250.42 10.00 L 250.41 10.00 Z" />
</symbol>
<symbol id="bl1">
<path d="M 250.11 10.00 L 250.11 10.00 L 250.10 10.00 L 250.10 10.00 L 250.09 10.00 L 250.09 10.00 L 250.09 10.00 L 250.08 10.00 L 250.08 10.00 L 250.08 10.00 L 250.08 10.00 L 250.07 10.00 L 250.07 10.00 L 250.07 10.00 L 250.07 10.00 L 250.07 10.00 L 250.07 10.00 L 250.08 10.00 L 250.08 10.00 L 250.09 10.00 L 250.09 10.00 L 250.10 10.00 L 250.10 10.00 L 250.11 10.00 L 250.11 10.00 L 250.12 10.00 L 250.12 10.00 L 250.13 10.00 L 250.13 10.00 L 250.14 10.00 L 250.14 10.00 L 250.15 10.00 L 250.15 10.00 L 250.16 10.00 L 250.16 10.00 L 250.17 10.00 L 250.17 10.00 L 250.18 10.00 L 250.18 10.00 L 250.19 10.00 L 250.19 10.00 L 250.20 10.00 L 250.20 10.00 L 250.21 10.00 L 250.21 10.00 L 250.22 10.00 L 250.22 10.00 L 250.23 10.00 L 250.23 10.00 L 250.24 10.00 L 250.24 10.00 L 250.25 10.00 L 250.25 10.00 L 250.26 10.00 L 250.26 10.00 L 250.27 10.00 L 250.27 10.00 L 250.28 10.00 L 250.28 10.00 L 250.28 10.00 L 250.29 10.00 L 250.29 10.00 L 250.30 10.00 L 250.30 10.00 L 250.31 10.00 L 250.31 10.00 L 250.32 10.00 L 250.32 10.00 L 250.33 10.00 L 250.33 10.00 L 250.34 10.00 L 250.34 10.00 L 250.35 10.00 L 250.35 10.00 L 250.36 10.00 L 250.36 10.00 L 250.37 10.00 L 250.37 10.00 L 250.38 10.00 L 250.38 10.00 L 250.39 10.00 L 250.39 10.00 L 250.40 10.00 L 250.40 10.00 L 250.41 10.00 L 250.41 10.00 L 250.42 10.00 L 250.42 10.00 L 250.43 10.00 L 250.43 10.00 L 250.44 10.00 L 250.44 10.00 L 250.45 10.00 L 250.45 10.00 L 250.46 10.00 L 250.46 10.00 L 250.47 10.00 L 250.47 10.00 L 250.48 10.00 L 250.48 10.00 L 250.48 10.00 L 250.49 10.00 L 250.49 10.00 L 250.50 10.00 L 250.50 10.00 L 250.51 10.00 L 250.51 10.00 L 250.52 10.00 L 250.52 10.00 L 250.53 10.00 L 250.53 10.00 L 250.54 10.00 L 250.54 10.00 L 250.55 10.00 L 250.55 10.00 L 250.56 10.00 L 250.56 10.00 L 250.57 10.00 L 250.57 10.00 L 250.58 10.00 L 250.58 10.00 L 250.58 10.00 L 250.59 10.00 L 250.59 10.00 L 250.60 10.00 L 250.60 10.00 L 250.61 10.00 L 250.61 10.00 L 250.62 10.00 L 250.62 10.00 L 250.63 10.00 L 250.63 10.00 L 250.64 10.00 L 250.64 10.00 L 250.64 10.00 L 250.65 10.00 L 250.65 10.00 L 250.66 10.00 L 250.66 10.00 L 250.67 10.00 L 250.67 10.00 L 250.68 10.00 L 250.68 10.00 L 250.69 10.00 L 250.69 10.00 L 250.70 10.00 L 250.70 10.00 L 250.71 10.00 L 250.71 10.00 L 250.72 10.00 L 250.72 10.00 L 250.73 10.00 L 250.73 10.00 L 250.74 10.00 L 250.74 10.00 L 250.75 10.00 L 250.75 10.00 L 250.76 10.00 L 250.76 10.00 L 250.77 10.00 L 250.77 10.00 L 250.78 10.00 L 250.78 10.00 L 250.79 10.00 L 250.80 10.00 L 250.80 10.00 L 250.81 10.00 L 250.81 10.00 L 250.82 10.00 L 250.82 10.00 L 250.83 10.00 L 250.83 10.00 L 250.84 10.00 L 250.85 10.00 L 250.85 10.00 L 250.86 10.00 L 250.86 10.00 L 250.87 10.00 L 250.87 10.00 L 250.88 10.00 L 250.88 10.00 L 250.89 10.00 L 250.89 10.00 L 250.90 10.00 L 250.90 10.00 L 250.91 10.00 L 250.91 10.00 L 250.92 10.00 L 250.92 10.00 L 250.93 10.00 L 250.93 10.00 L 250.94 10.00 L 250.94 10.00 L 250.94 10.00 L 250.95 10.00 L 250.95 10.00 L 250.95 10.00 L 250.96 10.00 L 250.96 10.00 L 250.96 10.00 L 250.97 10.00 L 250.97 10.00 L 250.97 10.00 L 250.98 10.00 L 250.98 10.00 L 250.98 10.00 L 250.98 10.00 L 250.98 10.00 L 250.99 10.00 L 250.99 10.00 L 250.99 10.00 L 250.99 10.00 L 250.99 10.00 L 250.99 10.00 L 251.00 10.00 L 251.00 10.00 L 251.00 10.00 L 251.00 10.00 L 251.00 10.00 L 251.00 10.00 L 251.00 10.00 L 251.00 10.00 L 251.00 10.00 L 251.00 10.00 L 251.00 10.00 L 251.00 10.00 L 251.00 10.00 L 251.00 10.00 L 251.00 10.00 L 250.99 10.00 L 250.99 10.00 L 250.99 10.00 L 250.99 10.00 L 250.99 10.00 L 250.98 10.00 L 250.98 10.00 L 250.98 10.00 L 250.97 10.00 L 250.97 10.00 L 250.97 10.00 L 250.96 10.00 L 250.96 10.00 L 250.96 10.00 L 250.95 10.00 L 250.95 10.00 L 250.94 10.00 L 250.94 10.00 L 250.93 10.00 L 250.93 10.00 L 250.93 10.00 L 250.92 10.00 L 250.92 10.00 L 250.91 10.00 L 250.91 10.00 L 250.90 10.00 L 250.90 10.00 L 250.89 10.00 L 250.89 10.00 L 250.88 10.00 L 250.88 10.00 L 250.87 10.00 L 250.87 10.00 L 250.86 10.00 L 250.86 10.00 L 250.85 10.00 L 250.85 10.00 L 250.84 10.00 L 250.84 10.00 L 250.83 10.00 L 250.82 10.00 L 250.82 10.00 L 250.81 10.00 L 250.81 10.00 L 250.80 10.00 L 250.80 10.00 L 250.79 10.00 L 250.79 10.00 L 250.78 10.00 L 250.77 10.00 L 250.77 10.00 L 250.76 10.00 L 250.76 10.00 L 250.75 10.00 L 250.75 10.00 L 250.74 10.00 L 250.74 10.00 L 250.73 10.00 L 250.72 10.00 L 250.72 10.00 L 250.71 10.00 L 250.71 10.00 L 250.70 10.00 L 250.70 10.00 L 250.69 10.00 L 250.69 10.00 L 250.68 10.00 L 250.68 10.00 L 250.67 10.00 L 250.67 10.00 L 250.66 10.00 L 250.66 10.00 L 250.65 10.00 L 250.65 10.00 L 250.65 10.00 L 250.64 10.00 L 250.64 10.00 L 250.63 10.00 L 250.63 10.00 L 250.63 10.00 L 250.62 10.00 L 250.62 10.00 L 250.62 10.00 L 250.61 10.00 L 250.61 10.00 L 250.61 10.00 L 250.61 10.00 L 250.60 10.00 L 250.60 10.00 L 250.60 10.00 L 250.60 10.00 L 250.59 10.00 L 250.59 10.00 L 250.59 10.00 L 250.59 10.00 L 250.58 10.00 L 250.58 10.00 L 250.58 10.00 L 250.58 10.00 L 250.57 10.00 L 250.57 10.00 L 250.57 10.00 L 250.56 10.00 L 250.56 10.00 L 250.56 10.00 L 250.56 10.00 L 250.55 10.00 L 250.55 10.00 L 250.55 10.00 L 250.54 10.00 L 250.54 10.00 L 250.54 10.00 L 250.53 10.00 L 250.53 10.00 L 250.53 10.00 L 250.52 10.00 L 250.52 10.00 L 250.52 10.00 L 250.51 10.00 L 250.51 10.00 L 250.50 10.00 L 250.50 10.00 L 250.50 10.00 L 250.49 10.00 L 250.49 10.00 L 250.49 10.00 L 250.48 10.00 L 250.48 10.00 L 250.47 10.00 L 250.47 10.00 L 250.47 10.00 L 250.46 10.00 L 250.46 10.00 L 250.45 10.00 L 250.45 10.00 L 250.45 10.00 L 250.44 10.00 L 250.44 10.00 L 250.43 10.00 L 250.43 10.00 L 250.43 10.00 L 250.42 10.00 L 250.42 10.00 L 250.41 10.00 L 250.41 10.00 L 250.40 10.00 L 250.40 10.00 L 250.40 10.00 L 250.39 10.00 L 250.39 10.00 L 250.38 10.00 L 250.38 10.00 L 250.37 10.00 L 250.37 10.00 L 250.37 10.00 L 250.36 10.00 L 250.36 10.00 L 250.35 10.00 L 250.35 10.00 L 250.35 10.00 L 250.34 10.00 L 250.34 10.00 L 250.33 10.00 L 250.33 10.00 L 250.32 10.00 L 250.32 10.00 L 250.32 10.00 L 250.31 10.00 L 250.31 10.00 L 250.30 10.00 L 250.30 10.00 L 250.30 10.00 L 250.29 10.00 L 250.29 10.00 L 250.28 10.00 L 250.28 10.00 L 250.27 10.00 L 250.27 10.00 L 250.27 10.00 L 250.26 10.00 L 250.26 10.00 L 250.25 10.00 L 250.25 10.00 L 250.25 10.00 L 250.24 10.00 L 250.24 10.00 L 250.23 10.00 L 250.23 10.00 L 250.23 10.00 L 250.22 10.00 L 250.22 10.00 L 250.21 10.00 L 250.21 10.00 L 250.21 10.00 L 250.20 10.00 L 250.20 10.00 L 250.19 10.00 L 250.19 10.00 L 250.19 10.00 L 250.18 10.00 L 250.18 10.00 L 250.17 10.00 L 250.17 10.00 L 250.16 10.00 L 250.16 10.00 L 250.16 10.00 L 250.15 10.00 L 250.15 10.00 L 250.14 10.00 L 250.14 10.00 L 250.13 10.00 L 250.13 10.00 L 250.13 10.00 L 250.12 10.00 L 250.12 10.00 Z" />
</symbol>
<symbol id="bl2">
<path d="M 250.09 10.00 L 250.09 10.00 L 250.10 10.00 L 250.11 10.00 L 250.11 10.00 L 250.12 10.00 L 250.12 10.00 L 250.13 10.00 L 250.13 10.00 L 250.14 10.00 L 250.14 10.00 L 250.15 10.00 L 250.15 10.00 L 250.16 10.00 L 250.16 10.00 L 250.17 10.00 L 250.17 10.00 L 250.18 10.00 L 250.18 10.00 L 250.19 10.00 L 250.19 10.00 L 250.20 10.00 L 250.20 10.00 L 250.21 10.00 L 250.21 10.00 L 250.22 10.00 L 250.23 10.00 L 250.23 10.00 L 250.24 10.00 L 250.24 10.00 L 250.25 10.00 L 250.25 10.00 L 250.26 10.00 L 250.27 10.00 L 250.28 10.00 L 250.28 10.00 L 250.29 10.00 L 250.29 10.00 L 250.21 10.00 L 250.21 490.00 L 250.22 10.00 L 250.22 10.00 L 250.23 10.00 L 250.23 10.00 L 250.23 10.00 L 250.23 10.00 L 250.23 10.00 L 250.23 10.00 L 250.23 10.00 L 250.23 10.00 L 250.23 10.00 L 250.22 10.00 L 250.22 10.00 L 250.22 10.00 L 250.22 10.00 L 250.21 10.00 L 250.21 10.00 L 250.21 10.00 L 250.21 10.00 L 250.21 10.00 L 250.20 10.00 L 250.20 10.00 L 250.20 10.00 L 250.20 10.00 L 250.19 10.00 L 250.19 10.00 L 250.19 10.00 L 250.19 10.00 L 250.19 10.00 L 250.18 10.00 L 250.18 10.00 L 250.18 10.00 L 250.18 10.00 L 250.17 10.00 L 250.17 10.00 L 250.17 10.00 L 250.17 10.00 L 250.17 10.00 L 250.16 10.00 L 250.16 10.00 L 250.16 10.00 L 250.16 10.00 L 250.16 10.00 L 250.15 10.00 L 250.15 10.00 L 250.15 10.00 L 250.15 10.00 L 250.15 10.00 L 250.14 10.00 L 250.14 10.00 L 250.14 10.00 L 250.14 10.00 L 250.14 10.00 L 250.14 10.00 L 250.13 10.00 L 250.13 10.00 L 250.13 10.00 L 250.13 10.00 L 250.13 10.00 L 250.13 10.00 L 250.12 10.00 L 250.12 10.00 L 250.12 10.00 L 250.12 10.00 L 250.12 10.00 L 250.11 10.00 L 250.11 10.00 L 250.11 10.00 L 250.11 10.00 L 250.11 10.00 L 250.11 10.00 L 250.10 10.00 L 250.10 10.00 L 250.10 10.00 L 250.10 10.00 L 250.10 10.00 L 250.10 10.00 L 250.10 10.00 L 250.09 10.00 L 250.09 10.00 L 250.09 10.00 L 250.08 10.00 L 250.08 10.00 L 250.07 10.00 L 250.07 10.00 L 250.07 10.00 L 250.06 10.00 L 250.06 10.00 L 250.06 10.00 L 250.06 10.00 L 250.05 10.00 L 250.05 10.00 L 250.05 10.00 L 250.05 10.00 L 250.04 10.00 L 250.04 10.00 L 250.04 10.00 L 250.04 10.00 L 250.03 10.00 L 250.03 10.00 L 250.03 10.00 L 250.03 10.00 L 250.03 10.00 L 250.02 10.00 L 250.02 10.00 L 250.02 10.00 L 250.02 10.00 L 250.02 10.00 L 250.02 10.00 L 250.01 10.00 L 250.01 10.00 L 250.01 10.00 L 250.01 10.00 L 250.01 10.00 L 250.01 10.00 L 250.01 10.00 L 250.01 10.00 L 250.00 10.00 L 250.00 10.00 L 250.00 10.00 L 250.00 10.00 L 250.00 10.00 L 250.00 10.00 L 250.00 10.00 L 250.00 10.00 L 250.00 10.00 L 250.00 10.00 L 250.00 10.00 L 250.00 10.00 L 250.00 10.00 L 250.00 10.00 L 250.00 10.00 L 250.00 10.00 L 250.00 10.00 L 250.00 10.00 L 250.00 10.00 L 250.01 10.00 L 250.01 10.00 L 250.01 10.00 L 250.01 10.00 L 250.01 10.00 L 250.01 10.00 L 250.02 10.00 L 250.02 10.00 L 250.02 10.00 L 250.02 10.00 L 250.02 10.00 L 250.03 10.00 L 250.03 10.00 L 250.03 10.00 L 250.04 10.00 L 250.04 10.00 L 250.04 10.00 L 250.05 10.00 L 250.05 10.00 L 250.06 10.00 L 250.07 10.00 L 250.07 10.00 L 250.08 10.00 Z" />
</symbol>
<symbol id="bl3">
<path d="M 250.14 10.00 L 250.14 10.00 L 250.14 10.00 L 250.14 10.00 L 250.14 10.00 L 250.14 10.00 L 250.14 10.00 L 250.14 10.00 L 250.14 10.00 L 250.14 10.00 L 250.14 10.00 L 250.14 10.00 L 250.14 10.00 L 250.14 10.00 L 250.14 10.00 L 250.14 10.00 L 250.14 10.00 L 250.14 10.00 L 250.14 10.00 L 250.14 10.00 L 250.14 10.00 L 250.15 10.00 L 250.15 10.00 L 250.16 10.00 L 250.16 10.00 L 250.17 10.00 L 250.17 10.00 L 250.18 10.00 L 250.18 10.00 L 250.19 10.00 L 250.19 10.00 L 250.20 10.00 L 250.21 10.00 L 250.21 10.00 L 250.22 10.00 L 250.22 10.00 L 250.23 10.00 L 250.23 10.00 L 250.24 10.00 L 250.25 10.00 L 250.25 10.00 L 250.26 10.00 L 250.26 10.00 L 250.27 10.00 L 250.27 10.00 L 250.28 10.00 L 250.29 10.00 L 250.29 10.00 L 250.30 10.00 L 250.30 10.00 L 250.31 10.00 L 250.32 10.00 L 250.32 10.00 L 250.33 10.00 L 250.33 10.00 L 250.34 10.00 L 250.34 10.00 L 250.34 10.00 L 250.33 10.00 L 250.33 10.00 L 250.33 10.00 L 250.32 10.00 L 250.32 10.00 L 250.32 10.00 L 250.31 10.00 L 250.31 10.00 L 250.31 10.00 L 250.30 10.00 L 250.30 10.00 L 250.30 10.00 L 250.29 10.00 L 250.29 10.00 L 250.29 10.00 L 250.28 10.00 L 250.28 10.00 L 250.28 10.00 L 250.27 10.00 L 250.27 10.00 L 250.27 10.00 L 250.26 10.00 L 250.26 10.00 L 250.26 10.00 L 250.25 10.00 L 250.25 10.00 L 250.25 10.00 L 250.24 10.00 L 250.24 10.00 L 250.24 10.00 L 250.24 10.00 L 250.23 10.00 L 250.23 10.00 L 250.23 10.00 L 250.22 10.00 L 250.22 10.00 L 250.22 10.00 L 250.22 10.00 L 250.21 10.00 L 250.21 10.00 L 250.21 10.00 L 250.20 10.00 L 250.20 10.00 L 250.20 10.00 L 250.20 10.00 L 250.19 10.00 L 250.19 10.00 L 250.19 10.00 L 250.18 10.00 L 250.18 10.00 L 250.17 10.00 L 250.16 10.00 L 250.16 10.00 L 250.15 10.00 L 250.15 10.00 L 250.14 10.00 L 250.14 10.00 L 250.14 10.00 L 250.14 10.00 Z" />
</symbol>
</defs>
<!-- isDone: 0 -->
<rect width="700" height="500" style="fill:#fff;stroke-width:0" />
<use class="p0 borderLine" xlink:href="#bl0"/>
<use class="p1 borderLine" xlink:href="#bl1"/>
<use class="p2 borderLine" xlink:href="#bl2"/>
<use class="p3 borderLine" xlink:href="#bl3"/>
<use class="q0 outLine" xlink:href="#bl0"/>
<use class="q1 outLine" xlink:href="#bl1"/>
<use class="q2 outLine" xlink:href="#bl2"/>
<use class="q3 outLine" xlink:href="#bl3"/>
<circle onclick="fromCircle(1)" class="circle" cx="250.3997" cy="10.0000" r="0.1488" />
<text class="tLabel" x="250.40" y="-10.00"></text>
<text class="nLabel" x="250.40" y="5.00">1378</text>
<text class="belong" x="250.40" y="15.00">(1)</text>
<circle onclick="fromCircle(2)" class="circle" cx="250.7956" cy="10.0000" r="0.1703" />
<text class="tLabel" x="250.80" y="-10.00"></text>
<text class="nLabel" x="250.80" y="5.00">1806</text>
<text class="belong" x="250.80" y="15.00">(2)</text>
<circle onclick="fromCircle(6)" class="circle" cx="250.0809" cy="10.0000" r="0.0113" />
<text class="tLabel" x="250.08" y="-10.00"></text>
<text class="nLabel" x="250.08" y="5.00">8</text>
<text class="belong" x="250.08" y="15.00">(2, 3)</text>
<circle onclick="fromCircle(10)" class="circle" cx="250.1679" cy="10.0000" r="0.0216" />
<text class="tLabel" x="250.17" y="-10.00"></text>
<text class="nLabel" x="250.17" y="5.00">29</text>
<text class="belong" x="250.17" y="15.00">(2, 4)</text>
<circle onclick="fromCircle(4)" class="circle" cx="250.1310" cy="10.0000" r="0.0335" />
<text class="tLabel" x="250.13" y="-10.00"></text>
<text class="nLabel" x="250.13" y="5.00">70</text>
<text class="belong" x="250.13" y="15.00">(3)</text>
<circle onclick="fromCircle(5)" class="circle" cx="250.2633" cy="10.0000" r="0.0272" />
<text class="tLabel" x="250.26" y="-10.00"></text>
<text class="nLabel" x="250.26" y="5.00">46</text>
<text class="belong" x="250.26" y="15.00">(1, 3)</text>
<circle onclick="fromCircle(8)" class="circle" cx="250.1695" cy="10.0000" r="0.0250" />
<text class="tLabel" x="250.17" y="-10.00"></text>
<text class="nLabel" x="250.17" y="5.00">39</text>
<text class="belong" x="250.17" y="15.00">(4)</text>
<circle onclick="fromCircle(9)" class="circle" cx="250.3275" cy="10.0000" r="0.0100" />
<text class="tLabel" x="250.33" y="-10.00"></text>
<text class="nLabel" x="250.33" y="5.00">6</text>
<text class="belong" x="250.33" y="15.00">(1, 4)</text>
<rect class="p0 borderLine" x="500.00" y="50.00" width="30.00" height="15.00" />
<rect class="q0" x="500.00" y="50.00" width="30.00" height="15.00" />
<text class="legend" x="540.00" y="65.00">Up_in_POU3F2_KO_iNs</text>
<rect class="p1 borderLine" x="500.00" y="90.00" width="30.00" height="15.00" />
<rect class="q1" x="500.00" y="90.00" width="30.00" height="15.00" />
<text class="legend" x="540.00" y="105.00">Down_in_POU3F2_KO_iNs</text>
<rect class="p2 borderLine" x="500.00" y="130.00" width="30.00" height="15.00" />
<rect class="q2" x="500.00" y="130.00" width="30.00" height="15.00" />
<text class="legend" x="540.00" y="145.00">Up_in_VGF_KO_iNs</text>
<rect class="p3 borderLine" x="500.00" y="170.00" width="30.00" height="15.00" />
<rect class="q3" x="500.00" y="170.00" width="30.00" height="15.00" />
<text class="legend" x="540.00" y="185.00">Down_in_VGF_KO_iNs</text>
</svg>
