<svg xmlns="http://www.w3.org/2000/svg" xmlns:xlink="http://www.w3.org/1999/xlink" width="700" height="500">
<defs>
<style type="text/css"><![CDATA[
  .borderLine {
	   stroke: none;
	   fill-opacity: 0.4;
  }
  .outLine {
	   stroke-width: 1;
	   fill: none;
  }
  .circle {
	   stroke: #888888;
	   stroke-width: 0.5;
	   fill: none;
    pointer-events: all;
  }
  .spcircle {
	   stroke: #FF2222;
	   stroke-width: 1;
	   fill: none;
    pointer-events: all;
  }
  .tLabel {
	   font-family: Arial;
    pointer-events: none;
	   font-size: 14px;
	   text-anchor: middle;
	   alignment-baseline: central;
  }
  .nLabel {
	   font-family: Arial;
    pointer-events: none;
	   font-size: 10px;
	   text-anchor: middle;
	   alignment-baseline: central;
  }
  .belong {
	   font-family: Arial;
    pointer-events: none;
	   font-size: 5px;
	   text-anchor: middle;
	   alignment-baseline: central;
  }
  .p0{
    stroke: none;
    fill: #e6194b;
  }
  .q0{
    fill: none;
    stroke: #e6194b;
  }
  .p1{
    stroke: none;
    fill: #3cb44b;
  }
  .q1{
    fill: none;
    stroke: #3cb44b;
  }
  .p2{
    stroke: none;
    fill: #ffe119;
  }
  .q2{
    fill: none;
    stroke: #ffe119;
  }
  .p3{
    stroke: none;
    fill: #0082c8;
  }
  .q3{
    fill: none;
    stroke: #0082c8;
  }
  .p4{
    stroke: none;
    fill: #f58231;
  }
  .q4{
    fill: none;
    stroke: #f58231;
  }
  .p5{
    stroke: none;
    fill: #911eb4;
  }
  .q5{
    fill: none;
    stroke: #911eb4;
  }
  .p6{
    stroke: none;
    fill: #46f0f0;
  }
  .q6{
    fill: none;
    stroke: #46f0f0;
  }
  .p7{
    stroke: none;
    fill: #f032e6;
  }
  .q7{
    fill: none;
    stroke: #f032e6;
  }
]]>
</style>
<symbol id="bl0">
<path d="M 115.42 279.05 L 124.11 278.29 L 131.80 274.82 L 139.02 271.43 L 146.82 267.61 L 155.22 267.15 L 163.65 266.06 L 171.86 264.92 L 180.43 263.79 L 188.32 264.82 L 196.11 266.91 L 203.79 270.68 L 211.07 273.52 L 220.02 275.06 L 227.88 277.94 L 236.56 280.17 L 244.01 284.30 L 249.98 290.21 L 254.65 297.69 L 257.12 305.11 L 257.26 313.61 L 257.18 321.48 L 257.36 330.12 L 257.63 338.66 L 258.04 346.77 L 258.79 354.79 L 259.35 363.05 L 260.03 371.34 L 260.41 379.32 L 260.70 387.60 L 260.97 395.40 L 260.94 403.34 L 262.00 411.31 L 263.59 419.69 L 266.37 427.76 L 269.99 435.19 L 273.16 442.41 L 277.47 449.30 L 282.36 455.79 L 287.62 461.43 L 293.09 467.14 L 299.92 471.58 L 306.66 476.13 L 313.73 479.86 L 321.43 483.44 L 329.25 486.11 L 337.03 487.80 L 345.22 489.14 L 353.13 489.46 L 360.91 490.00 L 368.88 488.82 L 376.96 487.42 L 384.47 485.21 L 391.56 482.72 L 398.80 479.34 L 406.01 475.22 L 412.82 470.45 L 419.49 465.49 L 425.79 459.91 L 430.94 453.40 L 435.91 447.07 L 439.85 439.97 L 442.71 432.35 L 445.30 424.67 L 447.99 416.86 L 449.35 408.78 L 450.28 400.76 L 450.25 392.59 L 450.14 384.26 L 449.10 375.88 L 446.49 367.97 L 443.53 360.09 L 440.57 352.33 L 436.57 345.54 L 432.16 338.63 L 427.32 332.03 L 422.97 325.32 L 418.61 318.43 L 414.19 311.64 L 410.57 304.50 L 406.11 297.79 L 401.48 291.34 L 397.14 284.61 L 392.53 278.07 L 388.07 270.62 L 383.96 263.17 L 380.04 256.14 L 375.34 249.24 L 369.94 243.04 L 362.85 237.99 L 355.26 234.65 L 347.98 229.81 L 342.43 223.18 L 339.42 214.89 L 338.20 206.74 L 337.18 198.64 L 336.50 190.89 L 336.01 183.04 L 335.13 175.65 L 334.52 167.70 L 334.04 159.12 L 335.15 150.47 L 333.76 142.48 L 329.45 135.17 L 322.85 129.32 L 314.86 125.51 L 305.89 125.23 L 298.10 128.27 L 291.21 132.58 L 284.17 136.28 L 275.59 138.44 L 267.78 138.04 L 259.78 135.51 L 251.61 134.33 L 243.84 135.75 L 236.07 138.40 L 227.73 140.93 L 219.78 143.36 L 211.09 145.84 L 202.83 146.19 L 195.03 145.04 L 187.34 142.84 L 180.33 138.46 L 173.85 133.68 L 165.66 133.00 L 157.82 136.71 L 153.76 144.06 L 153.40 152.27 L 154.29 159.97 L 152.36 168.41 L 149.67 176.14 L 145.18 183.10 L 139.71 189.18 L 133.10 194.22 L 125.42 197.83 L 117.17 199.65 L 109.24 200.07 L 100.90 201.85 L 92.81 205.96 L 85.96 211.17 L 80.83 218.22 L 77.20 225.28 L 74.73 234.42 L 75.03 243.49 L 76.56 251.97 L 80.13 259.88 L 85.20 266.92 L 91.54 272.24 L 98.45 276.40 L 107.20 278.59 Z" />
</symbol>
<symbol id="bl1">
<path d="M 151.85 58.18 L 146.47 63.28 L 140.48 66.96 L 134.25 71.02 L 128.72 76.14 L 122.84 80.81 L 117.46 85.89 L 112.39 91.29 L 107.42 96.68 L 102.81 102.43 L 97.61 107.54 L 93.88 113.44 L 89.45 119.53 L 83.80 124.85 L 78.81 130.44 L 73.95 137.14 L 71.35 144.01 L 69.61 151.24 L 69.13 158.67 L 70.03 166.13 L 71.73 173.03 L 75.03 179.05 L 79.13 184.94 L 83.82 190.27 L 89.85 194.35 L 96.19 197.84 L 103.81 199.29 L 111.45 200.19 L 119.35 200.31 L 126.81 201.94 L 133.87 204.76 L 139.85 208.79 L 145.18 214.13 L 150.54 221.46 L 155.57 227.28 L 160.89 233.09 L 165.99 238.81 L 170.87 245.00 L 176.21 250.96 L 181.98 257.12 L 187.75 262.66 L 193.50 269.02 L 196.84 276.09 L 196.72 283.86 L 194.18 291.28 L 192.35 298.83 L 190.77 306.55 L 190.34 314.08 L 191.80 321.58 L 195.15 328.28 L 199.76 334.31 L 206.05 339.41 L 212.83 343.57 L 219.79 344.90 L 227.17 345.38 L 234.78 345.68 L 242.45 343.92 L 250.09 342.56 L 257.51 341.71 L 264.44 341.06 L 271.74 340.67 L 279.20 337.21 L 284.85 331.88 L 288.98 326.24 L 292.98 319.97 L 296.76 314.10 L 300.89 308.68 L 305.25 302.37 L 308.86 296.63 L 311.76 290.00 L 313.91 282.72 L 314.08 275.80 L 313.50 268.47 L 310.77 261.54 L 306.72 255.70 L 301.93 249.95 L 294.90 246.25 L 288.42 243.25 L 282.24 238.98 L 276.54 233.25 L 271.22 228.91 L 265.68 223.71 L 260.29 218.17 L 253.82 213.73 L 248.31 209.01 L 243.21 204.11 L 237.69 200.01 L 232.71 194.89 L 227.35 190.03 L 223.18 183.68 L 220.61 176.69 L 219.28 169.88 L 219.69 162.02 L 221.23 154.99 L 224.18 148.54 L 227.29 142.31 L 231.54 135.85 L 236.47 130.25 L 239.85 124.28 L 242.85 117.48 L 243.56 109.84 L 243.91 102.32 L 243.72 94.64 L 243.15 86.57 L 243.02 79.79 L 243.17 72.46 L 243.02 65.59 L 242.48 58.30 L 242.13 51.33 L 243.49 44.38 L 242.87 37.09 L 240.02 30.40 L 236.20 24.93 L 230.89 20.75 L 224.33 17.91 L 217.06 17.01 L 210.00 18.04 L 203.33 21.28 L 197.86 25.74 L 192.40 29.62 L 186.74 33.94 L 181.92 38.16 L 175.84 41.26 L 169.92 45.36 L 163.94 49.02 L 158.08 53.72 Z" />
</symbol>
<symbol id="bl2">
<path d="M 185.49 53.51 L 181.37 60.31 L 178.58 67.73 L 175.49 75.27 L 172.00 81.41 L 167.84 88.26 L 165.62 95.54 L 163.44 103.19 L 162.44 111.04 L 161.18 118.11 L 158.49 125.40 L 156.23 132.66 L 154.85 139.73 L 153.21 146.99 L 154.79 154.20 L 159.28 159.82 L 164.89 164.86 L 170.66 168.70 L 175.95 173.81 L 181.32 179.80 L 186.75 184.60 L 191.23 189.24 L 193.42 195.01 L 194.84 201.58 L 193.65 208.61 L 191.78 215.28 L 188.67 220.97 L 186.96 228.12 L 185.83 235.15 L 186.36 242.17 L 187.88 249.02 L 191.27 255.12 L 195.43 260.49 L 200.09 265.40 L 205.94 269.36 L 212.72 271.66 L 219.61 273.08 L 226.50 274.17 L 232.68 271.49 L 239.25 270.11 L 244.67 266.33 L 249.23 261.26 L 254.23 256.51 L 258.94 251.41 L 264.06 247.47 L 270.05 244.89 L 276.63 243.34 L 283.90 243.68 L 290.18 244.76 L 296.53 246.94 L 303.16 248.09 L 309.84 247.99 L 316.79 246.18 L 323.54 243.42 L 329.11 239.26 L 335.44 235.96 L 342.03 234.51 L 348.81 234.00 L 355.85 235.11 L 362.56 237.80 L 369.26 239.28 L 376.84 238.82 L 383.57 236.82 L 390.44 233.86 L 395.86 228.75 L 400.45 223.16 L 403.46 216.95 L 405.05 209.89 L 406.03 202.81 L 404.26 196.12 L 401.40 189.24 L 397.19 182.74 L 390.74 178.23 L 384.90 174.20 L 378.41 172.08 L 371.35 172.06 L 363.64 173.02 L 357.25 175.53 L 350.11 178.38 L 342.48 177.06 L 336.67 172.47 L 333.83 165.58 L 334.85 157.58 L 335.45 149.56 L 333.62 142.78 L 331.14 136.32 L 328.54 129.89 L 325.46 123.00 L 322.47 115.97 L 319.96 108.85 L 317.04 101.71 L 314.41 94.90 L 311.97 88.09 L 309.41 80.93 L 306.26 74.18 L 303.34 67.44 L 300.56 60.42 L 298.36 53.37 L 294.50 47.04 L 291.80 40.78 L 287.91 34.20 L 282.02 30.33 L 276.15 26.77 L 269.14 25.04 L 262.18 23.73 L 254.67 22.75 L 246.82 22.02 L 240.07 21.03 L 232.95 19.39 L 226.00 17.13 L 218.38 16.97 L 211.12 17.98 L 204.02 20.36 L 198.18 25.88 L 193.82 32.47 L 190.84 39.42 L 187.91 46.17 Z" />
</symbol>
<symbol id="bl3">
<path d="M 83.63 125.36 L 78.53 131.17 L 74.55 137.43 L 71.44 144.20 L 69.78 151.43 L 68.54 158.98 L 67.07 166.44 L 65.47 173.82 L 63.22 181.31 L 61.86 188.71 L 60.17 196.00 L 58.81 203.70 L 61.03 211.34 L 63.90 218.48 L 66.42 225.51 L 69.26 232.53 L 72.61 239.46 L 74.62 246.34 L 77.21 253.40 L 80.28 260.31 L 84.85 266.67 L 90.49 271.72 L 97.78 275.81 L 105.14 278.38 L 113.00 279.19 L 121.00 279.03 L 128.41 277.10 L 134.73 273.80 L 141.32 270.85 L 147.81 267.06 L 155.35 267.15 L 161.92 270.57 L 166.42 277.32 L 168.12 285.78 L 173.16 291.16 L 180.45 294.06 L 188.45 292.62 L 194.49 288.66 L 201.04 285.32 L 207.62 281.00 L 214.24 278.82 L 221.29 275.37 L 229.07 273.57 L 235.97 270.66 L 242.59 266.99 L 248.93 262.60 L 253.93 256.71 L 257.47 249.66 L 259.29 241.87 L 261.36 234.25 L 264.46 226.84 L 267.45 219.88 L 270.57 212.57 L 273.00 206.12 L 276.25 198.81 L 279.04 191.83 L 281.57 184.96 L 284.42 177.99 L 285.90 170.76 L 285.74 163.10 L 283.60 155.82 L 282.93 148.33 L 285.23 141.40 L 289.24 134.20 L 295.02 129.02 L 299.41 122.83 L 302.71 115.47 L 304.05 107.68 L 302.11 99.97 L 298.93 92.94 L 294.36 87.20 L 288.30 82.13 L 281.06 79.13 L 273.21 78.45 L 265.05 78.04 L 256.74 76.57 L 249.55 74.68 L 241.92 72.64 L 234.76 71.73 L 228.07 71.21 L 221.23 69.20 L 214.41 68.41 L 207.18 67.20 L 200.80 67.40 L 193.94 68.09 L 187.46 70.92 L 181.84 74.28 L 176.21 78.98 L 171.55 84.00 L 168.00 90.44 L 165.84 97.36 L 163.81 104.62 L 164.68 112.07 L 165.96 118.82 L 169.01 125.17 L 173.03 131.18 L 177.99 136.35 L 181.84 142.49 L 183.01 150.11 L 179.40 157.48 L 172.94 161.64 L 165.27 162.43 L 158.60 159.13 L 154.30 153.44 L 152.51 146.60 L 149.65 139.33 L 145.81 132.61 L 140.63 126.19 L 134.16 121.32 L 127.51 117.59 L 120.08 116.00 L 112.46 114.72 L 104.57 115.38 L 97.12 117.99 L 90.17 120.92 Z" />
</symbol>
<symbol id="bl4">
<path d="M 188.02 357.93 L 192.93 365.77 L 201.36 368.91 L 209.84 367.07 L 216.60 361.03 L 224.08 355.41 L 231.18 349.32 L 237.87 343.95 L 244.52 338.02 L 250.63 331.73 L 254.85 324.57 L 258.60 315.96 L 266.15 310.72 L 275.49 310.04 L 284.35 310.67 L 292.77 309.53 L 300.60 307.96 L 309.88 306.27 L 319.27 304.77 L 328.46 303.74 L 337.01 302.14 L 345.89 300.82 L 354.70 300.06 L 363.22 297.60 L 370.38 292.54 L 375.18 285.08 L 379.12 277.55 L 382.78 269.57 L 386.02 261.45 L 389.42 253.89 L 392.37 245.10 L 394.51 236.03 L 398.69 228.40 L 402.70 219.92 L 405.27 211.58 L 405.14 202.89 L 403.36 193.97 L 399.51 185.97 L 393.21 179.57 L 385.92 174.54 L 379.66 168.48 L 372.45 163.41 L 365.75 157.65 L 358.65 152.10 L 349.88 148.52 L 341.19 150.41 L 334.94 157.06 L 331.38 165.25 L 324.92 172.42 L 317.18 176.09 L 308.45 178.69 L 300.53 181.42 L 291.92 184.36 L 284.52 189.03 L 276.53 193.78 L 268.76 197.47 L 260.70 200.93 L 251.99 201.70 L 242.87 201.72 L 233.73 200.43 L 225.44 199.64 L 216.38 200.21 L 207.94 202.77 L 199.97 207.38 L 193.51 214.07 L 189.48 221.07 L 186.70 229.08 L 185.85 237.42 L 187.02 245.84 L 188.95 254.24 L 191.68 261.87 L 194.35 270.30 L 196.88 278.85 L 195.07 287.38 L 192.70 296.09 L 191.13 304.62 L 190.60 313.06 L 189.83 322.17 L 189.18 330.84 L 187.84 339.59 L 187.22 348.81 Z" />
</symbol>
<symbol id="bl5">
<path d="M 159.57 332.28 L 166.21 334.02 L 173.27 333.79 L 180.01 331.22 L 185.87 326.25 L 189.30 319.77 L 190.27 312.83 L 190.80 305.50 L 193.04 298.48 L 196.23 292.44 L 200.90 286.96 L 206.62 282.37 L 213.53 279.35 L 220.36 276.87 L 226.77 273.80 L 233.56 272.06 L 240.18 268.67 L 246.26 265.04 L 250.86 260.01 L 254.62 254.36 L 257.97 247.90 L 259.10 241.07 L 259.57 233.91 L 257.91 226.56 L 255.25 219.83 L 251.22 213.37 L 245.89 207.88 L 239.76 204.07 L 232.69 201.35 L 225.76 200.03 L 218.76 199.71 L 211.37 200.93 L 204.92 203.73 L 199.53 207.80 L 194.33 212.97 L 189.75 218.54 L 184.88 223.78 L 179.85 228.96 L 174.56 232.76 L 169.34 237.56 L 163.80 243.11 L 159.00 249.20 L 154.18 255.03 L 149.10 260.71 L 144.34 266.63 L 139.93 271.78 L 137.27 278.71 L 138.17 286.68 L 142.54 293.65 L 145.26 299.92 L 147.26 307.45 L 148.17 314.73 L 150.11 321.83 L 153.96 327.79 Z" />
</symbol>
<symbol id="bl6">
<path d="M 92.10 326.04 L 96.59 331.02 L 102.01 335.04 L 108.63 337.76 L 116.02 338.93 L 123.48 338.67 L 130.25 335.61 L 136.69 331.85 L 141.66 326.62 L 145.25 320.47 L 147.19 313.89 L 148.49 307.15 L 151.83 300.80 L 157.14 295.97 L 163.05 292.53 L 166.53 285.94 L 167.06 279.32 L 168.85 271.82 L 173.55 266.94 L 180.28 263.78 L 187.49 264.94 L 194.76 266.84 L 202.94 268.48 L 210.30 271.19 L 217.49 272.62 L 224.20 273.34 L 230.85 272.51 L 237.50 269.57 L 243.89 265.91 L 250.10 261.76 L 254.04 255.60 L 257.63 249.70 L 259.87 242.85 L 262.17 235.73 L 265.00 228.83 L 267.55 222.15 L 269.14 215.05 L 272.24 208.52 L 275.13 201.48 L 278.41 195.12 L 282.99 190.40 L 288.87 185.93 L 295.11 182.80 L 301.98 181.69 L 309.27 180.61 L 315.70 179.88 L 322.65 179.07 L 330.29 178.78 L 337.39 177.95 L 344.63 177.95 L 352.08 177.91 L 358.96 173.96 L 362.78 167.94 L 363.34 160.50 L 360.14 154.01 L 354.02 149.22 L 346.68 148.80 L 339.89 151.06 L 335.31 156.85 L 332.38 163.67 L 327.82 169.64 L 322.40 174.89 L 315.25 177.29 L 308.45 179.12 L 301.58 180.37 L 294.60 182.68 L 287.95 185.96 L 282.12 189.39 L 275.90 193.75 L 268.76 197.38 L 262.11 200.18 L 255.31 201.90 L 247.91 201.53 L 240.34 201.19 L 233.27 200.33 L 225.89 199.94 L 218.19 200.31 L 210.67 201.10 L 204.33 204.34 L 198.53 208.30 L 193.30 213.35 L 189.23 219.01 L 184.09 223.68 L 179.58 228.83 L 174.59 234.42 L 168.44 239.41 L 163.11 244.26 L 158.64 250.29 L 153.87 255.54 L 149.55 260.92 L 144.64 266.01 L 138.72 270.45 L 132.44 274.49 L 125.39 278.10 L 118.16 279.23 L 111.46 279.67 L 104.71 281.88 L 98.64 285.68 L 93.28 291.11 L 88.54 297.65 L 86.61 305.28 L 87.12 312.66 L 88.23 319.64 Z" />
</symbol>
<symbol id="bl7">
<path d="M 87.69 10.04 L 78.81 11.58 L 70.66 15.35 L 63.58 20.83 L 57.48 27.22 L 53.17 35.10 L 49.79 43.36 L 49.72 52.30 L 50.75 61.12 L 53.10 69.76 L 57.62 77.28 L 63.83 83.76 L 71.35 89.17 L 80.05 92.69 L 88.77 94.35 L 97.46 96.97 L 105.86 98.72 L 114.68 100.62 L 123.23 102.95 L 131.92 104.85 L 140.85 103.87 L 147.40 97.38 L 149.16 88.72 L 145.92 80.36 L 142.86 72.73 L 140.08 64.63 L 138.40 56.88 L 136.00 49.20 L 133.27 41.86 L 130.44 33.77 L 126.46 25.93 L 119.84 20.04 L 112.81 15.31 L 104.72 11.80 L 96.40 10.00 Z" />
</symbol>
</defs>
<!-- isDone: 0 -->
<rect width="700" height="500" style="fill:#fff;stroke-width:0" />
<use class="p0 borderLine" xlink:href="#bl0"/>
<use class="p1 borderLine" xlink:href="#bl1"/>
<use class="p2 borderLine" xlink:href="#bl2"/>
<use class="p3 borderLine" xlink:href="#bl3"/>
<use class="p4 borderLine" xlink:href="#bl4"/>
<use class="p5 borderLine" xlink:href="#bl5"/>
<use class="p6 borderLine" xlink:href="#bl6"/>
<use class="p7 borderLine" xlink:href="#bl7"/>
<use class="q0 outLine" xlink:href="#bl0"/>
<use class="q1 outLine" xlink:href="#bl1"/>
<use class="q2 outLine" xlink:href="#bl2"/>
<use class="q3 outLine" xlink:href="#bl3"/>
<use class="q4 outLine" xlink:href="#bl4"/>
<use class="q5 outLine" xlink:href="#bl5"/>
<use class="q6 outLine" xlink:href="#bl6"/>
<use class="q7 outLine" xlink:href="#bl7"/>
<circle onclick="fromCircle(1)" class="circle" cx="355.6768" cy="395.0312" r="78.8736" />
<text class="tLabel" x="355.68" y="375.03"></text>
<text class="nLabel" x="355.68" y="390.03">40</text>
<text class="belong" x="355.68" y="400.03">(1)</text>
<circle onclick="fromCircle(3)" class="circle" cx="271.7593" cy="324.5737" r="12.4710" />
<text class="tLabel" x="271.76" y="304.57"></text>
<text class="nLabel" x="271.76" y="319.57">1</text>
<text class="belong" x="271.76" y="329.57">(1, 2)</text>
<circle onclick="fromCircle(7)" class="circle" cx="168.1384" cy="147.5913" r="12.4710" />
<text class="tLabel" x="168.14" y="127.59"></text>
<text class="nLabel" x="168.14" y="142.59">1</text>
<text class="belong" x="168.14" y="152.59">(1, 2, 3)</text>
<circle onclick="fromCircle(15)" class="circle" cx="198.3653" cy="167.0034" r="17.6367" />
<text class="tLabel" x="198.37" y="147.00"></text>
<text class="nLabel" x="198.37" y="162.00">2</text>
<text class="belong" x="198.37" y="172.00">(1, 2, 3, 4)</text>
<circle onclick="fromCircle(127)" class="circle" cx="222.4910" cy="236.4884" r="30.5476" />
<text class="tLabel" x="222.49" y="216.49"></text>
<text class="nLabel" x="222.49" y="231.49">6</text>
<text class="belong" x="222.49" y="241.49">(1, 2, 3, 4, 5, 6, 7)</text>
<circle onclick="fromCircle(2)" class="circle" cx="161.3662" cy="70.2185" r="12.4710" />
<text class="tLabel" x="161.37" y="50.22"></text>
<text class="nLabel" x="161.37" y="65.22">1</text>
<text class="belong" x="161.37" y="75.22">(2)</text>
<circle onclick="fromCircle(6)" class="circle" cx="217.5902" cy="42.9420" r="21.6004" />
<text class="tLabel" x="217.59" y="22.94"></text>
<text class="nLabel" x="217.59" y="37.94">3</text>
<text class="belong" x="217.59" y="47.94">(2, 3)</text>
<circle onclick="fromCircle(14)" class="circle" cx="204.2697" cy="106.7994" r="32.9952" />
<text class="tLabel" x="204.27" y="86.80"></text>
<text class="nLabel" x="204.27" y="101.80">7</text>
<text class="belong" x="204.27" y="111.80">(2, 3, 4)</text>
<circle onclick="fromCircle(10)" class="circle" cx="111.5472" cy="157.6636" r="35.2733" />
<text class="tLabel" x="111.55" y="137.66"></text>
<text class="nLabel" x="111.55" y="152.66">8</text>
<text class="belong" x="111.55" y="162.66">(2, 4)</text>
<circle onclick="fromCircle(18)" class="circle" cx="223.9773" cy="311.1630" r="27.8860" />
<text class="tLabel" x="223.98" y="291.16"></text>
<text class="nLabel" x="223.98" y="306.16">5</text>
<text class="belong" x="223.98" y="316.16">(2, 5)</text>
<circle onclick="fromCircle(130)" class="circle" cx="134.2420" cy="90.3335" r="12.4710" />
<text class="tLabel" x="134.24" y="70.33"></text>
<text class="nLabel" x="134.24" y="85.33">1</text>
<text class="belong" x="134.24" y="95.33">(2, 8)</text>
<circle onclick="fromCircle(4)" class="circle" cx="268.6698" cy="52.3632" r="21.6004" />
<text class="tLabel" x="268.67" y="32.36"></text>
<text class="nLabel" x="268.67" y="47.36">3</text>
<text class="belong" x="268.67" y="57.36">(3)</text>
<circle onclick="fromCircle(5)" class="circle" cx="309.3655" cy="151.6213" r="21.6004" />
<text class="tLabel" x="309.37" y="131.62"></text>
<text class="nLabel" x="309.37" y="146.62">3</text>
<text class="belong" x="309.37" y="156.62">(1, 3)</text>
<circle onclick="fromCircle(13)" class="circle" cx="252.6065" cy="168.2142" r="27.8860" />
<text class="tLabel" x="252.61" y="148.21"></text>
<text class="nLabel" x="252.61" y="163.21">5</text>
<text class="belong" x="252.61" y="173.21">(1, 3, 4)</text>
<circle onclick="fromCircle(12)" class="circle" cx="273.3419" cy="108.2574" r="24.9420" />
<text class="tLabel" x="273.34" y="88.26"></text>
<text class="nLabel" x="273.34" y="103.26">4</text>
<text class="belong" x="273.34" y="113.26">(3, 4)</text>
<circle onclick="fromCircle(20)" class="circle" cx="371.9520" cy="205.5454" r="27.8860" />
<text class="tLabel" x="371.95" y="185.55"></text>
<text class="nLabel" x="371.95" y="200.55">5</text>
<text class="belong" x="371.95" y="210.55">(3, 5)</text>
<circle onclick="fromCircle(21)" class="circle" cx="305.7285" cy="214.8613" r="27.8860" />
<text class="tLabel" x="305.73" y="194.86"></text>
<text class="nLabel" x="305.73" y="209.86">5</text>
<text class="belong" x="305.73" y="219.86">(1, 3, 5)</text>
<circle onclick="fromCircle(8)" class="circle" cx="74.0337" cy="201.9012" r="12.4710" />
<text class="tLabel" x="74.03" y="181.90"></text>
<text class="nLabel" x="74.03" y="196.90">1</text>
<text class="belong" x="74.03" y="206.90">(4)</text>
<circle onclick="fromCircle(9)" class="circle" cx="114.3147" cy="239.4786" r="32.9952" />
<text class="tLabel" x="114.31" y="219.48"></text>
<text class="nLabel" x="114.31" y="234.48">7</text>
<text class="belong" x="114.31" y="244.48">(1, 4)</text>
<circle onclick="fromCircle(11)" class="circle" cx="168.4862" cy="203.0674" r="21.6004" />
<text class="tLabel" x="168.49" y="183.07"></text>
<text class="nLabel" x="168.49" y="198.07">3</text>
<text class="belong" x="168.49" y="208.07">(1, 2, 4)</text>
<circle onclick="fromCircle(40)" class="circle" cx="182.0823" cy="278.9052" r="12.4710" />
<text class="tLabel" x="182.08" y="258.91"></text>
<text class="nLabel" x="182.08" y="273.91">1</text>
<text class="belong" x="182.08" y="283.91">(4, 6)</text>
<circle onclick="fromCircle(16)" class="circle" cx="202.4019" cy="354.0743" r="12.4710" />
<text class="tLabel" x="202.40" y="334.07"></text>
<text class="nLabel" x="202.40" y="349.07">1</text>
<text class="belong" x="202.40" y="359.07">(5)</text>
<circle onclick="fromCircle(17)" class="circle" cx="346.9549" cy="267.5361" r="27.8860" />
<text class="tLabel" x="346.95" y="247.54"></text>
<text class="nLabel" x="346.95" y="262.54">5</text>
<text class="belong" x="346.95" y="272.54">(1, 5)</text>
<circle onclick="fromCircle(19)" class="circle" cx="280.9415" cy="276.9236" r="27.8860" />
<text class="tLabel" x="280.94" y="256.92"></text>
<text class="nLabel" x="280.94" y="271.92">5</text>
<text class="belong" x="280.94" y="281.92">(1, 2, 5)</text>
<circle onclick="fromCircle(80)" class="circle" cx="348.6043" cy="163.2954" r="12.4710" />
<text class="tLabel" x="348.60" y="143.30"></text>
<text class="nLabel" x="348.60" y="158.30">1</text>
<text class="belong" x="348.60" y="168.30">(5, 7)</text>
<circle onclick="fromCircle(32)" class="circle" cx="169.2456" cy="313.1409" r="17.6367" />
<text class="tLabel" x="169.25" y="293.14"></text>
<text class="nLabel" x="169.25" y="308.14">2</text>
<text class="belong" x="169.25" y="318.14">(6)</text>
<circle onclick="fromCircle(96)" class="circle" cx="152.0341" cy="281.5739" r="12.4710" />
<text class="tLabel" x="152.03" y="261.57"></text>
<text class="nLabel" x="152.03" y="276.57">1</text>
<text class="belong" x="152.03" y="286.57">(6, 7)</text>
<circle onclick="fromCircle(64)" class="circle" cx="116.9908" cy="309.1543" r="24.9420" />
<text class="tLabel" x="116.99" y="289.15"></text>
<text class="nLabel" x="116.99" y="304.15">4</text>
<text class="belong" x="116.99" y="314.15">(7)</text>
<circle onclick="fromCircle(128)" class="circle" cx="92.0473" cy="52.0262" r="35.2733" />
<text class="tLabel" x="92.05" y="32.03"></text>
<text class="nLabel" x="92.05" y="47.03">8</text>
<text class="belong" x="92.05" y="57.03">(8)</text>
<rect class="p0 borderLine" x="500.00" y="50.00" width="30.00" height="15.00" />
<rect class="q0" x="500.00" y="50.00" width="30.00" height="15.00" />
<text class="legend" x="540.00" y="65.00">Ball2017</text>
<rect class="p1 borderLine" x="500.00" y="90.00" width="30.00" height="15.00" />
<rect class="q1" x="500.00" y="90.00" width="30.00" height="15.00" />
<text class="legend" x="540.00" y="105.00">Courtois2015</text>
<rect class="p2 borderLine" x="500.00" y="130.00" width="30.00" height="15.00" />
<rect class="q2" x="500.00" y="130.00" width="30.00" height="15.00" />
<text class="legend" x="540.00" y="145.00">Hilton2017</text>
<rect class="p3 borderLine" x="500.00" y="170.00" width="30.00" height="15.00" />
<rect class="q3" x="500.00" y="170.00" width="30.00" height="15.00" />
<text class="legend" x="540.00" y="185.00">Ball2017</text>
<rect class="p4 borderLine" x="500.00" y="210.00" width="30.00" height="15.00" />
<rect class="q4" x="500.00" y="210.00" width="30.00" height="15.00" />
<text class="legend" x="540.00" y="225.00">Ball2017</text>
<rect class="p5 borderLine" x="500.00" y="250.00" width="30.00" height="15.00" />
<rect class="q5" x="500.00" y="250.00" width="30.00" height="15.00" />
<text class="legend" x="540.00" y="265.00">Ball2017</text>
<rect class="p6 borderLine" x="500.00" y="290.00" width="30.00" height="15.00" />
<rect class="q6" x="500.00" y="290.00" width="30.00" height="15.00" />
<text class="legend" x="540.00" y="305.00">Courtois2015</text>
<rect class="p7 borderLine" x="500.00" y="330.00" width="30.00" height="15.00" />
<rect class="q7" x="500.00" y="330.00" width="30.00" height="15.00" />
<text class="legend" x="540.00" y="345.00">Hilton2017</text>
</svg>
