<svg xmlns="http://www.w3.org/2000/svg" xmlns:xlink="http://www.w3.org/1999/xlink" width="700" height="500">
<defs>
<style type="text/css"><![CDATA[
  .borderLine {
	   stroke: none;
	   fill-opacity: 0.4;
  }
  .outLine {
	   stroke-width: 1;
	   fill: none;
  }
  .circle {
	   stroke: #888888;
	   stroke-width: 0.5;
	   fill: none;
    pointer-events: all;
  }
  .spcircle {
	   stroke: #FF2222;
	   stroke-width: 1;
	   fill: none;
    pointer-events: all;
  }
  .tLabel {
	   font-family: Arial;
    pointer-events: none;
	   font-size: 14px;
	   text-anchor: middle;
	   alignment-baseline: central;
  }
  .nLabel {
	   font-family: Arial;
    pointer-events: none;
	   font-size: 10px;
	   text-anchor: middle;
	   alignment-baseline: central;
  }
  .belong {
	   font-family: Arial;
    pointer-events: none;
	   font-size: 5px;
	   text-anchor: middle;
	   alignment-baseline: central;
  }
  .p0{
    stroke: none;
    fill: #e6194b;
  }
  .q0{
    fill: none;
    stroke: #e6194b;
  }
  .p1{
    stroke: none;
    fill: #3cb44b;
  }
  .q1{
    fill: none;
    stroke: #3cb44b;
  }
  .p2{
    stroke: none;
    fill: #ffe119;
  }
  .q2{
    fill: none;
    stroke: #ffe119;
  }
  .p3{
    stroke: none;
    fill: #0082c8;
  }
  .q3{
    fill: none;
    stroke: #0082c8;
  }
]]>
</style>
<symbol id="bl0">
<path d="M 277.35 146.12 L 212.90 46.89 L 105.97 97.54 L 141.92 210.27 L 258.43 189.65 L 374.57 283.01 L 378.89 400.61 L 495.92 413.09 L 524.95 299.05 L 416.21 254.05 L 413.82 246.90 L 473.72 178.36 L 443.04 92.67 L 353.25 77.73 L 296.47 148.86 Z" />
</symbol>
<symbol id="bl1">
<path d="M 209.94 366.07 L 84.21 382.65 L 100.25 508.45 L 226.11 492.96 L 211.18 367.03 L 211.13 367.09 L 277.88 385.82 L 338.10 351.47 L 355.95 284.48 L 320.81 224.72 L 321.07 224.37 L 313.52 107.73 L 427.59 82.28 L 427.87 81.91 L 553.57 64.06 L 536.00 -61.67 L 410.23 -44.38 L 427.24 81.43 L 426.88 81.90 L 456.85 216.17 L 319.43 222.64 L 318.91 223.33 L 195.47 242.09 L 209.91 366.10 Z" />
</symbol>
<symbol id="bl2">
<path d="M 151.38 282.48 L 99.25 183.08 L -9.19 212.07 L -4.77 324.23 L 105.61 344.59 L 112.95 358.29 L 65.69 442.72 L 122.42 521.09 L 217.39 502.56 L 240.50 408.61 L 359.51 368.20 L 462.25 427.43 L 534.27 333.21 L 450.15 249.61 L 356.38 322.21 Z" />
</symbol>
<symbol id="bl3">
<path d="M 227.34 214.34 L 269.76 95.19 L 151.02 51.62 L 106.30 169.93 L 224.17 215.78 L 307.42 407.56 L 260.47 525.09 L 377.59 573.03 L 426.52 456.31 L 310.22 406.40 L 299.89 380.22 L 349.97 330.91 L 349.25 260.63 L 298.17 212.37 L 227.96 215.63 Z" />
</symbol>
</defs>
<!-- isDone: 0 -->
<rect width="700" height="500" style="fill:#fff;stroke-width:0" />
<use class="p0 borderLine" xlink:href="#bl0"/>
<use class="p1 borderLine" xlink:href="#bl1"/>
<use class="p2 borderLine" xlink:href="#bl2"/>
<use class="p3 borderLine" xlink:href="#bl3"/>
<use class="q0 outLine" xlink:href="#bl0"/>
<use class="q1 outLine" xlink:href="#bl1"/>
<use class="q2 outLine" xlink:href="#bl2"/>
<use class="q3 outLine" xlink:href="#bl3"/>
<circle onclick="fromCircle(1)" class="circle" cx="385.4230" cy="161.6376" r="39.2503" />
<text class="tLabel" x="385.42" y="141.64"></text>
<text class="nLabel" x="385.42" y="156.64">1378</text>
<text class="belong" x="385.42" y="166.64">(1)</text>
<circle onclick="fromCircle(2)" class="circle" cx="481.7777" cy="10.0000" r="44.9342" />
<text class="tLabel" x="481.78" y="-10.00"></text>
<text class="nLabel" x="481.78" y="5.00">1806</text>
<text class="belong" x="481.78" y="15.00">(2)</text>
<circle onclick="fromCircle(6)" class="spcircle" cx="155.4037" cy="437.4963" r="4.6356" />
<text class="tLabel" x="155.40" y="417.50"></text>
<text class="nLabel" x="155.40" y="432.50">8</text>
<text class="belong" x="155.40" y="442.50">(2, 3)</text>
<circle onclick="fromCircle(10)" class="spcircle" cx="266.9045" cy="296.6221" r="5.6940" />
<text class="tLabel" x="266.90" y="276.62"></text>
<text class="nLabel" x="266.90" y="291.62">29</text>
<text class="belong" x="266.90" y="301.62">(2, 4)</text>
<circle onclick="fromCircle(4)" class="circle" cx="63.1565" cy="265.3860" r="8.8464" />
<text class="tLabel" x="63.16" y="245.39"></text>
<text class="nLabel" x="63.16" y="260.39">70</text>
<text class="belong" x="63.16" y="270.39">(3)</text>
<circle onclick="fromCircle(5)" class="circle" cx="444.6086" cy="339.3122" r="7.1713" />
<text class="tLabel" x="444.61" y="319.31"></text>
<text class="nLabel" x="444.61" y="334.31">46</text>
<text class="belong" x="444.61" y="344.31">(1, 3)</text>
<circle onclick="fromCircle(8)" class="circle" cx="343.2012" cy="490.0000" r="6.6031" />
<text class="tLabel" x="343.20" y="470.00"></text>
<text class="nLabel" x="343.20" y="485.00">39</text>
<text class="belong" x="343.20" y="495.00">(4)</text>
<circle onclick="fromCircle(9)" class="circle" cx="188.3915" cy="133.3471" r="4.6356" />
<text class="tLabel" x="188.39" y="113.35"></text>
<text class="nLabel" x="188.39" y="128.35">6</text>
<text class="belong" x="188.39" y="138.35">(1, 4)</text>
<rect class="p0 borderLine" x="500.00" y="50.00" width="30.00" height="15.00" />
<rect class="q0" x="500.00" y="50.00" width="30.00" height="15.00" />
<text class="legend" x="540.00" y="65.00">Up_in_POU3F2_KO_iNs</text>
<rect class="p1 borderLine" x="500.00" y="90.00" width="30.00" height="15.00" />
<rect class="q1" x="500.00" y="90.00" width="30.00" height="15.00" />
<text class="legend" x="540.00" y="105.00">Down_in_POU3F2_KO_iNs</text>
<rect class="p2 borderLine" x="500.00" y="130.00" width="30.00" height="15.00" />
<rect class="q2" x="500.00" y="130.00" width="30.00" height="15.00" />
<text class="legend" x="540.00" y="145.00">Up_in_VGF_KO_iNs</text>
<rect class="p3 borderLine" x="500.00" y="170.00" width="30.00" height="15.00" />
<rect class="q3" x="500.00" y="170.00" width="30.00" height="15.00" />
<text class="legend" x="540.00" y="185.00">Down_in_VGF_KO_iNs</text>
</svg>
