<svg xmlns="http://www.w3.org/2000/svg" xmlns:xlink="http://www.w3.org/1999/xlink" width="700" height="500">
<defs>
<style type="text/css"><![CDATA[
  .borderLine {
	   stroke: none;
	   fill-opacity: 0.4;
  }
  .outLine {
	   stroke-width: 1;
	   fill: none;
  }
  .circle {
	   stroke: #888888;
	   stroke-width: 0.5;
	   fill: none;
    pointer-events: all;
  }
  .spcircle {
	   stroke: #FF2222;
	   stroke-width: 1;
	   fill: none;
    pointer-events: all;
  }
  .tLabel {
	   font-family: Arial;
    pointer-events: none;
	   font-size: 14px;
	   text-anchor: middle;
	   alignment-baseline: central;
  }
  .nLabel {
	   font-family: Arial;
    pointer-events: none;
	   font-size: 10px;
	   text-anchor: middle;
	   alignment-baseline: central;
  }
  .belong {
	   font-family: Arial;
    pointer-events: none;
	   font-size: 5px;
	   text-anchor: middle;
	   alignment-baseline: central;
  }
  .p0{
    stroke: none;
    fill: #e6194b;
  }
  .q0{
    fill: none;
    stroke: #e6194b;
  }
  .p1{
    stroke: none;
    fill: #3cb44b;
  }
  .q1{
    fill: none;
    stroke: #3cb44b;
  }
  .p2{
    stroke: none;
    fill: #ffe119;
  }
  .q2{
    fill: none;
    stroke: #ffe119;
  }
  .p3{
    stroke: none;
    fill: #0082c8;
  }
  .q3{
    fill: none;
    stroke: #0082c8;
  }
]]>
</style>
<symbol id="bl0">
<path d="M 168.79 68.15 L 122.64 31.17 L 71.86 61.48 L 82.50 119.66 L 140.72 130.03 L 216.41 294.85 L 186.22 340.22 L 213.27 387.53 L 267.69 384.53 L 289.37 334.53 L 335.11 327.89 L 335.11 327.89 L 415.28 316.26 L 459.15 257.49 L 517.92 301.36 L 474.05 360.13 L 415.28 316.26 L 335.11 327.89 L 335.87 333.12 L 316.52 318.68 L 227.83 437.49 L 238.36 510.06 L 165.78 520.60 L 155.25 448.02 L 227.83 437.49 L 316.52 318.68 L 277.30 289.40 L 269.07 300.42 L 279.60 373.00 L 207.03 383.53 L 196.49 310.96 L 269.07 300.42 L 277.30 289.40 L 277.10 289.25 L 320.98 230.48 L 379.74 274.36 L 335.87 333.12 L 335.11 327.89 L 415.28 316.26 L 422.04 335.33 L 435.58 350.36 L 474.05 360.13 L 474.05 360.13 L 516.35 294.20 L 445.11 261.62 L 445.11 261.62 L 381.24 121.36 L 360.23 130.93 L 334.52 199.61 L 265.84 173.91 L 291.54 105.23 L 360.23 130.93 L 381.24 121.36 L 356.10 66.14 L 386.46 18.95 L 356.11 -28.24 L 300.57 -20.18 L 284.89 33.70 Z" />
</symbol>
<symbol id="bl1">
<path d="M 83.86 218.35 L 55.96 159.74 L -7.31 174.30 L -6.77 239.22 L 56.72 252.74 L 77.69 294.37 L 51.24 326.15 L 56.43 367.17 L 89.97 391.35 L 130.53 383.32 L 167.29 436.41 L 146.01 489.46 L 186.44 529.85 L 239.47 508.52 L 240.66 451.37 L 319.99 401.32 L 269.88 321.89 L 281.90 314.31 L 265.72 385.83 L 220.22 375.54 L 208.25 428.47 L 247.38 490.49 L 185.36 529.62 L 146.23 467.60 L 208.25 428.47 L 220.22 375.54 L 194.19 369.65 L 210.38 298.12 L 281.90 314.31 L 269.88 321.89 L 150.43 132.58 L 77.25 178.75 L 61.07 250.28 L -10.46 234.10 L 5.73 162.57 L 77.25 178.75 L 150.43 132.58 L 146.75 126.76 L 75.23 110.58 L 91.41 39.05 L 162.94 55.23 L 146.75 126.76 L 246.33 284.58 L 353.68 216.85 L 340.70 196.28 L 269.18 180.09 L 285.36 108.57 L 356.89 124.75 L 340.70 196.28 L 353.68 216.85 L 410.07 181.27 L 426.26 109.74 L 497.78 125.92 L 481.60 197.45 L 410.07 181.27 L 392.94 192.07 L 438.93 264.96 L 510.46 281.14 L 494.27 352.67 L 422.75 336.48 L 438.93 264.96 L 392.94 192.07 L 246.33 284.58 L 319.99 401.32 L 422.75 336.48 L 485.07 357.27 L 517.75 300.27 L 468.33 256.98 L 416.14 296.88 L 329.69 276.45 L 340.35 231.34 L 378.89 293.73 L 316.49 332.27 L 277.96 269.88 L 340.35 231.34 L 329.69 276.45 Z" />
</symbol>
<symbol id="bl2">
<path d="M 104.64 288.95 L 60.91 307.82 L 51.01 354.40 L 83.30 389.42 L 130.53 383.32 L 167.29 436.41 L 145.40 485.83 L 179.37 527.88 L 232.29 516.86 L 246.65 464.75 L 315.73 444.93 L 352.22 480.74 L 401.70 467.84 L 416.05 418.76 L 381.33 381.23 L 399.81 323.29 L 82.80 222.18 L 17.64 255.83 L -16.00 190.67 L 49.16 157.02 L 82.80 222.18 L 399.81 323.29 L 438.17 203.00 L 494.37 186.05 L 498.75 127.51 L 445.69 102.40 L 403.19 142.88 L 318.81 125.07 L 323.74 101.68 L 363.77 163.13 L 302.32 203.16 L 262.30 141.71 L 323.74 101.68 L 318.81 125.07 L 169.82 93.62 L 146.90 39.14 L 87.85 41.51 L 69.36 97.64 L 115.46 134.63 L 105.02 283.47 L 414.87 305.18 L 470.23 257.08 L 518.33 312.44 L 462.98 360.54 L 414.87 305.18 L 241.48 293.03 L 241.67 290.25 L 289.78 345.60 L 234.42 393.71 L 186.32 338.35 L 241.67 290.25 L 241.48 293.03 L 210.00 290.83 L 200.43 427.31 L 248.53 482.67 L 193.18 530.77 L 145.08 475.42 L 200.43 427.31 L 210.00 290.83 L 105.02 283.47 Z" />
</symbol>
<symbol id="bl3">
<path d="M 84.31 196.59 L 39.33 154.91 L -13.95 185.28 L -1.00 245.22 L 60.06 250.90 L 121.25 353.00 L 121.25 353.00 L 60.06 250.90 L -11.08 233.09 L 6.74 161.95 L 77.88 179.77 L 60.06 250.90 L 121.25 353.00 L 409.45 180.25 L 427.27 109.12 L 498.41 126.93 L 480.59 198.07 L 409.45 180.25 L 305.06 242.83 L 301.76 237.33 L 372.90 255.14 L 355.08 326.28 L 283.94 308.46 L 301.76 237.33 L 305.06 242.83 L 121.25 353.00 L 170.14 434.57 L 145.12 483.30 L 177.78 527.28 L 231.66 517.43 L 246.65 464.75 L 315.73 444.93 L 347.49 479.23 L 393.94 474.04 L 417.34 433.57 L 398.67 390.72 L 433.50 348.73 L 489.63 355.27 L 518.41 306.63 L 485.66 260.58 L 430.27 271.81 L 349.37 189.42 L 363.44 140.23 L 328.45 102.91 L 278.46 113.77 L 262.12 162.25 Z" />
</symbol>
</defs>
<!-- isDone: 0 -->
<rect width="700" height="500" style="fill:#fff;stroke-width:0" />
<use class="p0 borderLine" xlink:href="#bl0"/>
<use class="p1 borderLine" xlink:href="#bl1"/>
<use class="p2 borderLine" xlink:href="#bl2"/>
<use class="p3 borderLine" xlink:href="#bl3"/>
<use class="q0 outLine" xlink:href="#bl0"/>
<use class="q1 outLine" xlink:href="#bl1"/>
<use class="q2 outLine" xlink:href="#bl2"/>
<use class="q3 outLine" xlink:href="#bl3"/>
<circle onclick="fromCircle(1)" class="circle" cx="334.6059" cy="18.9499" r="9.0220" />
<text class="tLabel" x="334.61" y="-1.05"></text>
<text class="nLabel" x="334.61" y="13.95">2</text>
<text class="belong" x="334.61" y="23.95">(1)</text>
<circle onclick="fromCircle(2)" class="circle" cx="119.0812" cy="82.9059" r="9.7998" />
<text class="tLabel" x="119.08" y="62.91"></text>
<text class="nLabel" x="119.08" y="77.91">12</text>
<text class="belong" x="119.08" y="87.91">(2)</text>
<circle onclick="fromCircle(6)" class="circle" cx="101.0141" cy="340.6831" r="9.0220" />
<text class="tLabel" x="101.01" y="320.68"></text>
<text class="nLabel" x="101.01" y="335.68">6</text>
<text class="belong" x="101.01" y="345.68">(2, 3)</text>
<circle onclick="fromCircle(14)" class="circle" cx="453.9292" cy="153.5946" r="9.0220" />
<text class="tLabel" x="453.93" y="133.59"></text>
<text class="nLabel" x="453.93" y="148.59">1</text>
<text class="belong" x="453.93" y="158.59">(2, 3, 4)</text>
<circle onclick="fromCircle(10)" class="circle" cx="313.0330" cy="152.4205" r="9.3826" />
<text class="tLabel" x="313.03" y="132.42"></text>
<text class="nLabel" x="313.03" y="147.42">11</text>
<text class="belong" x="313.03" y="157.42">(2, 4)</text>
<circle onclick="fromCircle(4)" class="circle" cx="328.4221" cy="281.8030" r="14.9694" />
<text class="tLabel" x="328.42" y="261.80"></text>
<text class="nLabel" x="328.42" y="276.80">28</text>
<text class="belong" x="328.42" y="286.80">(3)</text>
<circle onclick="fromCircle(5)" class="circle" cx="33.3992" cy="206.4256" r="9.0220" />
<text class="tLabel" x="33.40" y="186.43"></text>
<text class="nLabel" x="33.40" y="201.43">7</text>
<text class="belong" x="33.40" y="211.43">(1, 3)</text>
<circle onclick="fromCircle(13)" class="circle" cx="466.6008" cy="308.8105" r="9.0220" />
<text class="tLabel" x="466.60" y="288.81"></text>
<text class="nLabel" x="466.60" y="303.81">2</text>
<text class="belong" x="466.60" y="313.81">(1, 3, 4)</text>
<circle onclick="fromCircle(12)" class="circle" cx="365.5725" cy="430.6334" r="11.3158" />
<text class="tLabel" x="365.57" y="410.63"></text>
<text class="nLabel" x="365.57" y="425.63">16</text>
<text class="belong" x="365.57" y="435.63">(3, 4)</text>
<circle onclick="fromCircle(8)" class="circle" cx="238.0471" cy="341.9772" r="25.9278" />
<text class="tLabel" x="238.05" y="321.98"></text>
<text class="nLabel" x="238.05" y="336.98">84</text>
<text class="belong" x="238.05" y="346.98">(4)</text>
<circle onclick="fromCircle(9)" class="circle" cx="196.8046" cy="479.0435" r="10.9565" />
<text class="tLabel" x="196.80" y="459.04"></text>
<text class="nLabel" x="196.80" y="474.04">15</text>
<text class="belong" x="196.80" y="484.04">(1, 4)</text>
<rect class="p0 borderLine" x="500.00" y="50.00" width="30.00" height="15.00" />
<rect class="q0" x="500.00" y="50.00" width="30.00" height="15.00" />
<text class="legend" x="540.00" y="65.00">S_salivarius</text>
<rect class="p1 borderLine" x="500.00" y="90.00" width="30.00" height="15.00" />
<rect class="q1" x="500.00" y="90.00" width="30.00" height="15.00" />
<text class="legend" x="540.00" y="105.00">Other</text>
<rect class="p2 borderLine" x="500.00" y="130.00" width="30.00" height="15.00" />
<rect class="q2" x="500.00" y="130.00" width="30.00" height="15.00" />
<text class="legend" x="540.00" y="145.00">GAS</text>
<rect class="p3 borderLine" x="500.00" y="170.00" width="30.00" height="15.00" />
<rect class="q3" x="500.00" y="170.00" width="30.00" height="15.00" />
<text class="legend" x="540.00" y="185.00">GCS/GGS</text>
</svg>
