<svg xmlns="http://www.w3.org/2000/svg" xmlns:xlink="http://www.w3.org/1999/xlink" width="700" height="500">
<defs>
<style type="text/css"><![CDATA[
  .borderLine {
	   stroke: none;
	   fill-opacity: 0.4;
  }
  .outLine {
	   stroke-width: 1;
	   fill: none;
  }
  .circle {
	   stroke: #888888;
	   stroke-width: 0.5;
	   fill: none;
    pointer-events: all;
  }
  .spcircle {
	   stroke: #FF2222;
	   stroke-width: 1;
	   fill: none;
    pointer-events: all;
  }
  .tLabel {
	   font-family: Arial;
    pointer-events: none;
	   font-size: 14px;
	   text-anchor: middle;
	   alignment-baseline: central;
  }
  .nLabel {
	   font-family: Arial;
    pointer-events: none;
	   font-size: 10px;
	   text-anchor: middle;
	   alignment-baseline: central;
  }
  .belong {
	   font-family: Arial;
    pointer-events: none;
	   font-size: 5px;
	   text-anchor: middle;
	   alignment-baseline: central;
  }
  .p0{
    stroke: none;
    fill: #e6194b;
  }
  .q0{
    fill: none;
    stroke: #e6194b;
  }
  .p1{
    stroke: none;
    fill: #3cb44b;
  }
  .q1{
    fill: none;
    stroke: #3cb44b;
  }
  .p2{
    stroke: none;
    fill: #ffe119;
  }
  .q2{
    fill: none;
    stroke: #ffe119;
  }
  .p3{
    stroke: none;
    fill: #0082c8;
  }
  .q3{
    fill: none;
    stroke: #0082c8;
  }
  .p4{
    stroke: none;
    fill: #f58231;
  }
  .q4{
    fill: none;
    stroke: #f58231;
  }
  .p5{
    stroke: none;
    fill: #911eb4;
  }
  .q5{
    fill: none;
    stroke: #911eb4;
  }
]]>
</style>
<symbol id="bl0">
<path d="M 126.18 208.73 L 93.43 198.93 L 71.81 225.40 L 87.94 255.53 L 121.96 252.20 L 171.65 312.92 L 160.37 335.76 L 170.16 359.28 L 194.31 367.38 L 216.30 354.52 L 245.77 375.34 L 253.98 417.03 L 296.02 410.83 L 331.16 435.65 L 332.63 473.10 L 369.18 481.39 L 386.67 448.23 L 359.18 422.75 L 361.64 396.49 L 389.70 368.68 L 367.29 336.14 L 379.62 204.34 L 360.94 202.59 L 327.41 230.38 L 299.62 196.85 L 333.15 169.06 L 360.94 202.59 L 379.62 204.34 L 382.78 170.63 L 413.72 152.62 L 406.71 117.51 L 371.22 112.77 L 355.24 144.81 L 197.73 169.84 L 181.92 147.56 L 154.63 146.61 L 137.31 167.73 L 143.59 194.31 Z" />
</symbol>
<symbol id="bl1">
<path d="M 160.24 51.24 L 139.83 23.60 L 106.53 32.07 L 101.80 66.11 L 131.54 83.33 L 137.82 176.65 L 136.59 176.73 L 165.25 143.94 L 198.04 172.60 L 169.38 205.39 L 136.59 176.73 L 137.82 176.65 L 151.16 375.17 L 123.93 396.41 L 133.55 429.59 L 167.93 432.95 L 183.81 402.28 L 241.17 395.49 L 261.90 421.05 L 293.87 413.30 L 300.59 381.08 L 274.38 361.19 L 292.38 150.93 L 318.56 140.08 L 324.79 112.44 L 305.80 91.41 L 277.66 94.80 L 262.75 72.93 L 276.13 45.42 L 259.20 19.95 L 228.65 21.65 L 214.64 48.84 Z" />
</symbol>
<symbol id="bl2">
<path d="M 74.00 106.23 L 42.42 85.52 L 14.53 110.99 L 32.29 144.32 L 68.98 135.37 L 334.93 346.65 L 333.24 382.62 L 366.82 395.60 L 389.76 367.85 L 370.70 337.31 L 405.20 253.03 L 436.38 248.35 L 447.10 218.70 L 426.12 195.16 L 395.44 202.41 L 266.83 69.61 L 275.11 39.36 L 252.60 17.54 L 222.63 26.76 L 216.28 57.47 L 188.76 66.90 L 191.75 75.61 L 230.86 94.76 L 211.72 133.87 L 172.60 114.73 L 191.75 75.61 L 188.76 66.90 Z" />
</symbol>
<symbol id="bl3">
<path d="M 164.50 377.24 L 126.69 390.26 L 133.63 429.65 L 173.61 428.97 L 179.22 389.38 L 322.47 298.34 L 342.95 312.12 L 366.96 306.44 L 379.10 284.96 L 371.56 261.46 L 392.33 243.15 L 396.50 201.43 L 438.41 202.53 L 458.46 184.86 L 492.63 193.24 L 512.35 164.11 L 491.90 135.49 L 457.95 144.73 L 364.38 66.36 L 367.84 31.90 L 337.06 16.02 L 310.98 38.80 L 322.57 71.43 L 307.44 92.08 L 270.17 102.05 L 271.90 140.60 L 259.25 157.86 L 234.41 152.64 L 214.08 167.84 L 212.08 193.15 L 229.78 211.36 L 222.45 229.99 L 237.25 235.81 L 277.18 218.43 L 294.56 258.36 L 254.63 275.74 L 237.25 235.81 L 222.45 229.99 Z" />
</symbol>
<symbol id="bl4">
<path d="M 25.54 197.85 L -6.78 210.14 L -7.31 244.71 L 24.61 257.98 L 48.75 233.23 L 151.22 251.55 L 165.22 283.09 L 199.70 281.84 L 211.37 249.37 L 185.58 226.45 L 197.68 135.27 L 229.14 118.78 L 224.14 83.62 L 189.33 76.56 L 171.02 106.99 L 75.59 113.97 L 56.75 87.80 L 24.90 92.77 L 14.94 123.43 L 37.78 146.18 Z" />
</symbol>
<symbol id="bl5">
<path d="M 408.77 53.76 L 404.12 72.82 L 411.93 90.83 L 429.04 100.46 L 448.48 97.80 L 467.88 136.91 L 464.65 138.76 L 461.67 140.99 L 458.98 143.57 L 456.61 146.45 L -226.07 -347.50 Z" />
</symbol>
</defs>
<!-- isDone: 0 -->
<rect width="700" height="500" style="fill:#fff;stroke-width:0" />
<use class="p0 borderLine" xlink:href="#bl0"/>
<use class="p1 borderLine" xlink:href="#bl1"/>
<use class="p2 borderLine" xlink:href="#bl2"/>
<use class="p3 borderLine" xlink:href="#bl3"/>
<use class="p4 borderLine" xlink:href="#bl4"/>
<use class="p5 borderLine" xlink:href="#bl5"/>
<use class="q0 outLine" xlink:href="#bl0"/>
<use class="q1 outLine" xlink:href="#bl1"/>
<use class="q2 outLine" xlink:href="#bl2"/>
<use class="q3 outLine" xlink:href="#bl3"/>
<use class="q4 outLine" xlink:href="#bl4"/>
<use class="q5 outLine" xlink:href="#bl5"/>
<circle onclick="fromCircle(1)" class="circle" cx="356.3106" cy="453.4128" r="15.3970" />
<text class="tLabel" x="356.31" y="433.41"></text>
<text class="nLabel" x="356.31" y="448.41">40</text>
<text class="belong" x="356.31" y="458.41">(1)</text>
<circle onclick="fromCircle(3)" class="circle" cx="271.7503" cy="391.8764" r="8.4740" />
<text class="tLabel" x="271.75" y="371.88"></text>
<text class="nLabel" x="271.75" y="386.88">1</text>
<text class="belong" x="271.75" y="396.88">(1, 2)</text>
<circle onclick="fromCircle(7)" class="circle" cx="265.9013" cy="247.0853" r="8.4740" />
<text class="tLabel" x="265.90" y="227.09"></text>
<text class="nLabel" x="265.90" y="242.09">1</text>
<text class="belong" x="265.90" y="252.09">(1, 2, 3)</text>
<circle onclick="fromCircle(15)" class="spcircle" cx="241.0510" cy="182.7050" r="8.4740" />
<text class="tLabel" x="241.05" y="162.71"></text>
<text class="nLabel" x="241.05" y="177.71">2</text>
<text class="belong" x="241.05" y="187.71">(1, 2, 3, 4)</text>
<circle onclick="fromCircle(2)" class="circle" cx="129.4763" cy="52.6008" r="8.4740" />
<text class="tLabel" x="129.48" y="32.60"></text>
<text class="nLabel" x="129.48" y="47.60">1</text>
<text class="belong" x="129.48" y="57.60">(2)</text>
<circle onclick="fromCircle(6)" class="circle" cx="245.4091" cy="47.4847" r="8.4740" />
<text class="tLabel" x="245.41" y="27.48"></text>
<text class="nLabel" x="245.41" y="42.48">3</text>
<text class="belong" x="245.41" y="52.48">(2, 3)</text>
<circle onclick="fromCircle(14)" class="circle" cx="295.0075" cy="120.2480" r="8.4740" />
<text class="tLabel" x="295.01" y="100.25"></text>
<text class="nLabel" x="295.01" y="115.25">7</text>
<text class="belong" x="295.01" y="125.25">(2, 3, 4)</text>
<circle onclick="fromCircle(10)" class="circle" cx="153.2254" cy="405.8938" r="8.4740" />
<text class="tLabel" x="153.23" y="385.89"></text>
<text class="nLabel" x="153.23" y="400.89">8</text>
<text class="belong" x="153.23" y="410.89">(2, 4)</text>
<circle onclick="fromCircle(18)" class="circle" cx="201.7339" cy="104.7417" r="8.4740" />
<text class="tLabel" x="201.73" y="84.74"></text>
<text class="nLabel" x="201.73" y="99.74">5</text>
<text class="belong" x="201.73" y="109.74">(2, 5)</text>
<circle onclick="fromCircle(4)" class="circle" cx="416.8619" cy="224.5305" r="8.4740" />
<text class="tLabel" x="416.86" y="204.53"></text>
<text class="nLabel" x="416.86" y="219.53">3</text>
<text class="belong" x="416.86" y="229.53">(3)</text>
<circle onclick="fromCircle(5)" class="circle" cx="359.0367" cy="365.8075" r="8.4740" />
<text class="tLabel" x="359.04" y="345.81"></text>
<text class="nLabel" x="359.04" y="360.81">3</text>
<text class="belong" x="359.04" y="370.81">(1, 3)</text>
<circle onclick="fromCircle(13)" class="circle" cx="348.4641" cy="281.8214" r="8.4740" />
<text class="tLabel" x="348.46" y="261.82"></text>
<text class="nLabel" x="348.46" y="276.82">5</text>
<text class="belong" x="348.46" y="286.82">(1, 3, 4)</text>
<circle onclick="fromCircle(12)" class="circle" cx="330.2785" cy="199.7225" r="8.4740" />
<text class="tLabel" x="330.28" y="179.72"></text>
<text class="nLabel" x="330.28" y="194.72">4</text>
<text class="belong" x="330.28" y="204.72">(3, 4)</text>
<circle onclick="fromCircle(20)" class="circle" cx="44.8734" cy="116.2141" r="8.4740" />
<text class="tLabel" x="44.87" y="96.21"></text>
<text class="nLabel" x="44.87" y="111.21">5</text>
<text class="belong" x="44.87" y="121.21">(3, 5)</text>
<circle onclick="fromCircle(21)" class="circle" cx="167.3127" cy="174.6678" r="8.4740" />
<text class="tLabel" x="167.31" y="154.67"></text>
<text class="nLabel" x="167.31" y="169.67">5</text>
<text class="belong" x="167.31" y="179.67">(1, 3, 5)</text>
<circle onclick="fromCircle(8)" class="circle" cx="340.7709" cy="46.5872" r="8.4740" />
<text class="tLabel" x="340.77" y="26.59"></text>
<text class="nLabel" x="340.77" y="41.59">1</text>
<text class="belong" x="340.77" y="51.59">(4)</text>
<circle onclick="fromCircle(9)" class="circle" cx="385.6484" cy="139.9728" r="8.4740" />
<text class="tLabel" x="385.65" y="119.97"></text>
<text class="nLabel" x="385.65" y="134.97">7</text>
<text class="belong" x="385.65" y="144.97">(1, 4)</text>
<circle onclick="fromCircle(11)" class="circle" cx="191.1469" cy="336.7507" r="8.4740" />
<text class="tLabel" x="191.15" y="316.75"></text>
<text class="nLabel" x="191.15" y="331.75">3</text>
<text class="belong" x="191.15" y="341.75">(1, 2, 4)</text>
<circle onclick="fromCircle(40)" class="circle" cx="481.5625" cy="164.4990" r="8.4740" />
<text class="tLabel" x="481.56" y="144.50"></text>
<text class="nLabel" x="481.56" y="159.50">1</text>
<text class="belong" x="481.56" y="169.50">(4, 6)</text>
<circle onclick="fromCircle(16)" class="circle" cx="18.4375" cy="227.8147" r="8.4740" />
<text class="tLabel" x="18.44" y="207.81"></text>
<text class="nLabel" x="18.44" y="222.81">1</text>
<text class="belong" x="18.44" y="232.81">(5)</text>
<circle onclick="fromCircle(17)" class="circle" cx="102.4585" cy="228.3697" r="8.4740" />
<text class="tLabel" x="102.46" y="208.37"></text>
<text class="nLabel" x="102.46" y="223.37">5</text>
<text class="belong" x="102.46" y="233.37">(1, 5)</text>
<circle onclick="fromCircle(19)" class="circle" cx="181.5326" cy="256.9748" r="8.4740" />
<text class="tLabel" x="181.53" y="236.97"></text>
<text class="nLabel" x="181.53" y="251.97">5</text>
<text class="belong" x="181.53" y="261.97">(1, 2, 5)</text>
<circle onclick="fromCircle(32)" class="circle" cx="434.8025" cy="70.2089" r="8.4740" />
<text class="tLabel" x="434.80" y="50.21"></text>
<text class="nLabel" x="434.80" y="65.21">2</text>
<text class="belong" x="434.80" y="75.21">(6)</text>
<rect class="p0 borderLine" x="500.00" y="50.00" width="30.00" height="15.00" />
<rect class="q0" x="500.00" y="50.00" width="30.00" height="15.00" />
<text class="legend" x="540.00" y="65.00">Ball2017</text>
<rect class="p1 borderLine" x="500.00" y="90.00" width="30.00" height="15.00" />
<rect class="q1" x="500.00" y="90.00" width="30.00" height="15.00" />
<text class="legend" x="540.00" y="105.00">Courtois2015</text>
<rect class="p2 borderLine" x="500.00" y="130.00" width="30.00" height="15.00" />
<rect class="q2" x="500.00" y="130.00" width="30.00" height="15.00" />
<text class="legend" x="540.00" y="145.00">Hilton2017</text>
<rect class="p3 borderLine" x="500.00" y="170.00" width="30.00" height="15.00" />
<rect class="q3" x="500.00" y="170.00" width="30.00" height="15.00" />
<text class="legend" x="540.00" y="185.00">Ball2017</text>
<rect class="p4 borderLine" x="500.00" y="210.00" width="30.00" height="15.00" />
<rect class="q4" x="500.00" y="210.00" width="30.00" height="15.00" />
<text class="legend" x="540.00" y="225.00">Courtois2015</text>
<rect class="p5 borderLine" x="500.00" y="250.00" width="30.00" height="15.00" />
<rect class="q5" x="500.00" y="250.00" width="30.00" height="15.00" />
<text class="legend" x="540.00" y="265.00">Hilton2017</text>
</svg>
