<svg xmlns="http://www.w3.org/2000/svg" xmlns:xlink="http://www.w3.org/1999/xlink" width="700" height="500">
<defs>
<style type="text/css"><![CDATA[
  .borderLine {
	   stroke: none;
	   fill-opacity: 0.4;
  }
  .outLine {
	   stroke-width: 1;
	   fill: none;
  }
  .circle {
	   stroke: #888888;
	   stroke-width: 0.5;
	   fill: none;
    pointer-events: all;
  }
  .spcircle {
	   stroke: #FF2222;
	   stroke-width: 1;
	   fill: none;
    pointer-events: all;
  }
  .tLabel {
	   font-family: Arial;
    pointer-events: none;
	   font-size: 14px;
	   text-anchor: middle;
	   alignment-baseline: central;
  }
  .nLabel {
	   font-family: Arial;
    pointer-events: none;
	   font-size: 10px;
	   text-anchor: middle;
	   alignment-baseline: central;
  }
  .belong {
	   font-family: Arial;
    pointer-events: none;
	   font-size: 5px;
	   text-anchor: middle;
	   alignment-baseline: central;
  }
  .p0{
    stroke: none;
    fill: #e6194b;
  }
  .q0{
    fill: none;
    stroke: #e6194b;
  }
  .p1{
    stroke: none;
    fill: #3cb44b;
  }
  .q1{
    fill: none;
    stroke: #3cb44b;
  }
  .p2{
    stroke: none;
    fill: #ffe119;
  }
  .q2{
    fill: none;
    stroke: #ffe119;
  }
  .p3{
    stroke: none;
    fill: #0082c8;
  }
  .q3{
    fill: none;
    stroke: #0082c8;
  }
  .p4{
    stroke: none;
    fill: #f58231;
  }
  .q4{
    fill: none;
    stroke: #f58231;
  }
  .p5{
    stroke: none;
    fill: #911eb4;
  }
  .q5{
    fill: none;
    stroke: #911eb4;
  }
]]>
</style>
<symbol id="bl0">
<path d="M 297.68 294.70 L 296.74 293.79 L 295.89 292.97 L 295.03 292.14 L 294.13 291.28 L 293.26 290.45 L 292.44 289.68 L 291.64 288.93 L 290.84 288.20 L 290.03 287.49 L 289.22 286.78 L 288.41 286.09 L 287.62 285.42 L 286.84 284.76 L 286.06 284.11 L 285.26 283.49 L 284.44 282.87 L 283.62 282.28 L 282.79 281.71 L 281.98 281.15 L 281.19 280.62 L 280.42 280.12 L 279.67 279.65 L 278.89 279.19 L 278.05 278.75 L 277.20 278.33 L 276.38 278.09 L 275.66 278.04 L 274.89 277.30 L 274.12 277.01 L 273.27 276.73 L 272.39 276.48 L 271.56 276.28 L 270.76 276.12 L 269.94 275.99 L 269.08 275.87 L 268.19 275.79 L 267.30 275.75 L 266.41 275.74 L 265.53 275.74 L 264.62 275.77 L 263.71 275.84 L 262.76 275.93 L 261.81 276.06 L 260.82 276.20 L 259.83 276.36 L 258.83 276.55 L 257.81 276.75 L 256.77 276.97 L 255.70 277.21 L 254.61 277.47 L 253.53 277.80 L 251.29 276.99 L 250.53 277.60 L 249.40 277.95 L 248.54 278.66 L 247.64 279.32 L 247.04 280.30 L 246.67 281.41 L 246.52 282.52 L 246.60 283.61 L 246.90 284.71 L 247.22 285.43 L 247.63 285.88 L 249.17 288.59 L 249.67 289.44 L 250.10 290.31 L 250.40 291.15 L 250.60 291.93 L 250.71 292.73 L 250.71 293.50 L 250.58 294.26 L 250.39 295.03 L 250.08 295.78 L 250.42 296.00 L 249.85 296.95 L 249.52 297.89 L 249.33 298.90 L 249.38 299.89 L 249.57 300.96 L 250.04 301.89 L 250.81 302.62 L 250.71 304.58 L 251.35 305.57 L 252.02 306.55 L 252.71 307.51 L 253.40 308.46 L 254.09 309.39 L 254.77 310.33 L 255.44 311.24 L 256.13 312.14 L 256.81 313.02 L 257.49 313.89 L 258.18 314.74 L 258.86 315.57 L 259.57 316.38 L 260.25 317.19 L 260.94 318.00 L 261.62 318.79 L 262.30 319.58 L 263.00 320.34 L 263.69 321.10 L 264.36 321.86 L 265.04 322.61 L 265.73 323.35 L 266.44 324.08 L 267.14 324.80 L 267.79 325.52 L 268.41 326.25 L 269.05 326.97 L 269.72 327.69 L 270.42 328.39 L 271.10 329.10 L 271.75 329.80 L 272.37 330.52 L 272.99 331.24 L 273.64 331.96 L 274.30 332.66 L 274.97 333.38 L 275.64 334.10 L 276.30 334.83 L 276.97 335.55 L 277.66 336.26 L 278.35 336.98 L 279.06 337.71 L 279.78 338.45 L 280.52 339.18 L 281.27 339.91 L 282.03 340.63 L 282.81 341.36 L 283.60 342.08 L 284.40 342.81 L 285.21 343.54 L 286.04 344.28 L 286.87 345.01 L 287.72 345.74 L 288.58 346.47 L 289.44 347.21 L 290.32 347.94 L 291.21 348.68 L 292.10 349.43 L 293.00 350.18 L 293.91 350.93 L 294.83 351.67 L 295.76 352.42 L 296.69 353.17 L 297.63 353.93 L 298.57 354.69 L 299.53 355.46 L 300.48 356.21 L 301.45 356.97 L 302.42 357.72 L 303.39 358.48 L 304.37 359.23 L 305.35 359.98 L 306.34 360.73 L 307.33 361.46 L 308.33 362.19 L 309.34 362.91 L 310.37 363.63 L 311.40 364.34 L 312.43 365.04 L 313.47 365.74 L 314.52 366.42 L 315.59 367.10 L 316.67 367.78 L 317.77 368.44 L 318.87 369.11 L 319.98 369.78 L 321.10 370.44 L 322.23 371.10 L 323.36 371.76 L 324.50 372.41 L 325.64 373.07 L 326.80 373.73 L 327.96 374.38 L 329.12 375.05 L 330.28 375.72 L 331.43 376.38 L 332.60 377.05 L 333.78 377.73 L 334.95 378.40 L 336.13 379.08 L 337.31 379.77 L 338.50 380.46 L 339.68 381.15 L 340.87 381.85 L 342.06 382.56 L 343.27 383.27 L 344.47 383.98 L 345.67 384.69 L 346.87 385.42 L 348.06 386.15 L 349.26 386.90 L 350.45 387.66 L 351.65 388.42 L 352.84 389.19 L 354.02 389.97 L 355.20 390.77 L 356.37 391.58 L 357.54 392.40 L 358.71 393.24 L 359.87 394.08 L 361.03 394.94 L 362.19 395.80 L 363.34 396.66 L 364.49 397.54 L 365.66 398.40 L 366.86 399.45 L 368.22 400.45 L 369.09 401.08 L 370.23 401.96 L 371.38 402.85 L 372.53 403.74 L 373.68 404.62 L 374.83 405.51 L 375.98 406.40 L 377.12 407.28 L 378.27 408.17 L 379.42 409.05 L 380.57 409.94 L 381.71 410.82 L 382.86 411.70 L 384.01 412.59 L 385.16 413.47 L 386.30 414.35 L 387.45 415.24 L 388.59 416.12 L 389.74 417.00 L 390.88 417.88 L 392.02 418.77 L 393.16 419.66 L 394.30 420.54 L 395.42 421.44 L 396.54 422.34 L 397.65 423.25 L 398.75 424.18 L 399.85 425.10 L 400.94 426.04 L 402.01 426.98 L 403.07 427.94 L 404.12 428.91 L 405.15 429.90 L 406.17 430.89 L 407.19 431.88 L 408.21 432.88 L 409.21 433.88 L 410.21 434.90 L 411.19 435.92 L 412.17 436.95 L 413.15 437.97 L 414.13 439.00 L 415.09 440.02 L 416.06 441.06 L 417.02 442.09 L 417.98 443.12 L 418.93 444.15 L 419.88 445.18 L 420.83 446.20 L 421.77 447.21 L 422.71 448.20 L 423.65 449.18 L 424.60 450.16 L 425.54 451.13 L 426.48 452.09 L 427.42 453.02 L 428.37 453.92 L 429.34 454.80 L 430.31 455.67 L 431.27 456.55 L 432.23 457.42 L 433.20 458.27 L 434.18 459.10 L 435.18 459.91 L 436.17 460.72 L 437.17 461.53 L 438.17 462.35 L 439.18 463.15 L 440.19 463.95 L 441.21 464.73 L 442.23 465.52 L 443.25 466.31 L 444.26 467.09 L 445.28 467.86 L 446.29 468.63 L 447.29 469.40 L 448.29 470.16 L 449.28 470.91 L 450.26 471.66 L 451.23 472.40 L 452.17 473.14 L 453.10 473.87 L 454.00 474.62 L 454.88 475.38 L 455.84 476.02 L 456.74 476.72 L 457.62 477.41 L 458.48 478.09 L 459.33 478.77 L 460.18 479.43 L 461.02 480.08 L 461.85 480.73 L 462.67 481.36 L 463.50 481.98 L 464.33 482.59 L 465.17 483.18 L 466.00 483.76 L 466.82 484.33 L 467.62 484.87 L 468.41 485.40 L 469.24 485.92 L 470.08 486.41 L 470.92 486.88 L 471.72 487.32 L 472.48 487.74 L 473.23 488.14 L 473.99 488.51 L 474.75 488.84 L 475.50 489.15 L 476.28 489.43 L 477.07 489.67 L 477.86 489.85 L 478.62 489.97 L 479.42 490.00 L 480.20 489.92 L 480.96 489.74 L 481.60 489.45 L 482.17 489.07 L 482.69 488.58 L 483.13 487.98 L 483.42 487.36 L 483.59 486.68 L 483.64 485.93 L 483.60 485.15 L 483.46 484.32 L 483.22 483.53 L 482.90 482.75 L 482.52 481.96 L 482.12 481.19 L 481.72 480.42 L 481.29 479.63 L 480.83 478.85 L 480.34 478.08 L 479.84 477.27 L 479.32 476.44 L 478.76 475.59 L 478.19 474.74 L 477.60 473.92 L 477.01 473.10 L 476.40 472.26 L 475.76 471.42 L 475.09 470.57 L 474.42 469.71 L 473.72 468.85 L 473.00 467.99 L 472.26 467.13 L 471.50 466.27 L 470.74 465.36 L 469.97 464.44 L 469.14 463.49 L 468.26 462.55 L 467.37 461.61 L 466.54 460.71 L 465.63 459.99 L 464.53 459.41 L 463.28 459.05 L 461.93 458.98 L 460.71 458.86 L 459.60 458.69 L 458.52 458.45 L 457.44 458.13 L 456.32 457.76 L 455.22 457.36 L 454.18 456.93 L 453.18 456.44 L 452.20 455.88 L 451.25 455.25 L 450.31 454.56 L 449.37 453.83 L 448.44 453.10 L 447.50 452.39 L 446.56 451.67 L 445.64 450.94 L 444.74 450.20 L 443.84 449.46 L 442.92 448.74 L 441.99 448.02 L 441.05 447.30 L 440.12 446.57 L 439.19 445.84 L 438.25 445.13 L 437.30 444.42 L 436.34 443.71 L 435.36 443.01 L 434.38 442.30 L 433.39 441.60 L 432.41 440.89 L 431.42 440.18 L 430.43 439.47 L 429.44 438.76 L 428.45 438.04 L 427.46 437.32 L 426.46 436.60 L 425.48 435.87 L 424.49 435.12 L 423.52 434.37 L 422.55 433.61 L 421.58 432.86 L 420.61 432.09 L 419.65 431.31 L 418.71 430.52 L 417.76 429.71 L 416.81 428.90 L 415.87 428.09 L 414.94 427.27 L 414.01 426.43 L 413.09 425.57 L 412.17 424.71 L 411.25 423.83 L 410.34 422.95 L 409.43 422.06 L 408.52 421.16 L 407.61 420.26 L 406.71 419.35 L 405.80 418.43 L 404.90 417.52 L 404.00 416.61 L 403.09 415.70 L 402.19 414.79 L 401.28 413.88 L 400.37 412.97 L 399.46 412.07 L 398.55 411.16 L 397.63 410.26 L 396.71 409.35 L 395.80 408.45 L 394.88 407.55 L 393.96 406.65 L 393.03 405.76 L 392.11 404.86 L 391.19 403.97 L 390.26 403.08 L 389.33 402.18 L 388.40 401.29 L 387.47 400.40 L 386.54 399.52 L 385.61 398.63 L 384.68 397.74 L 383.75 396.86 L 382.81 395.98 L 381.88 395.09 L 380.95 394.21 L 380.01 393.33 L 379.08 392.44 L 378.15 391.56 L 377.20 390.68 L 376.27 389.81 L 375.33 388.93 L 374.48 388.12 L 373.73 387.48 L 372.52 386.28 L 371.58 385.40 L 370.64 384.51 L 369.70 383.63 L 368.76 382.74 L 367.82 381.86 L 366.89 380.96 L 365.96 380.07 L 365.04 379.18 L 364.11 378.28 L 363.19 377.38 L 362.28 376.48 L 361.37 375.57 L 360.47 374.66 L 359.58 373.74 L 358.70 372.82 L 357.82 371.90 L 356.94 370.98 L 356.07 370.04 L 355.22 369.09 L 354.38 368.11 L 353.53 367.13 L 352.69 366.15 L 351.85 365.16 L 351.02 364.16 L 350.20 363.12 L 349.39 362.05 L 348.58 360.97 L 347.78 359.87 L 346.99 358.75 L 346.21 357.62 L 345.43 356.47 L 344.66 355.30 L 343.90 354.12 L 343.15 352.92 L 342.40 351.70 L 341.67 350.48 L 340.94 349.23 L 340.22 347.99 L 339.50 346.74 L 338.78 345.49 L 338.07 344.23 L 337.37 342.97 L 336.67 341.71 L 335.96 340.46 L 335.25 339.21 L 334.53 337.96 L 333.81 336.72 L 333.09 335.48 L 332.36 334.26 L 331.62 333.06 L 330.86 331.88 L 330.10 330.72 L 329.32 329.58 L 328.55 328.45 L 327.77 327.34 L 326.98 326.24 L 326.18 325.17 L 325.39 324.12 L 324.57 323.11 L 323.76 322.12 L 322.93 321.14 L 322.11 320.15 L 321.29 319.17 L 320.46 318.20 L 319.62 317.26 L 318.78 316.33 L 317.93 315.40 L 317.08 314.47 L 316.22 313.53 L 315.36 312.60 L 314.49 311.68 L 313.61 310.76 L 312.74 309.85 L 311.86 308.94 L 310.99 308.03 L 310.11 307.13 L 309.24 306.24 L 308.36 305.34 L 307.48 304.45 L 306.61 303.57 L 305.74 302.70 L 304.89 301.83 L 304.02 300.96 L 303.14 300.07 L 302.22 299.16 L 301.27 298.22 L 300.38 297.34 L 299.52 296.50 L 298.57 295.57 Z" />
</symbol>
<symbol id="bl1">
<path d="M 174.25 203.92 L 172.60 203.70 L 171.33 203.54 L 170.14 203.40 L 169.01 203.27 L 167.94 203.14 L 166.90 203.03 L 165.87 202.92 L 164.86 202.82 L 163.85 202.73 L 162.90 202.72 L 161.89 202.51 L 160.94 202.50 L 159.94 202.46 L 158.99 202.42 L 158.05 202.40 L 157.14 202.38 L 156.24 202.39 L 155.35 202.41 L 154.46 202.45 L 153.60 202.50 L 152.77 202.57 L 151.96 202.66 L 151.18 202.76 L 150.41 202.88 L 149.64 203.02 L 148.88 203.19 L 148.09 203.42 L 147.35 203.69 L 146.66 204.02 L 145.98 204.43 L 145.40 204.88 L 144.87 205.40 L 144.45 206.00 L 144.13 206.65 L 143.87 207.30 L 143.74 207.99 L 146.25 210.45 L 146.55 211.58 L 143.99 210.22 L 144.26 210.94 L 144.62 211.68 L 145.04 212.43 L 145.48 213.15 L 145.94 213.86 L 146.42 214.58 L 146.92 215.34 L 147.45 216.12 L 148.00 216.90 L 148.59 217.67 L 149.21 218.47 L 149.83 219.30 L 150.46 220.13 L 151.09 220.97 L 151.76 221.77 L 152.45 222.58 L 153.18 223.39 L 153.88 224.22 L 154.62 225.03 L 155.35 225.85 L 158.07 227.76 L 158.79 228.47 L 160.20 229.37 L 158.86 228.60 L 159.87 229.17 L 160.88 229.74 L 161.91 230.30 L 162.94 230.87 L 163.96 231.46 L 164.97 232.07 L 166.00 232.69 L 167.05 233.31 L 168.10 233.93 L 169.13 234.57 L 170.14 235.24 L 171.13 235.96 L 172.15 236.65 L 173.17 237.38 L 174.19 238.10 L 175.20 238.83 L 176.20 239.58 L 177.20 240.33 L 178.25 241.49 L 182.14 243.30 L 180.21 242.60 L 181.22 243.35 L 182.23 244.10 L 183.25 244.84 L 184.27 245.56 L 185.29 246.29 L 186.31 247.00 L 187.32 247.72 L 188.35 248.43 L 189.39 249.12 L 191.12 249.18 L 195.04 250.33 L 192.58 251.17 L 193.65 251.86 L 194.73 252.54 L 195.84 253.21 L 196.98 253.88 L 200.17 255.52 L 199.93 255.91 L 200.48 255.92 L 201.67 256.59 L 202.86 257.27 L 204.07 257.96 L 205.29 258.65 L 206.52 259.35 L 207.76 260.05 L 208.99 260.76 L 210.23 261.47 L 211.47 262.19 L 212.70 262.91 L 213.95 263.63 L 215.18 264.35 L 216.41 265.09 L 217.65 265.81 L 218.85 266.62 L 220.08 267.36 L 221.30 268.13 L 222.52 268.90 L 223.72 269.68 L 224.91 270.48 L 226.10 271.30 L 228.00 272.70 L 229.46 273.89 L 229.64 273.82 L 230.80 274.67 L 231.97 275.54 L 233.96 276.61 L 234.41 277.17 L 235.71 278.10 L 237.19 278.98 L 237.74 279.95 L 238.90 280.84 L 240.05 281.73 L 241.20 282.62 L 242.35 283.51 L 243.50 284.41 L 244.66 285.30 L 245.81 286.19 L 246.41 287.33 L 247.28 286.53 L 248.47 288.26 L 250.44 289.74 L 251.61 290.61 L 252.78 291.49 L 253.92 292.40 L 255.29 293.34 L 256.56 294.29 L 257.62 294.81 L 258.91 295.42 L 259.68 296.89 L 260.83 297.79 L 261.98 298.68 L 263.12 299.59 L 264.25 300.52 L 265.38 301.43 L 266.53 302.34 L 267.67 303.23 L 268.82 304.13 L 269.97 305.02 L 271.12 305.91 L 272.26 306.81 L 273.41 307.70 L 274.55 308.59 L 275.70 309.48 L 276.84 310.37 L 277.98 311.26 L 279.12 312.15 L 280.27 313.04 L 281.41 313.93 L 282.55 314.81 L 283.68 315.70 L 284.82 316.59 L 285.96 317.48 L 287.11 318.37 L 288.25 319.26 L 289.39 320.15 L 290.53 321.04 L 291.67 321.93 L 292.81 322.82 L 293.95 323.70 L 295.10 324.60 L 296.24 325.49 L 297.39 326.38 L 298.54 327.27 L 299.68 328.17 L 300.83 329.06 L 301.97 329.95 L 303.12 330.84 L 304.27 331.74 L 305.41 332.63 L 306.56 333.52 L 307.70 334.41 L 308.85 335.31 L 309.99 336.20 L 311.13 337.10 L 312.26 338.00 L 313.39 338.91 L 314.51 339.82 L 315.62 340.74 L 316.73 341.67 L 317.82 342.61 L 318.91 343.55 L 319.98 344.50 L 321.04 345.47 L 322.09 346.44 L 323.12 347.44 L 324.15 348.44 L 325.16 349.44 L 326.18 350.44 L 327.18 351.45 L 328.18 352.47 L 329.16 353.50 L 330.14 354.54 L 331.12 355.57 L 332.09 356.61 L 333.06 357.64 L 334.02 358.68 L 334.98 359.72 L 335.94 360.76 L 336.89 361.78 L 337.84 362.81 L 338.78 363.83 L 339.73 364.83 L 340.67 365.82 L 341.61 366.81 L 342.55 367.79 L 343.49 368.75 L 344.43 369.70 L 345.38 370.61 L 346.34 371.50 L 347.30 372.38 L 348.26 373.26 L 349.22 374.15 L 350.18 375.01 L 351.16 375.85 L 352.15 376.68 L 353.14 377.50 L 354.14 378.32 L 355.13 379.15 L 356.13 379.96 L 357.15 380.78 L 358.16 381.58 L 359.17 382.38 L 360.18 383.18 L 361.19 383.97 L 362.20 384.76 L 363.20 385.55 L 364.20 386.32 L 365.19 387.10 L 366.18 387.87 L 367.15 388.63 L 368.10 389.39 L 369.04 390.14 L 369.97 390.89 L 370.92 391.60 L 371.84 392.48 L 373.09 393.38 L 373.64 393.80 L 374.52 394.51 L 375.39 395.21 L 376.26 395.90 L 377.12 396.58 L 377.98 397.25 L 378.82 397.92 L 379.66 398.57 L 380.50 399.21 L 381.34 399.84 L 382.18 400.46 L 383.03 401.07 L 383.87 401.66 L 384.70 402.23 L 385.51 402.79 L 386.31 403.33 L 387.15 403.86 L 388.00 404.36 L 388.85 404.84 L 389.66 405.30 L 390.43 405.73 L 391.18 406.14 L 391.95 406.52 L 392.72 406.87 L 393.49 407.19 L 394.27 407.48 L 395.08 407.72 L 395.89 407.91 L 396.66 408.02 L 397.48 408.06 L 398.28 408.02 L 399.10 407.89 L 399.85 407.64 L 400.64 407.41 L 401.51 407.09 L 401.84 406.27 L 402.37 405.69 L 402.80 405.03 L 403.14 404.28 L 403.50 403.04 L 398.12 397.77 L 403.62 401.99 L 403.64 401.20 L 403.59 400.39 L 403.49 399.61 L 403.35 398.84 L 403.18 398.07 L 402.97 397.29 L 402.74 396.52 L 402.48 395.73 L 402.19 394.91 L 401.88 394.05 L 401.54 393.19 L 401.19 392.33 L 400.81 391.50 L 400.42 390.66 L 400.01 389.80 L 399.58 388.92 L 399.14 388.04 L 398.68 387.16 L 398.21 386.28 L 397.73 385.40 L 397.24 384.51 L 396.73 383.61 L 396.21 382.71 L 395.69 381.79 L 395.15 380.87 L 394.61 379.94 L 394.05 378.99 L 393.49 378.05 L 392.92 377.10 L 392.35 376.13 L 391.77 375.15 L 391.25 374.21 L 390.89 373.47 L 389.97 372.13 L 389.37 371.11 L 388.75 370.08 L 388.13 369.02 L 387.51 367.95 L 386.87 366.87 L 386.24 365.78 L 385.60 364.68 L 384.96 363.58 L 384.30 362.47 L 383.65 361.36 L 382.99 360.24 L 382.33 359.12 L 381.66 358.00 L 380.98 356.88 L 380.30 355.77 L 379.61 354.67 L 378.92 353.56 L 378.23 352.45 L 377.53 351.35 L 376.79 350.27 L 376.04 349.19 L 375.30 348.12 L 374.56 347.03 L 373.82 345.96 L 373.06 344.90 L 372.27 343.85 L 371.47 342.81 L 370.67 341.77 L 369.88 340.73 L 369.10 339.69 L 368.31 338.66 L 367.53 337.63 L 366.75 336.61 L 365.98 335.60 L 365.22 334.57 L 364.46 333.55 L 363.72 332.51 L 363.00 331.48 L 362.29 330.44 L 361.59 329.41 L 360.91 328.38 L 360.23 327.32 L 359.57 326.26 L 358.93 325.18 L 358.31 324.09 L 357.69 322.99 L 357.09 321.88 L 356.50 320.76 L 355.93 319.61 L 355.37 318.44 L 354.82 317.25 L 354.29 316.06 L 353.77 314.86 L 353.26 313.65 L 352.75 312.43 L 352.25 311.20 L 351.76 309.98 L 351.28 308.76 L 350.79 307.55 L 350.30 306.34 L 349.82 305.14 L 349.33 303.95 L 348.84 302.78 L 348.34 301.63 L 344.37 298.95 L 339.90 296.74 L 347.01 297.12 L 346.29 297.10 L 345.76 295.99 L 345.22 294.89 L 344.68 293.80 L 344.12 292.72 L 343.56 291.64 L 342.99 290.56 L 342.42 289.48 L 341.84 288.42 L 341.25 287.35 L 340.66 286.29 L 340.07 285.24 L 339.46 284.19 L 338.86 283.15 L 338.25 282.11 L 337.64 281.08 L 337.03 280.06 L 336.41 279.05 L 335.79 278.04 L 335.17 277.04 L 334.55 276.05 L 333.93 275.06 L 333.31 274.09 L 332.69 273.12 L 332.07 272.16 L 331.46 271.21 L 330.85 270.26 L 330.23 269.33 L 329.63 268.40 L 329.04 267.49 L 328.46 266.58 L 327.88 265.68 L 327.31 264.78 L 325.36 263.44 L 322.77 262.02 L 325.63 262.14 L 325.08 261.27 L 324.54 260.41 L 323.99 259.55 L 323.45 258.70 L 320.94 258.56 L 322.45 256.85 L 320.43 256.64 L 321.30 255.32 L 320.76 254.49 L 320.21 253.65 L 319.67 252.82 L 319.12 252.00 L 318.58 251.17 L 318.04 250.34 L 317.48 249.52 L 316.92 248.71 L 316.36 247.90 L 315.80 247.09 L 315.24 246.29 L 314.68 245.49 L 314.10 244.70 L 313.53 243.92 L 312.94 243.14 L 312.36 242.37 L 311.76 241.62 L 311.16 240.87 L 310.56 240.13 L 309.95 239.40 L 309.33 238.68 L 308.70 237.98 L 308.07 237.28 L 307.44 236.60 L 306.80 235.93 L 306.13 235.29 L 305.52 234.61 L 304.88 233.96 L 304.19 233.37 L 303.53 232.77 L 302.86 232.18 L 302.20 231.61 L 301.54 231.06 L 300.87 230.51 L 300.17 229.99 L 299.47 229.48 L 298.77 228.99 L 298.08 228.51 L 297.36 228.05 L 295.80 229.23 L 295.92 227.17 L 295.12 226.76 L 294.35 226.36 L 293.56 225.97 L 292.76 225.60 L 291.93 225.25 L 291.09 224.90 L 290.23 224.57 L 289.38 224.25 L 288.50 223.95 L 287.61 223.66 L 286.71 223.38 L 285.80 223.11 L 284.89 222.85 L 283.96 222.60 L 283.01 222.36 L 282.05 222.14 L 281.08 221.92 L 280.11 221.71 L 279.13 221.51 L 278.13 221.32 L 277.11 221.14 L 276.08 220.96 L 275.03 220.80 L 273.98 220.63 L 272.92 220.47 L 271.86 220.31 L 270.79 220.15 L 269.71 220.00 L 268.63 219.84 L 267.54 219.69 L 266.68 221.90 L 265.42 219.03 L 264.28 219.24 L 261.19 222.24 L 262.05 218.79 L 261.03 218.76 L 259.94 218.60 L 258.86 218.43 L 257.78 218.27 L 256.70 218.09 L 255.62 217.91 L 254.54 217.72 L 253.45 217.56 L 253.73 219.04 L 251.50 217.26 L 250.21 216.94 L 249.12 216.73 L 248.03 216.51 L 246.93 216.30 L 245.83 216.08 L 244.74 215.86 L 243.64 215.63 L 242.56 215.40 L 241.47 215.16 L 240.38 214.92 L 239.43 214.88 L 238.83 217.45 L 237.13 214.19 L 236.06 213.95 L 235.00 213.69 L 233.95 213.44 L 232.91 213.19 L 231.86 212.93 L 230.81 212.69 L 229.76 212.43 L 228.83 212.66 L 228.86 215.17 L 227.90 215.24 L 225.81 212.02 L 224.55 211.20 L 223.50 210.97 L 222.44 210.74 L 221.38 210.51 L 220.33 210.29 L 219.27 210.07 L 218.20 209.85 L 217.12 209.64 L 216.02 209.43 L 214.91 209.23 L 213.81 209.02 L 214.84 211.75 L 212.36 208.99 L 212.19 210.29 L 211.06 210.16 L 210.11 209.75 L 206.91 207.90 L 205.73 207.73 L 204.55 207.55 L 203.36 207.38 L 202.14 207.22 L 200.91 207.06 L 199.71 206.91 L 198.51 206.76 L 197.31 206.60 L 196.10 206.46 L 194.89 206.32 L 193.70 206.18 L 192.53 206.04 L 191.39 205.91 L 190.25 205.78 L 189.12 205.65 L 190.26 207.58 L 187.69 206.04 L 187.96 207.14 L 184.73 205.15 L 183.67 205.03 L 182.61 204.91 L 181.51 204.78 L 180.38 204.65 L 179.21 204.50 L 178.10 204.37 L 176.89 204.23 L 175.25 204.02 Z" />
</symbol>
<symbol id="bl2">
<path d="M 111.90 337.86 L 110.96 339.35 L 110.24 340.47 L 109.57 341.50 L 108.95 342.48 L 108.37 343.40 L 107.81 344.29 L 107.27 345.18 L 106.74 346.08 L 106.23 346.98 L 105.73 347.87 L 105.24 348.74 L 104.77 349.59 L 104.32 350.44 L 103.88 351.32 L 103.47 352.22 L 103.08 353.10 L 102.71 353.95 L 102.37 354.75 L 102.05 355.55 L 101.76 356.35 L 101.50 357.16 L 101.27 357.94 L 101.07 358.70 L 100.92 359.44 L 100.81 360.21 L 100.76 361.02 L 100.78 361.82 L 100.88 362.60 L 101.06 363.42 L 104.83 362.40 L 104.18 363.60 L 102.05 365.72 L 102.50 366.40 L 103.04 367.07 L 103.60 367.68 L 104.22 368.22 L 104.84 368.67 L 105.51 369.06 L 106.22 369.38 L 106.92 369.63 L 107.60 369.82 L 108.31 369.98 L 109.05 370.11 L 109.80 370.21 L 110.58 370.29 L 111.37 370.34 L 112.17 370.37 L 113.01 370.37 L 113.87 370.36 L 114.75 370.33 L 115.64 370.28 L 116.52 370.21 L 117.42 370.12 L 118.33 370.01 L 119.26 369.90 L 120.21 369.76 L 121.16 369.62 L 122.12 369.46 L 123.09 369.29 L 124.07 369.12 L 125.06 368.93 L 126.06 368.73 L 127.07 368.52 L 128.10 368.31 L 129.13 368.09 L 130.17 367.86 L 136.03 364.36 L 134.38 366.11 L 138.38 363.83 L 134.44 366.86 L 135.53 366.60 L 136.62 366.33 L 137.73 366.05 L 138.84 365.77 L 139.96 365.48 L 141.10 365.19 L 142.25 364.89 L 143.41 364.58 L 144.57 364.27 L 145.75 363.96 L 146.94 363.64 L 148.14 363.31 L 149.36 362.98 L 150.59 362.64 L 151.83 362.29 L 153.07 361.94 L 154.31 361.59 L 155.57 361.22 L 156.83 360.85 L 158.10 360.48 L 159.37 360.09 L 160.63 359.69 L 161.89 359.29 L 163.16 358.89 L 164.43 358.49 L 165.68 358.07 L 166.92 357.63 L 168.14 357.19 L 169.36 356.75 L 170.58 356.33 L 171.79 355.89 L 172.98 355.45 L 174.15 355.01 L 175.31 354.57 L 176.45 354.13 L 177.58 353.71 L 178.71 353.29 L 179.84 352.88 L 180.96 352.48 L 182.07 352.08 L 183.17 351.70 L 184.27 351.33 L 185.37 350.98 L 186.48 350.64 L 187.61 350.31 L 188.73 350.00 L 189.86 349.70 L 191.00 349.41 L 192.15 349.13 L 193.31 348.88 L 194.49 348.63 L 195.69 348.40 L 196.91 348.17 L 198.14 347.96 L 199.38 347.76 L 200.62 347.58 L 201.88 347.40 L 203.17 347.24 L 204.47 347.08 L 205.77 346.92 L 207.06 346.77 L 208.35 346.62 L 209.64 346.47 L 210.93 346.32 L 212.23 346.17 L 213.51 346.02 L 214.78 345.86 L 216.04 345.69 L 217.29 345.51 L 218.53 345.32 L 219.76 345.12 L 220.99 344.92 L 222.21 344.71 L 223.42 344.49 L 224.62 344.26 L 225.81 344.02 L 227.86 341.20 L 228.61 342.53 L 229.37 343.25 L 230.55 342.98 L 231.72 342.70 L 232.88 342.42 L 234.04 342.13 L 235.19 341.85 L 236.33 341.55 L 237.46 341.25 L 238.59 340.95 L 239.71 340.64 L 240.82 340.33 L 241.92 340.02 L 243.01 339.70 L 244.10 339.38 L 245.17 339.05 L 246.24 338.72 L 247.29 338.38 L 248.34 338.05 L 249.37 337.70 L 250.40 337.35 L 251.41 337.00 L 252.41 336.64 L 253.40 336.28 L 254.38 335.92 L 255.35 335.54 L 256.30 335.16 L 257.24 334.78 L 258.17 334.39 L 259.08 333.99 L 259.99 333.58 L 260.88 333.17 L 261.76 332.75 L 262.62 332.32 L 263.48 331.88 L 264.32 331.43 L 265.15 330.98 L 265.96 330.51 L 266.77 330.03 L 267.57 329.54 L 268.35 329.04 L 269.13 328.53 L 269.90 328.02 L 270.66 327.49 L 271.41 326.96 L 272.16 326.42 L 272.88 325.83 L 273.67 324.53 L 274.38 323.51 L 275.17 323.11 L 275.85 323.61 L 276.58 323.04 L 277.31 322.47 L 278.04 321.88 L 278.77 321.29 L 279.50 320.70 L 280.24 320.11 L 278.71 316.57 L 280.63 317.58 L 282.45 318.32 L 283.18 317.71 L 283.92 317.09 L 284.65 316.47 L 285.38 315.84 L 286.11 315.21 L 286.83 314.56 L 287.56 313.92 L 288.27 313.26 L 288.99 312.58 L 289.69 311.89 L 290.39 311.19 L 291.09 310.48 L 291.79 309.77 L 292.67 309.22 L 292.58 307.77 L 293.84 307.55 L 294.52 306.78 L 295.31 306.12 L 296.01 305.32 L 297.19 305.00 L 297.17 303.62 L 297.81 302.81 L 298.44 301.98 L 299.07 301.15 L 299.68 300.31 L 300.28 299.46 L 300.86 298.61 L 301.44 297.75 L 302.00 296.88 L 302.55 296.00 L 303.08 295.12 L 303.60 294.24 L 304.10 293.35 L 304.58 292.45 L 305.05 291.53 L 305.51 290.61 L 305.95 289.69 L 305.97 288.92 L 307.33 288.30 L 307.18 286.93 L 307.56 285.99 L 307.93 285.04 L 308.28 284.10 L 308.63 283.17 L 308.96 282.24 L 309.29 281.32 L 309.60 280.40 L 309.91 279.47 L 310.20 278.55 L 310.49 277.64 L 310.78 276.75 L 311.05 275.86 L 311.32 274.98 L 311.58 274.11 L 311.84 273.24 L 312.10 272.38 L 312.34 271.53 L 312.59 270.69 L 312.82 269.85 L 313.05 269.02 L 313.28 268.19 L 313.50 267.36 L 313.72 266.54 L 313.93 265.71 L 314.13 264.88 L 314.32 264.06 L 314.50 263.24 L 314.64 262.41 L 315.40 261.81 L 314.88 261.82 L 314.42 260.52 L 315.00 259.46 L 315.34 258.25 L 315.43 257.41 L 315.49 256.56 L 315.53 255.71 L 315.55 254.86 L 315.54 254.01 L 315.50 253.16 L 315.44 252.30 L 315.36 251.44 L 315.24 250.58 L 315.10 249.72 L 314.54 249.37 L 314.19 248.76 L 314.00 248.04 L 313.34 247.58 L 314.01 245.43 L 312.95 245.54 L 313.14 244.14 L 312.98 242.88 L 312.60 242.03 L 312.20 241.20 L 311.77 240.38 L 311.33 239.55 L 310.86 238.72 L 310.38 237.89 L 309.88 237.08 L 309.36 236.27 L 308.82 235.48 L 308.27 234.68 L 306.62 234.69 L 305.24 234.57 L 304.73 233.78 L 303.65 233.39 L 302.98 232.74 L 303.48 230.96 L 302.51 230.60 L 303.44 228.37 L 302.80 227.59 L 302.17 226.79 L 301.53 225.97 L 300.91 225.16 L 300.28 224.37 L 299.66 223.58 L 299.03 222.77 L 298.41 221.94 L 297.78 221.07 L 297.16 220.19 L 296.55 219.31 L 295.94 218.42 L 295.33 217.52 L 294.72 216.61 L 295.05 217.65 L 293.73 214.63 L 292.88 213.76 L 292.27 212.79 L 291.67 211.82 L 291.05 210.85 L 290.44 209.88 L 289.81 208.91 L 289.66 209.12 L 289.28 207.87 L 287.96 206.02 L 287.34 205.05 L 286.71 204.09 L 286.07 203.14 L 285.43 202.20 L 284.80 201.27 L 284.18 200.33 L 283.55 199.38 L 282.91 198.41 L 282.29 197.45 L 281.67 196.51 L 281.06 195.58 L 280.45 194.62 L 279.84 193.65 L 279.23 192.69 L 278.64 191.72 L 278.06 190.75 L 277.49 189.79 L 276.92 188.82 L 276.35 187.85 L 275.79 186.87 L 275.23 185.90 L 274.69 184.93 L 274.15 183.97 L 273.62 183.01 L 273.08 182.03 L 272.55 181.05 L 272.02 180.07 L 271.04 181.45 L 270.64 181.09 L 269.68 182.15 L 269.92 176.20 L 269.40 175.20 L 268.91 174.19 L 268.44 173.18 L 267.93 172.18 L 268.06 173.82 L 267.42 170.50 L 266.38 169.13 L 265.93 168.08 L 265.46 167.02 L 264.97 165.99 L 264.45 164.96 L 264.00 163.91 L 263.56 162.84 L 263.10 161.78 L 262.66 160.74 L 262.20 159.70 L 261.75 158.67 L 261.29 157.64 L 260.80 156.63 L 260.38 155.60 L 260.05 154.84 L 258.76 158.99 L 258.15 156.85 L 256.96 155.83 L 258.20 152.57 L 257.91 154.11 L 257.09 151.87 L 256.52 151.95 L 255.43 147.79 L 254.46 146.26 L 253.70 145.46 L 252.82 144.84 L 252.10 144.02 L 251.21 143.41 L 250.24 142.96 L 249.40 142.37 L 248.52 141.85 L 248.25 144.67 L 247.07 142.50 L 245.78 140.56 L 244.82 140.29 L 243.90 139.95 L 243.95 144.19 L 242.25 140.50 L 242.05 143.44 L 240.05 139.09 L 239.11 139.07 L 238.74 145.21 L 237.92 142.76 L 236.46 139.90 L 235.39 138.85 L 235.97 141.73 L 233.34 139.11 L 232.33 139.33 L 231.34 139.57 L 230.41 139.85 L 231.00 144.56 L 229.78 143.89 L 228.16 142.26 L 226.65 141.17 L 227.28 145.96 L 225.00 142.74 L 223.87 142.64 L 224.81 147.83 L 223.93 148.25 L 221.77 145.74 L 221.97 148.84 L 219.69 145.91 L 218.92 146.65 L 218.27 147.50 L 217.66 148.37 L 216.94 149.17 L 217.34 152.21 L 216.89 153.40 L 216.86 155.39 L 214.70 152.78 L 214.33 153.81 L 213.88 154.81 L 213.47 155.83 L 213.08 156.85 L 212.71 157.88 L 212.39 158.94 L 212.02 160.01 L 211.66 161.09 L 211.31 162.20 L 210.96 163.30 L 210.64 164.42 L 210.30 165.53 L 209.95 166.67 L 209.62 167.83 L 209.26 169.01 L 208.92 170.18 L 208.57 171.34 L 208.21 172.49 L 207.85 173.63 L 207.49 174.80 L 207.15 175.98 L 206.81 177.18 L 206.45 178.34 L 206.06 179.49 L 205.67 180.63 L 205.31 181.79 L 204.98 182.98 L 204.65 184.15 L 204.27 185.31 L 203.87 186.46 L 203.48 187.62 L 203.13 188.81 L 202.79 190.00 L 202.44 191.18 L 202.07 192.37 L 201.69 193.57 L 201.32 194.78 L 200.94 196.01 L 200.57 197.24 L 200.20 198.47 L 199.81 199.70 L 199.42 200.95 L 199.03 202.21 L 198.63 203.47 L 198.22 204.73 L 197.81 205.96 L 197.38 207.18 L 196.94 208.42 L 196.49 209.68 L 196.04 210.95 L 195.58 212.19 L 195.11 213.40 L 194.63 214.60 L 194.95 216.52 L 195.40 218.49 L 193.14 218.26 L 194.28 220.89 L 192.49 221.16 L 191.57 221.94 L 193.60 225.15 L 190.31 224.27 L 189.92 225.54 L 189.36 226.75 L 188.78 227.95 L 188.21 229.15 L 187.62 230.32 L 187.03 231.48 L 186.43 232.64 L 185.82 233.78 L 187.77 236.55 L 185.32 236.46 L 186.19 238.45 L 183.33 238.28 L 182.69 239.41 L 182.03 240.54 L 181.37 241.66 L 180.70 242.78 L 180.02 243.92 L 179.32 245.08 L 178.61 246.24 L 177.89 247.42 L 177.15 248.59 L 179.60 250.69 L 176.06 250.99 L 174.92 252.17 L 174.17 253.38 L 173.40 254.60 L 172.63 255.81 L 171.86 257.04 L 171.09 258.26 L 170.32 259.49 L 169.55 260.73 L 168.78 261.95 L 168.01 263.18 L 167.24 264.41 L 168.41 265.97 L 168.25 267.12 L 164.92 268.10 L 164.16 269.33 L 163.38 270.55 L 162.61 271.77 L 161.82 272.98 L 161.02 274.19 L 160.21 275.39 L 159.42 276.58 L 158.61 277.76 L 157.79 278.93 L 156.92 280.09 L 156.05 281.22 L 155.19 282.34 L 154.35 283.45 L 153.50 284.57 L 152.60 285.71 L 151.66 286.82 L 150.72 287.90 L 149.79 288.95 L 148.87 289.99 L 147.94 291.04 L 146.99 292.10 L 146.01 293.16 L 145.01 294.20 L 144.02 295.21 L 143.03 296.20 L 142.05 297.19 L 141.07 298.17 L 140.11 299.16 L 139.16 300.16 L 138.22 301.15 L 137.29 302.14 L 136.37 303.12 L 135.47 304.11 L 134.61 305.10 L 133.79 306.11 L 132.98 307.13 L 132.17 308.16 L 131.36 309.19 L 130.57 310.22 L 129.81 311.27 L 129.07 312.33 L 128.33 313.40 L 127.58 314.46 L 126.84 315.52 L 126.10 316.59 L 125.38 317.67 L 124.66 318.74 L 123.93 319.81 L 123.22 320.88 L 122.51 321.95 L 121.80 323.01 L 121.10 324.07 L 120.41 325.12 L 119.71 326.16 L 119.03 327.20 L 118.35 328.21 L 117.67 329.22 L 117.00 330.22 L 116.32 331.24 L 115.61 332.31 L 114.89 333.40 L 114.20 334.43 L 115.62 334.77 L 117.24 335.10 Z" />
</symbol>
<symbol id="bl3">
<path d="M 45.06 27.12 L 44.13 26.19 L 43.29 25.37 L 42.41 24.55 L 41.49 23.69 L 40.60 22.88 L 39.77 22.10 L 38.98 21.34 L 38.20 20.59 L 37.41 19.86 L 36.59 19.15 L 35.78 18.45 L 34.99 17.77 L 34.22 17.09 L 33.46 16.43 L 32.69 15.78 L 31.90 15.16 L 31.12 14.55 L 30.34 13.97 L 29.60 13.42 L 28.89 12.89 L 28.18 12.38 L 27.46 11.89 L 26.68 11.42 L 25.89 11.00 L 25.14 10.66 L 24.37 10.36 L 23.61 10.14 L 22.84 10.01 L 22.09 10.00 L 21.37 10.12 L 20.66 10.34 L 19.97 10.67 L 19.36 11.07 L 18.81 11.58 L 18.32 12.20 L 17.91 12.84 L 17.56 13.55 L 17.28 14.26 L 17.03 15.02 L 16.82 15.82 L 17.97 19.07 L 27.68 30.50 L 16.49 18.14 L 16.43 18.93 L 16.39 19.73 L 16.37 20.56 L 16.36 21.43 L 16.37 22.31 L 16.40 23.20 L 16.46 24.09 L 16.52 24.99 L 16.61 25.91 L 16.70 26.85 L 16.81 27.80 L 16.93 28.76 L 17.06 29.73 L 17.21 30.71 L 17.36 31.69 L 17.53 32.69 L 17.70 33.71 L 17.88 34.73 L 18.07 35.76 L 18.27 36.81 L 18.47 37.86 L 18.74 38.92 L 18.85 40.01 L 19.14 41.09 L 19.37 42.18 L 19.61 43.28 L 19.86 44.39 L 20.11 45.51 L 20.37 46.64 L 20.63 47.79 L 20.90 48.94 L 21.17 50.11 L 21.45 51.28 L 21.74 52.46 L 22.03 53.66 L 22.32 54.88 L 22.63 56.10 L 22.93 57.33 L 23.24 58.57 L 23.56 59.82 L 23.89 61.07 L 24.22 62.33 L 24.56 63.59 L 24.90 64.86 L 25.25 66.13 L 25.62 67.39 L 25.99 68.66 L 26.36 69.94 L 26.74 71.21 L 27.14 72.48 L 27.56 73.73 L 27.99 74.99 L 28.43 76.24 L 28.86 77.51 L 29.30 78.77 L 29.77 80.03 L 30.25 81.27 L 30.73 82.51 L 31.23 83.76 L 31.72 85.00 L 32.22 86.25 L 32.72 87.49 L 33.22 88.73 L 33.73 89.97 L 34.23 91.21 L 34.74 92.45 L 35.24 93.70 L 35.74 94.94 L 36.23 96.20 L 36.72 97.45 L 37.20 98.71 L 37.69 99.96 L 38.17 101.22 L 38.64 102.50 L 39.10 103.78 L 39.55 105.07 L 40.00 106.36 L 40.44 107.66 L 40.87 108.96 L 41.29 110.28 L 41.70 111.61 L 42.09 112.96 L 42.47 114.32 L 42.84 115.68 L 43.20 117.05 L 43.56 118.43 L 43.90 119.82 L 44.24 121.22 L 44.58 122.62 L 44.90 124.03 L 45.23 125.44 L 45.55 126.85 L 45.88 128.26 L 46.20 129.67 L 46.52 131.08 L 46.84 132.49 L 47.16 133.91 L 47.48 135.32 L 47.81 136.73 L 48.13 138.14 L 48.45 139.55 L 48.77 140.97 L 49.09 142.38 L 49.41 143.79 L 49.74 145.20 L 50.06 146.62 L 50.38 148.03 L 50.70 149.44 L 51.02 150.85 L 51.35 152.26 L 51.67 153.68 L 61.71 159.95 L 53.82 158.65 L 52.63 157.91 L 52.95 159.32 L 53.28 160.74 L 53.60 162.15 L 53.92 163.56 L 54.24 164.97 L 54.56 166.39 L 54.88 167.80 L 55.21 169.21 L 55.53 170.62 L 55.85 172.03 L 56.17 173.45 L 56.49 174.86 L 56.81 176.27 L 57.14 177.68 L 57.46 179.09 L 57.78 180.51 L 58.10 181.92 L 58.42 183.33 L 58.75 184.74 L 59.07 186.16 L 59.39 187.57 L 59.71 188.98 L 60.03 190.39 L 60.35 191.80 L 60.68 193.22 L 61.00 194.63 L 61.32 196.04 L 61.64 197.45 L 61.96 198.87 L 62.28 200.28 L 62.61 201.69 L 63.46 203.61 L 69.01 206.89 L 63.57 205.93 L 63.89 207.34 L 64.21 208.75 L 64.54 210.16 L 64.86 211.57 L 65.18 212.99 L 65.50 214.40 L 65.82 215.81 L 66.15 217.22 L 66.47 218.64 L 66.79 220.05 L 67.11 221.46 L 67.43 222.87 L 67.75 224.28 L 68.08 225.70 L 68.40 227.11 L 68.72 228.52 L 69.04 229.93 L 69.36 231.34 L 69.68 232.76 L 70.01 234.17 L 76.50 237.11 L 73.40 238.03 L 74.47 239.51 L 72.42 240.49 L 71.62 241.23 L 73.60 243.16 L 75.62 245.11 L 72.58 245.47 L 72.90 246.88 L 73.22 248.29 L 73.55 249.70 L 73.86 251.11 L 74.18 252.52 L 74.50 253.93 L 74.81 255.34 L 75.11 256.74 L 75.40 258.13 L 75.69 259.52 L 75.97 260.90 L 76.24 262.28 L 76.50 263.65 L 76.75 265.01 L 76.98 266.37 L 77.19 267.71 L 77.93 269.42 L 79.64 271.46 L 77.79 271.67 L 77.97 272.99 L 78.15 274.31 L 78.31 275.61 L 78.46 276.91 L 82.25 278.44 L 80.24 279.75 L 78.90 280.80 L 79.04 282.10 L 79.17 283.39 L 79.30 284.69 L 79.42 285.99 L 79.54 287.29 L 79.66 288.60 L 79.78 289.90 L 79.89 291.21 L 80.00 292.51 L 80.12 293.82 L 80.23 295.15 L 80.34 296.47 L 80.46 297.79 L 80.58 299.11 L 80.70 300.43 L 80.82 301.75 L 80.95 303.07 L 81.09 304.40 L 81.23 305.73 L 81.38 307.05 L 81.53 308.36 L 81.69 309.67 L 81.87 310.97 L 82.04 312.28 L 82.23 313.57 L 82.42 314.85 L 82.63 316.13 L 82.84 317.40 L 83.06 318.65 L 83.29 319.90 L 83.52 321.13 L 83.77 322.36 L 84.02 323.58 L 84.28 324.80 L 84.55 326.00 L 84.82 327.19 L 85.10 328.38 L 85.38 329.56 L 85.67 330.73 L 94.43 329.21 L 92.02 331.18 L 94.22 331.58 L 91.81 333.74 L 87.16 336.48 L 87.47 337.61 L 87.79 338.73 L 88.10 339.84 L 88.42 340.94 L 88.74 342.03 L 89.07 343.10 L 89.39 344.17 L 89.71 345.23 L 90.04 346.27 L 90.36 347.30 L 90.69 348.32 L 91.02 349.33 L 91.36 350.32 L 91.70 351.30 L 92.04 352.26 L 92.39 353.21 L 92.74 354.14 L 93.10 355.05 L 93.46 355.95 L 93.83 356.83 L 104.49 350.76 L 94.68 358.32 L 95.02 359.35 L 95.43 360.14 L 102.26 357.80 L 97.06 361.29 L 96.69 362.36 L 97.14 363.05 L 97.60 363.71 L 98.07 364.34 L 98.54 364.93 L 99.03 365.49 L 99.52 366.02 L 100.03 366.52 L 100.55 366.98 L 101.09 367.40 L 101.64 367.79 L 102.20 368.14 L 102.77 368.45 L 103.36 368.72 L 103.97 368.96 L 104.59 369.16 L 105.22 369.33 L 105.87 369.45 L 106.53 369.55 L 107.21 369.60 L 107.90 369.63 L 108.61 369.63 L 109.35 369.60 L 110.09 369.54 L 110.84 369.45 L 111.59 369.34 L 112.35 369.21 L 113.13 369.07 L 113.95 368.91 L 114.76 368.73 L 115.57 368.54 L 116.37 368.34 L 117.17 368.13 L 118.00 367.91 L 118.84 367.69 L 119.68 367.46 L 120.53 367.22 L 121.39 366.98 L 122.26 366.74 L 123.13 366.50 L 124.02 366.25 L 124.92 366.01 L 125.84 365.75 L 126.78 365.50 L 127.72 365.24 L 128.68 364.98 L 129.64 364.72 L 130.61 364.46 L 131.59 364.14 L 137.52 360.73 L 134.70 362.99 L 134.55 363.35 L 135.53 363.06 L 136.52 362.76 L 137.51 362.46 L 138.49 362.14 L 139.45 361.81 L 140.40 361.48 L 141.36 361.13 L 142.34 360.77 L 143.32 360.39 L 144.29 360.01 L 145.24 359.61 L 146.18 359.19 L 147.14 358.77 L 148.11 358.32 L 149.09 357.87 L 150.06 357.39 L 151.02 356.91 L 151.97 356.41 L 152.92 355.90 L 153.88 355.38 L 154.82 354.84 L 155.75 354.29 L 156.67 353.73 L 157.60 353.17 L 158.51 352.60 L 159.40 352.01 L 160.27 351.41 L 161.14 350.80 L 162.00 350.19 L 162.85 349.58 L 163.70 348.95 L 164.53 348.32 L 165.34 347.68 L 166.14 347.03 L 166.93 346.38 L 167.72 345.72 L 168.51 345.06 L 169.28 344.40 L 170.05 343.74 L 170.82 343.08 L 171.58 342.41 L 172.34 341.75 L 173.10 341.09 L 173.86 340.43 L 174.61 339.76 L 175.37 339.10 L 176.15 338.44 L 176.93 337.78 L 177.71 337.13 L 178.49 336.47 L 179.27 335.82 L 180.05 335.17 L 180.85 334.52 L 181.67 333.88 L 182.48 333.24 L 183.31 332.60 L 184.13 331.97 L 184.96 331.35 L 185.80 330.74 L 186.63 330.12 L 187.46 329.50 L 188.29 328.88 L 189.11 328.25 L 189.92 327.62 L 190.73 326.98 L 191.53 326.34 L 192.32 325.68 L 193.08 325.02 L 193.82 324.34 L 194.54 323.63 L 195.25 322.90 L 195.95 322.16 L 196.63 321.41 L 197.29 320.65 L 197.93 319.86 L 198.55 319.06 L 199.16 318.24 L 199.76 317.39 L 200.34 316.53 L 200.90 315.66 L 201.45 314.77 L 201.98 313.87 L 202.50 312.95 L 203.01 312.01 L 204.09 310.75 L 206.23 309.04 L 207.22 307.75 L 204.91 308.08 L 205.35 307.06 L 205.79 306.01 L 206.22 304.96 L 206.66 303.90 L 207.08 302.83 L 207.48 301.73 L 207.88 300.64 L 208.29 299.54 L 208.72 298.44 L 209.20 297.36 L 209.78 296.15 L 211.76 294.36 L 212.11 293.41 L 212.85 292.55 L 214.06 291.60 L 214.74 290.95 L 215.06 290.60 L 216.19 290.06 L 217.37 289.68 L 218.39 289.49 L 219.90 289.26 L 219.65 289.79 L 220.85 289.71 L 222.02 289.68 L 223.20 289.60 L 224.39 289.58 L 225.60 289.55 L 226.81 289.55 L 228.00 289.54 L 229.17 289.49 L 230.33 289.44 L 233.11 290.45 L 233.66 289.31 L 233.81 289.41 L 234.95 289.38 L 236.08 289.34 L 237.19 289.31 L 238.30 289.30 L 239.40 289.29 L 240.50 289.27 L 241.60 289.25 L 242.68 289.23 L 243.75 289.22 L 246.22 290.12 L 246.08 289.66 L 246.94 289.35 L 248.02 289.39 L 249.04 289.42 L 250.03 289.44 L 250.99 289.36 L 251.96 289.35 L 251.94 287.85 L 252.88 287.75 L 254.28 288.29 L 254.68 287.25 L 254.93 286.38 L 257.31 288.10 L 258.57 287.85 L 259.33 287.59 L 259.94 286.94 L 260.74 286.73 L 260.57 285.58 L 261.17 285.08 L 261.77 284.58 L 262.79 284.40 L 264.07 284.50 L 264.97 284.22 L 264.18 282.59 L 265.12 282.35 L 266.31 282.30 L 265.74 280.89 L 266.30 280.41 L 266.87 279.89 L 267.41 279.27 L 267.89 278.58 L 268.32 277.87 L 268.75 277.15 L 269.14 276.42 L 269.49 275.63 L 269.74 274.83 L 269.91 274.04 L 270.02 273.21 L 270.04 272.35 L 270.00 271.53 L 269.86 270.72 L 269.66 269.96 L 269.38 269.18 L 269.03 268.43 L 268.65 267.71 L 268.22 266.98 L 267.74 266.50 L 267.52 266.30 L 266.64 264.49 L 265.56 263.27 L 265.66 263.65 L 265.05 262.96 L 264.40 262.29 L 263.72 261.68 L 263.01 261.13 L 262.26 260.60 L 261.50 260.05 L 260.69 259.51 L 259.86 258.99 L 258.99 258.52 L 258.08 258.07 L 257.14 257.66 L 256.16 257.25 L 255.14 256.86 L 254.09 256.47 L 253.01 256.09 L 251.88 255.71 L 250.72 255.34 L 249.52 255.00 L 248.29 254.63 L 247.04 254.23 L 245.74 253.94 L 245.09 254.05 L 244.28 253.93 L 243.00 253.16 L 242.11 252.50 L 241.18 251.56 L 240.83 251.01 L 239.12 249.09 L 239.08 248.86 L 240.48 247.79 L 238.85 245.39 L 238.97 243.08 L 238.40 241.56 L 236.28 238.81 L 235.66 237.49 L 235.06 236.22 L 234.45 234.99 L 233.80 233.75 L 233.11 232.51 L 232.42 231.29 L 231.71 230.09 L 230.99 228.92 L 230.24 227.77 L 229.49 226.62 L 228.73 225.48 L 227.92 224.40 L 227.06 223.38 L 226.17 222.41 L 225.25 221.46 L 224.33 220.51 L 223.40 219.57 L 222.44 218.66 L 221.43 217.78 L 220.40 216.92 L 219.42 216.34 L 219.50 217.91 L 218.68 217.48 L 216.14 213.50 L 215.05 212.64 L 213.95 211.78 L 212.84 210.91 L 211.73 210.04 L 210.61 209.16 L 209.49 208.28 L 208.38 207.39 L 207.26 206.51 L 206.16 205.61 L 205.06 204.69 L 205.51 205.36 L 203.70 204.07 L 201.77 201.90 L 200.69 200.95 L 201.17 201.64 L 199.71 200.47 L 199.70 200.21 L 196.48 197.04 L 195.45 196.03 L 194.42 195.01 L 193.40 193.99 L 193.50 194.17 L 192.89 193.31 L 190.38 190.87 L 189.39 189.82 L 188.39 188.78 L 187.40 187.72 L 186.41 186.67 L 185.41 185.62 L 184.42 184.56 L 183.42 183.51 L 182.42 182.46 L 181.43 181.40 L 180.43 180.35 L 179.44 179.30 L 178.45 178.24 L 177.45 177.19 L 176.46 176.14 L 175.47 175.09 L 174.47 174.03 L 173.48 172.98 L 172.49 171.93 L 171.50 170.88 L 170.51 169.83 L 169.51 168.77 L 168.52 167.72 L 167.53 166.66 L 166.53 165.61 L 165.54 164.55 L 164.55 163.49 L 163.55 162.44 L 162.56 161.38 L 161.57 160.32 L 160.57 159.27 L 159.58 158.21 L 158.59 157.15 L 157.59 156.10 L 156.60 155.04 L 155.60 153.99 L 154.61 152.93 L 153.62 151.87 L 152.62 150.82 L 151.63 149.76 L 150.64 148.70 L 149.64 147.65 L 148.65 146.59 L 147.66 145.53 L 146.66 144.48 L 145.67 143.42 L 144.68 142.37 L 143.68 141.31 L 142.69 140.25 L 141.70 139.20 L 140.70 138.14 L 139.71 137.08 L 138.72 136.03 L 137.72 134.97 L 136.73 133.91 L 135.73 132.86 L 134.74 131.80 L 133.75 130.75 L 132.75 129.69 L 131.76 128.63 L 130.77 127.58 L 129.77 126.52 L 128.78 125.46 L 127.79 124.41 L 126.79 123.35 L 125.80 122.29 L 124.81 121.24 L 123.81 120.18 L 122.82 119.12 L 121.83 118.07 L 120.83 117.01 L 119.84 115.96 L 118.85 114.90 L 117.85 113.84 L 116.86 112.79 L 115.86 111.73 L 114.87 110.67 L 113.88 109.62 L 112.88 108.56 L 111.89 107.50 L 110.90 106.45 L 109.90 105.39 L 108.91 104.34 L 107.92 103.28 L 106.92 102.22 L 105.93 101.17 L 104.94 100.11 L 103.94 99.05 L 102.95 98.00 L 101.96 96.94 L 100.97 95.88 L 99.98 94.82 L 98.99 93.76 L 98.01 92.70 L 97.03 91.63 L 96.07 90.56 L 95.11 89.48 L 94.16 88.39 L 93.21 87.30 L 92.28 86.20 L 91.36 85.10 L 90.45 83.98 L 89.56 82.86 L 88.69 81.72 L 87.82 80.57 L 86.95 79.42 L 86.09 78.27 L 85.24 77.12 L 84.40 75.96 L 83.57 74.79 L 82.75 73.61 L 81.93 72.44 L 81.11 71.27 L 80.30 70.10 L 79.49 68.92 L 78.69 67.75 L 77.89 66.58 L 77.10 65.43 L 76.31 64.28 L 75.53 63.15 L 74.75 62.02 L 73.97 60.91 L 73.18 59.81 L 72.41 58.71 L 71.63 57.63 L 70.85 56.58 L 70.07 55.56 L 69.28 54.55 L 68.49 53.55 L 67.70 52.54 L 66.91 51.54 L 66.11 50.56 L 65.30 49.60 L 64.49 48.66 L 63.67 47.71 L 62.84 46.75 L 62.01 45.80 L 61.18 44.86 L 60.33 43.92 L 59.48 42.98 L 58.63 42.05 L 57.77 41.12 L 56.92 40.19 L 56.07 39.27 L 55.22 38.34 L 54.39 37.41 L 53.57 36.47 L 52.77 35.52 L 51.96 34.59 L 51.15 33.67 L 50.32 32.74 L 59.98 45.05 L 54.10 37.59 L 54.98 38.82 L 46.85 28.97 L 45.93 28.01 Z" />
</symbol>
<symbol id="bl4">
<path d="M 165.49 188.50 L 164.03 189.08 L 162.93 189.53 L 161.92 189.95 L 160.96 190.38 L 160.10 190.79 L 159.25 191.21 L 159.48 192.56 L 161.44 195.59 L 156.76 192.60 L 155.95 193.09 L 155.17 193.57 L 154.41 194.06 L 153.64 194.58 L 152.85 195.14 L 152.06 195.71 L 151.30 196.27 L 150.57 196.81 L 149.87 197.34 L 149.19 197.88 L 148.51 198.43 L 147.87 198.97 L 147.25 199.50 L 146.67 200.03 L 146.12 200.56 L 145.59 201.12 L 145.08 201.74 L 144.62 202.37 L 144.27 202.92 L 143.97 203.50 L 143.72 204.09 L 143.47 204.78 L 143.27 205.48 L 143.17 206.16 L 143.14 206.83 L 143.18 207.53 L 143.27 208.22 L 143.41 208.93 L 143.61 209.63 L 143.86 210.35 L 144.17 211.10 L 144.52 211.87 L 144.91 212.66 L 145.35 213.46 L 145.84 214.26 L 146.38 215.08 L 146.96 215.93 L 147.57 216.82 L 148.21 217.72 L 148.89 218.60 L 149.63 219.49 L 150.40 220.38 L 151.19 221.35 L 151.99 222.32 L 152.82 223.28 L 153.71 224.22 L 154.68 225.10 L 157.92 227.32 L 158.51 228.15 L 159.76 229.04 L 161.05 229.61 L 162.31 229.82 L 163.56 229.71 L 164.78 229.31 L 165.89 228.68 L 166.96 227.97 L 168.30 227.40 L 166.13 224.76 L 166.84 223.83 L 168.02 223.30 L 167.17 221.16 L 168.98 221.25 L 169.70 220.46 L 170.41 219.67 L 171.13 218.87 L 171.88 218.07 L 172.66 217.30 L 173.48 216.57 L 174.31 215.85 L 175.15 215.10 L 175.99 214.33 L 176.84 213.53 L 177.70 212.74 L 178.60 211.97 L 179.54 211.20 L 184.04 213.00 L 183.20 210.90 L 183.57 209.88 L 185.60 210.17 L 187.56 210.84 L 187.61 209.14 L 188.66 209.09 L 189.88 209.48 L 191.02 210.09 L 190.14 209.07 L 191.16 209.58 L 192.16 210.08 L 193.13 210.56 L 194.09 211.01 L 195.03 211.43 L 195.96 211.81 L 196.86 212.13 L 197.75 212.39 L 198.66 212.58 L 199.57 212.73 L 200.46 212.83 L 201.34 212.91 L 202.21 212.94 L 203.08 212.91 L 203.97 212.82 L 204.86 212.69 L 205.75 212.54 L 206.63 212.37 L 207.51 212.19 L 208.41 211.99 L 209.30 211.75 L 210.20 211.51 L 211.10 211.26 L 212.00 211.00 L 212.91 210.75 L 213.83 210.49 L 214.74 210.24 L 215.65 209.98 L 216.57 209.72 L 217.50 209.46 L 218.44 209.19 L 219.39 208.92 L 220.34 208.64 L 221.29 208.38 L 223.13 209.05 L 224.24 208.86 L 224.19 207.52 L 225.20 207.26 L 226.22 207.02 L 227.25 206.77 L 228.65 206.94 L 230.26 207.74 L 230.75 209.62 L 232.05 208.06 L 233.08 207.80 L 234.17 207.70 L 235.05 206.99 L 235.51 203.93 L 236.54 203.47 L 237.55 202.94 L 238.55 202.41 L 239.55 201.86 L 240.55 201.30 L 241.55 200.73 L 242.56 200.19 L 243.57 199.66 L 244.57 199.12 L 245.58 198.56 L 246.58 198.00 L 247.59 197.43 L 248.82 197.65 L 250.02 197.97 L 250.54 195.64 L 251.49 195.03 L 252.45 194.40 L 253.40 193.77 L 254.34 193.08 L 255.82 193.12 L 256.22 191.81 L 257.54 192.82 L 258.49 192.10 L 259.05 189.82 L 260.00 189.13 L 260.95 188.44 L 261.90 187.75 L 262.85 187.05 L 263.81 186.34 L 264.79 185.63 L 265.78 184.90 L 266.77 184.18 L 267.77 183.45 L 268.76 182.72 L 269.76 181.98 L 270.76 181.23 L 271.76 180.48 L 272.77 179.73 L 273.78 178.97 L 274.77 178.20 L 275.77 177.41 L 276.77 176.62 L 277.76 175.81 L 278.75 175.01 L 279.72 174.19 L 280.70 173.36 L 281.67 172.51 L 282.64 171.64 L 283.61 170.77 L 284.57 169.88 L 285.54 168.99 L 286.51 168.08 L 287.47 167.19 L 288.44 166.28 L 289.40 165.36 L 290.37 164.42 L 291.33 163.47 L 292.31 162.54 L 293.28 161.61 L 294.26 160.68 L 295.24 159.73 L 296.22 158.78 L 297.20 157.82 L 298.19 156.86 L 299.18 155.90 L 300.18 154.93 L 301.19 153.97 L 302.19 153.01 L 303.20 152.04 L 304.21 151.06 L 305.23 150.09 L 306.25 149.12 L 307.29 148.17 L 308.34 147.22 L 309.39 146.27 L 310.45 145.33 L 311.52 144.39 L 312.60 143.47 L 313.69 142.56 L 314.80 141.66 L 315.93 140.77 L 317.06 139.89 L 318.20 139.02 L 319.35 138.15 L 320.51 137.29 L 321.68 136.43 L 322.85 135.59 L 324.03 134.75 L 325.21 133.90 L 326.39 133.06 L 327.58 132.22 L 328.76 131.39 L 329.95 130.55 L 331.14 129.71 L 332.32 128.87 L 333.51 128.03 L 334.69 127.19 L 335.88 126.35 L 337.07 125.52 L 338.25 124.68 L 339.44 123.84 L 340.62 123.00 L 341.81 122.16 L 343.00 121.32 L 344.18 120.49 L 345.37 119.65 L 346.55 118.81 L 347.74 117.98 L 348.93 117.14 L 350.12 116.32 L 351.32 115.50 L 352.52 114.69 L 353.72 113.88 L 354.93 113.09 L 356.14 112.30 L 357.36 111.52 L 358.58 110.75 L 359.81 110.00 L 361.05 109.27 L 362.30 108.54 L 363.56 107.83 L 364.81 107.12 L 366.07 106.41 L 367.33 105.72 L 368.59 105.03 L 369.86 104.36 L 371.13 103.69 L 372.41 103.02 L 373.68 102.36 L 374.95 101.70 L 376.22 101.05 L 377.49 100.40 L 378.76 99.75 L 380.02 99.11 L 381.27 98.48 L 382.51 97.85 L 383.73 97.22 L 384.95 96.60 L 386.15 95.97 L 387.35 95.35 L 388.53 94.72 L 389.69 94.10 L 390.83 93.48 L 391.95 92.85 L 393.05 92.21 L 394.15 91.56 L 395.25 90.92 L 396.33 90.27 L 397.41 89.62 L 398.46 88.96 L 399.51 88.28 L 400.55 87.59 L 401.60 86.91 L 402.65 86.22 L 403.69 85.52 L 404.74 84.82 L 405.78 84.13 L 406.84 83.46 L 407.92 82.81 L 409.01 82.19 L 410.12 81.59 L 411.22 81.04 L 412.32 80.54 L 413.46 80.07 L 414.63 79.64 L 415.83 79.26 L 417.04 78.89 L 418.21 78.55 L 411.66 85.90 L 413.64 84.80 L 414.38 84.66 L 414.03 85.30 L 412.26 86.98 L 424.44 75.09 L 425.33 74.31 L 426.19 73.51 L 427.02 72.70 L 427.83 71.90 L 428.64 71.12 L 429.44 70.34 L 430.24 69.56 L 431.00 68.76 L 431.75 67.96 L 432.50 67.18 L 433.25 66.42 L 433.98 65.65 L 434.68 64.86 L 435.33 64.03 L 435.98 63.21 L 436.62 62.42 L 437.26 61.68 L 437.88 60.95 L 438.45 60.19 L 438.99 59.43 L 439.48 58.67 L 439.97 57.93 L 440.45 57.21 L 440.93 56.47 L 441.34 55.72 L 441.64 54.96 L 441.83 54.17 L 441.91 53.43 L 441.91 52.71 L 441.76 52.06 L 441.46 51.47 L 441.02 50.95 L 440.60 50.40 L 440.00 50.03 L 439.29 49.71 L 438.53 49.49 L 437.73 49.37 L 436.95 49.33 L 436.14 49.35 L 435.29 49.41 L 434.48 49.52 L 433.68 49.65 L 432.89 49.81 L 432.11 50.00 L 431.31 50.21 L 430.47 50.45 L 429.61 50.71 L 428.72 51.00 L 427.85 51.30 L 427.00 51.63 L 426.14 51.97 L 425.26 52.33 L 424.36 52.71 L 423.46 53.10 L 422.55 53.51 L 421.65 53.93 L 420.74 54.36 L 419.82 54.81 L 418.90 55.26 L 417.96 55.73 L 417.02 56.20 L 416.07 56.69 L 415.11 57.18 L 414.14 57.69 L 413.16 58.20 L 412.17 58.72 L 411.14 59.21 L 410.13 59.77 L 409.10 60.31 L 408.06 60.86 L 407.01 61.41 L 405.94 61.96 L 404.85 62.53 L 403.75 63.09 L 402.64 63.67 L 401.52 64.25 L 400.39 64.83 L 399.25 65.42 L 398.11 66.01 L 396.97 66.61 L 395.82 67.21 L 394.67 67.82 L 393.52 68.43 L 392.37 69.05 L 391.23 69.69 L 390.09 70.32 L 388.94 70.95 L 387.80 71.59 L 386.67 72.24 L 385.55 72.92 L 384.44 73.62 L 383.32 74.32 L 382.20 75.02 L 381.07 75.72 L 379.97 76.45 L 378.87 77.21 L 377.78 77.99 L 376.69 78.78 L 375.59 79.57 L 374.50 80.36 L 373.40 81.17 L 372.30 81.98 L 371.20 82.80 L 370.10 83.63 L 369.00 84.46 L 367.90 85.29 L 366.79 86.11 L 365.68 86.93 L 364.56 87.75 L 363.44 88.57 L 362.32 89.38 L 361.19 90.19 L 360.07 91.00 L 358.93 91.80 L 357.78 92.59 L 356.62 93.37 L 355.46 94.15 L 354.29 94.92 L 353.12 95.69 L 351.93 96.44 L 350.73 97.18 L 349.51 97.91 L 348.28 98.62 L 347.04 99.33 L 345.80 100.03 L 344.55 100.72 L 343.29 101.40 L 342.02 102.08 L 340.76 102.75 L 339.49 103.41 L 338.23 104.07 L 336.97 104.72 L 335.72 105.38 L 334.48 106.05 L 333.25 106.72 L 332.03 107.40 L 330.82 108.09 L 329.63 108.78 L 328.45 109.47 L 327.29 110.17 L 326.13 110.89 L 324.98 111.64 L 323.83 112.40 L 322.70 113.17 L 321.59 113.93 L 320.47 114.70 L 319.37 115.48 L 318.27 116.28 L 317.17 117.10 L 316.08 117.92 L 315.00 118.73 L 313.91 119.55 L 312.84 120.38 L 311.77 121.21 L 310.70 122.04 L 309.65 122.88 L 308.59 123.72 L 307.55 124.57 L 306.51 125.42 L 305.48 126.27 L 304.45 127.12 L 303.43 127.98 L 302.42 128.85 L 301.42 129.72 L 300.42 130.59 L 299.43 131.46 L 298.45 132.34 L 297.47 133.22 L 296.50 134.10 L 295.53 135.00 L 294.58 135.90 L 293.63 136.80 L 292.69 137.70 L 291.76 138.61 L 290.83 139.53 L 289.90 140.45 L 288.98 141.38 L 288.06 142.32 L 287.16 143.25 L 286.25 144.20 L 285.35 145.15 L 284.46 146.10 L 283.58 147.07 L 282.71 148.03 L 281.80 149.00 L 280.85 149.96 L 279.93 150.93 L 279.05 151.91 L 278.23 152.90 L 277.41 153.91 L 276.52 154.90 L 275.57 155.88 L 274.63 156.86 L 273.75 157.86 L 272.95 158.88 L 272.17 159.90 L 271.33 160.93 L 270.44 161.93 L 269.52 162.92 L 268.67 163.92 L 267.88 164.96 L 267.11 166.02 L 266.28 167.04 L 265.39 168.03 L 264.50 169.01 L 263.68 170.03 L 262.90 171.08 L 262.11 172.13 L 261.27 173.14 L 260.38 174.12 L 259.53 175.13 L 258.71 176.14 L 257.89 177.16 L 257.05 178.18 L 256.76 182.12 L 255.66 181.26 L 255.18 184.08 L 253.57 182.08 L 252.51 182.86 L 252.27 186.28 L 251.18 186.05 L 249.24 184.94 L 248.14 185.69 L 246.93 186.21 L 245.96 187.44 L 245.45 189.93 L 243.26 187.65 L 241.96 187.84 L 240.67 188.13 L 240.16 190.26 L 238.75 190.11 L 237.58 190.52 L 235.34 188.36 L 234.02 188.20 L 232.99 189.81 L 232.04 191.25 L 229.97 187.98 L 229.24 190.82 L 228.05 191.04 L 226.73 189.98 L 224.56 187.55 L 223.20 187.41 L 221.84 187.26 L 220.47 187.10 L 219.10 186.96 L 217.73 186.83 L 216.37 186.68 L 215.00 186.51 L 213.63 186.33 L 212.25 186.15 L 210.88 185.99 L 210.96 188.20 L 209.36 186.82 L 206.81 185.51 L 205.48 185.34 L 204.15 185.19 L 202.82 185.03 L 201.53 184.90 L 200.24 184.78 L 198.97 184.67 L 197.71 184.58 L 196.46 184.49 L 195.22 184.42 L 193.99 184.36 L 192.76 184.33 L 191.52 184.32 L 190.29 184.32 L 189.11 184.33 L 187.96 184.36 L 186.81 184.40 L 185.61 184.47 L 184.38 184.58 L 183.17 184.55 L 182.05 184.75 L 181.00 184.88 L 179.94 185.01 L 178.82 185.17 L 177.67 185.35 L 176.56 185.54 L 175.51 185.74 L 174.47 185.95 L 173.44 186.18 L 172.36 186.44 L 171.25 186.72 L 170.13 187.03 L 169.04 187.35 L 167.91 187.70 L 166.37 188.24 Z" />
</symbol>
<symbol id="bl5">
<path d="M 64.09 420.63 L 63.63 422.12 L 63.33 423.25 L 63.04 424.30 L 62.76 425.31 L 62.51 426.23 L 62.27 427.14 L 62.04 428.05 L 61.80 428.96 L 61.55 429.88 L 61.32 430.77 L 61.11 431.62 L 60.91 432.46 L 60.71 433.33 L 60.49 434.25 L 60.28 435.16 L 60.10 436.02 L 59.95 436.82 L 59.80 437.60 L 59.67 438.41 L 59.56 439.21 L 59.46 440.00 L 59.39 440.75 L 59.35 441.49 L 59.36 442.25 L 59.42 443.04 L 59.55 443.80 L 59.73 444.53 L 59.98 445.27 L 60.32 445.98 L 60.75 446.68 L 61.28 447.28 L 61.88 447.81 L 62.54 448.29 L 63.22 448.69 L 63.95 449.00 L 64.75 449.18 L 65.53 449.27 L 66.32 449.27 L 67.09 449.19 L 67.87 449.04 L 68.66 448.82 L 69.43 448.56 L 70.18 448.26 L 70.94 447.92 L 71.69 447.56 L 72.43 447.17 L 73.19 446.75 L 73.98 446.31 L 74.81 445.84 L 75.66 445.35 L 76.48 444.84 L 77.27 444.31 L 78.07 443.76 L 78.88 443.19 L 79.72 442.61 L 80.56 442.02 L 81.39 441.41 L 82.22 440.78 L 83.05 440.15 L 83.88 439.50 L 84.72 438.85 L 85.57 438.18 L 86.42 437.50 L 87.29 436.82 L 88.16 436.12 L 89.03 435.42 L 89.91 434.71 L 101.14 421.56 L 94.44 430.15 L 100.82 422.83 L 93.56 431.78 L 94.49 431.04 L 95.43 430.28 L 96.38 429.52 L 97.34 428.75 L 98.33 427.98 L 99.31 427.20 L 100.30 426.43 L 101.30 425.64 L 102.30 424.85 L 103.30 424.05 L 104.30 423.25 L 105.31 422.45 L 106.31 421.64 L 107.32 420.83 L 108.31 420.01 L 109.30 419.19 L 110.28 418.36 L 111.27 417.54 L 112.25 416.71 L 113.22 415.87 L 114.18 415.00 L 115.13 414.12 L 116.09 413.23 L 117.04 412.35 L 118.00 411.46 L 118.94 410.55 L 119.88 409.61 L 120.81 408.64 L 121.75 407.66 L 122.68 406.68 L 123.62 405.68 L 124.56 404.68 L 125.50 403.66 L 126.45 402.64 L 127.40 401.61 L 128.35 400.57 L 129.31 399.53 L 130.27 398.49 L 131.24 397.46 L 132.21 396.42 L 133.18 395.38 L 134.16 394.35 L 135.14 393.32 L 136.13 392.30 L 137.13 391.29 L 138.14 390.28 L 139.16 389.28 L 140.19 388.29 L 141.22 387.29 L 142.26 386.32 L 143.32 385.35 L 144.39 384.40 L 145.48 383.46 L 146.57 382.52 L 147.68 381.59 L 148.79 380.66 L 149.90 379.75 L 151.03 378.84 L 152.16 377.94 L 153.30 377.03 L 154.44 376.13 L 155.58 375.24 L 156.73 374.34 L 157.87 373.44 L 159.02 372.55 L 160.16 371.65 L 161.30 370.76 L 162.44 369.86 L 163.59 368.96 L 164.73 368.06 L 165.87 367.17 L 167.01 366.27 L 168.15 365.38 L 169.30 364.48 L 170.44 363.58 L 171.58 362.69 L 172.72 361.79 L 173.86 360.90 L 175.01 360.00 L 176.15 359.11 L 177.30 358.21 L 178.44 357.32 L 179.58 356.42 L 180.73 355.53 L 181.87 354.63 L 183.01 353.74 L 184.16 352.84 L 185.30 351.95 L 186.44 351.05 L 187.59 350.16 L 188.73 349.27 L 189.87 348.38 L 191.02 347.49 L 192.16 346.60 L 193.31 345.71 L 194.45 344.82 L 195.60 343.92 L 196.74 343.03 L 197.89 342.14 L 199.03 341.25 L 200.17 340.36 L 201.32 339.47 L 202.46 338.58 L 203.61 337.69 L 204.75 336.80 L 205.90 335.91 L 207.04 335.02 L 208.19 334.13 L 209.33 333.23 L 210.48 332.34 L 211.63 331.45 L 212.76 330.54 L 214.39 329.39 L 217.06 326.98 L 216.21 327.87 L 217.36 326.98 L 218.50 326.08 L 219.65 325.20 L 220.79 324.31 L 221.94 323.43 L 223.09 322.55 L 224.25 321.68 L 225.41 320.82 L 226.58 319.98 L 228.48 318.96 L 230.07 318.49 L 230.24 317.37 L 232.29 314.73 L 232.49 315.88 L 233.70 315.09 L 234.90 314.30 L 236.07 313.48 L 237.21 312.62 L 238.32 311.74 L 239.42 310.86 L 240.52 309.97 L 241.59 309.03 L 242.60 308.02 L 243.51 306.91 L 244.36 305.71 L 245.20 304.47 L 246.05 303.21 L 246.90 301.91 L 247.75 300.55 L 248.51 299.11 L 249.76 297.16 L 250.70 295.75 L 252.01 294.62 L 253.23 293.64 L 253.53 292.27 L 256.30 294.44 L 257.89 294.53 L 259.41 294.54 L 260.88 294.49 L 262.33 294.41 L 263.74 294.29 L 265.10 294.13 L 266.39 293.88 L 268.64 294.25 L 269.15 293.50 L 269.88 292.47 L 270.99 291.90 L 272.08 291.29 L 273.14 290.64 L 274.16 289.94 L 275.17 289.20 L 276.17 288.44 L 277.16 287.67 L 278.15 286.88 L 279.13 286.10 L 281.08 286.21 L 281.46 284.94 L 282.06 283.75 L 283.02 282.97 L 283.97 282.19 L 284.92 281.41 L 285.86 280.63 L 286.80 279.86 L 287.72 279.11 L 288.65 278.36 L 289.56 277.60 L 290.46 276.85 L 291.36 276.11 L 291.22 275.54 L 292.22 275.21 L 293.99 273.94 L 294.85 273.22 L 295.71 272.50 L 296.55 271.80 L 297.38 271.10 L 298.22 270.41 L 299.01 269.69 L 299.81 268.97 L 300.59 268.25 L 301.36 267.53 L 302.11 266.81 L 302.85 266.11 L 303.56 265.40 L 304.26 264.68 L 304.95 263.96 L 305.61 263.25 L 306.24 262.55 L 302.20 261.89 L 308.54 262.25 L 307.98 260.52 L 308.18 260.22 L 306.80 260.35 L 309.53 258.46 L 309.92 257.75 L 310.25 256.98 L 310.48 256.26 L 310.62 255.56 L 310.64 254.86 L 310.51 254.18 L 310.30 253.49 L 310.00 252.85 L 309.62 252.28 L 309.10 251.73 L 305.56 251.28 L 305.84 251.86 L 307.26 250.54 L 306.58 250.24 L 305.88 249.97 L 305.19 249.75 L 304.51 249.58 L 303.82 249.43 L 303.10 249.29 L 302.37 249.16 L 301.63 249.05 L 300.88 248.94 L 300.13 248.88 L 299.36 248.84 L 298.55 248.81 L 297.73 248.77 L 296.89 248.71 L 296.06 248.67 L 295.24 248.69 L 294.42 248.75 L 293.60 248.83 L 292.76 248.89 L 291.91 248.93 L 291.04 248.95 L 290.16 249.00 L 289.29 249.11 L 288.44 249.29 L 287.59 249.46 L 286.72 249.63 L 285.83 249.75 L 284.92 249.94 L 283.93 250.66 L 282.99 251.09 L 282.13 251.48 L 280.32 252.45 L 280.30 253.19 L 280.05 253.12 L 279.53 254.36 L 279.08 254.15 L 278.47 254.89 L 277.85 255.62 L 277.21 256.33 L 276.55 257.03 L 275.87 257.69 L 275.13 258.28 L 274.33 258.82 L 273.49 259.33 L 272.63 259.83 L 271.75 260.32 L 270.86 260.79 L 269.93 261.24 L 269.01 261.68 L 268.09 262.13 L 267.17 262.60 L 266.26 263.07 L 265.34 263.55 L 264.43 264.04 L 263.54 264.56 L 262.69 265.11 L 262.33 266.16 L 262.07 267.29 L 260.16 266.82 L 259.33 267.42 L 258.52 268.03 L 257.74 268.66 L 256.96 269.29 L 256.18 269.93 L 255.38 270.53 L 254.83 271.42 L 255.26 273.03 L 253.06 272.49 L 252.28 273.10 L 251.48 273.70 L 250.68 274.29 L 249.85 274.88 L 249.01 275.45 L 248.00 275.84 L 246.46 275.46 L 246.37 277.02 L 245.46 277.46 L 244.50 277.81 L 244.71 278.16 L 242.65 278.78 L 241.68 279.31 L 240.69 279.70 L 239.70 280.07 L 238.70 280.43 L 237.70 280.82 L 236.70 281.23 L 235.69 281.63 L 234.68 282.01 L 233.66 282.37 L 232.63 282.73 L 231.61 283.09 L 230.59 283.45 L 229.60 283.82 L 228.62 284.20 L 227.64 284.60 L 226.65 284.99 L 225.66 285.36 L 224.68 285.72 L 223.74 286.10 L 222.81 286.51 L 221.90 286.95 L 221.00 287.37 L 220.67 288.08 L 220.82 288.93 L 218.36 288.56 L 217.50 288.98 L 216.68 289.43 L 215.86 289.84 L 215.10 290.29 L 214.34 290.73 L 214.94 290.65 L 214.76 290.95 L 213.67 291.64 L 212.33 292.41 L 211.09 293.31 L 210.58 293.91 L 210.04 294.49 L 209.54 295.05 L 209.05 295.60 L 208.56 296.15 L 208.04 296.71 L 207.47 297.30 L 206.89 297.94 L 206.33 298.58 L 205.81 299.21 L 205.27 299.91 L 204.73 300.63 L 204.16 301.38 L 203.60 302.21 L 203.07 303.08 L 202.55 303.98 L 202.01 304.94 L 201.51 305.86 L 200.99 306.83 L 200.49 307.77 L 200.66 308.37 L 201.95 308.42 L 199.06 310.38 L 198.60 311.21 L 198.16 312.00 L 197.73 312.73 L 197.24 313.45 L 196.75 314.15 L 196.27 314.82 L 195.83 315.45 L 195.39 316.10 L 194.95 316.73 L 194.49 317.36 L 194.04 317.99 L 193.57 318.60 L 193.06 319.21 L 192.55 319.81 L 192.04 320.39 L 191.57 320.97 L 191.08 321.56 L 190.52 322.15 L 189.91 322.72 L 189.26 323.25 L 188.59 323.78 L 187.96 324.28 L 187.29 324.78 L 186.60 325.24 L 185.92 325.65 L 185.21 326.07 L 184.51 326.44 L 183.77 326.80 L 183.03 327.12 L 182.34 327.41 L 181.69 327.68 L 181.04 327.94 L 180.37 328.20 L 179.65 328.45 L 178.92 328.71 L 178.17 328.95 L 177.44 329.20 L 176.71 329.43 L 175.96 329.64 L 175.17 329.86 L 174.35 330.07 L 173.51 330.27 L 172.67 330.43 L 171.80 330.57 L 170.94 330.70 L 170.07 330.82 L 169.20 330.93 L 168.30 331.03 L 167.37 331.12 L 166.45 331.18 L 165.52 331.25 L 164.62 331.33 L 163.70 331.40 L 162.78 331.47 L 161.86 331.54 L 160.92 331.62 L 159.96 331.71 L 159.02 331.80 L 158.11 331.91 L 157.20 332.04 L 156.27 332.18 L 155.32 332.34 L 154.35 332.51 L 153.42 332.67 L 152.52 332.85 L 151.62 333.05 L 150.72 333.28 L 149.82 333.53 L 148.92 333.78 L 148.05 334.02 L 147.20 334.26 L 146.35 334.53 L 145.49 334.81 L 144.65 335.11 L 143.82 335.41 L 143.01 335.72 L 142.19 336.04 L 141.38 336.38 L 140.55 336.73 L 139.72 337.08 L 138.90 337.45 L 138.09 337.83 L 137.27 338.22 L 136.44 338.62 L 135.60 339.00 L 134.75 339.34 L 133.89 339.67 L 133.01 339.98 L 132.11 340.29 L 131.20 340.59 L 134.79 337.62 L 132.04 341.20 L 128.44 341.38 L 132.24 339.45 L 130.23 340.10 L 129.26 340.45 L 128.89 340.67 L 130.01 340.41 L 122.96 343.94 L 122.11 344.61 L 121.28 345.32 L 120.44 346.03 L 119.58 346.70 L 118.75 347.43 L 117.94 348.19 L 117.13 348.97 L 116.31 349.76 L 115.45 350.52 L 114.61 351.31 L 113.79 352.10 L 112.99 352.93 L 112.19 353.76 L 111.39 354.58 L 110.58 355.39 L 109.77 356.17 L 108.97 356.98 L 108.20 357.82 L 107.45 358.68 L 106.71 359.54 L 105.97 360.34 L 105.21 361.10 L 104.46 361.86 L 103.74 362.68 L 103.04 363.53 L 102.36 364.37 L 101.66 365.16 L 100.95 365.91 L 100.25 366.65 L 99.56 367.42 L 98.88 368.19 L 98.21 368.95 L 97.53 369.70 L 96.86 370.43 L 96.18 371.17 L 95.51 371.89 L 94.84 372.62 L 94.17 373.34 L 93.49 374.05 L 92.82 374.75 L 92.15 375.46 L 91.48 376.18 L 90.80 376.90 L 90.12 377.61 L 89.44 378.32 L 88.76 379.02 L 88.08 379.73 L 87.39 380.44 L 86.71 381.16 L 86.02 381.88 L 85.33 382.59 L 84.64 383.31 L 83.95 384.04 L 83.26 384.78 L 82.58 385.52 L 81.90 386.27 L 81.22 387.03 L 80.55 387.80 L 79.88 388.58 L 79.22 389.36 L 78.57 390.17 L 77.93 390.99 L 77.30 391.84 L 76.69 392.69 L 76.08 393.56 L 75.47 394.43 L 74.87 395.32 L 74.29 396.24 L 73.73 397.19 L 73.17 398.15 L 72.62 399.10 L 72.09 400.04 L 71.59 401.00 L 71.07 402.00 L 70.56 403.04 L 70.06 404.06 L 69.59 405.05 L 69.16 406.00 L 68.75 406.98 L 68.33 407.99 L 67.90 409.02 L 67.50 410.02 L 67.13 411.00 L 66.77 411.96 L 66.44 412.92 L 66.14 413.95 L 74.61 406.84 L 68.88 412.75 L 65.08 417.13 L 64.76 418.23 L 64.29 419.75 Z" />
</symbol>
</defs>
<!-- isDone: 0 -->
<rect width="700" height="500" style="fill:#fff;stroke-width:0" />
<use class="p0 borderLine" xlink:href="#bl0"/>
<use class="p1 borderLine" xlink:href="#bl1"/>
<use class="p2 borderLine" xlink:href="#bl2"/>
<use class="p3 borderLine" xlink:href="#bl3"/>
<use class="p4 borderLine" xlink:href="#bl4"/>
<use class="p5 borderLine" xlink:href="#bl5"/>
<use class="q0 outLine" xlink:href="#bl0"/>
<use class="q1 outLine" xlink:href="#bl1"/>
<use class="q2 outLine" xlink:href="#bl2"/>
<use class="q3 outLine" xlink:href="#bl3"/>
<use class="q4 outLine" xlink:href="#bl4"/>
<use class="q5 outLine" xlink:href="#bl5"/>
<circle onclick="fromCircle(1)" class="circle" cx="444.9097" cy="448.8362" r="786718080.0000" />
<text class="tLabel" x="444.91" y="428.84"></text>
<text class="nLabel" x="444.91" y="443.84">7</text>
<text class="belong" x="444.91" y="453.84">(1)</text>
<circle onclick="fromCircle(2)" class="circle" cx="370.1982" cy="370.0808" r="786718080.0000" />
<text class="tLabel" x="370.20" y="350.08"></text>
<text class="nLabel" x="370.20" y="365.08">10</text>
<text class="belong" x="370.20" y="375.08">(2)</text>
<circle onclick="fromCircle(6)" class="circle" cx="247.0056" cy="245.2889" r="786718080.0000" />
<text class="tLabel" x="247.01" y="225.29"></text>
<text class="nLabel" x="247.01" y="240.29">49</text>
<text class="belong" x="247.01" y="250.29">(2, 3)</text>
<circle onclick="fromCircle(14)" class="circle" cx="232.6516" cy="245.0621" r="786718080.0000" />
<text class="tLabel" x="232.65" y="225.06"></text>
<text class="nLabel" x="232.65" y="240.06">2</text>
<text class="belong" x="232.65" y="250.06">(2, 3, 4)</text>
<circle onclick="fromCircle(10)" class="circle" cx="189.8721" cy="217.0017" r="786718080.0000" />
<text class="tLabel" x="189.87" y="197.00"></text>
<text class="nLabel" x="189.87" y="212.00">3</text>
<text class="belong" x="189.87" y="222.00">(2, 4)</text>
<circle onclick="fromCircle(26)" class="circle" cx="166.3693" cy="225.9919" r="786718080.0000" />
<text class="tLabel" x="166.37" y="205.99"></text>
<text class="nLabel" x="166.37" y="220.99">1</text>
<text class="belong" x="166.37" y="230.99">(2, 4, 5)</text>
<circle onclick="fromCircle(38)" class="circle" cx="280.9084" cy="256.2424" r="786718080.0000" />
<text class="tLabel" x="280.91" y="236.24"></text>
<text class="nLabel" x="280.91" y="251.24">4</text>
<text class="belong" x="280.91" y="261.24">(2, 3, 6)</text>
<circle onclick="fromCircle(4)" class="circle" cx="236.8675" cy="171.3687" r="786718080.0000" />
<text class="tLabel" x="236.87" y="151.37"></text>
<text class="nLabel" x="236.87" y="166.37">287</text>
<text class="belong" x="236.87" y="176.37">(3)</text>
<circle onclick="fromCircle(5)" class="circle" cx="252.9016" cy="296.9382" r="786718080.0000" />
<text class="tLabel" x="252.90" y="276.94"></text>
<text class="nLabel" x="252.90" y="291.94">1</text>
<text class="belong" x="252.90" y="301.94">(1, 3)</text>
<circle onclick="fromCircle(12)" class="circle" cx="197.8013" cy="302.4171" r="786718080.0000" />
<text class="tLabel" x="197.80" y="282.42"></text>
<text class="nLabel" x="197.80" y="297.42">16</text>
<text class="belong" x="197.80" y="307.42">(3, 4)</text>
<circle onclick="fromCircle(44)" class="circle" cx="136.3146" cy="340.5831" r="786718080.0000" />
<text class="tLabel" x="136.31" y="320.58"></text>
<text class="nLabel" x="136.31" y="335.58">1</text>
<text class="belong" x="136.31" y="345.58">(3, 4, 6)</text>
<circle onclick="fromCircle(20)" class="circle" cx="231.4788" cy="204.7480" r="786718080.0000" />
<text class="tLabel" x="231.48" y="184.75"></text>
<text class="nLabel" x="231.48" y="199.75">2</text>
<text class="belong" x="231.48" y="209.75">(3, 5)</text>
<circle onclick="fromCircle(36)" class="circle" cx="219.7015" cy="296.0634" r="786718080.0000" />
<text class="tLabel" x="219.70" y="276.06"></text>
<text class="nLabel" x="219.70" y="291.06">39</text>
<text class="belong" x="219.70" y="301.06">(3, 6)</text>
<circle onclick="fromCircle(8)" class="circle" cx="58.6008" cy="52.5949" r="786718080.0000" />
<text class="tLabel" x="58.60" y="32.59"></text>
<text class="nLabel" x="58.60" y="47.59">20</text>
<text class="belong" x="58.60" y="57.59">(4)</text>
<circle onclick="fromCircle(16)" class="circle" cx="404.5360" cy="87.4323" r="786718080.0000" />
<text class="tLabel" x="404.54" y="67.43"></text>
<text class="nLabel" x="404.54" y="82.43">2</text>
<text class="belong" x="404.54" y="92.43">(5)</text>
<circle onclick="fromCircle(32)" class="circle" cx="93.6639" cy="407.6685" r="786718080.0000" />
<text class="tLabel" x="93.66" y="387.67"></text>
<text class="nLabel" x="93.66" y="402.67">39</text>
<text class="belong" x="93.66" y="412.67">(6)</text>
<circle onclick="fromCircle(47)" class="circle" cx="251.4180" cy="282.0852" r="786718080.0000" />
<text class="tLabel" x="251.42" y="262.09"></text>
<text class="nLabel" x="251.42" y="277.09">1</text>
<text class="belong" x="251.42" y="287.09">(1, 2, 3, 4, 6)</text>
<rect class="p0 borderLine" x="500.00" y="50.00" width="30.00" height="15.00" />
<rect class="q0" x="500.00" y="50.00" width="30.00" height="15.00" />
<text class="legend" x="540.00" y="65.00">IBA</text>
<rect class="p1 borderLine" x="500.00" y="90.00" width="30.00" height="15.00" />
<rect class="q1" x="500.00" y="90.00" width="30.00" height="15.00" />
<text class="legend" x="540.00" y="105.00">IC</text>
<rect class="p2 borderLine" x="500.00" y="130.00" width="30.00" height="15.00" />
<rect class="q2" x="500.00" y="130.00" width="30.00" height="15.00" />
<text class="legend" x="540.00" y="145.00">IDA</text>
<rect class="p3 borderLine" x="500.00" y="170.00" width="30.00" height="15.00" />
<rect class="q3" x="500.00" y="170.00" width="30.00" height="15.00" />
<text class="legend" x="540.00" y="185.00">IEA</text>
<rect class="p4 borderLine" x="500.00" y="210.00" width="30.00" height="15.00" />
<rect class="q4" x="500.00" y="210.00" width="30.00" height="15.00" />
<text class="legend" x="540.00" y="225.00">ISS</text>
<rect class="p5 borderLine" x="500.00" y="250.00" width="30.00" height="15.00" />
<rect class="q5" x="500.00" y="250.00" width="30.00" height="15.00" />
<text class="legend" x="540.00" y="265.00">NAS</text>
</svg>
