<svg xmlns="http://www.w3.org/2000/svg" xmlns:xlink="http://www.w3.org/1999/xlink" width="700" height="500">
<defs>
<style type="text/css"><![CDATA[
  .borderLine {
	   stroke: none;
	   fill-opacity: 0.4;
  }
  .outLine {
	   stroke-width: 1;
	   fill: none;
  }
  .circle {
	   stroke: #888888;
	   stroke-width: 0.5;
	   fill: none;
    pointer-events: all;
  }
  .spcircle {
	   stroke: #FF2222;
	   stroke-width: 1;
	   fill: none;
    pointer-events: all;
  }
  .tLabel {
	   font-family: Arial;
    pointer-events: none;
	   font-size: 14px;
	   text-anchor: middle;
	   alignment-baseline: central;
  }
  .nLabel {
	   font-family: Arial;
    pointer-events: none;
	   font-size: 10px;
	   text-anchor: middle;
	   alignment-baseline: central;
  }
  .belong {
	   font-family: Arial;
    pointer-events: none;
	   font-size: 5px;
	   text-anchor: middle;
	   alignment-baseline: central;
  }
  .p0{
    stroke: none;
    fill: #e6194b;
  }
  .q0{
    fill: none;
    stroke: #e6194b;
  }
  .p1{
    stroke: none;
    fill: #3cb44b;
  }
  .q1{
    fill: none;
    stroke: #3cb44b;
  }
  .p2{
    stroke: none;
    fill: #ffe119;
  }
  .q2{
    fill: none;
    stroke: #ffe119;
  }
  .p3{
    stroke: none;
    fill: #0082c8;
  }
  .q3{
    fill: none;
    stroke: #0082c8;
  }
  .p4{
    stroke: none;
    fill: #f58231;
  }
  .q4{
    fill: none;
    stroke: #f58231;
  }
  .p5{
    stroke: none;
    fill: #911eb4;
  }
  .q5{
    fill: none;
    stroke: #911eb4;
  }
  .p6{
    stroke: none;
    fill: #46f0f0;
  }
  .q6{
    fill: none;
    stroke: #46f0f0;
  }
  .p7{
    stroke: none;
    fill: #f032e6;
  }
  .q7{
    fill: none;
    stroke: #f032e6;
  }
]]>
</style>
<symbol id="bl0">
<path d="M 66.22 238.07 L 62.71 240.98 L 59.11 243.92 L 54.79 246.37 L 50.52 248.70 L 46.70 251.49 L 43.40 254.44 L 40.04 257.81 L 37.49 262.09 L 34.88 266.45 L 32.71 270.86 L 31.58 275.63 L 30.98 280.59 L 31.59 285.39 L 32.39 289.88 L 33.93 294.27 L 36.25 298.47 L 39.02 302.47 L 42.32 306.09 L 46.16 308.71 L 49.97 310.89 L 53.91 313.14 L 58.22 314.65 L 62.49 316.24 L 67.08 317.14 L 71.45 318.30 L 75.64 319.75 L 80.00 320.93 L 84.52 322.23 L 89.22 323.50 L 93.95 324.31 L 98.60 324.68 L 102.97 325.36 L 107.28 326.19 L 111.39 327.79 L 115.73 328.74 L 119.93 329.39 L 124.33 330.40 L 129.08 330.51 L 133.65 329.56 L 138.14 328.64 L 142.51 326.71 L 146.59 324.33 L 150.73 322.78 L 155.17 321.14 L 159.20 318.66 L 163.57 316.76 L 167.58 314.57 L 171.85 312.61 L 176.12 311.29 L 180.49 310.47 L 184.85 309.73 L 189.12 309.88 L 193.35 310.46 L 197.77 311.43 L 202.34 312.56 L 206.43 314.89 L 210.14 317.13 L 213.44 319.57 L 216.88 322.25 L 219.84 325.83 L 222.94 329.22 L 224.67 333.32 L 226.02 337.84 L 227.84 341.94 L 228.11 346.43 L 229.01 350.59 L 230.21 354.62 L 231.75 358.54 L 233.73 362.25 L 236.37 365.73 L 239.17 369.08 L 242.43 371.89 L 245.67 374.38 L 249.10 376.53 L 252.52 378.87 L 255.89 381.29 L 259.52 383.36 L 263.04 385.66 L 266.51 388.14 L 270.05 390.54 L 273.70 392.75 L 277.49 394.60 L 281.23 396.56 L 285.09 398.51 L 288.98 400.37 L 292.60 402.54 L 296.17 404.72 L 299.78 406.73 L 303.28 408.93 L 306.75 411.20 L 310.31 413.38 L 313.86 415.66 L 317.36 418.10 L 320.90 420.50 L 324.63 422.59 L 328.45 424.46 L 332.27 426.31 L 336.12 428.11 L 339.97 429.90 L 343.61 431.98 L 347.20 434.16 L 350.83 436.25 L 354.56 438.19 L 358.32 440.03 L 362.16 441.77 L 366.14 443.23 L 370.14 444.61 L 374.12 445.98 L 378.23 446.82 L 382.37 447.53 L 386.55 448.08 L 390.74 448.46 L 394.92 448.49 L 399.10 448.63 L 403.29 448.52 L 407.50 448.21 L 411.64 447.44 L 415.72 446.73 L 419.78 445.87 L 423.82 444.75 L 427.78 443.42 L 431.67 441.88 L 435.60 440.41 L 439.37 438.49 L 443.15 436.59 L 446.77 434.37 L 450.32 432.05 L 453.68 429.49 L 456.83 426.70 L 460.08 424.04 L 463.15 421.18 L 465.92 418.00 L 468.59 414.75 L 471.31 411.56 L 473.75 408.14 L 475.99 404.54 L 478.28 400.92 L 480.18 397.10 L 481.91 393.24 L 483.71 389.34 L 484.89 385.26 L 486.48 381.31 L 487.62 377.12 L 488.33 372.91 L 489.14 368.73 L 489.53 364.43 L 489.69 360.12 L 490.00 355.86 L 489.87 351.54 L 489.29 347.21 L 488.90 342.93 L 488.09 338.66 L 487.07 334.45 L 486.02 330.30 L 484.62 326.20 L 483.08 322.17 L 481.87 318.02 L 479.74 314.25 L 477.65 310.51 L 475.59 306.75 L 473.08 303.23 L 470.64 299.65 L 467.90 296.25 L 464.99 292.98 L 462.18 289.60 L 458.87 286.75 L 455.42 284.14 L 451.92 281.59 L 448.37 279.02 L 444.68 276.67 L 441.01 274.33 L 437.22 272.15 L 433.36 270.03 L 429.38 268.15 L 425.42 266.23 L 421.46 264.37 L 417.49 262.51 L 413.47 260.68 L 409.47 258.82 L 405.59 256.81 L 401.72 254.73 L 397.75 252.83 L 393.82 250.90 L 389.87 248.94 L 385.93 246.97 L 382.15 244.88 L 378.29 242.95 L 374.35 241.27 L 370.43 239.71 L 366.63 238.01 L 362.64 236.37 L 358.58 234.75 L 354.42 232.90 L 350.10 231.44 L 346.00 229.89 L 341.74 228.79 L 337.22 228.70 L 332.67 229.36 L 328.43 230.76 L 324.22 232.24 L 319.64 232.59 L 315.19 233.12 L 311.13 234.08 L 306.99 234.98 L 302.73 235.59 L 298.22 236.15 L 293.51 236.93 L 289.03 237.66 L 284.71 238.65 L 280.19 239.42 L 275.65 240.49 L 271.53 241.55 L 267.53 243.34 L 263.82 245.89 L 259.79 248.34 L 255.29 250.20 L 251.02 251.63 L 246.76 252.61 L 242.33 253.06 L 237.65 252.96 L 232.95 251.76 L 228.24 250.52 L 223.80 248.36 L 219.81 246.03 L 215.62 243.03 L 212.10 239.48 L 209.42 235.96 L 207.09 231.94 L 205.30 227.24 L 204.06 222.76 L 203.20 218.45 L 202.23 213.55 L 202.23 209.05 L 202.85 204.48 L 202.91 199.54 L 201.88 194.98 L 201.91 190.70 L 201.54 185.37 L 201.22 180.60 L 199.75 176.22 L 197.61 171.63 L 195.14 167.11 L 192.02 163.82 L 188.12 160.76 L 184.73 157.72 L 180.90 155.48 L 176.14 154.59 L 171.61 152.96 L 167.22 152.39 L 162.32 152.25 L 157.84 152.98 L 153.60 154.94 L 149.58 156.41 L 145.86 158.79 L 141.84 160.94 L 137.59 163.76 L 133.89 167.80 L 129.48 170.97 L 125.09 173.22 L 120.56 174.62 L 115.63 175.30 L 110.78 175.39 L 106.45 174.74 L 101.80 173.52 L 97.00 172.92 L 92.42 173.97 L 88.40 176.46 L 85.43 179.69 L 83.55 184.06 L 83.26 189.03 L 83.06 193.89 L 82.24 198.60 L 81.50 203.55 L 81.73 208.82 L 81.35 213.58 L 79.93 218.48 L 78.00 223.13 L 75.38 227.27 L 72.31 231.14 L 68.89 234.09 Z" />
</symbol>
<symbol id="bl1">
<path d="M 35.36 178.31 L 31.87 180.12 L 28.63 182.54 L 25.59 185.31 L 22.72 188.47 L 20.39 192.07 L 18.66 195.89 L 17.36 199.75 L 16.69 203.70 L 16.07 207.99 L 16.54 212.63 L 17.57 216.96 L 18.89 220.90 L 20.69 224.64 L 22.85 227.97 L 25.42 230.96 L 28.79 233.72 L 32.43 236.14 L 36.43 238.65 L 41.09 239.94 L 45.61 240.63 L 49.73 241.50 L 54.02 241.94 L 58.32 242.88 L 62.11 244.90 L 66.09 246.49 L 69.85 247.74 L 73.39 249.50 L 76.80 250.69 L 80.15 252.64 L 83.86 254.81 L 86.98 257.85 L 90.32 261.20 L 94.32 262.70 L 98.36 264.80 L 102.79 266.07 L 107.21 266.31 L 110.99 266.10 L 114.88 265.63 L 119.10 264.75 L 123.45 264.34 L 127.52 264.39 L 131.40 264.82 L 135.10 265.75 L 138.92 266.95 L 142.80 268.12 L 146.18 270.35 L 149.41 273.10 L 152.32 276.42 L 155.11 279.89 L 156.98 283.49 L 158.52 286.99 L 159.52 291.25 L 160.05 295.93 L 160.01 300.41 L 159.88 304.94 L 158.22 309.27 L 156.81 313.09 L 156.52 317.28 L 155.60 321.20 L 153.56 324.86 L 150.97 328.63 L 149.54 332.72 L 148.25 336.71 L 147.05 340.58 L 146.05 344.55 L 145.69 348.77 L 145.65 353.15 L 145.91 357.48 L 146.59 361.82 L 147.35 366.35 L 149.01 370.62 L 151.93 373.86 L 154.57 377.07 L 157.43 380.21 L 160.46 383.17 L 163.88 385.57 L 167.43 387.82 L 171.22 389.78 L 175.39 391.02 L 179.69 391.99 L 183.93 392.71 L 188.19 392.62 L 192.46 392.27 L 196.69 391.82 L 200.75 390.37 L 204.74 388.61 L 208.59 386.54 L 212.28 384.18 L 215.44 381.22 L 218.32 378.15 L 221.17 374.82 L 223.33 370.93 L 225.38 367.03 L 226.95 362.91 L 227.76 358.75 L 228.57 354.53 L 228.70 350.38 L 228.40 346.07 L 228.06 341.95 L 228.05 337.70 L 229.05 333.33 L 230.19 328.94 L 232.12 324.77 L 234.39 320.60 L 237.13 316.96 L 239.88 313.92 L 242.70 310.71 L 245.06 306.97 L 246.96 303.16 L 247.70 298.89 L 248.31 294.40 L 247.78 290.15 L 248.54 286.06 L 249.25 282.00 L 249.75 277.74 L 250.48 273.30 L 250.62 268.74 L 251.62 264.29 L 252.82 260.12 L 254.58 256.22 L 256.82 252.44 L 260.02 249.44 L 262.87 246.50 L 266.14 243.93 L 269.24 241.40 L 272.13 238.52 L 274.26 235.12 L 276.68 231.61 L 278.77 228.09 L 280.69 224.81 L 282.51 221.16 L 284.47 217.59 L 287.28 214.57 L 289.73 211.68 L 291.69 208.22 L 293.25 204.59 L 295.05 200.91 L 296.44 197.09 L 297.81 193.49 L 300.39 190.44 L 303.64 187.55 L 307.20 185.14 L 310.78 183.39 L 314.29 181.65 L 318.08 180.18 L 321.97 178.41 L 325.90 176.75 L 329.73 175.52 L 333.07 173.49 L 336.19 171.21 L 338.66 168.16 L 340.24 164.45 L 340.96 160.32 L 340.04 156.22 L 338.90 152.11 L 337.38 148.07 L 335.40 144.67 L 333.47 141.24 L 331.23 138.23 L 328.41 135.17 L 326.10 132.08 L 323.31 128.78 L 320.95 125.62 L 317.83 122.81 L 314.46 121.46 L 310.61 120.87 L 306.54 121.12 L 302.89 123.03 L 299.90 125.28 L 296.43 127.59 L 293.60 130.06 L 290.50 132.43 L 287.50 135.22 L 284.61 137.79 L 281.34 140.04 L 278.02 142.47 L 275.00 145.08 L 271.84 147.43 L 268.93 149.95 L 266.58 153.01 L 264.27 156.43 L 262.41 160.27 L 259.44 163.49 L 256.39 166.66 L 253.17 169.21 L 249.63 171.17 L 245.64 172.77 L 241.49 173.92 L 237.52 174.91 L 233.47 175.37 L 229.50 174.52 L 225.82 173.17 L 222.02 172.13 L 218.04 170.48 L 214.32 168.79 L 210.42 167.74 L 206.77 165.98 L 202.85 164.92 L 198.65 164.31 L 195.00 162.80 L 191.66 161.03 L 188.49 158.88 L 184.90 157.22 L 181.20 156.46 L 177.74 155.02 L 173.97 153.87 L 170.09 153.19 L 165.80 153.11 L 161.61 153.18 L 157.68 153.76 L 153.99 154.61 L 150.43 156.24 L 146.94 158.00 L 143.66 160.56 L 140.09 163.05 L 137.12 165.78 L 133.91 168.32 L 130.18 170.39 L 126.78 172.55 L 122.64 174.18 L 118.32 175.25 L 114.10 175.51 L 109.79 175.83 L 105.33 174.46 L 101.47 173.13 L 97.62 172.75 L 93.33 172.79 L 89.15 173.22 L 84.95 173.33 L 80.51 173.41 L 76.13 173.29 L 71.88 173.25 L 67.52 173.32 L 63.20 173.63 L 58.98 173.83 L 54.72 174.35 L 50.56 174.92 L 46.60 175.18 L 42.73 175.78 L 38.86 176.66 Z" />
</symbol>
<symbol id="bl2">
<path d="M 118.24 265.07 L 114.24 266.41 L 111.03 269.00 L 107.83 270.67 L 104.92 273.02 L 102.41 275.96 L 99.91 279.17 L 97.91 282.72 L 96.45 286.45 L 95.10 290.74 L 93.86 294.52 L 94.49 298.70 L 94.89 302.83 L 95.73 306.63 L 97.14 310.44 L 99.15 314.20 L 101.51 318.02 L 103.96 321.75 L 107.05 324.27 L 110.09 326.37 L 113.35 327.99 L 117.18 328.42 L 121.25 329.62 L 125.42 329.94 L 129.27 330.28 L 133.37 329.54 L 137.70 329.02 L 141.27 326.98 L 144.85 324.93 L 148.58 322.65 L 151.78 320.07 L 155.52 317.97 L 158.82 315.97 L 162.49 314.20 L 165.33 311.43 L 168.03 308.76 L 170.98 306.30 L 173.84 303.56 L 176.45 300.58 L 179.13 297.62 L 182.33 295.05 L 185.78 292.68 L 189.10 290.06 L 192.06 287.10 L 194.83 284.14 L 197.99 281.64 L 201.42 279.32 L 204.86 276.74 L 208.32 274.21 L 211.92 271.90 L 215.94 270.57 L 220.07 269.67 L 224.31 269.55 L 228.49 270.41 L 232.44 271.67 L 236.10 273.58 L 239.30 275.97 L 242.37 278.58 L 245.38 281.31 L 248.10 283.94 L 250.87 286.72 L 253.69 289.89 L 256.88 292.70 L 260.06 295.29 L 263.23 298.04 L 266.54 300.45 L 270.19 302.25 L 274.21 303.61 L 278.19 304.52 L 281.95 305.07 L 285.84 304.93 L 289.77 304.51 L 293.43 303.31 L 296.74 302.12 L 300.22 300.44 L 304.09 298.76 L 308.03 296.98 L 311.64 295.26 L 315.54 294.04 L 319.19 292.22 L 322.84 290.29 L 326.82 288.69 L 330.37 286.78 L 333.73 284.94 L 337.69 283.76 L 341.43 282.17 L 344.41 279.85 L 347.69 277.87 L 351.25 275.97 L 354.57 273.58 L 357.56 270.68 L 360.00 267.38 L 361.84 263.81 L 363.34 260.00 L 363.94 256.00 L 363.83 251.94 L 363.07 248.03 L 361.81 244.24 L 360.98 240.31 L 359.38 236.58 L 357.85 232.93 L 356.50 229.04 L 354.88 225.41 L 353.41 221.72 L 352.08 217.86 L 350.64 213.86 L 348.74 210.12 L 347.31 206.34 L 345.90 202.58 L 344.32 198.93 L 342.79 195.05 L 340.35 191.65 L 337.70 188.57 L 334.98 185.57 L 331.70 182.71 L 328.19 180.38 L 325.05 177.87 L 321.68 175.42 L 318.11 173.27 L 315.07 170.27 L 312.59 166.59 L 311.39 162.59 L 310.21 158.80 L 308.55 155.17 L 305.87 151.94 L 303.20 149.19 L 300.26 146.55 L 296.86 144.87 L 293.96 141.95 L 291.13 139.58 L 288.00 137.57 L 285.13 135.27 L 282.28 133.00 L 279.02 131.06 L 275.86 128.59 L 272.82 126.16 L 269.58 124.40 L 266.17 122.44 L 263.07 120.23 L 259.93 118.35 L 256.68 116.34 L 253.42 114.16 L 249.97 112.53 L 246.30 111.06 L 242.66 109.62 L 239.09 108.94 L 235.38 108.94 L 231.48 109.18 L 227.67 110.06 L 223.93 111.21 L 220.14 112.44 L 216.89 114.72 L 213.56 116.80 L 210.88 119.85 L 208.16 122.77 L 206.23 126.50 L 204.55 130.12 L 201.66 133.04 L 198.84 135.42 L 194.99 136.72 L 191.15 137.80 L 187.26 138.89 L 183.45 139.98 L 179.45 141.20 L 175.51 142.67 L 171.69 144.72 L 167.39 146.14 L 163.01 146.15 L 158.76 145.12 L 154.87 142.87 L 151.46 140.21 L 147.99 137.47 L 145.16 134.60 L 142.02 132.12 L 139.09 129.29 L 135.98 126.40 L 132.84 123.70 L 129.41 121.13 L 125.85 118.85 L 121.81 117.29 L 117.73 116.60 L 113.82 116.34 L 109.91 116.77 L 105.93 117.19 L 102.32 118.54 L 98.89 120.43 L 96.09 122.96 L 92.99 124.76 L 90.81 127.75 L 88.86 130.76 L 87.16 133.85 L 86.06 137.61 L 84.81 141.80 L 84.23 146.18 L 84.75 150.45 L 85.44 154.50 L 86.98 158.50 L 89.21 162.25 L 91.38 165.66 L 93.91 168.85 L 97.42 171.23 L 101.18 172.80 L 104.92 173.83 L 108.19 176.75 L 110.43 179.77 L 113.42 182.69 L 116.53 186.07 L 119.47 189.54 L 121.55 193.54 L 123.84 197.59 L 126.73 201.22 L 129.90 204.52 L 132.36 208.26 L 134.44 212.06 L 136.37 215.29 L 138.43 218.66 L 140.00 222.15 L 141.13 226.12 L 141.77 229.79 L 142.12 233.46 L 141.58 237.39 L 140.70 241.68 L 139.31 245.59 L 137.57 249.66 L 135.01 253.77 L 131.80 257.22 L 128.26 260.25 L 124.63 262.25 L 121.53 264.06 Z" />
</symbol>
<symbol id="bl3">
<path d="M 101.84 118.69 L 98.13 121.06 L 94.92 123.71 L 92.05 126.57 L 89.46 129.81 L 87.06 133.59 L 85.53 137.75 L 84.52 141.61 L 84.09 145.62 L 84.87 149.88 L 85.89 154.36 L 87.43 158.56 L 89.65 162.46 L 92.48 166.17 L 95.93 169.22 L 99.73 171.68 L 103.78 173.55 L 107.23 176.61 L 110.32 180.14 L 113.40 184.23 L 116.54 187.91 L 119.80 191.28 L 122.63 195.09 L 125.99 198.57 L 129.20 202.04 L 132.76 205.40 L 135.14 210.08 L 138.56 213.97 L 142.32 217.29 L 145.56 220.70 L 148.85 224.51 L 152.19 228.11 L 155.22 231.77 L 157.85 235.77 L 160.12 239.89 L 162.46 243.57 L 164.97 247.26 L 167.93 250.81 L 171.08 254.04 L 174.44 257.11 L 177.48 261.00 L 179.07 265.55 L 179.30 270.37 L 177.75 274.75 L 175.87 279.01 L 173.98 283.32 L 172.33 287.60 L 170.37 291.61 L 168.28 295.55 L 166.24 299.79 L 164.36 304.23 L 162.28 308.57 L 160.27 312.84 L 157.92 317.00 L 155.31 321.13 L 153.12 325.45 L 151.21 329.70 L 148.81 333.86 L 147.64 338.45 L 146.49 342.98 L 145.39 347.44 L 145.35 352.05 L 145.61 356.62 L 146.32 361.32 L 147.82 365.79 L 149.65 370.04 L 152.21 373.94 L 154.84 377.84 L 158.19 381.21 L 161.90 384.14 L 165.80 386.71 L 169.91 389.00 L 174.25 391.20 L 179.03 391.80 L 183.66 392.60 L 188.35 392.73 L 193.12 392.68 L 197.93 392.01 L 202.64 391.36 L 207.37 390.61 L 212.00 390.02 L 216.67 389.95 L 221.41 389.49 L 226.17 388.94 L 230.90 388.45 L 235.59 387.71 L 240.33 387.02 L 245.05 386.13 L 249.78 385.32 L 254.53 384.26 L 259.26 383.70 L 264.05 382.51 L 268.68 381.38 L 273.40 380.17 L 278.11 379.33 L 282.58 377.39 L 286.77 375.03 L 291.02 372.41 L 294.54 369.11 L 297.69 365.69 L 300.23 361.58 L 302.39 357.11 L 303.90 352.63 L 304.99 347.93 L 305.47 343.20 L 306.29 338.42 L 307.32 333.81 L 308.40 329.19 L 309.90 324.85 L 310.31 320.15 L 311.02 315.51 L 311.45 310.82 L 312.01 306.19 L 312.64 301.67 L 313.12 297.18 L 313.82 292.64 L 315.11 288.17 L 315.23 283.55 L 315.99 278.96 L 316.23 274.02 L 316.22 269.25 L 315.32 264.76 L 313.78 260.40 L 312.25 256.17 L 310.46 251.85 L 308.03 247.97 L 305.98 243.81 L 303.93 239.58 L 302.08 235.31 L 299.69 231.23 L 297.02 227.30 L 294.48 223.73 L 292.52 219.71 L 289.73 215.82 L 287.08 211.74 L 284.50 207.88 L 282.17 204.01 L 279.67 200.30 L 277.46 196.37 L 274.44 192.75 L 271.33 189.21 L 267.85 185.89 L 264.13 182.49 L 260.13 180.17 L 256.07 178.24 L 251.98 176.01 L 247.51 175.03 L 243.09 174.04 L 238.19 174.43 L 233.40 174.39 L 228.82 173.91 L 224.26 172.69 L 220.14 170.97 L 216.37 168.89 L 212.61 166.41 L 209.24 163.25 L 206.03 159.91 L 202.89 156.31 L 199.93 152.74 L 197.15 149.16 L 194.05 145.87 L 190.61 142.79 L 187.43 139.19 L 184.10 135.75 L 181.07 131.77 L 178.55 127.63 L 176.20 123.03 L 172.73 119.77 L 168.80 117.35 L 164.67 114.88 L 160.37 112.61 L 157.16 109.00 L 154.70 104.94 L 151.60 101.25 L 147.39 98.97 L 142.78 98.32 L 138.20 98.61 L 134.16 100.75 L 130.15 102.80 L 126.23 105.16 L 122.13 107.49 L 118.12 109.95 L 114.26 112.59 L 110.18 114.88 L 105.95 116.79 Z" />
</symbol>
<symbol id="bl4">
<path d="M 39.51 305.91 L 41.34 307.37 L 43.27 308.75 L 45.33 310.18 L 47.38 311.73 L 49.55 313.18 L 51.70 314.31 L 53.71 315.46 L 55.81 316.79 L 57.95 318.05 L 60.02 319.38 L 62.28 320.36 L 64.87 321.37 L 67.57 322.11 L 70.22 323.09 L 72.86 323.83 L 75.64 324.51 L 78.44 325.24 L 81.22 325.77 L 83.97 325.86 L 86.52 325.94 L 88.91 326.20 L 91.30 326.52 L 93.65 327.43 L 96.22 328.57 L 99.17 329.48 L 102.19 330.30 L 105.09 330.66 L 108.00 330.83 L 110.99 330.81 L 113.87 330.99 L 116.94 331.63 L 119.97 332.14 L 122.71 332.09 L 125.39 331.75 L 127.96 331.51 L 130.24 331.68 L 132.96 331.47 L 136.02 330.92 L 138.90 329.82 L 141.55 328.14 L 144.39 326.58 L 146.59 324.46 L 148.84 322.57 L 151.07 320.19 L 153.25 317.89 L 155.22 315.24 L 156.39 312.29 L 157.68 309.89 L 158.86 307.09 L 159.46 304.19 L 160.02 301.46 L 159.96 298.24 L 160.05 295.22 L 159.52 292.63 L 158.92 289.68 L 158.51 285.92 L 156.91 282.72 L 155.45 279.58 L 152.94 276.91 L 151.13 274.11 L 150.38 270.84 L 149.94 267.56 L 150.35 264.08 L 151.91 261.01 L 154.02 257.91 L 156.43 254.99 L 158.66 252.25 L 161.23 250.08 L 164.13 248.01 L 166.67 245.58 L 168.91 242.92 L 171.04 240.05 L 173.26 237.23 L 175.35 234.53 L 177.18 231.76 L 179.36 229.38 L 181.83 227.13 L 184.59 224.82 L 186.73 222.13 L 188.62 219.48 L 190.49 216.39 L 193.14 213.62 L 195.50 210.91 L 198.03 208.35 L 200.52 205.75 L 202.58 202.61 L 204.08 199.23 L 206.55 196.24 L 208.60 193.53 L 210.85 190.60 L 213.33 187.56 L 216.18 184.78 L 219.22 182.33 L 222.70 180.44 L 226.24 178.34 L 229.98 177.15 L 233.72 175.26 L 237.58 175.25 L 241.60 174.41 L 245.40 173.35 L 249.14 171.79 L 252.25 169.80 L 255.44 167.63 L 258.23 164.70 L 260.99 161.85 L 263.25 158.71 L 265.15 155.03 L 266.55 151.04 L 267.90 147.08 L 268.21 142.96 L 267.69 138.96 L 267.05 135.00 L 265.88 131.26 L 264.51 127.81 L 262.72 124.50 L 260.41 121.41 L 258.15 118.07 L 254.88 115.75 L 251.69 113.50 L 248.22 111.64 L 244.51 110.34 L 240.79 109.60 L 237.21 108.65 L 233.40 108.10 L 229.60 108.10 L 225.98 108.77 L 222.36 109.12 L 218.80 109.84 L 215.12 110.11 L 211.37 110.40 L 207.42 110.30 L 203.49 109.66 L 199.65 108.84 L 195.98 108.16 L 192.41 107.50 L 188.69 108.02 L 185.02 109.34 L 181.73 111.75 L 179.52 114.75 L 177.75 117.84 L 177.55 121.64 L 177.88 125.52 L 178.90 129.19 L 179.03 132.85 L 178.20 136.66 L 176.34 140.23 L 173.82 143.04 L 170.97 145.43 L 167.68 146.35 L 164.33 147.58 L 160.77 149.28 L 157.44 151.37 L 154.46 153.11 L 151.85 155.16 L 148.45 156.09 L 145.89 158.93 L 142.46 160.55 L 140.18 163.10 L 138.25 165.62 L 135.83 168.48 L 134.07 171.53 L 131.56 173.60 L 129.30 175.77 L 126.56 177.60 L 123.99 179.73 L 121.46 182.49 L 119.05 185.13 L 116.86 187.17 L 114.64 189.60 L 112.77 192.28 L 110.63 194.63 L 108.82 197.69 L 106.26 199.88 L 103.38 201.56 L 99.40 201.98 L 96.04 202.09 L 92.52 201.80 L 89.14 199.95 L 86.36 197.67 L 83.32 195.62 L 80.31 193.42 L 77.68 191.12 L 75.89 188.23 L 73.45 185.94 L 71.36 183.52 L 68.78 181.36 L 65.82 179.68 L 63.02 178.16 L 60.10 176.88 L 57.02 175.96 L 53.96 175.37 L 51.02 175.35 L 48.09 175.28 L 44.88 175.37 L 41.65 175.89 L 38.66 176.82 L 35.80 177.85 L 33.16 179.25 L 30.77 180.74 L 28.28 182.29 L 26.32 184.50 L 23.81 186.06 L 21.83 188.37 L 20.09 190.82 L 18.86 193.39 L 17.82 196.16 L 16.89 198.87 L 16.08 201.54 L 15.46 204.30 L 14.80 207.11 L 14.30 209.82 L 13.68 212.41 L 12.84 214.99 L 12.33 217.59 L 12.24 220.25 L 11.79 222.75 L 11.02 225.14 L 10.74 227.63 L 10.63 230.20 L 10.18 232.81 L 10.20 235.45 L 10.37 238.10 L 10.00 240.68 L 10.06 243.32 L 10.19 245.97 L 10.39 248.48 L 10.53 250.93 L 10.82 253.51 L 10.88 256.14 L 11.24 258.69 L 11.86 261.24 L 12.64 263.68 L 13.63 266.10 L 14.49 268.48 L 15.33 270.87 L 16.29 273.10 L 17.11 275.30 L 17.99 277.48 L 19.08 279.62 L 20.23 281.69 L 21.30 283.77 L 22.40 285.98 L 23.45 288.20 L 24.57 290.40 L 25.80 292.33 L 27.20 294.06 L 28.70 295.84 L 30.19 297.85 L 31.85 299.71 L 33.49 301.40 L 35.30 303.06 L 37.41 304.53 Z" />
</symbol>
<symbol id="bl5">
<path d="M 130.36 60.46 L 127.32 63.17 L 124.92 66.48 L 122.99 69.98 L 122.18 73.85 L 121.85 77.80 L 122.12 81.91 L 123.18 85.84 L 124.02 89.97 L 124.88 94.20 L 125.66 98.38 L 126.34 102.49 L 126.57 106.52 L 126.95 110.49 L 127.53 114.47 L 128.80 118.24 L 130.74 121.50 L 133.35 124.26 L 136.57 127.14 L 139.21 130.30 L 141.28 133.90 L 142.41 137.66 L 142.91 141.76 L 143.42 146.26 L 142.90 150.51 L 142.21 154.42 L 141.29 158.24 L 139.21 162.13 L 136.89 165.01 L 134.65 168.26 L 133.47 171.46 L 131.37 174.61 L 130.18 178.41 L 130.18 182.82 L 129.44 186.79 L 129.20 190.86 L 130.06 195.15 L 130.58 199.64 L 132.76 203.34 L 134.59 206.72 L 136.72 209.79 L 138.45 213.00 L 141.70 215.43 L 144.56 218.37 L 147.77 220.51 L 151.07 222.06 L 154.76 223.48 L 159.00 224.10 L 162.73 224.79 L 166.52 224.72 L 171.02 224.35 L 175.34 223.74 L 179.10 222.40 L 182.66 220.49 L 185.63 218.92 L 188.32 217.13 L 191.71 214.89 L 193.70 211.34 L 195.49 208.39 L 197.79 205.57 L 199.73 201.88 L 200.64 198.12 L 201.38 194.16 L 201.87 190.20 L 201.47 186.30 L 200.93 182.65 L 200.95 178.59 L 198.93 175.39 L 197.68 172.17 L 195.60 169.22 L 194.13 165.55 L 191.26 163.02 L 188.34 160.58 L 185.21 158.56 L 181.73 156.09 L 177.91 154.39 L 174.14 152.65 L 170.61 150.35 L 167.05 148.71 L 163.12 147.43 L 159.25 145.72 L 155.81 143.52 L 153.00 140.71 L 150.87 136.73 L 149.84 132.40 L 150.24 128.55 L 151.64 124.79 L 153.93 121.79 L 156.87 119.12 L 160.45 117.38 L 164.37 116.60 L 168.24 115.69 L 172.18 114.59 L 176.05 113.06 L 179.25 110.90 L 181.64 107.95 L 183.20 104.23 L 183.66 100.21 L 183.08 96.18 L 181.54 92.65 L 178.97 89.56 L 176.81 86.35 L 174.51 83.16 L 172.20 79.89 L 169.65 76.72 L 166.92 73.66 L 164.27 70.61 L 161.67 67.50 L 159.09 64.44 L 156.23 61.80 L 153.04 59.48 L 149.45 57.66 L 145.56 56.70 L 141.53 56.39 L 137.53 57.19 L 133.86 58.59 Z" />
</symbol>
<symbol id="bl6">
<path d="M 167.64 80.48 L 165.43 82.84 L 163.29 85.16 L 161.03 87.59 L 158.76 89.99 L 156.43 92.63 L 154.85 95.76 L 154.38 99.27 L 154.72 102.71 L 155.65 106.01 L 157.34 109.09 L 159.59 111.62 L 162.23 113.91 L 165.11 115.40 L 168.25 116.47 L 170.93 118.43 L 173.64 120.47 L 176.13 122.81 L 177.87 125.73 L 178.84 129.06 L 179.11 132.65 L 178.61 136.15 L 177.16 139.26 L 175.00 141.96 L 172.29 144.18 L 169.62 145.90 L 166.82 147.50 L 163.97 149.23 L 161.13 150.88 L 158.01 152.83 L 154.76 154.24 L 151.63 155.65 L 148.66 156.77 L 145.64 158.92 L 142.81 160.78 L 140.07 162.46 L 138.02 165.13 L 135.77 167.47 L 134.33 170.40 L 132.92 173.01 L 131.36 175.62 L 130.96 178.72 L 130.13 182.08 L 129.34 185.71 L 129.39 189.46 L 129.83 193.05 L 129.96 196.41 L 130.86 199.81 L 132.12 202.86 L 133.22 205.81 L 134.55 208.77 L 136.98 211.11 L 138.90 213.83 L 141.88 215.70 L 144.61 217.66 L 146.99 219.50 L 149.61 221.46 L 152.72 222.43 L 155.90 224.03 L 159.01 225.08 L 162.06 224.68 L 165.26 224.93 L 168.54 225.57 L 170.89 224.94 L 173.41 223.94 L 176.21 223.38 L 178.84 222.87 L 182.26 222.75 L 184.92 220.80 L 186.94 218.96 L 189.13 216.89 L 191.75 214.82 L 193.79 212.64 L 195.59 210.28 L 196.66 207.22 L 198.08 204.56 L 199.12 201.64 L 199.93 198.91 L 200.66 196.15 L 201.46 193.43 L 201.93 190.53 L 201.49 187.21 L 201.40 183.71 L 201.62 180.21 L 202.14 176.56 L 202.18 172.83 L 201.95 169.61 L 202.05 166.65 L 202.04 163.54 L 201.55 160.63 L 201.79 157.48 L 202.14 154.12 L 202.41 150.83 L 202.52 147.78 L 202.29 144.67 L 201.93 141.44 L 202.36 138.17 L 202.86 134.46 L 204.10 130.77 L 205.88 127.49 L 207.29 124.51 L 208.94 121.95 L 210.73 119.73 L 212.87 117.79 L 214.81 115.37 L 216.93 113.16 L 219.01 110.69 L 221.27 108.54 L 223.43 106.31 L 225.99 104.57 L 228.20 102.12 L 230.44 99.82 L 232.44 97.38 L 234.04 94.67 L 235.38 91.78 L 236.44 88.81 L 237.15 85.86 L 237.39 82.79 L 237.48 79.62 L 237.12 76.39 L 236.48 73.24 L 235.69 70.19 L 234.35 67.34 L 232.73 64.56 L 230.78 61.96 L 228.55 59.64 L 226.15 57.52 L 223.39 55.88 L 220.56 54.37 L 217.70 53.11 L 214.67 52.33 L 211.54 51.69 L 208.32 51.37 L 205.12 51.42 L 202.04 52.20 L 199.01 52.98 L 196.05 54.13 L 193.26 55.71 L 190.51 57.47 L 188.04 59.64 L 185.71 61.94 L 183.56 64.34 L 181.38 66.75 L 179.14 69.12 L 176.77 71.45 L 174.41 73.76 L 172.04 75.98 L 169.79 78.19 Z" />
</symbol>
<symbol id="bl7">
<path d="M 333.82 63.15 L 327.74 67.13 L 322.30 71.92 L 318.17 77.83 L 314.82 84.08 L 312.53 90.79 L 310.44 97.53 L 308.09 104.00 L 305.51 110.86 L 302.65 117.39 L 299.66 124.12 L 296.24 130.48 L 296.02 138.06 L 299.30 144.79 L 305.69 149.30 L 313.43 149.70 L 319.92 146.86 L 327.58 145.71 L 334.66 144.45 L 341.54 143.22 L 348.64 142.38 L 355.72 141.00 L 362.87 140.36 L 369.84 137.93 L 376.13 134.22 L 381.65 129.74 L 386.36 124.34 L 390.21 118.30 L 393.01 111.83 L 394.01 104.96 L 394.35 98.07 L 393.54 91.21 L 391.59 84.74 L 388.74 78.69 L 384.88 73.14 L 380.19 68.22 L 374.69 64.12 L 368.42 61.12 L 361.66 59.35 L 354.77 58.13 L 347.63 58.59 L 340.54 60.31 Z" />
</symbol>
</defs>
<!-- isDone: 0 -->
<rect width="700" height="500" style="fill:#fff;stroke-width:0" />
<use class="p0 borderLine" xlink:href="#bl0"/>
<use class="p1 borderLine" xlink:href="#bl1"/>
<use class="p2 borderLine" xlink:href="#bl2"/>
<use class="p3 borderLine" xlink:href="#bl3"/>
<use class="p4 borderLine" xlink:href="#bl4"/>
<use class="p5 borderLine" xlink:href="#bl5"/>
<use class="p6 borderLine" xlink:href="#bl6"/>
<use class="p7 borderLine" xlink:href="#bl7"/>
<use class="q0 outLine" xlink:href="#bl0"/>
<use class="q1 outLine" xlink:href="#bl1"/>
<use class="q2 outLine" xlink:href="#bl2"/>
<use class="q3 outLine" xlink:href="#bl3"/>
<use class="q4 outLine" xlink:href="#bl4"/>
<use class="q5 outLine" xlink:href="#bl5"/>
<use class="q6 outLine" xlink:href="#bl6"/>
<use class="q7 outLine" xlink:href="#bl7"/>
<circle onclick="fromCircle(1)" class="circle" cx="397.1207" cy="356.0615" r="77.0694" />
<text class="tLabel" x="397.12" y="336.06"></text>
<text class="nLabel" x="397.12" y="351.06">40</text>
<text class="belong" x="397.12" y="361.06">(1)</text>
<circle onclick="fromCircle(3)" class="circle" cx="97.6697" cy="187.6416" r="12.1857" />
<text class="tLabel" x="97.67" y="167.64"></text>
<text class="nLabel" x="97.67" y="182.64">1</text>
<text class="belong" x="97.67" y="192.64">(1, 2)</text>
<circle onclick="fromCircle(7)" class="circle" cx="164.7214" cy="268.1743" r="12.1857" />
<text class="tLabel" x="164.72" y="248.17"></text>
<text class="nLabel" x="164.72" y="263.17">1</text>
<text class="belong" x="164.72" y="273.17">(1, 2, 3)</text>
<circle onclick="fromCircle(15)" class="circle" cx="197.9583" cy="255.9846" r="17.2332" />
<text class="tLabel" x="197.96" y="235.98"></text>
<text class="nLabel" x="197.96" y="250.98">2</text>
<text class="belong" x="197.96" y="260.98">(1, 2, 3, 4)</text>
<circle onclick="fromCircle(127)" class="circle" cx="165.6299" cy="188.8470" r="29.8488" />
<text class="tLabel" x="165.63" y="168.85"></text>
<text class="nLabel" x="165.63" y="183.85">6</text>
<text class="belong" x="165.63" y="193.85">(1, 2, 3, 4, 5, 6, 7)</text>
<circle onclick="fromCircle(2)" class="circle" cx="325.9818" cy="160.4952" r="12.1857" />
<text class="tLabel" x="325.98" y="140.50"></text>
<text class="nLabel" x="325.98" y="155.50">1</text>
<text class="belong" x="325.98" y="165.50">(2)</text>
<circle onclick="fromCircle(6)" class="circle" cx="286.6393" cy="168.4055" r="21.1063" />
<text class="tLabel" x="286.64" y="148.41"></text>
<text class="nLabel" x="286.64" y="163.41">3</text>
<text class="belong" x="286.64" y="173.41">(2, 3)</text>
<circle onclick="fromCircle(14)" class="circle" cx="241.6790" cy="214.0202" r="32.2404" />
<text class="tLabel" x="241.68" y="194.02"></text>
<text class="nLabel" x="241.68" y="209.02">7</text>
<text class="belong" x="241.68" y="219.02">(2, 3, 4)</text>
<circle onclick="fromCircle(10)" class="circle" cx="186.9075" cy="351.3052" r="34.4665" />
<text class="tLabel" x="186.91" y="331.31"></text>
<text class="nLabel" x="186.91" y="346.31">8</text>
<text class="belong" x="186.91" y="356.31">(2, 4)</text>
<circle onclick="fromCircle(18)" class="circle" cx="49.0892" cy="208.0561" r="27.2481" />
<text class="tLabel" x="49.09" y="188.06"></text>
<text class="nLabel" x="49.09" y="203.06">5</text>
<text class="belong" x="49.09" y="213.06">(2, 5)</text>
<circle onclick="fromCircle(130)" class="circle" cx="310.3948" cy="135.5196" r="12.1857" />
<text class="tLabel" x="310.39" y="115.52"></text>
<text class="nLabel" x="310.39" y="130.52">1</text>
<text class="belong" x="310.39" y="140.52">(2, 8)</text>
<circle onclick="fromCircle(4)" class="circle" cx="320.0831" cy="206.9055" r="21.1063" />
<text class="tLabel" x="320.08" y="186.91"></text>
<text class="nLabel" x="320.08" y="201.91">3</text>
<text class="belong" x="320.08" y="211.91">(3)</text>
<circle onclick="fromCircle(5)" class="circle" cx="338.3897" cy="254.0901" r="21.1063" />
<text class="tLabel" x="338.39" y="234.09"></text>
<text class="nLabel" x="338.39" y="249.09">3</text>
<text class="belong" x="338.39" y="259.09">(1, 3)</text>
<circle onclick="fromCircle(13)" class="circle" cx="283.3506" cy="272.2967" r="27.2481" />
<text class="tLabel" x="283.35" y="252.30"></text>
<text class="nLabel" x="283.35" y="267.30">5</text>
<text class="belong" x="283.35" y="277.30">(1, 3, 4)</text>
<circle onclick="fromCircle(12)" class="circle" cx="114.0147" cy="146.1505" r="24.3715" />
<text class="tLabel" x="114.01" y="126.15"></text>
<text class="nLabel" x="114.01" y="141.15">4</text>
<text class="belong" x="114.01" y="151.15">(3, 4)</text>
<circle onclick="fromCircle(20)" class="circle" cx="235.0670" cy="141.8494" r="27.2481" />
<text class="tLabel" x="235.07" y="121.85"></text>
<text class="nLabel" x="235.07" y="136.85">5</text>
<text class="belong" x="235.07" y="146.85">(3, 5)</text>
<circle onclick="fromCircle(21)" class="circle" cx="127.2528" cy="297.4492" r="27.2481" />
<text class="tLabel" x="127.25" y="277.45"></text>
<text class="nLabel" x="127.25" y="292.45">5</text>
<text class="belong" x="127.25" y="302.45">(1, 3, 5)</text>
<circle onclick="fromCircle(8)" class="circle" cx="164.5374" cy="131.7800" r="12.1857" />
<text class="tLabel" x="164.54" y="111.78"></text>
<text class="nLabel" x="164.54" y="126.78">1</text>
<text class="belong" x="164.54" y="136.78">(4)</text>
<circle onclick="fromCircle(9)" class="circle" cx="266.8175" cy="341.7897" r="32.2404" />
<text class="tLabel" x="266.82" y="321.79"></text>
<text class="nLabel" x="266.82" y="336.79">7</text>
<text class="belong" x="266.82" y="346.79">(1, 4)</text>
<circle onclick="fromCircle(11)" class="circle" cx="222.6857" cy="295.0437" r="21.1063" />
<text class="tLabel" x="222.69" y="275.04"></text>
<text class="nLabel" x="222.69" y="290.04">3</text>
<text class="belong" x="222.69" y="300.04">(1, 2, 4)</text>
<circle onclick="fromCircle(40)" class="circle" cx="142.4253" cy="112.6961" r="12.1857" />
<text class="tLabel" x="142.43" y="92.70"></text>
<text class="nLabel" x="142.43" y="107.70">1</text>
<text class="belong" x="142.43" y="117.70">(4, 6)</text>
<circle onclick="fromCircle(16)" class="circle" cx="27.0194" cy="251.0319" r="12.1857" />
<text class="tLabel" x="27.02" y="231.03"></text>
<text class="nLabel" x="27.02" y="246.03">1</text>
<text class="belong" x="27.02" y="256.03">(5)</text>
<circle onclick="fromCircle(17)" class="circle" cx="63.9701" cy="281.2112" r="27.2481" />
<text class="tLabel" x="63.97" y="261.21"></text>
<text class="nLabel" x="63.97" y="276.21">5</text>
<text class="belong" x="63.97" y="286.21">(1, 5)</text>
<circle onclick="fromCircle(19)" class="circle" cx="109.0544" cy="233.4821" r="27.2481" />
<text class="tLabel" x="109.05" y="213.48"></text>
<text class="nLabel" x="109.05" y="228.48">5</text>
<text class="belong" x="109.05" y="238.48">(1, 2, 5)</text>
<circle onclick="fromCircle(80)" class="circle" cx="192.1507" cy="122.2634" r="12.1857" />
<text class="tLabel" x="192.15" y="102.26"></text>
<text class="nLabel" x="192.15" y="117.26">1</text>
<text class="belong" x="192.15" y="127.26">(5, 7)</text>
<circle onclick="fromCircle(32)" class="circle" cx="142.5617" cy="77.2290" r="17.2332" />
<text class="tLabel" x="142.56" y="57.23"></text>
<text class="nLabel" x="142.56" y="72.23">2</text>
<text class="belong" x="142.56" y="82.23">(6)</text>
<circle onclick="fromCircle(96)" class="circle" cx="169.0455" cy="100.3471" r="12.1857" />
<text class="tLabel" x="169.05" y="80.35"></text>
<text class="nLabel" x="169.05" y="95.35">1</text>
<text class="belong" x="169.05" y="105.35">(6, 7)</text>
<circle onclick="fromCircle(64)" class="circle" cx="208.2175" cy="80.8399" r="24.3715" />
<text class="tLabel" x="208.22" y="60.84"></text>
<text class="nLabel" x="208.22" y="75.84">4</text>
<text class="belong" x="208.22" y="85.84">(7)</text>
<circle onclick="fromCircle(128)" class="circle" cx="353.1324" cy="99.7221" r="34.4665" />
<text class="tLabel" x="353.13" y="79.72"></text>
<text class="nLabel" x="353.13" y="94.72">8</text>
<text class="belong" x="353.13" y="104.72">(8)</text>
<rect class="p0 borderLine" x="500.00" y="50.00" width="30.00" height="15.00" />
<rect class="q0" x="500.00" y="50.00" width="30.00" height="15.00" />
<text class="legend" x="540.00" y="65.00">Ball2017</text>
<rect class="p1 borderLine" x="500.00" y="90.00" width="30.00" height="15.00" />
<rect class="q1" x="500.00" y="90.00" width="30.00" height="15.00" />
<text class="legend" x="540.00" y="105.00">Courtois2015</text>
<rect class="p2 borderLine" x="500.00" y="130.00" width="30.00" height="15.00" />
<rect class="q2" x="500.00" y="130.00" width="30.00" height="15.00" />
<text class="legend" x="540.00" y="145.00">Hilton2017</text>
<rect class="p3 borderLine" x="500.00" y="170.00" width="30.00" height="15.00" />
<rect class="q3" x="500.00" y="170.00" width="30.00" height="15.00" />
<text class="legend" x="540.00" y="185.00">Ball2017</text>
<rect class="p4 borderLine" x="500.00" y="210.00" width="30.00" height="15.00" />
<rect class="q4" x="500.00" y="210.00" width="30.00" height="15.00" />
<text class="legend" x="540.00" y="225.00">Ball2017</text>
<rect class="p5 borderLine" x="500.00" y="250.00" width="30.00" height="15.00" />
<rect class="q5" x="500.00" y="250.00" width="30.00" height="15.00" />
<text class="legend" x="540.00" y="265.00">Ball2017</text>
<rect class="p6 borderLine" x="500.00" y="290.00" width="30.00" height="15.00" />
<rect class="q6" x="500.00" y="290.00" width="30.00" height="15.00" />
<text class="legend" x="540.00" y="305.00">Courtois2015</text>
<rect class="p7 borderLine" x="500.00" y="330.00" width="30.00" height="15.00" />
<rect class="q7" x="500.00" y="330.00" width="30.00" height="15.00" />
<text class="legend" x="540.00" y="345.00">Hilton2017</text>
</svg>
