<svg xmlns="http://www.w3.org/2000/svg" xmlns:xlink="http://www.w3.org/1999/xlink" width="700" height="500">
<defs>
<style type="text/css"><![CDATA[
  .borderLine {
	   stroke: none;
	   fill-opacity: 0.4;
  }
  .outLine {
	   stroke-width: 1;
	   fill: none;
  }
  .circle {
	   stroke: #888888;
	   stroke-width: 0.5;
	   fill: none;
    pointer-events: all;
  }
  .spcircle {
	   stroke: #FF2222;
	   stroke-width: 1;
	   fill: none;
    pointer-events: all;
  }
  .tLabel {
	   font-family: Arial;
    pointer-events: none;
	   font-size: 14px;
	   text-anchor: middle;
	   alignment-baseline: central;
  }
  .nLabel {
	   font-family: Arial;
    pointer-events: none;
	   font-size: 10px;
	   text-anchor: middle;
	   alignment-baseline: central;
  }
  .belong {
	   font-family: Arial;
    pointer-events: none;
	   font-size: 5px;
	   text-anchor: middle;
	   alignment-baseline: central;
  }
  .p0{
    stroke: none;
    fill: #e6194b;
  }
  .q0{
    fill: none;
    stroke: #e6194b;
  }
  .p1{
    stroke: none;
    fill: #3cb44b;
  }
  .q1{
    fill: none;
    stroke: #3cb44b;
  }
  .p2{
    stroke: none;
    fill: #ffe119;
  }
  .q2{
    fill: none;
    stroke: #ffe119;
  }
  .p3{
    stroke: none;
    fill: #0082c8;
  }
  .q3{
    fill: none;
    stroke: #0082c8;
  }
]]>
</style>
<symbol id="bl0">
<path d="M 137.43 324.72 L 48.73 280.73 L 0.20 367.04 L 83.88 419.97 L 141.07 339.15 L 141.06 339.15 L 173.67 389.55 L 233.15 397.64 L 278.04 357.79 L 277.05 297.77 L 324.44 275.04 L 324.44 275.04 L 324.44 275.04 L 289.94 250.82 L 274.95 211.43 L 274.95 211.43 L 274.95 211.43 L 284.60 170.40 L 315.60 141.84 L 315.60 141.84 L 315.60 141.84 L 315.60 141.84 L 315.60 141.84 L 357.28 135.55 L 395.32 153.71 L 395.32 153.71 L 395.32 153.71 L 416.64 190.07 L 413.93 232.13 L 413.93 232.13 L 413.93 232.13 L 425.17 226.74 L 519.52 261.21 L 556.25 167.71 L 463.67 128.75 L 422.48 220.37 L 416.83 222.43 L 371.40 274.18 L 303.30 264.00 L 263.58 278.54 L 187.50 261.34 L 140.52 323.59 Z" />
</symbol>
<symbol id="bl1">
<path d="M 275.64 195.99 L 232.25 118.95 L 146.96 142.23 L 148.73 230.62 L 234.87 250.48 L 287.46 363.47 L 248.99 449.52 L 328.76 499.72 L 389.69 427.81 L 327.08 357.36 L 337.41 277.97 L 337.41 277.97 L 378.42 271.18 L 408.83 242.83 L 408.83 242.83 L 408.83 242.83 L 418.46 202.39 L 404.09 163.38 L 404.09 163.38 L 404.09 163.38 L 370.54 138.84 L 329.01 136.98 L 329.01 136.98 L 329.01 136.98 L 293.39 158.41 L 275.59 195.98 L 275.59 195.98 Z" />
</symbol>
<symbol id="bl2">
<path d="M 114.81 293.28 L 13.90 304.37 L 24.67 405.32 L 125.65 394.86 L 115.51 293.85 L 158.94 240.89 L 212.17 256.79 L 260.83 230.02 L 275.90 176.56 L 248.38 128.31 L 248.36 128.33 L 348.99 115.45 L 336.57 14.76 L 235.83 26.71 L 247.31 127.50 L 247.31 127.50 L 148.38 140.40 L 157.59 239.75 Z" />
</symbol>
<symbol id="bl3">
<path d="M 360.53 370.84 L 261.86 383.49 L 270.27 482.61 L 369.66 478.46 L 369.77 378.98 L 369.77 378.99 L 426.15 401.07 L 479.41 372.25 L 491.76 312.97 L 454.45 265.28 L 457.30 259.68 L 552.64 230.95 L 527.84 134.52 L 430.47 155.33 L 447.27 253.47 Z" />
</symbol>
</defs>
<!-- isDone: 0 -->
<rect width="700" height="500" style="fill:#fff;stroke-width:0" />
<use class="p0 borderLine" xlink:href="#bl0"/>
<use class="p1 borderLine" xlink:href="#bl1"/>
<use class="p2 borderLine" xlink:href="#bl2"/>
<use class="p3 borderLine" xlink:href="#bl3"/>
<use class="q0 outLine" xlink:href="#bl0"/>
<use class="q1 outLine" xlink:href="#bl1"/>
<use class="q2 outLine" xlink:href="#bl2"/>
<use class="q3 outLine" xlink:href="#bl3"/>
<circle onclick="fromCircle(1)" class="circle" cx="212.2216" cy="328.8544" r="52.3367" />
<text class="tLabel" x="212.22" y="308.85"></text>
<text class="nLabel" x="212.22" y="323.85">1378</text>
<text class="belong" x="212.22" y="333.85">(1)</text>
<circle onclick="fromCircle(2)" class="circle" cx="346.6860" cy="206.6678" r="59.9157" />
<text class="tLabel" x="346.69" y="186.67"></text>
<text class="nLabel" x="346.69" y="201.67">1806</text>
<text class="belong" x="346.69" y="211.67">(2)</text>
<circle onclick="fromCircle(6)" class="circle" cx="204.5383" cy="185.2958" r="3.9877" />
<text class="tLabel" x="204.54" y="165.30"></text>
<text class="nLabel" x="204.54" y="180.30">8</text>
<text class="belong" x="204.54" y="190.30">(2, 3)</text>
<circle onclick="fromCircle(10)" class="circle" cx="317.7970" cy="428.6584" r="7.5924" />
<text class="tLabel" x="317.80" y="408.66"></text>
<text class="nLabel" x="317.80" y="423.66">29</text>
<text class="belong" x="317.80" y="433.66">(2, 4)</text>
<circle onclick="fromCircle(4)" class="circle" cx="292.2036" cy="71.3416" r="11.7959" />
<text class="tLabel" x="292.20" y="51.34"></text>
<text class="nLabel" x="292.20" y="66.34">70</text>
<text class="belong" x="292.20" y="76.34">(3)</text>
<circle onclick="fromCircle(5)" class="circle" cx="69.9157" cy="349.4385" r="9.5623" />
<text class="tLabel" x="69.92" y="329.44"></text>
<text class="nLabel" x="69.92" y="344.44">46</text>
<text class="belong" x="69.92" y="354.44">(1, 3)</text>
<circle onclick="fromCircle(8)" class="circle" cx="421.7468" cy="329.3093" r="8.8047" />
<text class="tLabel" x="421.75" y="309.31"></text>
<text class="nLabel" x="421.75" y="324.31">39</text>
<text class="belong" x="421.75" y="334.31">(4)</text>
<rect class="p0 borderLine" x="500.00" y="50.00" width="30.00" height="15.00" />
<rect class="q0" x="500.00" y="50.00" width="30.00" height="15.00" />
<text class="legend" x="540.00" y="65.00">Up_in_POU3F2_KO_iNs</text>
<rect class="p1 borderLine" x="500.00" y="90.00" width="30.00" height="15.00" />
<rect class="q1" x="500.00" y="90.00" width="30.00" height="15.00" />
<text class="legend" x="540.00" y="105.00">Down_in_POU3F2_KO_iNs</text>
<rect class="p2 borderLine" x="500.00" y="130.00" width="30.00" height="15.00" />
<rect class="q2" x="500.00" y="130.00" width="30.00" height="15.00" />
<text class="legend" x="540.00" y="145.00">Up_in_VGF_KO_iNs</text>
<rect class="p3 borderLine" x="500.00" y="170.00" width="30.00" height="15.00" />
<rect class="q3" x="500.00" y="170.00" width="30.00" height="15.00" />
<text class="legend" x="540.00" y="185.00">Down_in_VGF_KO_iNs</text>
</svg>
