<svg xmlns="http://www.w3.org/2000/svg" xmlns:xlink="http://www.w3.org/1999/xlink" width="700" height="500">
<defs>
<style type="text/css"><![CDATA[
  .borderLine {
	   stroke: none;
	   fill-opacity: 0.4;
  }
  .outLine {
	   stroke-width: 1;
	   fill: none;
  }
  .circle {
	   stroke: #888888;
	   stroke-width: 0.5;
	   fill: none;
    pointer-events: all;
  }
  .spcircle {
	   stroke: #FF2222;
	   stroke-width: 1;
	   fill: none;
    pointer-events: all;
  }
  .tLabel {
	   font-family: Arial;
    pointer-events: none;
	   font-size: 14px;
	   text-anchor: middle;
	   alignment-baseline: central;
  }
  .nLabel {
	   font-family: Arial;
    pointer-events: none;
	   font-size: 10px;
	   text-anchor: middle;
	   alignment-baseline: central;
  }
  .belong {
	   font-family: Arial;
    pointer-events: none;
	   font-size: 5px;
	   text-anchor: middle;
	   alignment-baseline: central;
  }
  .p0{
    stroke: none;
    fill: #e6194b;
  }
  .q0{
    fill: none;
    stroke: #e6194b;
  }
  .p1{
    stroke: none;
    fill: #3cb44b;
  }
  .q1{
    fill: none;
    stroke: #3cb44b;
  }
  .p2{
    stroke: none;
    fill: #ffe119;
  }
  .q2{
    fill: none;
    stroke: #ffe119;
  }
  .p3{
    stroke: none;
    fill: #0082c8;
  }
  .q3{
    fill: none;
    stroke: #0082c8;
  }
]]>
</style>
<symbol id="bl0">
<path d="M 154.36 159.03 L 126.85 143.04 L 108.88 169.29 L 133.73 189.16 L 155.38 165.85 L 325.14 165.85 L 337.14 186.26 L 360.81 185.73 L 371.87 164.79 L 358.98 144.94 L 377.03 108.83 L 405.86 102.37 L 405.34 72.83 L 376.30 67.39 L 365.12 94.74 Z" />
</symbol>
<symbol id="bl1">
<path d="M 70.61 104.45 L 70.61 104.45 L 77.40 89.53 L 72.71 73.81 L 72.71 73.81 L 72.71 73.81 L 58.86 65.04 L 42.65 67.53 L 42.65 67.53 L 42.65 67.53 L 32.06 80.05 L 32.31 96.45 L 32.31 96.45 L 32.31 96.45 L 43.26 108.65 L 59.54 110.65 L 59.54 110.65 L 126.53 389.35 L 109.14 416.97 L 136.32 435.05 L 155.07 408.33 L 128.83 388.92 L 96.20 150.05 L 113.69 137.83 L 113.98 116.49 L 96.82 103.81 L 76.51 110.35 Z" />
</symbol>
<symbol id="bl2">
<path d="M 115.34 119.88 L 92.29 103.52 L 70.33 121.31 L 81.56 147.25 L 109.57 143.41 L 115.47 149.32 L 109.71 172.88 L 127.95 188.87 L 150.55 180.06 L 153.18 155.95 L 444.23 19.90 L 474.59 31.50 L 487.19 1.53 L 457.67 -12.06 L 443.10 17.00 Z" />
</symbol>
<symbol id="bl3">
<path d="M 147.44 394.52 L 119.52 392.31 L 109.51 418.46 L 131.77 435.45 L 154.36 418.90 L 365.12 483.18 L 374.58 509.49 L 402.49 507.92 L 408.94 480.72 L 384.69 466.79 L 351.31 189.05 L 371.80 167.96 L 355.45 143.52 L 328.13 154.41 L 333.08 183.40 Z" />
</symbol>
</defs>
<!-- isDone: 0 -->
<rect width="700" height="500" style="fill:#fff;stroke-width:0" />
<use class="p0 borderLine" xlink:href="#bl0"/>
<use class="p1 borderLine" xlink:href="#bl1"/>
<use class="p2 borderLine" xlink:href="#bl2"/>
<use class="p3 borderLine" xlink:href="#bl3"/>
<use class="q0 outLine" xlink:href="#bl0"/>
<use class="q1 outLine" xlink:href="#bl1"/>
<use class="q2 outLine" xlink:href="#bl2"/>
<use class="q3 outLine" xlink:href="#bl3"/>
<circle onclick="fromCircle(1)" class="circle" cx="387.4822" cy="87.9225" r="17.0164" />
<text class="tLabel" x="387.48" y="67.92"></text>
<text class="nLabel" x="387.48" y="82.92">1378</text>
<text class="belong" x="387.48" y="92.92">(1)</text>
<circle onclick="fromCircle(2)" class="circle" cx="54.0758" cy="87.9225" r="19.4806" />
<text class="tLabel" x="54.08" y="67.92"></text>
<text class="nLabel" x="54.08" y="82.92">1806</text>
<text class="belong" x="54.08" y="92.92">(2)</text>
<circle onclick="fromCircle(6)" class="circle" cx="93.0371" cy="126.8838" r="1.4947" />
<text class="tLabel" x="93.04" y="106.88"></text>
<text class="nLabel" x="93.04" y="121.88">8</text>
<text class="belong" x="93.04" y="131.88">(2, 3)</text>
<circle onclick="fromCircle(10)" class="circle" cx="131.9984" cy="412.0775" r="2.4686" />
<text class="tLabel" x="132.00" y="392.08"></text>
<text class="nLabel" x="132.00" y="407.08">29</text>
<text class="belong" x="132.00" y="417.08">(2, 4)</text>
<circle onclick="fromCircle(4)" class="circle" cx="465.4048" cy="10.0000" r="3.8352" />
<text class="tLabel" x="465.40" y="-10.00"></text>
<text class="nLabel" x="465.40" y="5.00">70</text>
<text class="belong" x="465.40" y="15.00">(3)</text>
<circle onclick="fromCircle(5)" class="circle" cx="131.9984" cy="165.8451" r="3.1090" />
<text class="tLabel" x="132.00" y="145.85"></text>
<text class="nLabel" x="132.00" y="160.85">46</text>
<text class="belong" x="132.00" y="170.85">(1, 3)</text>
<circle onclick="fromCircle(8)" class="circle" cx="387.4822" cy="490.0000" r="2.8627" />
<text class="tLabel" x="387.48" y="470.00"></text>
<text class="nLabel" x="387.48" y="485.00">39</text>
<text class="belong" x="387.48" y="495.00">(4)</text>
<circle onclick="fromCircle(9)" class="circle" cx="348.5210" cy="165.8451" r="1.4947" />
<text class="tLabel" x="348.52" y="145.85"></text>
<text class="nLabel" x="348.52" y="160.85">6</text>
<text class="belong" x="348.52" y="170.85">(1, 4)</text>
<rect class="p0 borderLine" x="500.00" y="50.00" width="30.00" height="15.00" />
<rect class="q0" x="500.00" y="50.00" width="30.00" height="15.00" />
<text class="legend" x="540.00" y="65.00">Up_in_POU3F2_KO_iNs</text>
<rect class="p1 borderLine" x="500.00" y="90.00" width="30.00" height="15.00" />
<rect class="q1" x="500.00" y="90.00" width="30.00" height="15.00" />
<text class="legend" x="540.00" y="105.00">Down_in_POU3F2_KO_iNs</text>
<rect class="p2 borderLine" x="500.00" y="130.00" width="30.00" height="15.00" />
<rect class="q2" x="500.00" y="130.00" width="30.00" height="15.00" />
<text class="legend" x="540.00" y="145.00">Up_in_VGF_KO_iNs</text>
<rect class="p3 borderLine" x="500.00" y="170.00" width="30.00" height="15.00" />
<rect class="q3" x="500.00" y="170.00" width="30.00" height="15.00" />
<text class="legend" x="540.00" y="185.00">Down_in_VGF_KO_iNs</text>
</svg>
