<svg xmlns="http://www.w3.org/2000/svg" xmlns:xlink="http://www.w3.org/1999/xlink" width="700" height="500">
<defs>
<style type="text/css"><![CDATA[
  .borderLine {
	   stroke: none;
	   fill-opacity: 0.4;
  }
  .outLine {
	   stroke-width: 1;
	   fill: none;
  }
  .circle {
	   stroke: #888888;
	   stroke-width: 0.5;
	   fill: none;
    pointer-events: all;
  }
  .spcircle {
	   stroke: #FF2222;
	   stroke-width: 1;
	   fill: none;
    pointer-events: all;
  }
  .tLabel {
	   font-family: Arial;
    pointer-events: none;
	   font-size: 14px;
	   text-anchor: middle;
	   alignment-baseline: central;
  }
  .nLabel {
	   font-family: Arial;
    pointer-events: none;
	   font-size: 10px;
	   text-anchor: middle;
	   alignment-baseline: central;
  }
  .belong {
	   font-family: Arial;
    pointer-events: none;
	   font-size: 5px;
	   text-anchor: middle;
	   alignment-baseline: central;
  }
  .p0{
    stroke: none;
    fill: #e6194b;
  }
  .q0{
    fill: none;
    stroke: #e6194b;
  }
  .p1{
    stroke: none;
    fill: #3cb44b;
  }
  .q1{
    fill: none;
    stroke: #3cb44b;
  }
  .p2{
    stroke: none;
    fill: #ffe119;
  }
  .q2{
    fill: none;
    stroke: #ffe119;
  }
  .p3{
    stroke: none;
    fill: #0082c8;
  }
  .q3{
    fill: none;
    stroke: #0082c8;
  }
  .p4{
    stroke: none;
    fill: #f58231;
  }
  .q4{
    fill: none;
    stroke: #f58231;
  }
  .p5{
    stroke: none;
    fill: #911eb4;
  }
  .q5{
    fill: none;
    stroke: #911eb4;
  }
]]>
</style>
<symbol id="bl0">
<path d="M 246.29 111.35 L 247.50 109.95 L 248.76 108.67 L 250.32 107.90 L 252.00 107.33 L 253.71 106.78 L 255.45 106.23 L 257.20 105.67 L 258.98 105.10 L 260.77 104.49 L 262.58 103.00 L 264.61 105.32 L 266.30 102.85 L 268.21 102.53 L 270.08 101.85 L 271.97 101.14 L 273.89 100.53 L 275.84 99.94 L 277.80 99.34 L 279.78 98.75 L 281.78 98.16 L 283.75 97.52 L 283.95 95.13 L 287.96 96.50 L 287.14 93.35 L 288.06 91.84 L 288.84 90.21 L 288.83 87.85 L 288.52 85.22 L 288.17 82.52 L 287.81 79.79 L 287.45 77.04 L 287.08 74.26 L 286.67 71.46 L 286.29 68.62 L 286.07 65.74 L 285.57 62.88 L 285.35 59.95 L 284.97 57.03 L 284.55 54.09 L 284.17 51.12 L 283.80 48.12 L 283.43 45.10 L 283.06 42.07 L 282.69 39.02 L 282.28 36.00 L 281.67 33.40 L 280.48 31.92 L 279.21 30.66 L 278.10 29.17 L 276.90 27.89 L 275.16 27.76 L 273.22 28.07 L 271.27 28.45 L 269.34 28.83 L 244.45 10.00 L 174.03 187.98 L 213.64 119.29 L 190.65 120.46 L 172.42 171.56 L 257.98 28.99 L 256.32 31.44 L 254.55 31.96 L 252.79 32.37 L 251.05 32.77 L 249.33 33.17 L 247.63 33.58 L 245.95 33.99 L 244.30 34.40 L 242.70 34.87 L 241.33 35.67 L 240.54 37.41 L 239.85 39.29 L 239.06 40.92 L 238.36 42.70 L 238.23 45.37 L 238.30 48.37 L 238.41 51.39 L 238.52 54.40 L 238.63 57.38 L 238.75 60.34 L 238.90 63.27 L 239.74 66.35 L 237.84 69.02 L 239.21 71.95 L 239.17 74.81 L 239.36 77.61 L 239.56 80.38 L 239.70 83.14 L 239.83 85.87 L 239.96 88.58 L 240.08 91.26 L 159.28 264.33 L 227.22 123.32 L 240.28 99.03 L 239.86 101.29 L 239.35 103.49 L 238.91 105.75 L 238.37 107.96 L 237.46 109.91 L 236.43 111.78 L 235.38 113.62 L 234.33 115.45 L 233.30 117.25 L 232.28 119.05 L 231.27 120.82 L 230.27 122.58 L 229.27 124.33 L 228.29 126.06 L 227.32 127.77 L 226.36 129.47 L 225.41 131.15 L 224.46 132.82 L 223.53 134.48 L 222.59 136.14 L 221.66 137.79 L 220.73 139.44 L 219.80 141.10 L 218.88 142.74 L 217.96 144.37 L 217.05 145.99 L 216.15 147.60 L 215.26 149.20 L 214.37 150.79 L 213.50 152.36 L 212.63 153.92 L 211.76 155.47 L 210.91 157.01 L 210.06 158.54 L 209.22 160.05 L 208.39 161.55 L 207.56 163.05 L 206.74 164.53 L 205.93 165.99 L 205.13 167.45 L 204.33 168.90 L 203.54 170.33 L 202.76 171.76 L 201.99 173.17 L 201.22 174.57 L 200.46 175.96 L 199.71 177.34 L 198.96 178.71 L 198.22 180.06 L 197.49 181.41 L 196.76 182.74 L 196.05 184.07 L 195.33 185.38 L 194.63 186.68 L 193.93 187.97 L 193.24 189.25 L 192.56 190.52 L 191.88 191.78 L 191.21 193.03 L 190.54 194.27 L 189.89 195.50 L 189.23 196.72 L 188.59 197.93 L 187.95 199.12 L 187.32 200.31 L 186.70 201.48 L 186.08 202.65 L 185.46 203.81 L 184.86 204.95 L 184.26 206.09 L 183.67 207.21 L 183.08 208.33 L 182.50 209.44 L 181.92 210.53 L 181.35 211.62 L 180.79 212.69 L 180.24 213.76 L 179.69 214.82 L 179.14 215.86 L 178.60 216.90 L 178.07 217.93 L 177.54 218.95 L 177.02 219.96 L 176.51 220.96 L 176.00 221.95 L 175.50 222.93 L 175.00 223.90 L 174.51 224.86 L 174.02 225.81 L 173.54 226.76 L 173.07 227.69 L 172.60 228.62 L 172.14 229.53 L 171.68 230.44 L 171.22 231.34 L 170.78 232.23 L 170.34 233.11 L 169.90 233.98 L 169.47 234.84 L 169.04 235.70 L 168.62 236.54 L 168.21 237.38 L 167.80 238.21 L 167.39 239.03 L 167.00 239.84 L 166.60 240.64 L 166.21 241.44 L 165.83 242.22 L 165.45 243.00 L 165.08 243.77 L 164.71 244.53 L 164.34 245.28 L 163.98 246.03 L 163.63 246.76 L 163.28 247.49 L 162.93 248.21 L 162.59 248.92 L 162.26 249.63 L 161.93 250.33 L 161.60 251.01 L 161.28 251.70 L 160.96 252.37 L 160.65 253.03 L 160.34 253.69 L 160.04 254.34 L 159.74 254.98 L 159.45 255.62 L 159.16 256.25 L 158.87 256.87 L 158.59 257.48 L 158.32 258.08 L 158.04 258.68 L 157.78 259.27 L 157.51 259.86 L 157.25 260.43 L 157.00 261.00 L 156.74 261.56 L 156.50 262.12 L 156.25 262.67 L 156.01 263.21 L 155.78 263.74 L 155.55 264.27 L 155.32 264.79 L 155.10 265.30 L 154.88 265.81 L 154.66 266.31 L 154.45 266.80 L 154.24 267.29 L 154.03 267.77 L 153.83 268.24 L 153.63 268.71 L 153.44 269.17 L 153.25 269.63 L 153.06 270.07 L 152.88 270.52 L 152.70 270.95 L 152.52 271.38 L 152.35 271.80 L 152.18 272.22 L 152.01 272.63 L 151.85 273.04 L 151.69 273.43 L 151.54 273.83 L 151.38 274.21 L 151.23 274.60 L 151.09 274.97 L 150.94 275.34 L 150.80 275.70 L 150.66 276.06 L 150.53 276.42 L 150.40 276.76 L 150.27 277.10 L 150.14 277.44 L 150.02 277.77 L 149.90 278.10 L 149.78 278.42 L 149.67 278.73 L 149.56 279.04 L 149.45 279.34 L 149.34 279.64 L 149.24 279.94 L 149.14 280.22 L 149.04 280.51 L 148.94 280.79 L 148.85 281.06 L 148.76 281.33 L 148.67 281.59 L 148.58 281.85 L 148.50 282.10 L 148.42 282.35 L 148.34 282.59 L 148.27 282.83 L 148.20 283.06 L 148.13 283.29 L 148.06 283.51 L 147.99 283.73 L 147.93 283.94 L 147.87 284.15 L 147.81 284.36 L 147.75 284.57 L 147.69 284.76 L 147.63 284.96 L 147.58 285.15 L 147.53 285.34 L 147.48 285.52 L 147.43 285.71 L 147.38 285.88 L 147.34 286.06 L 147.30 286.23 L 147.25 286.39 L 147.21 286.55 L 147.18 286.71 L 147.14 286.87 L 147.10 287.02 L 147.07 287.17 L 147.04 287.31 L 147.01 287.45 L 146.98 287.59 L 146.95 287.72 L 146.92 287.85 L 146.90 287.98 L 146.87 288.10 L 146.62 290.61 L 146.62 290.85 L 146.81 288.45 L 146.79 288.57 L 146.56 291.05 L 146.80 289.28 L 146.74 288.87 L 146.72 288.96 L 146.71 289.05 L 146.70 289.14 L 146.69 289.23 L 146.68 289.31 L 146.67 289.39 L 146.66 289.47 L 146.65 289.54 L 146.64 289.62 L 146.64 289.69 L 146.63 289.76 L 146.63 289.82 L 146.62 289.87 L 146.62 289.90 L 146.61 289.92 L 146.61 289.95 L 146.61 289.97 L 146.61 289.97 L 146.61 289.96 L 146.61 289.95 L 146.61 289.94 L 146.61 289.93 L 146.61 289.92 L 146.61 289.91 L 146.61 290.23 L 146.62 291.02 L 146.62 289.88 L 146.62 289.87 L 146.62 289.85 L 146.62 289.84 L 146.63 289.83 L 146.63 289.82 L 146.63 290.99 L 146.63 290.62 L 146.63 289.88 L 146.65 290.95 L 146.64 291.03 L 146.63 290.00 L 146.62 290.06 L 146.62 290.12 L 146.62 290.18 L 146.62 290.24 L 146.65 291.01 L 146.65 291.01 L 146.63 290.71 L 146.61 290.43 L 146.60 290.47 L 146.60 290.52 L 146.60 290.56 L 146.59 290.59 L 146.59 290.63 L 146.58 290.66 L 146.65 290.96 L 146.64 290.96 L 146.58 290.74 L 146.58 290.76 L 146.58 290.78 L 146.59 290.80 L 146.59 290.81 L 146.60 290.83 L 146.60 290.84 L 146.61 290.86 L 146.65 290.98 L 146.63 290.93 L 146.62 290.89 L 146.62 290.90 L 146.62 290.91 L 146.62 290.91 L 146.63 290.92 L 146.63 290.92 L 146.63 290.93 L 146.63 290.93 L 146.63 290.94 L 146.63 290.94 L 146.63 290.94 L 146.63 290.96 L 146.63 290.96 L 146.62 290.94 L 146.62 290.94 L 146.62 290.94 L 146.62 290.94 L 146.61 290.93 L 146.61 290.93 L 146.61 290.93 L 146.61 290.93 L 146.61 290.93 L 146.61 290.92 L 146.61 290.92 L 146.61 290.92 L 146.61 290.92 L 146.61 290.91 L 146.61 290.91 L 146.92 290.97 L 146.63 290.91 L 146.63 290.91 L 146.63 290.91 L 146.64 290.92 L 146.65 290.92 L 146.66 290.92 L 146.67 290.93 L 146.68 290.93 L 146.69 290.93 L 146.70 290.94 L 146.76 290.94 L 146.81 290.95 L 146.87 290.91 L 146.77 290.94 L 146.79 290.94 L 146.81 290.94 L 146.83 290.94 L 146.85 290.94 L 146.88 290.94 L 146.90 290.94 L 146.93 290.94 L 146.96 290.94 L 147.08 290.94 L 147.30 290.94 L 147.00 290.94 L 147.02 290.94 L 147.02 290.93 L 147.02 290.93 L 147.02 290.93 L 147.02 290.93 L 147.01 290.92 L 147.01 290.92 L 147.19 290.92 L 147.13 290.92 L 147.01 290.92 L 147.01 290.92 L 147.00 290.93 L 147.00 290.93 L 147.00 290.93 L 147.00 290.94 L 146.99 290.95 L 146.88 290.90 L 146.94 290.94 L 147.04 290.97 L 147.05 290.98 L 147.08 290.99 L 147.11 290.99 L 147.16 291.00 L 147.21 291.01 L 147.26 291.01 L 147.32 291.02 L 147.08 290.90 L 147.23 290.96 L 147.51 291.04 L 147.57 291.05 L 147.64 291.06 L 147.72 291.07 L 147.80 291.08 L 147.88 291.09 L 147.96 291.10 L 148.05 291.11 L 148.15 291.11 L 148.23 291.11 L 148.32 291.10 L 148.41 291.10 L 148.51 291.10 L 148.60 291.08 L 148.69 291.07 L 148.78 291.05 L 148.88 291.04 L 148.97 291.02 L 149.08 291.01 L 149.18 291.00 L 149.28 290.99 L 149.40 290.98 L 149.50 290.97 L 149.61 290.96 L 149.73 290.95 L 149.84 290.95 L 149.96 290.94 L 150.08 290.94 L 150.18 290.93 L 150.56 290.91 L 150.25 290.91 L 150.26 290.93 L 150.28 290.92 L 150.24 290.92 L 150.17 290.92 L 150.09 290.92 L 150.02 290.92 L 149.94 290.92 L 149.87 290.93 L 147.59 290.93 L 149.73 290.93 L 149.66 290.93 L 149.59 290.93 L 149.52 290.94 L 149.46 290.94 L 147.03 290.84 L 149.46 290.93 L 148.15 290.94 L 149.83 290.95 L 148.86 290.78 L 149.23 290.94 L 149.23 290.94 L 149.25 290.94 L 149.31 290.94 L 149.39 290.94 L 149.44 290.95 L 147.69 290.96 L 149.63 290.92 L 149.72 290.92 L 149.80 290.91 L 149.89 290.90 L 149.98 290.89 L 150.07 290.88 L 150.16 290.87 L 150.26 290.85 L 150.35 290.84 L 150.45 290.82 L 150.55 290.80 L 150.65 290.78 L 150.75 290.76 L 150.85 290.73 L 150.96 290.71 L 151.07 290.68 L 151.18 290.65 L 151.30 290.62 L 151.41 290.58 L 152.19 290.24 L 153.17 290.18 L 151.77 290.46 L 151.89 290.42 L 152.01 290.37 L 152.14 290.32 L 152.27 290.27 L 152.40 290.21 L 153.11 290.43 L 146.48 291.02 L 152.80 290.03 L 152.94 289.96 L 153.08 289.89 L 153.22 289.82 L 153.36 289.74 L 153.51 289.66 L 153.66 289.58 L 153.81 289.49 L 153.96 289.40 L 154.11 289.31 L 154.27 289.21 L 154.43 289.11 L 154.59 289.00 L 154.75 288.89 L 154.92 288.78 L 155.09 288.66 L 155.26 288.54 L 155.43 288.42 L 155.60 288.29 L 155.78 288.15 L 155.96 288.02 L 156.14 287.87 L 156.32 287.73 L 156.51 287.57 L 156.70 287.42 L 156.89 287.26 L 157.08 287.09 L 157.28 286.92 L 157.47 286.74 L 157.67 286.56 L 157.88 286.38 L 158.08 286.19 L 158.29 285.99 L 158.50 285.79 L 158.71 285.58 L 158.93 285.37 L 159.14 285.15 L 159.36 284.93 L 159.58 284.70 L 159.81 284.47 L 160.04 284.23 L 160.27 283.98 L 160.50 283.73 L 160.74 283.47 L 160.97 283.21 L 161.21 282.94 L 161.46 282.66 L 161.70 282.38 L 161.95 282.09 L 162.20 281.79 L 162.46 281.49 L 162.71 281.18 L 162.97 280.87 L 163.24 280.55 L 163.50 280.22 L 163.77 279.89 L 164.04 279.54 L 164.31 279.20 L 164.59 278.84 L 164.87 278.48 L 165.15 278.11 L 165.44 277.73 L 165.72 277.35 L 166.01 276.95 L 166.31 276.56 L 166.60 276.15 L 166.90 275.74 L 167.21 275.31 L 167.51 274.88 L 167.82 274.45 L 168.13 274.00 L 168.45 273.55 L 168.76 273.09 L 169.08 272.62 L 169.41 272.14 L 169.73 271.66 L 170.06 271.16 L 170.40 270.66 L 170.73 270.15 L 171.07 269.63 L 171.41 269.11 L 171.76 268.57 L 172.11 268.03 L 172.46 267.48 L 172.82 266.91 L 173.17 266.34 L 173.54 265.76 L 173.90 265.17 L 174.27 264.58 L 174.64 263.97 L 175.01 263.35 L 175.39 262.73 L 175.77 262.09 L 176.16 261.45 L 176.55 260.80 L 176.94 260.13 L 177.33 259.46 L 177.73 258.78 L 178.13 258.09 L 178.54 257.39 L 178.95 256.67 L 179.36 255.95 L 179.77 255.22 L 180.19 254.48 L 180.61 253.73 L 181.04 252.96 L 181.47 252.19 L 181.90 251.41 L 182.34 250.62 L 182.78 249.81 L 183.22 249.00 L 183.67 248.17 L 184.12 247.34 L 184.57 246.49 L 185.03 245.63 L 185.49 244.76 L 185.96 243.88 L 186.43 242.99 L 186.90 242.09 L 187.38 241.18 L 187.86 240.25 L 188.34 239.32 L 188.83 238.37 L 189.32 237.41 L 189.82 236.44 L 190.32 235.46 L 190.82 234.47 L 191.33 233.46 L 191.84 232.45 L 192.35 231.42 L 192.87 230.38 L 193.39 229.32 L 193.92 228.26 L 194.45 227.18 L 194.99 226.09 L 195.52 224.99 L 196.07 223.88 L 196.61 222.75 L 197.16 221.61 L 197.72 220.46 L 198.27 219.29 L 198.84 218.12 L 199.40 216.93 L 199.97 215.72 L 200.55 214.51 L 201.13 213.28 L 201.71 212.04 L 202.29 210.78 L 202.89 209.52 L 203.48 208.23 L 204.08 206.94 L 204.68 205.63 L 205.29 204.31 L 205.90 202.97 L 206.52 201.63 L 207.14 200.26 L 207.76 198.89 L 208.39 197.50 L 209.02 196.09 L 209.66 194.67 L 210.30 193.24 L 210.95 191.80 L 211.60 190.34 L 212.26 188.86 L 212.91 187.37 L 213.58 185.87 L 214.25 184.35 L 214.92 182.82 L 215.59 181.27 L 216.28 179.71 L 216.96 178.13 L 217.65 176.54 L 218.35 174.94 L 219.05 173.32 L 219.75 171.68 L 220.46 170.03 L 221.17 168.36 L 221.89 166.68 L 222.61 164.98 L 223.34 163.27 L 224.07 161.54 L 224.80 159.80 L 225.54 158.04 L 226.29 156.27 L 227.04 154.48 L 227.79 152.67 L 228.55 150.85 L 229.31 149.02 L 230.07 147.19 L 230.83 145.36 L 231.59 143.51 L 232.35 141.66 L 233.11 139.80 L 233.89 137.92 L 234.66 136.01 L 235.45 134.09 L 236.23 132.16 L 237.03 130.20 L 237.83 128.22 L 238.64 126.22 L 239.45 124.20 L 240.27 122.16 L 241.10 120.10 L 241.94 118.02 L 242.79 115.95 L 243.75 114.05 L 244.99 112.64 Z" />
</symbol>
<symbol id="bl1">
<path d="M 146.62 289.69 L 146.62 289.63 L 146.63 289.57 L 146.63 289.54 L 146.64 289.51 L 146.65 289.48 L 146.66 289.44 L 146.68 289.41 L 146.69 289.38 L 146.89 288.35 L 146.94 288.25 L 146.88 288.84 L 146.77 289.26 L 146.80 289.23 L 146.83 289.19 L 146.86 289.16 L 146.89 289.12 L 146.93 289.08 L 146.96 289.05 L 147.00 289.00 L 147.02 288.91 L 146.60 290.85 L 146.72 290.74 L 147.08 288.65 L 147.09 288.52 L 147.09 288.37 L 147.08 288.22 L 147.08 288.05 L 147.08 287.89 L 147.14 289.74 L 147.19 290.51 L 147.06 290.37 L 147.32 289.64 L 147.06 286.95 L 147.06 286.74 L 147.06 286.53 L 147.05 286.30 L 147.05 286.08 L 147.05 285.84 L 147.04 285.60 L 147.03 285.38 L 147.01 285.23 L 146.98 285.09 L 146.96 284.92 L 146.94 284.76 L 146.91 284.68 L 146.87 284.63 L 146.84 284.58 L 146.96 289.33 L 146.96 288.23 L 146.76 284.43 L 147.05 281.83 L 147.00 281.86 L 146.72 283.78 L 146.68 284.21 L 146.66 284.17 L 146.65 284.12 L 146.64 284.08 L 146.63 284.03 L 146.63 283.98 L 146.62 283.93 L 146.62 283.93 L 146.61 284.03 L 146.61 284.15 L 146.61 284.24 L 146.60 290.01 L 146.60 290.43 L 146.61 284.81 L 146.61 285.05 L 146.61 285.28 L 146.61 285.52 L 146.61 285.74 L 146.61 285.96 L 146.61 286.17 L 146.61 286.38 L 146.61 286.57 L 146.61 286.77 L 146.61 286.96 L 146.61 287.14 L 146.61 287.32 L 146.61 287.49 L 146.61 287.65 L 146.61 287.79 L 146.62 287.89 L 146.62 287.99 L 146.62 288.13 L 146.62 288.26 L 146.62 288.35 L 146.62 288.42 L 146.62 288.52 L 146.62 288.62 L 146.63 288.72 L 146.63 288.83 L 146.63 288.92 L 146.63 289.02 L 146.70 291.01 L 146.72 291.03 L 146.63 289.43 L 146.63 289.37 L 146.63 289.45 L 146.63 289.53 L 146.62 289.60 L 146.62 289.67 L 146.62 289.74 L 146.62 289.81 L 146.65 290.70 L 146.65 290.88 L 146.60 289.89 L 146.65 290.60 L 146.66 290.94 L 146.58 289.91 L 146.57 289.88 L 146.56 289.85 L 146.54 289.82 L 146.53 289.78 L 146.51 289.75 L 146.68 291.00 L 146.56 290.13 L 146.44 289.65 L 146.42 289.62 L 146.39 289.58 L 146.36 289.54 L 146.33 289.51 L 146.30 289.47 L 146.26 289.43 L 146.22 289.39 L 146.18 289.36 L 146.13 289.35 L 146.08 289.35 L 146.03 289.34 L 145.98 289.33 L 145.92 289.35 L 145.85 289.37 L 145.78 289.40 L 145.71 289.42 L 145.64 289.45 L 145.56 289.47 L 145.48 289.50 L 145.39 289.52 L 145.30 289.55 L 145.20 289.57 L 145.10 289.59 L 145.00 289.61 L 144.90 289.64 L 144.79 289.66 L 144.67 289.68 L 144.56 289.70 L 144.43 289.73 L 144.30 289.75 L 144.17 289.77 L 144.03 289.79 L 143.88 289.81 L 143.73 289.84 L 143.57 289.86 L 143.40 289.88 L 143.23 289.90 L 143.06 289.92 L 142.89 289.93 L 142.73 289.91 L 142.56 289.90 L 142.39 289.88 L 142.21 289.85 L 142.06 289.80 L 141.90 289.74 L 146.77 291.03 L 141.40 289.99 L 144.72 288.93 L 141.45 289.40 L 141.08 289.39 L 140.92 289.32 L 140.73 289.24 L 140.54 289.16 L 140.36 289.08 L 140.17 289.00 L 139.98 288.91 L 139.77 288.84 L 139.54 288.82 L 139.29 288.80 L 139.05 288.77 L 138.80 288.74 L 138.51 288.76 L 138.21 288.80 L 137.90 288.84 L 137.58 288.88 L 142.49 288.49 L 146.35 290.83 L 143.27 289.75 L 136.20 289.03 L 135.84 289.06 L 135.47 289.10 L 135.09 289.14 L 134.71 289.18 L 141.61 290.05 L 146.23 290.77 L 133.72 289.33 L 131.93 288.91 L 142.19 288.93 L 132.97 289.54 L 132.84 289.62 L 132.75 289.71 L 144.17 290.82 L 144.86 290.91 L 140.66 289.42 L 133.50 289.95 L 132.35 290.11 L 132.24 290.18 L 132.16 290.25 L 132.09 290.31 L 132.01 290.36 L 131.93 290.42 L 131.86 290.47 L 131.84 290.51 L 131.98 290.55 L 132.14 290.58 L 132.27 290.61 L 132.41 290.65 L 132.71 290.67 L 133.05 290.69 L 133.40 290.71 L 133.73 290.73 L 134.05 290.75 L 134.37 290.77 L 134.70 290.78 L 135.00 290.80 L 135.33 290.81 L 135.63 290.82 L 135.93 290.83 L 136.22 290.84 L 136.50 290.86 L 136.74 290.87 L 136.88 290.88 L 137.00 290.89 L 137.11 290.90 L 137.20 290.91 L 137.20 290.92 L 137.16 290.92 L 137.12 290.93 L 137.08 290.93 L 137.04 290.94 L 136.99 290.94 L 144.72 290.95 L 144.95 290.95 L 136.85 290.94 L 136.80 290.94 L 136.77 290.94 L 144.00 290.94 L 145.39 290.94 L 136.66 290.94 L 136.62 290.94 L 136.57 290.93 L 136.49 290.93 L 136.32 290.93 L 136.12 290.93 L 146.15 290.93 L 143.19 290.92 L 135.42 290.92 L 135.07 290.92 L 134.71 290.92 L 134.34 290.92 L 133.96 290.92 L 138.80 290.92 L 139.65 290.91 L 135.83 290.92 L 132.37 290.92 L 131.97 290.92 L 131.55 290.92 L 131.11 290.92 L 130.67 290.93 L 130.22 290.93 L 129.83 290.93 L 129.61 290.93 L 129.41 290.94 L 129.17 290.94 L 128.96 290.94 L 136.33 290.92 L 141.80 290.90 L 128.98 290.97 L 142.46 290.90 L 136.22 290.93 L 129.09 291.02 L 129.11 291.04 L 129.16 291.06 L 129.18 291.08 L 129.24 291.11 L 129.29 291.14 L 129.33 291.17 L 129.37 291.21 L 129.42 291.24 L 129.53 291.28 L 129.80 291.31 L 130.08 291.34 L 132.15 291.21 L 134.39 291.08 L 131.01 291.42 L 131.46 291.44 L 131.92 291.46 L 132.37 291.47 L 132.82 291.49 L 133.25 291.51 L 133.67 291.53 L 134.09 291.55 L 134.49 291.57 L 134.88 291.59 L 135.27 291.61 L 135.64 291.63 L 136.00 291.65 L 136.35 291.67 L 136.68 291.68 L 136.97 291.67 L 137.25 291.65 L 138.10 291.59 L 143.01 290.92 L 138.04 291.58 L 138.26 291.54 L 138.47 291.50 L 138.68 291.45 L 138.88 291.41 L 139.09 291.38 L 139.29 291.34 L 139.48 291.31 L 139.68 291.28 L 139.86 291.24 L 140.04 291.22 L 140.22 291.19 L 140.40 291.16 L 140.58 291.14 L 140.76 291.12 L 140.97 291.11 L 141.18 291.10 L 141.37 291.09 L 141.55 291.09 L 141.77 291.09 L 141.98 291.09 L 142.20 291.09 L 142.42 291.10 L 142.62 291.10 L 142.81 291.10 L 143.00 291.11 L 143.18 291.11 L 143.36 291.11 L 143.52 291.12 L 143.69 291.12 L 146.48 290.97 L 146.70 290.94 L 146.48 290.96 L 145.88 291.02 L 146.72 290.93 L 145.03 291.08 L 146.72 290.94 L 146.72 290.94 L 144.89 291.15 L 145.00 291.15 L 145.10 291.16 L 145.20 291.16 L 145.30 291.16 L 145.39 291.17 L 145.48 291.17 L 145.56 291.17 L 145.64 291.18 L 145.72 291.18 L 146.70 290.88 L 146.05 291.39 L 145.91 291.20 L 145.94 291.24 L 145.40 291.75 L 146.04 291.26 L 146.08 291.28 L 146.11 291.32 L 146.13 291.36 L 146.15 291.41 L 146.17 291.46 L 146.68 290.88 L 146.31 291.01 L 146.23 291.62 L 146.25 291.69 L 146.26 291.75 L 146.28 291.82 L 146.30 291.89 L 146.32 291.97 L 146.33 292.04 L 146.35 292.11 L 146.37 292.16 L 146.40 292.20 L 146.42 292.24 L 146.44 292.29 L 146.46 292.30 L 146.64 291.22 L 146.65 291.40 L 146.66 291.57 L 146.66 291.33 L 146.56 292.31 L 146.58 292.21 L 146.61 290.85 L 146.60 292.32 L 146.61 292.32 L 146.61 292.32 L 146.62 292.32 L 146.62 292.32 L 146.63 292.31 L 146.63 292.27 L 146.63 292.22 L 146.63 292.18 L 146.63 292.14 L 146.63 292.07 L 146.63 292.00 L 146.63 291.92 L 146.63 291.85 L 146.63 291.79 L 146.63 291.73 L 146.62 291.66 L 146.62 291.61 L 146.62 291.55 L 146.62 291.50 L 146.62 291.45 L 146.62 291.40 L 146.62 291.36 L 146.62 291.32 L 146.62 291.28 L 146.62 291.25 L 146.62 291.01 L 146.62 290.87 L 146.62 291.16 L 146.62 291.13 L 146.62 291.11 L 146.62 291.09 L 146.63 291.07 L 146.63 291.05 L 146.72 290.91 L 146.67 290.92 L 146.63 290.94 L 146.67 290.92 L 146.63 290.98 L 146.63 290.97 L 146.63 290.96 L 146.63 290.95 L 146.63 290.94 L 146.63 290.94 L 146.63 290.93 L 146.63 290.93 L 146.63 290.93 L 146.63 290.92 L 146.63 290.92 L 146.63 290.92 L 146.63 290.92 L 146.63 290.92 L 146.63 290.92 L 146.63 290.93 L 146.70 290.93 L 146.63 290.93 L 146.63 290.93 L 146.63 290.93 L 146.63 290.94 L 146.63 290.94 L 146.63 290.94 L 146.63 290.94 L 146.63 290.94 L 146.63 290.87 L 146.62 290.94 L 146.62 290.94 L 146.62 290.94 L 146.64 290.94 L 146.62 290.93 L 146.62 290.94 L 146.62 290.93 L 146.62 290.93 L 146.62 290.92 L 146.62 290.57 L 146.62 290.89 L 146.61 290.89 L 146.61 290.88 L 146.61 290.86 L 146.61 290.85 L 146.61 290.96 L 146.61 290.97 L 146.61 290.80 L 146.61 290.94 L 146.60 290.99 L 146.60 290.61 L 146.61 290.68 L 146.61 290.64 L 146.61 290.61 L 146.61 290.57 L 146.61 290.53 L 146.61 290.48 L 146.61 290.44 L 146.61 290.39 L 146.61 290.34 L 146.61 290.28 L 146.61 290.22 L 146.61 290.16 L 146.61 290.09 L 146.61 290.02 L 146.61 289.95 L 146.66 290.69 L 146.72 290.88 L 146.62 289.75 Z" />
</symbol>
<symbol id="bl2">
<path d="M 275.24 375.97 L 352.43 429.50 L 351.48 431.23 L 350.76 433.43 L 185.40 309.17 L 236.54 346.76 L 245.89 357.04 L 199.20 329.78 L 235.47 356.63 L 348.74 448.15 L 349.15 450.51 L 350.27 452.67 L 350.52 455.17 L 351.54 457.41 L 351.68 459.98 L 352.54 462.36 L 186.72 313.59 L 236.60 355.90 L 251.21 372.75 L 191.63 319.10 L 360.52 473.43 L 362.38 475.53 L 364.30 477.50 L 366.33 478.91 L 368.44 479.17 L 293.19 407.12 L 223.24 344.75 L 375.67 483.40 L 376.63 484.89 L 378.93 486.01 L 381.93 486.88 L 196.45 319.89 L 259.97 372.18 L 260.95 375.49 L 194.56 318.32 L 398.61 489.78 L 402.06 490.00 L 405.37 489.78 L 408.48 488.85 L 411.94 488.77 L 415.14 487.95 L 418.68 487.99 L 422.02 487.32 L 425.23 486.20 L 248.53 348.61 L 301.72 386.02 L 222.89 330.03 L 437.89 480.58 L 440.92 479.02 L 443.76 477.42 L 445.85 475.70 L 446.34 473.89 L 282.35 361.14 L 304.24 373.45 L 452.67 467.98 L 454.82 467.27 L 456.53 465.43 L 457.94 463.05 L 459.23 460.55 L 225.10 322.18 L 309.93 366.02 L 273.63 344.02 L 206.64 311.22 L 463.72 447.96 L 463.66 445.57 L 462.64 443.30 L 462.78 440.91 L 461.90 438.68 L 462.20 436.34 L 461.52 434.11 L 460.22 431.97 L 211.22 311.06 L 289.23 344.46 L 298.76 345.63 L 205.32 307.43 L 451.47 421.99 L 449.44 420.26 L 447.24 418.98 L 444.82 418.63 L 233.55 319.53 L 362.45 375.89 L 437.07 414.80 L 436.21 413.57 L 433.76 412.55 L 430.56 411.67 L 427.20 410.87 L 423.77 410.12 L 264.47 333.83 L 282.67 340.80 L 218.18 312.75 L 196.34 304.86 L 406.59 407.77 L 403.28 408.18 L 399.94 407.97 L 396.69 408.30 L 393.40 408.02 L 390.19 408.25 L 387.04 408.80 L 213.79 316.14 L 266.15 343.70 L 229.31 324.48 L 375.00 411.90 L 372.20 412.83 L 369.58 413.83 L 367.61 414.93 L 167.50 302.78 L 343.98 404.10 L 363.71 416.72 L 362.03 416.59 L 360.72 415.95 L 358.98 414.77 L 357.04 413.42 L 355.08 412.06 L 353.14 410.71 L 351.21 409.37 L 349.30 408.04 L 347.40 406.73 L 345.52 405.43 L 343.66 404.14 L 341.81 402.86 L 339.98 401.59 L 338.16 400.34 L 336.36 399.10 L 334.57 397.87 L 332.79 396.65 L 331.01 395.43 L 329.24 394.21 L 327.46 393.00 L 325.69 391.79 L 323.92 390.58 L 322.16 389.38 L 320.41 388.20 L 318.68 387.02 L 316.96 385.85 L 315.26 384.71 L 313.59 383.57 L 311.94 382.46 L 310.31 381.36 L 308.69 380.27 L 307.07 379.18 L 305.47 378.11 L 303.87 377.03 L 302.28 375.97 L 300.70 374.91 L 299.12 373.86 L 297.55 372.82 L 295.99 371.78 L 294.44 370.75 L 292.90 369.72 L 291.36 368.71 L 289.88 367.69 L 288.66 366.64 L 288.11 365.48 L 287.78 364.32 L 287.43 363.20 L 287.31 362.08 L 287.85 360.86 L 288.64 359.61 L 172.81 298.19 L 273.84 347.60 L 291.20 355.95 L 292.12 354.77 L 292.92 353.58 L 293.70 352.41 L 294.29 351.25 L 294.28 350.11 L 294.19 348.99 L 294.28 347.88 L 294.28 346.79 L 293.68 345.71 L 292.86 344.64 L 292.04 343.58 L 291.27 342.53 L 290.35 341.52 L 289.58 340.49 L 288.69 339.51 L 287.79 338.55 L 286.77 337.66 L 285.33 336.99 L 283.86 336.35 L 282.54 335.65 L 281.17 334.99 L 279.40 334.52 L 277.50 334.13 L 275.60 333.74 L 273.75 333.33 L 271.85 332.98 L 270.03 332.58 L 268.18 332.24 L 266.34 331.90 L 264.71 350.37 L 262.79 334.03 L 261.00 331.70 L 259.29 321.98 L 257.41 351.79 L 255.83 331.91 L 254.14 332.26 L 163.71 294.32 L 247.06 330.55 L 249.16 333.36 L 247.52 333.70 L 245.93 334.10 L 244.37 334.48 L 242.87 334.74 L 241.51 334.68 L 240.19 334.52 L 238.83 334.37 L 237.51 334.12 L 236.34 333.58 L 235.22 332.92 L 234.12 332.25 L 233.03 331.59 L 231.95 330.94 L 230.89 330.30 L 229.83 329.66 L 228.79 329.04 L 227.76 328.42 L 226.73 327.81 L 225.72 327.21 L 224.72 326.61 L 223.73 326.02 L 222.75 325.44 L 221.78 324.87 L 220.81 324.30 L 219.84 323.73 L 218.88 323.17 L 217.92 322.61 L 216.96 322.05 L 216.01 321.50 L 215.07 320.95 L 214.14 320.42 L 213.21 319.89 L 212.30 319.36 L 211.39 318.84 L 210.49 318.33 L 209.60 317.82 L 208.72 317.32 L 207.85 316.83 L 206.98 316.34 L 206.13 315.86 L 205.28 315.39 L 204.44 314.92 L 203.61 314.45 L 202.78 314.00 L 201.96 313.55 L 201.16 313.10 L 200.35 312.66 L 199.56 312.23 L 198.78 311.80 L 198.00 311.38 L 197.23 310.96 L 196.47 310.55 L 195.71 310.15 L 194.97 309.75 L 194.23 309.35 L 193.50 308.97 L 192.77 308.58 L 192.06 308.20 L 191.35 307.83 L 190.64 307.47 L 189.95 307.10 L 189.26 306.75 L 188.58 306.40 L 187.91 306.05 L 187.25 305.71 L 186.59 305.38 L 185.94 305.05 L 185.29 304.72 L 184.66 304.40 L 184.03 304.09 L 183.40 303.77 L 182.79 303.47 L 182.18 303.17 L 181.58 302.87 L 180.98 302.58 L 180.39 302.30 L 179.81 302.01 L 179.24 301.74 L 178.67 301.47 L 178.11 301.20 L 177.55 300.93 L 177.00 300.68 L 176.46 300.42 L 175.92 300.17 L 175.39 299.93 L 174.87 299.69 L 174.35 299.45 L 173.84 299.22 L 173.34 298.99 L 172.84 298.76 L 172.35 298.54 L 171.87 298.33 L 171.39 298.12 L 170.91 297.91 L 170.45 297.71 L 169.98 297.51 L 169.53 297.31 L 169.08 297.12 L 168.64 296.93 L 168.20 296.75 L 167.77 296.57 L 167.34 296.39 L 166.92 296.22 L 166.51 296.05 L 166.10 295.88 L 165.69 295.72 L 165.30 295.56 L 164.91 295.41 L 164.52 295.25 L 164.14 295.11 L 163.76 294.96 L 163.39 294.82 L 163.03 294.68 L 162.67 294.55 L 162.31 294.42 L 161.96 294.29 L 161.62 294.16 L 161.28 294.04 L 160.95 293.92 L 160.62 293.80 L 160.29 293.69 L 159.98 293.58 L 159.66 293.47 L 159.35 293.37 L 159.05 293.27 L 158.75 293.17 L 158.46 293.07 L 158.17 292.98 L 157.88 292.89 L 157.60 292.80 L 157.33 292.72 L 157.06 292.63 L 156.79 292.55 L 156.53 292.48 L 156.27 292.40 L 156.02 292.33 L 155.77 292.26 L 155.53 292.19 L 155.29 292.13 L 155.05 292.06 L 154.82 292.00 L 154.59 291.94 L 154.37 291.88 L 154.15 291.83 L 153.94 291.78 L 153.73 291.73 L 153.52 291.68 L 153.32 291.63 L 153.12 291.59 L 152.93 291.54 L 152.74 291.50 L 152.55 291.46 L 152.37 291.43 L 152.20 291.39 L 152.03 291.36 L 151.86 291.33 L 151.70 291.30 L 151.54 291.27 L 151.38 291.24 L 151.22 291.21 L 151.07 291.19 L 150.92 291.17 L 150.78 291.14 L 150.63 291.12 L 150.50 291.10 L 150.36 291.09 L 150.23 291.07 L 150.10 291.05 L 149.99 291.04 L 149.92 291.02 L 149.85 291.01 L 149.79 290.99 L 147.41 290.91 L 150.91 290.96 L 149.71 290.96 L 149.70 290.95 L 149.70 290.94 L 149.69 290.94 L 149.69 290.93 L 149.68 290.93 L 148.29 290.91 L 148.63 290.91 L 149.67 290.92 L 149.68 290.92 L 149.67 290.92 L 149.66 290.92 L 149.65 290.93 L 149.64 290.93 L 149.64 290.93 L 149.63 290.93 L 149.63 290.94 L 149.62 290.94 L 149.59 290.94 L 149.51 290.94 L 149.42 290.94 L 149.35 290.94 L 149.27 290.94 L 149.14 290.94 L 149.00 290.94 L 148.86 290.94 L 148.72 290.94 L 148.60 290.94 L 148.47 290.94 L 148.35 290.94 L 148.24 290.94 L 148.13 290.94 L 148.03 290.94 L 147.93 290.94 L 147.84 290.94 L 147.75 290.94 L 147.67 290.94 L 147.59 290.94 L 147.52 290.94 L 147.44 290.94 L 147.38 290.94 L 147.31 290.94 L 147.25 290.94 L 147.20 290.94 L 147.16 290.94 L 147.11 290.94 L 147.07 290.94 L 147.03 290.94 L 147.00 290.94 L 146.97 290.94 L 146.80 290.89 L 146.87 290.68 L 146.70 290.92 L 146.87 290.93 L 146.85 290.93 L 146.83 290.92 L 146.81 290.92 L 146.79 290.91 L 146.77 290.91 L 146.75 290.90 L 146.74 290.89 L 146.72 290.88 L 146.71 290.87 L 146.70 290.86 L 146.69 290.85 L 146.67 290.84 L 146.66 290.82 L 146.66 290.81 L 146.65 290.79 L 146.64 290.78 L 146.63 290.76 L 146.63 290.74 L 146.62 290.72 L 146.62 290.69 L 146.62 290.67 L 146.61 290.65 L 146.61 290.62 L 146.61 290.59 L 146.61 290.56 L 146.64 290.64 L 146.84 290.97 L 146.61 290.47 L 146.61 290.43 L 146.61 290.39 L 146.61 290.36 L 146.61 290.32 L 146.61 290.27 L 146.61 290.23 L 146.61 290.18 L 146.62 290.13 L 146.62 290.08 L 146.62 289.86 L 146.63 289.14 L 146.62 289.92 L 146.62 289.86 L 146.63 289.30 L 146.63 288.65 L 146.63 289.65 L 146.63 289.57 L 146.62 289.02 L 146.63 289.27 L 146.63 289.30 L 146.63 289.19 L 146.63 289.08 L 146.63 288.96 L 146.63 288.84 L 146.63 289.43 L 146.70 290.98 L 146.63 288.44 L 146.63 288.30 L 146.63 288.15 L 146.63 288.00 L 146.62 287.84 L 146.62 287.68 L 146.62 287.52 L 146.64 285.21 L 146.71 291.00 L 146.62 287.67 L 146.62 286.91 L 146.63 286.76 L 146.63 286.60 L 146.63 286.48 L 146.63 286.37 L 146.63 286.26 L 146.63 286.14 L 146.63 286.02 L 146.63 285.90 L 146.63 285.78 L 146.63 286.18 L 146.71 290.99 L 146.62 285.41 L 146.61 285.29 L 146.61 285.16 L 146.60 285.03 L 146.59 284.89 L 146.59 284.76 L 146.66 290.34 L 146.66 290.86 L 146.66 291.07 L 146.66 290.45 L 146.66 289.72 L 146.51 284.80 L 146.49 284.95 L 146.47 285.09 L 146.45 285.24 L 146.43 285.38 L 146.41 285.51 L 146.68 290.29 L 146.66 289.30 L 146.33 285.91 L 146.29 286.32 L 146.68 291.08 L 146.23 286.29 L 146.20 286.40 L 146.16 286.52 L 146.12 286.63 L 146.09 286.76 L 146.07 286.91 L 146.06 287.05 L 146.04 287.19 L 146.03 287.33 L 146.03 287.48 L 146.05 287.65 L 146.06 287.81 L 146.07 287.96 L 146.09 288.12 L 146.10 288.26 L 146.11 288.41 L 146.45 289.55 L 146.69 290.95 L 146.15 288.81 L 146.39 288.62 L 146.48 288.51 L 146.50 288.48 L 146.48 288.78 L 146.55 288.77 L 146.22 289.47 L 146.21 289.56 L 146.20 289.64 L 146.19 289.72 L 146.18 289.80 L 146.15 289.87 L 146.12 289.93 L 146.08 289.99 L 146.05 290.05 L 145.94 289.77 L 145.89 289.29 L 145.93 290.21 L 145.88 290.25 L 145.79 290.22 L 146.71 290.98 L 145.74 290.39 L 145.69 290.43 L 145.64 290.46 L 146.50 290.84 L 146.07 290.50 L 145.48 290.57 L 145.42 290.60 L 145.36 290.62 L 145.30 290.65 L 145.23 290.68 L 145.16 290.70 L 145.09 290.73 L 145.02 290.75 L 144.95 290.77 L 144.87 290.79 L 144.79 290.80 L 144.71 290.82 L 144.63 290.84 L 144.54 290.85 L 144.46 290.86 L 144.37 290.87 L 144.27 290.89 L 144.18 290.89 L 144.08 290.90 L 143.98 290.91 L 143.87 290.92 L 144.47 290.89 L 145.32 290.78 L 143.54 290.93 L 143.43 290.94 L 143.32 290.94 L 143.22 290.94 L 143.13 290.94 L 143.01 290.94 L 142.86 290.94 L 142.63 290.94 L 142.19 290.94 L 143.88 290.86 L 144.42 290.76 L 144.78 290.82 L 141.45 290.94 L 141.47 290.94 L 144.16 290.94 L 145.22 290.93 L 141.33 290.93 L 141.18 290.93 L 141.02 290.93 L 140.85 290.93 L 140.67 290.93 L 140.50 290.93 L 140.32 290.92 L 140.13 290.92 L 139.93 290.92 L 139.70 290.92 L 139.45 290.92 L 139.21 290.92 L 138.96 290.92 L 138.67 290.92 L 138.35 290.92 L 138.03 290.92 L 137.70 290.92 L 137.36 290.92 L 141.75 290.91 L 141.90 290.91 L 138.01 290.92 L 135.91 290.92 L 135.52 290.92 L 135.13 290.92 L 134.73 290.92 L 134.32 290.92 L 133.90 290.92 L 133.48 290.92 L 133.09 290.92 L 132.78 290.92 L 132.47 290.92 L 132.13 290.92 L 131.80 290.92 L 132.17 290.92 L 146.80 290.92 L 131.13 290.92 L 128.58 290.91 L 145.34 290.91 L 130.47 290.93 L 139.28 290.90 L 130.46 290.93 L 129.79 290.95 L 129.56 290.96 L 129.33 290.97 L 129.10 290.99 L 128.87 291.00 L 128.64 291.01 L 128.41 291.03 L 128.27 291.05 L 128.32 291.07 L 128.41 291.08 L 128.47 291.11 L 130.66 291.04 L 137.19 290.89 L 129.21 291.17 L 129.58 291.20 L 129.94 291.22 L 130.31 291.25 L 137.08 290.93 L 134.65 291.06 L 131.38 291.32 L 136.40 291.00 L 136.12 291.07 L 137.50 291.01 L 132.69 291.49 L 133.01 291.53 L 133.33 291.57 L 136.51 291.25 L 139.26 291.03 L 134.30 291.66 L 134.64 291.67 L 134.96 291.68 L 135.28 291.69 L 135.62 291.67 L 135.96 291.64 L 136.29 291.62 L 136.62 291.59 L 136.94 291.56 L 137.25 291.54 L 137.57 291.52 L 137.87 291.49 L 138.17 291.47 L 138.46 291.44 L 138.74 291.42 L 139.02 291.40 L 139.29 291.38 L 139.55 291.36 L 139.81 291.34 L 140.06 291.32 L 140.30 291.32 L 140.54 291.33 L 140.77 291.33 L 141.00 291.33 L 141.22 291.35 L 146.78 290.88 L 141.61 291.65 L 141.84 291.42 L 142.03 291.44 L 142.22 291.47 L 142.40 291.50 L 142.58 291.53 L 142.76 291.56 L 142.93 291.59 L 143.09 291.62 L 143.25 291.65 L 143.40 291.68 L 146.50 291.14 L 146.35 291.22 L 143.83 291.79 L 143.97 291.83 L 144.11 291.86 L 144.24 291.90 L 144.36 291.94 L 144.48 291.99 L 144.60 292.03 L 144.71 292.07 L 144.82 292.12 L 144.92 292.16 L 145.02 292.21 L 145.11 292.26 L 145.20 292.31 L 146.21 291.21 L 145.77 291.96 L 146.54 291.09 L 146.59 291.06 L 145.60 292.57 L 145.67 292.63 L 145.74 292.69 L 145.80 292.75 L 145.86 292.80 L 145.92 292.87 L 145.97 292.93 L 146.03 292.99 L 146.08 293.05 L 146.12 293.12 L 146.31 291.55 L 146.35 291.31 L 146.25 293.32 L 146.28 293.39 L 146.32 293.46 L 146.35 293.53 L 146.38 293.60 L 146.41 293.68 L 146.43 293.76 L 146.46 293.84 L 146.48 293.92 L 146.50 294.00 L 146.52 294.08 L 146.72 291.09 L 146.55 294.47 L 146.56 294.34 L 146.57 294.43 L 146.58 294.52 L 146.59 294.61 L 146.60 294.70 L 146.61 294.79 L 146.61 294.89 L 146.62 294.98 L 146.62 295.08 L 146.62 295.18 L 146.63 295.28 L 146.63 295.38 L 146.63 295.49 L 146.63 295.59 L 146.63 295.70 L 146.63 295.82 L 146.63 295.93 L 146.62 296.05 L 146.62 296.16 L 146.62 296.28 L 146.62 296.40 L 146.62 296.53 L 146.61 296.65 L 146.61 296.78 L 146.61 296.90 L 146.61 297.03 L 146.61 297.17 L 146.61 297.30 L 146.61 295.00 L 146.62 292.38 L 146.61 297.71 L 146.61 297.86 L 146.61 298.00 L 146.62 298.14 L 146.64 297.01 L 146.59 303.37 L 146.63 298.59 L 146.64 298.74 L 146.65 298.90 L 146.66 299.06 L 146.67 299.22 L 146.68 299.38 L 146.70 299.54 L 146.71 299.71 L 146.73 299.87 L 146.75 300.04 L 146.77 300.22 L 146.79 300.39 L 146.82 300.57 L 146.84 300.74 L 146.87 300.93 L 146.90 301.11 L 146.94 301.29 L 146.97 301.48 L 147.01 301.67 L 147.05 301.86 L 147.09 302.05 L 147.14 302.25 L 147.19 302.45 L 147.24 302.65 L 147.29 302.85 L 147.35 303.06 L 147.41 303.27 L 147.47 303.48 L 147.54 303.69 L 147.61 303.90 L 147.68 304.12 L 147.75 304.34 L 147.83 304.56 L 147.92 304.78 L 148.00 305.01 L 148.09 305.24 L 148.18 305.47 L 148.28 305.71 L 148.38 305.94 L 148.49 306.18 L 148.59 306.42 L 148.71 306.67 L 148.82 306.91 L 148.95 307.16 L 149.07 307.41 L 149.20 307.67 L 149.33 307.93 L 149.47 308.18 L 149.62 308.45 L 149.76 308.71 L 149.92 308.98 L 150.07 309.25 L 150.23 309.52 L 150.40 309.80 L 150.57 310.08 L 150.75 310.36 L 150.93 310.64 L 151.12 310.93 L 151.31 311.21 L 151.51 311.51 L 151.71 311.80 L 151.92 312.10 L 152.14 312.40 L 152.36 312.70 L 152.58 313.01 L 152.81 313.32 L 153.05 313.63 L 153.29 313.94 L 153.54 314.26 L 153.80 314.58 L 154.06 314.90 L 154.33 315.23 L 154.60 315.56 L 154.88 315.89 L 155.17 316.22 L 155.46 316.56 L 155.76 316.90 L 156.07 317.24 L 156.38 317.59 L 156.70 317.94 L 157.03 318.29 L 157.36 318.65 L 157.70 319.01 L 158.05 319.37 L 158.40 319.73 L 158.77 320.10 L 159.14 320.47 L 159.51 320.85 L 159.90 321.22 L 160.29 321.61 L 160.69 321.99 L 161.10 322.38 L 161.51 322.77 L 161.93 323.16 L 162.36 323.56 L 162.80 323.96 L 163.25 324.36 L 163.70 324.76 L 164.17 325.17 L 164.64 325.59 L 165.12 326.00 L 165.60 326.42 L 166.10 326.84 L 166.60 327.27 L 167.12 327.70 L 167.64 328.13 L 168.17 328.57 L 168.71 329.01 L 169.26 329.45 L 169.82 329.90 L 170.38 330.35 L 170.96 330.80 L 171.54 331.26 L 172.14 331.72 L 172.74 332.18 L 173.35 332.65 L 173.98 333.12 L 174.61 333.59 L 175.25 334.07 L 175.90 334.55 L 176.56 335.04 L 177.23 335.52 L 177.91 336.02 L 178.60 336.51 L 179.30 337.01 L 180.02 337.51 L 180.74 338.02 L 181.47 338.53 L 182.21 339.04 L 182.96 339.56 L 183.72 340.08 L 184.50 340.61 L 185.28 341.13 L 186.08 341.67 L 186.88 342.20 L 187.70 342.74 L 188.52 343.29 L 189.36 343.83 L 190.21 344.38 L 191.07 344.94 L 191.94 345.50 L 192.83 346.06 L 193.72 346.63 L 194.62 347.20 L 195.54 347.77 L 196.47 348.35 L 197.41 348.93 L 198.36 349.51 L 199.33 350.10 L 200.30 350.70 L 201.29 351.29 L 202.29 351.90 L 203.30 352.50 L 204.32 353.11 L 205.36 353.72 L 206.40 354.34 L 207.44 354.97 L 208.49 355.60 L 209.55 356.23 L 210.62 356.87 L 211.71 357.52 L 212.80 358.17 L 213.91 358.83 L 215.04 359.49 L 216.18 360.16 L 217.34 360.83 L 218.51 361.50 L 219.70 362.18 L 220.90 362.87 L 222.11 363.56 L 223.35 364.25 L 224.59 364.95 L 225.86 365.65 L 227.14 366.36 L 228.43 367.08 L 229.74 367.79 L 231.07 368.52 L 232.41 369.24 L 233.77 369.97 L 235.14 370.71 L 236.54 371.44 L 237.96 372.15 L 215.24 348.16 L 170.00 304.54 L 242.28 374.39 L 243.69 375.24 L 245.18 375.99 L 246.70 376.72 L 248.22 377.47 L 249.75 378.24 L 251.29 379.01 L 252.85 379.78 L 254.43 380.56 L 256.02 381.34 L 257.62 382.12 L 259.24 382.90 L 260.87 383.69 L 262.52 384.48 L 264.18 385.27 L 265.86 386.06 L 267.55 386.86 L 269.25 387.66 L 270.97 388.46 L 272.69 389.27 L 274.44 390.07 L 276.20 390.88 L 277.97 391.69 L 279.75 392.51 L 281.54 393.32 L 283.35 394.14 L 285.18 394.96 L 287.02 395.78 L 288.87 396.62 L 290.75 397.48 L 292.64 398.34 L 294.56 399.22 L 296.50 400.11 L 298.45 401.00 L 300.42 401.89 L 302.41 402.79 L 304.41 403.70 L 306.43 404.61 L 308.47 405.53 L 310.52 406.45 L 312.58 407.37 L 314.65 408.29 L 316.72 409.21 L 318.80 410.13 L 320.88 411.05 L 322.97 411.97 L 325.09 412.90 L 327.23 413.84 L 329.39 414.78 L 331.57 415.73 L 333.78 416.68 L 336.00 417.65 L 338.25 418.62 L 340.52 419.60 L 342.81 420.58 L 345.13 421.57 L 347.46 422.56 L 349.78 423.57 L 351.88 424.65 L 224.17 342.16 Z" />
</symbol>
<symbol id="bl3">
<path d="M 234.59 339.45 L 235.44 340.21 L 236.21 341.01 L 236.67 341.98 L 237.00 343.04 L 237.32 344.12 L 237.64 345.21 L 237.96 346.32 L 238.29 347.45 L 238.65 348.59 L 162.17 295.81 L 234.68 348.33 L 239.65 352.11 L 239.87 353.33 L 240.22 354.55 L 240.59 355.78 L 240.94 357.03 L 241.28 358.29 L 241.62 359.57 L 241.97 360.86 L 242.32 362.17 L 242.69 363.46 L 171.06 302.55 L 218.38 343.04 L 245.27 365.72 L 246.21 366.34 L 247.23 366.87 L 248.71 366.88 L 250.39 366.70 L 252.10 366.49 L 253.84 366.28 L 255.61 366.07 L 257.39 365.84 L 259.19 365.61 L 197.24 317.27 L 199.84 319.23 L 264.73 364.99 L 266.64 364.91 L 268.52 364.63 L 270.43 364.35 L 272.36 364.11 L 274.32 363.89 L 276.29 363.67 L 278.28 363.45 L 280.29 363.22 L 282.27 362.98 L 283.99 362.60 L 284.98 361.83 L 285.83 361.01 L 286.84 360.29 L 287.71 359.52 L 287.82 358.38 L 287.65 357.12 L 287.44 355.85 L 287.22 354.60 L 287.00 353.36 L 286.77 352.14 L 286.52 350.93 L 182.11 300.96 L 247.10 328.81 L 285.89 347.39 L 285.88 346.24 L 285.56 345.12 L 285.23 344.01 L 284.97 342.92 L 284.73 341.84 L 284.50 340.77 L 284.26 339.72 L 284.02 338.69 L 283.75 337.69 L 283.25 336.84 L 282.12 336.35 L 280.90 335.91 L 270.38 330.61 L 169.30 294.89 L 276.94 334.88 L 274.97 334.92 L 273.00 334.96 L 271.03 335.02 L 269.09 335.07 L 267.17 335.12 L 265.26 335.17 L 263.37 335.20 L 261.50 335.22 L 259.65 335.30 L 257.82 335.33 L 256.02 335.43 L 254.23 335.51 L 252.47 335.58 L 250.72 335.64 L 249.00 335.70 L 247.29 335.76 L 245.61 335.83 L 243.96 335.88 L 242.38 335.84 L 240.97 335.57 L 239.60 335.24 L 238.19 334.96 L 236.82 334.62 L 235.61 334.05 L 234.47 333.41 L 233.34 332.76 L 232.23 332.12 L 231.12 331.48 L 230.03 330.86 L 228.95 330.24 L 227.88 329.63 L 226.83 329.03 L 225.78 328.43 L 224.75 327.84 L 223.72 327.26 L 222.71 326.69 L 221.71 326.12 L 220.72 325.56 L 219.73 325.00 L 218.74 324.45 L 217.76 323.89 L 216.78 323.34 L 215.80 322.80 L 214.84 322.26 L 213.88 321.73 L 212.93 321.20 L 211.99 320.68 L 211.06 320.16 L 210.14 319.65 L 209.22 319.15 L 208.32 318.65 L 207.42 318.16 L 206.54 317.67 L 205.66 317.19 L 204.79 316.72 L 203.93 316.25 L 203.07 315.78 L 202.23 315.33 L 201.39 314.87 L 200.57 314.43 L 199.75 313.99 L 198.94 313.55 L 198.13 313.12 L 197.34 312.70 L 196.55 312.28 L 195.78 311.87 L 195.01 311.46 L 194.24 311.06 L 193.49 310.66 L 192.74 310.27 L 192.01 309.88 L 191.28 309.50 L 190.55 309.12 L 189.84 308.75 L 189.13 308.38 L 188.43 308.02 L 187.74 307.66 L 187.06 307.31 L 186.38 306.97 L 185.72 306.62 L 185.05 306.29 L 184.40 305.96 L 183.76 305.63 L 183.12 305.31 L 182.49 304.99 L 181.86 304.68 L 181.24 304.37 L 180.64 304.06 L 180.03 303.76 L 179.44 303.47 L 178.85 303.18 L 178.27 302.89 L 177.69 302.61 L 177.13 302.34 L 176.57 302.06 L 176.01 301.80 L 175.47 301.53 L 174.93 301.27 L 174.40 301.02 L 173.87 300.77 L 173.35 300.52 L 172.84 300.28 L 172.33 300.04 L 171.83 299.80 L 171.34 299.57 L 170.85 299.35 L 170.37 299.12 L 169.90 298.91 L 169.43 298.69 L 168.97 298.48 L 168.51 298.27 L 168.06 298.07 L 167.62 297.87 L 167.18 297.67 L 166.75 297.48 L 166.33 297.29 L 165.91 297.11 L 165.50 296.93 L 165.09 296.75 L 164.69 296.58 L 164.29 296.41 L 163.90 296.24 L 163.52 296.07 L 163.14 295.91 L 162.77 295.76 L 162.40 295.60 L 162.04 295.45 L 161.69 295.31 L 161.34 295.16 L 160.99 295.02 L 160.65 294.88 L 160.32 294.75 L 159.99 294.62 L 159.67 294.49 L 159.35 294.36 L 159.04 294.24 L 158.73 294.12 L 158.43 294.00 L 158.13 293.89 L 157.83 293.78 L 157.55 293.67 L 157.26 293.56 L 156.99 293.46 L 156.71 293.36 L 156.45 293.26 L 156.18 293.17 L 155.92 293.07 L 155.67 292.98 L 155.42 292.90 L 155.17 292.81 L 154.93 292.73 L 154.70 292.65 L 154.47 292.57 L 154.24 292.50 L 154.02 292.42 L 153.80 292.35 L 153.59 292.28 L 153.38 292.22 L 153.17 292.15 L 152.97 292.09 L 152.77 292.03 L 152.58 291.97 L 152.39 291.92 L 152.21 291.86 L 152.02 291.81 L 151.85 291.76 L 151.68 291.71 L 151.51 291.67 L 151.34 291.62 L 151.19 291.58 L 151.03 291.54 L 150.88 291.50 L 150.73 291.47 L 150.59 291.43 L 150.44 291.40 L 150.31 291.36 L 150.17 291.33 L 150.04 291.30 L 149.91 291.28 L 149.78 291.25 L 149.66 291.22 L 149.54 291.20 L 149.42 291.18 L 149.30 291.15 L 149.19 291.13 L 149.08 291.11 L 148.98 291.10 L 148.87 291.08 L 148.77 291.06 L 148.68 291.05 L 148.58 291.03 L 148.49 291.02 L 148.40 291.01 L 148.31 291.00 L 148.23 290.99 L 148.15 290.98 L 148.07 290.97 L 148.00 290.96 L 147.92 290.95 L 147.85 290.95 L 147.79 290.94 L 147.72 290.94 L 147.37 290.91 L 147.20 290.91 L 147.54 290.93 L 147.49 290.93 L 147.43 290.92 L 147.38 290.92 L 147.33 290.92 L 147.29 290.92 L 147.24 290.92 L 147.20 290.92 L 147.16 290.92 L 147.12 290.92 L 147.08 290.93 L 147.05 290.93 L 147.01 290.93 L 146.98 290.93 L 146.56 290.93 L 147.46 290.90 L 146.89 290.94 L 146.87 290.94 L 146.84 290.94 L 146.82 290.94 L 146.80 290.94 L 146.78 290.94 L 146.94 290.95 L 146.91 290.95 L 146.61 290.87 L 146.61 290.95 L 146.87 290.83 L 146.61 290.87 L 146.63 290.84 L 146.67 290.94 L 146.66 290.94 L 146.65 290.94 L 146.64 290.93 L 146.64 290.93 L 146.63 290.93 L 146.63 290.92 L 146.63 290.91 L 146.63 290.91 L 146.63 290.90 L 146.63 290.88 L 146.63 290.87 L 146.58 290.98 L 146.65 290.85 L 146.64 290.82 L 146.64 290.80 L 146.64 290.78 L 146.65 290.76 L 146.65 290.73 L 146.65 290.70 L 146.65 290.67 L 146.65 290.64 L 146.65 290.61 L 146.65 290.57 L 146.65 290.54 L 146.64 290.49 L 146.64 290.45 L 146.63 290.41 L 146.61 290.76 L 146.60 290.92 L 146.62 290.25 L 146.62 290.20 L 146.62 290.14 L 146.61 290.08 L 146.61 290.04 L 146.61 290.00 L 146.61 289.96 L 146.61 289.91 L 146.61 289.88 L 146.61 289.86 L 146.60 291.03 L 146.61 291.03 L 146.61 290.44 L 146.61 291.02 L 146.61 289.29 L 146.62 289.73 L 146.62 289.71 L 146.62 289.70 L 146.62 289.71 L 146.62 289.73 L 146.63 289.74 L 146.63 289.75 L 146.63 289.79 L 146.63 289.83 L 146.63 289.88 L 146.63 289.92 L 146.63 289.96 L 146.62 290.00 L 146.62 290.04 L 146.62 290.09 L 146.61 290.13 L 146.61 290.16 L 146.61 289.95 L 146.61 289.58 L 146.59 290.16 L 146.58 290.16 L 146.57 290.13 L 146.56 290.09 L 146.54 290.05 L 146.53 290.01 L 146.51 289.96 L 146.49 289.92 L 146.47 289.87 L 146.45 289.82 L 146.43 289.77 L 146.70 291.01 L 146.46 289.98 L 146.35 289.62 L 146.32 289.57 L 146.29 289.51 L 146.25 289.45 L 146.22 289.39 L 146.18 289.33 L 146.50 288.67 L 146.25 288.77 L 146.39 288.71 L 146.06 288.92 L 146.46 288.08 L 146.20 288.07 L 145.82 288.84 L 145.76 288.77 L 145.70 288.69 L 145.63 288.62 L 145.56 288.54 L 145.49 288.46 L 146.70 291.03 L 145.84 289.78 L 145.25 288.20 L 145.17 288.12 L 145.08 288.03 L 144.99 287.94 L 144.89 287.84 L 144.79 287.75 L 144.69 287.66 L 144.59 287.56 L 144.48 287.46 L 144.37 287.36 L 144.26 287.26 L 144.14 287.16 L 144.02 287.06 L 143.89 286.95 L 143.76 286.85 L 143.62 286.74 L 143.48 286.63 L 143.34 286.52 L 143.19 286.40 L 143.72 286.06 L 145.07 285.87 L 142.72 286.05 L 142.55 285.92 L 142.38 285.80 L 142.20 285.67 L 142.02 285.53 L 141.83 285.40 L 141.64 285.26 L 141.45 285.12 L 141.24 284.98 L 141.04 284.83 L 140.82 284.69 L 140.61 284.54 L 140.38 284.39 L 140.16 284.23 L 139.92 284.08 L 139.68 283.92 L 139.44 283.76 L 139.19 283.60 L 138.93 283.43 L 138.67 283.26 L 138.40 283.09 L 138.13 282.92 L 137.85 282.74 L 137.56 282.56 L 137.27 282.38 L 136.97 282.20 L 136.67 282.02 L 136.36 281.83 L 136.04 281.64 L 135.72 281.44 L 135.39 281.25 L 135.05 281.05 L 134.71 280.85 L 134.36 280.64 L 134.00 280.44 L 133.64 280.23 L 133.27 280.01 L 132.89 279.80 L 132.51 279.58 L 132.12 279.36 L 131.72 279.14 L 131.32 278.91 L 130.90 278.68 L 130.48 278.45 L 130.06 278.21 L 129.62 277.97 L 129.18 277.73 L 128.73 277.49 L 128.28 277.24 L 127.81 276.99 L 127.34 276.74 L 126.86 276.48 L 126.37 276.23 L 125.87 275.96 L 125.37 275.70 L 124.86 275.43 L 124.34 275.16 L 123.81 274.88 L 123.27 274.61 L 122.73 274.33 L 122.19 274.05 L 121.64 273.77 L 121.09 273.49 L 120.53 273.20 L 119.95 272.92 L 119.37 272.62 L 118.78 272.33 L 118.18 272.03 L 117.58 271.72 L 116.95 271.42 L 116.33 271.11 L 115.69 270.79 L 115.04 270.47 L 114.38 270.15 L 113.71 269.82 L 113.04 269.48 L 112.42 269.11 L 111.98 268.63 L 111.58 268.12 L 111.15 267.65 L 110.75 267.15 L 110.54 266.53 L 110.40 265.87 L 110.26 265.19 L 110.13 264.49 L 109.99 263.78 L 109.85 263.06 L 109.71 262.32 L 146.75 290.51 L 146.11 289.49 L 128.68 273.80 L 109.19 259.25 L 109.03 258.45 L 108.87 257.64 L 108.72 256.82 L 108.57 255.98 L 108.43 255.12 L 108.28 254.26 L 108.11 253.40 L 107.85 252.65 L 107.33 252.20 L 106.76 251.81 L 106.25 251.35 L 105.69 250.95 L 104.86 250.86 L 103.91 250.89 L 102.92 250.95 L 101.93 251.00 L 100.91 251.06 L 99.88 251.11 L 98.84 251.17 L 146.76 290.46 L 146.01 289.34 L 118.52 266.50 L 94.49 251.36 L 93.37 251.44 L 92.23 251.52 L 91.07 251.59 L 89.90 251.65 L 88.72 251.72 L 87.52 251.78 L 86.33 251.86 L 85.27 252.05 L 119.50 271.20 L 136.97 281.75 L 83.30 253.48 L 82.67 253.97 L 82.44 254.73 L 82.37 255.58 L 82.32 256.43 L 82.28 257.27 L 82.23 258.10 L 82.19 258.92 L 82.14 259.72 L 82.09 260.51 L 82.00 261.28 L 82.00 262.04 L 81.92 262.79 L 81.91 263.53 L 81.89 264.25 L 81.86 264.96 L 81.83 265.66 L 81.79 266.34 L 81.76 267.01 L 81.76 267.66 L 81.91 268.22 L 82.50 268.59 L 83.16 268.92 L 83.72 269.30 L 84.36 269.64 L 85.41 269.80 L 86.60 269.89 L 87.81 269.97 L 89.00 270.05 L 90.17 270.13 L 91.34 270.20 L 92.48 270.28 L 93.61 270.37 L 94.72 270.46 L 95.83 270.52 L 96.90 270.62 L 97.98 270.68 L 99.03 270.74 L 100.07 270.81 L 101.09 270.88 L 102.09 270.95 L 103.08 271.03 L 104.05 271.10 L 104.95 271.23 L 105.69 271.48 L 106.40 271.76 L 107.15 272.01 L 107.86 272.29 L 108.44 272.69 L 108.96 273.13 L 109.46 273.57 L 109.96 273.99 L 110.45 274.41 L 110.94 274.83 L 111.43 275.23 L 111.90 275.63 L 112.38 276.02 L 112.84 276.40 L 113.31 276.78 L 113.76 277.14 L 114.21 277.51 L 114.66 277.86 L 115.11 278.21 L 115.55 278.55 L 115.99 278.89 L 116.42 279.22 L 116.86 279.56 L 117.30 279.88 L 117.73 280.20 L 118.15 280.51 L 118.57 280.82 L 118.99 281.12 L 119.41 281.42 L 119.81 281.71 L 120.22 281.99 L 120.62 282.27 L 121.02 282.54 L 121.41 282.81 L 121.80 283.07 L 122.19 283.32 L 122.57 283.57 L 122.94 283.82 L 123.32 284.06 L 123.69 284.29 L 124.05 284.52 L 124.41 284.74 L 124.77 284.96 L 125.12 285.17 L 125.47 285.38 L 125.82 285.58 L 126.16 285.78 L 126.50 285.97 L 126.84 286.16 L 127.17 286.34 L 127.49 286.52 L 127.82 286.69 L 128.13 286.86 L 128.44 287.02 L 128.74 287.18 L 129.04 287.33 L 129.34 287.48 L 129.63 287.62 L 129.93 287.76 L 130.21 287.90 L 130.50 288.03 L 130.78 288.16 L 131.06 288.29 L 131.34 288.41 L 131.61 288.53 L 131.88 288.64 L 132.15 288.76 L 132.42 288.86 L 132.68 288.97 L 132.94 289.07 L 133.20 289.17 L 133.46 289.26 L 133.71 289.36 L 133.96 289.45 L 134.21 289.53 L 134.45 289.61 L 146.56 291.01 L 139.93 290.61 L 135.17 289.84 L 135.40 289.91 L 135.63 289.98 L 135.83 290.04 L 135.95 290.10 L 135.95 290.15 L 143.04 289.59 L 142.08 289.67 L 141.05 289.98 L 140.29 290.17 L 141.07 290.19 L 142.78 290.05 L 138.37 290.55 L 142.93 290.13 L 138.09 290.61 L 138.31 290.62 L 138.50 290.64 L 138.68 290.67 L 138.86 290.70 L 139.04 290.73 L 139.21 290.75 L 139.38 290.77 L 139.55 290.79 L 139.72 290.81 L 139.88 290.83 L 140.00 290.85 L 140.04 290.86 L 140.05 290.87 L 140.06 290.89 L 140.05 290.90 L 139.96 290.91 L 139.83 290.91 L 139.69 290.92 L 142.13 290.83 L 143.06 290.77 L 141.34 290.86 L 139.10 290.94 L 138.96 290.94 L 138.81 290.94 L 138.67 290.94 L 138.55 290.94 L 138.53 290.94 L 138.52 290.94 L 138.49 290.94 L 138.48 290.94 L 138.55 290.94 L 138.66 290.94 L 138.78 290.94 L 146.77 290.93 L 140.97 290.93 L 139.10 290.93 L 139.20 290.93 L 139.32 290.93 L 145.02 290.92 L 146.03 290.92 L 139.68 290.92 L 139.86 290.92 L 141.65 290.92 L 143.49 290.91 L 140.40 290.92 L 140.63 290.92 L 140.87 290.93 L 141.10 290.93 L 144.53 290.91 L 141.91 290.92 L 141.76 290.93 L 141.97 290.93 L 142.19 290.93 L 142.39 290.93 L 142.59 290.93 L 142.77 290.93 L 142.94 290.93 L 143.11 290.93 L 143.27 290.93 L 143.42 290.93 L 143.57 290.93 L 143.71 290.93 L 143.84 290.93 L 145.66 290.89 L 146.74 290.91 L 146.19 290.94 L 144.33 290.92 L 144.44 290.92 L 144.55 290.92 L 144.66 290.92 L 144.76 290.92 L 144.86 290.92 L 144.96 290.92 L 145.06 290.92 L 145.95 290.93 L 146.72 290.93 L 145.31 290.92 L 145.39 290.92 L 145.47 290.92 L 146.71 290.92 L 146.70 290.92 L 146.66 290.92 L 145.74 290.93 L 145.80 290.93 L 145.86 290.93 L 145.91 290.93 L 145.97 290.93 L 146.02 290.94 L 146.06 290.94 L 146.11 290.94 L 146.15 290.95 L 146.19 290.95 L 146.28 290.95 L 146.56 290.90 L 146.68 290.90 L 146.42 290.98 L 146.36 290.98 L 146.39 290.99 L 146.42 291.00 L 146.44 291.01 L 146.46 291.02 L 146.48 291.03 L 146.50 291.04 L 146.52 291.05 L 146.54 291.06 L 146.55 291.07 L 146.56 291.08 L 146.58 291.08 L 146.59 291.09 L 146.64 290.92 L 146.61 290.88 L 146.62 290.94 L 146.62 291.15 L 146.62 290.89 L 146.62 290.90 L 146.62 291.24 L 146.63 291.26 L 146.63 291.29 L 146.63 291.31 L 146.64 291.08 L 146.73 290.94 L 146.63 291.28 L 146.63 291.41 L 146.62 291.44 L 146.62 291.47 L 146.62 291.50 L 146.62 291.53 L 146.62 291.56 L 146.61 291.59 L 146.61 291.63 L 146.61 291.66 L 146.61 291.69 L 146.61 291.73 L 146.61 291.77 L 146.61 291.80 L 146.61 291.84 L 146.61 291.88 L 146.61 291.92 L 146.61 291.96 L 146.61 292.01 L 146.62 292.05 L 146.62 292.09 L 146.63 292.14 L 146.63 292.19 L 146.64 292.23 L 146.65 292.28 L 146.66 292.34 L 146.67 292.39 L 146.68 292.45 L 146.73 290.99 L 146.68 292.23 L 146.73 292.62 L 146.75 292.68 L 146.77 292.74 L 146.79 292.81 L 146.82 292.87 L 146.84 292.94 L 146.87 293.00 L 146.90 293.07 L 146.93 293.14 L 146.97 293.22 L 147.00 293.29 L 147.04 293.37 L 147.08 293.44 L 147.13 293.52 L 147.17 293.60 L 147.22 293.68 L 147.27 293.77 L 147.33 293.85 L 147.38 293.94 L 147.44 294.03 L 147.51 294.12 L 147.57 294.21 L 147.64 294.30 L 147.71 294.40 L 147.79 294.50 L 147.87 294.59 L 147.95 294.69 L 148.03 294.80 L 148.12 294.90 L 148.21 295.01 L 148.31 295.11 L 148.41 295.22 L 148.51 295.34 L 148.62 295.45 L 148.73 295.57 L 148.84 295.68 L 148.96 295.80 L 149.08 295.92 L 149.21 296.05 L 149.34 296.17 L 149.47 296.30 L 149.61 296.43 L 149.76 296.56 L 149.91 296.69 L 150.06 296.83 L 150.22 296.97 L 150.38 297.10 L 150.54 297.25 L 150.72 297.39 L 150.89 297.54 L 151.07 297.68 L 151.26 297.83 L 151.45 297.99 L 151.65 298.14 L 151.85 298.30 L 152.06 298.46 L 152.27 298.62 L 152.49 298.78 L 152.71 298.95 L 152.94 299.12 L 153.17 299.29 L 153.41 299.46 L 153.66 299.64 L 153.91 299.81 L 154.17 299.99 L 154.43 300.18 L 154.70 300.36 L 154.97 300.55 L 155.25 300.74 L 155.54 300.93 L 155.84 301.13 L 156.14 301.32 L 156.44 301.52 L 156.75 301.72 L 157.07 301.93 L 157.40 302.14 L 157.73 302.35 L 158.07 302.56 L 158.42 302.77 L 158.77 302.99 L 159.13 303.21 L 159.50 303.44 L 159.87 303.66 L 160.25 303.89 L 160.64 304.12 L 161.04 304.35 L 161.44 304.59 L 161.85 304.83 L 162.27 305.07 L 162.70 305.32 L 163.13 305.56 L 163.57 305.82 L 164.02 306.07 L 164.47 306.32 L 164.94 306.58 L 165.41 306.85 L 165.89 307.11 L 166.38 307.38 L 166.87 307.65 L 167.38 307.92 L 167.89 308.20 L 168.41 308.48 L 168.94 308.76 L 169.48 309.05 L 170.03 309.33 L 170.58 309.63 L 171.15 309.92 L 171.72 310.22 L 172.30 310.52 L 172.89 310.82 L 173.49 311.13 L 174.10 311.44 L 174.72 311.75 L 175.34 312.07 L 175.98 312.39 L 176.62 312.71 L 177.28 313.04 L 177.94 313.36 L 178.61 313.70 L 179.30 314.03 L 179.99 314.37 L 180.69 314.71 L 181.40 315.06 L 182.12 315.41 L 182.86 315.76 L 183.60 316.11 L 184.35 316.47 L 185.11 316.84 L 185.88 317.20 L 186.66 317.57 L 187.45 317.94 L 188.26 318.32 L 189.07 318.70 L 189.89 319.08 L 190.73 319.47 L 191.57 319.86 L 192.43 320.25 L 193.29 320.65 L 194.17 321.05 L 195.06 321.45 L 195.96 321.86 L 196.87 322.27 L 197.79 322.68 L 198.72 323.10 L 199.66 323.52 L 200.62 323.95 L 201.58 324.38 L 202.56 324.81 L 203.55 325.25 L 204.55 325.69 L 205.56 326.13 L 206.58 326.58 L 207.62 327.03 L 208.67 327.49 L 209.73 327.95 L 210.80 328.41 L 211.87 328.87 L 212.96 329.34 L 214.05 329.81 L 215.14 330.27 L 216.24 330.74 L 217.35 331.22 L 218.47 331.69 L 219.61 332.17 L 220.76 332.66 L 221.93 333.15 L 223.11 333.65 L 224.31 334.15 L 225.52 334.65 L 226.75 335.16 L 227.99 335.68 L 229.24 336.20 L 230.52 336.73 L 231.78 337.27 L 232.95 337.87 L 233.80 338.64 Z" />
</symbol>
<symbol id="bl4">
<path d="M 145.05 290.90 L 145.10 290.88 L 145.15 290.87 L 145.23 290.86 L 145.31 290.85 L 145.38 290.84 L 145.46 290.83 L 145.53 290.82 L 145.60 290.81 L 145.66 290.80 L 146.26 290.30 L 146.26 290.32 L 145.97 290.72 L 145.90 290.74 L 145.95 290.72 L 145.99 290.70 L 146.04 290.68 L 146.08 290.66 L 146.12 290.64 L 146.16 290.62 L 146.20 290.59 L 146.23 290.57 L 146.24 290.54 L 146.25 290.50 L 146.37 290.45 L 146.56 289.86 L 146.50 289.92 L 146.38 290.03 L 146.20 290.28 L 146.17 290.23 L 146.15 290.17 L 146.12 290.11 L 146.09 290.04 L 146.39 289.41 L 146.36 289.40 L 146.14 289.69 L 145.98 289.75 L 146.70 290.98 L 146.65 290.70 L 146.70 290.99 L 146.37 290.25 L 145.80 289.31 L 145.76 289.20 L 145.72 289.10 L 145.68 289.01 L 145.62 288.98 L 145.56 288.95 L 145.77 288.74 L 146.03 288.48 L 145.36 288.93 L 145.28 288.98 L 145.19 289.03 L 145.09 289.08 L 145.00 289.13 L 144.90 289.18 L 144.79 289.23 L 145.00 289.00 L 145.59 288.70 L 144.46 289.37 L 144.34 289.41 L 144.21 289.46 L 144.09 289.51 L 143.95 289.55 L 143.81 289.59 L 143.66 289.64 L 143.51 289.68 L 143.36 289.72 L 143.54 289.66 L 145.12 289.27 L 143.11 289.89 L 143.06 289.94 L 144.01 289.81 L 144.92 289.62 L 143.12 290.13 L 143.18 290.20 L 143.24 290.26 L 143.30 290.31 L 143.37 290.37 L 143.42 290.42 L 143.47 290.47 L 145.58 289.69 L 143.15 290.57 L 143.64 290.60 L 143.71 290.64 L 143.77 290.67 L 143.83 290.70 L 143.89 290.73 L 143.94 290.76 L 144.00 290.78 L 144.05 290.81 L 144.09 290.82 L 144.12 290.84 L 144.17 290.85 L 144.22 290.87 L 144.26 290.88 L 144.28 290.89 L 144.32 290.90 L 144.35 290.91 L 144.39 290.92 L 144.43 290.93 L 145.54 290.95 L 146.68 290.96 L 144.53 290.94 L 145.70 290.83 L 145.20 290.92 L 144.64 290.94 L 144.68 290.94 L 144.71 290.94 L 144.74 290.94 L 144.78 290.94 L 144.81 290.94 L 144.84 290.94 L 144.87 290.94 L 144.91 290.93 L 144.93 290.93 L 144.94 290.93 L 144.91 290.93 L 144.87 290.93 L 145.89 290.91 L 145.27 290.92 L 144.70 290.92 L 144.58 290.92 L 144.46 290.92 L 144.33 290.92 L 144.20 290.92 L 144.06 290.92 L 143.92 290.92 L 143.77 290.92 L 143.62 290.92 L 145.35 290.91 L 146.62 290.92 L 146.76 290.92 L 143.84 290.92 L 143.34 290.92 L 144.87 290.91 L 144.61 290.91 L 144.58 290.91 L 142.00 290.93 L 141.79 290.93 L 141.59 290.93 L 141.43 290.93 L 141.27 290.94 L 141.09 290.94 L 140.91 290.94 L 140.77 290.95 L 140.65 290.96 L 140.52 290.97 L 140.40 290.98 L 146.48 290.93 L 144.80 290.94 L 140.00 291.02 L 139.86 291.03 L 139.74 291.05 L 139.62 291.07 L 139.48 291.10 L 143.19 290.89 L 142.19 290.92 L 142.19 290.93 L 138.94 291.21 L 138.79 291.24 L 138.64 291.28 L 138.49 291.32 L 138.34 291.36 L 138.19 291.40 L 138.04 291.45 L 137.88 291.50 L 137.72 291.55 L 137.57 291.61 L 137.41 291.66 L 137.24 291.72 L 146.07 290.89 L 128.58 291.23 L 136.76 291.92 L 136.59 292.00 L 136.42 292.07 L 136.25 292.15 L 136.08 292.23 L 135.91 292.32 L 135.73 292.41 L 135.55 292.50 L 135.37 292.60 L 135.18 292.70 L 134.99 292.80 L 134.80 292.91 L 134.61 293.02 L 134.42 293.14 L 134.23 293.26 L 134.03 293.38 L 133.83 293.51 L 133.63 293.64 L 133.43 293.78 L 133.22 293.92 L 133.02 294.07 L 132.81 294.22 L 132.60 294.38 L 132.38 294.54 L 132.17 294.71 L 131.95 294.89 L 131.73 295.07 L 131.51 295.25 L 131.28 295.44 L 131.05 295.63 L 130.83 295.84 L 130.59 296.04 L 130.36 296.25 L 130.12 296.47 L 129.89 296.69 L 129.65 296.92 L 129.40 297.16 L 129.16 297.40 L 128.91 297.65 L 128.66 297.90 L 128.41 298.16 L 128.16 298.43 L 127.90 298.70 L 127.64 298.98 L 127.38 299.27 L 127.12 299.56 L 126.85 299.86 L 126.58 300.16 L 126.31 300.47 L 126.04 300.79 L 125.76 301.12 L 125.48 301.45 L 125.20 301.79 L 124.92 302.14 L 124.63 302.50 L 124.35 302.86 L 124.05 303.23 L 123.76 303.61 L 123.47 303.99 L 123.17 304.39 L 122.87 304.79 L 122.56 305.20 L 122.26 305.61 L 121.95 306.04 L 121.64 306.47 L 121.33 306.91 L 121.01 307.36 L 120.69 307.82 L 120.37 308.28 L 120.05 308.75 L 119.72 309.24 L 119.39 309.73 L 119.06 310.23 L 118.72 310.74 L 118.39 311.25 L 118.05 311.78 L 117.70 312.31 L 117.36 312.86 L 117.01 313.41 L 116.66 313.97 L 116.31 314.55 L 115.95 315.13 L 115.59 315.72 L 115.23 316.32 L 114.86 316.93 L 114.50 317.55 L 114.13 318.17 L 113.75 318.81 L 113.38 319.46 L 113.00 320.12 L 112.62 320.79 L 112.23 321.47 L 111.84 322.16 L 111.45 322.86 L 111.06 323.56 L 110.66 324.28 L 110.26 325.01 L 109.86 325.76 L 109.46 326.51 L 109.05 327.27 L 108.64 328.04 L 108.22 328.83 L 107.81 329.62 L 107.39 330.43 L 106.97 331.24 L 106.54 332.07 L 106.11 332.91 L 105.68 333.76 L 105.24 334.62 L 104.81 335.49 L 104.36 336.38 L 103.92 337.28 L 103.47 338.18 L 103.02 339.10 L 102.57 340.03 L 102.11 340.98 L 101.65 341.93 L 101.19 342.90 L 100.72 343.88 L 100.25 344.87 L 99.78 345.88 L 99.31 346.89 L 98.83 347.92 L 98.34 348.96 L 97.86 350.02 L 97.37 351.09 L 96.88 352.16 L 96.38 353.26 L 95.89 354.36 L 95.38 355.48 L 94.88 356.61 L 94.37 357.76 L 93.86 358.91 L 93.34 360.08 L 92.83 361.27 L 92.30 362.47 L 91.78 363.68 L 91.25 364.90 L 90.72 366.14 L 90.19 367.39 L 89.65 368.66 L 89.11 369.94 L 88.56 371.23 L 88.01 372.54 L 87.46 373.86 L 86.90 375.20 L 86.34 376.55 L 85.78 377.91 L 85.22 379.29 L 84.65 380.68 L 84.08 382.08 L 83.51 383.49 L 82.94 384.90 L 82.37 386.32 L 81.80 387.74 L 81.22 389.18 L 80.64 390.64 L 80.06 392.11 L 79.48 393.60 L 78.88 395.11 L 78.29 396.63 L 77.69 398.18 L 77.08 399.74 L 76.47 401.32 L 75.85 402.91 L 75.24 404.53 L 74.61 406.16 L 73.97 407.79 L 73.23 409.31 L 72.24 410.47 L 71.20 411.55 L 70.24 412.71 L 69.23 413.79 L 67.94 414.50 L 66.55 415.08 L 65.14 415.64 L 63.70 416.20 L 62.24 416.76 L 60.76 417.32 L 59.27 417.90 L 57.75 418.47 L 145.52 293.58 L 88.78 372.43 L 53.11 420.21 L 51.53 420.80 L 49.93 421.39 L 48.32 421.98 L 46.69 422.58 L 45.04 423.18 L 43.38 423.78 L 41.71 424.39 L 40.06 425.02 L 129.14 315.28 L 126.94 317.17 L 37.36 428.55 L 38.58 424.94 L 146.83 291.03 L 36.28 433.00 L 36.70 435.07 L 37.16 437.18 L 37.62 439.32 L 38.09 441.48 L 38.56 443.67 L 39.06 445.87 L 134.74 311.22 L 120.04 332.85 L 53.73 413.39 L 129.72 316.99 L 41.25 457.28 L 41.80 459.58 L 42.28 461.92 L 42.75 464.30 L 43.22 466.69 L 43.68 469.10 L 44.15 471.52 L 44.63 473.91 L 145.28 294.97 L 83.92 409.99 L 47.45 477.87 L 97.14 389.48 L 143.89 298.41 L 50.92 479.58 L 52.50 479.04 L 54.09 478.45 L 55.66 477.86 L 57.22 477.26 L 58.75 476.66 L 60.28 476.08 L 61.79 475.54 L 63.29 475.03 L 64.75 474.35 L 66.22 473.82 L 67.64 473.13 L 69.05 472.45 L 70.44 471.83 L 71.82 471.22 L 73.18 470.62 L 74.52 470.01 L 75.85 469.40 L 77.12 468.76 L 78.19 467.89 L 78.76 466.38 L 79.22 464.78 L 129.53 339.32 L 140.32 311.41 L 80.16 459.76 L 79.92 457.44 L 79.66 455.11 L 79.39 452.79 L 79.12 450.49 L 78.84 448.22 L 78.54 445.96 L 78.25 443.72 L 78.06 441.48 L 77.70 439.31 L 77.51 437.11 L 77.22 434.97 L 76.91 432.85 L 76.62 430.75 L 76.33 428.67 L 132.36 318.12 L 90.45 397.32 L 75.45 422.56 L 75.18 420.58 L 75.03 418.65 L 75.21 416.84 L 75.47 415.07 L 75.68 413.29 L 75.96 411.54 L 76.56 409.91 L 77.28 408.32 L 78.01 406.76 L 78.74 405.22 L 79.46 403.69 L 80.17 402.18 L 80.88 400.69 L 81.58 399.21 L 82.28 397.75 L 82.97 396.31 L 83.65 394.87 L 84.33 393.46 L 85.00 392.06 L 85.66 390.68 L 86.32 389.31 L 86.98 387.94 L 87.64 386.58 L 88.29 385.23 L 88.95 383.87 L 89.60 382.53 L 90.25 381.20 L 90.89 379.88 L 91.53 378.57 L 92.17 377.28 L 92.80 376.00 L 93.42 374.73 L 94.04 373.48 L 94.66 372.23 L 95.26 371.00 L 95.87 369.79 L 96.47 368.58 L 97.07 367.39 L 97.66 366.21 L 98.24 365.04 L 98.82 363.88 L 99.40 362.74 L 99.97 361.61 L 100.54 360.49 L 101.10 359.38 L 101.66 358.28 L 102.22 357.20 L 102.77 356.12 L 103.31 355.06 L 103.85 354.01 L 104.39 352.97 L 104.92 351.95 L 105.44 350.93 L 105.97 349.93 L 106.48 348.93 L 107.00 347.95 L 107.51 346.98 L 108.01 346.02 L 108.51 345.07 L 109.01 344.14 L 109.50 343.21 L 109.99 342.29 L 110.47 341.39 L 110.95 340.49 L 111.42 339.61 L 111.89 338.74 L 112.36 337.87 L 112.82 337.02 L 113.28 336.18 L 113.73 335.35 L 114.18 334.52 L 114.63 333.71 L 115.07 332.91 L 115.51 332.12 L 115.94 331.34 L 116.37 330.57 L 116.80 329.81 L 117.22 329.05 L 117.63 328.31 L 118.05 327.58 L 118.46 326.86 L 118.86 326.14 L 119.26 325.44 L 119.66 324.74 L 120.06 324.06 L 120.45 323.38 L 120.83 322.72 L 121.21 322.06 L 121.59 321.41 L 121.97 320.77 L 122.34 320.14 L 122.71 319.52 L 123.07 318.91 L 123.43 318.31 L 123.79 317.71 L 124.14 317.12 L 124.49 316.55 L 124.83 315.98 L 125.18 315.42 L 125.51 314.86 L 125.85 314.32 L 126.18 313.78 L 126.51 313.26 L 126.83 312.74 L 127.15 312.23 L 127.47 311.72 L 127.78 311.23 L 128.09 310.74 L 128.40 310.26 L 128.70 309.79 L 129.00 309.32 L 129.30 308.87 L 129.59 308.42 L 129.88 307.98 L 130.17 307.54 L 130.45 307.12 L 130.73 306.70 L 131.01 306.29 L 131.28 305.88 L 131.55 305.48 L 131.82 305.09 L 132.09 304.71 L 132.35 304.33 L 132.61 303.96 L 132.86 303.60 L 133.11 303.25 L 133.36 302.90 L 133.61 302.55 L 133.85 302.22 L 134.09 301.89 L 134.32 301.56 L 134.56 301.25 L 134.79 300.94 L 135.02 300.63 L 135.24 300.33 L 135.46 300.04 L 135.68 299.76 L 135.90 299.48 L 136.11 299.20 L 136.32 298.93 L 136.53 298.67 L 136.73 298.42 L 136.94 298.17 L 137.14 297.92 L 137.33 297.68 L 137.53 297.45 L 137.72 297.22 L 137.91 296.99 L 138.09 296.78 L 138.27 296.56 L 138.46 296.36 L 138.63 296.15 L 138.81 295.96 L 138.98 295.76 L 139.15 295.58 L 139.32 295.39 L 139.48 295.22 L 139.65 295.04 L 139.81 294.87 L 139.96 294.71 L 140.12 294.55 L 140.27 294.40 L 140.42 294.25 L 140.56 294.11 L 140.70 293.97 L 140.84 293.84 L 140.98 293.71 L 141.12 293.58 L 141.25 293.46 L 141.38 293.34 L 141.51 293.22 L 141.64 293.11 L 141.77 293.00 L 141.90 292.90 L 142.02 292.79 L 142.14 292.70 L 142.26 292.60 L 142.40 292.52 L 142.56 292.48 L 142.72 292.44 L 142.86 292.40 L 143.01 292.38 L 143.18 292.38 L 143.35 292.39 L 144.68 291.23 L 146.75 290.99 L 144.79 292.13 L 144.01 292.45 L 144.15 292.47 L 144.30 292.48 L 144.44 292.49 L 144.57 292.50 L 144.69 292.50 L 144.79 292.47 L 144.89 292.44 L 145.55 291.66 L 145.94 291.37 L 145.16 292.33 L 145.23 292.26 L 145.30 292.20 L 145.37 292.13 L 145.44 292.07 L 145.50 292.01 L 145.56 291.95 L 145.62 291.90 L 145.67 291.84 L 145.73 291.79 L 145.77 291.73 L 146.36 290.98 L 146.23 291.35 L 145.84 291.57 L 145.86 291.52 L 145.86 291.46 L 145.85 291.41 L 145.85 291.36 L 146.58 291.09 L 146.70 290.96 L 146.68 291.00 L 145.83 291.19 L 145.82 291.16 L 145.81 291.13 L 145.80 291.10 L 145.78 291.08 L 145.75 291.06 L 145.71 291.04 L 145.68 291.03 L 145.65 291.01 L 145.59 291.00 L 145.52 290.99 L 145.45 290.99 L 146.72 290.91 L 145.94 290.95 L 145.22 290.97 L 145.13 290.96 L 145.04 290.96 L 146.10 290.90 L 146.73 290.90 L 144.77 290.94 L 144.72 290.94 L 144.68 290.93 L 144.63 290.93 L 144.60 290.93 L 144.60 290.93 L 144.61 290.92 L 144.62 290.92 L 144.64 290.92 L 144.66 290.92 L 144.67 290.92 L 144.69 290.93 L 144.70 290.93 L 144.71 290.93 L 144.73 290.93 L 144.74 290.93 L 144.95 290.94 L 146.73 290.94 L 145.50 290.93 L 144.80 290.94 L 144.81 290.94 L 144.82 290.94 L 144.84 290.94 L 144.85 290.94 L 144.86 290.94 L 144.87 290.94 L 144.89 290.94 L 144.90 290.93 L 144.91 290.93 L 144.93 290.92 L 144.95 290.91 L 145.00 290.90 Z" />
</symbol>
<symbol id="bl5">
<path d="M 146.62 291.00 L 146.62 291.01 L 146.62 291.01 L 146.61 291.02 L 146.61 291.02 L 146.61 291.04 L 146.86 290.91 L 146.61 291.04 L 146.61 291.05 L 146.61 291.06 L 146.61 291.06 L 146.61 291.07 L 146.61 291.08 L 146.61 291.09 L 146.62 291.09 L 146.61 291.02 L 146.59 290.89 L 146.63 291.08 L 146.64 291.07 L 146.64 291.06 L 146.65 291.05 L 146.66 291.03 L 146.67 291.02 L 146.83 290.94 L 146.85 290.95 L 146.70 290.99 L 146.74 290.99 L 147.11 290.91 L 146.75 290.96 L 146.76 290.96 L 146.78 290.95 L 146.80 290.95 L 146.81 290.94 L 146.82 290.94 L 146.83 290.93 L 146.89 290.93 L 147.17 290.92 L 146.84 290.92 L 146.83 290.92 L 146.83 290.92 L 146.82 290.92 L 146.86 290.92 L 147.15 290.93 L 146.80 290.93 L 146.80 290.93 L 146.79 290.93 L 146.78 290.93 L 146.77 290.94 L 146.77 290.94 L 146.76 290.94 L 146.75 290.94 L 146.74 290.94 L 146.73 290.94 L 146.72 290.94 L 146.71 290.94 L 146.69 290.94 L 146.68 290.94 L 146.66 290.94 L 146.65 290.94 L 146.78 290.95 L 146.76 290.95 L 146.63 290.94 L 146.65 290.95 L 146.86 290.95 L 146.61 290.94 L 146.61 290.94 L 146.61 290.94 L 146.61 290.94 L 146.61 290.94 L 146.61 290.94 L 146.61 290.94 L 146.61 290.94 L 146.61 290.94 L 146.65 290.94 L 146.62 290.93 L 146.61 290.91 L 146.61 290.92 L 146.61 290.91 L 146.61 290.90 L 146.61 290.89 L 146.61 290.88 L 146.61 290.87 L 146.61 290.85 L 146.61 290.83 L 146.61 290.82 L 146.62 290.79 L 146.62 290.77 L 146.62 290.75 L 146.62 290.72 L 146.63 290.70 L 146.63 290.67 L 146.64 290.64 L 146.64 290.61 L 146.60 290.89 L 146.59 290.98 L 146.64 290.51 L 146.64 290.48 L 146.63 290.45 L 146.63 290.42 L 146.62 290.39 L 146.62 290.36 L 146.61 290.34 L 146.61 290.31 L 146.61 290.28 L 146.61 290.25 L 146.61 290.21 L 146.61 290.18 L 146.63 289.80 L 146.61 291.02 L 146.61 290.07 L 146.61 290.04 L 146.61 290.01 L 146.61 289.97 L 146.62 289.93 L 146.62 289.89 L 146.62 289.85 L 146.68 290.86 L 146.66 289.95 L 146.63 289.58 L 146.63 289.62 L 146.63 288.74 L 146.63 288.79 L 146.63 289.13 L 146.63 288.93 L 146.63 289.17 L 146.63 289.05 L 146.63 288.93 L 146.63 288.03 L 146.64 287.88 L 146.63 288.54 L 146.63 288.17 L 146.64 287.81 L 146.63 288.10 L 146.63 287.95 L 146.69 290.98 L 146.64 288.51 L 146.62 287.46 L 146.62 287.29 L 146.62 287.11 L 146.62 286.92 L 146.62 286.72 L 146.62 286.52 L 146.62 286.31 L 146.62 286.10 L 146.62 285.87 L 146.61 285.65 L 146.61 285.41 L 146.61 285.17 L 146.61 284.93 L 146.61 284.68 L 146.61 284.43 L 146.61 284.19 L 146.61 283.93 L 146.61 283.66 L 146.65 281.70 L 146.63 281.37 L 146.64 279.66 L 146.62 282.61 L 146.62 282.33 L 146.62 282.05 L 146.63 281.76 L 146.63 281.48 L 146.63 281.19 L 146.63 280.89 L 146.63 280.58 L 146.63 280.27 L 146.63 279.93 L 146.63 279.60 L 146.63 279.26 L 146.63 278.92 L 146.63 278.57 L 146.63 278.21 L 146.63 277.84 L 146.63 284.24 L 146.63 290.94 L 146.63 276.86 L 146.63 290.24 L 146.63 287.05 L 146.63 275.90 L 146.63 275.62 L 146.63 275.35 L 146.63 275.07 L 146.63 274.79 L 146.63 274.51 L 146.63 274.22 L 146.62 273.91 L 146.62 273.60 L 146.62 273.32 L 146.61 273.01 L 146.61 272.72 L 146.60 272.43 L 146.59 272.13 L 146.58 271.82 L 146.57 271.50 L 146.56 271.19 L 146.55 270.87 L 146.54 270.56 L 146.58 279.04 L 146.66 290.95 L 146.49 270.46 L 146.67 290.95 L 146.55 279.47 L 146.44 270.95 L 146.43 271.39 L 146.41 271.82 L 146.39 272.26 L 146.37 272.69 L 146.35 273.11 L 146.33 273.52 L 146.30 273.93 L 146.28 274.34 L 146.33 277.16 L 146.69 291.14 L 146.18 273.69 L 146.17 275.89 L 146.14 276.27 L 146.11 276.63 L 146.07 276.99 L 146.04 277.35 L 146.01 277.70 L 145.97 278.04 L 146.19 283.15 L 146.69 291.06 L 145.95 278.97 L 146.69 291.04 L 146.21 284.32 L 145.99 279.81 L 146.21 279.57 L 146.49 281.22 L 146.11 280.55 L 146.15 280.79 L 146.19 281.03 L 146.22 281.26 L 146.25 281.50 L 146.28 281.74 L 146.31 281.95 L 146.34 282.18 L 146.36 282.38 L 146.39 282.59 L 146.41 282.80 L 146.43 283.00 L 146.45 283.21 L 146.47 283.41 L 146.49 283.60 L 146.51 283.79 L 146.52 283.95 L 146.53 284.07 L 146.53 284.26 L 146.53 284.47 L 146.53 284.65 L 146.52 284.77 L 146.51 284.94 L 146.49 285.12 L 146.48 285.31 L 146.46 285.49 L 146.44 285.66 L 146.42 285.84 L 146.40 286.00 L 146.67 289.65 L 146.39 286.60 L 146.33 286.48 L 146.30 286.62 L 146.28 286.78 L 146.25 286.92 L 146.22 287.06 L 146.69 290.69 L 145.62 285.57 L 146.12 287.46 L 146.09 287.58 L 146.05 287.71 L 146.03 287.83 L 146.02 287.95 L 146.34 289.05 L 146.70 290.96 L 146.03 288.29 L 146.06 288.40 L 146.10 288.50 L 146.14 288.61 L 146.38 288.49 L 146.35 288.51 L 146.24 288.90 L 146.27 288.98 L 146.30 289.07 L 146.69 291.00 L 146.48 289.76 L 146.38 289.32 L 146.40 289.40 L 146.42 289.47 L 146.44 289.54 L 146.62 288.78 L 146.65 288.65 L 146.49 289.74 L 146.51 289.81 L 146.52 289.87 L 146.53 289.93 L 146.54 290.00 L 146.55 290.07 L 146.55 290.13 L 146.56 290.19 L 146.56 290.25 L 146.56 290.31 L 146.56 290.37 L 146.56 290.43 L 146.56 290.48 L 146.56 290.52 L 146.56 290.57 L 146.56 290.61 L 146.64 290.95 L 146.65 290.96 L 146.56 290.72 L 146.56 290.75 L 146.56 290.77 L 146.56 290.80 L 146.56 290.82 L 146.56 290.84 L 146.56 290.86 L 146.56 290.87 L 146.56 290.89 L 146.56 290.90 L 146.56 290.91 L 146.56 290.92 L 146.56 290.93 L 146.56 290.93 L 146.56 290.94 L 146.56 290.94 L 146.56 290.94 L 146.56 290.94 L 146.56 290.94 L 146.64 290.80 L 146.61 290.94 L 146.57 290.94 L 146.57 290.94 L 146.57 290.94 L 146.57 290.94 L 146.57 290.93 L 146.57 290.93 L 146.57 290.93 L 146.57 290.93 L 146.57 290.93 L 146.57 290.92 L 146.57 290.92 L 146.57 290.92 L 146.57 290.92 L 146.57 290.92 L 146.57 290.93 L 146.56 290.93 L 146.56 290.93 L 146.55 290.93 L 146.55 290.94 L 146.54 290.94 L 146.52 290.95 L 146.51 290.95 L 146.50 290.96 L 146.48 290.97 L 146.46 290.97 L 146.53 290.89 L 146.45 290.91 L 146.40 291.00 L 146.36 290.99 L 146.51 290.88 L 146.55 290.90 L 146.30 291.05 L 146.27 291.06 L 146.38 290.98 L 146.52 290.89 L 146.17 291.11 L 146.23 290.94 L 146.34 290.88 L 146.12 291.17 L 146.11 291.20 L 146.11 291.23 L 146.12 291.26 L 146.14 291.30 L 146.17 291.34 L 146.19 291.38 L 146.21 291.42 L 146.23 291.47 L 146.43 290.88 L 146.32 291.11 L 146.29 291.63 L 146.30 291.69 L 146.32 291.75 L 146.34 291.81 L 146.35 291.88 L 146.37 291.95 L 146.38 292.02 L 146.40 292.10 L 146.41 292.18 L 146.42 292.24 L 146.44 292.27 L 146.46 292.30 L 146.48 292.34 L 146.49 292.36 L 146.51 292.35 L 146.53 292.33 L 146.55 292.31 L 146.56 292.28 L 146.57 292.26 L 146.59 292.23 L 146.61 290.84 L 146.61 292.26 L 146.61 292.16 L 146.62 292.14 L 146.62 292.12 L 146.62 292.09 L 146.63 292.07 L 146.63 292.05 L 146.63 292.03 L 146.63 292.01 L 146.63 291.98 L 146.63 291.95 L 146.63 291.90 L 146.63 291.85 L 146.62 291.81 L 146.62 291.77 L 146.62 291.71 L 146.62 291.64 L 146.62 291.58 L 146.62 291.53 L 146.62 291.47 L 146.62 291.42 L 146.62 291.37 L 146.62 291.33 L 146.62 291.28 L 146.62 291.24 L 146.69 290.93 L 146.63 291.10 L 146.62 291.14 L 146.62 291.11 L 146.62 291.09 L 146.62 291.06 L 146.62 291.04 L 146.62 291.03 L 146.62 291.02 L 146.62 291.01 Z" />
</symbol>
</defs>
<!-- isDone: 0 -->
<rect width="700" height="500" style="fill:#fff;stroke-width:0" />
<use class="p0 borderLine" xlink:href="#bl0"/>
<use class="p1 borderLine" xlink:href="#bl1"/>
<use class="p2 borderLine" xlink:href="#bl2"/>
<use class="p3 borderLine" xlink:href="#bl3"/>
<use class="p4 borderLine" xlink:href="#bl4"/>
<use class="p5 borderLine" xlink:href="#bl5"/>
<use class="q0 outLine" xlink:href="#bl0"/>
<use class="q1 outLine" xlink:href="#bl1"/>
<use class="q2 outLine" xlink:href="#bl2"/>
<use class="q3 outLine" xlink:href="#bl3"/>
<use class="q4 outLine" xlink:href="#bl4"/>
<use class="q5 outLine" xlink:href="#bl5"/>
<circle onclick="fromCircle(1)" class="circle" cx="146.1794" cy="291.4793" r="0.0109" />
<text class="tLabel" x="146.18" y="271.48"></text>
<text class="nLabel" x="146.18" y="286.48">7</text>
<text class="belong" x="146.18" y="296.48">(1)</text>
<circle onclick="fromCircle(2)" class="circle" cx="146.5770" cy="291.0723" r="0.0109" />
<text class="tLabel" x="146.58" y="271.07"></text>
<text class="nLabel" x="146.58" y="286.07">10</text>
<text class="belong" x="146.58" y="296.07">(2)</text>
<circle onclick="fromCircle(6)" class="circle" cx="146.8176" cy="290.8860" r="0.0139" />
<text class="tLabel" x="146.82" y="270.89"></text>
<text class="nLabel" x="146.82" y="285.89">49</text>
<text class="belong" x="146.82" y="295.89">(2, 3)</text>
<circle onclick="fromCircle(14)" class="circle" cx="146.7616" cy="290.9431" r="0.0109" />
<text class="tLabel" x="146.76" y="270.94"></text>
<text class="nLabel" x="146.76" y="285.94">2</text>
<text class="belong" x="146.76" y="295.94">(2, 3, 4)</text>
<circle onclick="fromCircle(10)" class="circle" cx="146.8027" cy="291.0145" r="0.0109" />
<text class="tLabel" x="146.80" y="271.01"></text>
<text class="nLabel" x="146.80" y="286.01">3</text>
<text class="belong" x="146.80" y="296.01">(2, 4)</text>
<circle onclick="fromCircle(26)" class="circle" cx="146.7220" cy="291.0131" r="0.0109" />
<text class="tLabel" x="146.72" y="271.01"></text>
<text class="nLabel" x="146.72" y="286.01">1</text>
<text class="belong" x="146.72" y="296.01">(2, 4, 5)</text>
<circle onclick="fromCircle(38)" class="circle" cx="146.6560" cy="290.8651" r="0.0109" />
<text class="tLabel" x="146.66" y="270.87"></text>
<text class="nLabel" x="146.66" y="285.87">4</text>
<text class="belong" x="146.66" y="295.87">(2, 3, 6)</text>
<circle onclick="fromCircle(4)" class="circle" cx="146.0457" cy="290.4498" r="0.0335" />
<text class="tLabel" x="146.05" y="270.45"></text>
<text class="nLabel" x="146.05" y="285.45">287</text>
<text class="belong" x="146.05" y="295.45">(3)</text>
<circle onclick="fromCircle(5)" class="circle" cx="146.5149" cy="290.9153" r="0.0109" />
<text class="tLabel" x="146.51" y="270.92"></text>
<text class="nLabel" x="146.51" y="285.92">1</text>
<text class="belong" x="146.51" y="295.92">(1, 3)</text>
<circle onclick="fromCircle(12)" class="circle" cx="146.1797" cy="290.5838" r="0.0109" />
<text class="tLabel" x="146.18" y="270.58"></text>
<text class="nLabel" x="146.18" y="285.58">16</text>
<text class="belong" x="146.18" y="295.58">(3, 4)</text>
<circle onclick="fromCircle(44)" class="circle" cx="146.5950" cy="290.9176" r="0.0109" />
<text class="tLabel" x="146.60" y="270.92"></text>
<text class="nLabel" x="146.60" y="285.92">1</text>
<text class="belong" x="146.60" y="295.92">(3, 4, 6)</text>
<circle onclick="fromCircle(20)" class="circle" cx="146.7398" cy="290.8641" r="0.0109" />
<text class="tLabel" x="146.74" y="270.86"></text>
<text class="nLabel" x="146.74" y="285.86">2</text>
<text class="belong" x="146.74" y="295.86">(3, 5)</text>
<circle onclick="fromCircle(36)" class="circle" cx="146.6595" cy="291.0637" r="0.0124" />
<text class="tLabel" x="146.66" y="271.06"></text>
<text class="nLabel" x="146.66" y="286.06">39</text>
<text class="belong" x="146.66" y="296.06">(3, 6)</text>
<circle onclick="fromCircle(8)" class="circle" cx="146.9492" cy="291.2109" r="0.0109" />
<text class="tLabel" x="146.95" y="271.21"></text>
<text class="nLabel" x="146.95" y="286.21">20</text>
<text class="belong" x="146.95" y="296.21">(4)</text>
<circle onclick="fromCircle(16)" class="circle" cx="147.0162" cy="290.4498" r="0.0109" />
<text class="tLabel" x="147.02" y="270.45"></text>
<text class="nLabel" x="147.02" y="285.45">2</text>
<text class="belong" x="147.02" y="295.45">(5)</text>
<circle onclick="fromCircle(32)" class="circle" cx="146.6622" cy="291.1440" r="0.0124" />
<text class="tLabel" x="146.66" y="271.14"></text>
<text class="nLabel" x="146.66" y="286.14">39</text>
<text class="belong" x="146.66" y="296.14">(6)</text>
<circle onclick="fromCircle(47)" class="circle" cx="146.6184" cy="290.9946" r="0.0109" />
<text class="tLabel" x="146.62" y="270.99"></text>
<text class="nLabel" x="146.62" y="285.99">1</text>
<text class="belong" x="146.62" y="295.99">(1, 2, 3, 4, 6)</text>
<rect class="p0 borderLine" x="500.00" y="50.00" width="30.00" height="15.00" />
<rect class="q0" x="500.00" y="50.00" width="30.00" height="15.00" />
<text class="legend" x="540.00" y="65.00">IBA</text>
<rect class="p1 borderLine" x="500.00" y="90.00" width="30.00" height="15.00" />
<rect class="q1" x="500.00" y="90.00" width="30.00" height="15.00" />
<text class="legend" x="540.00" y="105.00">IC</text>
<rect class="p2 borderLine" x="500.00" y="130.00" width="30.00" height="15.00" />
<rect class="q2" x="500.00" y="130.00" width="30.00" height="15.00" />
<text class="legend" x="540.00" y="145.00">IDA</text>
<rect class="p3 borderLine" x="500.00" y="170.00" width="30.00" height="15.00" />
<rect class="q3" x="500.00" y="170.00" width="30.00" height="15.00" />
<text class="legend" x="540.00" y="185.00">IEA</text>
<rect class="p4 borderLine" x="500.00" y="210.00" width="30.00" height="15.00" />
<rect class="q4" x="500.00" y="210.00" width="30.00" height="15.00" />
<text class="legend" x="540.00" y="225.00">ISS</text>
<rect class="p5 borderLine" x="500.00" y="250.00" width="30.00" height="15.00" />
<rect class="q5" x="500.00" y="250.00" width="30.00" height="15.00" />
<text class="legend" x="540.00" y="265.00">NAS</text>
</svg>
