<svg xmlns="http://www.w3.org/2000/svg" xmlns:xlink="http://www.w3.org/1999/xlink" width="700" height="500">
<defs>
<style type="text/css"><![CDATA[
  .borderLine {
	   stroke: none;
	   fill-opacity: 0.4;
  }
  .outLine {
	   stroke-width: 1;
	   fill: none;
  }
  .circle {
	   stroke: #888888;
	   stroke-width: 0.5;
	   fill: none;
    pointer-events: all;
  }
  .spcircle {
	   stroke: #FF2222;
	   stroke-width: 1;
	   fill: none;
    pointer-events: all;
  }
  .tLabel {
	   font-family: Arial;
    pointer-events: none;
	   font-size: 14px;
	   text-anchor: middle;
	   alignment-baseline: central;
  }
  .nLabel {
	   font-family: Arial;
    pointer-events: none;
	   font-size: 10px;
	   text-anchor: middle;
	   alignment-baseline: central;
  }
  .belong {
	   font-family: Arial;
    pointer-events: none;
	   font-size: 5px;
	   text-anchor: middle;
	   alignment-baseline: central;
  }
  .p0{
    stroke: none;
    fill: #e6194b;
  }
  .q0{
    fill: none;
    stroke: #e6194b;
  }
  .p1{
    stroke: none;
    fill: #3cb44b;
  }
  .q1{
    fill: none;
    stroke: #3cb44b;
  }
  .p2{
    stroke: none;
    fill: #ffe119;
  }
  .q2{
    fill: none;
    stroke: #ffe119;
  }
  .p3{
    stroke: none;
    fill: #0082c8;
  }
  .q3{
    fill: none;
    stroke: #0082c8;
  }
  .p4{
    stroke: none;
    fill: #f58231;
  }
  .q4{
    fill: none;
    stroke: #f58231;
  }
  .p5{
    stroke: none;
    fill: #911eb4;
  }
  .q5{
    fill: none;
    stroke: #911eb4;
  }
  .p6{
    stroke: none;
    fill: #46f0f0;
  }
  .q6{
    fill: none;
    stroke: #46f0f0;
  }
  .p7{
    stroke: none;
    fill: #f032e6;
  }
  .q7{
    fill: none;
    stroke: #f032e6;
  }
]]>
</style>
<symbol id="bl0">
<path d="M 43.88 337.00 L 38.56 337.57 L 35.80 342.16 L 37.79 347.12 L 42.95 348.54 L 44.04 354.16 L 47.90 353.40 L 52.64 346.35 L 59.70 351.10 L 54.95 358.15 L 47.90 353.40 L 44.04 354.16 L nan nan L 45.12 360.04 L nan nan L 47.13 369.93 L 48.09 369.74 L 52.84 362.68 L 59.90 367.43 L 55.15 374.49 L 48.09 369.74 L 47.13 369.93 L 47.99 374.32 L 48.98 376.64 L 48.93 379.16 L 49.83 383.77 L 56.78 388.54 L 52.14 395.58 L 53.04 400.14 L 48.27 405.00 L 51.09 411.20 L 57.89 410.78 L 59.94 404.29 L 73.22 400.24 L 77.35 395.73 L 83.29 397.16 L 89.84 395.16 L 94.57 399.33 L 100.42 396.98 L 100.96 390.70 L 95.58 387.40 L nan nan L 95.64 371.28 L nan nan L 95.56 359.96 L 87.69 359.97 L 81.68 365.98 L 75.66 359.98 L 78.84 356.80 L 73.68 351.65 L 67.74 351.66 L 67.74 354.96 L 73.76 360.97 L 67.75 366.98 L 61.73 360.98 L 67.74 354.96 L 67.74 351.66 L 65.18 351.66 L 65.17 343.16 L 73.67 343.15 L 73.68 351.65 L 78.84 356.80 L 81.67 353.96 L 87.69 359.97 L 95.56 359.96 L 95.55 350.72 L 99.15 350.72 L 93.14 356.74 L 87.12 350.73 L 93.13 344.71 L 99.15 350.72 L 95.55 350.72 L 95.54 339.56 L 100.73 336.58 L 100.76 330.59 L 95.61 327.54 L 90.38 330.45 L 81.96 325.37 L 82.44 320.15 L 78.64 316.54 L 73.45 317.28 L 70.81 321.81 L 56.07 320.68 L 53.16 315.06 L 46.83 315.16 L 44.10 320.87 L 47.99 325.86 L 46.19 330.74 L 52.67 333.14 L 60.40 329.59 L 63.95 337.31 L 56.23 340.87 L 52.67 333.14 L 46.19 330.74 Z" />
</symbol>
<symbol id="bl1">
<path d="M 20.06 360.98 L 13.35 360.69 L 10.56 366.80 L 15.18 371.68 L 21.44 369.25 L 25.22 371.87 L 33.06 371.02 L 35.00 378.67 L 37.75 380.58 L 39.65 382.73 L 42.33 383.76 L 45.94 386.27 L 45.03 391.07 L 47.99 394.97 L 52.87 395.37 L 56.43 392.01 L 64.56 395.41 L 64.39 395.80 L 61.16 387.94 L 69.03 384.71 L 72.26 392.57 L 64.39 395.80 L 64.56 395.41 L 73.56 399.16 L 74.65 405.51 L 80.86 407.23 L 85.06 402.34 L 82.42 396.46 L 87.81 388.28 L 87.51 388.08 L 79.18 389.79 L 77.47 381.46 L 85.80 379.75 L 87.51 388.08 L 87.81 388.28 L 94.28 378.48 L 89.84 375.55 L 81.70 376.98 L 79.81 368.93 L 72.77 364.28 L 64.44 365.99 L 62.73 357.66 L 71.06 355.95 L 72.77 364.28 L 79.81 368.93 L 88.32 366.94 L 89.84 375.55 L 94.28 378.48 L 94.46 378.20 L 90.03 375.27 L 81.70 376.98 L 79.99 368.65 L 88.32 366.94 L 90.03 375.27 L 94.46 378.20 L 96.74 374.75 L 96.64 367.97 L 102.91 365.40 L 106.26 360.32 L 112.41 360.60 L 115.59 355.33 L 112.46 350.03 L 106.31 350.25 L 98.79 338.60 L 101.51 334.14 L 99.71 329.23 L 94.75 327.59 L 90.38 330.45 L 82.50 325.70 L 77.93 333.29 L 74.77 335.87 L 73.97 339.86 L 72.53 342.25 L 74.58 350.51 L 66.32 352.56 L 64.28 344.30 L 72.53 342.25 L 73.97 339.86 L 85.07 342.07 L 77.93 333.29 L 82.50 325.70 L 81.96 325.37 L 82.44 320.15 L 78.64 316.54 L 73.45 317.28 L 70.81 321.81 L 56.07 320.68 L 53.51 315.29 L 47.57 314.76 L 44.09 319.61 L 46.51 325.07 L 36.46 338.71 L 36.95 339.07 L 45.36 337.80 L 46.63 346.21 L 38.23 347.48 L 36.95 339.07 L 36.46 338.71 L 30.22 347.19 L 22.52 348.91 L 23.16 356.78 Z" />
</symbol>
<symbol id="bl2">
<path d="M 28.86 346.66 L 23.33 348.02 L 21.42 353.39 L 24.85 357.94 L 30.53 357.59 L 33.25 361.97 L 34.11 364.37 L 35.88 366.20 L 39.91 372.68 L 37.21 376.46 L 38.01 381.03 L 41.82 383.67 L 46.37 382.82 L 47.58 384.67 L 44.89 390.18 L 48.44 395.19 L 54.54 394.47 L 56.82 388.77 L 69.82 386.75 L 68.98 381.40 L 62.12 376.39 L 67.13 369.52 L 74.00 374.53 L 68.98 381.40 L 69.82 386.75 L 76.55 385.70 L 79.52 390.00 L 84.74 390.35 L 88.26 386.47 L 87.41 381.31 L 96.74 374.74 L 101.37 377.28 L 106.22 375.19 L 107.55 370.08 L 104.32 365.89 L 106.90 360.69 L 112.89 360.32 L 115.58 354.96 L 112.30 349.94 L 106.31 350.25 L 98.79 338.60 L 101.51 334.14 L 99.71 329.23 L 94.75 327.59 L 90.38 330.45 L 86.47 328.09 L 83.02 333.82 L 85.07 342.07 L 76.81 344.12 L 74.77 335.87 L 83.02 333.82 L 86.47 328.09 L 81.96 325.37 L 82.32 319.86 L 78.04 316.38 L 72.72 317.86 L 70.84 323.05 L 56.95 324.88 L 57.53 329.26 L 64.28 334.44 L 59.92 340.11 L 64.66 343.74 L 73.09 342.63 L 74.20 351.07 L 66.58 352.07 L 66.96 355.01 L 73.71 360.19 L 68.53 366.93 L 61.79 361.76 L 66.96 355.01 L 66.58 352.07 L 65.77 352.18 L 64.66 343.74 L 59.92 340.11 L 59.10 341.19 L 52.35 336.01 L 57.53 329.26 L 56.95 324.88 L 53.17 325.38 L 50.86 326.18 L 48.42 326.00 L 39.63 327.16 L 35.78 322.31 L 29.68 323.44 L 27.83 329.35 L 32.17 333.77 Z" />
</symbol>
<symbol id="bl3">
<path d="M 18.98 360.34 L 12.59 361.25 L 10.70 367.42 L 15.49 371.75 L 21.44 369.25 L 25.22 371.87 L 33.06 371.02 L 35.00 378.67 L 43.09 384.29 L 50.56 373.52 L 49.05 365.15 L 57.42 363.65 L 58.93 372.01 L 50.56 373.52 L 43.09 384.29 L 45.94 386.27 L 45.17 391.60 L 48.98 395.40 L 54.31 394.63 L 56.89 389.91 L 60.70 390.04 L 62.71 394.74 L 67.61 396.20 L 71.86 393.36 L 72.39 388.28 L 76.81 386.74 L 80.56 390.46 L 85.79 389.80 L 88.49 385.26 L 86.56 380.34 L 87.60 379.21 L 86.13 377.87 L 89.08 367.53 L 79.03 371.34 L 72.18 365.04 L 63.68 365.40 L 63.32 356.90 L 71.82 356.54 L 72.18 365.04 L 79.03 371.34 L 80.94 376.39 L 86.13 377.87 L 87.60 379.21 L 95.71 370.39 L 97.23 367.21 L 100.27 365.43 L 105.51 359.73 L 111.76 360.90 L 115.57 355.81 L 112.67 350.15 L 106.31 350.25 L 98.79 338.60 L 101.54 333.46 L 98.64 328.40 L 92.82 328.18 L 89.54 333.01 L 80.53 332.19 L 80.46 332.98 L 85.90 339.51 L 79.37 344.96 L 73.93 338.43 L 80.46 332.98 L 80.53 332.19 L 58.77 330.22 L 58.86 329.24 L 64.30 335.77 L 57.77 341.21 L 52.32 334.68 L 58.86 329.24 L 58.77 330.22 L 39.66 328.49 L 36.90 322.87 L 30.64 322.75 L 27.67 328.25 L 31.19 333.42 L 23.37 350.67 L 21.89 350.00 L 29.85 347.00 L 29.89 347.12 L 36.16 344.76 L 39.67 337.01 L 47.42 340.52 L 43.91 348.27 L 36.16 344.76 L 29.89 347.12 L 32.84 354.96 L 24.88 357.96 L 21.89 350.00 L 23.37 350.67 Z" />
</symbol>
<symbol id="bl4">
<path d="M 40.76 355.38 L 35.47 356.49 L 33.21 361.39 L 35.78 366.13 L 41.12 366.90 L 42.92 372.28 L 48.29 370.49 L 52.09 362.88 L 59.70 366.68 L 57.86 370.37 L 62.68 372.77 L 70.74 370.08 L 73.44 378.15 L 65.37 380.84 L 62.68 372.77 L 57.86 370.37 L 55.90 374.29 L 48.29 370.49 L 42.92 372.28 L 47.16 384.97 L 45.18 391.60 L 50.74 395.71 L 52.28 400.34 L 48.21 405.41 L 51.13 411.22 L 57.63 410.98 L 60.10 404.96 L 69.10 403.31 L 67.79 396.17 L 60.80 391.34 L 65.63 384.34 L 72.62 389.17 L 67.79 396.17 L 69.10 403.31 L 73.19 402.56 L 76.75 407.01 L 82.42 406.49 L 85.12 401.47 L 82.42 396.46 L nan nan L 87.51 388.08 L nan nan L 94.46 378.20 L 90.03 375.27 L 81.70 376.98 L 79.99 368.65 L 88.32 366.94 L 90.03 375.27 L 94.46 378.20 L 96.74 374.75 L 96.64 367.97 L 102.91 365.40 L 106.26 360.32 L 113.01 360.24 L 115.43 353.94 L 110.49 349.36 L 104.39 352.25 L 98.90 349.01 L 96.19 345.55 L 91.85 344.85 L 80.42 338.11 L 82.97 333.79 L 85.10 342.02 L 76.86 344.15 L 74.74 335.92 L 82.97 333.79 L 80.42 338.11 L 62.75 327.70 L 61.37 330.05 L 63.49 338.28 L 55.26 340.41 L 53.13 332.17 L 61.37 330.05 L 62.75 327.70 L 55.25 323.28 L 54.62 316.29 L 47.79 314.66 L 44.07 320.62 L 48.53 326.04 L 45.41 337.84 L 47.60 344.18 L 42.55 348.60 L 42.39 349.23 L 47.98 350.71 L 55.34 346.44 L 59.31 353.28 L 64.23 350.43 L 66.41 342.21 L 74.63 344.38 L 72.45 352.60 L 64.23 350.43 L 59.31 353.28 L 59.61 353.79 L 52.26 358.06 L 47.98 350.71 L 42.39 349.23 Z" />
</symbol>
<symbol id="bl5">
<path d="M 33.37 352.32 L 28.19 346.52 L 21.62 350.68 L 24.65 357.84 L 32.21 356.04 L 34.37 357.63 L 33.31 362.30 L 35.99 366.27 L 40.72 367.02 L 44.50 364.07 L 53.72 369.09 L 51.12 373.86 L 48.71 365.71 L 56.87 363.30 L 59.27 371.46 L 51.12 373.86 L 53.72 369.09 L 67.45 376.58 L 65.18 380.74 L 62.78 372.58 L 70.93 370.18 L 73.34 378.34 L 65.18 380.74 L 67.45 376.58 L 77.21 381.89 L 78.00 388.77 L 84.75 390.35 L 88.50 384.53 L 84.29 379.03 L 86.37 372.38 L 90.75 373.76 L 83.21 377.70 L 79.27 370.17 L 86.80 366.22 L 90.75 373.76 L 86.37 372.38 L 91.34 356.47 L 98.06 354.19 L 97.94 347.10 L 91.15 345.05 L 87.13 350.89 L 67.49 351.41 L 67.59 354.96 L 73.76 360.81 L 67.91 366.98 L 61.74 361.13 L 67.59 354.96 L 67.49 351.41 L 53.78 351.78 L 53.64 346.24 L 59.81 352.09 L 53.96 358.26 L 47.79 352.41 L 53.64 346.24 L 53.78 351.78 Z" />
</symbol>
<symbol id="bl6">
<path d="M 44.34 358.05 L 37.51 355.43 L 33.21 361.35 L 37.81 367.04 L 44.50 364.07 L 53.72 369.09 L 51.12 373.86 L 48.71 365.71 L 56.87 363.30 L 59.27 371.46 L 51.12 373.86 L 53.72 369.09 L 67.45 376.58 L 65.18 380.74 L 62.78 372.58 L 70.93 370.18 L 73.34 378.34 L 65.18 380.74 L 67.45 376.58 L 77.21 381.89 L 77.59 388.26 L 83.48 390.70 L 88.26 386.49 L 86.56 380.34 L 90.03 376.57 L 89.44 376.03 L 80.94 376.39 L 80.58 367.89 L 89.08 367.53 L 89.44 376.03 L 90.03 376.57 L 95.71 370.39 L 97.23 367.21 L 100.27 365.43 L 105.51 359.73 L 112.73 360.42 L 115.36 353.65 L 109.55 349.29 L 103.78 353.69 L 98.93 352.34 L 98.13 347.37 L 93.84 344.75 L 89.05 346.31 L 87.13 350.96 L 81.34 351.18 L 81.44 353.96 L 87.69 359.74 L 81.91 365.98 L 75.67 360.20 L 81.44 353.96 L 81.34 351.18 L 67.39 351.72 L 67.51 354.96 L 73.76 360.74 L 67.98 366.98 L 61.74 361.20 L 67.51 354.96 L 67.39 351.72 L 59.81 352.02 L 57.28 347.35 L 52.05 346.50 L 48.18 350.12 L 48.67 355.39 Z" />
</symbol>
<symbol id="bl7">
<path d="M 32.91 370.91 L 24.59 372.68 L 26.35 381.00 L 34.67 379.23 L 32.91 370.91 L 35.94 366.24 L 44.26 364.47 L 42.49 356.15 L 34.17 357.92 L 35.94 366.24 Z" />
</symbol>
</defs>
<!-- isDone: 0 -->
<rect width="700" height="500" style="fill:#fff;stroke-width:0" />
<use class="p0 borderLine" xlink:href="#bl0"/>
<use class="p1 borderLine" xlink:href="#bl1"/>
<use class="p2 borderLine" xlink:href="#bl2"/>
<use class="p3 borderLine" xlink:href="#bl3"/>
<use class="p4 borderLine" xlink:href="#bl4"/>
<use class="p5 borderLine" xlink:href="#bl5"/>
<use class="p6 borderLine" xlink:href="#bl6"/>
<use class="p7 borderLine" xlink:href="#bl7"/>
<use class="q0 outLine" xlink:href="#bl0"/>
<use class="q1 outLine" xlink:href="#bl1"/>
<use class="q2 outLine" xlink:href="#bl2"/>
<use class="q3 outLine" xlink:href="#bl3"/>
<use class="q4 outLine" xlink:href="#bl4"/>
<use class="q5 outLine" xlink:href="#bl5"/>
<use class="q6 outLine" xlink:href="#bl6"/>
<use class="q7 outLine" xlink:href="#bl7"/>
<circle onclick="fromCircle(1)" class="circle" cx="95.5880" cy="393.4084" r="6.5016" />
<text class="tLabel" x="95.59" y="373.41"></text>
<text class="nLabel" x="95.59" y="388.41">1</text>
<text class="belong" x="95.59" y="398.41">(1)</text>
<circle onclick="fromCircle(3)" class="circle" cx="79.9158" cy="338.9700" r="6.5016" />
<text class="tLabel" x="79.92" y="318.97"></text>
<text class="nLabel" x="79.92" y="333.97">3</text>
<text class="belong" x="79.92" y="343.97">(1, 2)</text>
<circle onclick="fromCircle(7)" class="circle" cx="76.8067" cy="322.2696" r="6.5016" />
<text class="tLabel" x="76.81" y="302.27"></text>
<text class="nLabel" x="76.81" y="317.27">7</text>
<text class="belong" x="76.81" y="327.27">(1, 2, 3)</text>
<circle onclick="fromCircle(15)" class="circle" cx="95.5296" cy="333.5503" r="6.5016" />
<text class="tLabel" x="95.53" y="313.55"></text>
<text class="nLabel" x="95.53" y="328.55">5</text>
<text class="belong" x="95.53" y="338.55">(1, 2, 3, 4)</text>
<circle onclick="fromCircle(2)" class="circle" cx="58.3134" cy="335.2256" r="6.5016" />
<text class="tLabel" x="58.31" y="315.23"></text>
<text class="nLabel" x="58.31" y="330.23">3</text>
<text class="belong" x="58.31" y="340.23">(2)</text>
<circle onclick="fromCircle(6)" class="circle" cx="53.9936" cy="368.5845" r="6.5016" />
<text class="tLabel" x="53.99" y="348.58"></text>
<text class="nLabel" x="53.99" y="363.58">1</text>
<text class="belong" x="53.99" y="373.58">(2, 3)</text>
<circle onclick="fromCircle(14)" class="circle" cx="43.0769" cy="377.7931" r="6.5016" />
<text class="tLabel" x="43.08" y="357.79"></text>
<text class="nLabel" x="43.08" y="372.79">1</text>
<text class="belong" x="43.08" y="382.79">(2, 3, 4)</text>
<circle onclick="fromCircle(30)" class="circle" cx="50.8792" cy="389.6960" r="6.5016" />
<text class="tLabel" x="50.88" y="369.70"></text>
<text class="nLabel" x="50.88" y="384.70">2</text>
<text class="belong" x="50.88" y="394.70">(2, 3, 4, 5)</text>
<circle onclick="fromCircle(62)" class="circle" cx="81.6773" cy="359.9717" r="6.5016" />
<text class="tLabel" x="81.68" y="339.97"></text>
<text class="nLabel" x="81.68" y="354.97">4</text>
<text class="belong" x="81.68" y="364.97">(2, 3, 4, 5, 6)</text>
<circle onclick="fromCircle(126)" class="circle" cx="93.1380" cy="350.7267" r="6.5016" />
<text class="tLabel" x="93.14" y="330.73"></text>
<text class="nLabel" x="93.14" y="345.73">8</text>
<text class="belong" x="93.14" y="355.73">(2, 3, 4, 5, 6, 7)</text>
<circle onclick="fromCircle(254)" class="circle" cx="39.2169" cy="361.1956" r="6.5016" />
<text class="tLabel" x="39.22" y="341.20"></text>
<text class="nLabel" x="39.22" y="356.20">5</text>
<text class="belong" x="39.22" y="366.20">(2, 3, 4, 5, 6, 7, 8)</text>
<circle onclick="fromCircle(10)" class="circle" cx="16.4967" cy="365.8181" r="6.5016" />
<text class="tLabel" x="16.50" y="345.82"></text>
<text class="nLabel" x="16.50" y="360.82">4</text>
<text class="belong" x="16.50" y="370.82">(2, 4)</text>
<circle onclick="fromCircle(18)" class="circle" cx="79.1050" cy="401.4778" r="6.5016" />
<text class="tLabel" x="79.10" y="381.48"></text>
<text class="nLabel" x="79.10" y="396.48">5</text>
<text class="belong" x="79.10" y="406.48">(2, 5)</text>
<circle onclick="fromCircle(38)" class="circle" cx="27.3627" cy="352.4805" r="6.5016" />
<text class="tLabel" x="27.36" y="332.48"></text>
<text class="nLabel" x="27.36" y="347.48">1</text>
<text class="belong" x="27.36" y="357.48">(2, 3, 6)</text>
<circle onclick="fromCircle(78)" class="circle" cx="53.7967" cy="352.2503" r="6.5016" />
<text class="tLabel" x="53.80" y="332.25"></text>
<text class="nLabel" x="53.80" y="347.25">1</text>
<text class="belong" x="53.80" y="357.25">(2, 3, 4, 7)</text>
<circle onclick="fromCircle(94)" class="circle" cx="109.5738" cy="355.3008" r="6.5016" />
<text class="tLabel" x="109.57" y="335.30"></text>
<text class="nLabel" x="109.57" y="350.30">1</text>
<text class="belong" x="109.57" y="360.30">(2, 3, 4, 5, 7)</text>
<circle onclick="fromCircle(4)" class="circle" cx="101.6541" cy="371.2782" r="6.5016" />
<text class="tLabel" x="101.65" y="351.28"></text>
<text class="nLabel" x="101.65" y="366.28">3</text>
<text class="belong" x="101.65" y="376.28">(3)</text>
<circle onclick="fromCircle(5)" class="circle" cx="41.7913" cy="342.6398" r="6.5016" />
<text class="tLabel" x="41.79" y="322.64"></text>
<text class="nLabel" x="41.79" y="337.64">1</text>
<text class="belong" x="41.79" y="347.64">(1, 3)</text>
<circle onclick="fromCircle(13)" class="circle" cx="85.0086" cy="371.9606" r="6.5016" />
<text class="tLabel" x="85.01" y="351.96"></text>
<text class="nLabel" x="85.01" y="366.96">2</text>
<text class="belong" x="85.01" y="376.96">(1, 3, 4)</text>
<circle onclick="fromCircle(125)" class="circle" cx="82.4920" cy="384.7708" r="6.5016" />
<text class="tLabel" x="82.49" y="364.77"></text>
<text class="nLabel" x="82.49" y="379.77">6</text>
<text class="belong" x="82.49" y="389.77">(1, 3, 4, 5, 6, 7)</text>
<circle onclick="fromCircle(12)" class="circle" cx="33.6710" cy="327.9447" r="6.5016" />
<text class="tLabel" x="33.67" y="307.94"></text>
<text class="nLabel" x="33.67" y="322.94">7</text>
<text class="belong" x="33.67" y="332.94">(3, 4)</text>
<circle onclick="fromCircle(8)" class="circle" cx="69.4263" cy="347.4052" r="6.5016" />
<text class="tLabel" x="69.43" y="327.41"></text>
<text class="nLabel" x="69.43" y="342.41">8</text>
<text class="belong" x="69.43" y="352.41">(4)</text>
<circle onclick="fromCircle(9)" class="circle" cx="66.7101" cy="390.2553" r="6.5016" />
<text class="tLabel" x="66.71" y="370.26"></text>
<text class="nLabel" x="66.71" y="385.26">3</text>
<text class="belong" x="66.71" y="395.26">(1, 4)</text>
<circle onclick="fromCircle(11)" class="circle" cx="68.0568" cy="375.4597" r="6.5016" />
<text class="tLabel" x="68.06" y="355.46"></text>
<text class="nLabel" x="68.06" y="370.46">5</text>
<text class="belong" x="68.06" y="380.46">(1, 2, 4)</text>
<circle onclick="fromCircle(16)" class="circle" cx="67.7477" cy="360.9717" r="6.5016" />
<text class="tLabel" x="67.75" y="340.97"></text>
<text class="nLabel" x="67.75" y="355.97">5</text>
<text class="belong" x="67.75" y="365.97">(5)</text>
<circle onclick="fromCircle(17)" class="circle" cx="54.1891" cy="406.0441" r="6.5016" />
<text class="tLabel" x="54.19" y="386.04"></text>
<text class="nLabel" x="54.19" y="401.04">5</text>
<text class="belong" x="54.19" y="411.04">(1, 5)</text>
<circle onclick="fromCircle(19)" class="circle" cx="50.0735" cy="320.2232" r="6.5016" />
<text class="tLabel" x="50.07" y="300.22"></text>
<text class="nLabel" x="50.07" y="315.22">5</text>
<text class="belong" x="50.07" y="325.22">(1, 2, 5)</text>
<circle onclick="fromCircle(128)" class="circle" cx="29.6297" cy="375.9563" r="6.5016" />
<text class="tLabel" x="29.63" y="355.96"></text>
<text class="nLabel" x="29.63" y="370.96">1</text>
<text class="belong" x="29.63" y="380.96">(8)</text>
<rect class="p0 borderLine" x="500.00" y="50.00" width="30.00" height="15.00" />
<rect class="q0" x="500.00" y="50.00" width="30.00" height="15.00" />
<text class="legend" x="540.00" y="65.00">Ball2017</text>
<rect class="p1 borderLine" x="500.00" y="90.00" width="30.00" height="15.00" />
<rect class="q1" x="500.00" y="90.00" width="30.00" height="15.00" />
<text class="legend" x="540.00" y="105.00">Courtois2015</text>
<rect class="p2 borderLine" x="500.00" y="130.00" width="30.00" height="15.00" />
<rect class="q2" x="500.00" y="130.00" width="30.00" height="15.00" />
<text class="legend" x="540.00" y="145.00">Hilton2017</text>
<rect class="p3 borderLine" x="500.00" y="170.00" width="30.00" height="15.00" />
<rect class="q3" x="500.00" y="170.00" width="30.00" height="15.00" />
<text class="legend" x="540.00" y="185.00">Ball2017</text>
<rect class="p4 borderLine" x="500.00" y="210.00" width="30.00" height="15.00" />
<rect class="q4" x="500.00" y="210.00" width="30.00" height="15.00" />
<text class="legend" x="540.00" y="225.00">Courtois2015</text>
<rect class="p5 borderLine" x="500.00" y="250.00" width="30.00" height="15.00" />
<rect class="q5" x="500.00" y="250.00" width="30.00" height="15.00" />
<text class="legend" x="540.00" y="265.00">Hilton2017</text>
<rect class="p6 borderLine" x="500.00" y="290.00" width="30.00" height="15.00" />
<rect class="q6" x="500.00" y="290.00" width="30.00" height="15.00" />
<text class="legend" x="540.00" y="305.00">0</text>
<rect class="p7 borderLine" x="500.00" y="330.00" width="30.00" height="15.00" />
<rect class="q7" x="500.00" y="330.00" width="30.00" height="15.00" />
<text class="legend" x="540.00" y="345.00">40</text>
</svg>
