<svg xmlns="http://www.w3.org/2000/svg" xmlns:xlink="http://www.w3.org/1999/xlink" width="700" height="500">
<defs>
<style type="text/css"><![CDATA[
  .borderLine {
	   stroke: none;
	   fill-opacity: 0.4;
  }
  .outLine {
	   stroke-width: 1;
	   fill: none;
  }
  .circle {
	   stroke: #888888;
	   stroke-width: 0.5;
	   fill: none;
    pointer-events: all;
  }
  .spcircle {
	   stroke: #FF2222;
	   stroke-width: 1;
	   fill: none;
    pointer-events: all;
  }
  .tLabel {
	   font-family: Arial;
    pointer-events: none;
	   font-size: 14px;
	   text-anchor: middle;
	   alignment-baseline: central;
  }
  .nLabel {
	   font-family: Arial;
    pointer-events: none;
	   font-size: 10px;
	   text-anchor: middle;
	   alignment-baseline: central;
  }
  .belong {
	   font-family: Arial;
    pointer-events: none;
	   font-size: 5px;
	   text-anchor: middle;
	   alignment-baseline: central;
  }
  .p0{
    stroke: none;
    fill: #e6194b;
  }
  .q0{
    fill: none;
    stroke: #e6194b;
  }
  .p1{
    stroke: none;
    fill: #3cb44b;
  }
  .q1{
    fill: none;
    stroke: #3cb44b;
  }
  .p2{
    stroke: none;
    fill: #ffe119;
  }
  .q2{
    fill: none;
    stroke: #ffe119;
  }
  .p3{
    stroke: none;
    fill: #0082c8;
  }
  .q3{
    fill: none;
    stroke: #0082c8;
  }
  .p4{
    stroke: none;
    fill: #f58231;
  }
  .q4{
    fill: none;
    stroke: #f58231;
  }
  .p5{
    stroke: none;
    fill: #911eb4;
  }
  .q5{
    fill: none;
    stroke: #911eb4;
  }
]]>
</style>
<symbol id="bl0">
<path d="M 133.96 165.46 L 163.29 136.12 L 133.96 106.79 L 104.62 136.12 L 133.96 165.46 L 133.96 206.14 L 115.91 206.14 L 144.92 239.80 L 173.93 206.14 L 212.43 206.14 L 212.43 210.10 L 250.39 182.06 L 212.43 154.02 L 212.43 132.55 L 183.10 103.21 L 212.43 73.88 L 241.77 103.21 L 212.43 132.55 L 212.43 154.02 L 191.72 182.06 L 212.43 210.10 L 212.43 206.14 L 221.06 206.14 L 221.06 211.39 L 191.72 182.06 L 221.06 152.73 L 250.39 182.06 L 221.06 211.39 L 221.06 206.14 L 304.33 206.14 L 333.67 176.80 L 363.00 206.14 L 333.67 235.47 L 304.33 206.14 L 173.93 206.14 L 144.92 181.14 L 115.91 206.14 L 133.96 206.14 L 133.96 210.47 L 115.59 210.47 L 144.92 181.14 L 174.26 210.47 L 144.92 239.80 L 115.59 210.47 L 133.96 210.47 L 133.96 263.24 L 131.60 263.33 L 129.26 263.62 L 126.95 264.09 L 124.68 264.74 L -22.49 -176.78 L 133.28 183.54 L 119.36 196.08 L 115.87 214.50 L 124.23 231.26 L 141.04 239.55 L 138.12 261.43 L 171.57 265.90 L 204.53 240.71 L 225.76 268.49 L 240.65 257.11 L 246.14 215.99 L 287.26 221.48 L 281.77 262.60 L 240.65 257.11 L 225.76 268.49 L 229.72 273.67 L 196.76 298.86 L 171.57 265.90 L 138.12 261.43 L 137.84 263.50 L 163.03 296.45 L 130.07 321.65 L 104.88 288.69 L 137.84 263.50 L 138.12 261.43 L 138.12 261.43 L 137.84 263.50 L 136.87 263.38 L 135.90 263.30 L 134.93 263.25 L 133.96 263.24 Z" />
</symbol>
<symbol id="bl1">
<path d="M 228.98 262.19 L 195.58 240.89 L 171.42 272.27 L 200.53 299.12 L 229.85 272.49 L 260.62 275.34 L 261.25 268.50 L 234.75 236.59 L 266.66 210.09 L 293.16 242.00 L 261.25 268.50 L 260.62 275.34 L 341.59 282.83 L 367.85 307.38 L 398.17 288.07 L 417.65 289.87 L 434.13 319.00 L 467.19 313.72 L 473.77 280.90 L 445.30 263.28 L 443.77 234.30 L 466.70 221.16 L 469.76 194.91 L 450.45 176.86 L 424.46 181.66 L 406.38 157.88 L 406.55 122.14 L 372.07 112.75 L 348.13 81.27 L 359.20 52.48 L 338.40 29.70 L 308.72 38.13 L 302.99 68.44 L 239.82 92.70 L 233.05 82.35 L 222.63 75.71 L 210.40 73.95 L 198.53 77.38 L -22.49 -333.23 L 267.48 117.83 L 265.73 151.98 L 297.53 164.58 L 327.00 210.42 L 308.99 222.00 L 317.80 181.46 L 358.34 190.27 L 349.53 230.81 L 308.99 222.00 L 327.00 210.42 L 354.69 253.49 L 353.69 254.16 L 352.73 254.87 L 351.79 255.62 L 350.88 256.41 L 232.10 124.98 L 232.81 124.31 L 233.49 123.63 L 234.15 122.92 L 234.79 122.20 L 311.30 187.15 L 306.84 194.26 L 304.58 202.34 L 304.69 210.72 L 307.18 218.74 L 290.45 226.70 L 289.60 225.06 L 288.66 223.48 L 287.62 221.96 L 286.49 220.51 L 360.67 158.67 L 361.81 159.96 L 363.02 161.17 L 364.29 162.32 L 365.64 163.38 L 351.23 182.64 L 347.11 180.06 L 342.61 178.20 L 337.87 177.11 L 333.02 176.81 L 331.32 100.57 L 241.76 102.56 L 213.08 132.54 L 183.10 103.86 L 211.78 73.89 L 241.76 102.56 L 331.32 100.57 L 331.03 87.25 L 332.19 87.20 L 333.34 87.10 L 334.49 86.96 L 335.64 86.78 L 365.29 249.31 L 363.19 249.77 L 361.13 250.39 L 359.13 251.15 L 357.18 252.06 L 347.04 232.25 L 349.85 230.60 L 352.47 228.65 L 354.86 226.42 L 356.98 223.94 L 423.54 274.77 L 422.00 276.99 L 420.67 279.34 L 419.57 281.81 L 418.69 284.37 L 399.88 278.89 L 378.75 250.01 L 345.43 263.03 L 292.12 247.50 L 292.89 244.12 L 293.26 240.67 L 293.21 237.20 L 292.76 233.76 L 413.41 210.55 L 413.52 211.07 L 413.63 211.58 L 413.75 212.10 L 413.88 212.61 Z" />
</symbol>
<symbol id="bl2">
<path d="M 160.96 370.84 L 130.43 351.32 L 104.23 376.36 L 122.34 407.74 L 157.12 397.59 L 181.51 415.03 L 179.01 444.96 L 204.15 461.40 L 230.57 447.11 L 230.57 417.07 L 282.64 386.01 L 303.17 399.95 L 327.04 393.16 L 337.17 370.50 L 326.29 348.19 L 339.29 332.14 L 313.21 311.03 L 271.95 315.37 L 267.61 274.11 L 308.87 269.77 L 313.21 311.03 L 339.29 332.14 L 423.76 227.81 L 460.49 227.96 L 468.58 192.14 L 435.35 176.49 L 412.89 205.55 L 363.00 206.47 L 334.20 235.47 L 304.37 207.54 L 174.25 209.93 L 156.67 183.59 L 125.40 188.58 L 116.88 219.08 L 141.04 239.55 L 137.84 263.50 L 135.08 263.26 L 132.31 263.28 L 129.56 263.57 L 126.84 264.11 L -22.49 -333.23 L 131.60 184.33 L 116.81 218.84 L 148.07 239.64 L 197.00 403.98 L 195.72 404.39 L 194.46 404.86 L 193.22 405.39 L 192.01 405.98 L 147.32 318.68 L 150.67 316.68 L 153.73 314.24 L 156.43 311.42 L 158.74 308.27 L 198.42 333.40 L 195.54 339.33 L 194.06 345.75 L 194.05 352.34 L 195.51 358.77 Z" />
</symbol>
<symbol id="bl3">
<path d="M 245.65 330.21 L 215.10 320.90 L 194.16 345.01 L 207.64 373.96 L 239.57 373.44 L 274.04 424.68 L 261.82 455.62 L 286.36 478.07 L 316.10 463.18 L 312.81 430.09 L 371.07 380.86 L 392.58 391.25 L 414.69 382.19 L 422.73 359.69 L 411.37 338.68 L 428.97 315.82 L 461.51 317.98 L 475.94 288.73 L 454.41 264.23 L 423.54 274.77 L 356.98 223.94 L 360.60 194.52 L 336.71 176.96 L 309.71 189.20 L 307.18 218.74 L 290.45 226.70 L 282.73 216.75 L 271.55 210.96 L 258.98 210.39 L 247.32 215.13 L 239.98 204.47 L 196.89 198.69 L 206.87 156.38 L 155.85 82.26 L 116.35 73.89 L 122.62 34.01 L -22.49 -176.78 L 375.55 338.71 L 374.66 339.42 L 373.80 340.17 L 372.98 340.95 L 372.18 341.76 L 304.50 277.68 L 310.58 271.27 L 311.71 312.74 L 270.24 313.87 L 269.11 272.40 L 310.58 271.27 L 304.50 277.68 L 285.26 259.46 L 287.20 257.19 L 288.90 254.72 L 290.35 252.10 L 291.51 249.35 L 342.99 268.12 L 341.91 271.83 L 341.33 275.65 L 341.25 279.52 L 341.68 283.36 L 319.28 287.38 L 317.31 280.88 L 313.90 275.00 L 309.22 270.06 L 303.54 266.34 L 306.43 260.55 L 290.19 252.42 L 250.83 265.53 L 237.72 226.17 L 277.08 213.06 L 290.19 252.42 L 306.43 260.55 L 320.54 232.37 L 322.46 233.25 L 324.43 233.98 L 326.46 234.57 L 328.52 235.02 L 309.52 341.70 L 278.96 365.85 L 299.31 399.06 L 295.55 420.14 L 294.27 419.94 L 292.99 419.80 L 291.70 419.72 L 290.41 419.69 L 290.41 321.91 L 292.01 321.86 L 293.61 321.73 L 295.20 321.51 L 296.77 321.21 L 301.47 342.35 L 300.74 342.53 L 300.01 342.72 L 299.28 342.93 L 298.56 343.16 L 291.47 321.89 L 318.24 283.30 L 273.68 268.47 L 273.23 267.13 L 274.19 266.79 L 275.14 266.41 L 276.08 266.01 L 277.00 265.57 L 277.36 266.30 L 267.19 274.64 L 261.69 286.59 L 261.96 299.74 L 267.96 311.45 Z" />
</symbol>
<symbol id="bl4">
<path d="M 133.50 351.19 L 104.56 374.49 L 121.68 407.47 L 157.39 397.21 L 154.40 360.17 L 223.56 293.59 L 220.99 290.92 L 179.51 290.13 L 180.30 248.65 L 221.78 249.44 L 220.99 290.92 L 223.56 293.59 L 271.65 247.29 L 284.30 260.43 L 242.82 259.64 L 243.61 218.16 L 285.09 218.95 L 284.30 260.43 L 271.65 247.29 L 305.58 214.62 L 313.32 185.00 L 343.21 178.40 L 362.07 160.24 L 397.08 165.73 L 411.84 133.51 L 384.80 110.60 L 355.44 130.44 L 298.90 111.18 L 299.86 108.35 L 318.18 145.58 L 280.95 163.89 L 262.64 126.67 L 299.86 108.35 L 298.90 111.18 L 168.28 66.71 L 158.17 33.83 L 123.77 33.17 L 112.40 65.64 L 139.70 86.58 L 139.12 107.25 L 163.28 136.94 L 137.51 165.24 L 136.25 210.23 L 115.60 209.65 L 145.74 181.15 L 174.24 211.29 L 144.10 239.79 L 115.60 209.65 L 136.25 210.23 L 134.77 263.25 L 132.77 263.26 L 130.78 263.41 L 128.80 263.69 L 126.84 264.11 L -22.49 -333.23 L 129.21 30.19 L 114.71 43.30 L 111.67 62.62 L 121.45 79.55 L 139.70 86.58 L 139.12 107.25 L 163.28 136.94 L 137.51 165.24 L 137.03 182.22 L 174.24 211.29 L 135.47 238.24 L 134.77 263.25 L 132.77 263.26 L 130.78 263.41 L 128.80 263.69 L 126.84 264.11 L -22.49 -333.23 L 129.21 30.19 L 114.71 43.30 L 111.67 62.62 L 121.45 79.55 L 139.70 86.58 L 139.12 107.25 L 163.28 136.94 L 137.51 165.24 L 137.03 182.22 L 174.24 211.29 L 135.47 238.24 L 134.77 263.25 L 132.77 263.26 L 130.78 263.41 L 128.80 263.69 L 126.84 264.11 L -22.49 -333.23 L 129.21 30.19 L 114.71 43.30 L 111.67 62.62 L 121.45 79.55 L 139.70 86.58 L 139.12 107.25 L 163.28 136.94 L 137.51 165.24 L 137.03 182.22 L 174.24 211.29 L 135.47 238.24 L 134.77 263.25 L 132.77 263.26 L 130.78 263.41 L 128.80 263.69 L 126.84 264.11 L -22.49 -333.23 L 129.21 30.19 L 114.71 43.30 L 111.67 62.62 L 121.45 79.55 L 139.70 86.58 L 139.12 107.25 L 163.28 136.94 L 137.51 165.24 L 137.03 182.22 L 174.24 211.29 L 135.47 238.24 L 134.77 263.25 L 132.77 263.26 L 130.78 263.41 L 128.80 263.69 L 126.84 264.11 L -22.49 -333.23 L 129.21 30.19 L 114.71 43.30 L 111.67 62.62 L 121.45 79.55 L 139.70 86.58 L 139.12 107.25 L 163.28 136.94 L 137.51 165.24 L 137.03 182.22 L 174.24 211.29 L 135.47 238.24 L 134.77 263.25 L 132.77 263.26 L 130.78 263.41 L 128.80 263.69 L 126.84 264.11 L -22.49 -333.23 L 129.21 30.19 L 114.71 43.30 L 111.67 62.62 L 121.45 79.55 L 139.70 86.58 L 139.12 107.25 L 163.28 136.94 L 137.51 165.24 L 137.03 182.22 L 174.24 211.29 L 135.47 238.24 L 134.77 263.25 L 132.77 263.26 L 130.78 263.41 L 128.80 263.69 L 126.84 264.11 L -22.49 -333.23 L 129.21 30.19 L 114.71 43.30 L 111.67 62.62 L 121.45 79.55 L 139.70 86.58 L 139.12 107.25 L 163.28 136.94 L 137.51 165.24 L 137.03 182.22 L 174.24 211.29 L 135.47 238.24 L 134.77 263.25 L 132.77 263.26 L 130.78 263.41 L 128.80 263.69 L 126.84 264.11 L -22.49 -333.23 L 129.21 30.19 L 114.71 43.30 L 111.67 62.62 L 121.45 79.55 L 139.70 86.58 L 139.12 107.25 L 163.28 136.94 L 137.51 165.24 L 137.03 182.22 L 174.24 211.29 L 135.47 238.24 L 134.77 263.25 L 132.77 263.26 L 130.78 263.41 L 128.80 263.69 L 126.84 264.11 L -22.49 -333.23 L 129.21 30.19 L 114.71 43.30 L 111.67 62.62 L 121.45 79.55 L 139.70 86.58 L 139.12 107.25 L 163.28 136.94 L 137.51 165.24 L 137.03 182.22 L 174.24 211.29 L 135.47 238.24 L 134.77 263.25 L 132.77 263.26 L 130.78 263.41 L 128.80 263.69 L 126.84 264.11 L -22.49 -333.23 L 129.21 30.19 L 114.71 43.30 L 111.67 62.62 L 121.45 79.55 L 139.70 86.58 L 139.12 107.25 L 163.28 136.94 L 137.51 165.24 L 137.03 182.22 L 174.24 211.29 L 135.47 238.24 L 134.77 263.25 L 132.77 263.26 L 130.78 263.41 L 128.80 263.69 L 126.84 264.11 L -22.49 -333.23 L 129.21 30.19 L 114.71 43.30 L 111.67 62.62 L 121.45 79.55 L 139.70 86.58 L 139.12 107.25 L 163.28 136.94 L 137.51 165.24 L 137.03 182.22 L 174.24 211.29 L 135.47 238.24 L 134.77 263.25 L 132.77 263.26 L 130.78 263.41 L 128.80 263.69 L 126.84 264.11 L -22.49 -333.23 L 129.21 30.19 L 114.71 43.30 L 111.67 62.62 L 121.45 79.55 L 139.70 86.58 L 139.12 107.25 L 163.28 136.94 L 137.51 165.24 L 137.03 182.22 L 174.24 211.29 L 135.47 238.24 L 134.77 263.25 L 132.77 263.26 L 130.78 263.41 L 128.80 263.69 L 126.84 264.11 L -22.49 -333.23 L 129.21 30.19 L 114.71 43.30 L 111.67 62.62 L 121.45 79.55 L 139.70 86.58 L 139.12 107.25 L 163.28 136.94 L 137.51 165.24 L 137.03 182.22 L 174.24 211.29 L 135.47 238.24 L 134.77 263.25 L 132.77 263.26 L 130.78 263.41 L 128.80 263.69 L 126.84 264.11 L -22.49 -333.23 L 129.21 30.19 L 114.71 43.30 L 111.67 62.62 L 121.45 79.55 L 139.70 86.58 L 139.12 107.25 L 163.28 136.94 L 137.51 165.24 L 137.03 182.22 L 174.24 211.29 L 135.47 238.24 L 134.77 263.25 L 132.77 263.26 L 130.78 263.41 L 128.80 263.69 L 126.84 264.11 L -22.49 -333.23 L 129.21 30.19 L 114.71 43.30 L 111.67 62.62 L 121.45 79.55 L 139.70 86.58 L 139.12 107.25 L 163.28 136.94 L 137.51 165.24 L 137.03 182.22 L 174.24 211.29 L 135.47 238.24 L 134.77 263.25 L 132.77 263.26 L 130.78 263.41 L 128.80 263.69 L 126.84 264.11 L -22.49 -333.23 L 129.21 30.19 L 114.71 43.30 L 111.67 62.62 L 121.45 79.55 L 139.70 86.58 L 139.12 107.25 L 163.28 136.94 L 137.51 165.24 L 137.03 182.22 L 174.24 211.29 L 135.47 238.24 L 134.77 263.25 L 132.77 263.26 L 130.78 263.41 L 128.80 263.69 L 126.84 264.11 L -22.49 -333.23 L 129.21 30.19 L 114.71 43.30 L 111.67 62.62 L 121.45 79.55 L 139.70 86.58 L 139.12 107.25 L 163.28 136.94 L 137.51 165.24 L 137.03 182.22 L 174.24 211.29 L 135.47 238.24 L 134.77 263.25 L 132.77 263.26 L 130.78 263.41 L 128.80 263.69 L 126.84 264.11 L -22.49 -333.23 L 129.21 30.19 L 114.71 43.30 L 111.67 62.62 L 121.45 79.55 L 139.70 86.58 L 139.12 107.25 L 163.28 136.94 L 137.51 165.24 L 137.03 182.22 L 174.24 211.29 L 135.47 238.24 L 134.77 263.25 L 132.77 263.26 L 130.78 263.41 L 128.80 263.69 L 126.84 264.11 L -22.49 -333.23 L 129.21 30.19 L 114.71 43.30 L 111.67 62.62 L 121.45 79.55 L 139.70 86.58 L 139.12 107.25 L 163.28 136.94 L 137.51 165.24 L 137.03 182.22 L 174.24 211.29 L 135.47 238.24 L 134.77 263.25 L 132.77 263.26 L 130.78 263.41 L 128.80 263.69 L 126.84 264.11 L -22.49 -333.23 L 129.21 30.19 L 114.71 43.30 L 111.67 62.62 L 121.45 79.55 L 139.70 86.58 L 139.12 107.25 L 163.28 136.94 L 137.51 165.24 L 137.03 182.22 L 174.24 211.29 L 135.47 238.24 L 134.77 263.25 L 132.77 263.26 L 130.78 263.41 L 128.80 263.69 L 126.84 264.11 L -22.49 -333.23 L 129.21 30.19 L 114.71 43.30 L 111.67 62.62 L 121.45 79.55 L 139.70 86.58 L 139.12 107.25 L 163.28 136.94 L 137.51 165.24 L 137.03 182.22 L 174.24 211.29 L 135.47 238.24 L 134.77 263.25 L 132.77 263.26 L 130.78 263.41 L 128.80 263.69 L 126.84 264.11 L -22.49 -333.23 L 129.21 30.19 L 114.71 43.30 L 111.67 62.62 L 121.45 79.55 L 139.70 86.58 L 139.12 107.25 L 163.28 136.94 L 137.51 165.24 L 137.03 182.22 L 174.24 211.29 L 135.47 238.24 L 134.77 263.25 L 132.77 263.26 L 130.78 263.41 L 128.80 263.69 L 126.84 264.11 L -22.49 -333.23 L 129.21 30.19 L 114.71 43.30 L 111.67 62.62 L 121.45 79.55 L 139.70 86.58 L 139.12 107.25 L 163.28 136.94 L 137.51 165.24 L 137.03 182.22 L 174.24 211.29 L 135.47 238.24 L 134.77 263.25 L 132.77 263.26 L 130.78 263.41 L 128.80 263.69 L 126.84 264.11 L -22.49 -333.23 L 129.21 30.19 L 114.71 43.30 L 111.67 62.62 L 121.45 79.55 L 139.70 86.58 L 139.12 107.25 L 163.28 136.94 L 137.51 165.24 L 137.03 182.22 L 174.24 211.29 L 135.47 238.24 L 134.77 263.25 L 132.77 263.26 L 130.78 263.41 L 128.80 263.69 L 126.84 264.11 L -22.49 -333.23 L 129.21 30.19 L 114.71 43.30 L 111.67 62.62 L 121.45 79.55 L 139.70 86.58 L 139.12 107.25 L 163.28 136.94 L 137.51 165.24 L 137.03 182.22 L 174.24 211.29 L 135.47 238.24 L 134.77 263.25 L 132.77 263.26 L 130.78 263.41 L 128.80 263.69 L 126.84 264.11 L -22.49 -333.23 L 129.21 30.19 L 114.71 43.30 L 111.67 62.62 L 121.45 79.55 L 139.70 86.58 L 139.12 107.25 L 163.28 136.94 L 137.51 165.24 L 137.03 182.22 L 174.24 211.29 L 135.47 238.24 L 134.77 263.25 L 132.77 263.26 L 130.78 263.41 L 128.80 263.69 L 126.84 264.11 L -22.49 -333.23 L 129.21 30.19 L 114.71 43.30 L 111.67 62.62 L 121.45 79.55 L 139.70 86.58 L 139.12 107.25 L 163.28 136.94 L 137.51 165.24 L 137.03 182.22 L 174.24 211.29 L 135.47 238.24 L 134.77 263.25 L 132.77 263.26 L 130.78 263.41 L 128.80 263.69 L 126.84 264.11 L -22.49 -333.23 L 129.21 30.19 L 114.71 43.30 L 111.67 62.62 L 121.45 79.55 L 139.70 86.58 L 139.12 107.25 L 163.28 136.94 L 137.51 165.24 L 137.03 182.22 L 174.24 211.29 L 135.47 238.24 L 134.77 263.25 L 132.77 263.26 L 130.78 263.41 L 128.80 263.69 L 126.84 264.11 L -22.49 -333.23 L 129.21 30.19 L 114.71 43.30 L 111.67 62.62 L 121.45 79.55 L 139.70 86.58 L 139.12 107.25 L 163.28 136.94 L 137.51 165.24 L 137.03 182.22 L 174.24 211.29 L 135.47 238.24 L 134.77 263.25 L 132.77 263.26 L 130.78 263.41 L 128.80 263.69 L 126.84 264.11 L -22.49 -333.23 L 129.21 30.19 L 114.71 43.30 L 111.67 62.62 L 121.45 79.55 L 139.70 86.58 L 139.12 107.25 L 163.28 136.94 L 137.51 165.24 L 137.03 182.22 L 174.24 211.29 L 135.47 238.24 L 134.77 263.25 L 132.77 263.26 L 130.78 263.41 L 128.80 263.69 L 126.84 264.11 L -22.49 -333.23 L 129.21 30.19 L 114.71 43.30 L 111.67 62.62 L 121.45 79.55 L 139.70 86.58 L 139.12 107.25 L 163.28 136.94 L 137.51 165.24 L 137.03 182.22 L 174.24 211.29 L 135.47 238.24 L 134.77 263.25 L 132.77 263.26 L 130.78 263.41 L 128.80 263.69 L 126.84 264.11 L -22.49 -333.23 L 129.21 30.19 L 114.71 43.30 L 111.67 62.62 L 121.45 79.55 L 139.70 86.58 L 139.12 107.25 L 163.28 136.94 L 137.51 165.24 L 137.03 182.22 L 174.24 211.29 L 135.47 238.24 L 134.77 263.25 L 113.69 271.36 L 104.63 292.05 L 112.95 313.04 L 133.73 321.90 Z" />
</symbol>
<symbol id="bl5">
<path d="M 137.85 449.31 L 105.60 465.81 L 113.96 501.05 L 150.18 501.31 L 159.04 466.19 L 169.33 461.61 L 145.18 407.32 L 106.46 392.44 L 121.35 353.72 L 160.07 368.60 L 145.18 407.32 L 169.33 461.61 L 260.65 421.00 L 239.51 373.48 L 196.40 361.01 L 216.02 320.65 L 206.21 298.59 L 173.84 281.71 L 182.98 246.36 L 163.37 202.26 L 171.73 198.55 L 156.84 237.27 L 155.42 236.73 L 144.48 265.19 L 161.34 303.10 L 123.43 319.95 L 106.58 282.05 L 144.48 265.19 L 155.42 236.73 L 118.12 222.39 L 133.00 183.67 L 171.73 198.55 L 163.37 202.26 L 145.88 162.93 L 107.15 148.04 L 122.04 109.32 L 160.76 124.20 L 145.88 162.93 L 182.98 246.36 L 227.45 257.87 L 206.21 298.59 L 216.02 320.65 L 250.01 337.18 L 239.51 373.48 L 260.65 421.00 L 295.40 405.54 L 152.43 84.06 L 113.71 69.18 L 128.60 30.45 L 167.32 45.34 L 152.43 84.06 L 295.40 405.54 L 366.68 373.85 L 405.29 388.78 L 420.38 350.22 L 381.89 334.98 L 366.49 373.41 L 234.59 429.53 L 216.86 459.09 L 183.26 451.37 L 157.08 462.51 L 120.75 451.11 L 103.77 485.19 L -178.94 605.47 L 290.41 -333.23 L 211.03 73.91 L 241.22 108.83 L 200.13 129.84 Z" />
</symbol>
</defs>
<!-- isDone: 0 -->
<rect width="700" height="500" style="fill:#fff;stroke-width:0" />
<use class="p0 borderLine" xlink:href="#bl0"/>
<use class="p1 borderLine" xlink:href="#bl1"/>
<use class="p2 borderLine" xlink:href="#bl2"/>
<use class="p3 borderLine" xlink:href="#bl3"/>
<use class="p4 borderLine" xlink:href="#bl4"/>
<use class="p5 borderLine" xlink:href="#bl5"/>
<use class="q0 outLine" xlink:href="#bl0"/>
<use class="q1 outLine" xlink:href="#bl1"/>
<use class="q2 outLine" xlink:href="#bl2"/>
<use class="q3 outLine" xlink:href="#bl3"/>
<use class="q4 outLine" xlink:href="#bl4"/>
<use class="q5 outLine" xlink:href="#bl5"/>
<circle onclick="fromCircle(1)" class="circle" cx="133.9577" cy="136.1217" r="9.5037" />
<text class="tLabel" x="133.96" y="116.12"></text>
<text class="nLabel" x="133.96" y="131.12">40</text>
<text class="belong" x="133.96" y="141.12">(1)</text>
<circle onclick="fromCircle(3)" class="circle" cx="290.4073" cy="136.1217" r="9.5037" />
<text class="tLabel" x="290.41" y="116.12"></text>
<text class="nLabel" x="290.41" y="131.12">1</text>
<text class="belong" x="290.41" y="141.12">(1, 2)</text>
<circle onclick="fromCircle(7)" class="circle" cx="200.6438" cy="269.7854" r="9.5037" />
<text class="tLabel" x="200.64" y="249.79"></text>
<text class="nLabel" x="200.64" y="264.79">1</text>
<text class="belong" x="200.64" y="274.79">(1, 2, 3)</text>
<circle onclick="fromCircle(15)" class="circle" cx="263.9555" cy="239.2952" r="9.5037" />
<text class="tLabel" x="263.96" y="219.30"></text>
<text class="nLabel" x="263.96" y="234.30">2</text>
<text class="belong" x="263.96" y="244.30">(1, 2, 3, 4)</text>
<circle onclick="fromCircle(2)" class="circle" cx="330.3749" cy="57.9197" r="9.5037" />
<text class="tLabel" x="330.37" y="37.92"></text>
<text class="nLabel" x="330.37" y="52.92">1</text>
<text class="belong" x="330.37" y="62.92">(2)</text>
<circle onclick="fromCircle(6)" class="circle" cx="442.2175" cy="205.0109" r="9.5037" />
<text class="tLabel" x="442.22" y="185.01"></text>
<text class="nLabel" x="442.22" y="200.01">3</text>
<text class="belong" x="442.22" y="210.01">(2, 3)</text>
<circle onclick="fromCircle(14)" class="circle" cx="370.5512" cy="278.1689" r="9.5037" />
<text class="tLabel" x="370.55" y="258.17"></text>
<text class="nLabel" x="370.55" y="273.17">7</text>
<text class="belong" x="370.55" y="283.17">(2, 3, 4)</text>
<circle onclick="fromCircle(10)" class="circle" cx="446.8568" cy="292.5712" r="9.5037" />
<text class="tLabel" x="446.86" y="272.57"></text>
<text class="nLabel" x="446.86" y="287.57">8</text>
<text class="belong" x="446.86" y="297.57">(2, 4)</text>
<circle onclick="fromCircle(18)" class="circle" cx="383.2041" cy="139.8906" r="9.5037" />
<text class="tLabel" x="383.20" y="119.89"></text>
<text class="nLabel" x="383.20" y="134.89">5</text>
<text class="belong" x="383.20" y="144.89">(2, 5)</text>
<circle onclick="fromCircle(4)" class="circle" cx="205.3716" cy="432.0933" r="9.5037" />
<text class="tLabel" x="205.37" y="412.09"></text>
<text class="nLabel" x="205.37" y="427.09">3</text>
<text class="belong" x="205.37" y="437.09">(3)</text>
<circle onclick="fromCircle(5)" class="circle" cx="144.9220" cy="210.4703" r="9.5037" />
<text class="tLabel" x="144.92" y="190.47"></text>
<text class="nLabel" x="144.92" y="205.47">3</text>
<text class="belong" x="144.92" y="215.47">(1, 3)</text>
<circle onclick="fromCircle(13)" class="circle" cx="223.2042" cy="349.0950" r="9.5037" />
<text class="tLabel" x="223.20" y="329.09"></text>
<text class="nLabel" x="223.20" y="344.09">5</text>
<text class="belong" x="223.20" y="354.09">(1, 3, 4)</text>
<circle onclick="fromCircle(12)" class="circle" cx="307.8350" cy="370.9896" r="9.5037" />
<text class="tLabel" x="307.83" y="350.99"></text>
<text class="nLabel" x="307.83" y="365.99">4</text>
<text class="belong" x="307.83" y="375.99">(3, 4)</text>
<circle onclick="fromCircle(20)" class="circle" cx="133.2649" cy="380.5197" r="9.5037" />
<text class="tLabel" x="133.26" y="360.52"></text>
<text class="nLabel" x="133.26" y="375.52">5</text>
<text class="belong" x="133.26" y="385.52">(3, 5)</text>
<circle onclick="fromCircle(21)" class="circle" cx="133.9577" cy="292.5712" r="9.5037" />
<text class="tLabel" x="133.96" y="272.57"></text>
<text class="nLabel" x="133.96" y="287.57">5</text>
<text class="belong" x="133.96" y="297.57">(1, 3, 5)</text>
<circle onclick="fromCircle(8)" class="circle" cx="290.4073" cy="449.0208" r="9.5037" />
<text class="tLabel" x="290.41" y="429.02"></text>
<text class="nLabel" x="290.41" y="444.02">1</text>
<text class="belong" x="290.41" y="454.02">(4)</text>
<circle onclick="fromCircle(9)" class="circle" cx="290.4073" cy="292.5712" r="9.5037" />
<text class="tLabel" x="290.41" y="272.57"></text>
<text class="nLabel" x="290.41" y="287.57">7</text>
<text class="belong" x="290.41" y="297.57">(1, 4)</text>
<circle onclick="fromCircle(11)" class="circle" cx="333.6664" cy="206.1369" r="14.6671" />
<text class="tLabel" x="333.67" y="186.14"></text>
<text class="nLabel" x="333.67" y="201.14">300</text>
<text class="belong" x="333.67" y="211.14">(1, 2, 4)</text>
<circle onclick="fromCircle(40)" class="circle" cx="393.4791" cy="361.9255" r="9.5037" />
<text class="tLabel" x="393.48" y="341.93"></text>
<text class="nLabel" x="393.48" y="356.93">1</text>
<text class="belong" x="393.48" y="366.93">(4, 6)</text>
<circle onclick="fromCircle(16)" class="circle" cx="140.5152" cy="57.2561" r="9.5037" />
<text class="tLabel" x="140.52" y="37.26"></text>
<text class="nLabel" x="140.52" y="52.26">1</text>
<text class="belong" x="140.52" y="62.26">(5)</text>
<circle onclick="fromCircle(17)" class="circle" cx="221.0560" cy="182.0598" r="9.5037" />
<text class="tLabel" x="221.06" y="162.06"></text>
<text class="nLabel" x="221.06" y="177.06">5</text>
<text class="belong" x="221.06" y="187.06">(1, 5)</text>
<circle onclick="fromCircle(19)" class="circle" cx="212.4308" cy="103.2124" r="9.5037" />
<text class="tLabel" x="212.43" y="83.21"></text>
<text class="nLabel" x="212.43" y="98.21">5</text>
<text class="belong" x="212.43" y="108.21">(1, 2, 5)</text>
<circle onclick="fromCircle(32)" class="circle" cx="132.2324" cy="478.1059" r="9.5037" />
<text class="tLabel" x="132.23" y="458.11"></text>
<text class="nLabel" x="132.23" y="473.11">2</text>
<text class="belong" x="132.23" y="483.11">(6)</text>
<rect class="p0 borderLine" x="500.00" y="50.00" width="30.00" height="15.00" />
<rect class="q0" x="500.00" y="50.00" width="30.00" height="15.00" />
<text class="legend" x="540.00" y="65.00">Ball2017</text>
<rect class="p1 borderLine" x="500.00" y="90.00" width="30.00" height="15.00" />
<rect class="q1" x="500.00" y="90.00" width="30.00" height="15.00" />
<text class="legend" x="540.00" y="105.00">Courtois2015</text>
<rect class="p2 borderLine" x="500.00" y="130.00" width="30.00" height="15.00" />
<rect class="q2" x="500.00" y="130.00" width="30.00" height="15.00" />
<text class="legend" x="540.00" y="145.00">Hilton2017</text>
<rect class="p3 borderLine" x="500.00" y="170.00" width="30.00" height="15.00" />
<rect class="q3" x="500.00" y="170.00" width="30.00" height="15.00" />
<text class="legend" x="540.00" y="185.00">Ball2017</text>
<rect class="p4 borderLine" x="500.00" y="210.00" width="30.00" height="15.00" />
<rect class="q4" x="500.00" y="210.00" width="30.00" height="15.00" />
<text class="legend" x="540.00" y="225.00">Courtois2015</text>
<rect class="p5 borderLine" x="500.00" y="250.00" width="30.00" height="15.00" />
<rect class="q5" x="500.00" y="250.00" width="30.00" height="15.00" />
<text class="legend" x="540.00" y="265.00">Hilton2017</text>
</svg>
