<svg xmlns="http://www.w3.org/2000/svg" xmlns:xlink="http://www.w3.org/1999/xlink" width="700" height="500">
<defs>
<style type="text/css"><![CDATA[
  .borderLine {
	   stroke: none;
	   fill-opacity: 0.4;
  }
  .outLine {
	   stroke-width: 1;
	   fill: none;
  }
  .circle {
	   stroke: #888888;
	   stroke-width: 0.5;
	   fill: none;
    pointer-events: all;
  }
  .spcircle {
	   stroke: #FF2222;
	   stroke-width: 1;
	   fill: none;
    pointer-events: all;
  }
  .tLabel {
	   font-family: Arial;
    pointer-events: none;
	   font-size: 14px;
	   text-anchor: middle;
	   alignment-baseline: central;
  }
  .nLabel {
	   font-family: Arial;
    pointer-events: none;
	   font-size: 10px;
	   text-anchor: middle;
	   alignment-baseline: central;
  }
  .belong {
	   font-family: Arial;
    pointer-events: none;
	   font-size: 5px;
	   text-anchor: middle;
	   alignment-baseline: central;
  }
  .p0{
    stroke: none;
    fill: #e6194b;
  }
  .q0{
    fill: none;
    stroke: #e6194b;
  }
  .p1{
    stroke: none;
    fill: #3cb44b;
  }
  .q1{
    fill: none;
    stroke: #3cb44b;
  }
  .p2{
    stroke: none;
    fill: #ffe119;
  }
  .q2{
    fill: none;
    stroke: #ffe119;
  }
  .p3{
    stroke: none;
    fill: #0082c8;
  }
  .q3{
    fill: none;
    stroke: #0082c8;
  }
  .p4{
    stroke: none;
    fill: #f58231;
  }
  .q4{
    fill: none;
    stroke: #f58231;
  }
  .p5{
    stroke: none;
    fill: #911eb4;
  }
  .q5{
    fill: none;
    stroke: #911eb4;
  }
]]>
</style>
</defs>
<!-- isDone: 0 -->
<rect width="700" height="500" style="fill:#fff;stroke-width:0" />
<circle onclick="fromCircle(1)" class="circle" cx="252.1864" cy="110.4872" r="4.2178" />
<text class="tLabel" x="252.19" y="90.49"></text>
<text class="nLabel" x="252.19" y="105.49">7</text>
<text class="belong" x="252.19" y="115.49">(1)</text>
<circle onclick="fromCircle(2)" class="circle" cx="252.1874" cy="105.7822" r="4.2178" />
<text class="tLabel" x="252.19" y="85.78"></text>
<text class="nLabel" x="252.19" y="100.78">10</text>
<text class="belong" x="252.19" y="110.78">(2)</text>
<circle onclick="fromCircle(6)" class="circle" cx="460.8914" cy="490.0000" r="4.2178" />
<text class="tLabel" x="460.89" y="470.00"></text>
<text class="nLabel" x="460.89" y="485.00">49</text>
<text class="belong" x="460.89" y="495.00">(2, 3)</text>
<circle onclick="fromCircle(14)" class="circle" cx="239.2523" cy="68.8004" r="4.2178" />
<text class="tLabel" x="239.25" y="48.80"></text>
<text class="nLabel" x="239.25" y="63.80">2</text>
<text class="belong" x="239.25" y="73.80">(2, 3, 4)</text>
<circle onclick="fromCircle(10)" class="circle" cx="259.7558" cy="60.6877" r="4.2178" />
<text class="tLabel" x="259.76" y="40.69"></text>
<text class="nLabel" x="259.76" y="55.69">3</text>
<text class="belong" x="259.76" y="65.69">(2, 4)</text>
<circle onclick="fromCircle(26)" class="circle" cx="256.0257" cy="66.1328" r="4.2178" />
<text class="tLabel" x="256.03" y="46.13"></text>
<text class="nLabel" x="256.03" y="61.13">1</text>
<text class="belong" x="256.03" y="71.13">(2, 4, 5)</text>
<circle onclick="fromCircle(38)" class="circle" cx="242.3466" cy="70.1135" r="4.2178" />
<text class="tLabel" x="242.35" y="50.11"></text>
<text class="nLabel" x="242.35" y="65.11">4</text>
<text class="belong" x="242.35" y="75.11">(2, 3, 6)</text>
<circle onclick="fromCircle(4)" class="circle" cx="278.8572" cy="72.8075" r="4.2178" />
<text class="tLabel" x="278.86" y="52.81"></text>
<text class="nLabel" x="278.86" y="67.81">287</text>
<text class="belong" x="278.86" y="77.81">(3)</text>
<circle onclick="fromCircle(5)" class="circle" cx="39.1086" cy="10.0000" r="4.2178" />
<text class="tLabel" x="39.11" y="-10.00"></text>
<text class="nLabel" x="39.11" y="5.00">1</text>
<text class="belong" x="39.11" y="15.00">(1, 3)</text>
<circle onclick="fromCircle(12)" class="circle" cx="252.2838" cy="107.7771" r="4.2178" />
<text class="tLabel" x="252.28" y="87.78"></text>
<text class="nLabel" x="252.28" y="102.78">16</text>
<text class="belong" x="252.28" y="112.78">(3, 4)</text>
<circle onclick="fromCircle(44)" class="circle" cx="253.4661" cy="108.3782" r="4.2178" />
<text class="tLabel" x="253.47" y="88.38"></text>
<text class="nLabel" x="253.47" y="103.38">1</text>
<text class="belong" x="253.47" y="113.38">(3, 4, 6)</text>
<circle onclick="fromCircle(20)" class="circle" cx="248.5022" cy="103.9561" r="4.2178" />
<text class="tLabel" x="248.50" y="83.96"></text>
<text class="nLabel" x="248.50" y="98.96">2</text>
<text class="belong" x="248.50" y="108.96">(3, 5)</text>
<circle onclick="fromCircle(36)" class="circle" cx="248.2866" cy="104.3840" r="4.2178" />
<text class="tLabel" x="248.29" y="84.38"></text>
<text class="nLabel" x="248.29" y="99.38">39</text>
<text class="belong" x="248.29" y="109.38">(3, 6)</text>
<circle onclick="fromCircle(8)" class="circle" cx="252.0008" cy="106.9617" r="4.2178" />
<text class="tLabel" x="252.00" y="86.96"></text>
<text class="nLabel" x="252.00" y="101.96">20</text>
<text class="belong" x="252.00" y="111.96">(4)</text>
<circle onclick="fromCircle(16)" class="circle" cx="253.3790" cy="106.7172" r="4.2178" />
<text class="tLabel" x="253.38" y="86.72"></text>
<text class="nLabel" x="253.38" y="101.72">2</text>
<text class="belong" x="253.38" y="111.72">(5)</text>
<circle onclick="fromCircle(32)" class="circle" cx="253.0249" cy="107.3435" r="4.2178" />
<text class="tLabel" x="253.02" y="87.34"></text>
<text class="nLabel" x="253.02" y="102.34">39</text>
<text class="belong" x="253.02" y="112.34">(6)</text>
<circle onclick="fromCircle(47)" class="circle" cx="246.1361" cy="94.3898" r="4.2178" />
<text class="tLabel" x="246.14" y="74.39"></text>
<text class="nLabel" x="246.14" y="89.39">1</text>
<text class="belong" x="246.14" y="99.39">(1, 2, 3, 4, 6)</text>
<rect class="p0 borderLine" x="500.00" y="50.00" width="30.00" height="15.00" />
<rect class="q0" x="500.00" y="50.00" width="30.00" height="15.00" />
<text class="legend" x="540.00" y="65.00">iba</text>
<rect class="p1 borderLine" x="500.00" y="90.00" width="30.00" height="15.00" />
<rect class="q1" x="500.00" y="90.00" width="30.00" height="15.00" />
<text class="legend" x="540.00" y="105.00">ic</text>
<rect class="p2 borderLine" x="500.00" y="130.00" width="30.00" height="15.00" />
<rect class="q2" x="500.00" y="130.00" width="30.00" height="15.00" />
<text class="legend" x="540.00" y="145.00">ida</text>
<rect class="p3 borderLine" x="500.00" y="170.00" width="30.00" height="15.00" />
<rect class="q3" x="500.00" y="170.00" width="30.00" height="15.00" />
<text class="legend" x="540.00" y="185.00">iea</text>
<rect class="p4 borderLine" x="500.00" y="210.00" width="30.00" height="15.00" />
<rect class="q4" x="500.00" y="210.00" width="30.00" height="15.00" />
<text class="legend" x="540.00" y="225.00">iss</text>
<rect class="p5 borderLine" x="500.00" y="250.00" width="30.00" height="15.00" />
<rect class="q5" x="500.00" y="250.00" width="30.00" height="15.00" />
<text class="legend" x="540.00" y="265.00">nas</text>
</svg>
