<svg xmlns="http://www.w3.org/2000/svg" xmlns:xlink="http://www.w3.org/1999/xlink" width="700" height="500">
<defs>
<style type="text/css"><![CDATA[
  .borderLine {
	   stroke: none;
	   fill-opacity: 0.4;
  }
  .outLine {
	   stroke-width: 1;
	   fill: none;
  }
  .circle {
	   stroke: #888888;
	   stroke-width: 0.5;
	   fill: none;
    pointer-events: all;
  }
  .spcircle {
	   stroke: #FF2222;
	   stroke-width: 1;
	   fill: none;
    pointer-events: all;
  }
  .tLabel {
	   font-family: Arial;
    pointer-events: none;
	   font-size: 14px;
	   text-anchor: middle;
	   alignment-baseline: central;
  }
  .nLabel {
	   font-family: Arial;
    pointer-events: none;
	   font-size: 10px;
	   text-anchor: middle;
	   alignment-baseline: central;
  }
  .belong {
	   font-family: Arial;
    pointer-events: none;
	   font-size: 5px;
	   text-anchor: middle;
	   alignment-baseline: central;
  }
  .p0{
    stroke: none;
    fill: #e6194b;
  }
  .q0{
    fill: none;
    stroke: #e6194b;
  }
  .p1{
    stroke: none;
    fill: #3cb44b;
  }
  .q1{
    fill: none;
    stroke: #3cb44b;
  }
  .p2{
    stroke: none;
    fill: #ffe119;
  }
  .q2{
    fill: none;
    stroke: #ffe119;
  }
  .p3{
    stroke: none;
    fill: #0082c8;
  }
  .q3{
    fill: none;
    stroke: #0082c8;
  }
  .p4{
    stroke: none;
    fill: #f58231;
  }
  .q4{
    fill: none;
    stroke: #f58231;
  }
  .p5{
    stroke: none;
    fill: #911eb4;
  }
  .q5{
    fill: none;
    stroke: #911eb4;
  }
]]>
</style>
<symbol id="bl0">
<path d="M 63.97 32.24 L 56.91 35.92 L 50.49 41.58 L 44.15 46.70 L 38.39 52.32 L 33.28 58.41 L 28.55 64.68 L 24.52 72.25 L 20.47 79.83 L 16.90 87.46 L 14.31 95.52 L 12.22 103.98 L 10.75 112.49 L 10.00 121.01 L 10.38 129.89 L 10.56 138.48 L 12.49 146.97 L 14.47 155.18 L 17.08 163.44 L 20.54 171.68 L 24.54 179.38 L 29.14 186.55 L 34.18 193.57 L 40.19 200.40 L 46.83 206.47 L 54.32 212.88 L 62.56 218.72 L 70.91 223.76 L 80.11 227.33 L 89.72 230.13 L 99.76 232.59 L 109.82 235.59 L 119.80 238.36 L 129.61 239.81 L 138.87 241.88 L 148.42 243.84 L 157.88 244.98 L 167.51 246.86 L 177.83 247.51 L 188.42 247.87 L 198.90 246.69 L 208.98 249.92 L 218.69 255.04 L 225.71 262.86 L 230.86 271.69 L 233.40 281.12 L 235.41 290.84 L 239.58 300.28 L 246.58 307.79 L 255.45 311.86 L 265.12 313.70 L 273.38 311.86 L 280.92 308.18 L 287.97 301.92 L 293.93 295.49 L 300.08 289.63 L 307.91 284.84 L 315.87 282.23 L 325.56 280.49 L 334.60 281.34 L 343.20 283.61 L 351.85 287.90 L 359.45 293.75 L 365.70 301.54 L 370.71 309.70 L 372.04 319.38 L 372.67 329.11 L 372.46 338.96 L 371.28 347.69 L 373.84 357.03 L 381.59 363.38 L 391.75 364.22 L 400.88 362.46 L 409.66 359.96 L 419.43 357.94 L 429.03 356.79 L 438.12 354.21 L 447.45 351.26 L 457.29 347.51 L 465.38 341.69 L 472.62 334.08 L 477.53 325.14 L 480.43 316.21 L 481.22 307.26 L 479.88 296.97 L 476.60 287.55 L 471.48 279.45 L 463.95 272.30 L 455.83 266.22 L 447.80 262.12 L 439.69 257.67 L 431.45 253.24 L 422.82 250.53 L 415.80 244.58 L 410.10 237.90 L 406.34 230.07 L 404.62 222.32 L 404.88 213.11 L 407.17 204.37 L 410.36 197.37 L 410.73 188.21 L 410.35 179.77 L 407.06 170.44 L 400.78 162.65 L 392.38 157.18 L 382.52 155.12 L 372.68 156.18 L 363.72 160.25 L 355.19 162.08 L 346.66 164.28 L 337.15 163.19 L 328.84 160.63 L 321.17 156.11 L 314.96 150.99 L 310.22 143.90 L 304.07 137.10 L 301.09 128.92 L 297.69 120.94 L 292.03 113.43 L 285.69 107.33 L 277.68 101.50 L 270.41 96.23 L 263.33 91.38 L 256.50 87.04 L 249.72 82.52 L 243.17 77.91 L 236.04 73.30 L 229.40 68.62 L 223.05 64.70 L 216.72 61.06 L 210.42 57.01 L 204.38 52.87 L 197.31 49.21 L 190.71 44.40 L 184.39 39.90 L 178.08 35.34 L 171.53 31.35 L 164.61 27.86 L 157.46 24.13 L 150.25 21.62 L 142.71 19.78 L 134.17 18.68 L 125.69 17.84 L 117.56 17.41 L 109.63 17.73 L 101.40 18.92 L 93.47 19.98 L 85.73 22.67 L 78.20 25.11 L 70.91 28.05 Z" />
</symbol>
<symbol id="bl1">
<path d="M 166.12 230.92 L 165.70 238.56 L 165.30 245.71 L 163.08 252.91 L 161.25 260.58 L 159.97 268.53 L 157.35 274.97 L 156.03 283.13 L 156.82 290.80 L 158.45 298.17 L 160.60 305.84 L 162.86 313.07 L 165.28 320.54 L 168.17 327.98 L 171.48 334.59 L 175.28 340.45 L 178.49 347.82 L 182.18 356.21 L 186.23 364.59 L 190.00 372.46 L 194.13 377.96 L 198.96 384.23 L 203.99 392.00 L 210.71 397.11 L 219.80 402.47 L 229.34 405.59 L 238.39 406.90 L 247.08 407.15 L 255.72 404.93 L 265.72 401.39 L 274.07 402.44 L 282.24 405.65 L 291.81 408.78 L 299.06 412.20 L 307.28 415.55 L 316.19 419.45 L 326.25 419.88 L 337.10 420.38 L 346.48 420.03 L 356.27 418.66 L 365.39 418.24 L 372.88 418.24 L 382.42 413.65 L 389.96 407.75 L 393.83 399.74 L 396.23 390.96 L 397.68 382.37 L 400.25 373.92 L 402.50 364.71 L 404.24 356.30 L 405.30 347.76 L 403.06 339.49 L 397.10 333.11 L 390.61 326.21 L 384.59 319.48 L 378.25 313.58 L 373.01 306.52 L 367.34 301.07 L 362.59 294.03 L 355.65 288.53 L 350.37 282.01 L 343.65 274.95 L 337.86 267.29 L 335.48 259.75 L 334.13 250.77 L 330.68 243.51 L 324.84 238.15 L 316.85 234.24 L 308.97 233.78 L 300.51 233.18 L 293.76 228.25 L 287.73 223.40 L 282.81 217.57 L 278.19 210.89 L 273.89 204.94 L 269.02 198.20 L 263.19 191.98 L 255.80 187.47 L 247.39 184.32 L 238.05 183.19 L 229.67 184.28 L 221.66 185.58 L 214.72 190.13 L 208.41 194.84 L 200.95 198.48 L 194.30 202.99 L 188.49 208.31 L 182.03 213.33 L 174.81 217.37 L 168.51 222.91 Z" />
</symbol>
<symbol id="bl2">
<path d="M 321.28 94.78 L 313.47 102.46 L 308.57 111.07 L 305.83 120.00 L 304.00 129.98 L 302.06 137.57 L 301.41 146.97 L 297.93 156.82 L 292.06 164.49 L 284.85 171.04 L 279.53 178.90 L 277.27 187.12 L 276.30 197.53 L 277.31 207.83 L 278.68 215.29 L 280.96 223.60 L 282.37 232.62 L 283.11 240.90 L 285.71 249.75 L 287.28 258.29 L 288.85 266.53 L 291.98 274.29 L 294.27 281.53 L 293.77 289.01 L 291.98 297.05 L 287.25 304.51 L 284.83 311.30 L 282.00 318.84 L 282.09 326.40 L 283.34 334.97 L 285.71 343.35 L 290.17 350.88 L 295.35 357.98 L 301.55 364.43 L 307.56 369.38 L 314.05 373.90 L 320.91 378.39 L 326.78 382.91 L 332.80 389.99 L 337.48 397.00 L 341.68 404.61 L 346.44 410.65 L 352.80 415.59 L 361.19 418.48 L 370.00 418.09 L 378.36 415.49 L 385.93 411.76 L 390.42 406.28 L 394.14 399.99 L 395.92 390.68 L 397.31 383.62 L 399.61 375.02 L 401.22 366.59 L 402.59 359.63 L 404.70 352.39 L 405.20 345.79 L 402.46 338.05 L 397.56 331.96 L 393.86 324.63 L 391.60 315.91 L 390.70 308.56 L 390.70 301.60 L 392.54 295.05 L 395.24 286.88 L 400.09 279.88 L 405.20 274.63 L 411.51 269.72 L 418.30 265.88 L 426.15 262.46 L 434.15 259.08 L 439.89 255.97 L 447.45 252.59 L 457.38 248.48 L 464.06 242.78 L 469.56 234.80 L 472.38 226.60 L 473.35 219.63 L 472.28 211.47 L 470.12 202.21 L 468.15 192.41 L 466.34 182.42 L 463.01 172.72 L 458.98 163.49 L 455.09 154.79 L 450.86 146.42 L 446.70 138.18 L 441.63 128.35 L 436.23 118.05 L 429.35 110.12 L 419.83 105.73 L 410.70 103.07 L 398.53 101.19 L 386.15 99.22 L 374.96 96.71 L 365.70 93.05 L 356.70 89.67 L 348.25 87.90 L 338.97 87.66 L 329.37 90.10 Z" />
</symbol>
<symbol id="bl3">
<path d="M 251.48 427.97 L 259.90 434.10 L 269.27 434.73 L 276.40 432.03 L 282.68 423.69 L 286.14 417.30 L 290.64 410.60 L 294.88 403.89 L 299.20 398.70 L 305.52 392.52 L 313.14 387.63 L 321.87 383.83 L 330.28 379.01 L 337.42 373.70 L 345.31 367.81 L 354.87 361.58 L 361.76 355.84 L 367.17 347.61 L 373.30 339.31 L 380.48 332.73 L 389.01 330.30 L 396.93 332.70 L 403.57 339.38 L 410.04 344.67 L 417.42 348.96 L 425.83 351.96 L 434.11 353.56 L 443.19 352.39 L 452.28 349.80 L 460.47 345.51 L 467.83 339.35 L 473.52 332.38 L 478.06 325.11 L 480.47 316.20 L 481.52 306.96 L 482.91 297.99 L 484.32 288.84 L 486.24 280.24 L 487.52 271.25 L 489.89 262.69 L 490.00 253.91 L 486.93 246.34 L 483.78 238.28 L 480.63 229.48 L 477.49 221.49 L 473.42 213.02 L 469.34 203.84 L 463.36 194.87 L 454.59 189.54 L 445.67 186.27 L 436.21 185.70 L 426.49 187.41 L 418.14 191.44 L 411.38 196.77 L 404.69 202.60 L 398.94 208.10 L 392.51 211.98 L 384.44 214.79 L 376.42 213.41 L 367.86 213.34 L 359.84 214.93 L 352.38 219.32 L 344.65 224.60 L 336.55 227.89 L 329.45 231.69 L 321.14 233.47 L 313.49 234.05 L 304.65 235.40 L 296.38 238.81 L 289.34 242.01 L 282.89 244.48 L 274.77 248.15 L 266.24 250.74 L 258.38 254.61 L 250.06 258.11 L 242.76 262.42 L 237.80 269.28 L 235.40 277.73 L 234.78 286.63 L 233.53 295.03 L 229.21 301.13 L 225.97 307.31 L 220.89 313.74 L 214.02 318.28 L 206.68 321.33 L 201.46 328.35 L 197.12 336.11 L 193.21 343.94 L 191.33 351.50 L 191.12 359.79 L 192.63 369.33 L 195.53 378.51 L 201.48 387.72 L 207.99 394.62 L 214.85 400.51 L 223.69 405.29 L 230.13 410.98 L 237.57 417.19 L 245.84 423.10 Z" />
</symbol>
<symbol id="bl4">
<path d="M 162.00 264.83 L 158.04 272.92 L 156.59 281.57 L 156.76 291.45 L 159.49 300.35 L 163.65 307.76 L 170.75 314.68 L 178.43 319.80 L 186.41 323.24 L 195.22 323.33 L 203.28 322.43 L 211.71 319.54 L 219.16 314.59 L 225.09 307.99 L 229.70 300.25 L 232.02 291.60 L 234.98 282.10 L 237.38 272.74 L 241.58 265.30 L 249.14 258.49 L 257.23 255.15 L 266.24 251.96 L 275.11 248.64 L 283.46 245.08 L 291.57 241.54 L 299.48 237.73 L 308.48 234.35 L 317.10 234.16 L 325.95 233.00 L 333.64 229.86 L 339.27 224.99 L 344.57 219.08 L 349.14 211.93 L 352.00 203.55 L 352.47 195.28 L 351.27 186.78 L 351.81 178.09 L 354.02 169.96 L 358.83 163.66 L 365.18 157.63 L 371.54 152.99 L 376.02 146.26 L 380.09 139.06 L 381.61 131.44 L 382.40 121.67 L 380.33 112.91 L 376.53 105.59 L 370.75 98.59 L 363.05 93.08 L 354.60 89.09 L 346.36 86.23 L 336.97 85.46 L 327.93 84.20 L 319.66 82.12 L 311.73 81.18 L 303.32 78.90 L 293.49 78.20 L 284.83 81.51 L 277.02 86.31 L 269.70 90.57 L 261.38 95.23 L 253.30 100.34 L 245.26 105.58 L 237.54 111.54 L 231.04 118.32 L 227.31 127.31 L 225.71 136.73 L 224.88 144.92 L 223.76 153.45 L 221.20 161.75 L 219.37 169.50 L 215.47 176.05 L 211.84 183.85 L 208.45 191.50 L 205.05 199.26 L 202.87 206.97 L 200.15 214.75 L 199.93 223.69 L 200.44 231.64 L 198.20 240.23 L 191.82 246.63 L 182.57 248.58 L 174.89 251.75 L 167.74 257.00 Z" />
</symbol>
<symbol id="bl5">
<path d="M 284.68 434.49 L 283.82 424.81 L 283.03 415.36 L 278.63 406.45 L 270.18 401.58 L 261.26 401.92 L 253.01 407.68 L 249.56 415.88 L 247.54 424.60 L 245.79 433.62 L 244.29 442.84 L 242.60 452.25 L 242.12 462.08 L 245.39 471.38 L 252.11 478.66 L 261.30 482.59 L 271.31 482.47 L 280.14 478.48 L 286.64 471.41 L 289.95 462.37 L 289.56 452.96 L 287.54 443.73 Z" />
</symbol>
</defs>
<!-- isDone: 0 -->
<rect width="700" height="500" style="fill:#fff;stroke-width:0" />
<use class="p0 borderLine" xlink:href="#bl0"/>
<use class="p1 borderLine" xlink:href="#bl1"/>
<use class="p2 borderLine" xlink:href="#bl2"/>
<use class="p3 borderLine" xlink:href="#bl3"/>
<use class="p4 borderLine" xlink:href="#bl4"/>
<use class="p5 borderLine" xlink:href="#bl5"/>
<use class="q0 outLine" xlink:href="#bl0"/>
<use class="q1 outLine" xlink:href="#bl1"/>
<use class="q2 outLine" xlink:href="#bl2"/>
<use class="q3 outLine" xlink:href="#bl3"/>
<use class="q4 outLine" xlink:href="#bl4"/>
<use class="q5 outLine" xlink:href="#bl5"/>
<circle onclick="fromCircle(1)" class="circle" cx="118.3038" cy="125.3545" r="89.9944" />
<text class="tLabel" x="118.30" y="105.35"></text>
<text class="nLabel" x="118.30" y="120.35">40</text>
<text class="belong" x="118.30" y="130.35">(1)</text>
<circle onclick="fromCircle(3)" class="circle" cx="183.2156" cy="231.6413" r="14.2294" />
<text class="tLabel" x="183.22" y="211.64"></text>
<text class="nLabel" x="183.22" y="226.64">1</text>
<text class="belong" x="183.22" y="236.64">(1, 2)</text>
<circle onclick="fromCircle(7)" class="circle" cx="388.2809" cy="347.7149" r="14.2294" />
<text class="tLabel" x="388.28" y="327.71"></text>
<text class="nLabel" x="388.28" y="342.71">1</text>
<text class="belong" x="388.28" y="352.71">(1, 2, 3)</text>
<circle onclick="fromCircle(15)" class="circle" cx="311.4720" cy="258.4479" r="20.1234" />
<text class="tLabel" x="311.47" y="238.45"></text>
<text class="nLabel" x="311.47" y="253.45">2</text>
<text class="belong" x="311.47" y="263.45">(1, 2, 3, 4)</text>
<circle onclick="fromCircle(2)" class="circle" cx="320.4778" cy="402.9253" r="14.2294" />
<text class="tLabel" x="320.48" y="382.93"></text>
<text class="nLabel" x="320.48" y="397.93">1</text>
<text class="belong" x="320.48" y="407.93">(2)</text>
<circle onclick="fromCircle(6)" class="circle" cx="366.5018" cy="388.7092" r="24.6460" />
<text class="tLabel" x="366.50" y="368.71"></text>
<text class="nLabel" x="366.50" y="383.71">3</text>
<text class="belong" x="366.50" y="393.71">(2, 3)</text>
<circle onclick="fromCircle(14)" class="circle" cx="327.4073" cy="325.7824" r="37.6474" />
<text class="tLabel" x="327.41" y="305.78"></text>
<text class="nLabel" x="327.41" y="320.78">7</text>
<text class="belong" x="327.41" y="330.78">(2, 3, 4)</text>
<circle onclick="fromCircle(10)" class="circle" cx="240.1436" cy="358.6617" r="40.2467" />
<text class="tLabel" x="240.14" y="338.66"></text>
<text class="nLabel" x="240.14" y="353.66">8</text>
<text class="belong" x="240.14" y="363.66">(2, 4)</text>
<circle onclick="fromCircle(18)" class="circle" cx="194.5950" cy="285.1039" r="31.8178" />
<text class="tLabel" x="194.60" y="265.10"></text>
<text class="nLabel" x="194.60" y="280.10">5</text>
<text class="belong" x="194.60" y="290.10">(2, 5)</text>
<circle onclick="fromCircle(4)" class="circle" cx="411.3902" cy="133.9027" r="24.6460" />
<text class="tLabel" x="411.39" y="113.90"></text>
<text class="nLabel" x="411.39" y="128.90">3</text>
<text class="belong" x="411.39" y="138.90">(3)</text>
<circle onclick="fromCircle(5)" class="circle" cx="380.9177" cy="184.5002" r="24.6460" />
<text class="tLabel" x="380.92" y="164.50"></text>
<text class="nLabel" x="380.92" y="179.50">3</text>
<text class="belong" x="380.92" y="189.50">(1, 3)</text>
<circle onclick="fromCircle(13)" class="circle" cx="374.1698" cy="251.8741" r="31.8178" />
<text class="tLabel" x="374.17" y="231.87"></text>
<text class="nLabel" x="374.17" y="246.87">5</text>
<text class="belong" x="374.17" y="256.87">(1, 3, 4)</text>
<circle onclick="fromCircle(12)" class="circle" cx="438.8955" cy="219.6165" r="28.4587" />
<text class="tLabel" x="438.90" y="199.62"></text>
<text class="nLabel" x="438.90" y="214.62">4</text>
<text class="belong" x="438.90" y="224.62">(3, 4)</text>
<circle onclick="fromCircle(20)" class="circle" cx="343.9496" cy="125.6834" r="31.8178" />
<text class="tLabel" x="343.95" y="105.68"></text>
<text class="nLabel" x="343.95" y="120.68">5</text>
<text class="belong" x="343.95" y="130.68">(3, 5)</text>
<circle onclick="fromCircle(21)" class="circle" cx="314.4058" cy="195.8607" r="31.8178" />
<text class="tLabel" x="314.41" y="175.86"></text>
<text class="nLabel" x="314.41" y="190.86">5</text>
<text class="belong" x="314.41" y="200.86">(1, 3, 5)</text>
<circle onclick="fromCircle(8)" class="circle" cx="473.3633" cy="257.6604" r="14.2294" />
<text class="tLabel" x="473.36" y="237.66"></text>
<text class="nLabel" x="473.36" y="252.66">1</text>
<text class="belong" x="473.36" y="262.66">(4)</text>
<circle onclick="fromCircle(9)" class="circle" cx="435.8411" cy="307.6698" r="37.6474" />
<text class="tLabel" x="435.84" y="287.67"></text>
<text class="nLabel" x="435.84" y="302.67">7</text>
<text class="belong" x="435.84" y="312.67">(1, 4)</text>
<circle onclick="fromCircle(11)" class="circle" cx="264.4839" cy="284.0493" r="24.6460" />
<text class="tLabel" x="264.48" y="264.05"></text>
<text class="nLabel" x="264.48" y="279.05">3</text>
<text class="belong" x="264.48" y="289.05">(1, 2, 4)</text>
<circle onclick="fromCircle(40)" class="circle" cx="266.3749" cy="418.2341" r="14.2294" />
<text class="tLabel" x="266.37" y="398.23"></text>
<text class="nLabel" x="266.37" y="413.23">1</text>
<text class="belong" x="266.37" y="423.23">(4, 6)</text>
<circle onclick="fromCircle(16)" class="circle" cx="297.2751" cy="94.7763" r="14.2294" />
<text class="tLabel" x="297.28" y="74.78"></text>
<text class="nLabel" x="297.28" y="89.78">1</text>
<text class="belong" x="297.28" y="99.78">(5)</text>
<circle onclick="fromCircle(17)" class="circle" cx="263.8327" cy="139.0302" r="31.8178" />
<text class="tLabel" x="263.83" y="119.03"></text>
<text class="nLabel" x="263.83" y="134.03">5</text>
<text class="belong" x="263.83" y="144.03">(1, 5)</text>
<circle onclick="fromCircle(19)" class="circle" cx="238.4796" cy="221.5046" r="31.8178" />
<text class="tLabel" x="238.48" y="201.50"></text>
<text class="nLabel" x="238.48" y="216.50">5</text>
<text class="belong" x="238.48" y="226.50">(1, 2, 5)</text>
<circle onclick="fromCircle(32)" class="circle" cx="265.9958" cy="458.9709" r="20.1234" />
<text class="tLabel" x="266.00" y="438.97"></text>
<text class="nLabel" x="266.00" y="453.97">2</text>
<text class="belong" x="266.00" y="463.97">(6)</text>
<rect class="p0 borderLine" x="500.00" y="50.00" width="30.00" height="15.00" />
<rect class="q0" x="500.00" y="50.00" width="30.00" height="15.00" />
<text class="legend" x="540.00" y="65.00">Ball2017</text>
<rect class="p1 borderLine" x="500.00" y="90.00" width="30.00" height="15.00" />
<rect class="q1" x="500.00" y="90.00" width="30.00" height="15.00" />
<text class="legend" x="540.00" y="105.00">Courtois2015</text>
<rect class="p2 borderLine" x="500.00" y="130.00" width="30.00" height="15.00" />
<rect class="q2" x="500.00" y="130.00" width="30.00" height="15.00" />
<text class="legend" x="540.00" y="145.00">Hilton2017</text>
<rect class="p3 borderLine" x="500.00" y="170.00" width="30.00" height="15.00" />
<rect class="q3" x="500.00" y="170.00" width="30.00" height="15.00" />
<text class="legend" x="540.00" y="185.00">Ball2017</text>
<rect class="p4 borderLine" x="500.00" y="210.00" width="30.00" height="15.00" />
<rect class="q4" x="500.00" y="210.00" width="30.00" height="15.00" />
<text class="legend" x="540.00" y="225.00">Ball2017</text>
<rect class="p5 borderLine" x="500.00" y="250.00" width="30.00" height="15.00" />
<rect class="q5" x="500.00" y="250.00" width="30.00" height="15.00" />
<text class="legend" x="540.00" y="265.00">Ball2017</text>
</svg>
