<svg xmlns="http://www.w3.org/2000/svg" xmlns:xlink="http://www.w3.org/1999/xlink" width="700" height="500">
<defs>
<style type="text/css"><![CDATA[
  .borderLine {
	   stroke: none;
	   fill-opacity: 0.4;
  }
  .outLine {
	   stroke-width: 1;
	   fill: none;
  }
  .circle {
	   stroke: #888888;
	   stroke-width: 0.5;
	   fill: none;
    pointer-events: all;
  }
  .spcircle {
	   stroke: #FF2222;
	   stroke-width: 1;
	   fill: none;
    pointer-events: all;
  }
  .tLabel {
	   font-family: Arial;
    pointer-events: none;
	   font-size: 14px;
	   text-anchor: middle;
	   alignment-baseline: central;
  }
  .nLabel {
	   font-family: Arial;
    pointer-events: none;
	   font-size: 10px;
	   text-anchor: middle;
	   alignment-baseline: central;
  }
  .belong {
	   font-family: Arial;
    pointer-events: none;
	   font-size: 5px;
	   text-anchor: middle;
	   alignment-baseline: central;
  }
  .p0{
    stroke: none;
    fill: #e6194b;
  }
  .q0{
    fill: none;
    stroke: #e6194b;
  }
  .p1{
    stroke: none;
    fill: #3cb44b;
  }
  .q1{
    fill: none;
    stroke: #3cb44b;
  }
  .p2{
    stroke: none;
    fill: #ffe119;
  }
  .q2{
    fill: none;
    stroke: #ffe119;
  }
  .p3{
    stroke: none;
    fill: #0082c8;
  }
  .q3{
    fill: none;
    stroke: #0082c8;
  }
  .p4{
    stroke: none;
    fill: #f58231;
  }
  .q4{
    fill: none;
    stroke: #f58231;
  }
  .p5{
    stroke: none;
    fill: #911eb4;
  }
  .q5{
    fill: none;
    stroke: #911eb4;
  }
]]>
</style>
<symbol id="bl0">
<path d="M 30.12 361.21 L -21.25 383.11 L -11.40 438.08 L 44.38 440.78 L 59.49 387.02 L 295.21 287.76 L 333.99 315.12 L 375.61 292.29 L 373.39 244.88 L 329.82 226.05 L 322.24 175.88 L 356.41 149.96 L 353.16 107.20 L 315.46 86.74 L 277.84 107.33 L 210.84 64.26 L 209.17 13.38 L 161.01 -3.13 L 128.49 36.05 L 153.57 80.35 L 66.62 259.57 L 30.46 258.26 L 5.12 284.08 L 7.10 320.21 L 35.12 343.10 Z" />
</symbol>
<symbol id="bl1">
<path d="M 160.46 260.91 L 117.82 260.22 L 93.90 295.53 L 110.36 334.88 L 152.30 342.63 L 176.47 417.33 L 145.46 461.36 L 179.13 503.39 L 228.87 482.75 L 222.89 429.23 L 270.58 384.29 L 305.74 398.30 L 339.09 380.40 L 346.85 343.36 L 323.49 313.58 L 376.84 208.46 L 418.83 207.70 L 441.77 172.52 L 425.51 133.79 L 384.33 125.53 L 376.40 98.90 L 408.42 55.51 L 375.55 12.75 L 325.38 32.53 L 330.54 86.22 L 215.43 191.64 L 180.79 177.12 L 147.26 194.06 L 138.40 230.56 L 160.42 260.99 Z" />
</symbol>
<symbol id="bl2">
<path d="M 129.81 197.54 L 83.58 178.99 L 48.76 214.61 L 68.34 260.40 L 118.15 259.83 L 118.26 260.00 L 175.48 274.66 L 168.48 333.31 L 168.59 333.47 L 149.39 365.32 L 160.84 400.70 L 195.07 415.26 L 228.50 398.97 L 242.92 410.87 L 237.06 458.72 L 277.97 484.21 L 318.34 457.87 L 311.47 410.15 L 360.91 367.60 L 397.39 383.12 L 431.91 363.63 L 437.48 324.39 L 409.74 296.07 L 409.73 296.08 L 456.71 285.05 L 466.45 237.79 L 427.68 209.07 L 385.31 232.18 L 287.93 178.58 L 292.67 169.97 L 310.32 230.85 L 249.44 248.51 L 231.79 187.63 L 292.67 169.97 L 287.93 178.58 L 254.93 160.41 L 253.69 115.07 L 213.50 94.03 L 175.53 118.86 L 178.67 164.11 Z" />
</symbol>
<symbol id="bl3">
<path d="M 83.26 169.01 L 74.43 115.26 L 20.24 109.72 L 0.73 160.58 L 44.70 192.72 L 46.07 255.08 L 10.49 273.98 L 4.45 313.82 L 32.85 342.40 L 72.73 336.64 L 79.56 346.42 L 60.72 377.84 L 71.61 412.82 L 104.96 427.99 L 138.49 413.21 L 157.00 429.93 L 147.34 472.89 L 179.11 503.39 L 221.64 491.98 L 233.89 449.68 L 233.88 449.68 L 272.32 483.91 L 317.60 459.42 L 309.99 408.51 L 259.54 398.32 L 200.34 262.98 L 226.25 231.08 L 215.28 191.48 L 176.65 177.46 L 142.83 200.81 Z" />
</symbol>
<symbol id="bl4">
<path d="M 213.95 58.55 L 198.83 3.30 L 141.75 8.03 L 135.92 65.01 L 190.86 81.19 L 197.94 97.63 L 171.86 129.30 L 182.48 168.93 L 220.90 183.32 L 254.93 160.41 L 385.31 232.18 L 388.22 280.00 L 432.68 297.87 L 467.88 265.38 L 453.61 219.64 L 456.68 216.02 L 508.88 220.24 L 529.46 172.08 L 490.32 137.29 L 444.90 163.35 Z" />
</symbol>
<symbol id="bl5">
<path d="M 85.96 132.92 L 28.73 105.66 L 1.48 162.89 L 58.71 190.15 L 85.96 132.92 L 86.31 132.80 L 143.54 160.05 L 170.79 102.82 L 113.56 75.57 L 86.31 132.80 Z" />
</symbol>
</defs>
<!-- isDone: 0 -->
<rect width="700" height="500" style="fill:#fff;stroke-width:0" />
<use class="p0 borderLine" xlink:href="#bl0"/>
<use class="p1 borderLine" xlink:href="#bl1"/>
<use class="p2 borderLine" xlink:href="#bl2"/>
<use class="p3 borderLine" xlink:href="#bl3"/>
<use class="p4 borderLine" xlink:href="#bl4"/>
<use class="p5 borderLine" xlink:href="#bl5"/>
<use class="q0 outLine" xlink:href="#bl0"/>
<use class="q1 outLine" xlink:href="#bl1"/>
<use class="q2 outLine" xlink:href="#bl2"/>
<use class="q3 outLine" xlink:href="#bl3"/>
<use class="q4 outLine" xlink:href="#bl4"/>
<use class="q5 outLine" xlink:href="#bl5"/>
<circle onclick="fromCircle(1)" class="circle" cx="18.1835" cy="404.4108" r="8.1835" />
<text class="tLabel" x="18.18" y="384.41"></text>
<text class="nLabel" x="18.18" y="399.41">40</text>
<text class="belong" x="18.18" y="409.41">(1)</text>
<circle onclick="fromCircle(3)" class="circle" cx="271.0538" cy="209.2387" r="4.2852" />
<text class="tLabel" x="271.05" y="189.24"></text>
<text class="nLabel" x="271.05" y="204.24">1</text>
<text class="belong" x="271.05" y="214.24">(1, 2)</text>
<circle onclick="fromCircle(7)" class="circle" cx="336.5160" cy="270.3684" r="4.2852" />
<text class="tLabel" x="336.52" y="250.37"></text>
<text class="nLabel" x="336.52" y="265.37">1</text>
<text class="belong" x="336.52" y="275.37">(1, 2, 3)</text>
<circle onclick="fromCircle(15)" class="circle" cx="182.3766" cy="221.9136" r="4.2852" />
<text class="tLabel" x="182.38" y="201.91"></text>
<text class="nLabel" x="182.38" y="216.91">2</text>
<text class="belong" x="182.38" y="226.91">(1, 2, 3, 4)</text>
<circle onclick="fromCircle(2)" class="circle" cx="363.5992" cy="55.9473" r="4.2852" />
<text class="tLabel" x="363.60" y="35.95"></text>
<text class="nLabel" x="363.60" y="50.95">1</text>
<text class="belong" x="363.60" y="60.95">(2)</text>
<circle onclick="fromCircle(6)" class="circle" cx="303.2008" cy="353.5512" r="4.2852" />
<text class="tLabel" x="303.20" y="333.55"></text>
<text class="nLabel" x="303.20" y="348.55">3</text>
<text class="belong" x="303.20" y="358.55">(2, 3)</text>
<circle onclick="fromCircle(14)" class="circle" cx="193.9189" cy="370.4514" r="4.2852" />
<text class="tLabel" x="193.92" y="350.45"></text>
<text class="nLabel" x="193.92" y="365.45">7</text>
<text class="belong" x="193.92" y="375.45">(2, 3, 4)</text>
<circle onclick="fromCircle(10)" class="circle" cx="190.2639" cy="459.9742" r="4.2852" />
<text class="tLabel" x="190.26" y="439.97"></text>
<text class="nLabel" x="190.26" y="454.97">8</text>
<text class="belong" x="190.26" y="464.97">(2, 4)</text>
<circle onclick="fromCircle(18)" class="circle" cx="397.1245" cy="168.4855" r="4.2852" />
<text class="tLabel" x="397.12" y="148.49"></text>
<text class="nLabel" x="397.12" y="163.49">5</text>
<text class="belong" x="397.12" y="173.49">(2, 5)</text>
<circle onclick="fromCircle(4)" class="circle" cx="394.8884" cy="338.3653" r="4.2852" />
<text class="tLabel" x="394.89" y="318.37"></text>
<text class="nLabel" x="394.89" y="333.37">3</text>
<text class="belong" x="394.89" y="343.37">(3)</text>
<circle onclick="fromCircle(5)" class="circle" cx="237.7438" cy="292.3601" r="4.2852" />
<text class="tLabel" x="237.74" y="272.36"></text>
<text class="nLabel" x="237.74" y="287.36">3</text>
<text class="belong" x="237.74" y="297.36">(1, 3)</text>
<circle onclick="fromCircle(13)" class="circle" cx="92.8173" cy="222.8546" r="4.2852" />
<text class="tLabel" x="92.82" y="202.85"></text>
<text class="nLabel" x="92.82" y="217.85">5</text>
<text class="belong" x="92.82" y="227.85">(1, 3, 4)</text>
<circle onclick="fromCircle(12)" class="circle" cx="277.4996" cy="439.3895" r="4.2852" />
<text class="tLabel" x="277.50" y="419.39"></text>
<text class="nLabel" x="277.50" y="434.39">4</text>
<text class="belong" x="277.50" y="444.39">(3, 4)</text>
<circle onclick="fromCircle(20)" class="circle" cx="424.5820" cy="253.7883" r="4.2852" />
<text class="tLabel" x="424.58" y="233.79"></text>
<text class="nLabel" x="424.58" y="248.79">5</text>
<text class="belong" x="424.58" y="258.79">(3, 5)</text>
<circle onclick="fromCircle(21)" class="spcircle" cx="215.6664" cy="138.8018" r="4.2852" />
<text class="tLabel" x="215.67" y="118.80"></text>
<text class="nLabel" x="215.67" y="133.80">5</text>
<text class="belong" x="215.67" y="143.80">(1, 3, 5)</text>
<circle onclick="fromCircle(8)" class="circle" cx="105.2252" cy="383.1669" r="4.2852" />
<text class="tLabel" x="105.23" y="363.17"></text>
<text class="nLabel" x="105.23" y="378.17">1</text>
<text class="belong" x="105.23" y="388.17">(4)</text>
<circle onclick="fromCircle(9)" class="circle" cx="47.0587" cy="299.8933" r="4.2852" />
<text class="tLabel" x="47.06" y="279.89"></text>
<text class="nLabel" x="47.06" y="294.89">7</text>
<text class="belong" x="47.06" y="304.89">(1, 4)</text>
<circle onclick="fromCircle(11)" class="circle" cx="138.5019" cy="299.9878" r="22.4114" />
<text class="tLabel" x="138.50" y="279.99"></text>
<text class="nLabel" x="138.50" y="294.99">300</text>
<text class="belong" x="138.50" y="304.99">(1, 2, 4)</text>
<circle onclick="fromCircle(40)" class="circle" cx="43.7205" cy="147.9068" r="4.2852" />
<text class="tLabel" x="43.72" y="127.91"></text>
<text class="nLabel" x="43.72" y="142.91">1</text>
<text class="belong" x="43.72" y="152.91">(4, 6)</text>
<circle onclick="fromCircle(16)" class="circle" cx="485.7148" cy="181.8721" r="4.2852" />
<text class="tLabel" x="485.71" y="161.87"></text>
<text class="nLabel" x="485.71" y="176.87">1</text>
<text class="belong" x="485.71" y="186.87">(5)</text>
<circle onclick="fromCircle(17)" class="circle" cx="173.1316" cy="40.0258" r="4.2852" />
<text class="tLabel" x="173.13" y="20.03"></text>
<text class="nLabel" x="173.13" y="35.03">5</text>
<text class="belong" x="173.13" y="45.03">(1, 5)</text>
<circle onclick="fromCircle(19)" class="circle" cx="315.5417" cy="131.5627" r="4.2852" />
<text class="tLabel" x="315.54" y="111.56"></text>
<text class="nLabel" x="315.54" y="126.56">5</text>
<text class="belong" x="315.54" y="136.56">(1, 2, 5)</text>
<circle onclick="fromCircle(32)" class="circle" cx="128.5495" cy="117.8089" r="4.2852" />
<text class="tLabel" x="128.55" y="97.81"></text>
<text class="nLabel" x="128.55" y="112.81">2</text>
<text class="belong" x="128.55" y="122.81">(6)</text>
<rect class="p0 borderLine" x="500.00" y="50.00" width="30.00" height="15.00" />
<rect class="q0" x="500.00" y="50.00" width="30.00" height="15.00" />
<text class="legend" x="540.00" y="65.00">Ball2017</text>
<rect class="p1 borderLine" x="500.00" y="90.00" width="30.00" height="15.00" />
<rect class="q1" x="500.00" y="90.00" width="30.00" height="15.00" />
<text class="legend" x="540.00" y="105.00">Courtois2015</text>
<rect class="p2 borderLine" x="500.00" y="130.00" width="30.00" height="15.00" />
<rect class="q2" x="500.00" y="130.00" width="30.00" height="15.00" />
<text class="legend" x="540.00" y="145.00">Hilton2017</text>
<rect class="p3 borderLine" x="500.00" y="170.00" width="30.00" height="15.00" />
<rect class="q3" x="500.00" y="170.00" width="30.00" height="15.00" />
<text class="legend" x="540.00" y="185.00">Ball2017</text>
<rect class="p4 borderLine" x="500.00" y="210.00" width="30.00" height="15.00" />
<rect class="q4" x="500.00" y="210.00" width="30.00" height="15.00" />
<text class="legend" x="540.00" y="225.00">Courtois2015</text>
<rect class="p5 borderLine" x="500.00" y="250.00" width="30.00" height="15.00" />
<rect class="q5" x="500.00" y="250.00" width="30.00" height="15.00" />
<text class="legend" x="540.00" y="265.00">Hilton2017</text>
</svg>
