<svg xmlns="http://www.w3.org/2000/svg" xmlns:xlink="http://www.w3.org/1999/xlink" width="700" height="500">
<defs>
<style type="text/css"><![CDATA[
  .borderLine {
	   stroke: none;
	   fill-opacity: 0.4;
  }
  .outLine {
	   stroke-width: 1;
	   fill: none;
  }
  .circle {
	   stroke: #888888;
	   stroke-width: 0.5;
	   fill: none;
    pointer-events: all;
  }
  .spcircle {
	   stroke: #FF2222;
	   stroke-width: 1;
	   fill: none;
    pointer-events: all;
  }
  .tLabel {
	   font-family: Arial;
    pointer-events: none;
	   font-size: 14px;
	   text-anchor: middle;
	   alignment-baseline: central;
  }
  .nLabel {
	   font-family: Arial;
    pointer-events: none;
	   font-size: 10px;
	   text-anchor: middle;
	   alignment-baseline: central;
  }
  .belong {
	   font-family: Arial;
    pointer-events: none;
	   font-size: 5px;
	   text-anchor: middle;
	   alignment-baseline: central;
  }
  .p0{
    stroke: none;
    fill: #e6194b;
  }
  .q0{
    fill: none;
    stroke: #e6194b;
  }
  .p1{
    stroke: none;
    fill: #3cb44b;
  }
  .q1{
    fill: none;
    stroke: #3cb44b;
  }
  .p2{
    stroke: none;
    fill: #ffe119;
  }
  .q2{
    fill: none;
    stroke: #ffe119;
  }
  .p3{
    stroke: none;
    fill: #0082c8;
  }
  .q3{
    fill: none;
    stroke: #0082c8;
  }
  .p4{
    stroke: none;
    fill: #f58231;
  }
  .q4{
    fill: none;
    stroke: #f58231;
  }
  .p5{
    stroke: none;
    fill: #911eb4;
  }
  .q5{
    fill: none;
    stroke: #911eb4;
  }
  .p6{
    stroke: none;
    fill: #46f0f0;
  }
  .q6{
    fill: none;
    stroke: #46f0f0;
  }
  .p7{
    stroke: none;
    fill: #f032e6;
  }
  .q7{
    fill: none;
    stroke: #f032e6;
  }
]]>
</style>
<symbol id="bl0">
<path d="M 52.25 455.00 L 50.03 454.51 L 47.29 454.49 L 43.41 453.77 L 39.53 453.50 L 35.80 453.97 L 32.04 455.23 L 29.39 456.85 L 27.05 458.04 L 25.12 459.44 L 24.31 461.63 L 23.87 464.28 L 23.30 468.02 L 23.22 471.72 L 23.23 475.51 L 24.20 479.24 L 25.17 481.93 L 26.17 484.35 L 27.36 486.36 L 29.45 487.38 L 31.96 488.15 L 35.31 488.99 L 38.94 490.00 L 42.67 489.94 L 46.41 489.16 L 49.68 488.30 L 52.25 487.54 L 54.43 486.56 L 55.61 484.53 L 56.59 482.08 L 57.53 478.86 L 58.86 475.11 L 59.19 471.43 L 59.09 467.61 L 58.12 464.01 L 57.44 461.34 L 56.73 459.14 L 57.39 458.57 L 58.43 457.74 L 60.40 456.16 L 62.50 454.48 L 64.60 452.81 L 66.70 451.13 L 68.79 449.45 L 70.89 447.78 L 72.99 446.10 L 75.09 444.42 L 77.19 442.75 L 79.29 441.07 L 81.39 439.39 L 83.49 437.72 L 85.58 436.04 L 87.68 434.36 L 89.78 432.69 L 91.88 431.01 L 93.98 429.33 L 96.08 427.66 L 98.18 425.98 L 100.27 424.30 L 102.37 422.63 L 104.47 420.95 L 106.57 419.27 L 108.67 417.60 L 110.77 415.92 L 112.87 414.24 L 114.96 412.57 L 117.06 410.89 L 119.16 409.21 L 121.26 407.54 L 123.36 405.86 L 125.46 404.18 L 127.56 402.51 L 129.65 400.83 L 131.75 399.15 L 133.85 397.48 L 135.95 395.80 L 138.05 394.12 L 140.15 392.45 L 142.25 390.77 L 144.34 389.09 L 146.44 387.42 L 148.54 385.74 L 150.64 384.06 L 152.74 382.39 L 154.84 380.71 L 156.94 379.03 L 159.03 377.36 L 161.13 375.68 L 163.23 374.00 L 165.33 372.33 L 167.43 370.65 L 169.53 368.97 L 171.63 367.30 L 173.73 365.62 L 175.82 363.94 L 177.92 362.27 L 180.02 360.59 L 182.12 358.91 L 184.22 357.24 L 186.32 355.56 L 188.42 353.88 L 190.51 352.21 L 192.61 350.53 L 194.71 348.85 L 196.81 347.18 L 198.91 345.50 L 201.01 343.82 L 203.11 342.15 L 205.20 340.47 L 207.30 338.79 L 209.40 337.12 L 211.50 335.44 L 213.60 333.76 L 215.70 332.09 L 217.80 330.41 L 219.89 328.73 L 221.99 327.06 L 224.09 325.38 L 226.19 323.70 L 228.29 322.03 L 230.39 320.35 L 232.49 318.67 L 234.58 317.00 L 236.68 315.32 L 238.78 313.64 L 240.88 311.97 L 242.98 310.29 L 245.08 308.61 L 247.18 306.94 L 249.27 305.26 L 251.37 303.58 L 253.47 301.91 L 255.57 300.23 L 257.67 298.55 L 259.77 296.88 L 261.87 295.20 L 263.97 293.52 L 266.06 291.85 L 268.16 290.17 L 270.26 288.49 L 272.36 286.82 L 274.46 285.14 L 276.56 283.46 L 278.66 281.79 L 280.75 280.11 L 282.85 278.43 L 284.95 276.76 L 287.05 275.08 L 289.15 273.40 L 291.25 271.73 L 293.35 270.05 L 295.44 268.37 L 297.54 266.70 L 299.64 265.02 L 301.74 263.34 L 303.83 261.67 L 305.82 260.13 L 306.97 259.69 L 309.10 260.71 L 311.41 261.28 L 313.41 260.93 L 315.28 260.05 L 317.00 258.91 L 318.37 257.47 L 318.70 255.47 L 318.75 253.38 L 318.33 251.37 L 317.37 249.58 L 315.73 248.01 L 313.66 246.89 L 313.27 245.91 L 313.36 243.64 L 313.50 241.21 L 313.64 238.77 L 313.78 236.32 L 313.91 233.88 L 314.05 231.45 L 314.24 229.14 L 314.90 227.90 L 317.37 226.59 L 319.31 224.67 L 320.41 222.23 L 320.68 219.57 L 319.59 217.13 L 317.81 215.13 L 315.40 213.86 L 312.47 213.41 L 311.48 212.26 L 310.52 209.92 L 309.55 207.43 L 308.58 204.93 L 307.60 202.44 L 306.63 199.94 L 305.73 197.58 L 305.49 196.20 L 307.43 194.69 L 309.17 192.63 L 310.20 190.17 L 309.95 187.42 L 309.09 184.79 L 307.57 182.65 L 305.13 181.52 L 302.43 180.85 L 299.65 181.10 L 297.39 182.65 L 295.50 184.55 L 294.32 186.76 L 293.14 186.79 L 290.80 186.31 L 288.30 185.76 L 285.79 185.22 L 283.28 184.68 L 280.77 184.14 L 278.27 183.59 L 275.76 183.05 L 273.25 182.51 L 270.74 181.96 L 268.24 181.42 L 265.73 180.88 L 263.22 180.34 L 260.71 179.79 L 258.21 179.25 L 255.70 178.71 L 253.19 178.17 L 250.69 177.62 L 248.27 177.07 L 246.78 176.42 L 246.36 173.61 L 244.68 171.11 L 241.93 169.99 L 238.82 170.29 L 236.54 172.19 L 235.37 175.08 L 235.93 178.01 L 237.46 180.37 L 236.89 181.76 L 235.47 183.88 L 233.97 186.10 L 232.47 188.32 L 230.96 190.55 L 229.46 192.78 L 227.95 195.00 L 226.44 197.23 L 224.94 199.46 L 223.43 201.68 L 221.93 203.91 L 220.42 206.13 L 218.92 208.36 L 217.41 210.59 L 215.91 212.81 L 214.40 215.04 L 212.90 217.27 L 211.39 219.49 L 209.89 221.72 L 208.38 223.94 L 206.88 226.17 L 205.37 228.40 L 203.87 230.62 L 202.36 232.85 L 200.86 235.08 L 199.35 237.30 L 197.85 239.53 L 196.34 241.76 L 194.83 243.98 L 193.33 246.21 L 191.82 248.43 L 190.32 250.66 L 188.81 252.89 L 187.31 255.11 L 185.80 257.34 L 184.30 259.57 L 182.79 261.79 L 181.29 264.02 L 179.78 266.24 L 178.28 268.47 L 176.77 270.70 L 175.27 272.92 L 173.76 275.15 L 172.26 277.38 L 170.75 279.60 L 169.25 281.83 L 167.74 284.05 L 166.24 286.28 L 164.73 288.51 L 163.22 290.73 L 161.72 292.96 L 160.21 295.19 L 158.71 297.41 L 157.20 299.64 L 155.70 301.86 L 154.19 304.09 L 152.69 306.32 L 151.18 308.54 L 149.68 310.77 L 148.17 313.00 L 146.67 315.22 L 145.16 317.45 L 143.66 319.68 L 142.15 321.90 L 140.65 324.13 L 139.12 326.33 L 137.21 328.11 L 135.39 330.33 L 134.28 332.93 L 133.11 335.26 L 131.61 337.49 L 130.11 339.71 L 128.60 341.94 L 127.10 344.16 L 125.59 346.39 L 124.09 348.62 L 122.58 350.84 L 121.08 353.07 L 119.57 355.30 L 118.07 357.52 L 116.56 359.75 L 115.06 361.97 L 113.55 364.20 L 112.05 366.43 L 110.54 368.65 L 109.04 370.88 L 107.53 373.11 L 106.03 375.33 L 104.52 377.56 L 103.02 379.78 L 101.51 382.01 L 100.00 384.24 L 98.50 386.46 L 96.99 388.69 L 95.49 390.92 L 93.98 393.14 L 92.48 395.37 L 90.97 397.60 L 89.47 399.82 L 87.96 402.05 L 86.46 404.27 L 84.95 406.50 L 83.45 408.73 L 81.94 410.95 L 80.44 413.18 L 78.93 415.41 L 77.43 417.63 L 75.92 419.86 L 74.42 422.08 L 72.91 424.31 L 71.41 426.54 L 69.90 428.76 L 68.39 430.99 L 66.89 433.22 L 65.38 435.44 L 63.88 437.67 L 62.37 439.89 L 60.87 442.12 L 59.36 444.35 L 57.86 446.57 L 56.35 448.80 L 54.85 451.02 L 53.44 453.12 L 52.78 454.20 Z" />
</symbol>
<symbol id="bl1">
<path d="M 179.24 184.34 L 177.32 184.55 L 175.56 185.26 L 174.51 186.76 L 174.22 188.49 L 174.13 190.27 L 174.97 191.87 L 177.07 192.64 L 179.01 193.69 L 180.95 194.20 L 182.19 195.16 L 183.77 197.16 L 185.39 199.26 L 187.01 201.36 L 188.64 203.47 L 190.26 205.57 L 191.88 207.68 L 193.51 209.78 L 195.13 211.89 L 196.75 213.99 L 198.38 216.09 L 200.00 218.20 L 201.62 220.30 L 203.25 222.41 L 204.87 224.51 L 206.49 226.62 L 208.12 228.72 L 209.74 230.82 L 211.26 232.86 L 211.84 234.35 L 210.80 236.60 L 210.99 238.98 L 211.80 241.08 L 213.28 242.73 L 215.40 243.35 L 217.64 243.12 L 219.90 242.44 L 221.63 240.60 L 223.02 240.48 L 225.37 241.01 L 227.86 241.61 L 230.33 242.16 L 232.50 242.24 L 233.42 240.25 L 234.04 237.78 L 234.64 235.27 L 235.24 232.76 L 235.84 230.26 L 236.44 227.75 L 237.04 225.24 L 237.60 222.87 L 237.81 221.56 L 237.59 221.30 L 235.38 220.07 L 233.57 218.07 L 232.68 215.51 L 232.59 213.05 L 232.61 212.68 L 232.77 212.44 L 233.87 210.17 L 235.84 208.23 L 238.40 207.18 L 241.07 206.95 L 241.36 207.00 L 241.57 207.27 L 244.05 208.42 L 246.08 210.53 L 247.10 213.18 L 247.15 215.98 L 247.07 216.24 L 246.84 216.46 L 245.59 218.85 L 243.44 220.76 L 240.76 221.58 L 238.16 221.52 L 237.83 221.57 L 237.60 222.87 L 237.04 225.24 L 236.44 227.75 L 235.84 230.26 L 235.24 232.76 L 234.64 235.27 L 234.05 237.78 L 233.48 240.27 L 233.39 242.44 L 235.29 243.35 L 237.66 243.95 L 240.06 244.52 L 242.44 245.10 L 244.61 245.70 L 245.71 246.79 L 247.15 249.63 L 250.22 250.73 L 253.26 249.71 L 255.54 247.65 L 256.39 246.46 L 258.02 246.06 L 260.60 245.78 L 263.27 245.51 L 265.94 245.23 L 268.62 244.96 L 271.29 244.68 L 273.96 244.41 L 276.63 244.14 L 279.30 243.86 L 281.97 243.59 L 284.64 243.31 L 287.31 243.04 L 289.98 242.77 L 292.66 242.49 L 295.33 242.22 L 298.00 241.94 L 300.67 241.67 L 303.34 241.40 L 306.01 241.12 L 308.68 240.85 L 311.35 240.57 L 314.02 240.30 L 316.70 240.03 L 319.37 239.75 L 322.04 239.48 L 324.71 239.20 L 327.38 238.93 L 330.05 238.66 L 332.72 238.38 L 335.39 238.11 L 338.06 237.83 L 340.74 237.56 L 343.41 237.29 L 346.08 237.01 L 348.75 236.74 L 351.41 236.47 L 353.95 236.22 L 355.42 236.32 L 356.73 239.00 L 358.87 241.43 L 361.57 242.67 L 362.03 242.66 L 364.40 242.49 L 366.73 241.55 L 368.52 240.00 L 369.77 238.09 L 369.88 237.62 L 369.70 234.50 L 368.79 231.40 L 366.71 229.07 L 363.53 228.40 L 360.26 228.64 L 357.71 229.87 L 356.53 229.05 L 354.75 227.28 L 352.89 225.42 L 351.02 223.54 L 349.15 221.67 L 347.28 219.80 L 345.41 217.92 L 343.54 216.05 L 341.67 214.18 L 339.79 212.31 L 337.92 210.43 L 336.05 208.56 L 334.18 206.69 L 332.31 204.81 L 330.44 202.94 L 328.57 201.07 L 326.70 199.20 L 324.83 197.32 L 322.96 195.45 L 321.09 193.58 L 319.22 191.70 L 317.35 189.83 L 315.48 187.96 L 313.61 186.09 L 311.74 184.21 L 309.87 182.34 L 308.00 180.47 L 306.13 178.59 L 304.26 176.72 L 302.39 174.85 L 300.51 172.97 L 298.64 171.10 L 296.77 169.23 L 294.90 167.36 L 293.03 165.48 L 291.16 163.61 L 289.29 161.74 L 287.42 159.86 L 285.55 157.99 L 283.68 156.12 L 281.81 154.25 L 279.94 152.37 L 278.07 150.50 L 276.20 148.63 L 274.33 146.75 L 272.46 144.88 L 270.59 143.01 L 268.72 141.14 L 266.98 139.32 L 266.46 137.97 L 267.19 135.09 L 266.22 132.52 L 264.64 130.55 L 262.80 129.23 L 261.97 129.06 L 259.72 129.54 L 257.81 130.76 L 257.46 131.06 L 257.26 131.51 L 256.00 133.56 L 255.89 136.52 L 255.93 136.79 L 255.14 137.52 L 253.07 138.64 L 250.83 139.82 L 248.60 141.01 L 246.36 142.19 L 244.12 143.38 L 241.88 144.56 L 239.65 145.74 L 237.41 146.93 L 235.17 148.11 L 232.94 149.30 L 230.74 150.49 L 229.07 151.85 L 229.66 153.87 L 230.79 156.06 L 231.95 158.25 L 233.11 160.45 L 234.27 162.64 L 235.43 164.84 L 236.59 167.03 L 237.69 169.11 L 238.29 170.26 L 238.60 170.31 L 240.62 169.82 L 242.90 170.05 L 244.79 171.12 L 246.14 172.55 L 246.30 172.76 L 246.31 173.04 L 246.80 175.03 L 246.59 177.32 L 245.55 179.25 L 244.13 180.65 L 243.93 180.79 L 243.62 180.78 L 241.61 181.28 L 239.28 181.07 L 237.36 180.03 L 235.98 178.56 L 235.85 178.36 L 235.85 178.07 L 235.34 176.02 L 235.57 173.72 L 236.64 171.81 L 238.12 170.47 L 238.27 170.27 L 237.69 169.11 L 236.59 167.03 L 235.43 164.84 L 234.27 162.64 L 233.11 160.45 L 231.95 158.25 L 230.78 156.06 L 229.61 153.90 L 228.28 152.27 L 226.33 152.83 L 224.21 153.92 L 222.09 155.04 L 219.97 156.16 L 217.85 157.29 L 215.72 158.41 L 213.65 159.50 L 211.81 160.35 L 210.29 160.08 L 207.37 159.16 L 204.62 160.16 L 203.03 162.63 L 202.75 165.39 L 202.62 166.67 L 200.96 168.23 L 199.01 169.92 L 197.04 171.62 L 195.07 173.32 L 193.10 175.02 L 191.12 176.73 L 189.15 178.43 L 187.18 180.13 L 185.21 181.83 L 183.30 183.44 L 181.98 183.73 Z" />
</symbol>
<symbol id="bl2">
<path d="M 233.49 134.88 L 231.94 132.16 L 229.03 130.56 L 225.94 130.89 L 223.89 132.42 L 223.45 132.90 L 222.85 134.05 L 222.47 135.53 L 222.43 137.07 L 222.82 138.39 L 222.97 138.90 L 225.13 140.97 L 228.11 142.13 L 228.73 143.32 L 229.13 145.75 L 229.53 148.36 L 229.93 150.97 L 230.33 153.58 L 230.73 156.19 L 231.13 158.80 L 231.53 161.41 L 231.93 164.02 L 232.33 166.63 L 232.73 169.24 L 233.13 171.85 L 233.53 174.46 L 233.93 177.07 L 234.33 179.68 L 234.73 182.29 L 235.13 184.90 L 235.53 187.51 L 235.93 190.12 L 236.33 192.73 L 236.73 195.34 L 237.13 197.95 L 237.53 200.56 L 237.93 203.17 L 238.28 205.67 L 238.12 207.15 L 235.42 208.56 L 233.34 210.96 L 232.63 214.11 L 233.19 217.28 L 235.09 219.77 L 237.86 221.38 L 241.23 221.41 L 244.18 220.46 L 245.19 221.18 L 246.73 223.03 L 248.36 225.02 L 249.99 227.02 L 251.62 229.02 L 253.25 231.01 L 254.89 233.01 L 256.52 235.01 L 258.15 237.01 L 259.78 239.01 L 261.42 241.01 L 263.05 243.00 L 264.68 245.00 L 266.31 247.00 L 267.94 249.00 L 269.58 251.00 L 271.21 252.99 L 272.84 254.99 L 274.35 256.88 L 274.89 258.10 L 273.56 260.67 L 272.94 263.86 L 273.54 266.61 L 275.42 268.79 L 278.12 270.29 L 281.07 270.61 L 283.77 269.38 L 286.06 267.32 L 287.47 264.61 L 286.61 261.24 L 285.16 258.32 L 282.85 256.28 L 282.98 255.27 L 283.82 252.93 L 284.74 250.41 L 285.66 247.89 L 286.57 245.36 L 287.49 242.83 L 288.41 240.31 L 289.33 237.78 L 290.25 235.25 L 291.16 232.73 L 292.08 230.20 L 293.00 227.68 L 293.92 225.15 L 294.84 222.62 L 295.76 220.10 L 296.67 217.57 L 297.59 215.05 L 298.51 212.52 L 299.43 209.99 L 300.35 207.47 L 301.27 204.94 L 302.18 202.42 L 303.10 199.89 L 304.09 197.47 L 305.68 196.02 L 308.07 194.18 L 309.75 191.51 L 310.15 188.35 L 309.58 185.25 L 309.26 183.27 L 310.04 180.81 L 310.96 178.28 L 311.88 175.75 L 312.79 173.22 L 313.71 170.70 L 314.63 168.17 L 315.55 165.64 L 316.47 163.11 L 317.39 160.58 L 318.31 158.05 L 319.23 155.53 L 320.15 153.00 L 321.07 150.47 L 321.99 147.94 L 322.90 145.41 L 323.82 142.88 L 324.74 140.36 L 325.66 137.83 L 326.53 135.46 L 327.23 134.25 L 330.04 134.24 L 332.85 133.35 L 334.83 131.54 L 335.54 128.86 L 335.35 126.01 L 334.25 123.91 L 332.29 122.39 L 329.66 121.60 L 327.12 121.83 L 325.01 123.19 L 323.32 125.36 L 322.44 127.84 L 321.17 128.33 L 318.71 128.56 L 316.08 128.77 L 313.46 128.98 L 310.83 129.19 L 308.20 129.41 L 305.57 129.62 L 302.95 129.83 L 300.33 129.97 L 297.75 129.78 L 294.98 129.97 L 292.42 130.60 L 289.81 130.89 L 287.18 131.10 L 284.56 131.31 L 281.93 131.53 L 279.30 131.74 L 276.67 131.95 L 274.05 132.16 L 271.42 132.37 L 268.88 132.54 L 266.75 132.36 L 264.97 131.15 L 263.18 129.94 L 261.29 129.32 L 259.48 130.26 L 257.58 131.37 L 256.21 133.09 L 254.46 133.70 L 252.08 133.93 L 249.61 134.14 L 247.13 134.34 L 244.66 134.53 L 242.18 134.73 L 239.71 134.93 L 237.23 135.13 L 234.86 135.28 Z" />
</symbol>
<symbol id="bl3">
<path d="M 146.39 327.03 L 146.09 327.11 L 143.11 326.55 L 139.85 327.05 L 137.19 328.72 L 135.27 331.04 L 135.20 331.17 L 135.18 331.38 L 134.46 334.36 L 134.74 337.57 L 136.14 340.25 L 138.03 342.19 L 138.47 342.45 L 141.05 342.93 L 144.09 343.18 L 147.12 342.34 L 149.30 340.97 L 150.30 338.41 L 151.10 335.48 L 150.83 332.20 L 149.94 329.74 L 150.70 328.80 L 152.59 327.15 L 154.62 325.39 L 156.65 323.62 L 158.69 321.86 L 160.72 320.10 L 162.75 318.33 L 164.78 316.57 L 166.82 314.80 L 168.85 313.04 L 170.88 311.27 L 172.91 309.51 L 174.95 307.74 L 176.98 305.98 L 179.01 304.21 L 181.05 302.45 L 183.08 300.68 L 185.11 298.92 L 187.14 297.15 L 189.18 295.39 L 191.21 293.62 L 193.24 291.86 L 195.28 290.09 L 197.31 288.33 L 199.34 286.56 L 201.37 284.80 L 203.41 283.03 L 205.44 281.27 L 207.47 279.50 L 209.51 277.74 L 211.54 275.97 L 213.57 274.21 L 215.60 272.44 L 217.64 270.68 L 219.67 268.91 L 221.70 267.15 L 223.74 265.38 L 225.77 263.62 L 227.80 261.85 L 229.83 260.09 L 231.87 258.32 L 233.90 256.56 L 235.93 254.79 L 237.97 253.03 L 240.00 251.26 L 242.03 249.50 L 244.00 247.68 L 245.36 245.38 L 246.77 242.45 L 249.46 240.03 L 252.35 239.89 L 254.23 238.89 L 256.26 237.14 L 258.29 235.38 L 260.33 233.62 L 262.36 231.85 L 264.39 230.09 L 266.42 228.32 L 268.46 226.56 L 270.49 224.79 L 272.52 223.03 L 274.56 221.26 L 276.59 219.50 L 278.62 217.73 L 280.65 215.97 L 282.69 214.20 L 284.72 212.44 L 286.75 210.67 L 288.79 208.91 L 290.82 207.14 L 292.85 205.38 L 294.88 203.61 L 296.92 201.85 L 298.95 200.08 L 300.99 198.34 L 303.10 196.80 L 305.68 196.09 L 307.58 194.86 L 309.06 193.16 L 310.16 190.83 L 311.75 188.99 L 313.68 187.29 L 315.63 185.60 L 317.59 183.90 L 319.54 182.21 L 321.49 180.51 L 323.44 178.82 L 325.39 177.12 L 327.35 175.43 L 329.30 173.73 L 331.25 172.04 L 333.20 170.34 L 335.16 168.65 L 337.11 166.95 L 339.06 165.26 L 341.01 163.56 L 342.97 161.87 L 344.92 160.17 L 346.87 158.48 L 348.74 156.87 L 349.63 156.31 L 350.82 155.69 L 351.45 155.85 L 354.53 156.79 L 356.77 156.00 L 357.12 155.36 L 358.29 153.54 L 358.64 151.33 L 358.06 149.38 L 356.79 147.75 L 355.99 147.84 L 353.93 147.20 L 351.66 147.27 L 351.53 147.57 L 350.38 147.30 L 348.86 146.06 L 346.94 144.26 L 344.99 142.42 L 343.04 140.59 L 341.08 138.75 L 339.13 136.91 L 337.18 135.08 L 335.36 133.33 L 334.59 132.16 L 335.38 129.98 L 335.69 127.56 L 335.31 125.73 L 335.15 125.29 L 334.35 124.00 L 333.19 122.80 L 331.73 121.97 L 330.29 121.51 L 330.08 121.46 L 329.85 121.46 L 328.34 121.53 L 326.67 121.96 L 325.18 122.81 L 324.00 123.87 L 323.88 123.98 L 323.79 124.12 L 323.04 125.52 L 322.53 127.31 L 322.70 129.28 L 323.02 131.01 L 323.14 131.21 L 322.29 131.79 L 320.23 133.01 L 318.01 134.30 L 315.78 135.59 L 313.56 136.89 L 311.33 138.19 L 309.11 139.48 L 306.88 140.78 L 304.66 142.07 L 302.43 143.37 L 300.20 144.66 L 297.98 145.96 L 295.75 147.25 L 293.53 148.55 L 291.30 149.84 L 289.08 151.14 L 286.85 152.43 L 284.63 153.73 L 282.40 155.02 L 280.19 156.24 L 277.94 157.02 L 275.42 157.43 L 273.02 158.24 L 271.11 159.90 L 269.47 161.86 L 267.75 163.45 L 265.63 164.78 L 263.42 166.07 L 261.21 167.36 L 258.99 168.65 L 256.78 169.94 L 254.56 171.23 L 252.34 172.52 L 250.13 173.81 L 248.01 175.13 L 246.79 176.74 L 245.74 178.89 L 243.97 180.56 L 241.66 181.27 L 239.17 181.23 L 237.26 181.41 L 235.04 182.60 L 232.77 183.91 L 230.51 185.23 L 228.25 186.55 L 225.98 187.87 L 223.72 189.18 L 221.46 190.50 L 219.33 191.70 L 218.05 191.93 L 216.09 190.60 L 213.87 189.91 L 211.83 189.10 L 209.61 189.32 L 207.40 189.82 L 205.42 190.70 L 204.11 192.44 L 203.01 194.39 L 202.33 196.50 L 202.49 198.70 L 202.70 201.08 L 203.57 203.29 L 203.00 204.46 L 201.28 206.27 L 199.43 208.17 L 197.57 210.08 L 195.71 212.00 L 193.85 213.91 L 192.00 215.80 L 190.24 217.44 L 188.58 217.67 L 185.34 217.69 L 183.05 219.85 L 182.67 223.03 L 183.69 225.72 L 184.26 226.86 L 183.52 229.09 L 182.58 231.56 L 181.64 234.05 L 180.69 236.54 L 179.74 239.04 L 178.80 241.53 L 177.85 244.02 L 176.91 246.51 L 175.96 249.00 L 175.01 251.49 L 174.07 253.98 L 173.12 256.47 L 172.17 258.96 L 171.23 261.45 L 170.28 263.94 L 169.33 266.43 L 168.39 268.92 L 167.44 271.41 L 166.49 273.90 L 165.55 276.39 L 164.60 278.88 L 163.65 281.37 L 162.71 283.86 L 161.76 286.35 L 160.81 288.84 L 159.87 291.34 L 158.92 293.83 L 157.97 296.32 L 157.03 298.81 L 156.08 301.30 L 155.13 303.79 L 154.19 306.28 L 153.24 308.77 L 152.29 311.26 L 151.35 313.75 L 150.40 316.24 L 149.45 318.73 L 148.51 321.22 L 147.56 323.71 L 146.69 326.02 Z" />
</symbol>
<symbol id="bl4">
<path d="M 280.54 256.08 L 277.98 256.56 L 275.58 257.78 L 273.84 259.50 L 273.05 261.95 L 272.97 264.60 L 273.65 266.88 L 275.25 268.72 L 277.36 270.08 L 279.76 270.70 L 282.19 270.29 L 284.51 269.18 L 286.35 267.65 L 287.67 267.96 L 289.88 269.14 L 292.21 270.43 L 294.54 271.71 L 296.88 273.00 L 299.21 274.29 L 301.55 275.57 L 303.88 276.86 L 306.22 278.14 L 308.55 279.43 L 310.89 280.72 L 313.22 282.00 L 315.56 283.29 L 317.89 284.58 L 320.23 285.86 L 322.56 287.15 L 324.90 288.43 L 327.23 289.72 L 329.57 291.01 L 331.90 292.29 L 334.24 293.58 L 336.57 294.87 L 338.91 296.15 L 341.24 297.44 L 343.58 298.72 L 345.91 300.01 L 348.24 301.30 L 350.58 302.58 L 352.91 303.87 L 355.25 305.16 L 357.58 306.44 L 359.92 307.73 L 362.25 309.01 L 364.59 310.30 L 366.92 311.59 L 369.26 312.87 L 371.59 314.16 L 373.93 315.45 L 376.26 316.73 L 378.60 318.02 L 380.93 319.30 L 383.27 320.59 L 385.60 321.88 L 387.94 323.16 L 390.27 324.45 L 392.61 325.73 L 394.94 327.02 L 397.28 328.31 L 399.61 329.59 L 401.95 330.88 L 404.28 332.17 L 406.62 333.45 L 408.95 334.74 L 411.29 336.02 L 413.62 337.31 L 415.95 338.60 L 418.29 339.88 L 420.62 341.17 L 422.96 342.46 L 425.29 343.74 L 427.63 345.03 L 429.96 346.31 L 432.30 347.60 L 434.63 348.89 L 436.97 350.17 L 439.30 351.46 L 441.64 352.75 L 443.97 354.03 L 446.31 355.32 L 448.64 356.60 L 450.98 357.89 L 453.31 359.18 L 455.65 360.46 L 457.98 361.75 L 460.32 363.04 L 462.65 364.32 L 464.98 365.61 L 467.15 366.85 L 468.17 368.15 L 468.13 371.10 L 470.27 373.53 L 473.38 373.76 L 476.09 371.86 L 476.78 369.07 L 475.66 366.07 L 474.85 365.80 L 472.15 364.52 L 469.31 365.08 L 469.05 365.38 L 468.64 365.00 L 467.15 363.02 L 465.53 360.88 L 463.91 358.73 L 462.29 356.58 L 460.66 354.43 L 459.04 352.28 L 457.42 350.14 L 455.80 347.99 L 454.18 345.84 L 452.56 343.69 L 450.93 341.54 L 449.31 339.39 L 447.69 337.24 L 446.07 335.09 L 444.45 332.94 L 442.83 330.79 L 441.20 328.64 L 439.58 326.49 L 437.96 324.35 L 436.34 322.20 L 434.72 320.05 L 433.10 317.90 L 431.48 315.75 L 429.85 313.60 L 428.23 311.45 L 426.61 309.30 L 424.99 307.15 L 423.37 305.00 L 421.75 302.85 L 420.12 300.70 L 418.50 298.56 L 416.88 296.41 L 415.26 294.26 L 413.64 292.11 L 412.02 289.96 L 410.39 287.81 L 408.77 285.66 L 407.15 283.51 L 405.53 281.36 L 403.91 279.21 L 402.29 277.06 L 400.66 274.92 L 399.04 272.77 L 397.42 270.62 L 395.80 268.47 L 394.18 266.32 L 392.56 264.17 L 390.93 262.02 L 389.31 259.87 L 387.69 257.72 L 386.07 255.57 L 384.45 253.42 L 382.83 251.27 L 381.20 249.13 L 379.58 246.98 L 377.96 244.83 L 376.34 242.68 L 374.72 240.53 L 373.10 238.38 L 371.52 236.22 L 370.29 233.95 L 369.27 231.23 L 367.15 229.09 L 365.05 227.55 L 363.37 225.48 L 361.75 223.34 L 360.12 221.19 L 358.50 219.04 L 356.88 216.89 L 355.26 214.74 L 353.64 212.59 L 352.02 210.44 L 350.39 208.29 L 348.77 206.14 L 347.15 203.99 L 345.53 201.84 L 343.91 199.69 L 342.29 197.55 L 340.66 195.40 L 339.04 193.25 L 337.42 191.10 L 335.80 188.95 L 334.18 186.80 L 332.56 184.65 L 330.93 182.50 L 329.31 180.35 L 327.69 178.20 L 326.07 176.05 L 324.45 173.91 L 322.83 171.76 L 321.20 169.61 L 319.58 167.46 L 317.96 165.31 L 316.34 163.16 L 314.72 161.01 L 313.10 158.86 L 311.47 156.71 L 309.85 154.56 L 308.23 152.41 L 306.61 150.26 L 304.99 148.12 L 303.37 145.97 L 301.85 143.95 L 301.17 142.93 L 301.23 142.70 L 302.78 140.94 L 303.79 138.55 L 303.87 135.97 L 303.24 133.70 L 303.03 133.35 L 300.81 131.32 L 297.80 129.91 L 294.68 129.93 L 292.04 131.68 L 290.01 134.14 L 289.15 137.25 L 290.51 140.31 L 292.52 142.91 L 295.22 144.40 L 295.33 145.62 L 295.03 148.07 L 294.69 150.67 L 294.34 153.29 L 294.00 155.90 L 293.66 158.51 L 293.32 161.12 L 292.98 163.74 L 292.64 166.35 L 292.30 168.96 L 291.95 171.58 L 291.61 174.19 L 291.27 176.80 L 290.93 179.42 L 290.59 182.03 L 290.25 184.64 L 289.91 187.25 L 289.56 189.87 L 289.22 192.48 L 288.88 195.09 L 288.54 197.71 L 288.20 200.32 L 287.86 202.93 L 287.52 205.54 L 287.17 208.16 L 286.83 210.77 L 286.49 213.38 L 286.15 216.00 L 285.81 218.61 L 285.47 221.22 L 285.19 223.78 L 285.20 226.17 L 285.70 228.72 L 285.47 230.18 L 285.01 231.48 L 284.25 233.73 L 283.62 235.83 L 283.25 238.19 L 282.93 240.63 L 282.61 243.06 L 282.29 245.50 L 281.98 247.93 L 281.66 250.37 L 281.34 252.80 L 281.02 255.07 Z" />
</symbol>
<symbol id="bl5">
<path d="M 308.08 182.98 L 307.83 182.99 L 305.65 181.57 L 302.91 180.83 L 300.12 181.07 L 297.71 181.99 L 297.41 182.24 L 296.12 184.39 L 294.85 186.86 L 294.51 189.87 L 295.06 192.29 L 296.86 194.16 L 299.12 195.79 L 302.03 196.59 L 304.48 196.51 L 306.61 195.01 L 308.58 193.11 L 309.87 190.47 L 310.36 188.20 L 311.65 187.90 L 314.14 187.65 L 316.78 187.40 L 319.42 187.14 L 322.06 186.89 L 324.70 186.63 L 327.35 186.38 L 329.99 186.13 L 332.63 185.87 L 335.27 185.62 L 337.92 185.36 L 340.56 185.11 L 343.20 184.86 L 345.84 184.60 L 348.48 184.35 L 351.13 184.09 L 353.77 183.84 L 356.41 183.59 L 359.05 183.33 L 361.58 183.12 L 363.09 183.50 L 365.51 184.40 L 366.99 185.54 L 368.78 186.11 L 370.35 185.61 L 371.66 184.65 L 372.60 183.44 L 373.11 182.08 L 373.09 181.51 L 372.91 179.97 L 372.38 178.26 L 372.23 178.33 L 371.81 176.87 L 372.36 174.77 L 373.23 172.32 L 374.12 169.84 L 375.00 167.35 L 375.89 164.87 L 376.78 162.39 L 377.67 159.90 L 378.55 157.42 L 379.44 154.94 L 380.33 152.46 L 381.21 149.97 L 382.10 147.49 L 382.99 145.01 L 383.87 142.52 L 384.76 140.04 L 385.65 137.56 L 386.53 135.07 L 387.42 132.59 L 388.31 130.11 L 389.20 127.62 L 390.08 125.14 L 390.97 122.66 L 391.86 120.17 L 392.74 117.69 L 393.63 115.21 L 394.52 112.72 L 395.40 110.24 L 396.29 107.76 L 397.18 105.27 L 398.06 102.79 L 398.95 100.31 L 399.84 97.82 L 400.73 95.34 L 401.64 92.98 L 402.75 91.80 L 405.76 90.94 L 407.96 88.69 L 408.38 85.59 L 406.79 82.56 L 402.58 81.99 L 399.12 83.85 L 398.22 87.49 L 399.97 90.89 L 399.09 91.53 L 397.32 93.28 L 395.44 95.16 L 393.56 97.06 L 391.68 98.95 L 389.79 100.84 L 387.91 102.73 L 386.03 104.63 L 384.14 106.52 L 382.26 108.41 L 380.38 110.30 L 378.49 112.20 L 376.61 114.09 L 374.73 115.98 L 372.84 117.87 L 370.96 119.77 L 369.08 121.66 L 367.20 123.55 L 365.31 125.44 L 363.43 127.33 L 361.55 129.23 L 359.66 131.12 L 357.78 133.01 L 355.90 134.90 L 354.01 136.80 L 352.13 138.69 L 350.25 140.58 L 348.36 142.47 L 346.48 144.37 L 344.60 146.26 L 342.71 148.15 L 340.83 150.04 L 338.95 151.94 L 337.07 153.83 L 335.18 155.72 L 333.30 157.61 L 331.42 159.51 L 329.53 161.40 L 327.65 163.29 L 325.77 165.18 L 323.88 167.08 L 322.00 168.97 L 320.12 170.86 L 318.23 172.75 L 316.35 174.65 L 314.47 176.54 L 312.58 178.43 L 310.71 180.32 L 308.94 182.10 Z" />
</symbol>
<symbol id="bl6">
<path d="M 307.93 182.87 L 305.47 181.70 L 302.63 180.87 L 299.65 181.11 L 297.26 182.80 L 295.31 184.96 L 294.27 187.69 L 294.69 190.68 L 295.81 193.40 L 297.54 195.30 L 297.96 195.55 L 299.78 196.40 L 302.00 196.81 L 304.23 196.54 L 306.13 195.86 L 306.33 195.82 L 306.92 196.95 L 308.13 199.10 L 309.42 201.38 L 310.71 203.66 L 312.01 205.94 L 313.30 208.22 L 314.60 210.50 L 315.93 212.71 L 317.43 214.54 L 318.95 215.91 L 320.19 217.40 L 320.81 219.26 L 321.26 221.28 L 322.05 223.48 L 323.26 225.75 L 324.55 228.03 L 325.85 230.32 L 327.14 232.60 L 328.44 234.88 L 329.73 237.16 L 331.03 239.44 L 332.33 241.73 L 333.62 244.01 L 334.92 246.29 L 336.21 248.57 L 337.51 250.86 L 338.80 253.14 L 340.10 255.42 L 341.37 257.66 L 341.98 259.12 L 342.13 260.25 L 341.79 260.67 L 340.38 263.40 L 340.78 265.89 L 341.62 266.48 L 343.51 267.93 L 345.90 268.19 L 348.05 267.16 L 349.38 264.90 L 349.50 262.27 L 348.16 259.25 L 348.05 258.50 L 348.58 257.14 L 349.62 254.75 L 350.70 252.29 L 351.78 249.83 L 352.85 247.37 L 353.93 244.91 L 355.00 242.44 L 355.97 240.01 L 355.88 237.93 L 355.50 235.12 L 356.13 232.30 L 357.74 230.08 L 359.92 228.43 L 361.58 227.08 L 362.72 224.76 L 363.80 222.30 L 364.87 219.85 L 365.95 217.39 L 367.02 214.93 L 368.09 212.47 L 369.17 210.01 L 370.24 207.56 L 371.32 205.10 L 372.39 202.64 L 373.46 200.18 L 374.54 197.72 L 375.61 195.27 L 376.68 192.81 L 377.76 190.35 L 378.83 187.89 L 379.91 185.43 L 380.98 182.97 L 382.05 180.52 L 383.13 178.06 L 384.20 175.60 L 385.27 173.14 L 386.35 170.68 L 387.42 168.23 L 388.50 165.77 L 389.57 163.31 L 390.64 160.85 L 391.72 158.39 L 392.79 155.93 L 393.86 153.48 L 394.94 151.02 L 396.01 148.56 L 397.09 146.10 L 398.16 143.64 L 399.23 141.19 L 400.31 138.73 L 401.38 136.27 L 402.45 133.81 L 403.53 131.35 L 404.60 128.89 L 405.68 126.44 L 406.75 123.98 L 407.82 121.52 L 408.90 119.06 L 409.97 116.60 L 411.04 114.15 L 412.12 111.69 L 413.19 109.23 L 414.27 106.77 L 415.34 104.31 L 416.41 101.85 L 417.49 99.40 L 418.56 96.94 L 419.63 94.48 L 420.71 92.02 L 421.78 89.56 L 422.86 87.11 L 423.93 84.65 L 425.00 82.19 L 426.08 79.73 L 427.15 77.27 L 428.22 74.81 L 429.30 72.36 L 430.37 69.90 L 431.45 67.44 L 432.52 64.98 L 433.59 62.53 L 434.61 60.22 L 435.41 59.05 L 438.48 58.92 L 441.61 58.03 L 443.67 56.10 L 443.85 55.73 L 444.48 53.52 L 444.35 51.04 L 443.33 48.88 L 441.83 47.32 L 441.42 47.08 L 438.58 46.50 L 435.44 46.78 L 432.83 48.37 L 431.89 51.43 L 431.76 54.65 L 432.87 57.38 L 432.13 58.44 L 430.41 60.18 L 428.58 62.02 L 426.74 63.86 L 424.91 65.70 L 423.07 67.55 L 421.23 69.39 L 419.40 71.24 L 417.56 73.08 L 415.72 74.92 L 413.88 76.77 L 412.05 78.61 L 410.21 80.45 L 408.48 82.22 L 407.60 83.32 L 407.71 83.59 L 408.34 85.13 L 408.54 86.95 L 408.16 88.66 L 407.38 90.03 L 406.81 90.37 L 404.19 91.72 L 400.51 91.28 L 399.20 91.61 L 397.42 93.30 L 395.55 95.17 L 393.68 97.04 L 391.82 98.92 L 389.95 100.79 L 388.08 102.66 L 386.22 104.54 L 384.35 106.41 L 382.48 108.29 L 380.61 110.16 L 378.75 112.04 L 376.88 113.91 L 375.01 115.78 L 373.15 117.66 L 371.28 119.53 L 369.41 121.41 L 367.55 123.28 L 365.68 125.15 L 363.81 127.03 L 361.94 128.90 L 360.08 130.78 L 358.21 132.65 L 356.34 134.52 L 354.48 136.40 L 352.61 138.27 L 350.74 140.15 L 348.91 142.01 L 347.61 143.82 L 348.51 145.34 L 349.85 146.71 L 350.71 147.23 L 352.61 147.58 L 355.52 147.71 L 357.60 149.38 L 358.28 151.83 L 357.92 154.25 L 354.34 155.28 L 351.01 154.29 L 349.48 150.99 L 351.54 147.51 L 350.65 147.24 L 349.85 146.71 L 348.46 145.39 L 346.94 144.49 L 345.18 145.76 L 343.36 147.55 L 341.54 149.38 L 339.72 151.21 L 337.90 153.03 L 336.08 154.86 L 334.26 156.69 L 332.44 158.52 L 330.62 160.35 L 328.79 162.17 L 326.97 164.00 L 325.15 165.83 L 323.33 167.66 L 321.51 169.49 L 319.69 171.31 L 317.87 173.14 L 316.04 174.97 L 314.22 176.80 L 312.40 178.63 L 310.58 180.45 L 308.87 182.16 Z" />
</symbol>
<symbol id="bl7">
<path d="M 46.72 25.61 L 48.03 22.73 L 49.33 19.45 L 49.15 15.58 L 47.96 12.78 L 44.96 11.30 L 41.66 10.00 L 37.79 10.15 L 34.96 11.33 L 33.47 14.36 L 32.20 17.71 L 32.42 21.61 L 33.61 24.36 L 36.59 25.85 L 39.91 27.13 L 43.82 26.88 L 46.43 25.86 L 47.32 26.72 L 48.89 28.66 L 50.55 30.73 L 52.22 32.81 L 53.88 34.89 L 55.55 36.97 L 57.22 39.04 L 58.88 41.12 L 60.55 43.20 L 62.22 45.28 L 63.89 47.36 L 65.55 49.44 L 67.22 51.51 L 68.89 53.59 L 70.55 55.67 L 72.22 57.75 L 73.89 59.83 L 75.55 61.91 L 77.22 63.98 L 78.89 66.06 L 80.55 68.14 L 82.22 70.22 L 83.89 72.30 L 85.55 74.38 L 87.22 76.45 L 88.89 78.53 L 90.55 80.61 L 92.22 82.69 L 93.89 84.77 L 95.56 86.85 L 97.22 88.92 L 98.89 91.00 L 100.56 93.08 L 102.22 95.16 L 103.89 97.24 L 105.56 99.31 L 107.22 101.39 L 108.89 103.47 L 110.56 105.55 L 112.22 107.63 L 113.89 109.71 L 115.56 111.78 L 117.22 113.86 L 118.89 115.94 L 120.56 118.02 L 122.22 120.10 L 123.89 122.18 L 125.56 124.25 L 127.23 126.33 L 128.89 128.41 L 130.56 130.49 L 132.23 132.57 L 133.89 134.65 L 135.56 136.72 L 137.23 138.80 L 138.89 140.88 L 140.56 142.96 L 142.23 145.04 L 143.89 147.12 L 145.56 149.19 L 147.23 151.27 L 148.89 153.35 L 150.56 155.43 L 152.23 157.51 L 153.89 159.58 L 155.56 161.66 L 157.23 163.74 L 158.89 165.82 L 160.56 167.90 L 162.23 169.98 L 163.90 172.05 L 165.56 174.13 L 167.23 176.21 L 168.90 178.29 L 170.56 180.37 L 172.23 182.45 L 173.81 184.49 L 174.51 186.21 L 173.99 188.41 L 174.67 190.60 L 176.16 192.06 L 179.73 191.13 L 181.15 188.64 L 179.28 184.46 L 176.80 184.77 L 175.13 185.64 L 173.81 184.41 L 172.23 182.44 L 170.56 180.37 L 168.90 178.29 L 167.23 176.21 L 165.56 174.13 L 163.90 172.05 L 162.23 169.98 L 160.56 167.90 L 158.89 165.82 L 157.23 163.74 L 155.56 161.66 L 153.89 159.58 L 152.23 157.51 L 150.56 155.43 L 148.89 153.35 L 147.23 151.27 L 145.56 149.19 L 143.89 147.12 L 142.23 145.04 L 140.56 142.96 L 138.89 140.88 L 137.23 138.80 L 135.56 136.72 L 133.89 134.65 L 132.23 132.57 L 130.56 130.49 L 128.89 128.41 L 127.23 126.33 L 125.56 124.25 L 123.89 122.18 L 122.22 120.10 L 120.56 118.02 L 118.89 115.94 L 117.22 113.86 L 115.56 111.78 L 113.89 109.71 L 112.22 107.63 L 110.56 105.55 L 108.89 103.47 L 107.22 101.39 L 105.56 99.31 L 103.89 97.24 L 102.22 95.16 L 100.56 93.08 L 98.89 91.00 L 97.22 88.92 L 95.56 86.85 L 93.89 84.77 L 92.22 82.69 L 90.55 80.61 L 88.89 78.53 L 87.22 76.45 L 85.55 74.38 L 83.89 72.30 L 82.22 70.22 L 80.55 68.14 L 78.89 66.06 L 77.22 63.98 L 75.55 61.91 L 73.89 59.83 L 72.22 57.75 L 70.55 55.67 L 68.89 53.59 L 67.22 51.51 L 65.55 49.44 L 63.89 47.36 L 62.22 45.28 L 60.55 43.20 L 58.88 41.12 L 57.22 39.04 L 55.55 36.97 L 53.88 34.89 L 52.22 32.81 L 50.55 30.73 L 48.89 28.66 L 47.33 26.70 Z" />
</symbol>
</defs>
<!-- isDone: 0 -->
<rect width="700" height="500" style="fill:#fff;stroke-width:0" />
<use class="p0 borderLine" xlink:href="#bl0"/>
<use class="p1 borderLine" xlink:href="#bl1"/>
<use class="p2 borderLine" xlink:href="#bl2"/>
<use class="p3 borderLine" xlink:href="#bl3"/>
<use class="p4 borderLine" xlink:href="#bl4"/>
<use class="p5 borderLine" xlink:href="#bl5"/>
<use class="p6 borderLine" xlink:href="#bl6"/>
<use class="p7 borderLine" xlink:href="#bl7"/>
<use class="q0 outLine" xlink:href="#bl0"/>
<use class="q1 outLine" xlink:href="#bl1"/>
<use class="q2 outLine" xlink:href="#bl2"/>
<use class="q3 outLine" xlink:href="#bl3"/>
<use class="q4 outLine" xlink:href="#bl4"/>
<use class="q5 outLine" xlink:href="#bl5"/>
<use class="q6 outLine" xlink:href="#bl6"/>
<use class="q7 outLine" xlink:href="#bl7"/>
<circle onclick="fromCircle(1)" class="circle" cx="41.2159" cy="471.7652" r="17.0592" />
<text class="tLabel" x="41.22" y="451.77"></text>
<text class="nLabel" x="41.22" y="466.77">40</text>
<text class="belong" x="41.22" y="476.77">(1)</text>
<circle onclick="fromCircle(3)" class="circle" cx="251.2681" cy="244.6593" r="4.5354" />
<text class="tLabel" x="251.27" y="224.66"></text>
<text class="nLabel" x="251.27" y="239.66">1</text>
<text class="belong" x="251.27" y="249.66">(1, 2)</text>
<circle onclick="fromCircle(7)" class="circle" cx="279.9328" cy="229.4170" r="4.5354" />
<text class="tLabel" x="279.93" y="209.42"></text>
<text class="nLabel" x="279.93" y="224.42">1</text>
<text class="belong" x="279.93" y="234.42">(1, 2, 3)</text>
<circle onclick="fromCircle(15)" class="circle" cx="269.4302" cy="197.8910" r="4.5354" />
<text class="tLabel" x="269.43" y="177.89"></text>
<text class="nLabel" x="269.43" y="192.89">2</text>
<text class="belong" x="269.43" y="202.89">(1, 2, 3, 4)</text>
<circle onclick="fromCircle(127)" class="circle" cx="302.2421" cy="188.8605" r="6.6070" />
<text class="tLabel" x="302.24" y="168.86"></text>
<text class="nLabel" x="302.24" y="183.86">6</text>
<text class="belong" x="302.24" y="193.86">(1, 2, 3, 4, 5, 6, 7)</text>
<circle onclick="fromCircle(2)" class="circle" cx="208.4794" cy="165.5019" r="4.5354" />
<text class="tLabel" x="208.48" y="145.50"></text>
<text class="nLabel" x="208.48" y="160.50">1</text>
<text class="belong" x="208.48" y="170.50">(2)</text>
<circle onclick="fromCircle(6)" class="circle" cx="261.4390" cy="135.4332" r="4.6719" />
<text class="tLabel" x="261.44" y="115.43"></text>
<text class="nLabel" x="261.44" y="130.43">3</text>
<text class="belong" x="261.44" y="140.43">(2, 3)</text>
<circle onclick="fromCircle(14)" class="circle" cx="277.4869" cy="165.9319" r="7.1364" />
<text class="tLabel" x="277.49" y="145.93"></text>
<text class="nLabel" x="277.49" y="160.93">7</text>
<text class="belong" x="277.49" y="170.93">(2, 3, 4)</text>
<circle onclick="fromCircle(10)" class="circle" cx="211.9681" cy="199.0986" r="7.6291" />
<text class="tLabel" x="211.97" y="179.10"></text>
<text class="nLabel" x="211.97" y="194.10">8</text>
<text class="belong" x="211.97" y="204.10">(2, 4)</text>
<circle onclick="fromCircle(18)" class="circle" cx="362.6451" cy="235.4488" r="6.0314" />
<text class="tLabel" x="362.65" y="215.45"></text>
<text class="nLabel" x="362.65" y="230.45">5</text>
<text class="belong" x="362.65" y="240.45">(2, 5)</text>
<circle onclick="fromCircle(130)" class="circle" cx="181.1379" cy="188.6564" r="4.5354" />
<text class="tLabel" x="181.14" y="168.66"></text>
<text class="nLabel" x="181.14" y="183.66">1</text>
<text class="belong" x="181.14" y="193.66">(2, 8)</text>
<circle onclick="fromCircle(4)" class="circle" cx="227.9532" cy="136.1307" r="4.6719" />
<text class="tLabel" x="227.95" y="116.13"></text>
<text class="nLabel" x="227.95" y="131.13">3</text>
<text class="belong" x="227.95" y="141.13">(3)</text>
<circle onclick="fromCircle(5)" class="circle" cx="241.0706" cy="175.5671" r="4.6719" />
<text class="tLabel" x="241.07" y="155.57"></text>
<text class="nLabel" x="241.07" y="170.57">3</text>
<text class="belong" x="241.07" y="180.57">(1, 3)</text>
<circle onclick="fromCircle(13)" class="circle" cx="239.8228" cy="214.3602" r="6.0314" />
<text class="tLabel" x="239.82" y="194.36"></text>
<text class="nLabel" x="239.82" y="209.36">5</text>
<text class="belong" x="239.82" y="219.36">(1, 3, 4)</text>
<circle onclick="fromCircle(12)" class="circle" cx="329.2316" cy="127.9323" r="5.3946" />
<text class="tLabel" x="329.23" y="107.93"></text>
<text class="nLabel" x="329.23" y="122.93">4</text>
<text class="belong" x="329.23" y="132.93">(3, 4)</text>
<circle onclick="fromCircle(20)" class="circle" cx="296.8369" cy="136.9253" r="6.0314" />
<text class="tLabel" x="296.84" y="116.93"></text>
<text class="nLabel" x="296.84" y="131.93">5</text>
<text class="belong" x="296.84" y="141.93">(3, 5)</text>
<circle onclick="fromCircle(21)" class="circle" cx="279.9306" cy="263.5373" r="6.0314" />
<text class="tLabel" x="279.93" y="243.54"></text>
<text class="nLabel" x="279.93" y="258.54">5</text>
<text class="belong" x="279.93" y="268.54">(1, 3, 5)</text>
<circle onclick="fromCircle(8)" class="circle" cx="188.8309" cy="223.3812" r="4.5354" />
<text class="tLabel" x="188.83" y="203.38"></text>
<text class="nLabel" x="188.83" y="218.38">1</text>
<text class="belong" x="188.83" y="228.38">(4)</text>
<circle onclick="fromCircle(9)" class="circle" cx="142.8199" cy="334.9812" r="7.1364" />
<text class="tLabel" x="142.82" y="314.98"></text>
<text class="nLabel" x="142.82" y="329.98">7</text>
<text class="belong" x="142.82" y="339.98">(1, 4)</text>
<circle onclick="fromCircle(11)" class="circle" cx="216.6481" cy="237.6153" r="4.6719" />
<text class="tLabel" x="216.65" y="217.62"></text>
<text class="nLabel" x="216.65" y="232.62">3</text>
<text class="belong" x="216.65" y="242.62">(1, 2, 4)</text>
<circle onclick="fromCircle(40)" class="circle" cx="352.9144" cy="152.0969" r="4.5354" />
<text class="tLabel" x="352.91" y="132.10"></text>
<text class="nLabel" x="352.91" y="147.10">1</text>
<text class="belong" x="352.91" y="157.10">(4, 6)</text>
<circle onclick="fromCircle(16)" class="circle" cx="471.8445" cy="369.3962" r="4.5354" />
<text class="tLabel" x="471.84" y="349.40"></text>
<text class="nLabel" x="471.84" y="364.40">1</text>
<text class="belong" x="471.84" y="374.40">(5)</text>
<circle onclick="fromCircle(17)" class="circle" cx="311.1213" cy="253.6640" r="6.0314" />
<text class="tLabel" x="311.12" y="233.66"></text>
<text class="nLabel" x="311.12" y="248.66">5</text>
<text class="belong" x="311.12" y="258.66">(1, 5)</text>
<circle onclick="fromCircle(19)" class="circle" cx="312.5239" cy="220.8406" r="6.0314" />
<text class="tLabel" x="312.52" y="200.84"></text>
<text class="nLabel" x="312.52" y="215.84">5</text>
<text class="belong" x="312.52" y="225.84">(1, 2, 5)</text>
<circle onclick="fromCircle(80)" class="circle" cx="345.1485" cy="262.7842" r="4.5354" />
<text class="tLabel" x="345.15" y="242.78"></text>
<text class="nLabel" x="345.15" y="257.78">1</text>
<text class="belong" x="345.15" y="267.78">(5, 7)</text>
<circle onclick="fromCircle(32)" class="circle" cx="403.4844" cy="86.8132" r="4.5354" />
<text class="tLabel" x="403.48" y="66.81"></text>
<text class="nLabel" x="403.48" y="81.81">2</text>
<text class="belong" x="403.48" y="91.81">(6)</text>
<circle onclick="fromCircle(96)" class="circle" cx="367.1167" cy="179.5322" r="4.5354" />
<text class="tLabel" x="367.12" y="159.53"></text>
<text class="nLabel" x="367.12" y="174.53">1</text>
<text class="belong" x="367.12" y="184.53">(6, 7)</text>
<circle onclick="fromCircle(64)" class="circle" cx="438.2065" cy="52.6583" r="5.3946" />
<text class="tLabel" x="438.21" y="32.66"></text>
<text class="nLabel" x="438.21" y="47.66">4</text>
<text class="belong" x="438.21" y="57.66">(7)</text>
<circle onclick="fromCircle(128)" class="circle" cx="40.8221" cy="18.6322" r="7.6291" />
<text class="tLabel" x="40.82" y="-1.37"></text>
<text class="nLabel" x="40.82" y="13.63">8</text>
<text class="belong" x="40.82" y="23.63">(8)</text>
<rect class="p0 borderLine" x="500.00" y="50.00" width="30.00" height="15.00" />
<rect class="q0" x="500.00" y="50.00" width="30.00" height="15.00" />
<text class="legend" x="540.00" y="65.00">Ball2017</text>
<rect class="p1 borderLine" x="500.00" y="90.00" width="30.00" height="15.00" />
<rect class="q1" x="500.00" y="90.00" width="30.00" height="15.00" />
<text class="legend" x="540.00" y="105.00">Courtois2015</text>
<rect class="p2 borderLine" x="500.00" y="130.00" width="30.00" height="15.00" />
<rect class="q2" x="500.00" y="130.00" width="30.00" height="15.00" />
<text class="legend" x="540.00" y="145.00">Hilton2017</text>
<rect class="p3 borderLine" x="500.00" y="170.00" width="30.00" height="15.00" />
<rect class="q3" x="500.00" y="170.00" width="30.00" height="15.00" />
<text class="legend" x="540.00" y="185.00">Ball2017</text>
<rect class="p4 borderLine" x="500.00" y="210.00" width="30.00" height="15.00" />
<rect class="q4" x="500.00" y="210.00" width="30.00" height="15.00" />
<text class="legend" x="540.00" y="225.00">Ball2017</text>
<rect class="p5 borderLine" x="500.00" y="250.00" width="30.00" height="15.00" />
<rect class="q5" x="500.00" y="250.00" width="30.00" height="15.00" />
<text class="legend" x="540.00" y="265.00">Ball2017</text>
<rect class="p6 borderLine" x="500.00" y="290.00" width="30.00" height="15.00" />
<rect class="q6" x="500.00" y="290.00" width="30.00" height="15.00" />
<text class="legend" x="540.00" y="305.00">Courtois2015</text>
<rect class="p7 borderLine" x="500.00" y="330.00" width="30.00" height="15.00" />
<rect class="q7" x="500.00" y="330.00" width="30.00" height="15.00" />
<text class="legend" x="540.00" y="345.00">Hilton2017</text>
</svg>
