<svg xmlns="http://www.w3.org/2000/svg" xmlns:xlink="http://www.w3.org/1999/xlink" width="700" height="500">
<defs>
<style type="text/css"><![CDATA[
  .borderLine {
	   stroke: none;
	   fill-opacity: 0.4;
  }
  .outLine {
	   stroke-width: 1;
	   fill: none;
  }
  .circle {
	   stroke: #888888;
	   stroke-width: 0.5;
	   fill: none;
    pointer-events: all;
  }
  .spcircle {
	   stroke: #FF2222;
	   stroke-width: 1;
	   fill: none;
    pointer-events: all;
  }
  .tLabel {
	   font-family: Arial;
    pointer-events: none;
	   font-size: 14px;
	   text-anchor: middle;
	   alignment-baseline: central;
  }
  .nLabel {
	   font-family: Arial;
    pointer-events: none;
	   font-size: 10px;
	   text-anchor: middle;
	   alignment-baseline: central;
  }
  .belong {
	   font-family: Arial;
    pointer-events: none;
	   font-size: 5px;
	   text-anchor: middle;
	   alignment-baseline: central;
  }
  .p0{
    stroke: none;
    fill: #e6194b;
  }
  .q0{
    fill: none;
    stroke: #e6194b;
  }
  .p1{
    stroke: none;
    fill: #3cb44b;
  }
  .q1{
    fill: none;
    stroke: #3cb44b;
  }
  .p2{
    stroke: none;
    fill: #ffe119;
  }
  .q2{
    fill: none;
    stroke: #ffe119;
  }
  .p3{
    stroke: none;
    fill: #0082c8;
  }
  .q3{
    fill: none;
    stroke: #0082c8;
  }
  .p4{
    stroke: none;
    fill: #f58231;
  }
  .q4{
    fill: none;
    stroke: #f58231;
  }
  .p5{
    stroke: none;
    fill: #911eb4;
  }
  .q5{
    fill: none;
    stroke: #911eb4;
  }
]]>
</style>
<symbol id="bl0">
<path d="M 91.69 330.43 L 94.58 304.65 L 69.82 296.89 L 57.48 319.71 L 77.52 336.18 L 77.69 455.17 L 57.54 472.65 L 71.92 495.12 L 96.23 484.14 L 88.88 458.49 L 128.84 397.34 L 150.55 397.73 L 160.30 378.33 L 147.04 361.13 L 125.80 365.63 Z" />
</symbol>
<symbol id="bl1">
<path d="M 142.07 359.98 L 124.76 366.71 L 120.09 384.69 L 131.92 399.00 L 150.45 397.78 L 189.62 463.36 L 180.03 484.58 L 196.59 500.96 L 217.71 491.13 L 215.83 467.91 L 459.17 267.66 L 482.66 273.57 L 495.23 252.87 L 479.15 234.75 L 457.10 244.77 L 318.35 167.44 L 308.60 184.93 L 324.37 240.42 L 268.88 256.19 L 253.11 200.70 L 308.60 184.93 L 318.35 167.44 L 189.01 95.34 L 185.84 71.22 L 161.83 67.29 L 151.14 89.14 L 168.98 105.69 L 156.95 215.67 L 141.93 220.06 L 134.45 233.80 L 138.90 248.80 L 152.66 256.23 Z" />
</symbol>
<symbol id="bl2">
<path d="M 45.80 227.16 L 25.58 227.90 L 15.95 245.70 L 26.39 263.03 L 46.62 262.85 L 67.22 298.17 L 57.49 311.80 L 61.24 328.11 L 75.94 336.12 L 91.69 330.43 L 125.80 365.63 L 120.85 387.30 L 138.65 400.62 L 158.05 389.77 L 156.00 367.63 L 228.64 310.28 L 255.41 311.58 L 260.35 285.24 L 365.74 202.03 L 386.72 209.17 L 401.83 192.96 L 393.23 172.54 L 371.08 172.00 L 307.33 68.10 L 316.99 48.94 L 304.15 31.74 L 283.03 35.56 L 277.01 56.15 L 190.85 79.98 L 179.76 66.91 L 162.61 66.91 L 151.53 79.99 L 154.34 96.90 L 108.40 128.23 L 92.86 119.36 L 76.32 126.16 L 71.49 143.38 L 82.10 157.79 Z" />
</symbol>
<symbol id="bl3">
<path d="M 153.90 365.35 L 129.38 362.86 L 120.36 385.78 L 140.00 400.67 L 159.63 385.78 L 316.42 429.78 L 321.98 450.05 L 342.49 454.65 L 356.17 438.69 L 348.49 419.12 L 462.49 270.87 L 485.29 272.26 L 495.08 251.62 L 479.56 234.84 L 458.22 243.00 L 398.45 201.10 L 400.47 181.30 L 384.67 169.21 L 366.09 176.32 L 362.41 195.87 L 308.08 214.08 L 302.80 205.79 L 294.26 200.93 L 284.44 200.63 L 275.62 204.95 L 186.50 98.89 L 155.58 98.53 L 160.55 68.02 L -382.08 -577.74 L 367.36 174.94 L 363.95 179.44 L 361.90 184.70 L 361.37 190.32 L 362.41 195.87 L 308.08 214.08 L 295.49 201.32 L 277.70 203.42 L 268.42 218.75 L 274.84 235.49 Z" />
</symbol>
<symbol id="bl4">
<path d="M 316.45 55.67 L 304.56 31.91 L 279.27 40.08 L 283.52 66.31 L 310.09 66.08 L 461.50 239.35 L 458.30 266.53 L 485.03 272.41 L 493.55 246.40 L 468.51 235.34 L 423.82 100.32 L 437.34 85.30 L 431.28 66.01 L 411.60 61.41 L 397.62 76.01 Z" />
</symbol>
<symbol id="bl5">
<path d="M 100.96 31.55 L 100.36 5.97 L 75.24 1.10 L 65.13 24.60 L 85.92 39.50 L 90.41 119.35 L 75.87 126.68 L 71.32 142.31 L 79.66 156.29 L 95.58 159.71 L 112.64 244.42 L 114.74 244.00 L 146.68 195.96 L 194.72 227.89 L 162.78 275.93 L 114.74 244.00 L 112.64 244.42 L 135.97 360.28 L 119.62 379.49 L 134.45 399.90 L 157.77 390.28 L 153.90 365.35 L 274.84 235.49 L 296.72 239.33 L 309.13 220.91 L 297.35 202.08 L 275.35 205.17 L 184.58 100.80 L 191.58 85.81 L 185.16 70.56 L 169.54 65.09 L 155.01 73.00 Z" />
</symbol>
</defs>
<!-- isDone: 0 -->
<rect width="700" height="500" style="fill:#fff;stroke-width:0" />
<use class="p0 borderLine" xlink:href="#bl0"/>
<use class="p1 borderLine" xlink:href="#bl1"/>
<use class="p2 borderLine" xlink:href="#bl2"/>
<use class="p3 borderLine" xlink:href="#bl3"/>
<use class="p4 borderLine" xlink:href="#bl4"/>
<use class="p5 borderLine" xlink:href="#bl5"/>
<use class="q0 outLine" xlink:href="#bl0"/>
<use class="q1 outLine" xlink:href="#bl1"/>
<use class="q2 outLine" xlink:href="#bl2"/>
<use class="q3 outLine" xlink:href="#bl3"/>
<use class="q4 outLine" xlink:href="#bl4"/>
<use class="q5 outLine" xlink:href="#bl5"/>
<circle class="spcircle" cx="91.6879" cy="330.4316" r="2" />
<circle class="spcircle" cx="94.5783" cy="304.6491" r="2" />
<circle class="spcircle" cx="69.8219" cy="296.8898" r="2" />
<circle class="spcircle" cx="57.4789" cy="319.7095" r="2" />
<circle class="spcircle" cx="77.5225" cy="336.1820" r="2" />
<circle class="spcircle" cx="77.6941" cy="455.1717" r="2" />
<circle class="spcircle" cx="57.5386" cy="472.6476" r="2" />
<circle class="spcircle" cx="71.9173" cy="495.1176" r="2" />
<circle class="spcircle" cx="96.2299" cy="484.1382" r="2" />
<circle class="spcircle" cx="88.8803" cy="458.4938" r="2" />
<circle class="spcircle" cx="128.8400" cy="397.3443" r="2" />
<circle class="spcircle" cx="150.5478" cy="397.7251" r="2" />
<circle class="spcircle" cx="160.2987" cy="378.3268" r="2" />
<circle class="spcircle" cx="147.0428" cy="361.1323" r="2" />
<circle class="spcircle" cx="125.8020" cy="365.6269" r="2" />
<circle class="spcircle" cx="142.0681" cy="359.9820" r="2" />
<circle class="spcircle" cx="124.7595" cy="366.7148" r="2" />
<circle class="spcircle" cx="120.0859" cy="384.6891" r="2" />
<circle class="spcircle" cx="131.9228" cy="399.0002" r="2" />
<circle class="spcircle" cx="150.4547" cy="397.7810" r="2" />
<circle class="spcircle" cx="189.6220" cy="463.3573" r="2" />
<circle class="spcircle" cx="180.0266" cy="484.5833" r="2" />
<circle class="spcircle" cx="196.5911" cy="500.9612" r="2" />
<circle class="spcircle" cx="217.7070" cy="491.1258" r="2" />
<circle class="spcircle" cx="215.8285" cy="467.9076" r="2" />
<circle class="spcircle" cx="459.1703" cy="267.6628" r="2" />
<circle class="spcircle" cx="482.6591" cy="273.5726" r="2" />
<circle class="spcircle" cx="495.2309" cy="252.8699" r="2" />
<circle class="spcircle" cx="479.1548" cy="234.7534" r="2" />
<circle class="spcircle" cx="457.1040" cy="244.7741" r="2" />
<circle class="spcircle" cx="189.0075" cy="95.3434" r="2" />
<circle class="spcircle" cx="185.8418" cy="71.2236" r="2" />
<circle class="spcircle" cx="161.8348" cy="67.2927" r="2" />
<circle class="spcircle" cx="151.1418" cy="89.1432" r="2" />
<circle class="spcircle" cx="168.9758" cy="105.6880" r="2" />
<circle class="spcircle" cx="156.9484" cy="215.6711" r="2" />
<circle class="spcircle" cx="141.9346" cy="220.0644" r="2" />
<circle class="spcircle" cx="134.4494" cy="233.8009" r="2" />
<circle class="spcircle" cx="138.8967" cy="248.7989" r="2" />
<circle class="spcircle" cx="152.6599" cy="256.2346" r="2" />
<circle class="spcircle" cx="45.7985" cy="227.1578" r="2" />
<circle class="spcircle" cx="25.5816" cy="227.9039" r="2" />
<circle class="spcircle" cx="15.9536" cy="245.6967" r="2" />
<circle class="spcircle" cx="26.3880" cy="263.0289" r="2" />
<circle class="spcircle" cx="46.6179" cy="262.8463" r="2" />
<circle class="spcircle" cx="67.2184" cy="298.1693" r="2" />
<circle class="spcircle" cx="57.4925" cy="311.7958" r="2" />
<circle class="spcircle" cx="61.2434" cy="328.1117" r="2" />
<circle class="spcircle" cx="75.9435" cy="336.1230" r="2" />
<circle class="spcircle" cx="91.6879" cy="330.4316" r="2" />
<circle class="spcircle" cx="125.8020" cy="365.6269" r="2" />
<circle class="spcircle" cx="120.8504" cy="387.2982" r="2" />
<circle class="spcircle" cx="138.6451" cy="400.6216" r="2" />
<circle class="spcircle" cx="158.0455" cy="389.7686" r="2" />
<circle class="spcircle" cx="156.0035" cy="367.6328" r="2" />
<circle class="spcircle" cx="228.6417" cy="310.2788" r="2" />
<circle class="spcircle" cx="255.4082" cy="311.5764" r="2" />
<circle class="spcircle" cx="260.3545" cy="285.2389" r="2" />
<circle class="spcircle" cx="365.7407" cy="202.0276" r="2" />
<circle class="spcircle" cx="386.7170" cy="209.1692" r="2" />
<circle class="spcircle" cx="401.8271" cy="192.9612" r="2" />
<circle class="spcircle" cx="393.2343" cy="172.5364" r="2" />
<circle class="spcircle" cx="371.0819" cy="172.0050" r="2" />
<circle class="spcircle" cx="307.3348" cy="68.1028" r="2" />
<circle class="spcircle" cx="316.9862" cy="48.9371" r="2" />
<circle class="spcircle" cx="304.1462" cy="31.7439" r="2" />
<circle class="spcircle" cx="283.0290" cy="35.5565" r="2" />
<circle class="spcircle" cx="277.0119" cy="56.1543" r="2" />
<circle class="spcircle" cx="190.8502" cy="79.9786" r="2" />
<circle class="spcircle" cx="179.7592" cy="66.9053" r="2" />
<circle class="spcircle" cx="162.6149" cy="66.9107" r="2" />
<circle class="spcircle" cx="151.5321" cy="79.9910" r="2" />
<circle class="spcircle" cx="154.3421" cy="96.9033" r="2" />
<circle class="spcircle" cx="108.4028" cy="128.2261" r="2" />
<circle class="spcircle" cx="92.8645" cy="119.3627" r="2" />
<circle class="spcircle" cx="76.3164" cy="126.1570" r="2" />
<circle class="spcircle" cx="71.4893" cy="143.3819" r="2" />
<circle class="spcircle" cx="82.0967" cy="157.7862" r="2" />
<circle class="spcircle" cx="153.8966" cy="365.3467" r="2" />
<circle class="spcircle" cx="129.3834" cy="362.8556" r="2" />
<circle class="spcircle" cx="120.3607" cy="385.7836" r="2" />
<circle class="spcircle" cx="139.9976" cy="400.6664" r="2" />
<circle class="spcircle" cx="159.6331" cy="385.7819" r="2" />
<circle class="spcircle" cx="316.4228" cy="429.7809" r="2" />
<circle class="spcircle" cx="321.9825" cy="450.0495" r="2" />
<circle class="spcircle" cx="342.4911" cy="454.6455" r="2" />
<circle class="spcircle" cx="356.1693" cy="438.6881" r="2" />
<circle class="spcircle" cx="348.4911" cy="419.1234" r="2" />
<circle class="spcircle" cx="462.4866" cy="270.8715" r="2" />
<circle class="spcircle" cx="485.2925" cy="272.2631" r="2" />
<circle class="spcircle" cx="495.0786" cy="251.6167" r="2" />
<circle class="spcircle" cx="479.5629" cy="234.8445" r="2" />
<circle class="spcircle" cx="458.2184" cy="242.9965" r="2" />
<circle class="spcircle" cx="398.4477" cy="201.0960" r="2" />
<circle class="spcircle" cx="400.4708" cy="181.3025" r="2" />
<circle class="spcircle" cx="384.6742" cy="169.2050" r="2" />
<circle class="spcircle" cx="366.0921" cy="176.3174" r="2" />
<circle class="spcircle" cx="362.4098" cy="195.8703" r="2" />
<circle class="spcircle" cx="308.0764" cy="214.0814" r="2" />
<circle class="spcircle" cx="302.8017" cy="205.7915" r="2" />
<circle class="spcircle" cx="294.2628" cy="200.9302" r="2" />
<circle class="spcircle" cx="284.4418" cy="200.6257" r="2" />
<circle class="spcircle" cx="275.6181" cy="204.9486" r="2" />
<circle class="spcircle" cx="186.4987" cy="98.8930" r="2" />
<circle class="spcircle" cx="155.5787" cy="98.5346" r="2" />
<circle class="spcircle" cx="160.5519" cy="68.0151" r="2" />
<circle class="spcircle" cx="367.3571" cy="174.9364" r="2" />
<circle class="spcircle" cx="363.9460" cy="179.4359" r="2" />
<circle class="spcircle" cx="361.8993" cy="184.6982" r="2" />
<circle class="spcircle" cx="361.3737" cy="190.3199" r="2" />
<circle class="spcircle" cx="362.4098" cy="195.8703" r="2" />
<circle class="spcircle" cx="308.0764" cy="214.0814" r="2" />
<circle class="spcircle" cx="295.4943" cy="201.3192" r="2" />
<circle class="spcircle" cx="277.6958" cy="203.4162" r="2" />
<circle class="spcircle" cx="268.4243" cy="218.7533" r="2" />
<circle class="spcircle" cx="274.8389" cy="235.4875" r="2" />
<circle class="spcircle" cx="316.4530" cy="55.6743" r="2" />
<circle class="spcircle" cx="304.5594" cy="31.9119" r="2" />
<circle class="spcircle" cx="279.2717" cy="40.0756" r="2" />
<circle class="spcircle" cx="283.5175" cy="66.3069" r="2" />
<circle class="spcircle" cx="310.0893" cy="66.0765" r="2" />
<circle class="spcircle" cx="461.4986" cy="239.3460" r="2" />
<circle class="spcircle" cx="458.3024" cy="266.5296" r="2" />
<circle class="spcircle" cx="485.0333" cy="272.4137" r="2" />
<circle class="spcircle" cx="493.5469" cy="246.4006" r="2" />
<circle class="spcircle" cx="468.5096" cy="235.3418" r="2" />
<circle class="spcircle" cx="423.8167" cy="100.3234" r="2" />
<circle class="spcircle" cx="437.3360" cy="85.2991" r="2" />
<circle class="spcircle" cx="431.2840" cy="66.0150" r="2" />
<circle class="spcircle" cx="411.6042" cy="61.4098" r="2" />
<circle class="spcircle" cx="397.6239" cy="76.0062" r="2" />
<circle class="spcircle" cx="100.9592" cy="31.5454" r="2" />
<circle class="spcircle" cx="100.3565" cy="5.9723" r="2" />
<circle class="spcircle" cx="75.2440" cy="1.1028" r="2" />
<circle class="spcircle" cx="65.1268" cy="24.5973" r="2" />
<circle class="spcircle" cx="85.9204" cy="39.4960" r="2" />
<circle class="spcircle" cx="90.4078" cy="119.3526" r="2" />
<circle class="spcircle" cx="75.8695" cy="126.6765" r="2" />
<circle class="spcircle" cx="71.3224" cy="142.3073" r="2" />
<circle class="spcircle" cx="79.6634" cy="156.2870" r="2" />
<circle class="spcircle" cx="95.5784" cy="159.7090" r="2" />
<circle class="spcircle" cx="135.9703" cy="360.2779" r="2" />
<circle class="spcircle" cx="119.6168" cy="379.4881" r="2" />
<circle class="spcircle" cx="134.4474" cy="399.8970" r="2" />
<circle class="spcircle" cx="157.7692" cy="390.2761" r="2" />
<circle class="spcircle" cx="153.8966" cy="365.3467" r="2" />
<circle class="spcircle" cx="274.8389" cy="235.4875" r="2" />
<circle class="spcircle" cx="296.7179" cy="239.3322" r="2" />
<circle class="spcircle" cx="309.1308" cy="220.9097" r="2" />
<circle class="spcircle" cx="297.3515" cy="202.0756" r="2" />
<circle class="spcircle" cx="275.3545" cy="205.1741" r="2" />
<circle class="spcircle" cx="184.5772" cy="100.8027" r="2" />
<circle class="spcircle" cx="191.5840" cy="85.8093" r="2" />
<circle class="spcircle" cx="185.1636" cy="70.5555" r="2" />
<circle class="spcircle" cx="169.5438" cy="65.0858" r="2" />
<circle class="spcircle" cx="155.0099" cy="73.0017" r="2" />
<circle onclick="fromCircle(1)" class="circle" cx="77.7235" cy="475.5667" r="9.1332" />
<text class="tLabel" x="77.72" y="455.57"></text>
<text class="nLabel" x="77.72" y="470.57">7</text>
<text class="belong" x="77.72" y="480.57">(1)</text>
<circle onclick="fromCircle(2)" class="circle" cx="200.0801" cy="480.8669" r="9.1332" />
<text class="tLabel" x="200.08" y="460.87"></text>
<text class="nLabel" x="200.08" y="475.87">10</text>
<text class="belong" x="200.08" y="485.87">(2)</text>
<circle onclick="fromCircle(6)" class="circle" cx="154.7313" cy="235.9452" r="9.1332" />
<text class="tLabel" x="154.73" y="215.95"></text>
<text class="nLabel" x="154.73" y="230.95">49</text>
<text class="belong" x="154.73" y="240.95">(2, 3)</text>
<circle onclick="fromCircle(14)" class="circle" cx="242.7695" cy="295.5696" r="9.1332" />
<text class="tLabel" x="242.77" y="275.57"></text>
<text class="nLabel" x="242.77" y="290.57">2</text>
<text class="belong" x="242.77" y="300.57">(2, 3, 4)</text>
<circle onclick="fromCircle(10)" class="circle" cx="356.2835" cy="313.7601" r="9.1332" />
<text class="tLabel" x="356.28" y="293.76"></text>
<text class="nLabel" x="356.28" y="308.76">3</text>
<text class="belong" x="356.28" y="318.76">(2, 4)</text>
<circle onclick="fromCircle(26)" class="circle" cx="474.9186" cy="254.7036" r="9.1332" />
<text class="tLabel" x="474.92" y="234.70"></text>
<text class="nLabel" x="474.92" y="249.70">1</text>
<text class="belong" x="474.92" y="259.70">(2, 4, 5)</text>
<circle onclick="fromCircle(38)" class="circle" cx="171.1929" cy="85.4140" r="9.1332" />
<text class="tLabel" x="171.19" y="65.41"></text>
<text class="nLabel" x="171.19" y="80.41">4</text>
<text class="belong" x="171.19" y="90.41">(2, 3, 6)</text>
<circle onclick="fromCircle(4)" class="circle" cx="36.3432" cy="245.2286" r="20.3950" />
<text class="tLabel" x="36.34" y="225.23"></text>
<text class="nLabel" x="36.34" y="240.23">287</text>
<text class="belong" x="36.34" y="250.23">(3)</text>
<circle onclick="fromCircle(5)" class="circle" cx="77.4931" cy="315.7870" r="9.1332" />
<text class="tLabel" x="77.49" y="295.79"></text>
<text class="nLabel" x="77.49" y="310.79">1</text>
<text class="belong" x="77.49" y="320.79">(1, 3)</text>
<circle onclick="fromCircle(12)" class="circle" cx="381.7475" cy="189.3889" r="9.1332" />
<text class="tLabel" x="381.75" y="169.39"></text>
<text class="nLabel" x="381.75" y="184.39">16</text>
<text class="belong" x="381.75" y="194.39">(3, 4)</text>
<circle onclick="fromCircle(44)" class="circle" cx="288.7388" cy="220.5628" r="9.1332" />
<text class="tLabel" x="288.74" y="200.56"></text>
<text class="nLabel" x="288.74" y="215.56">1</text>
<text class="belong" x="288.74" y="225.56">(3, 4, 6)</text>
<circle onclick="fromCircle(20)" class="circle" cx="296.6693" cy="50.7189" r="9.1332" />
<text class="tLabel" x="296.67" y="30.72"></text>
<text class="nLabel" x="296.67" y="45.72">2</text>
<text class="belong" x="296.67" y="55.72">(3, 5)</text>
<circle onclick="fromCircle(36)" class="circle" cx="91.5520" cy="139.7154" r="9.1332" />
<text class="tLabel" x="91.55" y="119.72"></text>
<text class="nLabel" x="91.55" y="134.72">39</text>
<text class="belong" x="91.55" y="144.72">(3, 6)</text>
<circle onclick="fromCircle(8)" class="circle" cx="336.0591" cy="435.2914" r="9.1332" />
<text class="tLabel" x="336.06" y="415.29"></text>
<text class="nLabel" x="336.06" y="430.29">20</text>
<text class="belong" x="336.06" y="440.29">(4)</text>
<circle onclick="fromCircle(16)" class="circle" cx="417.4077" cy="80.9616" r="9.1332" />
<text class="tLabel" x="417.41" y="60.96"></text>
<text class="nLabel" x="417.41" y="75.96">2</text>
<text class="belong" x="417.41" y="85.96">(5)</text>
<circle onclick="fromCircle(32)" class="circle" cx="84.7762" cy="19.1332" r="9.1332" />
<text class="tLabel" x="84.78" y="-0.87"></text>
<text class="nLabel" x="84.78" y="14.13">39</text>
<text class="belong" x="84.78" y="24.13">(6)</text>
<circle onclick="fromCircle(47)" class="circle" cx="139.9967" cy="380.2715" r="9.1332" />
<text class="tLabel" x="140.00" y="360.27"></text>
<text class="nLabel" x="140.00" y="375.27">1</text>
<text class="belong" x="140.00" y="385.27">(1, 2, 3, 4, 6)</text>
<rect class="p0 borderLine" x="500.00" y="50.00" width="30.00" height="15.00" />
<rect class="q0" x="500.00" y="50.00" width="30.00" height="15.00" />
<text class="legend" x="540.00" y="65.00">iba</text>
<rect class="p1 borderLine" x="500.00" y="90.00" width="30.00" height="15.00" />
<rect class="q1" x="500.00" y="90.00" width="30.00" height="15.00" />
<text class="legend" x="540.00" y="105.00">ic</text>
<rect class="p2 borderLine" x="500.00" y="130.00" width="30.00" height="15.00" />
<rect class="q2" x="500.00" y="130.00" width="30.00" height="15.00" />
<text class="legend" x="540.00" y="145.00">ida</text>
<rect class="p3 borderLine" x="500.00" y="170.00" width="30.00" height="15.00" />
<rect class="q3" x="500.00" y="170.00" width="30.00" height="15.00" />
<text class="legend" x="540.00" y="185.00">iea</text>
<rect class="p4 borderLine" x="500.00" y="210.00" width="30.00" height="15.00" />
<rect class="q4" x="500.00" y="210.00" width="30.00" height="15.00" />
<text class="legend" x="540.00" y="225.00">iss</text>
<rect class="p5 borderLine" x="500.00" y="250.00" width="30.00" height="15.00" />
<rect class="q5" x="500.00" y="250.00" width="30.00" height="15.00" />
<text class="legend" x="540.00" y="265.00">nas</text>
</svg>
