<svg xmlns="http://www.w3.org/2000/svg" xmlns:xlink="http://www.w3.org/1999/xlink" width="700" height="500">
<defs>
<style type="text/css"><![CDATA[
  .borderLine {
	   stroke: none;
	   fill-opacity: 0.4;
  }
  .outLine {
	   stroke-width: 1;
	   fill: none;
  }
  .circle {
	   stroke: #888888;
	   stroke-width: 0.5;
	   fill: none;
    pointer-events: all;
  }
  .spcircle {
	   stroke: #FF2222;
	   stroke-width: 1;
	   fill: none;
    pointer-events: all;
  }
  .tLabel {
	   font-family: Arial;
    pointer-events: none;
	   font-size: 14px;
	   text-anchor: middle;
	   alignment-baseline: central;
  }
  .nLabel {
	   font-family: Arial;
    pointer-events: none;
	   font-size: 10px;
	   text-anchor: middle;
	   alignment-baseline: central;
  }
  .belong {
	   font-family: Arial;
    pointer-events: none;
	   font-size: 5px;
	   text-anchor: middle;
	   alignment-baseline: central;
  }
  .p0{
    stroke: none;
    fill: #e6194b;
  }
  .q0{
    fill: none;
    stroke: #e6194b;
  }
  .p1{
    stroke: none;
    fill: #3cb44b;
  }
  .q1{
    fill: none;
    stroke: #3cb44b;
  }
  .p2{
    stroke: none;
    fill: #ffe119;
  }
  .q2{
    fill: none;
    stroke: #ffe119;
  }
  .p3{
    stroke: none;
    fill: #0082c8;
  }
  .q3{
    fill: none;
    stroke: #0082c8;
  }
  .p4{
    stroke: none;
    fill: #f58231;
  }
  .q4{
    fill: none;
    stroke: #f58231;
  }
]]>
</style>
<symbol id="bl0">
<path d="M 234.58 22.05 L 234.44 22.23 L 234.32 22.44 L 234.22 22.64 L 234.13 22.88 L 234.06 23.10 L 234.01 23.36 L 233.98 23.62 L 233.98 23.90 L 233.99 24.17 L 234.01 24.46 L 234.05 24.73 L 234.10 25.07 L 234.15 25.43 L 234.22 25.75 L 234.29 26.09 L 234.38 26.47 L 234.48 26.82 L 234.57 27.14 L 234.66 27.43 L 234.75 27.69 L 234.84 27.96 L 234.94 28.24 L 235.02 28.52 L 235.23 28.76 L 235.53 28.88 L 235.86 28.87 L 236.17 28.82 L 236.50 28.78 L 236.82 28.76 L 237.14 28.75 L 237.48 28.70 L 237.83 28.67 L 238.20 28.67 L 238.57 28.63 L 238.93 28.58 L 239.30 28.54 L 239.66 28.55 L 240.00 28.56 L 240.35 28.55 L 240.71 28.55 L 241.09 28.59 L 241.46 28.68 L 241.82 28.76 L 242.17 28.85 L 242.46 29.00 L 242.76 29.18 L 243.06 29.40 L 243.35 29.64 L 243.63 29.88 L 243.89 30.15 L 244.09 30.45 L 244.29 30.75 L 244.44 31.08 L 244.57 31.41 L 244.69 31.74 L 244.80 32.07 L 244.86 32.41 L 244.85 32.75 L 244.86 33.11 L 244.87 33.45 L 244.88 33.79 L 244.89 34.14 L 244.90 34.49 L 244.93 34.84 L 244.96 35.18 L 244.99 35.53 L 245.03 35.88 L 245.07 36.22 L 245.11 36.57 L 245.15 36.91 L 245.18 37.25 L 245.22 37.60 L 245.25 37.96 L 245.27 38.31 L 245.30 38.68 L 245.31 39.04 L 245.33 39.41 L 245.36 39.77 L 245.39 40.12 L 245.41 40.49 L 245.42 40.85 L 245.44 41.21 L 245.46 41.58 L 245.49 41.95 L 245.60 42.31 L 245.81 42.62 L 246.11 42.84 L 246.46 42.96 L 246.83 42.95 L 247.19 42.83 L 247.56 42.70 L 247.93 42.56 L 248.31 42.40 L 248.69 42.23 L 249.10 42.13 L 249.54 42.15 L 249.96 42.27 L 250.35 42.50 L 250.67 42.82 L 250.97 43.15 L 251.27 43.50 L 251.58 43.83 L 251.90 44.16 L 252.21 44.49 L 252.53 44.83 L 252.81 45.19 L 253.09 45.56 L 253.37 45.92 L 253.65 46.28 L 253.94 46.63 L 254.22 46.98 L 254.50 47.34 L 254.79 47.69 L 255.07 48.04 L 255.36 48.40 L 255.65 48.75 L 255.95 49.10 L 256.25 49.45 L 256.54 49.79 L 256.83 50.13 L 257.12 50.46 L 257.40 50.80 L 257.69 51.13 L 257.98 51.46 L 258.28 51.79 L 258.57 52.11 L 258.87 52.43 L 259.17 52.74 L 259.47 53.05 L 259.78 53.36 L 260.09 53.67 L 260.39 53.97 L 260.68 54.26 L 260.97 54.55 L 261.25 54.84 L 261.54 55.12 L 261.84 55.40 L 262.13 55.68 L 262.42 55.95 L 262.70 56.21 L 262.99 56.47 L 263.29 56.72 L 263.59 56.97 L 263.89 57.22 L 264.21 57.46 L 264.54 57.69 L 264.88 57.92 L 265.21 58.14 L 265.52 58.36 L 265.81 58.57 L 266.09 58.78 L 266.39 58.98 L 266.69 59.17 L 266.98 59.36 L 267.26 59.54 L 267.56 59.71 L 267.85 59.88 L 268.14 60.04 L 268.42 60.19 L 268.71 60.34 L 269.00 60.48 L 269.29 60.60 L 269.60 60.72 L 269.94 60.83 L 270.31 60.93 L 270.70 61.01 L 271.04 61.08 L 271.34 61.13 L 271.67 61.17 L 271.98 61.19 L 272.26 61.19 L 272.56 61.17 L 272.83 61.13 L 273.10 61.06 L 273.36 60.97 L 273.61 60.86 L 273.85 60.72 L 274.08 60.58 L 274.28 60.43 L 274.49 60.25 L 274.67 60.05 L 274.83 59.85 L 274.98 59.65 L 275.10 59.41 L 275.19 59.19 L 275.27 58.93 L 275.32 58.69 L 275.35 58.42 L 275.36 58.16 L 275.34 57.87 L 275.30 57.60 L 275.24 57.29 L 275.17 57.00 L 275.07 56.67 L 274.96 56.33 L 274.84 56.01 L 274.71 55.66 L 274.56 55.29 L 274.40 54.92 L 274.23 54.58 L 274.05 54.30 L 273.87 54.03 L 273.68 53.76 L 273.49 53.49 L 273.29 53.24 L 273.08 52.97 L 272.86 52.68 L 272.64 52.41 L 272.41 52.15 L 272.18 51.88 L 271.94 51.58 L 271.70 51.26 L 271.45 50.92 L 271.20 50.58 L 270.94 50.27 L 270.68 49.97 L 270.42 49.68 L 270.15 49.39 L 269.88 49.11 L 269.60 48.83 L 269.32 48.54 L 269.04 48.25 L 268.75 47.97 L 268.46 47.70 L 268.16 47.42 L 267.87 47.12 L 267.57 46.81 L 267.26 46.50 L 266.95 46.18 L 266.64 45.87 L 266.33 45.56 L 266.01 45.26 L 265.69 44.96 L 265.37 44.68 L 265.04 44.39 L 264.71 44.11 L 264.38 43.83 L 264.04 43.54 L 263.70 43.25 L 263.36 42.96 L 263.02 42.67 L 262.67 42.38 L 262.32 42.09 L 261.97 41.81 L 261.61 41.53 L 261.25 41.26 L 260.89 40.98 L 260.54 40.70 L 260.19 40.41 L 259.82 40.13 L 259.45 39.85 L 259.08 39.56 L 258.71 39.28 L 258.35 38.99 L 257.98 38.69 L 257.60 38.40 L 257.22 38.11 L 256.83 37.84 L 256.43 37.58 L 256.03 37.32 L 255.62 37.07 L 255.21 36.82 L 254.81 36.56 L 254.40 36.31 L 254.00 36.04 L 253.61 35.77 L 253.24 35.46 L 252.90 35.13 L 252.56 34.82 L 252.18 34.52 L 251.84 34.19 L 251.51 33.85 L 251.21 33.46 L 250.80 33.23 L 250.40 33.01 L 250.00 32.78 L 249.59 32.57 L 249.22 32.31 L 248.86 32.04 L 248.46 31.81 L 248.06 31.58 L 247.69 31.35 L 247.31 31.15 L 246.94 30.92 L 246.57 30.70 L 246.19 30.48 L 245.89 30.16 L 245.69 29.75 L 245.51 29.35 L 245.36 28.95 L 245.23 28.56 L 245.10 28.16 L 244.96 27.77 L 244.81 27.37 L 244.68 26.99 L 244.53 26.60 L 244.41 26.21 L 244.30 25.82 L 244.16 25.43 L 244.02 25.02 L 243.88 24.62 L 243.73 24.25 L 243.48 23.97 L 243.20 23.74 L 242.88 23.54 L 242.55 23.38 L 242.22 23.22 L 241.91 23.07 L 241.60 22.93 L 241.29 22.77 L 240.99 22.61 L 240.69 22.45 L 240.39 22.29 L 240.06 22.13 L 239.68 21.98 L 239.29 21.85 L 238.93 21.73 L 238.59 21.63 L 238.19 21.53 L 237.83 21.44 L 237.52 21.37 L 237.19 21.31 L 236.88 21.28 L 236.57 21.26 L 236.32 21.26 L 236.04 21.28 L 235.80 21.33 L 235.56 21.40 L 235.34 21.50 L 235.12 21.60 L 234.92 21.73 L 234.75 21.88 Z" />
</symbol>
<symbol id="bl1">
<path d="M 228.31 54.50 L 228.48 54.65 L 228.66 54.78 L 228.86 54.89 L 229.07 54.99 L 229.30 55.07 L 229.54 55.12 L 229.79 55.15 L 230.06 55.17 L 230.33 55.17 L 230.60 55.15 L 230.88 55.12 L 231.20 55.07 L 231.55 55.00 L 231.93 54.92 L 232.31 54.83 L 232.70 54.75 L 233.08 54.65 L 233.47 54.55 L 233.86 54.44 L 234.25 54.32 L 234.64 54.20 L 235.03 54.08 L 235.42 53.94 L 235.81 53.80 L 236.21 53.65 L 236.60 53.50 L 237.00 53.36 L 237.39 53.21 L 237.78 53.03 L 238.17 52.84 L 238.56 52.66 L 238.95 52.46 L 239.34 52.27 L 239.72 52.07 L 240.10 51.87 L 240.48 51.67 L 240.86 51.46 L 241.24 51.27 L 241.60 51.04 L 241.97 50.84 L 242.34 50.63 L 242.71 50.43 L 243.07 50.21 L 243.43 50.01 L 243.78 49.80 L 244.13 49.58 L 244.48 49.37 L 244.82 49.17 L 245.16 48.96 L 245.50 48.75 L 245.83 48.54 L 246.17 48.33 L 246.50 48.13 L 246.82 47.91 L 247.14 47.69 L 247.45 47.49 L 247.77 47.27 L 248.07 47.04 L 248.38 46.81 L 248.68 46.58 L 248.98 46.37 L 249.28 46.16 L 249.57 45.93 L 249.85 45.67 L 250.13 45.43 L 250.42 45.19 L 250.67 44.92 L 250.86 44.60 L 251.00 44.25 L 251.02 43.88 L 250.99 43.51 L 250.88 43.17 L 250.72 42.85 L 250.56 42.54 L 250.42 42.22 L 250.26 41.90 L 250.11 41.57 L 249.95 41.22 L 249.90 40.81 L 249.87 40.40 L 249.83 40.00 L 249.80 39.63 L 249.76 39.29 L 249.70 38.92 L 249.64 38.53 L 249.59 38.12 L 249.57 37.72 L 249.52 37.37 L 249.49 37.03 L 249.49 36.66 L 249.49 36.29 L 249.47 35.96 L 249.46 35.61 L 249.46 35.27 L 249.50 34.93 L 249.49 34.61 L 249.49 34.27 L 249.46 33.94 L 249.38 33.61 L 249.36 33.28 L 249.36 32.95 L 249.28 32.63 L 249.21 32.31 L 249.16 32.00 L 249.11 31.67 L 249.01 31.35 L 248.94 31.00 L 248.87 30.63 L 248.79 30.27 L 248.73 29.96 L 248.65 29.67 L 248.59 29.33 L 248.56 28.98 L 248.45 28.68 L 248.26 28.39 L 248.03 28.15 L 247.75 27.99 L 247.44 27.86 L 247.11 27.78 L 246.79 27.71 L 246.46 27.63 L 246.13 27.55 L 245.81 27.48 L 245.48 27.40 L 245.16 27.31 L 244.82 27.22 L 244.48 27.11 L 244.19 26.99 L 243.85 26.88 L 243.44 26.77 L 243.02 26.66 L 242.64 26.58 L 242.28 26.47 L 241.89 26.46 L 241.51 26.47 L 241.15 26.58 L 240.78 26.68 L 240.42 26.77 L 240.04 26.84 L 239.67 26.92 L 239.29 26.99 L 238.91 27.04 L 238.54 27.08 L 238.16 27.16 L 237.78 27.24 L 237.39 27.30 L 237.00 27.38 L 236.61 27.42 L 236.21 27.44 L 235.81 27.51 L 235.41 27.59 L 235.08 27.86 L 234.76 28.16 L 234.48 28.50 L 234.15 28.80 L 233.85 29.12 L 233.51 29.42 L 233.16 29.74 L 232.81 30.06 L 232.45 30.39 L 232.09 30.70 L 231.76 31.03 L 231.43 31.34 L 231.11 31.64 L 230.79 31.95 L 230.49 32.26 L 230.24 32.58 L 230.00 32.89 L 229.77 33.21 L 229.53 33.52 L 229.30 33.84 L 229.08 34.16 L 228.86 34.47 L 228.64 34.79 L 228.44 35.10 L 228.24 35.42 L 228.05 35.73 L 227.87 36.04 L 227.70 36.36 L 227.53 36.66 L 227.37 36.99 L 227.23 37.29 L 227.09 37.62 L 226.97 37.94 L 226.85 38.26 L 226.76 38.59 L 226.67 38.93 L 226.59 39.28 L 226.52 39.62 L 226.47 39.97 L 226.47 40.31 L 226.49 40.64 L 226.54 40.97 L 226.58 41.29 L 226.61 41.63 L 226.66 41.96 L 226.69 42.31 L 226.74 42.67 L 226.78 43.01 L 226.81 43.37 L 226.85 43.72 L 226.88 44.07 L 226.93 44.41 L 226.96 44.74 L 226.99 45.09 L 227.03 45.44 L 227.05 45.76 L 227.07 46.10 L 227.09 46.44 L 227.11 46.76 L 227.13 47.10 L 227.15 47.42 L 227.16 47.73 L 227.18 48.08 L 227.19 48.41 L 227.20 48.73 L 227.21 49.05 L 227.22 49.37 L 227.23 49.69 L 227.24 50.00 L 227.25 50.32 L 227.26 50.63 L 227.26 50.94 L 227.27 51.25 L 227.28 51.56 L 227.29 51.85 L 227.32 52.13 L 227.36 52.40 L 227.41 52.67 L 227.46 52.92 L 227.52 53.16 L 227.60 53.39 L 227.68 53.61 L 227.78 53.82 L 227.89 54.01 L 228.01 54.19 L 228.15 54.35 Z" />
</symbol>
<symbol id="bl2">
<path d="M 225.42 11.75 L 225.30 11.85 L 225.19 11.98 L 225.09 12.14 L 225.00 12.32 L 224.92 12.52 L 224.86 12.73 L 224.80 12.96 L 224.75 13.22 L 224.70 13.47 L 224.67 13.73 L 224.65 14.02 L 224.64 14.33 L 224.64 14.64 L 224.64 14.95 L 224.64 15.26 L 224.64 15.57 L 224.64 15.88 L 224.65 16.19 L 224.65 16.50 L 224.66 16.82 L 224.66 17.13 L 224.66 17.45 L 224.67 17.77 L 224.67 18.09 L 224.67 18.41 L 224.68 18.73 L 224.68 19.05 L 224.68 19.38 L 224.69 19.70 L 224.70 20.03 L 224.70 20.37 L 224.71 20.70 L 224.71 21.04 L 224.71 21.38 L 224.72 21.71 L 224.72 22.05 L 224.72 22.40 L 224.72 22.74 L 224.73 23.08 L 224.73 23.43 L 224.74 23.77 L 224.77 24.11 L 224.80 24.45 L 224.85 24.80 L 224.90 25.14 L 224.96 25.48 L 225.02 25.82 L 225.10 26.16 L 225.19 26.50 L 225.29 26.84 L 225.40 27.18 L 225.53 27.52 L 225.67 27.86 L 225.82 28.20 L 225.99 28.53 L 226.17 28.87 L 226.37 29.20 L 226.58 29.53 L 226.80 29.85 L 227.04 30.18 L 227.29 30.50 L 227.55 30.82 L 227.82 31.14 L 228.10 31.45 L 228.39 31.76 L 228.69 32.07 L 229.01 32.37 L 229.33 32.67 L 229.66 32.96 L 229.98 33.25 L 230.31 33.54 L 230.64 33.82 L 230.98 34.10 L 231.32 34.37 L 231.67 34.64 L 232.02 34.90 L 232.36 35.16 L 232.72 35.41 L 233.07 35.66 L 233.43 35.90 L 233.78 36.14 L 234.13 36.38 L 234.47 36.64 L 234.77 36.97 L 235.06 37.32 L 235.39 37.61 L 235.71 37.89 L 236.06 38.14 L 236.36 38.43 L 236.78 38.60 L 237.21 38.71 L 237.65 38.82 L 238.08 38.92 L 238.53 39.03 L 239.02 39.06 L 239.48 39.11 L 239.92 39.21 L 240.34 39.34 L 240.75 39.47 L 241.16 39.60 L 241.57 39.73 L 241.99 39.84 L 242.42 39.87 L 242.91 39.76 L 243.55 490.00 L 243.78 40.13 L 244.07 40.34 L 244.47 40.43 L 244.89 40.50 L 245.30 40.56 L 245.71 40.62 L 246.12 40.66 L 246.53 40.69 L 246.94 40.73 L 247.31 40.91 L 247.59 41.21 L 247.74 41.58 L 247.77 41.97 L 247.72 42.35 L 247.67 42.73 L 247.62 43.10 L 247.57 43.48 L 247.53 43.84 L 247.55 44.21 L 247.67 44.56 L 247.86 44.88 L 248.10 45.16 L 248.34 45.45 L 248.58 45.72 L 248.82 46.00 L 249.06 46.27 L 249.30 46.53 L 249.54 46.79 L 249.79 47.04 L 250.03 47.28 L 250.28 47.52 L 250.55 47.76 L 250.83 48.00 L 251.11 48.23 L 251.39 48.45 L 251.66 48.64 L 251.96 48.84 L 252.26 49.02 L 252.56 49.18 L 252.85 49.33 L 253.11 49.47 L 253.36 49.59 L 253.59 49.69 L 253.80 49.77 L 254.02 49.82 L 254.21 49.86 L 254.40 49.86 L 254.59 49.84 L 254.77 49.78 L 254.93 49.70 L 255.11 49.59 L 255.25 49.47 L 255.39 49.32 L 255.52 49.13 L 255.66 48.94 L 255.79 48.73 L 255.89 48.49 L 255.97 48.25 L 256.02 47.98 L 256.05 47.72 L 256.06 47.44 L 256.04 47.16 L 255.99 46.87 L 255.93 46.59 L 255.87 46.27 L 255.87 45.96 L 255.86 45.57 L 255.74 45.20 L 255.60 44.86 L 255.34 44.58 L 255.08 44.25 L 254.89 43.86 L 254.72 43.50 L 254.54 43.19 L 254.37 42.87 L 254.20 42.55 L 254.01 42.23 L 253.80 41.92 L 253.59 41.62 L 253.38 41.31 L 253.18 40.99 L 253.00 40.64 L 252.82 40.29 L 252.59 39.95 L 252.32 39.65 L 251.98 39.39 L 251.64 39.10 L 251.28 38.80 L 250.94 38.49 L 250.59 38.21 L 250.25 37.92 L 249.92 37.62 L 249.59 37.35 L 249.25 37.07 L 248.92 36.76 L 248.57 36.43 L 248.21 36.12 L 247.96 35.75 L 247.68 35.36 L 247.41 34.95 L 247.11 34.54 L 246.79 34.16 L 246.51 33.74 L 246.26 33.30 L 246.03 32.87 L 245.81 32.42 L 245.59 32.00 L 245.38 31.57 L 245.15 31.15 L 244.92 30.70 L 244.68 30.23 L 244.44 29.78 L 244.20 29.33 L 243.97 28.88 L 243.72 28.44 L 243.48 28.01 L 243.22 27.59 L 242.96 27.15 L 242.62 26.76 L 242.19 26.48 L 241.73 26.31 L 241.35 25.99 L 241.03 25.63 L 240.74 25.22 L 240.46 24.80 L 240.19 24.37 L 239.90 23.96 L 239.59 23.55 L 239.28 23.17 L 238.97 22.79 L 238.63 22.41 L 238.33 22.04 L 238.00 21.70 L 237.68 21.33 L 237.35 20.99 L 237.01 20.66 L 236.66 20.33 L 236.33 20.00 L 236.01 19.66 L 235.66 19.34 L 235.31 19.02 L 234.95 18.73 L 234.61 18.43 L 234.26 18.13 L 233.92 17.79 L 233.55 17.49 L 233.21 17.17 L 232.87 16.85 L 232.53 16.54 L 232.19 16.24 L 231.87 15.93 L 231.55 15.62 L 231.23 15.32 L 230.88 15.04 L 230.53 14.76 L 230.20 14.47 L 229.87 14.19 L 229.54 13.92 L 229.22 13.65 L 228.89 13.40 L 228.58 13.16 L 228.28 12.92 L 227.98 12.71 L 227.70 12.52 L 227.43 12.34 L 227.16 12.18 L 226.91 12.02 L 226.67 11.89 L 226.45 11.79 L 226.24 11.71 L 226.04 11.66 L 225.86 11.63 L 225.70 11.64 L 225.55 11.68 Z" />
</symbol>
<symbol id="bl3">
<path d="M 246.62 47.85 L 246.84 47.85 L 247.17 47.85 L 247.45 47.83 L 247.77 47.81 L 248.03 47.78 L 248.36 47.75 L 248.64 47.71 L 248.98 47.67 L 249.29 47.62 L 249.63 47.56 L 250.02 47.51 L 250.39 47.45 L 250.75 47.38 L 251.13 47.31 L 251.42 47.24 L 251.73 47.14 L 252.09 47.05 L 252.39 46.91 L 252.62 46.70 L 252.83 46.44 L 253.03 46.17 L 253.20 45.90 L 253.35 45.63 L 253.48 45.36 L 253.65 45.07 L 253.84 44.81 L 254.08 44.60 L 254.33 44.38 L 254.59 44.14 L 254.84 43.92 L 255.07 43.71 L 255.30 43.48 L 255.55 43.25 L 255.79 43.02 L 256.03 42.81 L 256.26 42.60 L 256.48 42.39 L 256.70 42.18 L 256.95 41.95 L 257.21 41.70 L 257.46 41.46 L 257.67 41.22 L 257.86 40.98 L 258.06 40.73 L 258.24 40.48 L 258.41 40.24 L 258.59 39.98 L 258.75 39.72 L 258.91 39.45 L 259.05 39.19 L 259.18 38.93 L 259.29 38.68 L 259.40 38.44 L 259.48 38.23 L 259.55 38.04 L 259.58 37.82 L 259.60 37.60 L 259.59 37.38 L 259.55 37.16 L 259.49 36.95 L 259.41 36.74 L 259.30 36.49 L 259.18 36.23 L 259.04 35.96 L 258.88 35.69 L 258.70 35.42 L 258.52 35.15 L 258.31 34.89 L 258.11 34.64 L 257.88 34.39 L 257.64 34.14 L 257.41 33.90 L 257.15 33.66 L 256.87 33.43 L 256.58 33.20 L 256.31 32.99 L 256.06 32.79 L 255.84 32.57 L 255.61 32.35 L 255.37 32.15 L 255.11 31.96 L 254.85 31.77 L 254.61 31.56 L 254.35 31.37 L 254.10 31.19 L 253.80 31.07 L 253.50 30.97 L 253.15 30.92 L 252.81 30.92 L 252.49 30.97 L 252.21 31.06 L 251.93 31.24 L 251.71 31.46 L 251.46 31.65 L 251.24 31.91 L 251.04 32.15 L 250.82 32.39 L 250.62 32.63 L 250.43 32.88 L 250.19 33.11 L 250.04 33.43 L 249.89 33.71 L 249.77 33.99 L 249.69 34.31 L 249.63 34.61 L 249.55 34.93 L 249.47 35.24 L 249.43 35.59 L 249.41 35.92 L 249.24 36.22 L 249.03 36.46 L 248.83 36.74 L 248.61 37.01 L 248.37 37.28 L 248.15 37.57 L 247.91 37.85 L 247.67 38.12 L 247.46 38.39 L 247.28 38.68 L 247.09 38.98 L 246.91 39.28 L 246.74 39.56 L 246.59 39.84 L 246.40 40.11 L 246.22 40.40 L 246.05 40.67 L 245.87 40.91 L 245.69 41.16 L 245.55 41.45 L 245.47 41.75 L 245.43 42.05 L 245.37 42.36 L 245.33 42.65 L 245.25 42.94 L 245.17 43.23 L 245.10 43.52 L 245.02 43.81 L 244.94 44.10 L 244.85 44.40 L 244.76 44.70 L 244.66 45.04 L 244.55 45.39 L 244.49 45.74 L 244.47 46.08 L 244.53 46.41 L 244.62 46.69 L 244.76 46.96 L 244.96 47.23 L 245.18 47.44 L 245.46 47.62 L 245.72 47.74 L 246.01 47.82 L 246.28 47.85 Z" />
</symbol>
<symbol id="bl4">
<path d="M 225.61 11.49 L 225.48 11.65 L 225.37 11.83 L 225.29 12.00 L 225.24 12.19 L 225.21 12.39 L 225.21 12.60 L 225.23 12.81 L 225.28 13.05 L 225.34 13.27 L 225.43 13.52 L 225.54 13.78 L 225.66 14.04 L 225.80 14.37 L 225.95 14.77 L 226.12 15.16 L 226.29 15.52 L 226.49 15.83 L 226.68 16.13 L 226.88 16.44 L 227.08 16.76 L 227.28 17.07 L 227.50 17.39 L 227.71 17.72 L 227.92 18.06 L 228.16 18.39 L 228.42 18.72 L 228.68 19.05 L 228.95 19.39 L 229.24 19.72 L 229.51 20.09 L 229.77 20.48 L 230.05 20.83 L 230.34 21.18 L 230.61 21.53 L 230.90 21.87 L 231.21 22.21 L 231.51 22.55 L 231.79 22.92 L 232.09 23.27 L 232.41 23.62 L 232.70 23.99 L 233.01 24.33 L 233.33 24.70 L 233.65 25.04 L 233.99 25.40 L 234.30 25.77 L 234.64 26.11 L 234.97 26.49 L 235.29 26.86 L 235.62 27.22 L 235.94 27.60 L 236.26 27.99 L 236.27 28.54 L 236.20 29.03 L 236.17 29.54 L 236.15 30.07 L 236.08 30.59 L 236.05 31.10 L 236.01 31.61 L 236.01 32.12 L 235.96 32.62 L 235.96 33.12 L 236.03 33.61 L 236.14 34.11 L 236.28 34.60 L 236.47 35.05 L 236.75 35.48 L 237.07 35.89 L 237.39 36.26 L 237.80 36.55 L 238.20 36.83 L 238.64 37.08 L 239.13 37.25 L 239.63 37.34 L 240.14 37.40 L 240.66 37.41 L 241.17 37.36 L 241.67 37.25 L 242.19 37.08 L 242.68 36.93 L 243.17 36.78 L 243.67 36.66 L 244.17 36.53 L 244.67 36.39 L 245.17 36.23 L 245.67 36.08 L 246.16 35.95 L 246.64 35.79 L 247.11 35.65 L 247.57 35.50 L 248.02 35.34 L 248.45 35.16 L 248.97 35.11 L 249.45 35.14 L 249.96 35.15 L 250.46 35.15 L 251.01 35.11 L 251.52 34.97 L 252.02 34.92 L 252.53 34.86 L 253.01 34.72 L 253.48 34.59 L 253.95 34.41 L 254.37 34.11 L 254.66 33.69 L 254.96 33.27 L 255.23 32.84 L 255.51 32.41 L 255.76 31.97 L 256.03 31.56 L 256.27 31.12 L 256.50 30.67 L 256.74 30.24 L 256.99 29.84 L 257.26 29.44 L 257.53 29.06 L 257.79 28.69 L 258.06 28.31 L 258.31 27.94 L 258.55 27.58 L 258.79 27.22 L 259.02 26.85 L 259.25 26.49 L 259.47 26.13 L 259.68 25.77 L 259.88 25.41 L 260.06 25.06 L 260.24 24.71 L 260.41 24.36 L 260.57 24.00 L 260.72 23.65 L 260.86 23.31 L 261.00 22.97 L 261.12 22.63 L 261.24 22.29 L 261.34 21.96 L 261.44 21.63 L 261.53 21.29 L 261.62 20.96 L 261.69 20.63 L 261.76 20.29 L 261.82 19.96 L 261.87 19.63 L 261.92 19.30 L 261.96 18.97 L 262.00 18.64 L 262.03 18.33 L 262.06 18.01 L 262.07 17.70 L 262.08 17.40 L 262.08 17.09 L 262.08 16.77 L 262.08 16.47 L 262.08 16.16 L 262.08 15.86 L 262.08 15.55 L 262.08 15.24 L 262.08 14.94 L 262.07 14.63 L 262.05 14.31 L 262.02 13.99 L 261.97 13.69 L 261.91 13.43 L 261.84 13.17 L 261.77 12.91 L 261.68 12.68 L 261.58 12.45 L 261.47 12.23 L 261.34 12.03 L 261.20 11.84 L 261.03 11.66 L 260.86 11.50 L 260.66 11.35 L 260.45 11.21 L 260.21 11.09 L 259.96 10.97 L 259.69 10.87 L 259.41 10.78 L 259.11 10.70 L 258.79 10.63 L 258.46 10.56 L 258.11 10.50 L 257.77 10.45 L 257.39 10.40 L 256.97 10.37 L 256.55 10.35 L 256.14 10.33 L 255.75 10.31 L 255.36 10.29 L 254.96 10.27 L 254.56 10.25 L 254.15 10.23 L 253.74 10.22 L 253.33 10.20 L 252.91 10.18 L 252.48 10.17 L 252.06 10.15 L 251.63 10.14 L 251.20 10.12 L 250.76 10.11 L 250.32 10.09 L 249.89 10.08 L 249.45 10.07 L 249.00 10.06 L 248.56 10.05 L 248.11 10.04 L 247.67 10.03 L 247.22 10.02 L 246.77 10.01 L 246.32 10.01 L 245.87 10.01 L 245.41 10.00 L 244.96 10.00 L 244.51 10.00 L 244.06 10.00 L 243.61 10.00 L 243.16 10.00 L 242.71 10.00 L 242.25 10.00 L 241.80 10.00 L 241.34 10.00 L 240.89 10.01 L 240.44 10.01 L 239.99 10.01 L 239.53 10.01 L 239.08 10.01 L 238.63 10.01 L 238.17 10.01 L 237.72 10.01 L 237.27 10.02 L 236.82 10.02 L 236.37 10.03 L 235.92 10.03 L 235.48 10.04 L 235.03 10.06 L 234.58 10.07 L 234.14 10.08 L 233.70 10.09 L 233.25 10.10 L 232.81 10.12 L 232.37 10.13 L 231.94 10.14 L 231.50 10.16 L 231.07 10.17 L 230.64 10.18 L 230.22 10.20 L 229.80 10.21 L 229.40 10.24 L 229.01 10.27 L 228.63 10.32 L 228.26 10.39 L 227.91 10.46 L 227.57 10.55 L 227.25 10.64 L 226.95 10.73 L 226.67 10.83 L 226.41 10.94 L 226.18 11.07 L 225.96 11.20 L 225.78 11.34 Z" />
</symbol>
</defs>
<!-- isDone: 0 -->
<rect width="700" height="500" style="fill:#fff;stroke-width:0" />
<use class="p0 borderLine" xlink:href="#bl0"/>
<use class="p1 borderLine" xlink:href="#bl1"/>
<use class="p2 borderLine" xlink:href="#bl2"/>
<use class="p3 borderLine" xlink:href="#bl3"/>
<use class="p4 borderLine" xlink:href="#bl4"/>
<use class="q0 outLine" xlink:href="#bl0"/>
<use class="q1 outLine" xlink:href="#bl1"/>
<use class="q2 outLine" xlink:href="#bl2"/>
<use class="q3 outLine" xlink:href="#bl3"/>
<use class="q4 outLine" xlink:href="#bl4"/>
<circle onclick="fromCircle(1)" class="circle" cx="269.1297" cy="54.9031" r="3.4818" />
<text class="tLabel" x="269.13" y="34.90"></text>
<text class="nLabel" x="269.13" y="49.90">40</text>
<text class="belong" x="269.13" y="59.90">(1)</text>
<circle onclick="fromCircle(3)" class="circle" cx="248.7643" cy="35.7471" r="0.5505" />
<text class="tLabel" x="248.76" y="15.75"></text>
<text class="nLabel" x="248.76" y="30.75">1</text>
<text class="belong" x="248.76" y="40.75">(1, 2)</text>
<circle onclick="fromCircle(7)" class="circle" cx="235.6376" cy="28.2147" r="0.5505" />
<text class="tLabel" x="235.64" y="8.21"></text>
<text class="nLabel" x="235.64" y="23.21">1</text>
<text class="belong" x="235.64" y="33.21">(1, 2, 3)</text>
<circle onclick="fromCircle(15)" class="circle" cx="248.2481" cy="40.1320" r="0.7786" />
<text class="tLabel" x="248.25" y="20.13"></text>
<text class="nLabel" x="248.25" y="35.13">2</text>
<text class="belong" x="248.25" y="45.13">(1, 2, 3, 4)</text>
<circle onclick="fromCircle(2)" class="circle" cx="243.3029" cy="40.6604" r="0.5505" />
<text class="tLabel" x="243.30" y="20.66"></text>
<text class="nLabel" x="243.30" y="35.66">1</text>
<text class="belong" x="243.30" y="45.66">(2)</text>
<circle onclick="fromCircle(6)" class="circle" cx="237.1709" cy="37.4953" r="0.9535" />
<text class="tLabel" x="237.17" y="17.50"></text>
<text class="nLabel" x="237.17" y="32.50">3</text>
<text class="belong" x="237.17" y="42.50">(2, 3)</text>
<circle onclick="fromCircle(14)" class="circle" cx="249.2734" cy="43.8703" r="1.4565" />
<text class="tLabel" x="249.27" y="23.87"></text>
<text class="nLabel" x="249.27" y="38.87">7</text>
<text class="belong" x="249.27" y="48.87">(2, 3, 4)</text>
<circle onclick="fromCircle(10)" class="circle" cx="246.3474" cy="45.9792" r="1.5571" />
<text class="tLabel" x="246.35" y="25.98"></text>
<text class="nLabel" x="246.35" y="40.98">8</text>
<text class="belong" x="246.35" y="50.98">(2, 4)</text>
<circle onclick="fromCircle(18)" class="circle" cx="247.1135" cy="29.3200" r="1.2310" />
<text class="tLabel" x="247.11" y="9.32"></text>
<text class="nLabel" x="247.11" y="24.32">5</text>
<text class="belong" x="247.11" y="34.32">(2, 5)</text>
<circle onclick="fromCircle(22)" class="circle" cx="240.4198" cy="32.9801" r="3.6930" />
<text class="tLabel" x="240.42" y="12.98"></text>
<text class="nLabel" x="240.42" y="27.98">45</text>
<text class="belong" x="240.42" y="37.98">(2, 3, 5)</text>
<circle onclick="fromCircle(4)" class="circle" cx="233.4579" cy="27.9031" r="0.9535" />
<text class="tLabel" x="233.46" y="7.90"></text>
<text class="nLabel" x="233.46" y="22.90">3</text>
<text class="belong" x="233.46" y="32.90">(3)</text>
<circle onclick="fromCircle(5)" class="circle" cx="254.6627" cy="45.5992" r="0.9535" />
<text class="tLabel" x="254.66" y="25.60"></text>
<text class="nLabel" x="254.66" y="40.60">3</text>
<text class="belong" x="254.66" y="50.60">(1, 3)</text>
<circle onclick="fromCircle(13)" class="circle" cx="251.3769" cy="40.8074" r="1.2310" />
<text class="tLabel" x="251.38" y="20.81"></text>
<text class="nLabel" x="251.38" y="35.81">5</text>
<text class="belong" x="251.38" y="45.81">(1, 3, 4)</text>
<circle onclick="fromCircle(12)" class="circle" cx="251.6389" cy="45.8112" r="1.1010" />
<text class="tLabel" x="251.64" y="25.81"></text>
<text class="nLabel" x="251.64" y="40.81">4</text>
<text class="belong" x="251.64" y="50.81">(3, 4)</text>
<circle onclick="fromCircle(20)" class="circle" cx="234.1758" cy="20.1391" r="1.2310" />
<text class="tLabel" x="234.18" y="0.14"></text>
<text class="nLabel" x="234.18" y="15.14">5</text>
<text class="belong" x="234.18" y="25.14">(3, 5)</text>
<circle onclick="fromCircle(21)" class="circle" cx="238.9139" cy="25.4009" r="1.2310" />
<text class="tLabel" x="238.91" y="5.40"></text>
<text class="nLabel" x="238.91" y="20.40">5</text>
<text class="belong" x="238.91" y="30.40">(1, 3, 5)</text>
<circle onclick="fromCircle(8)" class="circle" cx="254.1455" cy="35.3939" r="0.5505" />
<text class="tLabel" x="254.15" y="15.39"></text>
<text class="nLabel" x="254.15" y="30.39">1</text>
<text class="belong" x="254.15" y="40.39">(4)</text>
<circle onclick="fromCircle(9)" class="circle" cx="251.7316" cy="36.8538" r="1.4565" />
<text class="tLabel" x="251.73" y="16.85"></text>
<text class="nLabel" x="251.73" y="31.85">7</text>
<text class="belong" x="251.73" y="41.85">(1, 4)</text>
<circle onclick="fromCircle(11)" class="circle" cx="246.6276" cy="41.8287" r="0.9535" />
<text class="tLabel" x="246.63" y="21.83"></text>
<text class="nLabel" x="246.63" y="36.83">3</text>
<text class="belong" x="246.63" y="46.83">(1, 2, 4)</text>
<circle onclick="fromCircle(24)" class="circle" cx="253.0412" cy="32.7689" r="1.5571" />
<text class="tLabel" x="253.04" y="12.77"></text>
<text class="nLabel" x="253.04" y="27.77">8</text>
<text class="belong" x="253.04" y="37.77">(4, 5)</text>
<circle onclick="fromCircle(25)" class="circle" cx="250.6590" cy="34.2430" r="0.7786" />
<text class="tLabel" x="250.66" y="14.24"></text>
<text class="nLabel" x="250.66" y="29.24">2</text>
<text class="belong" x="250.66" y="39.24">(1, 4, 5)</text>
<circle onclick="fromCircle(16)" class="circle" cx="250.0695" cy="31.7656" r="0.5505" />
<text class="tLabel" x="250.07" y="11.77"></text>
<text class="nLabel" x="250.07" y="26.77">1</text>
<text class="belong" x="250.07" y="36.77">(5)</text>
<circle onclick="fromCircle(17)" class="circle" cx="242.4385" cy="25.0107" r="1.2310" />
<text class="tLabel" x="242.44" y="5.01"></text>
<text class="nLabel" x="242.44" y="20.01">5</text>
<text class="belong" x="242.44" y="30.01">(1, 5)</text>
<circle onclick="fromCircle(19)" class="circle" cx="247.8914" cy="33.1715" r="1.2310" />
<text class="tLabel" x="247.89" y="13.17"></text>
<text class="nLabel" x="247.89" y="28.17">5</text>
<text class="belong" x="247.89" y="38.17">(1, 2, 5)</text>
<circle onclick="fromCircle(23)" class="circle" cx="241.8467" cy="27.5944" r="0.9535" />
<text class="tLabel" x="241.85" y="7.59"></text>
<text class="nLabel" x="241.85" y="22.59">3</text>
<text class="belong" x="241.85" y="32.59">(1, 2, 3, 5)</text>
<rect class="p0 borderLine" x="500.00" y="50.00" width="30.00" height="15.00" />
<rect class="q0" x="500.00" y="50.00" width="30.00" height="15.00" />
<text class="legend" x="540.00" y="65.00">Ball2017</text>
<rect class="p1 borderLine" x="500.00" y="90.00" width="30.00" height="15.00" />
<rect class="q1" x="500.00" y="90.00" width="30.00" height="15.00" />
<text class="legend" x="540.00" y="105.00">Courtois2015</text>
<rect class="p2 borderLine" x="500.00" y="130.00" width="30.00" height="15.00" />
<rect class="q2" x="500.00" y="130.00" width="30.00" height="15.00" />
<text class="legend" x="540.00" y="145.00">Hilton2017</text>
<rect class="p3 borderLine" x="500.00" y="170.00" width="30.00" height="15.00" />
<rect class="q3" x="500.00" y="170.00" width="30.00" height="15.00" />
<text class="legend" x="540.00" y="185.00">Ball2017</text>
<rect class="p4 borderLine" x="500.00" y="210.00" width="30.00" height="15.00" />
<rect class="q4" x="500.00" y="210.00" width="30.00" height="15.00" />
<text class="legend" x="540.00" y="225.00">Hilton2017</text>
</svg>
