<svg xmlns="http://www.w3.org/2000/svg" xmlns:xlink="http://www.w3.org/1999/xlink" width="700" height="500">
<defs>
<style type="text/css"><![CDATA[
  .borderLine {
	   stroke: none;
	   fill-opacity: 0.4;
  }
  .outLine {
	   stroke-width: 1;
	   fill: none;
  }
  .circle {
	   stroke: #888888;
	   stroke-width: 0.5;
	   fill: none;
    pointer-events: all;
  }
  .spcircle {
	   stroke: #FF2222;
	   stroke-width: 1;
	   fill: none;
    pointer-events: all;
  }
  .tLabel {
	   font-family: Arial;
    pointer-events: none;
	   font-size: 14px;
	   text-anchor: middle;
	   alignment-baseline: central;
  }
  .nLabel {
	   font-family: Arial;
    pointer-events: none;
	   font-size: 10px;
	   text-anchor: middle;
	   alignment-baseline: central;
  }
  .belong {
	   font-family: Arial;
    pointer-events: none;
	   font-size: 5px;
	   text-anchor: middle;
	   alignment-baseline: central;
  }
  .p0{
    stroke: none;
    fill: #e6194b;
  }
  .q0{
    fill: none;
    stroke: #e6194b;
  }
  .p1{
    stroke: none;
    fill: #3cb44b;
  }
  .q1{
    fill: none;
    stroke: #3cb44b;
  }
  .p2{
    stroke: none;
    fill: #ffe119;
  }
  .q2{
    fill: none;
    stroke: #ffe119;
  }
  .p3{
    stroke: none;
    fill: #0082c8;
  }
  .q3{
    fill: none;
    stroke: #0082c8;
  }
  .p4{
    stroke: none;
    fill: #f58231;
  }
  .q4{
    fill: none;
    stroke: #f58231;
  }
  .p5{
    stroke: none;
    fill: #911eb4;
  }
  .q5{
    fill: none;
    stroke: #911eb4;
  }
]]>
</style>
<symbol id="bl0">
<path d="M 72.52 264.91 L 16.41 264.95 L 9.73 320.66 L 64.23 333.97 L 83.98 281.45 L 386.17 165.74 L 398.49 197.90 L 343.88 173.53 L 368.25 118.92 L 422.86 143.29 L 398.49 197.90 L 386.17 165.74 L 1054.13 -90.03 L 1108.23 -65.46 L 1133.50 -119.24 L 1080.05 -145.20 L 1053.40 -92.10 L 160.94 197.42 L 134.76 170.58 L 97.54 175.10 L 78.54 207.41 L 92.68 242.13 Z" />
</symbol>
<symbol id="bl1">
<path d="M 60.20 183.07 L 22.93 152.29 L -18.87 176.58 L -10.57 224.20 L 36.98 232.92 L 124.77 425.91 L 100.16 460.68 L 118.30 499.23 L 160.79 502.43 L 184.49 467.03 L 334.02 476.32 L 350.26 512.33 L 389.15 519.21 L 416.77 490.98 L 409.02 452.25 L 431.68 433.80 L 415.41 413.80 L 355.91 407.71 L 362.01 348.22 L 421.50 354.31 L 415.41 413.80 L 431.68 433.80 L 1060.83 -78.45 L 1116.82 -69.79 L 1131.18 -124.59 L 1078.14 -144.50 L 1052.89 -93.79 L 366.43 97.66 L 372.01 117.67 L 424.10 147.05 L 394.73 199.14 L 342.63 169.77 L 372.01 117.67 L 366.43 97.66 L 277.09 122.58 L 265.84 82.25 L 317.94 111.62 L 288.56 163.72 L 236.47 134.34 L 265.84 82.25 L 277.09 122.58 L 260.65 127.17 L 276.07 182.45 L 328.16 211.82 L 315.57 234.15 L 326.92 240.55 L 384.52 224.48 L 394.59 260.59 L 439.80 247.98 L 469.17 195.89 L 521.27 225.26 L 491.89 277.35 L 439.80 247.98 L 394.59 260.59 L 400.59 282.09 L 342.98 298.15 L 326.92 240.55 L 315.57 234.15 L 298.79 263.91 L 246.69 234.54 L 276.07 182.45 L 260.65 127.17 L 109.26 169.39 L 109.35 169.74 L 161.45 199.11 L 132.07 251.20 L 79.98 221.83 L 109.35 169.74 L 109.26 169.39 Z" />
</symbol>
<symbol id="bl2">
<path d="M 38.76 156.80 L -2.97 158.59 L -22.81 195.34 L -1.41 231.21 L 40.36 231.20 L 89.60 317.84 L 68.21 355.22 L 90.68 391.96 L 133.70 389.95 L 152.65 351.28 L 242.33 344.20 L 260.59 375.77 L 296.63 381.38 L 323.63 356.87 L 321.52 320.46 L 442.00 254.05 L 460.12 199.59 L 515.84 213.35 L 1056.59 -84.73 L 1110.96 -66.58 L 1133.48 -119.29 L 1082.77 -146.02 L 1052.01 -97.65 L 121.05 69.98 L 95.02 38.16 L 54.26 43.49 L 37.29 80.93 L 60.14 115.10 Z" />
</symbol>
<symbol id="bl3">
<path d="M 164.08 428.17 L 112.18 434.71 L 106.35 486.70 L 155.53 504.56 L 184.43 460.95 L 220.05 458.04 L 238.59 489.67 L 274.87 494.93 L 301.63 469.88 L 298.75 433.33 L 352.15 402.27 L 378.68 422.09 L 411.36 416.72 L 430.14 389.45 L 423.52 357.00 L 518.42 291.55 L 504.54 271.43 L 445.72 260.63 L 456.53 201.81 L 515.34 212.61 L 504.54 271.43 L 518.42 291.55 L 1058.81 -81.14 L 1115.71 -69.09 L 1130.83 -125.25 L 1075.58 -143.39 L 1054.46 -89.20 L 326.59 207.23 L 297.40 182.08 L 259.93 191.05 L 245.28 226.69 L 265.62 259.41 Z" />
</symbol>
<symbol id="bl4">
<path d="M 157.82 425.07 L 102.99 448.76 L 126.55 503.65 L 181.49 480.23 L 158.21 425.23 L 264.70 163.38 L 316.38 138.91 L 296.44 85.32 L 306.64 60.22 L 361.61 37.30 L 339.14 -17.86 L 283.80 4.17 L 305.38 59.68 L 294.40 84.35 L 261.63 83.67 L 238.21 106.61 L 238.23 139.39 L 261.66 162.31 Z" />
</symbol>
<symbol id="bl5">
<path d="M 144.83 329.92 L 88.58 318.43 L 72.72 373.60 L 126.47 393.76 L 150.78 341.76 L 440.25 249.47 L 463.03 275.11 L 497.34 275.43 L 520.58 250.20 L 517.47 216.03 L 1056.69 -84.56 L 1112.79 -67.45 L 1132.03 -122.85 L 1077.41 -144.20 L 1053.98 -90.44 L 423.01 143.70 L 398.38 118.88 L 363.49 121.08 L 342.18 148.81 L 349.03 183.09 L 323.64 201.35 L 312.11 257.51 L 255.20 250.56 Z" />
</symbol>
</defs>
<!-- isDone: 0 -->
<rect width="700" height="500" style="fill:#fff;stroke-width:0" />
<use class="p0 borderLine" xlink:href="#bl0"/>
<use class="p1 borderLine" xlink:href="#bl1"/>
<use class="p2 borderLine" xlink:href="#bl2"/>
<use class="p3 borderLine" xlink:href="#bl3"/>
<use class="p4 borderLine" xlink:href="#bl4"/>
<use class="p5 borderLine" xlink:href="#bl5"/>
<use class="q0 outLine" xlink:href="#bl0"/>
<use class="q1 outLine" xlink:href="#bl1"/>
<use class="q2 outLine" xlink:href="#bl2"/>
<use class="q3 outLine" xlink:href="#bl3"/>
<use class="q4 outLine" xlink:href="#bl4"/>
<use class="q5 outLine" xlink:href="#bl5"/>
<circle onclick="fromCircle(1)" class="circle" cx="44.4875" cy="296.5750" r="9.5366" />
<text class="tLabel" x="44.49" y="276.58"></text>
<text class="nLabel" x="44.49" y="291.58">7</text>
<text class="belong" x="44.49" y="301.58">(1)</text>
<circle onclick="fromCircle(2)" class="circle" cx="376.2274" cy="478.9492" r="9.5366" />
<text class="tLabel" x="376.23" y="458.95"></text>
<text class="nLabel" x="376.23" y="473.95">10</text>
<text class="belong" x="376.23" y="483.95">(2)</text>
<circle onclick="fromCircle(6)" class="circle" cx="19.4660" cy="194.4309" r="9.5366" />
<text class="tLabel" x="19.47" y="174.43"></text>
<text class="nLabel" x="19.47" y="189.43">49</text>
<text class="belong" x="19.47" y="199.43">(2, 3)</text>
<circle onclick="fromCircle(14)" class="circle" cx="284.4842" cy="340.8769" r="9.5366" />
<text class="tLabel" x="284.48" y="320.88"></text>
<text class="nLabel" x="284.48" y="335.88">2</text>
<text class="belong" x="284.48" y="345.88">(2, 3, 4)</text>
<circle onclick="fromCircle(10)" class="circle" cx="262.1991" cy="454.5875" r="9.5366" />
<text class="tLabel" x="262.20" y="434.59"></text>
<text class="nLabel" x="262.20" y="449.59">3</text>
<text class="belong" x="262.20" y="459.59">(2, 4)</text>
<circle onclick="fromCircle(26)" class="circle" cx="142.2834" cy="464.4012" r="9.5366" />
<text class="tLabel" x="142.28" y="444.40"></text>
<text class="nLabel" x="142.28" y="459.40">1</text>
<text class="belong" x="142.28" y="469.40">(2, 4, 5)</text>
<circle onclick="fromCircle(38)" class="circle" cx="110.4945" cy="354.6016" r="9.5366" />
<text class="tLabel" x="110.49" y="334.60"></text>
<text class="nLabel" x="110.49" y="349.60">4</text>
<text class="belong" x="110.49" y="359.60">(2, 3, 6)</text>
<circle onclick="fromCircle(4)" class="circle" cx="79.4354" cy="77.4739" r="21.1434" />
<text class="tLabel" x="79.44" y="57.47"></text>
<text class="nLabel" x="79.44" y="72.47">287</text>
<text class="belong" x="79.44" y="82.47">(3)</text>
<circle onclick="fromCircle(5)" class="circle" cx="120.7131" cy="210.4691" r="9.5366" />
<text class="tLabel" x="120.71" y="190.47"></text>
<text class="nLabel" x="120.71" y="205.47">1</text>
<text class="belong" x="120.71" y="215.47">(1, 3)</text>
<circle onclick="fromCircle(12)" class="circle" cx="287.4251" cy="223.1788" r="9.5366" />
<text class="tLabel" x="287.43" y="203.18"></text>
<text class="nLabel" x="287.43" y="218.18">16</text>
<text class="belong" x="287.43" y="228.18">(3, 4)</text>
<circle onclick="fromCircle(44)" class="circle" cx="363.7510" cy="261.3187" r="9.5366" />
<text class="tLabel" x="363.75" y="241.32"></text>
<text class="nLabel" x="363.75" y="256.32">1</text>
<text class="belong" x="363.75" y="266.32">(3, 4, 6)</text>
<circle onclick="fromCircle(20)" class="circle" cx="277.2037" cy="122.9839" r="9.5366" />
<text class="tLabel" x="277.20" y="102.98"></text>
<text class="nLabel" x="277.20" y="117.98">2</text>
<text class="belong" x="277.20" y="127.98">(3, 5)</text>
<circle onclick="fromCircle(36)" class="circle" cx="383.3664" cy="158.4063" r="9.5366" />
<text class="tLabel" x="383.37" y="138.41"></text>
<text class="nLabel" x="383.37" y="153.41">39</text>
<text class="belong" x="383.37" y="163.41">(3, 6)</text>
<circle onclick="fromCircle(8)" class="circle" cx="388.7065" cy="381.0108" r="9.5366" />
<text class="tLabel" x="388.71" y="361.01"></text>
<text class="nLabel" x="388.71" y="376.01">20</text>
<text class="belong" x="388.71" y="386.01">(4)</text>
<circle onclick="fromCircle(16)" class="circle" cx="322.5736" cy="21.0508" r="9.5366" />
<text class="tLabel" x="322.57" y="1.05"></text>
<text class="nLabel" x="322.57" y="16.05">2</text>
<text class="belong" x="322.57" y="26.05">(5)</text>
<circle onclick="fromCircle(32)" class="circle" cx="480.5341" cy="236.6197" r="9.5366" />
<text class="tLabel" x="480.53" y="216.62"></text>
<text class="nLabel" x="480.53" y="231.62">39</text>
<text class="belong" x="480.53" y="241.62">(6)</text>
<circle onclick="fromCircle(47)" class="circle" cx="204.3736" cy="242.0867" r="9.5366" />
<text class="tLabel" x="204.37" y="222.09"></text>
<text class="nLabel" x="204.37" y="237.09">1</text>
<text class="belong" x="204.37" y="247.09">(1, 2, 3, 4, 6)</text>
<rect class="p0 borderLine" x="500.00" y="50.00" width="30.00" height="15.00" />
<rect class="q0" x="500.00" y="50.00" width="30.00" height="15.00" />
<text class="legend" x="540.00" y="65.00">iba</text>
<rect class="p1 borderLine" x="500.00" y="90.00" width="30.00" height="15.00" />
<rect class="q1" x="500.00" y="90.00" width="30.00" height="15.00" />
<text class="legend" x="540.00" y="105.00">ic</text>
<rect class="p2 borderLine" x="500.00" y="130.00" width="30.00" height="15.00" />
<rect class="q2" x="500.00" y="130.00" width="30.00" height="15.00" />
<text class="legend" x="540.00" y="145.00">ida</text>
<rect class="p3 borderLine" x="500.00" y="170.00" width="30.00" height="15.00" />
<rect class="q3" x="500.00" y="170.00" width="30.00" height="15.00" />
<text class="legend" x="540.00" y="185.00">iea</text>
<rect class="p4 borderLine" x="500.00" y="210.00" width="30.00" height="15.00" />
<rect class="q4" x="500.00" y="210.00" width="30.00" height="15.00" />
<text class="legend" x="540.00" y="225.00">iss</text>
<rect class="p5 borderLine" x="500.00" y="250.00" width="30.00" height="15.00" />
<rect class="q5" x="500.00" y="250.00" width="30.00" height="15.00" />
<text class="legend" x="540.00" y="265.00">nas</text>
</svg>
