<svg xmlns="http://www.w3.org/2000/svg" xmlns:xlink="http://www.w3.org/1999/xlink" width="700" height="500">
<defs>
<style type="text/css"><![CDATA[
  .borderLine {
	   stroke: none;
	   fill-opacity: 0.4;
  }
  .outLine {
	   stroke-width: 1;
	   fill: none;
  }
  .circle {
	   stroke: #888888;
	   stroke-width: 0.5;
	   fill: none;
    pointer-events: all;
  }
  .spcircle {
	   stroke: #FF2222;
	   stroke-width: 1;
	   fill: none;
    pointer-events: all;
  }
  .tLabel {
	   font-family: Arial;
    pointer-events: none;
	   font-size: 14px;
	   text-anchor: middle;
	   alignment-baseline: central;
  }
  .nLabel {
	   font-family: Arial;
    pointer-events: none;
	   font-size: 10px;
	   text-anchor: middle;
	   alignment-baseline: central;
  }
  .belong {
	   font-family: Arial;
    pointer-events: none;
	   font-size: 5px;
	   text-anchor: middle;
	   alignment-baseline: central;
  }
  .p0{
    stroke: none;
    fill: #e6194b;
  }
  .q0{
    fill: none;
    stroke: #e6194b;
  }
  .p1{
    stroke: none;
    fill: #3cb44b;
  }
  .q1{
    fill: none;
    stroke: #3cb44b;
  }
  .p2{
    stroke: none;
    fill: #ffe119;
  }
  .q2{
    fill: none;
    stroke: #ffe119;
  }
  .p3{
    stroke: none;
    fill: #0082c8;
  }
  .q3{
    fill: none;
    stroke: #0082c8;
  }
  .p4{
    stroke: none;
    fill: #f58231;
  }
  .q4{
    fill: none;
    stroke: #f58231;
  }
  .p5{
    stroke: none;
    fill: #911eb4;
  }
  .q5{
    fill: none;
    stroke: #911eb4;
  }
]]>
</style>
<symbol id="bl0">
<path d="M 55.58 216.97 L 38.80 217.12 L 29.41 231.04 L 35.56 246.66 L 51.92 250.44 L 78.75 352.45 L 65.78 365.77 L 71.47 383.47 L 89.78 386.73 L 101.23 372.09 L 152.17 378.35 L 155.89 391.69 L 167.96 398.46 L 181.28 394.67 L 187.99 382.56 L 260.61 390.71 L 267.08 406.65 L 283.97 409.92 L 295.91 397.53 L 292.03 380.77 L 438.75 250.86 L 459.31 255.50 L 470.22 237.47 L 456.57 221.40 L 437.01 229.26 L 328.85 160.74 L 330.58 144.97 L 319.17 133.94 L 303.46 136.19 L 295.62 149.99 L 114.34 138.83 L 105.88 122.42 L 87.42 122.05 L 78.31 138.10 L 88.09 153.76 Z" />
</symbol>
<symbol id="bl1">
<path d="M 113.66 132.70 L 94.84 119.75 L 78.43 135.64 L 90.77 154.87 L 112.05 146.57 L 245.92 221.97 L 244.99 237.75 L 256.85 248.20 L 272.39 245.28 L 279.66 231.24 L 338.63 232.63 L 351.51 250.34 L 371.98 242.57 L 369.86 220.77 L 348.27 217.09 L 322.00 167.06 L 331.15 155.31 L 328.35 140.69 L 315.50 133.16 L 301.37 137.86 L 270.17 104.12 L 275.45 86.64 L 262.76 73.51 L 245.11 78.20 L 240.61 95.90 Z" />
</symbol>
<symbol id="bl2">
<path d="M 112.65 130.04 L 96.31 119.69 L 80.00 130.08 L 82.49 149.27 L 100.91 155.16 L 129.33 263.51 L 115.88 280.17 L 127.81 297.93 L 148.31 291.79 L 148.51 270.40 L 299.00 161.66 L 314.45 169.11 L 329.15 160.26 L 329.79 143.11 L 315.79 133.19 L 326.32 46.33 L 345.28 35.01 L 339.06 13.82 L 316.98 14.55 L 312.18 36.11 Z" />
</symbol>
<symbol id="bl3">
<path d="M 124.29 454.86 L 101.50 456.21 L 98.30 478.82 L 119.83 486.43 L 131.56 466.84 L 348.06 434.92 L 362.44 449.99 L 381.44 441.44 L 379.70 420.69 L 359.55 415.42 L 326.76 328.31 L 338.32 313.53 L 330.50 296.49 L 311.77 295.60 L 302.38 311.84 L 244.60 313.16 L 235.73 298.03 L 218.19 297.60 L 208.59 312.28 L 216.00 328.18 Z" />
</symbol>
<symbol id="bl4">
<path d="M 100.12 363.29 L 84.02 351.87 L 67.10 362.05 L 69.64 381.63 L 88.60 387.14 L 108.46 452.22 L 95.87 466.94 L 103.88 484.57 L 123.25 484.78 L 131.62 467.31 L 207.64 458.17 L 217.26 472.03 L 234.13 471.86 L 243.48 457.82 L 237.12 442.19 L 266.96 406.55 L 285.69 409.28 L 296.54 393.77 L 287.56 377.11 L 268.64 377.65 L 236.47 328.64 L 244.44 311.11 L 232.04 296.38 L 213.40 301.25 L 209.79 320.17 Z" />
</symbol>
<symbol id="bl5">
<path d="M 55.58 216.97 L 38.80 217.12 L 29.41 231.04 L 35.56 246.66 L 51.92 250.44 L 78.75 352.45 L 65.77 365.80 L 71.51 383.51 L 89.85 386.71 L 101.25 371.99 L 260.62 390.63 L 272.78 409.81 L 294.06 401.89 L 290.72 379.43 L 268.05 378.05 L 106.82 152.39 L 113.30 131.60 L 95.03 119.74 L 78.67 134.12 L 88.09 153.76 Z" />
</symbol>
</defs>
<!-- signature: 3499211612;6;Eg_sp;48h_up;96h_up;48h_down;96h_down;core;0;223;91;14;715;51;325;66;49;2;0;0;0;0;0;0;926;39;0;0;0;0;0;0;316;9;0;0;0;0;0;0;0;11;0;0;0;2;0;5;0;0;0;0;0;0;0;0;0;1;0;0;0;0;0;0;0;1;0;0;0;0;0;0; -->
<desc>STEP: 4;BEST: 5;CANDIDATE: 23</desc>
<rect width="700" height="500" style="fill:#fff;stroke-width:0" />
<use class="p0 borderLine" xlink:href="#bl0"/>
<use class="p1 borderLine" xlink:href="#bl1"/>
<use class="p2 borderLine" xlink:href="#bl2"/>
<use class="p3 borderLine" xlink:href="#bl3"/>
<use class="p4 borderLine" xlink:href="#bl4"/>
<use class="p5 borderLine" xlink:href="#bl5"/>
<use class="q0 outLine" xlink:href="#bl0"/>
<use class="q1 outLine" xlink:href="#bl1"/>
<use class="q2 outLine" xlink:href="#bl2"/>
<use class="q3 outLine" xlink:href="#bl3"/>
<use class="q4 outLine" xlink:href="#bl4"/>
<use class="q5 outLine" xlink:href="#bl5"/>
<circle onclick="fromCircle(1)" class="circle" cx="452.2477" cy="238.9096" r="8.8490" />
<text class="tLabel" x="452.25" y="218.91"></text>
<text class="nLabel" x="452.25" y="233.91">223</text>
<text class="belong" x="452.25" y="243.91">(1)</text>
<circle onclick="fromCircle(3)" class="circle" cx="261.6334" cy="230.8154" r="8.4324" />
<text class="tLabel" x="261.63" y="210.82"></text>
<text class="nLabel" x="261.63" y="225.82">14</text>
<text class="belong" x="261.63" y="235.82">(1, 2)</text>
<circle onclick="fromCircle(7)" class="circle" cx="313.6176" cy="151.0954" r="8.4324" />
<text class="tLabel" x="313.62" y="131.10"></text>
<text class="nLabel" x="313.62" y="146.10">66</text>
<text class="belong" x="313.62" y="156.10">(1, 2, 3)</text>
<circle onclick="fromCircle(2)" class="circle" cx="356.6581" cy="233.0587" r="8.4324" />
<text class="tLabel" x="356.66" y="213.06"></text>
<text class="nLabel" x="356.66" y="228.06">91</text>
<text class="belong" x="356.66" y="238.06">(2)</text>
<circle onclick="fromCircle(6)" class="circle" cx="257.9270" cy="90.8848" r="10.6827" />
<text class="tLabel" x="257.93" y="70.88"></text>
<text class="nLabel" x="257.93" y="85.88">325</text>
<text class="belong" x="257.93" y="95.88">(2, 3)</text>
<circle onclick="fromCircle(4)" class="circle" cx="328.4939" cy="28.4324" r="15.8450" />
<text class="tLabel" x="328.49" y="8.43"></text>
<text class="nLabel" x="328.49" y="23.43">715</text>
<text class="belong" x="328.49" y="33.43">(3)</text>
<circle onclick="fromCircle(5)" class="circle" cx="191.3281" cy="214.2202" r="8.4324" />
<text class="tLabel" x="191.33" y="194.22"></text>
<text class="nLabel" x="191.33" y="209.22">51</text>
<text class="belong" x="191.33" y="219.22">(1, 3)</text>
<circle onclick="fromCircle(37)" class="circle" cx="133.8993" cy="280.9573" r="8.4324" />
<text class="tLabel" x="133.90" y="260.96"></text>
<text class="nLabel" x="133.90" y="275.96">2</text>
<text class="belong" x="133.90" y="285.96">(1, 3, 6)</text>
<circle onclick="fromCircle(8)" class="circle" cx="365.9021" cy="432.2925" r="8.4324" />
<text class="tLabel" x="365.90" y="412.29"></text>
<text class="nLabel" x="365.90" y="427.29">49</text>
<text class="belong" x="365.90" y="437.29">(4)</text>
<circle onclick="fromCircle(9)" class="circle" cx="320.4089" cy="311.4298" r="8.4324" />
<text class="tLabel" x="320.41" y="291.43"></text>
<text class="nLabel" x="320.41" y="306.43">2</text>
<text class="belong" x="320.41" y="316.43">(1, 4)</text>
<circle onclick="fromCircle(24)" class="circle" cx="113.7194" cy="469.4662" r="10.5338" />
<text class="tLabel" x="113.72" y="449.47"></text>
<text class="nLabel" x="113.72" y="464.47">316</text>
<text class="belong" x="113.72" y="474.47">(4, 5)</text>
<circle onclick="fromCircle(25)" class="circle" cx="226.5752" cy="313.5700" r="8.4324" />
<text class="tLabel" x="226.58" y="293.57"></text>
<text class="nLabel" x="226.58" y="308.57">9</text>
<text class="belong" x="226.58" y="318.57">(1, 4, 5)</text>
<circle onclick="fromCircle(57)" class="circle" cx="278.5345" cy="392.7235" r="8.4324" />
<text class="tLabel" x="278.53" y="372.72"></text>
<text class="nLabel" x="278.53" y="387.72">1</text>
<text class="belong" x="278.53" y="397.72">(1, 4, 5, 6)</text>
<circle onclick="fromCircle(16)" class="circle" cx="225.5384" cy="456.0115" r="18.0321" />
<text class="tLabel" x="225.54" y="436.01"></text>
<text class="nLabel" x="225.54" y="451.01">926</text>
<text class="belong" x="225.54" y="461.01">(5)</text>
<circle onclick="fromCircle(17)" class="circle" cx="170.0697" cy="380.5503" r="8.4324" />
<text class="tLabel" x="170.07" y="360.55"></text>
<text class="nLabel" x="170.07" y="375.55">39</text>
<text class="belong" x="170.07" y="385.55">(1, 5)</text>
<circle onclick="fromCircle(49)" class="circle" cx="83.3358" cy="369.8921" r="8.4324" />
<text class="tLabel" x="83.34" y="349.89"></text>
<text class="nLabel" x="83.34" y="364.89">1</text>
<text class="belong" x="83.34" y="374.89">(1, 5, 6)</text>
<circle onclick="fromCircle(33)" class="circle" cx="47.3358" cy="233.0017" r="8.4324" />
<text class="tLabel" x="47.34" y="213.00"></text>
<text class="nLabel" x="47.34" y="228.00">11</text>
<text class="belong" x="47.34" y="238.00">(1, 6)</text>
<circle onclick="fromCircle(39)" class="circle" cx="96.3400" cy="137.7196" r="8.4324" />
<text class="tLabel" x="96.34" y="117.72"></text>
<text class="nLabel" x="96.34" y="132.72">5</text>
<text class="belong" x="96.34" y="142.72">(1, 2, 3, 6)</text>
<rect class="p0 borderLine" x="500.00" y="50.00" width="30.00" height="15.00" />
<rect class="q0" x="500.00" y="50.00" width="30.00" height="15.00" />
<text class="legend" x="540.00" y="65.00">Eg_sp</text>
<rect class="p1 borderLine" x="500.00" y="90.00" width="30.00" height="15.00" />
<rect class="q1" x="500.00" y="90.00" width="30.00" height="15.00" />
<text class="legend" x="540.00" y="105.00">48h_up</text>
<rect class="p2 borderLine" x="500.00" y="130.00" width="30.00" height="15.00" />
<rect class="q2" x="500.00" y="130.00" width="30.00" height="15.00" />
<text class="legend" x="540.00" y="145.00">96h_up</text>
<rect class="p3 borderLine" x="500.00" y="170.00" width="30.00" height="15.00" />
<rect class="q3" x="500.00" y="170.00" width="30.00" height="15.00" />
<text class="legend" x="540.00" y="185.00">48h_down</text>
<rect class="p4 borderLine" x="500.00" y="210.00" width="30.00" height="15.00" />
<rect class="q4" x="500.00" y="210.00" width="30.00" height="15.00" />
<text class="legend" x="540.00" y="225.00">96h_down</text>
<rect class="p5 borderLine" x="500.00" y="250.00" width="30.00" height="15.00" />
<rect class="q5" x="500.00" y="250.00" width="30.00" height="15.00" />
<text class="legend" x="540.00" y="265.00">core</text>
</svg>
