<svg xmlns="http://www.w3.org/2000/svg" xmlns:xlink="http://www.w3.org/1999/xlink" width="700" height="500">
<defs>
<style type="text/css"><![CDATA[
  .borderLine {
	   stroke: none;
	   fill-opacity: 0.4;
  }
  .outLine {
	   stroke-width: 1;
	   fill: none;
  }
  .circle {
	   stroke: #888888;
	   stroke-width: 0.5;
	   fill: none;
    pointer-events: all;
  }
  .spcircle {
	   stroke: #FF2222;
	   stroke-width: 1;
	   fill: none;
    pointer-events: all;
  }
  .tLabel {
	   font-family: Arial;
    pointer-events: none;
	   font-size: 14px;
	   text-anchor: middle;
	   alignment-baseline: central;
  }
  .nLabel {
	   font-family: Arial;
    pointer-events: none;
	   font-size: 10px;
	   text-anchor: middle;
	   alignment-baseline: central;
  }
  .belong {
	   font-family: Arial;
    pointer-events: none;
	   font-size: 5px;
	   text-anchor: middle;
	   alignment-baseline: central;
  }
  .p0{
    stroke: none;
    fill: #e6194b;
  }
  .q0{
    fill: none;
    stroke: #e6194b;
  }
  .p1{
    stroke: none;
    fill: #3cb44b;
  }
  .q1{
    fill: none;
    stroke: #3cb44b;
  }
  .p2{
    stroke: none;
    fill: #ffe119;
  }
  .q2{
    fill: none;
    stroke: #ffe119;
  }
  .p3{
    stroke: none;
    fill: #0082c8;
  }
  .q3{
    fill: none;
    stroke: #0082c8;
  }
]]>
</style>
<symbol id="bl0">
<path d="M 280.85 229.37 L 287.15 183.58 L 241.44 176.72 L 234.01 222.34 L 279.54 230.33 L 416.47 428.11 L 407.92 473.54 L 453.25 482.64 L 462.89 437.43 L 417.80 427.23 L 370.99 352.05 L 385.81 330.80 L 380.64 305.41 L 358.68 291.64 L 333.58 298.05 Z" />
</symbol>
<symbol id="bl1">
<path d="M 70.29 58.55 L 43.82 26.30 L 7.02 45.97 L 19.13 85.90 L 60.66 81.81 L 68.96 90.11 L 60.20 120.88 L 81.74 144.54 L 113.20 138.69 L 124.80 108.87 L 457.42 63.04 L 493.37 91.27 L 522.81 56.30 L 488.87 25.68 L 457.11 58.55 Z" />
</symbol>
<symbol id="bl2">
<path d="M 92.22 422.26 L 61.83 442.57 L 68.96 478.41 L 104.80 485.54 L 125.11 455.15 L 402.30 455.15 L 428.79 487.41 L 465.58 467.71 L 453.42 427.78 L 411.89 431.94 L 115.51 136.58 L 119.54 95.06 L 79.61 82.99 L 59.97 119.79 L 92.22 146.25 Z" />
</symbol>
<symbol id="bl3">
<path d="M 68.73 68.56 L 49.47 27.96 L 7.68 44.48 L 21.39 87.28 L 65.01 76.43 L 233.22 185.41 L 230.87 216.87 L 256.08 235.83 L 285.66 224.85 L 292.37 194.02 L 348.82 177.44 L 384.86 200.75 L 413.26 168.56 L 385.64 135.71 L 349.05 158.16 Z" />
</symbol>
</defs>
<!-- isDone: 0 -->
<rect width="700" height="500" style="fill:#fff;stroke-width:0" />
<use class="p0 borderLine" xlink:href="#bl0"/>
<use class="p1 borderLine" xlink:href="#bl1"/>
<use class="p2 borderLine" xlink:href="#bl2"/>
<use class="p3 borderLine" xlink:href="#bl3"/>
<use class="q0 outLine" xlink:href="#bl0"/>
<use class="q1 outLine" xlink:href="#bl1"/>
<use class="q2 outLine" xlink:href="#bl2"/>
<use class="q3 outLine" xlink:href="#bl3"/>
<circle onclick="fromCircle(1)" class="circle" cx="353.6049" cy="324.1341" r="23.9393" />
<text class="tLabel" x="353.60" y="304.13"></text>
<text class="nLabel" x="353.60" y="319.13">1378</text>
<text class="belong" x="353.60" y="329.13">(1)</text>
<circle onclick="fromCircle(6)" class="spcircle" cx="92.2180" cy="113.3632" r="2.3216" />
<text class="tLabel" x="92.22" y="93.36"></text>
<text class="nLabel" x="92.22" y="108.36">8</text>
<text class="belong" x="92.22" y="118.36">(2, 3)</text>
<circle onclick="fromCircle(10)" class="circle" cx="37.4060" cy="58.5512" r="3.4729" />
<text class="tLabel" x="37.41" y="38.55"></text>
<text class="nLabel" x="37.41" y="53.55">29</text>
<text class="belong" x="37.41" y="63.55">(2, 4)</text>
<circle onclick="fromCircle(4)" class="spcircle" cx="92.2180" cy="455.1519" r="5.3956" />
<text class="tLabel" x="92.22" y="435.15"></text>
<text class="nLabel" x="92.22" y="450.15">70</text>
<text class="belong" x="92.22" y="460.15">(3)</text>
<circle onclick="fromCircle(5)" class="circle" cx="435.1880" cy="455.1519" r="4.3739" />
<text class="tLabel" x="435.19" y="435.15"></text>
<text class="nLabel" x="435.19" y="450.15">46</text>
<text class="belong" x="435.19" y="460.15">(1, 3)</text>
<circle onclick="fromCircle(8)" class="circle" cx="380.3759" cy="168.1752" r="4.0273" />
<text class="tLabel" x="380.38" y="148.18"></text>
<text class="nLabel" x="380.38" y="163.18">39</text>
<text class="belong" x="380.38" y="173.18">(4)</text>
<circle onclick="fromCircle(9)" class="circle" cx="260.8199" cy="203.2892" r="2.3216" />
<text class="tLabel" x="260.82" y="183.29"></text>
<text class="nLabel" x="260.82" y="198.29">6</text>
<text class="belong" x="260.82" y="208.29">(1, 4)</text>
<rect class="p0 borderLine" x="500.00" y="50.00" width="30.00" height="15.00" />
<rect class="q0" x="500.00" y="50.00" width="30.00" height="15.00" />
<text class="legend" x="540.00" y="65.00">Up_in_POU3F2_KO_iNs</text>
<rect class="p1 borderLine" x="500.00" y="90.00" width="30.00" height="15.00" />
<rect class="q1" x="500.00" y="90.00" width="30.00" height="15.00" />
<text class="legend" x="540.00" y="105.00">Down_in_POU3F2_KO_iNs</text>
<rect class="p2 borderLine" x="500.00" y="130.00" width="30.00" height="15.00" />
<rect class="q2" x="500.00" y="130.00" width="30.00" height="15.00" />
<text class="legend" x="540.00" y="145.00">Up_in_VGF_KO_iNs</text>
<rect class="p3 borderLine" x="500.00" y="170.00" width="30.00" height="15.00" />
<rect class="q3" x="500.00" y="170.00" width="30.00" height="15.00" />
<text class="legend" x="540.00" y="185.00">Down_in_VGF_KO_iNs</text>
</svg>
