<svg xmlns="http://www.w3.org/2000/svg" xmlns:xlink="http://www.w3.org/1999/xlink" width="700" height="500">
<defs>
<style type="text/css"><![CDATA[
  .borderLine {
	   stroke: none;
	   fill-opacity: 0.4;
  }
  .outLine {
	   stroke-width: 1;
	   fill: none;
  }
  .circle {
	   stroke: #888888;
	   stroke-width: 0.5;
	   fill: none;
    pointer-events: all;
  }
  .spcircle {
	   stroke: #FF2222;
	   stroke-width: 1;
	   fill: none;
    pointer-events: all;
  }
  .tLabel {
	   font-family: Arial;
    pointer-events: none;
	   font-size: 14px;
	   text-anchor: middle;
	   alignment-baseline: central;
  }
  .nLabel {
	   font-family: Arial;
    pointer-events: none;
	   font-size: 10px;
	   text-anchor: middle;
	   alignment-baseline: central;
  }
  .belong {
	   font-family: Arial;
    pointer-events: none;
	   font-size: 5px;
	   text-anchor: middle;
	   alignment-baseline: central;
  }
  .p0{
    stroke: none;
    fill: #e6194b;
  }
  .q0{
    fill: none;
    stroke: #e6194b;
  }
  .p1{
    stroke: none;
    fill: #3cb44b;
  }
  .q1{
    fill: none;
    stroke: #3cb44b;
  }
  .p2{
    stroke: none;
    fill: #ffe119;
  }
  .q2{
    fill: none;
    stroke: #ffe119;
  }
  .p3{
    stroke: none;
    fill: #0082c8;
  }
  .q3{
    fill: none;
    stroke: #0082c8;
  }
  .p4{
    stroke: none;
    fill: #f58231;
  }
  .q4{
    fill: none;
    stroke: #f58231;
  }
  .p5{
    stroke: none;
    fill: #911eb4;
  }
  .q5{
    fill: none;
    stroke: #911eb4;
  }
]]>
</style>
<symbol id="bl0">
<path d="M 108.19 474.39 L 83.78 479.95 L 88.12 504.61 L 112.96 501.51 L 111.10 476.54 L 284.91 284.65 L 305.22 287.43 L 315.19 269.52 L 302.11 253.73 L 282.65 260.18 L 264.72 246.52 L 265.70 225.94 L 246.81 217.69 L 232.37 232.40 L 240.98 251.13 Z" />
</symbol>
<symbol id="bl1">
<path d="M 284.89 289.34 L 263.46 296.00 L 264.86 318.40 L 286.96 322.34 L 296.01 301.80 L 362.69 284.70 L 376.06 297.85 L 393.94 292.17 L 397.26 273.71 L 382.48 262.16 L 385.15 240.28 L 403.15 231.21 L 401.69 211.11 L 382.57 204.73 L 369.33 219.92 L 332.12 215.11 L 324.06 197.60 L 304.78 197.20 L 296.01 214.37 L 307.63 229.76 Z" />
</symbol>
<symbol id="bl2">
<path d="M 54.18 34.07 L 48.35 9.96 L 23.91 14.15 L 26.42 38.82 L 51.21 37.98 L 86.07 72.84 L 80.75 85.68 L 86.07 98.52 L 98.91 103.84 L 111.76 98.52 L 302.82 289.52 L 298.98 309.55 L 316.16 320.52 L 332.71 308.61 L 327.77 288.83 L 375.24 235.79 L 396.09 238.17 L 405.27 219.30 L 390.52 204.37 L 371.53 213.32 Z" />
</symbol>
<symbol id="bl3">
<path d="M 114.36 95.22 L 109.21 70.72 L 84.48 74.65 L 87.17 99.54 L 112.17 98.09 L 283.84 258.77 L 278.99 272.57 L 285.88 285.47 L 300.05 289.11 L 312.30 281.13 L 431.30 358.97 L 435.16 383.10 L 459.54 381.55 L 460.31 357.12 L 436.07 354.04 L 372.14 262.84 L 379.83 249.28 L 374.18 234.75 L 359.35 229.96 L 346.26 238.42 Z" />
</symbol>
<symbol id="bl4">
<path d="M 346.09 261.60 L 326.20 275.89 L 338.62 297.00 L 360.77 286.54 L 352.37 263.54 L 468.37 41.24 L 492.64 33.97 L 486.02 9.51 L 461.39 15.47 L 466.69 40.24 L 361.97 197.21 L 346.27 195.05 L 334.85 206.04 L 336.41 221.82 L 349.77 230.36 Z" />
</symbol>
<symbol id="bl5">
<path d="M 300.34 224.62 L 282.75 218.70 L 269.14 231.33 L 273.74 249.32 L 291.73 253.87 L 311.70 321.23 L 299.15 342.64 L 319.67 356.59 L 334.96 337.04 L 316.47 320.48 L 314.50 230.95 L 331.91 216.37 L 321.50 196.20 L 299.53 201.94 L 300.33 224.63 Z" />
</symbol>
</defs>
<!-- isDone: 0 -->
<rect width="700" height="500" style="fill:#fff;stroke-width:0" />
<use class="p0 borderLine" xlink:href="#bl0"/>
<use class="p1 borderLine" xlink:href="#bl1"/>
<use class="p2 borderLine" xlink:href="#bl2"/>
<use class="p3 borderLine" xlink:href="#bl3"/>
<use class="p4 borderLine" xlink:href="#bl4"/>
<use class="p5 borderLine" xlink:href="#bl5"/>
<use class="q0 outLine" xlink:href="#bl0"/>
<use class="q1 outLine" xlink:href="#bl1"/>
<use class="q2 outLine" xlink:href="#bl2"/>
<use class="q3 outLine" xlink:href="#bl3"/>
<use class="q4 outLine" xlink:href="#bl4"/>
<use class="q5 outLine" xlink:href="#bl5"/>
<circle onclick="fromCircle(1)" class="circle" cx="98.9102" cy="490.0000" r="2.3638" />
<text class="tLabel" x="98.91" y="470.00"></text>
<text class="nLabel" x="98.91" y="485.00">7</text>
<text class="belong" x="98.91" y="495.00">(1)</text>
<circle onclick="fromCircle(2)" class="spcircle" cx="278.4121" cy="306.3083" r="2.8253" />
<text class="tLabel" x="278.41" y="286.31"></text>
<text class="nLabel" x="278.41" y="301.31">10</text>
<text class="belong" x="278.41" y="311.31">(2)</text>
<circle onclick="fromCircle(6)" class="circle" cx="387.3480" cy="222.2502" r="6.2540" />
<text class="tLabel" x="387.35" y="202.25"></text>
<text class="nLabel" x="387.35" y="217.25">49</text>
<text class="belong" x="387.35" y="227.25">(2, 3)</text>
<circle onclick="fromCircle(14)" class="circle" cx="361.7132" cy="247.9645" r="1.6215" />
<text class="tLabel" x="361.71" y="227.96"></text>
<text class="nLabel" x="361.71" y="242.96">2</text>
<text class="belong" x="361.71" y="252.96">(2, 3, 4)</text>
<circle onclick="fromCircle(10)" class="circle" cx="380.2871" cy="280.1860" r="1.6215" />
<text class="tLabel" x="380.29" y="260.19"></text>
<text class="nLabel" x="380.29" y="275.19">3</text>
<text class="belong" x="380.29" y="285.19">(2, 4)</text>
<circle onclick="fromCircle(26)" class="circle" cx="343.9711" cy="279.6389" r="1.6215" />
<text class="tLabel" x="343.97" y="259.64"></text>
<text class="nLabel" x="343.97" y="274.64">1</text>
<text class="belong" x="343.97" y="284.64">(2, 4, 5)</text>
<circle onclick="fromCircle(38)" class="circle" cx="314.1024" cy="212.7868" r="1.7869" />
<text class="tLabel" x="314.10" y="192.79"></text>
<text class="nLabel" x="314.10" y="207.79">4</text>
<text class="belong" x="314.10" y="217.79">(2, 3, 6)</text>
<circle onclick="fromCircle(4)" class="circle" cx="38.3673" cy="25.1357" r="15.1357" />
<text class="tLabel" x="38.37" y="5.14"></text>
<text class="nLabel" x="38.37" y="20.14">287</text>
<text class="belong" x="38.37" y="30.14">(3)</text>
<circle onclick="fromCircle(5)" class="spcircle" cx="250.2674" cy="235.5187" r="1.6215" />
<text class="tLabel" x="250.27" y="215.52"></text>
<text class="nLabel" x="250.27" y="230.52">1</text>
<text class="belong" x="250.27" y="240.52">(1, 3)</text>
<circle onclick="fromCircle(12)" class="circle" cx="98.9102" cy="85.6786" r="3.5737" />
<text class="tLabel" x="98.91" y="65.68"></text>
<text class="nLabel" x="98.91" y="80.68">16</text>
<text class="belong" x="98.91" y="90.68">(3, 4)</text>
<circle onclick="fromCircle(44)" class="circle" cx="286.5680" cy="236.4596" r="1.6215" />
<text class="tLabel" x="286.57" y="216.46"></text>
<text class="nLabel" x="286.57" y="231.46">1</text>
<text class="belong" x="286.57" y="241.46">(3, 4, 6)</text>
<circle onclick="fromCircle(20)" class="circle" cx="351.8901" cy="212.3188" r="1.6215" />
<text class="tLabel" x="351.89" y="192.32"></text>
<text class="nLabel" x="351.89" y="207.32">2</text>
<text class="belong" x="351.89" y="217.32">(3, 5)</text>
<circle onclick="fromCircle(36)" class="spcircle" cx="315.6600" cy="302.3658" r="5.5795" />
<text class="tLabel" x="315.66" y="282.37"></text>
<text class="nLabel" x="315.66" y="297.37">39</text>
<text class="belong" x="315.66" y="307.37">(3, 6)</text>
<circle onclick="fromCircle(8)" class="circle" cx="446.4970" cy="368.9142" r="3.9956" />
<text class="tLabel" x="446.50" y="348.91"></text>
<text class="nLabel" x="446.50" y="363.91">20</text>
<text class="belong" x="446.50" y="373.91">(4)</text>
<circle onclick="fromCircle(16)" class="circle" cx="476.7685" cy="25.1357" r="1.6215" />
<text class="tLabel" x="476.77" y="5.14"></text>
<text class="nLabel" x="476.77" y="20.14">2</text>
<text class="belong" x="476.77" y="30.14">(5)</text>
<circle onclick="fromCircle(32)" class="spcircle" cx="316.8645" cy="338.6427" r="5.5795" />
<text class="tLabel" x="316.86" y="318.64"></text>
<text class="nLabel" x="316.86" y="333.64">39</text>
<text class="belong" x="316.86" y="343.64">(6)</text>
<circle onclick="fromCircle(47)" class="circle" cx="297.1005" cy="271.1841" r="1.6215" />
<text class="tLabel" x="297.10" y="251.18"></text>
<text class="nLabel" x="297.10" y="266.18">1</text>
<text class="belong" x="297.10" y="276.18">(1, 2, 3, 4, 6)</text>
<rect class="p0 borderLine" x="500.00" y="50.00" width="30.00" height="15.00" />
<rect class="q0" x="500.00" y="50.00" width="30.00" height="15.00" />
<text class="legend" x="540.00" y="65.00">IBA</text>
<rect class="p1 borderLine" x="500.00" y="90.00" width="30.00" height="15.00" />
<rect class="q1" x="500.00" y="90.00" width="30.00" height="15.00" />
<text class="legend" x="540.00" y="105.00">IC</text>
<rect class="p2 borderLine" x="500.00" y="130.00" width="30.00" height="15.00" />
<rect class="q2" x="500.00" y="130.00" width="30.00" height="15.00" />
<text class="legend" x="540.00" y="145.00">IDA</text>
<rect class="p3 borderLine" x="500.00" y="170.00" width="30.00" height="15.00" />
<rect class="q3" x="500.00" y="170.00" width="30.00" height="15.00" />
<text class="legend" x="540.00" y="185.00">IEA</text>
<rect class="p4 borderLine" x="500.00" y="210.00" width="30.00" height="15.00" />
<rect class="q4" x="500.00" y="210.00" width="30.00" height="15.00" />
<text class="legend" x="540.00" y="225.00">ISS</text>
<rect class="p5 borderLine" x="500.00" y="250.00" width="30.00" height="15.00" />
<rect class="q5" x="500.00" y="250.00" width="30.00" height="15.00" />
<text class="legend" x="540.00" y="265.00">NAS</text>
</svg>
