<svg xmlns="http://www.w3.org/2000/svg" xmlns:xlink="http://www.w3.org/1999/xlink" width="700" height="500">
<defs>
<style type="text/css"><![CDATA[
  .borderLine {
	   stroke: none;
	   fill-opacity: 0.4;
  }
  .outLine {
	   stroke-width: 1;
	   fill: none;
  }
  .circle {
	   stroke: #888888;
	   stroke-width: 0.5;
	   fill: none;
    pointer-events: all;
  }
  .spcircle {
	   stroke: #FF2222;
	   stroke-width: 1;
	   fill: none;
    pointer-events: all;
  }
  .tLabel {
	   font-family: Arial;
    pointer-events: none;
	   font-size: 14px;
	   text-anchor: middle;
	   alignment-baseline: central;
  }
  .nLabel {
	   font-family: Arial;
    pointer-events: none;
	   font-size: 10px;
	   text-anchor: middle;
	   alignment-baseline: central;
  }
  .belong {
	   font-family: Arial;
    pointer-events: none;
	   font-size: 5px;
	   text-anchor: middle;
	   alignment-baseline: central;
  }
  .p0{
    stroke: none;
    fill: #e6194b;
  }
  .q0{
    fill: none;
    stroke: #e6194b;
  }
  .p1{
    stroke: none;
    fill: #3cb44b;
  }
  .q1{
    fill: none;
    stroke: #3cb44b;
  }
  .p2{
    stroke: none;
    fill: #ffe119;
  }
  .q2{
    fill: none;
    stroke: #ffe119;
  }
  .p3{
    stroke: none;
    fill: #0082c8;
  }
  .q3{
    fill: none;
    stroke: #0082c8;
  }
]]>
</style>
<symbol id="bl0">
<path d="M 66.00 451.77 L -16.91 426.17 L -52.83 505.15 L 20.95 550.82 L 75.61 483.43 L 142.04 480.76 L 181.39 538.31 L 250.34 528.02 L 271.18 461.50 L 220.42 413.71 L 220.40 413.80 L 293.59 375.07 L 270.69 295.50 L 188.11 301.60 L 177.16 383.68 Z" />
</symbol>
<symbol id="bl1">
<path d="M 114.70 309.36 L 31.15 286.11 L -2.60 365.99 L 72.30 409.69 L 125.24 341.01 L 296.70 329.91 L 349.79 390.15 L 421.48 353.98 L 404.58 275.49 L 324.36 272.03 L 314.13 257.55 L 340.44 190.03 L 288.59 139.41 L 221.72 167.33 L 221.27 239.80 Z" />
</symbol>
<symbol id="bl2">
<path d="M 137.51 113.71 L 138.72 24.91 L 50.34 16.12 L 34.03 103.42 L 119.62 127.13 L 203.28 290.90 L 167.49 349.84 L 204.10 408.27 L 272.74 401.78 L 297.75 337.52 L 297.64 337.54 L 358.76 391.25 L 425.21 344.28 L 394.96 268.74 L 314.46 280.62 Z" />
</symbol>
<symbol id="bl3">
<path d="M 31.86 424.15 L -44.89 450.03 L -38.13 530.74 L 41.86 543.49 L 73.37 468.87 L 426.63 373.00 L 502.57 420.25 L 555.19 347.92 L 486.86 290.21 L 424.35 354.19 L 125.35 346.86 L 90.95 287.49 L 22.44 291.18 L -5.39 353.89 L 37.85 407.17 Z" />
</symbol>
</defs>
<!-- isDone: 0 -->
<rect width="700" height="500" style="fill:#fff;stroke-width:0" />
<use class="p0 borderLine" xlink:href="#bl0"/>
<use class="p1 borderLine" xlink:href="#bl1"/>
<use class="p2 borderLine" xlink:href="#bl2"/>
<use class="p3 borderLine" xlink:href="#bl3"/>
<use class="q0 outLine" xlink:href="#bl0"/>
<use class="q1 outLine" xlink:href="#bl1"/>
<use class="q2 outLine" xlink:href="#bl2"/>
<use class="q3 outLine" xlink:href="#bl3"/>
<circle onclick="fromCircle(1)" class="circle" cx="207.6556" cy="478.1268" r="47.8001" />
<text class="tLabel" x="207.66" y="458.13"></text>
<text class="nLabel" x="207.66" y="473.13">1378</text>
<text class="belong" x="207.66" y="483.13">(1)</text>
<circle onclick="fromCircle(2)" class="circle" cx="276.2595" cy="203.9070" r="54.7221" />
<text class="tLabel" x="276.26" y="183.91"></text>
<text class="nLabel" x="276.26" y="198.91">1806</text>
<text class="belong" x="276.26" y="208.91">(2)</text>
<circle onclick="fromCircle(6)" class="circle" cx="362.2311" cy="325.6750" r="4.7214" />
<text class="tLabel" x="362.23" y="305.68"></text>
<text class="nLabel" x="362.23" y="320.68">8</text>
<text class="belong" x="362.23" y="330.68">(2, 3)</text>
<circle onclick="fromCircle(10)" class="circle" cx="59.7061" cy="345.2468" r="6.9343" />
<text class="tLabel" x="59.71" y="325.25"></text>
<text class="nLabel" x="59.71" y="340.25">29</text>
<text class="belong" x="59.71" y="350.25">(2, 4)</text>
<circle onclick="fromCircle(4)" class="circle" cx="89.7409" cy="68.6537" r="10.7734" />
<text class="tLabel" x="89.74" y="48.65"></text>
<text class="nLabel" x="89.74" y="63.65">70</text>
<text class="belong" x="89.74" y="73.65">(3)</text>
<circle onclick="fromCircle(5)" class="circle" cx="233.1600" cy="349.3820" r="8.7334" />
<text class="tLabel" x="233.16" y="329.38"></text>
<text class="nLabel" x="233.16" y="344.38">46</text>
<text class="belong" x="233.16" y="354.38">(1, 3)</text>
<rect class="p0 borderLine" x="500.00" y="50.00" width="30.00" height="15.00" />
<rect class="q0" x="500.00" y="50.00" width="30.00" height="15.00" />
<text class="legend" x="540.00" y="65.00">Up_in_POU3F2_KO_iNs</text>
<rect class="p1 borderLine" x="500.00" y="90.00" width="30.00" height="15.00" />
<rect class="q1" x="500.00" y="90.00" width="30.00" height="15.00" />
<text class="legend" x="540.00" y="105.00">Down_in_POU3F2_KO_iNs</text>
<rect class="p2 borderLine" x="500.00" y="130.00" width="30.00" height="15.00" />
<rect class="q2" x="500.00" y="130.00" width="30.00" height="15.00" />
<text class="legend" x="540.00" y="145.00">Up_in_VGF_KO_iNs</text>
<rect class="p3 borderLine" x="500.00" y="170.00" width="30.00" height="15.00" />
<rect class="q3" x="500.00" y="170.00" width="30.00" height="15.00" />
<text class="legend" x="540.00" y="185.00">Down_in_VGF_KO_iNs</text>
</svg>
