<svg xmlns="http://www.w3.org/2000/svg" xmlns:xlink="http://www.w3.org/1999/xlink" width="700" height="500">
<defs>
<style type="text/css"><![CDATA[
  .borderLine {
	   stroke: none;
	   fill-opacity: 0.4;
  }
  .outLine {
	   stroke-width: 1;
	   fill: none;
  }
  .circle {
	   stroke: #888888;
	   stroke-width: 0.5;
	   fill: none;
    pointer-events: all;
  }
  .spcircle {
	   stroke: #FF2222;
	   stroke-width: 1;
	   fill: none;
    pointer-events: all;
  }
  .tLabel {
	   font-family: Arial;
    pointer-events: none;
	   font-size: 14px;
	   text-anchor: middle;
	   alignment-baseline: central;
  }
  .nLabel {
	   font-family: Arial;
    pointer-events: none;
	   font-size: 10px;
	   text-anchor: middle;
	   alignment-baseline: central;
  }
  .belong {
	   font-family: Arial;
    pointer-events: none;
	   font-size: 5px;
	   text-anchor: middle;
	   alignment-baseline: central;
  }
  .p0{
    stroke: none;
    fill: #e6194b;
  }
  .q0{
    fill: none;
    stroke: #e6194b;
  }
  .p1{
    stroke: none;
    fill: #3cb44b;
  }
  .q1{
    fill: none;
    stroke: #3cb44b;
  }
  .p2{
    stroke: none;
    fill: #ffe119;
  }
  .q2{
    fill: none;
    stroke: #ffe119;
  }
  .p3{
    stroke: none;
    fill: #0082c8;
  }
  .q3{
    fill: none;
    stroke: #0082c8;
  }
  .p4{
    stroke: none;
    fill: #f58231;
  }
  .q4{
    fill: none;
    stroke: #f58231;
  }
  .p5{
    stroke: none;
    fill: #911eb4;
  }
  .q5{
    fill: none;
    stroke: #911eb4;
  }
  .p6{
    stroke: none;
    fill: #46f0f0;
  }
  .q6{
    fill: none;
    stroke: #46f0f0;
  }
  .p7{
    stroke: none;
    fill: #f032e6;
  }
  .q7{
    fill: none;
    stroke: #f032e6;
  }
]]>
</style>
<symbol id="bl0">
<path d="M 256.81 259.93 L 246.06 262.88 L 242.78 273.53 L 250.00 282.02 L 261.04 280.49 L 271.96 295.17 L 267.30 303.91 L 271.10 313.05 L 280.57 315.92 L 288.81 310.42 L 469.54 418.87 L 472.17 433.82 L 487.34 433.33 L 489.00 418.24 L 474.29 414.47 L 463.59 393.07 L 469.67 385.41 L 467.73 375.83 L 459.14 371.15 L 450.03 374.72 L 280.03 212.60 L 281.58 198.65 L 268.55 193.44 L 260.06 204.61 L 268.57 215.77 L 262.41 238.12 L 253.53 239.27 L 248.12 246.41 L 249.42 255.28 L 256.66 260.56 Z" />
</symbol>
<symbol id="bl1">
<path d="M 145.84 123.94 L 143.69 108.33 L 127.96 109.31 L 127.77 125.06 L 143.46 126.44 L 286.46 310.39 L 282.81 323.83 L 294.72 331.06 L 304.96 321.62 L 298.72 309.16 L 297.78 311.05 L 307.73 311.23 L 314.14 303.62 L 312.29 293.85 L 303.54 289.12 L 305.24 256.81 L 314.88 252.49 L 317.00 242.13 L 309.83 234.37 L 299.34 235.66 L 300.54 237.43 L 305.57 228.98 L 302.30 219.72 L 293.08 216.30 L 284.56 221.19 Z" />
</symbol>
<symbol id="bl2">
<path d="M 238.81 246.99 L 228.15 251.49 L 226.71 262.98 L 235.93 269.97 L 246.61 265.49 L 244.90 264.19 L 242.72 273.20 L 247.83 280.92 L 256.97 282.42 L 264.29 276.74 L 448.25 377.16 L 452.06 392.39 L 467.55 389.83 L 466.24 374.18 L 450.54 374.21 L 334.07 248.45 L 337.63 238.10 L 330.98 229.41 L 320.06 230.14 L 314.62 239.64 L 251.57 237.92 L 244.97 227.14 L 232.44 228.81 L 228.90 240.94 L 238.55 249.09 Z" />
</symbol>
<symbol id="bl3">
<path d="M 19.31 438.99 L 3.62 436.22 L -0.00 451.73 L 15.28 456.19 L 20.58 441.17 L 282.99 324.25 L 291.38 330.91 L 301.65 327.83 L 305.00 317.65 L 298.56 309.08 L 334.43 234.03 L 348.72 230.48 L 347.98 215.77 L 333.40 213.68 L 328.55 227.59 L 291.65 241.20 L 284.87 234.38 L 275.27 235.03 L 269.48 242.70 L 271.48 252.11 Z" />
</symbol>
<symbol id="bl4">
<path d="M 103.89 81.58 L 101.02 65.78 L 85.12 68.03 L 86.74 84.00 L 102.76 83.01 L 244.12 212.95 L 241.10 221.64 L 245.37 229.80 L 254.24 232.26 L 262.10 227.48 L 323.35 270.86 L 322.08 281.95 L 330.78 288.96 L 341.35 285.36 L 343.98 274.51 L 341.94 275.06 L 353.04 283.61 L 364.25 275.20 L 359.17 262.15 L 345.23 263.54 L 300.46 215.34 L 304.16 206.59 L 300.08 198.02 L 290.96 195.38 L 282.93 200.44 Z" />
</symbol>
<symbol id="bl5">
<path d="M 313.63 236.67 L 297.79 236.91 L 297.01 252.73 L 312.74 254.55 L 315.57 238.96 L 329.69 229.86 L 337.85 235.05 L 347.11 232.23 L 351.00 223.37 L 346.80 214.65 L 472.09 63.04 L 488.31 61.60 L 487.06 45.36 L 470.81 46.43 L 471.68 62.69 Z" />
</symbol>
<symbol id="bl6">
<path d="M 303.60 203.29 L 293.45 195.30 L 282.21 201.68 L 283.87 214.49 L 296.36 217.80 L 302.06 234.30 L 294.27 245.78 L 303.09 256.49 L 315.86 251.06 L 314.25 237.27 L 365.77 188.44 L 381.16 189.71 L 384.14 174.56 L 369.41 169.91 L 363.15 184.03 Z" />
</symbol>
<symbol id="bl7">
<path d="M 35.05 392.90 L 20.19 399.77 L 27.06 414.64 L 41.93 407.76 L 35.05 392.90 L 132.36 128.16 L 147.23 121.29 L 140.35 106.42 L 125.48 113.29 L 132.36 128.16 Z" />
</symbol>
</defs>
<!-- isDone: 0 -->
<rect width="700" height="500" style="fill:#fff;stroke-width:0" />
<use class="p0 borderLine" xlink:href="#bl0"/>
<use class="p1 borderLine" xlink:href="#bl1"/>
<use class="p2 borderLine" xlink:href="#bl2"/>
<use class="p3 borderLine" xlink:href="#bl3"/>
<use class="p4 borderLine" xlink:href="#bl4"/>
<use class="p5 borderLine" xlink:href="#bl5"/>
<use class="p6 borderLine" xlink:href="#bl6"/>
<use class="p7 borderLine" xlink:href="#bl7"/>
<use class="q0 outLine" xlink:href="#bl0"/>
<use class="q1 outLine" xlink:href="#bl1"/>
<use class="q2 outLine" xlink:href="#bl2"/>
<use class="q3 outLine" xlink:href="#bl3"/>
<use class="q4 outLine" xlink:href="#bl4"/>
<use class="q5 outLine" xlink:href="#bl5"/>
<use class="q6 outLine" xlink:href="#bl6"/>
<use class="q7 outLine" xlink:href="#bl7"/>
<circle onclick="fromCircle(1)" class="circle" cx="479.4705" cy="424.8275" r="10.5295" />
<text class="tLabel" x="479.47" y="404.83"></text>
<text class="nLabel" x="479.47" y="419.83">40</text>
<text class="belong" x="479.47" y="429.83">(1)</text>
<circle onclick="fromCircle(3)" class="circle" cx="302.9393" cy="300.6818" r="1.6649" />
<text class="tLabel" x="302.94" y="280.68"></text>
<text class="nLabel" x="302.94" y="295.68">1</text>
<text class="belong" x="302.94" y="305.68">(1, 2)</text>
<circle onclick="fromCircle(7)" class="circle" cx="259.3347" cy="249.2895" r="1.6649" />
<text class="tLabel" x="259.33" y="229.29"></text>
<text class="nLabel" x="259.33" y="244.29">1</text>
<text class="belong" x="259.33" y="254.29">(1, 2, 3)</text>
<circle onclick="fromCircle(15)" class="circle" cx="280.7819" cy="245.2142" r="2.3545" />
<text class="tLabel" x="280.78" y="225.21"></text>
<text class="nLabel" x="280.78" y="240.21">2</text>
<text class="belong" x="280.78" y="250.21">(1, 2, 3, 4)</text>
<circle onclick="fromCircle(127)" class="circle" cx="305.8414" cy="245.2428" r="4.0781" />
<text class="tLabel" x="305.84" y="225.24"></text>
<text class="nLabel" x="305.84" y="240.24">6</text>
<text class="belong" x="305.84" y="250.24">(1, 2, 3, 4, 5, 6, 7)</text>
<circle onclick="fromCircle(2)" class="circle" cx="178.4720" cy="159.4086" r="1.6649" />
<text class="tLabel" x="178.47" y="139.41"></text>
<text class="nLabel" x="178.47" y="154.41">1</text>
<text class="belong" x="178.47" y="164.41">(2)</text>
<circle onclick="fromCircle(6)" class="circle" cx="239.9873" cy="237.5988" r="2.8836" />
<text class="tLabel" x="239.99" y="217.60"></text>
<text class="nLabel" x="239.99" y="232.60">3</text>
<text class="belong" x="239.99" y="242.60">(2, 3)</text>
<circle onclick="fromCircle(14)" class="spcircle" cx="274.3138" cy="265.2447" r="4.4048" />
<text class="tLabel" x="274.31" y="245.24"></text>
<text class="nLabel" x="274.31" y="260.24">7</text>
<text class="belong" x="274.31" y="270.24">(2, 3, 4)</text>
<circle onclick="fromCircle(10)" class="circle" cx="293.5682" cy="319.5325" r="4.7089" />
<text class="tLabel" x="293.57" y="299.53"></text>
<text class="nLabel" x="293.57" y="314.53">8</text>
<text class="belong" x="293.57" y="324.53">(2, 4)</text>
<circle onclick="fromCircle(18)" class="circle" cx="252.6511" cy="220.7886" r="3.7227" />
<text class="tLabel" x="252.65" y="200.79"></text>
<text class="nLabel" x="252.65" y="215.79">5</text>
<text class="belong" x="252.65" y="225.79">(2, 5)</text>
<circle onclick="fromCircle(130)" class="circle" cx="136.3540" cy="117.2906" r="1.6649" />
<text class="tLabel" x="136.35" y="97.29"></text>
<text class="nLabel" x="136.35" y="112.29">1</text>
<text class="belong" x="136.35" y="122.29">(2, 8)</text>
<circle onclick="fromCircle(4)" class="circle" cx="237.3801" cy="258.4830" r="2.8836" />
<text class="tLabel" x="237.38" y="238.48"></text>
<text class="nLabel" x="237.38" y="253.48">3</text>
<text class="belong" x="237.38" y="263.48">(3)</text>
<circle onclick="fromCircle(5)" class="circle" cx="458.4115" cy="382.7095" r="2.8836" />
<text class="tLabel" x="458.41" y="362.71"></text>
<text class="nLabel" x="458.41" y="377.71">3</text>
<text class="belong" x="458.41" y="387.71">(1, 3)</text>
<circle onclick="fromCircle(13)" class="circle" cx="254.1281" cy="271.1949" r="3.7227" />
<text class="tLabel" x="254.13" y="251.19"></text>
<text class="nLabel" x="254.13" y="266.19">5</text>
<text class="belong" x="254.13" y="276.19">(1, 3, 4)</text>
<circle onclick="fromCircle(12)" class="circle" cx="326.2004" cy="239.9557" r="3.3297" />
<text class="tLabel" x="326.20" y="219.96"></text>
<text class="nLabel" x="326.20" y="234.96">4</text>
<text class="belong" x="326.20" y="244.96">(3, 4)</text>
<circle onclick="fromCircle(20)" class="circle" cx="353.1164" cy="272.0229" r="3.7227" />
<text class="tLabel" x="353.12" y="252.02"></text>
<text class="nLabel" x="353.12" y="267.02">5</text>
<text class="belong" x="353.12" y="277.02">(3, 5)</text>
<circle onclick="fromCircle(21)" class="circle" cx="332.7990" cy="277.5507" r="3.7227" />
<text class="tLabel" x="332.80" y="257.55"></text>
<text class="nLabel" x="332.80" y="272.55">5</text>
<text class="belong" x="332.80" y="282.55">(1, 3, 5)</text>
<circle onclick="fromCircle(9)" class="circle" cx="278.8736" cy="304.4637" r="4.4048" />
<text class="tLabel" x="278.87" y="284.46"></text>
<text class="nLabel" x="278.87" y="299.46">7</text>
<text class="belong" x="278.87" y="309.46">(1, 4)</text>
<circle onclick="fromCircle(11)" class="circle" cx="269.3494" cy="285.7043" r="2.8836" />
<text class="tLabel" x="269.35" y="265.70"></text>
<text class="nLabel" x="269.35" y="280.70">3</text>
<text class="belong" x="269.35" y="290.70">(1, 2, 4)</text>
<circle onclick="fromCircle(40)" class="circle" cx="339.4192" cy="223.5772" r="1.6649" />
<text class="tLabel" x="339.42" y="203.58"></text>
<text class="nLabel" x="339.42" y="218.58">1</text>
<text class="belong" x="339.42" y="228.58">(4, 6)</text>
<circle onclick="fromCircle(16)" class="circle" cx="94.2360" cy="75.1725" r="1.6649" />
<text class="tLabel" x="94.24" y="55.17"></text>
<text class="nLabel" x="94.24" y="70.17">1</text>
<text class="belong" x="94.24" y="80.17">(5)</text>
<circle onclick="fromCircle(17)" class="circle" cx="271.6458" cy="204.6035" r="3.7227" />
<text class="tLabel" x="271.65" y="184.60"></text>
<text class="nLabel" x="271.65" y="199.60">5</text>
<text class="belong" x="271.65" y="209.60">(1, 5)</text>
<circle onclick="fromCircle(19)" class="circle" cx="294.0442" cy="227.8422" r="3.7227" />
<text class="tLabel" x="294.04" y="207.84"></text>
<text class="nLabel" x="294.04" y="222.84">5</text>
<text class="belong" x="294.04" y="232.84">(1, 2, 5)</text>
<circle onclick="fromCircle(80)" class="circle" cx="292.5775" cy="206.8506" r="1.6649" />
<text class="tLabel" x="292.58" y="186.85"></text>
<text class="nLabel" x="292.58" y="201.85">1</text>
<text class="belong" x="292.58" y="211.85">(5, 7)</text>
<circle onclick="fromCircle(32)" class="circle" cx="479.4705" cy="54.1135" r="2.3545" />
<text class="tLabel" x="479.47" y="34.11"></text>
<text class="nLabel" x="479.47" y="49.11">2</text>
<text class="belong" x="479.47" y="59.11">(6)</text>
<circle onclick="fromCircle(96)" class="circle" cx="374.1754" cy="180.4676" r="1.6649" />
<text class="tLabel" x="374.18" y="160.47"></text>
<text class="nLabel" x="374.18" y="175.47">1</text>
<text class="belong" x="374.18" y="185.47">(6, 7)</text>
<circle onclick="fromCircle(64)" class="circle" cx="314.4094" cy="222.5249" r="3.3297" />
<text class="tLabel" x="314.41" y="202.52"></text>
<text class="nLabel" x="314.41" y="217.52">4</text>
<text class="belong" x="314.41" y="227.52">(7)</text>
<circle onclick="fromCircle(128)" class="circle" cx="31.0590" cy="403.7685" r="4.7089" />
<text class="tLabel" x="31.06" y="383.77"></text>
<text class="nLabel" x="31.06" y="398.77">8</text>
<text class="belong" x="31.06" y="408.77">(8)</text>
<rect class="p0 borderLine" x="500.00" y="50.00" width="30.00" height="15.00" />
<rect class="q0" x="500.00" y="50.00" width="30.00" height="15.00" />
<text class="legend" x="540.00" y="65.00">Ball2017</text>
<rect class="p1 borderLine" x="500.00" y="90.00" width="30.00" height="15.00" />
<rect class="q1" x="500.00" y="90.00" width="30.00" height="15.00" />
<text class="legend" x="540.00" y="105.00">Courtois2015</text>
<rect class="p2 borderLine" x="500.00" y="130.00" width="30.00" height="15.00" />
<rect class="q2" x="500.00" y="130.00" width="30.00" height="15.00" />
<text class="legend" x="540.00" y="145.00">Hilton2017</text>
<rect class="p3 borderLine" x="500.00" y="170.00" width="30.00" height="15.00" />
<rect class="q3" x="500.00" y="170.00" width="30.00" height="15.00" />
<text class="legend" x="540.00" y="185.00">Ball2017</text>
<rect class="p4 borderLine" x="500.00" y="210.00" width="30.00" height="15.00" />
<rect class="q4" x="500.00" y="210.00" width="30.00" height="15.00" />
<text class="legend" x="540.00" y="225.00">Courtois2015</text>
<rect class="p5 borderLine" x="500.00" y="250.00" width="30.00" height="15.00" />
<rect class="q5" x="500.00" y="250.00" width="30.00" height="15.00" />
<text class="legend" x="540.00" y="265.00">Hilton2017</text>
<rect class="p6 borderLine" x="500.00" y="290.00" width="30.00" height="15.00" />
<rect class="q6" x="500.00" y="290.00" width="30.00" height="15.00" />
<text class="legend" x="540.00" y="305.00">Ball2017</text>
<rect class="p7 borderLine" x="500.00" y="330.00" width="30.00" height="15.00" />
<rect class="q7" x="500.00" y="330.00" width="30.00" height="15.00" />
<text class="legend" x="540.00" y="345.00">Courtois2015</text>
</svg>
