<svg xmlns="http://www.w3.org/2000/svg" xmlns:xlink="http://www.w3.org/1999/xlink" width="700" height="500">
<defs>
<style type="text/css"><![CDATA[
  .borderLine {
	   stroke: none;
	   fill-opacity: 0.4;
  }
  .outLine {
	   stroke-width: 1;
	   fill: none;
  }
  .circle {
	   stroke: #888888;
	   stroke-width: 0.5;
	   fill: none;
    pointer-events: all;
  }
  .spcircle {
	   stroke: #FF2222;
	   stroke-width: 1;
	   fill: none;
    pointer-events: all;
  }
  .tLabel {
	   font-family: Arial;
    pointer-events: none;
	   font-size: 14px;
	   text-anchor: middle;
	   alignment-baseline: central;
  }
  .nLabel {
	   font-family: Arial;
    pointer-events: none;
	   font-size: 10px;
	   text-anchor: middle;
	   alignment-baseline: central;
  }
  .belong {
	   font-family: Arial;
    pointer-events: none;
	   font-size: 5px;
	   text-anchor: middle;
	   alignment-baseline: central;
  }
  .p0{
    stroke: none;
    fill: #e6194b;
  }
  .q0{
    fill: none;
    stroke: #e6194b;
  }
  .p1{
    stroke: none;
    fill: #3cb44b;
  }
  .q1{
    fill: none;
    stroke: #3cb44b;
  }
  .p2{
    stroke: none;
    fill: #ffe119;
  }
  .q2{
    fill: none;
    stroke: #ffe119;
  }
  .p3{
    stroke: none;
    fill: #0082c8;
  }
  .q3{
    fill: none;
    stroke: #0082c8;
  }
  .p4{
    stroke: none;
    fill: #f58231;
  }
  .q4{
    fill: none;
    stroke: #f58231;
  }
  .p5{
    stroke: none;
    fill: #911eb4;
  }
  .q5{
    fill: none;
    stroke: #911eb4;
  }
]]>
</style>
<symbol id="bl0">
<path d="M 179.55 241.73 L 160.31 248.05 L 156.84 268.00 L 172.83 280.44 L 191.32 272.17 L 237.08 304.12 L 235.52 323.98 L 252.11 335.02 L 269.83 325.90 L 270.49 305.98 L 270.47 305.99 L 284.67 316.02 L 301.28 310.88 L 307.32 294.57 L 298.07 279.84 L 318.38 246.86 L 341.46 245.08 L 346.88 222.59 L 327.15 210.49 L 309.56 225.54 L 237.62 208.37 L 233.10 190.63 L 215.91 184.30 L 200.96 194.88 L 201.19 213.19 L 201.21 213.18 L 185.41 202.94 L 168.24 210.67 L 165.43 229.29 L 179.55 241.74 Z" />
</symbol>
<symbol id="bl1">
<path d="M 129.48 134.05 L 119.31 110.32 L 94.39 117.10 L 97.65 142.71 L 123.46 143.05 L 274.05 320.90 L 267.10 335.43 L 273.34 350.29 L 288.58 355.50 L 302.61 347.57 L 373.40 399.65 L 375.89 425.75 L 402.10 426.21 L 405.50 400.21 L 380.05 393.92 L 321.43 283.20 L 331.28 270.70 L 328.67 255.01 L 315.30 246.38 L 299.92 250.46 L 245.63 182.73 L 252.99 166.67 L 244.48 151.18 L 226.98 148.76 L 214.60 161.37 Z" />
</symbol>
<symbol id="bl2">
<path d="M 233.15 324.33 L 209.40 328.67 L 207.75 352.76 L 230.68 360.31 L 243.66 339.95 L 267.18 337.75 L 277.97 353.51 L 297.05 352.68 L 306.44 336.05 L 297.28 319.28 L 457.43 65.97 L 483.72 61.10 L 480.86 34.51 L 454.13 35.33 L 452.92 62.05 L 319.26 175.03 L 303.97 168.06 L 288.87 175.45 L 284.99 191.80 L 295.15 205.18 Z" />
</symbol>
<symbol id="bl3">
<path d="M 193.58 308.52 L 173.25 313.70 L 169.15 334.27 L 185.95 346.85 L 204.54 337.11 L 450.93 480.12 L 456.84 506.24 L 483.32 502.27 L 481.31 475.57 L 454.53 475.61 L 301.16 310.99 L 307.42 296.02 L 300.30 281.44 L 284.66 277.17 L 271.11 286.10 L 229.41 259.79 L 228.10 236.96 L 206.08 230.79 L 193.11 249.63 L 206.71 268.01 Z" />
</symbol>
<symbol id="bl4">
<path d="M 48.53 20.76 L 44.30 -5.40 L 17.86 -3.62 L 17.18 22.87 L 43.49 26.01 L 172.48 206.55 L 164.29 223.90 L 174.77 239.98 L 193.95 239.48 L 203.59 222.88 L 270.12 223.99 L 280.37 241.58 L 300.72 240.67 L 309.35 222.22 L 297.02 206.01 L 297.01 206.03 L 317.67 202.11 L 322.98 181.77 L 306.89 168.24 L 287.76 176.98 Z" />
</symbol>
<symbol id="bl5">
<path d="M 162.72 356.88 L 135.01 359.34 L 137.47 387.05 L 165.18 384.59 L 162.72 356.88 L 174.90 342.32 L 202.61 339.86 L 200.15 312.15 L 172.43 314.61 L 174.90 342.32 Z" />
</symbol>
</defs>
<!-- isDone: 0 -->
<rect width="700" height="500" style="fill:#fff;stroke-width:0" />
<use class="p0 borderLine" xlink:href="#bl0"/>
<use class="p1 borderLine" xlink:href="#bl1"/>
<use class="p2 borderLine" xlink:href="#bl2"/>
<use class="p3 borderLine" xlink:href="#bl3"/>
<use class="p4 borderLine" xlink:href="#bl4"/>
<use class="p5 borderLine" xlink:href="#bl5"/>
<use class="q0 outLine" xlink:href="#bl0"/>
<use class="q1 outLine" xlink:href="#bl1"/>
<use class="q2 outLine" xlink:href="#bl2"/>
<use class="q3 outLine" xlink:href="#bl3"/>
<use class="q4 outLine" xlink:href="#bl4"/>
<use class="q5 outLine" xlink:href="#bl5"/>
<circle onclick="fromCircle(1)" class="circle" cx="175.1882" cy="260.9113" r="19.6729" />
<text class="tLabel" x="175.19" y="240.91"></text>
<text class="nLabel" x="175.19" y="255.91">40</text>
<text class="belong" x="175.19" y="265.91">(1)</text>
<circle onclick="fromCircle(3)" class="circle" cx="247.3451" cy="230.5205" r="3.1106" />
<text class="tLabel" x="247.35" y="210.52"></text>
<text class="nLabel" x="247.35" y="225.52">1</text>
<text class="belong" x="247.35" y="235.52">(1, 2)</text>
<circle onclick="fromCircle(7)" class="circle" cx="273.3367" cy="260.0167" r="3.1106" />
<text class="tLabel" x="273.34" y="240.02"></text>
<text class="nLabel" x="273.34" y="255.02">1</text>
<text class="belong" x="273.34" y="265.02">(1, 2, 3)</text>
<circle onclick="fromCircle(15)" class="circle" cx="287.7525" cy="296.5946" r="4.3990" />
<text class="tLabel" x="287.75" y="276.59"></text>
<text class="nLabel" x="287.75" y="291.59">2</text>
<text class="belong" x="287.75" y="301.59">(1, 2, 3, 4)</text>
<circle onclick="fromCircle(2)" class="circle" cx="110.7481" cy="128.0376" r="3.1106" />
<text class="tLabel" x="110.75" y="108.04"></text>
<text class="nLabel" x="110.75" y="123.04">1</text>
<text class="belong" x="110.75" y="133.04">(2)</text>
<circle onclick="fromCircle(6)" class="circle" cx="312.2246" cy="265.8108" r="5.3877" />
<text class="tLabel" x="312.22" y="245.81"></text>
<text class="nLabel" x="312.22" y="260.81">3</text>
<text class="belong" x="312.22" y="270.81">(2, 3)</text>
<circle onclick="fromCircle(14)" class="circle" cx="286.7628" cy="335.9132" r="8.2298" />
<text class="tLabel" x="286.76" y="315.91"></text>
<text class="nLabel" x="286.76" y="330.91">7</text>
<text class="belong" x="286.76" y="340.91">(2, 3, 4)</text>
<circle onclick="fromCircle(10)" class="circle" cx="389.2519" cy="411.3083" r="8.7980" />
<text class="tLabel" x="389.25" y="391.31"></text>
<text class="nLabel" x="389.25" y="406.31">8</text>
<text class="belong" x="389.25" y="416.31">(2, 4)</text>
<circle onclick="fromCircle(18)" class="circle" cx="233.3295" cy="167.3835" r="6.9554" />
<text class="tLabel" x="233.33" y="147.38"></text>
<text class="nLabel" x="233.33" y="162.38">5</text>
<text class="belong" x="233.33" y="172.38">(2, 5)</text>
<circle onclick="fromCircle(4)" class="circle" cx="467.9436" cy="49.3459" r="5.3877" />
<text class="tLabel" x="467.94" y="29.35"></text>
<text class="nLabel" x="467.94" y="44.35">3</text>
<text class="belong" x="467.94" y="54.35">(3)</text>
<circle onclick="fromCircle(5)" class="circle" cx="328.6994" cy="230.1062" r="5.3877" />
<text class="tLabel" x="328.70" y="210.11"></text>
<text class="nLabel" x="328.70" y="225.11">3</text>
<text class="belong" x="328.70" y="235.11">(1, 3)</text>
<circle onclick="fromCircle(13)" class="circle" cx="253.2074" cy="315.3763" r="6.9554" />
<text class="tLabel" x="253.21" y="295.38"></text>
<text class="nLabel" x="253.21" y="310.38">5</text>
<text class="belong" x="253.21" y="320.38">(1, 3, 4)</text>
<circle onclick="fromCircle(12)" class="circle" cx="224.0694" cy="341.7827" r="6.2211" />
<text class="tLabel" x="224.07" y="321.78"></text>
<text class="nLabel" x="224.07" y="336.78">4</text>
<text class="belong" x="224.07" y="346.78">(3, 4)</text>
<circle onclick="fromCircle(20)" class="circle" cx="304.2362" cy="187.7327" r="6.9554" />
<text class="tLabel" x="304.24" y="167.73"></text>
<text class="nLabel" x="304.24" y="182.73">5</text>
<text class="belong" x="304.24" y="192.73">(3, 5)</text>
<circle onclick="fromCircle(21)" class="circle" cx="289.7905" cy="224.3113" r="6.9554" />
<text class="tLabel" x="289.79" y="204.31"></text>
<text class="nLabel" x="289.79" y="219.31">5</text>
<text class="belong" x="289.79" y="229.31">(1, 3, 5)</text>
<circle onclick="fromCircle(8)" class="circle" cx="467.9436" cy="490.0000" r="3.1106" />
<text class="tLabel" x="467.94" y="470.00"></text>
<text class="nLabel" x="467.94" y="485.00">1</text>
<text class="belong" x="467.94" y="495.00">(4)</text>
<circle onclick="fromCircle(9)" class="circle" cx="212.7757" cy="249.2918" r="8.2298" />
<text class="tLabel" x="212.78" y="229.29"></text>
<text class="nLabel" x="212.78" y="244.29">7</text>
<text class="belong" x="212.78" y="254.29">(1, 4)</text>
<circle onclick="fromCircle(11)" class="circle" cx="238.8008" cy="278.7827" r="5.3877" />
<text class="tLabel" x="238.80" y="258.78"></text>
<text class="nLabel" x="238.80" y="273.78">3</text>
<text class="belong" x="238.80" y="283.78">(1, 2, 4)</text>
<circle onclick="fromCircle(40)" class="circle" cx="187.5208" cy="327.2373" r="3.1106" />
<text class="tLabel" x="187.52" y="307.24"></text>
<text class="nLabel" x="187.52" y="322.24">1</text>
<text class="belong" x="187.52" y="332.24">(4, 6)</text>
<circle onclick="fromCircle(16)" class="circle" cx="32.0564" cy="10.0000" r="3.1106" />
<text class="tLabel" x="32.06" y="-10.00"></text>
<text class="nLabel" x="32.06" y="5.00">1</text>
<text class="belong" x="32.06" y="15.00">(5)</text>
<circle onclick="fromCircle(17)" class="circle" cx="183.9156" cy="222.5580" r="6.9554" />
<text class="tLabel" x="183.92" y="202.56"></text>
<text class="nLabel" x="183.92" y="217.56">5</text>
<text class="belong" x="183.92" y="227.56">(1, 5)</text>
<circle onclick="fromCircle(19)" class="circle" cx="218.4876" cy="203.8071" r="6.9554" />
<text class="tLabel" x="218.49" y="183.81"></text>
<text class="nLabel" x="218.49" y="198.81">5</text>
<text class="belong" x="218.49" y="208.81">(1, 2, 5)</text>
<circle onclick="fromCircle(32)" class="circle" cx="150.0940" cy="371.9624" r="4.3990" />
<text class="tLabel" x="150.09" y="351.96"></text>
<text class="nLabel" x="150.09" y="366.96">2</text>
<text class="belong" x="150.09" y="376.96">(6)</text>
<rect class="p0 borderLine" x="500.00" y="50.00" width="30.00" height="15.00" />
<rect class="q0" x="500.00" y="50.00" width="30.00" height="15.00" />
<text class="legend" x="540.00" y="65.00">Ball2017</text>
<rect class="p1 borderLine" x="500.00" y="90.00" width="30.00" height="15.00" />
<rect class="q1" x="500.00" y="90.00" width="30.00" height="15.00" />
<text class="legend" x="540.00" y="105.00">Courtois2015</text>
<rect class="p2 borderLine" x="500.00" y="130.00" width="30.00" height="15.00" />
<rect class="q2" x="500.00" y="130.00" width="30.00" height="15.00" />
<text class="legend" x="540.00" y="145.00">Hilton2017</text>
<rect class="p3 borderLine" x="500.00" y="170.00" width="30.00" height="15.00" />
<rect class="q3" x="500.00" y="170.00" width="30.00" height="15.00" />
<text class="legend" x="540.00" y="185.00">Ball2017</text>
<rect class="p4 borderLine" x="500.00" y="210.00" width="30.00" height="15.00" />
<rect class="q4" x="500.00" y="210.00" width="30.00" height="15.00" />
<text class="legend" x="540.00" y="225.00">Ball2017</text>
<rect class="p5 borderLine" x="500.00" y="250.00" width="30.00" height="15.00" />
<rect class="q5" x="500.00" y="250.00" width="30.00" height="15.00" />
<text class="legend" x="540.00" y="265.00">Ball2017</text>
</svg>
