<svg xmlns="http://www.w3.org/2000/svg" xmlns:xlink="http://www.w3.org/1999/xlink" width="700" height="500">
<defs>
<style type="text/css"><![CDATA[
  .borderLine {
	   stroke: none;
	   fill-opacity: 0.4;
  }
  .outLine {
	   stroke-width: 1;
	   fill: none;
  }
  .circle {
	   stroke: #888888;
	   stroke-width: 0.5;
	   fill: none;
    pointer-events: all;
  }
  .spcircle {
	   stroke: #FF2222;
	   stroke-width: 1;
	   fill: none;
    pointer-events: all;
  }
  .tLabel {
	   font-family: Arial;
    pointer-events: none;
	   font-size: 14px;
	   text-anchor: middle;
	   alignment-baseline: central;
  }
  .nLabel {
	   font-family: Arial;
    pointer-events: none;
	   font-size: 10px;
	   text-anchor: middle;
	   alignment-baseline: central;
  }
  .belong {
	   font-family: Arial;
    pointer-events: none;
	   font-size: 5px;
	   text-anchor: middle;
	   alignment-baseline: central;
  }
  .p0{
    stroke: none;
    fill: #e6194b;
  }
  .q0{
    fill: none;
    stroke: #e6194b;
  }
  .p1{
    stroke: none;
    fill: #3cb44b;
  }
  .q1{
    fill: none;
    stroke: #3cb44b;
  }
  .p2{
    stroke: none;
    fill: #ffe119;
  }
  .q2{
    fill: none;
    stroke: #ffe119;
  }
  .p3{
    stroke: none;
    fill: #0082c8;
  }
  .q3{
    fill: none;
    stroke: #0082c8;
  }
  .p4{
    stroke: none;
    fill: #f58231;
  }
  .q4{
    fill: none;
    stroke: #f58231;
  }
  .p5{
    stroke: none;
    fill: #911eb4;
  }
  .q5{
    fill: none;
    stroke: #911eb4;
  }
]]>
</style>
<symbol id="bl0">
<path d="M 117.67 51.67 L 111.51 16.59 L 75.89 16.30 L 69.15 51.27 L 102.33 64.23 L 142.01 183.18 L 124.28 201.20 L 128.45 226.14 L 151.09 237.41 L 173.50 225.71 L 256.75 284.92 L 254.28 312.96 L 277.54 328.82 L 302.73 316.27 L 304.09 288.15 L 350.33 263.95 L 379.07 278.58 L 402.33 256.26 L 388.90 226.94 L 356.81 229.98 L 304.48 169.37 L 314.12 147.99 L 304.00 126.83 L 281.30 120.93 L 262.15 134.47 Z" />
</symbol>
<symbol id="bl1">
<path d="M 169.00 188.50 L 142.58 182.99 L 123.91 202.48 L 130.54 228.64 L 156.24 236.88 L 156.23 236.86 L 136.38 252.49 L 137.36 277.74 L 158.36 291.79 L 182.08 283.06 L 235.70 332.69 L 229.14 358.43 L 247.16 377.94 L 273.34 373.45 L 283.84 349.05 L 283.82 349.05 L 303.57 373.19 L 333.32 363.83 L 335.71 332.73 L 307.73 318.95 L 295.65 231.21 L 317.77 213.79 L 313.36 185.98 L 286.95 176.25 L 265.55 194.55 L 213.46 176.54 L 207.51 148.46 L 179.92 140.57 L 160.02 161.26 L 168.98 188.52 Z" />
</symbol>
<symbol id="bl2">
<path d="M 263.50 164.26 L 238.16 153.15 L 215.76 169.40 L 218.45 196.94 L 243.57 208.55 L 253.69 323.87 L 228.36 349.59 L 249.74 378.68 L 281.85 362.19 L 270.67 327.87 L 332.91 226.42 L 354.38 229.66 L 371.64 216.47 L 374.17 194.90 L 360.43 178.08 L 421.34 62.45 L 457.32 53.48 L 452.43 16.71 L 415.35 17.46 L 411.94 54.39 Z" />
</symbol>
<symbol id="bl3">
<path d="M 204.18 308.03 L 176.32 327.16 L 187.46 359.07 L 221.18 356.69 L 227.73 323.53 L 350.02 263.34 L 373.34 278.83 L 398.33 266.21 L 399.70 238.24 L 376.07 223.24 L 377.57 184.44 L 405.02 165.51 L 394.62 133.83 L 361.29 134.87 L 352.88 167.14 L 234.13 215.56 L 211.56 198.42 L 185.67 209.96 L 183.32 238.20 L 206.94 253.86 Z" />
</symbol>
<symbol id="bl4">
<path d="M 168.75 237.24 L 136.18 252.95 L 146.61 287.57 L 182.44 282.66 L 183.17 246.51 L 313.71 139.47 L 346.12 147.43 L 362.86 118.55 L 339.85 94.37 L 310.18 109.68 L 301.83 105.63 L 299.89 77.97 L 275.01 65.72 L 251.90 81.05 L 253.50 108.73 L 252.36 109.48 L 233.29 97.21 L 211.42 103.21 L 201.27 123.49 L 209.58 144.59 L 206.65 147.58 L 183.30 139.88 L 162.96 153.69 L 161.50 178.23 L 180.06 194.36 Z" />
</symbol>
<symbol id="bl5">
<path d="M 222.42 355.52 L 222.47 316.17 L 183.11 316.12 L 183.06 355.48 L 222.42 355.52 L 281.38 414.63 L 281.33 453.99 L 320.69 454.04 L 320.74 414.68 L 281.38 414.63 Z" />
</symbol>
</defs>
<!-- isDone: 0 -->
<rect width="700" height="500" style="fill:#fff;stroke-width:0" />
<use class="p0 borderLine" xlink:href="#bl0"/>
<use class="p1 borderLine" xlink:href="#bl1"/>
<use class="p2 borderLine" xlink:href="#bl2"/>
<use class="p3 borderLine" xlink:href="#bl3"/>
<use class="p4 borderLine" xlink:href="#bl4"/>
<use class="p5 borderLine" xlink:href="#bl5"/>
<use class="q0 outLine" xlink:href="#bl0"/>
<use class="q1 outLine" xlink:href="#bl1"/>
<use class="q2 outLine" xlink:href="#bl2"/>
<use class="q3 outLine" xlink:href="#bl3"/>
<use class="q4 outLine" xlink:href="#bl4"/>
<use class="q5 outLine" xlink:href="#bl5"/>
<circle onclick="fromCircle(1)" class="circle" cx="93.5234" cy="37.8307" r="27.8307" />
<text class="tLabel" x="93.52" y="17.83"></text>
<text class="nLabel" x="93.52" y="32.83">40</text>
<text class="belong" x="93.52" y="42.83">(1)</text>
<circle onclick="fromCircle(3)" class="circle" cx="150.8215" cy="209.5767" r="4.4004" />
<text class="tLabel" x="150.82" y="189.58"></text>
<text class="nLabel" x="150.82" y="204.58">1</text>
<text class="belong" x="150.82" y="214.58">(1, 2)</text>
<circle onclick="fromCircle(7)" class="circle" cx="279.4293" cy="301.0519" r="4.4004" />
<text class="tLabel" x="279.43" y="281.05"></text>
<text class="nLabel" x="279.43" y="296.05">1</text>
<text class="belong" x="279.43" y="306.05">(1, 2, 3)</text>
<circle onclick="fromCircle(15)" class="circle" cx="291.8539" cy="203.6417" r="6.2231" />
<text class="tLabel" x="291.85" y="183.64"></text>
<text class="nLabel" x="291.85" y="198.64">2</text>
<text class="belong" x="291.85" y="208.64">(1, 2, 3, 4)</text>
<circle onclick="fromCircle(2)" class="circle" cx="311.5314" cy="346.5173" r="4.4004" />
<text class="tLabel" x="311.53" y="326.52"></text>
<text class="nLabel" x="311.53" y="341.52">1</text>
<text class="belong" x="311.53" y="351.52">(2)</text>
<circle onclick="fromCircle(6)" class="circle" cx="256.1215" cy="351.5899" r="7.6217" />
<text class="tLabel" x="256.12" y="331.59"></text>
<text class="nLabel" x="256.12" y="346.59">3</text>
<text class="belong" x="256.12" y="356.59">(2, 3)</text>
<circle onclick="fromCircle(14)" class="spcircle" cx="259.7072" cy="249.0194" r="11.6424" />
<text class="tLabel" x="259.71" y="229.02"></text>
<text class="nLabel" x="259.71" y="244.02">7</text>
<text class="belong" x="259.71" y="254.02">(2, 3, 4)</text>
<circle onclick="fromCircle(10)" class="circle" cx="214.5287" cy="281.4478" r="12.4462" />
<text class="tLabel" x="214.53" y="261.45"></text>
<text class="nLabel" x="214.53" y="276.45">8</text>
<text class="belong" x="214.53" y="286.45">(2, 4)</text>
<circle onclick="fromCircle(18)" class="circle" cx="161.6501" cy="264.1542" r="9.8396" />
<text class="tLabel" x="161.65" y="244.15"></text>
<text class="nLabel" x="161.65" y="259.15">5</text>
<text class="belong" x="161.65" y="269.15">(2, 5)</text>
<circle onclick="fromCircle(4)" class="circle" cx="434.3073" cy="37.8307" r="7.6217" />
<text class="tLabel" x="434.31" y="17.83"></text>
<text class="nLabel" x="434.31" y="32.83">3</text>
<text class="belong" x="434.31" y="42.83">(3)</text>
<circle onclick="fromCircle(5)" class="spcircle" cx="286.2933" cy="148.3059" r="7.6217" />
<text class="tLabel" x="286.29" y="128.31"></text>
<text class="nLabel" x="286.29" y="143.31">3</text>
<text class="belong" x="286.29" y="153.31">(1, 3)</text>
<circle onclick="fromCircle(13)" class="circle" cx="315.1221" cy="254.1676" r="9.8396" />
<text class="tLabel" x="315.12" y="234.17"></text>
<text class="nLabel" x="315.12" y="249.17">5</text>
<text class="belong" x="315.12" y="259.17">(1, 3, 4)</text>
<circle onclick="fromCircle(12)" class="circle" cx="347.4580" cy="202.7002" r="8.8008" />
<text class="tLabel" x="347.46" y="182.70"></text>
<text class="nLabel" x="347.46" y="197.70">4</text>
<text class="belong" x="347.46" y="207.70">(3, 4)</text>
<circle onclick="fromCircle(20)" class="circle" cx="335.2254" cy="121.8186" r="9.8396" />
<text class="tLabel" x="335.23" y="101.82"></text>
<text class="nLabel" x="335.23" y="116.82">5</text>
<text class="belong" x="335.23" y="126.82">(3, 5)</text>
<circle onclick="fromCircle(21)" class="circle" cx="241.1359" cy="180.8215" r="9.8396" />
<text class="tLabel" x="241.14" y="160.82"></text>
<text class="nLabel" x="241.14" y="175.82">5</text>
<text class="belong" x="241.14" y="185.82">(1, 3, 5)</text>
<circle onclick="fromCircle(8)" class="circle" cx="378.6459" cy="156.6278" r="4.4004" />
<text class="tLabel" x="378.65" y="136.63"></text>
<text class="nLabel" x="378.65" y="151.63">1</text>
<text class="belong" x="378.65" y="161.63">(4)</text>
<circle onclick="fromCircle(9)" class="circle" cx="374.9933" cy="251.0473" r="11.6424" />
<text class="tLabel" x="374.99" y="231.05"></text>
<text class="nLabel" x="374.99" y="246.05">7</text>
<text class="belong" x="374.99" y="256.05">(1, 4)</text>
<circle onclick="fromCircle(11)" class="circle" cx="208.3625" cy="226.0648" r="7.6217" />
<text class="tLabel" x="208.36" y="206.06"></text>
<text class="nLabel" x="208.36" y="221.06">3</text>
<text class="belong" x="208.36" y="231.06">(1, 2, 4)</text>
<circle onclick="fromCircle(40)" class="circle" cx="202.7651" cy="335.8209" r="4.4004" />
<text class="tLabel" x="202.77" y="315.82"></text>
<text class="nLabel" x="202.77" y="330.82">1</text>
<text class="belong" x="202.77" y="340.82">(4, 6)</text>
<circle onclick="fromCircle(16)" class="circle" cx="276.7906" cy="93.4920" r="4.4004" />
<text class="tLabel" x="276.79" y="73.49"></text>
<text class="nLabel" x="276.79" y="88.49">1</text>
<text class="belong" x="276.79" y="98.49">(5)</text>
<circle onclick="fromCircle(17)" class="circle" cx="229.0724" cy="124.7195" r="9.8396" />
<text class="tLabel" x="229.07" y="104.72"></text>
<text class="nLabel" x="229.07" y="119.72">5</text>
<text class="belong" x="229.07" y="129.72">(1, 5)</text>
<circle onclick="fromCircle(19)" class="circle" cx="187.1584" cy="167.4454" r="9.8396" />
<text class="tLabel" x="187.16" y="147.45"></text>
<text class="nLabel" x="187.16" y="162.45">5</text>
<text class="belong" x="187.16" y="172.45">(1, 2, 5)</text>
<circle onclick="fromCircle(32)" class="circle" cx="301.0357" cy="434.3387" r="6.2231" />
<text class="tLabel" x="301.04" y="414.34"></text>
<text class="nLabel" x="301.04" y="429.34">2</text>
<text class="belong" x="301.04" y="439.34">(6)</text>
<rect class="p0 borderLine" x="500.00" y="50.00" width="30.00" height="15.00" />
<rect class="q0" x="500.00" y="50.00" width="30.00" height="15.00" />
<text class="legend" x="540.00" y="65.00">Ball2017</text>
<rect class="p1 borderLine" x="500.00" y="90.00" width="30.00" height="15.00" />
<rect class="q1" x="500.00" y="90.00" width="30.00" height="15.00" />
<text class="legend" x="540.00" y="105.00">Courtois2015</text>
<rect class="p2 borderLine" x="500.00" y="130.00" width="30.00" height="15.00" />
<rect class="q2" x="500.00" y="130.00" width="30.00" height="15.00" />
<text class="legend" x="540.00" y="145.00">Hilton2017</text>
<rect class="p3 borderLine" x="500.00" y="170.00" width="30.00" height="15.00" />
<rect class="q3" x="500.00" y="170.00" width="30.00" height="15.00" />
<text class="legend" x="540.00" y="185.00">Ball2017</text>
<rect class="p4 borderLine" x="500.00" y="210.00" width="30.00" height="15.00" />
<rect class="q4" x="500.00" y="210.00" width="30.00" height="15.00" />
<text class="legend" x="540.00" y="225.00">Ball2017</text>
<rect class="p5 borderLine" x="500.00" y="250.00" width="30.00" height="15.00" />
<rect class="q5" x="500.00" y="250.00" width="30.00" height="15.00" />
<text class="legend" x="540.00" y="265.00">Ball2017</text>
</svg>
