<svg xmlns="http://www.w3.org/2000/svg" xmlns:xlink="http://www.w3.org/1999/xlink" width="700" height="500">
<defs>
<style type="text/css"><![CDATA[
  .borderLine {
	   stroke: none;
	   fill-opacity: 0.4;
  }
  .outLine {
	   stroke-width: 1;
	   fill: none;
  }
  .circle {
	   stroke: #888888;
	   stroke-width: 0.5;
	   fill: none;
    pointer-events: all;
  }
  .spcircle {
	   stroke: #FF2222;
	   stroke-width: 1;
	   fill: none;
    pointer-events: all;
  }
  .tLabel {
	   font-family: Arial;
    pointer-events: none;
	   font-size: 14px;
	   text-anchor: middle;
	   alignment-baseline: central;
  }
  .nLabel {
	   font-family: Arial;
    pointer-events: none;
	   font-size: 10px;
	   text-anchor: middle;
	   alignment-baseline: central;
  }
  .belong {
	   font-family: Arial;
    pointer-events: none;
	   font-size: 5px;
	   text-anchor: middle;
	   alignment-baseline: central;
  }
  .p0{
    stroke: none;
    fill: #e6194b;
  }
  .q0{
    fill: none;
    stroke: #e6194b;
  }
  .p1{
    stroke: none;
    fill: #3cb44b;
  }
  .q1{
    fill: none;
    stroke: #3cb44b;
  }
  .p2{
    stroke: none;
    fill: #ffe119;
  }
  .q2{
    fill: none;
    stroke: #ffe119;
  }
  .p3{
    stroke: none;
    fill: #0082c8;
  }
  .q3{
    fill: none;
    stroke: #0082c8;
  }
  .p4{
    stroke: none;
    fill: #f58231;
  }
  .q4{
    fill: none;
    stroke: #f58231;
  }
  .p5{
    stroke: none;
    fill: #911eb4;
  }
  .q5{
    fill: none;
    stroke: #911eb4;
  }
]]>
</style>
</defs>
<!-- isDone: 0 -->
<rect width="700" height="500" style="fill:#fff;stroke-width:0" />
<circle onclick="fromCircle(1)" class="circle" cx="79.3192" cy="129.1715" r="19.9771" />
<text class="tLabel" x="79.32" y="109.17"></text>
<text class="nLabel" x="79.32" y="124.17">40</text>
<text class="belong" x="79.32" y="134.17">(1)</text>
<circle onclick="fromCircle(3)" class="circle" cx="163.2309" cy="292.4568" r="3.6728" />
<text class="tLabel" x="163.23" y="272.46"></text>
<text class="nLabel" x="163.23" y="287.46">1</text>
<text class="belong" x="163.23" y="297.46">(1, 2)</text>
<circle onclick="fromCircle(7)" class="circle" cx="284.8089" cy="209.8683" r="3.6728" />
<text class="tLabel" x="284.81" y="189.87"></text>
<text class="nLabel" x="284.81" y="204.87">1</text>
<text class="belong" x="284.81" y="214.87">(1, 2, 3)</text>
<circle onclick="fromCircle(15)" class="spcircle" cx="252.1700" cy="137.0083" r="4.4670" />
<text class="tLabel" x="252.17" y="117.01"></text>
<text class="nLabel" x="252.17" y="132.01">2</text>
<text class="belong" x="252.17" y="142.01">(1, 2, 3, 4)</text>
<circle onclick="fromCircle(2)" class="circle" cx="187.9936" cy="401.6622" r="3.6728" />
<text class="tLabel" x="187.99" y="381.66"></text>
<text class="nLabel" x="187.99" y="396.66">1</text>
<text class="belong" x="187.99" y="406.66">(2)</text>
<circle onclick="fromCircle(6)" class="circle" cx="83.5339" cy="287.2614" r="5.4710" />
<text class="tLabel" x="83.53" y="267.26"></text>
<text class="nLabel" x="83.53" y="282.26">3</text>
<text class="belong" x="83.53" y="292.26">(2, 3)</text>
<circle onclick="fromCircle(14)" class="circle" cx="205.4365" cy="201.8337" r="8.3570" />
<text class="tLabel" x="205.44" y="181.83"></text>
<text class="nLabel" x="205.44" y="196.83">7</text>
<text class="belong" x="205.44" y="206.83">(2, 3, 4)</text>
<circle onclick="fromCircle(10)" class="circle" cx="377.9224" cy="80.4021" r="8.9340" />
<text class="tLabel" x="377.92" y="60.40"></text>
<text class="nLabel" x="377.92" y="75.40">8</text>
<text class="belong" x="377.92" y="85.40">(2, 4)</text>
<circle onclick="fromCircle(4)" class="circle" cx="127.9043" cy="220.8180" r="5.4710" />
<text class="tLabel" x="127.90" y="200.82"></text>
<text class="nLabel" x="127.90" y="215.82">3</text>
<text class="belong" x="127.90" y="225.82">(3)</text>
<circle onclick="fromCircle(5)" class="circle" cx="158.8124" cy="136.9978" r="5.4710" />
<text class="tLabel" x="158.81" y="117.00"></text>
<text class="nLabel" x="158.81" y="132.00">3</text>
<text class="belong" x="158.81" y="142.00">(1, 3)</text>
<circle onclick="fromCircle(13)" class="circle" cx="241.4769" cy="276.8484" r="7.0630" />
<text class="tLabel" x="241.48" y="256.85"></text>
<text class="nLabel" x="241.48" y="271.85">5</text>
<text class="belong" x="241.48" y="281.85">(1, 3, 4)</text>
<circle onclick="fromCircle(12)" class="circle" cx="321.2419" cy="280.7800" r="6.3173" />
<text class="tLabel" x="321.24" y="260.78"></text>
<text class="nLabel" x="321.24" y="275.78">4</text>
<text class="belong" x="321.24" y="285.78">(3, 4)</text>
<circle onclick="fromCircle(20)" class="circle" cx="377.2599" cy="223.8475" r="7.0630" />
<text class="tLabel" x="377.26" y="203.85"></text>
<text class="nLabel" x="377.26" y="218.85">5</text>
<text class="belong" x="377.26" y="228.85">(3, 5)</text>
<circle onclick="fromCircle(21)" class="circle" cx="398.4221" cy="301.1795" r="7.0630" />
<text class="tLabel" x="398.42" y="281.18"></text>
<text class="nLabel" x="398.42" y="296.18">5</text>
<text class="belong" x="398.42" y="306.18">(1, 3, 5)</text>
<circle onclick="fromCircle(8)" class="circle" cx="289.4632" cy="66.3619" r="3.6728" />
<text class="tLabel" x="289.46" y="46.36"></text>
<text class="nLabel" x="289.46" y="61.36">1</text>
<text class="belong" x="289.46" y="71.36">(4)</text>
<circle onclick="fromCircle(9)" class="circle" cx="205.5131" cy="72.1792" r="8.3570" />
<text class="tLabel" x="205.51" y="52.18"></text>
<text class="nLabel" x="205.51" y="67.18">7</text>
<text class="belong" x="205.51" y="77.18">(1, 4)</text>
<circle onclick="fromCircle(11)" class="circle" cx="412.7918" cy="152.2966" r="5.4710" />
<text class="tLabel" x="412.79" y="132.30"></text>
<text class="nLabel" x="412.79" y="147.30">3</text>
<text class="belong" x="412.79" y="157.30">(1, 2, 4)</text>
<circle onclick="fromCircle(40)" class="circle" cx="49.9542" cy="203.4798" r="3.6728" />
<text class="tLabel" x="49.95" y="183.48"></text>
<text class="nLabel" x="49.95" y="198.48">1</text>
<text class="belong" x="49.95" y="208.48">(4, 6)</text>
<circle onclick="fromCircle(16)" class="circle" cx="443.2583" cy="367.2722" r="3.6728" />
<text class="tLabel" x="443.26" y="347.27"></text>
<text class="nLabel" x="443.26" y="362.27">1</text>
<text class="belong" x="443.26" y="372.27">(5)</text>
<circle onclick="fromCircle(17)" class="circle" cx="253.3701" cy="355.7832" r="7.0630" />
<text class="tLabel" x="253.37" y="335.78"></text>
<text class="nLabel" x="253.37" y="350.78">5</text>
<text class="belong" x="253.37" y="360.78">(1, 5)</text>
<circle onclick="fromCircle(19)" class="circle" cx="454.4959" cy="244.3086" r="7.0630" />
<text class="tLabel" x="454.50" y="224.31"></text>
<text class="nLabel" x="454.50" y="239.31">5</text>
<text class="belong" x="454.50" y="249.31">(1, 2, 5)</text>
<circle onclick="fromCircle(32)" class="circle" cx="271.2031" cy="433.6381" r="4.4670" />
<text class="tLabel" x="271.20" y="413.64"></text>
<text class="nLabel" x="271.20" y="428.64">2</text>
<text class="belong" x="271.20" y="438.64">(6)</text>
<rect class="p0 borderLine" x="500.00" y="50.00" width="30.00" height="15.00" />
<rect class="q0" x="500.00" y="50.00" width="30.00" height="15.00" />
<text class="legend" x="540.00" y="65.00">Ball2017</text>
<rect class="p1 borderLine" x="500.00" y="90.00" width="30.00" height="15.00" />
<rect class="q1" x="500.00" y="90.00" width="30.00" height="15.00" />
<text class="legend" x="540.00" y="105.00">Courtois2015</text>
<rect class="p2 borderLine" x="500.00" y="130.00" width="30.00" height="15.00" />
<rect class="q2" x="500.00" y="130.00" width="30.00" height="15.00" />
<text class="legend" x="540.00" y="145.00">Hilton2017</text>
<rect class="p3 borderLine" x="500.00" y="170.00" width="30.00" height="15.00" />
<rect class="q3" x="500.00" y="170.00" width="30.00" height="15.00" />
<text class="legend" x="540.00" y="185.00">Ball2017</text>
<rect class="p4 borderLine" x="500.00" y="210.00" width="30.00" height="15.00" />
<rect class="q4" x="500.00" y="210.00" width="30.00" height="15.00" />
<text class="legend" x="540.00" y="225.00">Courtois2015</text>
<rect class="p5 borderLine" x="500.00" y="250.00" width="30.00" height="15.00" />
<rect class="q5" x="500.00" y="250.00" width="30.00" height="15.00" />
<text class="legend" x="540.00" y="265.00">Hilton2017</text>
</svg>
