<svg xmlns="http://www.w3.org/2000/svg" xmlns:xlink="http://www.w3.org/1999/xlink" width="700" height="500">
<defs>
<style type="text/css"><![CDATA[
  .borderLine {
	   stroke: none;
	   fill-opacity: 0.4;
  }
  .outLine {
	   stroke-width: 1;
	   fill: none;
  }
  .circle {
	   stroke: #888888;
	   stroke-width: 0.5;
	   fill: none;
    pointer-events: all;
  }
  .spcircle {
	   stroke: #FF2222;
	   stroke-width: 1;
	   fill: none;
    pointer-events: all;
  }
  .tLabel {
	   font-family: Arial;
    pointer-events: none;
	   font-size: 14px;
	   text-anchor: middle;
	   alignment-baseline: central;
  }
  .nLabel {
	   font-family: Arial;
    pointer-events: none;
	   font-size: 10px;
	   text-anchor: middle;
	   alignment-baseline: central;
  }
  .belong {
	   font-family: Arial;
    pointer-events: none;
	   font-size: 5px;
	   text-anchor: middle;
	   alignment-baseline: central;
  }
  .p0{
    stroke: none;
    fill: #e6194b;
  }
  .q0{
    fill: none;
    stroke: #e6194b;
  }
  .p1{
    stroke: none;
    fill: #3cb44b;
  }
  .q1{
    fill: none;
    stroke: #3cb44b;
  }
  .p2{
    stroke: none;
    fill: #ffe119;
  }
  .q2{
    fill: none;
    stroke: #ffe119;
  }
  .p3{
    stroke: none;
    fill: #0082c8;
  }
  .q3{
    fill: none;
    stroke: #0082c8;
  }
  .p4{
    stroke: none;
    fill: #f58231;
  }
  .q4{
    fill: none;
    stroke: #f58231;
  }
  .p5{
    stroke: none;
    fill: #911eb4;
  }
  .q5{
    fill: none;
    stroke: #911eb4;
  }
  .p6{
    stroke: none;
    fill: #46f0f0;
  }
  .q6{
    fill: none;
    stroke: #46f0f0;
  }
  .p7{
    stroke: none;
    fill: #f032e6;
  }
  .q7{
    fill: none;
    stroke: #f032e6;
  }
]]>
</style>
<symbol id="bl0">
<path d="M 48.41 458.17 L 25.02 461.78 L 26.85 485.38 L 50.52 485.33 L 52.26 461.72 L 311.40 254.69 L 316.82 256.97 L 321.68 253.67 L 321.56 247.79 L 316.56 244.70 L 317.82 222.28 L 322.74 220.26 L 324.25 215.17 L 321.23 210.80 L 315.93 210.40 L 307.98 190.02 L 312.17 184.86 L 309.90 178.61 L 303.36 177.35 L 298.93 182.31 L 247.76 171.23 L 246.17 166.58 L 241.32 165.80 L 238.36 169.72 L 240.43 174.17 Z" />
</symbol>
<symbol id="bl1">
<path d="M 180.02 181.85 L 177.11 181.03 L 175.20 183.38 L 176.60 186.06 L 179.62 185.83 L 214.40 230.93 L 212.55 234.90 L 214.73 238.71 L 219.09 239.13 L 221.95 235.81 L 249.40 242.38 L 249.86 244.65 L 251.90 245.76 L 254.06 244.93 L 254.82 242.73 L 361.13 231.83 L 366.51 237.31 L 373.05 233.27 L 370.54 226.00 L 362.90 226.85 L 267.46 131.28 L 268.62 126.42 L 264.80 123.20 L 260.20 125.15 L 259.88 130.14 L 210.70 156.17 L 208.92 154.79 L 206.71 155.19 L 205.53 157.11 L 206.18 159.26 Z" />
</symbol>
<symbol id="bl2">
<path d="M 234.09 129.39 L 230.72 125.21 L 225.60 126.81 L 225.22 132.17 L 230.06 134.48 L 240.68 203.74 L 236.21 206.88 L 235.99 212.33 L 240.18 215.81 L 245.50 214.59 L 278.82 255.37 L 277.11 262.69 L 283.74 266.21 L 288.84 260.70 L 284.81 254.36 L 331.27 126.57 L 337.58 124.66 L 337.52 118.06 L 331.18 116.25 L 327.66 121.84 Z" />
</symbol>
<symbol id="bl3">
<path d="M 145.70 326.51 L 136.68 329.91 L 138.95 339.29 L 148.53 338.19 L 148.62 328.54 L 357.01 147.61 L 360.03 148.40 L 361.84 145.86 L 360.13 143.26 L 357.09 143.92 L 337.16 125.17 L 338.32 119.50 L 333.77 115.92 L 328.54 118.38 L 328.39 124.16 L 218.42 188.17 L 213.17 184.45 L 206.90 185.95 L 203.92 191.67 L 206.26 197.67 L 189.17 215.22 L 186.94 214.46 L 184.93 215.71 L 184.64 218.06 L 186.28 219.76 Z" />
</symbol>
<symbol id="bl4">
<path d="M 283.51 254.04 L 277.69 256.58 L 277.22 262.92 L 282.60 266.30 L 288.10 263.11 L 476.34 366.81 L 477.17 370.39 L 480.83 369.94 L 480.76 366.26 L 477.09 365.94 L 303.33 135.65 L 305.16 128.04 L 298.05 124.78 L 293.48 131.13 L 298.82 136.84 Z" />
</symbol>
<symbol id="bl5">
<path d="M 310.28 178.96 L 301.63 178.23 L 299.43 186.62 L 307.31 190.24 L 312.23 183.09 L 371.55 177.39 L 373.21 179.65 L 375.99 179.30 L 377.01 176.69 L 375.22 174.53 L 407.80 83.30 L 412.61 81.34 L 411.19 76.34 L 406.07 77.21 L 406.37 82.40 Z" />
</symbol>
<symbol id="bl6">
<path d="M 310.28 178.96 L 303.36 177.35 L 298.84 182.84 L 301.75 189.33 L 308.85 189.60 L 348.09 258.72 L 346.81 261.89 L 349.59 263.87 L 352.16 261.61 L 350.55 258.59 L 441.73 49.86 L 448.75 47.48 L 447.03 40.27 L 439.69 41.31 L 440.04 48.72 Z" />
</symbol>
<symbol id="bl7">
<path d="M 43.53 16.07 L 44.73 5.13 L 33.79 3.93 L 32.59 14.87 L 43.53 16.07 L 176.21 181.50 L 175.79 185.37 L 179.66 185.80 L 180.08 181.93 L 176.21 181.50 Z" />
</symbol>
</defs>
<!-- isDone: 0 -->
<rect width="700" height="500" style="fill:#fff;stroke-width:0" />
<use class="p0 borderLine" xlink:href="#bl0"/>
<use class="p1 borderLine" xlink:href="#bl1"/>
<use class="p2 borderLine" xlink:href="#bl2"/>
<use class="p3 borderLine" xlink:href="#bl3"/>
<use class="p4 borderLine" xlink:href="#bl4"/>
<use class="p5 borderLine" xlink:href="#bl5"/>
<use class="p6 borderLine" xlink:href="#bl6"/>
<use class="p7 borderLine" xlink:href="#bl7"/>
<use class="q0 outLine" xlink:href="#bl0"/>
<use class="q1 outLine" xlink:href="#bl1"/>
<use class="q2 outLine" xlink:href="#bl2"/>
<use class="q3 outLine" xlink:href="#bl3"/>
<use class="q4 outLine" xlink:href="#bl4"/>
<use class="q5 outLine" xlink:href="#bl5"/>
<use class="q6 outLine" xlink:href="#bl6"/>
<use class="q7 outLine" xlink:href="#bl7"/>
<circle onclick="fromCircle(1)" class="circle" cx="38.6605" cy="472.5908" r="17.4092" />
<text class="tLabel" x="38.66" y="452.59"></text>
<text class="nLabel" x="38.66" y="467.59">40</text>
<text class="belong" x="38.66" y="477.59">(1)</text>
<circle onclick="fromCircle(3)" class="circle" cx="252.0801" cy="243.0157" r="2.7526" />
<text class="tLabel" x="252.08" y="223.02"></text>
<text class="nLabel" x="252.08" y="238.02">1</text>
<text class="belong" x="252.08" y="248.02">(1, 2)</text>
<circle onclick="fromCircle(7)" class="circle" cx="284.6369" cy="225.4285" r="2.7526" />
<text class="tLabel" x="284.64" y="205.43"></text>
<text class="nLabel" x="284.64" y="220.43">1</text>
<text class="belong" x="284.64" y="230.43">(1, 2, 3)</text>
<circle onclick="fromCircle(15)" class="circle" cx="272.0162" cy="193.0345" r="3.8928" />
<text class="tLabel" x="272.02" y="173.03"></text>
<text class="nLabel" x="272.02" y="188.03">2</text>
<text class="belong" x="272.02" y="198.03">(1, 2, 3, 4)</text>
<circle onclick="fromCircle(127)" class="circle" cx="305.5232" cy="183.7377" r="6.7426" />
<text class="tLabel" x="305.52" y="163.74"></text>
<text class="nLabel" x="305.52" y="178.74">6</text>
<text class="belong" x="305.52" y="188.74">(1, 2, 3, 4, 5, 6, 7)</text>
<circle onclick="fromCircle(2)" class="circle" cx="208.2625" cy="157.4621" r="2.7526" />
<text class="tLabel" x="208.26" y="137.46"></text>
<text class="nLabel" x="208.26" y="152.46">1</text>
<text class="belong" x="208.26" y="162.46">(2)</text>
<circle onclick="fromCircle(6)" class="circle" cx="264.0890" cy="127.9095" r="4.7677" />
<text class="tLabel" x="264.09" y="107.91"></text>
<text class="nLabel" x="264.09" y="122.91">3</text>
<text class="belong" x="264.09" y="132.91">(2, 3)</text>
<circle onclick="fromCircle(14)" class="circle" cx="279.4954" cy="159.1027" r="7.2828" />
<text class="tLabel" x="279.50" y="139.10"></text>
<text class="nLabel" x="279.50" y="154.10">7</text>
<text class="belong" x="279.50" y="164.10">(2, 3, 4)</text>
<circle onclick="fromCircle(10)" class="circle" cx="211.6948" cy="192.0903" r="7.7856" />
<text class="tLabel" x="211.69" y="172.09"></text>
<text class="nLabel" x="211.69" y="187.09">8</text>
<text class="belong" x="211.69" y="197.09">(2, 4)</text>
<circle onclick="fromCircle(18)" class="circle" cx="367.2505" cy="231.2027" r="6.1551" />
<text class="tLabel" x="367.25" y="211.20"></text>
<text class="nLabel" x="367.25" y="226.20">5</text>
<text class="belong" x="367.25" y="236.20">(2, 5)</text>
<circle onclick="fromCircle(130)" class="circle" cx="177.9341" cy="183.6519" r="2.7526" />
<text class="tLabel" x="177.93" y="163.65"></text>
<text class="nLabel" x="177.93" y="178.65">1</text>
<text class="belong" x="177.93" y="188.65">(2, 8)</text>
<circle onclick="fromCircle(4)" class="circle" cx="229.3415" cy="129.7719" r="4.7677" />
<text class="tLabel" x="229.34" y="109.77"></text>
<text class="nLabel" x="229.34" y="124.77">3</text>
<text class="belong" x="229.34" y="134.77">(3)</text>
<circle onclick="fromCircle(5)" class="spcircle" cx="243.0964" cy="170.2240" r="4.7677" />
<text class="tLabel" x="243.10" y="150.22"></text>
<text class="nLabel" x="243.10" y="165.22">3</text>
<text class="belong" x="243.10" y="175.22">(1, 3)</text>
<circle onclick="fromCircle(13)" class="spcircle" cx="241.6089" cy="209.8270" r="6.1551" />
<text class="tLabel" x="241.61" y="189.83"></text>
<text class="nLabel" x="241.61" y="204.83">5</text>
<text class="belong" x="241.61" y="214.83">(1, 3, 4)</text>
<circle onclick="fromCircle(12)" class="circle" cx="333.1463" cy="121.3938" r="5.5053" />
<text class="tLabel" x="333.15" y="101.39"></text>
<text class="nLabel" x="333.15" y="116.39">4</text>
<text class="belong" x="333.15" y="126.39">(3, 4)</text>
<circle onclick="fromCircle(20)" class="circle" cx="299.6203" cy="130.7349" r="6.1551" />
<text class="tLabel" x="299.62" y="110.73"></text>
<text class="nLabel" x="299.62" y="125.73">5</text>
<text class="belong" x="299.62" y="135.73">(3, 5)</text>
<circle onclick="fromCircle(21)" class="circle" cx="282.7111" cy="260.1413" r="6.1551" />
<text class="tLabel" x="282.71" y="240.14"></text>
<text class="nLabel" x="282.71" y="255.14">5</text>
<text class="belong" x="282.71" y="265.14">(1, 3, 5)</text>
<circle onclick="fromCircle(8)" class="circle" cx="187.2533" cy="217.1904" r="2.7526" />
<text class="tLabel" x="187.25" y="197.19"></text>
<text class="nLabel" x="187.25" y="212.19">1</text>
<text class="belong" x="187.25" y="222.19">(4)</text>
<circle onclick="fromCircle(9)" class="circle" cx="143.1157" cy="333.3172" r="7.2828" />
<text class="tLabel" x="143.12" y="313.32"></text>
<text class="nLabel" x="143.12" y="328.32">7</text>
<text class="belong" x="143.12" y="338.32">(1, 4)</text>
<circle onclick="fromCircle(11)" class="circle" cx="217.3165" cy="234.7047" r="4.7677" />
<text class="tLabel" x="217.32" y="214.70"></text>
<text class="nLabel" x="217.32" y="229.70">3</text>
<text class="belong" x="217.32" y="239.70">(1, 2, 4)</text>
<circle onclick="fromCircle(40)" class="spcircle" cx="359.0900" cy="145.8076" r="2.7526" />
<text class="tLabel" x="359.09" y="125.81"></text>
<text class="nLabel" x="359.09" y="140.81">1</text>
<text class="belong" x="359.09" y="150.81">(4, 6)</text>
<circle onclick="fromCircle(16)" class="circle" cx="478.7487" cy="368.1356" r="2.7526" />
<text class="tLabel" x="478.75" y="348.14"></text>
<text class="nLabel" x="478.75" y="363.14">1</text>
<text class="belong" x="478.75" y="373.14">(5)</text>
<circle onclick="fromCircle(17)" class="circle" cx="316.2109" cy="250.8453" r="6.1551" />
<text class="tLabel" x="316.21" y="230.85"></text>
<text class="nLabel" x="316.21" y="245.85">5</text>
<text class="belong" x="316.21" y="255.85">(1, 5)</text>
<circle onclick="fromCircle(19)" class="circle" cx="318.1705" cy="216.1386" r="6.1551" />
<text class="tLabel" x="318.17" y="196.14"></text>
<text class="nLabel" x="318.17" y="211.14">5</text>
<text class="belong" x="318.17" y="221.14">(1, 2, 5)</text>
<circle onclick="fromCircle(80)" class="circle" cx="349.4486" cy="261.1165" r="2.7526" />
<text class="tLabel" x="349.45" y="241.12"></text>
<text class="nLabel" x="349.45" y="256.12">1</text>
<text class="belong" x="349.45" y="266.12">(5, 7)</text>
<circle onclick="fromCircle(32)" class="circle" cx="409.1119" cy="79.6368" r="3.8928" />
<text class="tLabel" x="409.11" y="59.64"></text>
<text class="nLabel" x="409.11" y="74.64">2</text>
<text class="belong" x="409.11" y="84.64">(6)</text>
<circle onclick="fromCircle(96)" class="circle" cx="374.2935" cy="177.1247" r="2.7526" />
<text class="tLabel" x="374.29" y="157.12"></text>
<text class="nLabel" x="374.29" y="172.12">1</text>
<text class="belong" x="374.29" y="182.12">(6, 7)</text>
<circle onclick="fromCircle(64)" class="circle" cx="443.9303" cy="44.8184" r="5.5053" />
<text class="tLabel" x="443.93" y="24.82"></text>
<text class="nLabel" x="443.93" y="39.82">4</text>
<text class="belong" x="443.93" y="49.82">(7)</text>
<circle onclick="fromCircle(128)" class="circle" cx="38.6605" cy="10.0000" r="7.7856" />
<text class="tLabel" x="38.66" y="-10.00"></text>
<text class="nLabel" x="38.66" y="5.00">8</text>
<text class="belong" x="38.66" y="15.00">(8)</text>
<rect class="p0 borderLine" x="500.00" y="50.00" width="30.00" height="15.00" />
<rect class="q0" x="500.00" y="50.00" width="30.00" height="15.00" />
<text class="legend" x="540.00" y="65.00">Ball2017</text>
<rect class="p1 borderLine" x="500.00" y="90.00" width="30.00" height="15.00" />
<rect class="q1" x="500.00" y="90.00" width="30.00" height="15.00" />
<text class="legend" x="540.00" y="105.00">Courtois2015</text>
<rect class="p2 borderLine" x="500.00" y="130.00" width="30.00" height="15.00" />
<rect class="q2" x="500.00" y="130.00" width="30.00" height="15.00" />
<text class="legend" x="540.00" y="145.00">Hilton2017</text>
<rect class="p3 borderLine" x="500.00" y="170.00" width="30.00" height="15.00" />
<rect class="q3" x="500.00" y="170.00" width="30.00" height="15.00" />
<text class="legend" x="540.00" y="185.00">Ball2017</text>
<rect class="p4 borderLine" x="500.00" y="210.00" width="30.00" height="15.00" />
<rect class="q4" x="500.00" y="210.00" width="30.00" height="15.00" />
<text class="legend" x="540.00" y="225.00">Ball2017</text>
<rect class="p5 borderLine" x="500.00" y="250.00" width="30.00" height="15.00" />
<rect class="q5" x="500.00" y="250.00" width="30.00" height="15.00" />
<text class="legend" x="540.00" y="265.00">Ball2017</text>
<rect class="p6 borderLine" x="500.00" y="290.00" width="30.00" height="15.00" />
<rect class="q6" x="500.00" y="290.00" width="30.00" height="15.00" />
<text class="legend" x="540.00" y="305.00">Courtois2015</text>
<rect class="p7 borderLine" x="500.00" y="330.00" width="30.00" height="15.00" />
<rect class="q7" x="500.00" y="330.00" width="30.00" height="15.00" />
<text class="legend" x="540.00" y="345.00">Hilton2017</text>
</svg>
