<svg xmlns="http://www.w3.org/2000/svg" xmlns:xlink="http://www.w3.org/1999/xlink" width="700" height="500">
<defs>
<style type="text/css"><![CDATA[
  .borderLine {
	   stroke: none;
	   fill-opacity: 0.4;
  }
  .outLine {
	   stroke-width: 1;
	   fill: none;
  }
  .circle {
	   stroke: #888888;
	   stroke-width: 0.5;
	   fill: none;
    pointer-events: all;
  }
  .spcircle {
	   stroke: #FF2222;
	   stroke-width: 1;
	   fill: none;
    pointer-events: all;
  }
  .tLabel {
	   font-family: Arial;
    pointer-events: none;
	   font-size: 14px;
	   text-anchor: middle;
	   alignment-baseline: central;
  }
  .nLabel {
	   font-family: Arial;
    pointer-events: none;
	   font-size: 10px;
	   text-anchor: middle;
	   alignment-baseline: central;
  }
  .belong {
	   font-family: Arial;
    pointer-events: none;
	   font-size: 5px;
	   text-anchor: middle;
	   alignment-baseline: central;
  }
  .p0{
    stroke: none;
    fill: #e6194b;
  }
  .q0{
    fill: none;
    stroke: #e6194b;
  }
  .p1{
    stroke: none;
    fill: #3cb44b;
  }
  .q1{
    fill: none;
    stroke: #3cb44b;
  }
  .p2{
    stroke: none;
    fill: #ffe119;
  }
  .q2{
    fill: none;
    stroke: #ffe119;
  }
  .p3{
    stroke: none;
    fill: #0082c8;
  }
  .q3{
    fill: none;
    stroke: #0082c8;
  }
  .p4{
    stroke: none;
    fill: #f58231;
  }
  .q4{
    fill: none;
    stroke: #f58231;
  }
  .p5{
    stroke: none;
    fill: #911eb4;
  }
  .q5{
    fill: none;
    stroke: #911eb4;
  }
  .p6{
    stroke: none;
    fill: #46f0f0;
  }
  .q6{
    fill: none;
    stroke: #46f0f0;
  }
  .p7{
    stroke: none;
    fill: #f032e6;
  }
  .q7{
    fill: none;
    stroke: #f032e6;
  }
]]>
</style>
<symbol id="bl0">
<path d="M 34.08 282.13 L 20.47 283.13 L 16.42 296.17 L 27.07 304.70 L 38.91 297.91 L 278.94 414.35 L 278.36 425.50 L 285.95 433.68 L 297.12 433.94 L 305.07 426.11 L 458.35 489.76 L 473.68 533.04 L 518.30 522.22 L 512.12 476.73 L 466.23 478.22 L 346.33 353.74 L 349.20 346.66 L 345.85 339.79 L 338.49 337.70 L 332.02 341.77 L 200.12 253.61 L 201.90 242.76 L 194.90 234.30 L 183.92 234.01 L 176.48 242.09 L 81.44 210.88 L 80.03 205.27 L 74.36 204.13 L 70.89 208.76 L 73.58 213.88 Z" />
</symbol>
<symbol id="bl1">
<path d="M 21.72 223.45 L 10.01 214.39 L -1.72 223.43 L 4.05 237.06 L 18.70 234.94 L 213.69 423.71 L 210.95 441.13 L 226.41 449.60 L 239.61 437.91 L 233.07 421.53 L 381.55 193.95 L 388.25 193.33 L 389.19 186.68 L 382.93 184.23 L 379.10 189.75 L 81.70 208.84 L 79.67 204.95 L 75.43 203.84 L 71.75 206.23 L 71.05 210.56 Z" />
</symbol>
<symbol id="bl2">
<path d="M 37.27 284.80 L 22.60 281.78 L 16.20 295.32 L 27.85 304.73 L 39.74 295.63 L 259.86 352.17 L 261.78 362.29 L 270.79 367.28 L 280.39 363.52 L 283.62 353.74 L 330.51 348.11 L 336.27 355.67 L 345.69 354.31 L 349.08 345.43 L 342.97 338.14 L 359.62 291.25 L 368.64 289.72 L 372.07 281.24 L 366.65 273.87 L 357.54 274.61 L 290.56 174.64 L 295.87 163.32 L 288.34 153.34 L 276.00 155.32 L 271.98 167.16 L 154.09 192.83 L 148.21 185.37 L 138.71 185.41 L 132.89 192.92 L 135.22 202.12 Z" />
</symbol>
<symbol id="bl3">
<path d="M 105.18 141.48 L 100.73 137.04 L 95.08 139.79 L 95.83 146.03 L 101.97 147.37 L 218.68 420.28 L 209.39 433.77 L 217.59 447.95 L 233.92 446.61 L 239.71 431.29 L 277.79 423.49 L 289.07 434.68 L 303.74 428.59 L 303.80 412.71 L 289.16 406.53 L 259.14 248.20 L 269.27 240.56 L 269.38 227.88 L 259.38 220.07 L 247.10 223.26 L 170.93 135.04 L 172.72 129.95 L 169.23 125.84 L 163.92 126.78 L 162.05 131.84 Z" />
</symbol>
<symbol id="bl4">
<path d="M -57.48 566.13 L -63.68 569.73 L -60.88 576.33 L -53.99 574.38 L -55.05 567.30 L 276.02 173.85 L 291.66 173.81 L 294.23 158.38 L 279.43 153.28 L 271.95 167.02 L 222.02 177.31 L 219.66 173.86 L 215.55 173.11 L 212.13 175.51 L 211.43 179.63 L 21.80 223.76 L 13.23 214.83 L 1.29 218.08 L -1.56 230.12 L 7.64 238.39 Z" />
</symbol>
<symbol id="bl5">
<path d="M 67.47 84.85 L 60.47 79.01 L 52.84 83.98 L 55.36 92.74 L 64.47 92.89 L 96.69 137.98 L 94.47 141.62 L 95.57 145.73 L 99.31 147.78 L 103.37 146.50 L 180.43 236.16 L 178.06 253.61 L 195.10 258.06 L 201.55 241.68 L 186.06 233.31 L 148.03 70.91 L 152.14 66.50 L 149.63 61.02 L 143.61 61.25 L 141.53 66.91 Z" />
</symbol>
<symbol id="bl6">
<path d="M 152.06 66.90 L 149.45 60.91 L 142.97 61.79 L 142.06 68.26 L 148.03 70.91 L 186.06 233.31 L 175.82 245.98 L 185.58 259.03 L 200.63 252.78 L 198.27 236.65 L 314.50 115.51 L 327.63 116.95 L 332.40 104.64 L 321.73 96.85 L 311.47 105.16 Z" />
</symbol>
<symbol id="bl7">
<path d="M 387.43 193.97 L 389.07 186.49 L 381.59 184.84 L 379.95 192.33 L 387.43 193.97 L 413.20 234.21 L 408.56 255.38 L 429.73 260.03 L 434.37 238.86 L 413.20 234.21 Z" />
</symbol>
</defs>
<!-- isDone: 0 -->
<rect width="700" height="500" style="fill:#fff;stroke-width:0" />
<use class="p0 borderLine" xlink:href="#bl0"/>
<use class="p1 borderLine" xlink:href="#bl1"/>
<use class="p2 borderLine" xlink:href="#bl2"/>
<use class="p3 borderLine" xlink:href="#bl3"/>
<use class="p4 borderLine" xlink:href="#bl4"/>
<use class="p5 borderLine" xlink:href="#bl5"/>
<use class="p6 borderLine" xlink:href="#bl6"/>
<use class="p7 borderLine" xlink:href="#bl7"/>
<use class="q0 outLine" xlink:href="#bl0"/>
<use class="q1 outLine" xlink:href="#bl1"/>
<use class="q2 outLine" xlink:href="#bl2"/>
<use class="q3 outLine" xlink:href="#bl3"/>
<use class="q4 outLine" xlink:href="#bl4"/>
<use class="q5 outLine" xlink:href="#bl5"/>
<use class="q6 outLine" xlink:href="#bl6"/>
<use class="q7 outLine" xlink:href="#bl7"/>
<circle onclick="fromCircle(3)" class="circle" cx="76.2906" cy="209.1903" r="5.4183" />
<text class="tLabel" x="76.29" y="189.19"></text>
<text class="nLabel" x="76.29" y="204.19">1</text>
<text class="belong" x="76.29" y="214.19">(1, 2)</text>
<circle onclick="fromCircle(7)" class="circle" cx="158.8524" cy="317.8979" r="5.4183" />
<text class="tLabel" x="158.85" y="297.90"></text>
<text class="nLabel" x="158.85" y="312.90">1</text>
<text class="belong" x="158.85" y="322.90">(1, 2, 3)</text>
<circle onclick="fromCircle(15)" class="circle" cx="226.4356" cy="303.6487" r="7.6627" />
<text class="tLabel" x="226.44" y="283.65"></text>
<text class="nLabel" x="226.44" y="298.65">2</text>
<text class="belong" x="226.44" y="308.65">(1, 2, 3, 4)</text>
<circle onclick="fromCircle(127)" class="circle" cx="189.0856" cy="246.2298" r="13.2722" />
<text class="tLabel" x="189.09" y="226.23"></text>
<text class="nLabel" x="189.09" y="241.23">6</text>
<text class="belong" x="189.09" y="251.23">(1, 2, 3, 4, 5, 6, 7)</text>
<circle onclick="fromCircle(2)" class="circle" cx="323.6339" cy="220.8023" r="5.4183" />
<text class="tLabel" x="323.63" y="200.80"></text>
<text class="nLabel" x="323.63" y="215.80">1</text>
<text class="belong" x="323.63" y="225.80">(2)</text>
<circle onclick="fromCircle(6)" class="circle" cx="294.8079" cy="290.7974" r="9.3848" />
<text class="tLabel" x="294.81" y="270.80"></text>
<text class="nLabel" x="294.81" y="285.80">3</text>
<text class="belong" x="294.81" y="295.80">(2, 3)</text>
<circle onclick="fromCircle(14)" class="circle" cx="256.4682" cy="234.1109" r="14.3356" />
<text class="tLabel" x="256.47" y="214.11"></text>
<text class="nLabel" x="256.47" y="229.11">7</text>
<text class="belong" x="256.47" y="239.11">(2, 3, 4)</text>
<circle onclick="fromCircle(10)" class="circle" cx="224.7012" cy="434.3691" r="15.3254" />
<text class="tLabel" x="224.70" y="414.37"></text>
<text class="nLabel" x="224.70" y="429.37">8</text>
<text class="belong" x="224.70" y="439.37">(2, 4)</text>
<circle onclick="fromCircle(130)" class="circle" cx="384.5101" cy="189.4076" r="5.4183" />
<text class="tLabel" x="384.51" y="169.41"></text>
<text class="nLabel" x="384.51" y="184.41">1</text>
<text class="belong" x="384.51" y="194.41">(2, 8)</text>
<circle onclick="fromCircle(4)" class="circle" cx="362.7587" cy="282.4091" r="9.3848" />
<text class="tLabel" x="362.76" y="262.41"></text>
<text class="nLabel" x="362.76" y="277.41">3</text>
<text class="belong" x="362.76" y="287.41">(3)</text>
<circle onclick="fromCircle(5)" class="circle" cx="339.8246" cy="346.9854" r="9.3848" />
<text class="tLabel" x="339.82" y="326.99"></text>
<text class="nLabel" x="339.82" y="341.99">3</text>
<text class="belong" x="339.82" y="351.99">(1, 3)</text>
<circle onclick="fromCircle(13)" class="spcircle" cx="271.5917" cy="355.1870" r="12.1158" />
<text class="tLabel" x="271.59" y="335.19"></text>
<text class="nLabel" x="271.59" y="350.19">5</text>
<text class="belong" x="271.59" y="360.19">(1, 3, 4)</text>
<circle onclick="fromCircle(12)" class="circle" cx="143.4999" cy="195.1336" r="10.8367" />
<text class="tLabel" x="143.50" y="175.13"></text>
<text class="nLabel" x="143.50" y="190.13">4</text>
<text class="belong" x="143.50" y="200.13">(3, 4)</text>
<circle onclick="fromCircle(20)" class="circle" cx="283.8160" cy="164.5780" r="12.1158" />
<text class="tLabel" x="283.82" y="144.58"></text>
<text class="nLabel" x="283.82" y="159.58">5</text>
<text class="belong" x="283.82" y="169.58">(3, 5)</text>
<circle onclick="fromCircle(21)" class="circle" cx="28.0083" cy="292.6181" r="12.1158" />
<text class="tLabel" x="28.01" y="272.62"></text>
<text class="nLabel" x="28.01" y="287.62">5</text>
<text class="belong" x="28.01" y="297.62">(1, 3, 5)</text>
<circle onclick="fromCircle(8)" class="spcircle" cx="167.3924" cy="130.9348" r="5.4183" />
<text class="tLabel" x="167.39" y="110.93"></text>
<text class="nLabel" x="167.39" y="125.93">1</text>
<text class="belong" x="167.39" y="135.93">(4)</text>
<circle onclick="fromCircle(9)" class="circle" cx="291.8347" cy="420.6101" r="14.3356" />
<text class="tLabel" x="291.83" y="400.61"></text>
<text class="nLabel" x="291.83" y="415.61">7</text>
<text class="belong" x="291.83" y="425.61">(1, 4)</text>
<circle onclick="fromCircle(11)" class="circle" cx="204.5058" cy="368.9172" r="9.3848" />
<text class="tLabel" x="204.51" y="348.92"></text>
<text class="nLabel" x="204.51" y="363.92">3</text>
<text class="belong" x="204.51" y="373.92">(1, 2, 4)</text>
<circle onclick="fromCircle(40)" class="circle" cx="99.8351" cy="142.3868" r="5.4183" />
<text class="tLabel" x="99.84" y="122.39"></text>
<text class="nLabel" x="99.84" y="137.39">1</text>
<text class="belong" x="99.84" y="147.39">(4, 6)</text>
<circle onclick="fromCircle(17)" class="circle" cx="90.4046" cy="320.9030" r="12.1158" />
<text class="tLabel" x="90.40" y="300.90"></text>
<text class="nLabel" x="90.40" y="315.90">5</text>
<text class="belong" x="90.40" y="325.90">(1, 5)</text>
<circle onclick="fromCircle(19)" class="spcircle" cx="122.0269" cy="260.1645" r="12.1158" />
<text class="tLabel" x="122.03" y="240.16"></text>
<text class="nLabel" x="122.03" y="255.16">5</text>
<text class="belong" x="122.03" y="265.16">(1, 2, 5)</text>
<circle onclick="fromCircle(80)" class="circle" cx="216.7082" cy="178.4045" r="5.4183" />
<text class="tLabel" x="216.71" y="158.40"></text>
<text class="nLabel" x="216.71" y="173.40">1</text>
<text class="belong" x="216.71" y="183.40">(5, 7)</text>
<circle onclick="fromCircle(32)" class="circle" cx="60.0191" cy="86.6559" r="7.6627" />
<text class="tLabel" x="60.02" y="66.66"></text>
<text class="nLabel" x="60.02" y="81.66">2</text>
<text class="belong" x="60.02" y="91.66">(6)</text>
<circle onclick="fromCircle(96)" class="circle" cx="146.7947" cy="65.6309" r="5.4183" />
<text class="tLabel" x="146.79" y="45.63"></text>
<text class="nLabel" x="146.79" y="60.63">1</text>
<text class="belong" x="146.79" y="70.63">(6, 7)</text>
<circle onclick="fromCircle(64)" class="circle" cx="322.0024" cy="107.6852" r="10.8367" />
<text class="tLabel" x="322.00" y="87.69"></text>
<text class="nLabel" x="322.00" y="102.69">4</text>
<text class="belong" x="322.00" y="112.69">(7)</text>
<circle onclick="fromCircle(128)" class="circle" cx="421.4628" cy="247.1195" r="15.3254" />
<text class="tLabel" x="421.46" y="227.12"></text>
<text class="nLabel" x="421.46" y="242.12">8</text>
<text class="belong" x="421.46" y="252.12">(8)</text>
<rect class="p0 borderLine" x="500.00" y="50.00" width="30.00" height="15.00" />
<rect class="q0" x="500.00" y="50.00" width="30.00" height="15.00" />
<text class="legend" x="540.00" y="65.00">Ball2017</text>
<rect class="p1 borderLine" x="500.00" y="90.00" width="30.00" height="15.00" />
<rect class="q1" x="500.00" y="90.00" width="30.00" height="15.00" />
<text class="legend" x="540.00" y="105.00">Courtois2015</text>
<rect class="p2 borderLine" x="500.00" y="130.00" width="30.00" height="15.00" />
<rect class="q2" x="500.00" y="130.00" width="30.00" height="15.00" />
<text class="legend" x="540.00" y="145.00">Hilton2017</text>
<rect class="p3 borderLine" x="500.00" y="170.00" width="30.00" height="15.00" />
<rect class="q3" x="500.00" y="170.00" width="30.00" height="15.00" />
<text class="legend" x="540.00" y="185.00">Ball2017</text>
<rect class="p4 borderLine" x="500.00" y="210.00" width="30.00" height="15.00" />
<rect class="q4" x="500.00" y="210.00" width="30.00" height="15.00" />
<text class="legend" x="540.00" y="225.00">Ball2017</text>
<rect class="p5 borderLine" x="500.00" y="250.00" width="30.00" height="15.00" />
<rect class="q5" x="500.00" y="250.00" width="30.00" height="15.00" />
<text class="legend" x="540.00" y="265.00">Ball2017</text>
<rect class="p6 borderLine" x="500.00" y="290.00" width="30.00" height="15.00" />
<rect class="q6" x="500.00" y="290.00" width="30.00" height="15.00" />
<text class="legend" x="540.00" y="305.00">Courtois2015</text>
<rect class="p7 borderLine" x="500.00" y="330.00" width="30.00" height="15.00" />
<rect class="q7" x="500.00" y="330.00" width="30.00" height="15.00" />
<text class="legend" x="540.00" y="345.00">Hilton2017</text>
</svg>
