<svg xmlns="http://www.w3.org/2000/svg" xmlns:xlink="http://www.w3.org/1999/xlink" width="700" height="500">
<defs>
<style type="text/css"><![CDATA[
  .borderLine {
	   stroke: none;
	   fill-opacity: 0.4;
  }
  .outLine {
	   stroke-width: 1;
	   fill: none;
  }
  .circle {
	   stroke: #888888;
	   stroke-width: 0.5;
	   fill: none;
    pointer-events: all;
  }
  .spcircle {
	   stroke: #FF2222;
	   stroke-width: 1;
	   fill: none;
    pointer-events: all;
  }
  .tLabel {
	   font-family: Arial;
    pointer-events: none;
	   font-size: 14px;
	   text-anchor: middle;
	   alignment-baseline: central;
  }
  .nLabel {
	   font-family: Arial;
    pointer-events: none;
	   font-size: 10px;
	   text-anchor: middle;
	   alignment-baseline: central;
  }
  .belong {
	   font-family: Arial;
    pointer-events: none;
	   font-size: 5px;
	   text-anchor: middle;
	   alignment-baseline: central;
  }
  .p0{
    stroke: none;
    fill: #e6194b;
  }
  .q0{
    fill: none;
    stroke: #e6194b;
  }
  .p1{
    stroke: none;
    fill: #3cb44b;
  }
  .q1{
    fill: none;
    stroke: #3cb44b;
  }
  .p2{
    stroke: none;
    fill: #ffe119;
  }
  .q2{
    fill: none;
    stroke: #ffe119;
  }
  .p3{
    stroke: none;
    fill: #0082c8;
  }
  .q3{
    fill: none;
    stroke: #0082c8;
  }
]]>
</style>
<symbol id="bl0">
<path d="M 223.26 248.57 L 146.61 259.94 L 154.84 337.00 L 232.17 331.93 L 230.26 254.46 L 419.41 63.72 L 497.70 64.21 L 499.84 -14.05 L 421.64 -17.83 L 416.21 60.27 L 308.97 151.61 L 267.38 131.95 L 225.11 150.10 L 210.74 193.80 L 233.97 233.50 Z" />
</symbol>
<symbol id="bl1">
<path d="M 244.44 392.28 L 182.65 350.64 L 134.28 407.30 L 185.09 461.79 L 244.99 417.48 L 404.03 450.61 L 435.52 512.90 L 503.25 496.02 L 501.81 426.23 L 433.45 412.15 L 428.21 401.83 L 458.79 350.71 L 425.96 301.00 L 366.93 309.06 L 348.63 365.76 Z" />
</symbol>
<symbol id="bl2">
<path d="M 66.27 421.97 L -8.02 418.56 L -20.07 491.95 L 51.42 512.47 L 80.13 443.86 L 137.29 424.24 L 182.07 461.43 L 235.65 438.72 L 240.07 380.68 L 190.54 350.12 L 190.54 350.14 L 245.72 305.17 L 212.09 242.42 L 144.09 263.48 L 151.80 334.25 Z" />
</symbol>
<symbol id="bl3">
<path d="M 217.28 123.38 L 225.62 44.88 L 147.16 36.17 L 138.09 114.59 L 216.47 124.02 L 231.93 143.80 L 210.79 181.50 L 222.82 223.01 L 260.84 243.57 L 302.16 230.90 L 367.07 308.94 L 359.73 387.61 L 438.38 395.18 L 446.19 316.56 L 367.59 308.52 Z" />
</symbol>
</defs>
<!-- isDone: 0 -->
<rect width="700" height="500" style="fill:#fff;stroke-width:0" />
<use class="p0 borderLine" xlink:href="#bl0"/>
<use class="p1 borderLine" xlink:href="#bl1"/>
<use class="p2 borderLine" xlink:href="#bl2"/>
<use class="p3 borderLine" xlink:href="#bl3"/>
<use class="q0 outLine" xlink:href="#bl0"/>
<use class="q1 outLine" xlink:href="#bl1"/>
<use class="q2 outLine" xlink:href="#bl2"/>
<use class="q3 outLine" xlink:href="#bl3"/>
<circle onclick="fromCircle(1)" class="circle" cx="458.8049" cy="23.9876" r="24.4365" />
<text class="tLabel" x="458.80" y="3.99"></text>
<text class="nLabel" x="458.80" y="18.99">1378</text>
<text class="belong" x="458.80" y="28.99">(1)</text>
<circle onclick="fromCircle(2)" class="circle" cx="458.8049" cy="462.0248" r="27.9752" />
<text class="tLabel" x="458.80" y="442.02"></text>
<text class="nLabel" x="458.80" y="457.02">1806</text>
<text class="belong" x="458.80" y="467.02">(2)</text>
<circle onclick="fromCircle(6)" class="circle" cx="190.2144" cy="406.0743" r="3.1970" />
<text class="tLabel" x="190.21" y="386.07"></text>
<text class="nLabel" x="190.21" y="401.07">8</text>
<text class="belong" x="190.21" y="411.07">(2, 3)</text>
<circle onclick="fromCircle(10)" class="circle" cx="402.8545" cy="351.9581" r="3.5450" />
<text class="tLabel" x="402.85" y="331.96"></text>
<text class="nLabel" x="402.85" y="346.96">29</text>
<text class="belong" x="402.85" y="356.96">(2, 4)</text>
<circle onclick="fromCircle(4)" class="circle" cx="27.2075" cy="462.0248" r="5.5076" />
<text class="tLabel" x="27.21" y="442.02"></text>
<text class="nLabel" x="27.21" y="457.02">70</text>
<text class="belong" x="27.21" y="467.02">(3)</text>
<circle onclick="fromCircle(5)" class="circle" cx="190.8607" cy="294.1859" r="4.4647" />
<text class="tLabel" x="190.86" y="274.19"></text>
<text class="nLabel" x="190.86" y="289.19">46</text>
<text class="belong" x="190.86" y="299.19">(1, 3)</text>
<circle onclick="fromCircle(8)" class="circle" cx="182.0191" cy="79.9380" r="4.1110" />
<text class="tLabel" x="182.02" y="59.94"></text>
<text class="nLabel" x="182.02" y="74.94">39</text>
<text class="belong" x="182.02" y="84.94">(4)</text>
<circle onclick="fromCircle(9)" class="circle" cx="266.3759" cy="187.8910" r="3.1970" />
<text class="tLabel" x="266.38" y="167.89"></text>
<text class="nLabel" x="266.38" y="182.89">6</text>
<text class="belong" x="266.38" y="192.89">(1, 4)</text>
<rect class="p0 borderLine" x="500.00" y="50.00" width="30.00" height="15.00" />
<rect class="q0" x="500.00" y="50.00" width="30.00" height="15.00" />
<text class="legend" x="540.00" y="65.00">Up_in_POU3F2_KO_iNs</text>
<rect class="p1 borderLine" x="500.00" y="90.00" width="30.00" height="15.00" />
<rect class="q1" x="500.00" y="90.00" width="30.00" height="15.00" />
<text class="legend" x="540.00" y="105.00">Down_in_POU3F2_KO_iNs</text>
<rect class="p2 borderLine" x="500.00" y="130.00" width="30.00" height="15.00" />
<rect class="q2" x="500.00" y="130.00" width="30.00" height="15.00" />
<text class="legend" x="540.00" y="145.00">Up_in_VGF_KO_iNs</text>
<rect class="p3 borderLine" x="500.00" y="170.00" width="30.00" height="15.00" />
<rect class="q3" x="500.00" y="170.00" width="30.00" height="15.00" />
<text class="legend" x="540.00" y="185.00">Down_in_VGF_KO_iNs</text>
</svg>
