<svg xmlns="http://www.w3.org/2000/svg" xmlns:xlink="http://www.w3.org/1999/xlink" width="700" height="500">
<defs>
<style type="text/css"><![CDATA[
  .borderLine {
	   stroke: none;
	   fill-opacity: 0.4;
  }
  .outLine {
	   stroke-width: 1;
	   fill: none;
  }
  .circle {
	   stroke: #888888;
	   stroke-width: 0.5;
	   fill: none;
    pointer-events: all;
  }
  .spcircle {
	   stroke: #FF2222;
	   stroke-width: 1;
	   fill: none;
    pointer-events: all;
  }
  .tLabel {
	   font-family: Arial;
    pointer-events: none;
	   font-size: 14px;
	   text-anchor: middle;
	   alignment-baseline: central;
  }
  .nLabel {
	   font-family: Arial;
    pointer-events: none;
	   font-size: 10px;
	   text-anchor: middle;
	   alignment-baseline: central;
  }
  .belong {
	   font-family: Arial;
    pointer-events: none;
	   font-size: 5px;
	   text-anchor: middle;
	   alignment-baseline: central;
  }
  .p0{
    stroke: none;
    fill: #e6194b;
  }
  .q0{
    fill: none;
    stroke: #e6194b;
  }
  .p1{
    stroke: none;
    fill: #3cb44b;
  }
  .q1{
    fill: none;
    stroke: #3cb44b;
  }
  .p2{
    stroke: none;
    fill: #ffe119;
  }
  .q2{
    fill: none;
    stroke: #ffe119;
  }
  .p3{
    stroke: none;
    fill: #0082c8;
  }
  .q3{
    fill: none;
    stroke: #0082c8;
  }
]]>
</style>
<symbol id="bl0">
<path d="M 75.05 439.52 L -10.77 395.97 L -55.74 481.05 L 28.59 527.43 L 76.36 443.88 L 303.55 384.01 L 339.08 427.83 L 395.44 430.22 L 434.54 389.56 L 429.97 333.33 L 429.94 333.35 L 520.44 361.66 L 552.81 272.52 L 465.23 236.16 L 424.95 322.00 Z" />
</symbol>
<symbol id="bl1">
<path d="M 152.44 338.95 L 72.33 377.92 L 98.23 463.17 L 186.48 450.99 L 188.34 361.92 L 188.25 362.00 L 251.06 386.48 L 304.52 345.40 L 297.02 278.40 L 235.80 250.15 L 226.95 141.34 L 290.01 73.11 L 227.30 4.57 L 153.76 61.34 L 204.17 139.37 Z" />
</symbol>
<symbol id="bl2">
<path d="M 208.46 213.97 L 172.58 132.04 L 86.19 155.16 L 96.03 244.05 L 185.39 247.72 L 198.82 264.71 L 173.30 327.26 L 213.76 381.37 L 280.97 374.59 L 309.80 313.49 L 421.57 305.22 L 488.70 368.77 L 558.19 307.80 L 503.93 232.96 L 424.38 280.07 Z" />
</symbol>
<symbol id="bl3">
<path d="M 189.40 363.25 L 100.14 346.40 L 72.36 432.88 L 154.73 471.16 L 202.93 394.16 L 302.21 377.73 L 346.74 431.11 L 415.05 418.20 L 437.02 352.24 L 390.11 300.94 L 407.87 243.27 L 489.81 207.64 L 467.06 121.23 L 378.19 130.56 L 373.89 219.81 Z" />
</symbol>
</defs>
<!-- isDone: 0 -->
<rect width="700" height="500" style="fill:#fff;stroke-width:0" />
<use class="p0 borderLine" xlink:href="#bl0"/>
<use class="p1 borderLine" xlink:href="#bl1"/>
<use class="p2 borderLine" xlink:href="#bl2"/>
<use class="p3 borderLine" xlink:href="#bl3"/>
<use class="q0 outLine" xlink:href="#bl0"/>
<use class="q1 outLine" xlink:href="#bl1"/>
<use class="q2 outLine" xlink:href="#bl2"/>
<use class="q3 outLine" xlink:href="#bl3"/>
<circle onclick="fromCircle(2)" class="circle" cx="221.3908" cy="72.9409" r="34.3106" />
<text class="tLabel" x="221.39" y="52.94"></text>
<text class="nLabel" x="221.39" y="67.94">1806</text>
<text class="belong" x="221.39" y="77.94">(2)</text>
<circle onclick="fromCircle(6)" class="spcircle" cx="241.3671" cy="318.5488" r="4.2274" />
<text class="tLabel" x="241.37" y="298.55"></text>
<text class="nLabel" x="241.37" y="313.55">8</text>
<text class="belong" x="241.37" y="323.55">(2, 3)</text>
<circle onclick="fromCircle(10)" class="circle" cx="135.2255" cy="405.3711" r="4.3478" />
<text class="tLabel" x="135.23" y="385.37"></text>
<text class="nLabel" x="135.23" y="400.37">29</text>
<text class="belong" x="135.23" y="410.37">(2, 4)</text>
<circle onclick="fromCircle(4)" class="circle" cx="142.8401" cy="193.8791" r="6.7549" />
<text class="tLabel" x="142.84" y="173.88"></text>
<text class="nLabel" x="142.84" y="188.88">70</text>
<text class="belong" x="142.84" y="198.88">(3)</text>
<circle onclick="fromCircle(8)" class="circle" cx="428.0681" cy="177.6922" r="5.0420" />
<text class="tLabel" x="428.07" y="157.69"></text>
<text class="nLabel" x="428.07" y="172.69">39</text>
<text class="belong" x="428.07" y="182.69">(4)</text>
<circle onclick="fromCircle(9)" class="circle" cx="369.9049" cy="366.5221" r="4.2274" />
<text class="tLabel" x="369.90" y="346.52"></text>
<text class="nLabel" x="369.90" y="361.52">6</text>
<text class="belong" x="369.90" y="371.52">(1, 4)</text>
<rect class="p0 borderLine" x="500.00" y="50.00" width="30.00" height="15.00" />
<rect class="q0" x="500.00" y="50.00" width="30.00" height="15.00" />
<text class="legend" x="540.00" y="65.00">Up_in_POU3F2_KO_iNs</text>
<rect class="p1 borderLine" x="500.00" y="90.00" width="30.00" height="15.00" />
<rect class="q1" x="500.00" y="90.00" width="30.00" height="15.00" />
<text class="legend" x="540.00" y="105.00">Down_in_POU3F2_KO_iNs</text>
<rect class="p2 borderLine" x="500.00" y="130.00" width="30.00" height="15.00" />
<rect class="q2" x="500.00" y="130.00" width="30.00" height="15.00" />
<text class="legend" x="540.00" y="145.00">Up_in_VGF_KO_iNs</text>
<rect class="p3 borderLine" x="500.00" y="170.00" width="30.00" height="15.00" />
<rect class="q3" x="500.00" y="170.00" width="30.00" height="15.00" />
<text class="legend" x="540.00" y="185.00">Down_in_VGF_KO_iNs</text>
</svg>
