<svg xmlns="http://www.w3.org/2000/svg" xmlns:xlink="http://www.w3.org/1999/xlink" width="700" height="500">
<defs>
<style type="text/css"><![CDATA[
  .borderLine {
	   stroke: none;
	   fill-opacity: 0.4;
  }
  .outLine {
	   stroke-width: 1;
	   fill: none;
  }
  .circle {
	   stroke: #888888;
	   stroke-width: 0.5;
	   fill: none;
    pointer-events: all;
  }
  .spcircle {
	   stroke: #FF2222;
	   stroke-width: 1;
	   fill: none;
    pointer-events: all;
  }
  .tLabel {
	   font-family: Arial;
    pointer-events: none;
	   font-size: 14px;
	   text-anchor: middle;
	   alignment-baseline: central;
  }
  .nLabel {
	   font-family: Arial;
    pointer-events: none;
	   font-size: 10px;
	   text-anchor: middle;
	   alignment-baseline: central;
  }
  .belong {
	   font-family: Arial;
    pointer-events: none;
	   font-size: 5px;
	   text-anchor: middle;
	   alignment-baseline: central;
  }
  .p0{
    stroke: none;
    fill: #e6194b;
  }
  .q0{
    fill: none;
    stroke: #e6194b;
  }
  .p1{
    stroke: none;
    fill: #3cb44b;
  }
  .q1{
    fill: none;
    stroke: #3cb44b;
  }
  .p2{
    stroke: none;
    fill: #ffe119;
  }
  .q2{
    fill: none;
    stroke: #ffe119;
  }
  .p3{
    stroke: none;
    fill: #0082c8;
  }
  .q3{
    fill: none;
    stroke: #0082c8;
  }
  .p4{
    stroke: none;
    fill: #f58231;
  }
  .q4{
    fill: none;
    stroke: #f58231;
  }
  .p5{
    stroke: none;
    fill: #911eb4;
  }
  .q5{
    fill: none;
    stroke: #911eb4;
  }
]]>
</style>
<symbol id="bl0">
<path d="M 271.97 262.85 L 262.10 265.84 L 260.07 275.94 L 268.01 282.51 L 277.55 278.61 L 439.88 400.36 L 441.58 414.17 L 455.44 413.01 L 454.82 399.11 L 440.91 399.19 L 286.42 240.31 L 288.14 228.16 L 276.81 223.43 L 269.39 233.21 L 276.98 242.85 Z" />
</symbol>
<symbol id="bl1">
<path d="M 33.22 482.12 L 19.86 482.96 L 19.23 496.34 L 32.45 498.43 L 35.98 485.51 L 84.93 461.04 L 91.65 466.33 L 100.00 464.52 L 103.93 456.92 L 100.58 449.06 L 291.81 234.35 L 302.79 235.93 L 308.50 226.42 L 301.97 217.46 L 291.17 219.98 L 291.18 219.98 L 293.68 210.98 L 287.67 203.82 L 278.37 204.71 L 273.84 212.88 L 256.10 212.49 L 251.53 203.86 L 241.79 203.20 L 236.10 211.14 L 239.85 220.15 Z" />
</symbol>
<symbol id="bl2">
<path d="M 35.48 32.10 L 32.86 18.57 L 19.21 20.41 L 20.26 34.15 L 34.03 33.89 L 474.33 482.84 L 473.83 496.64 L 487.58 497.87 L 489.54 484.20 L 475.99 481.52 L 301.91 206.03 L 306.52 198.66 L 303.65 190.46 L 295.45 187.57 L 288.07 192.18 Z" />
</symbol>
<symbol id="bl3">
<path d="M 68.76 65.81 L 67.86 53.40 L 55.58 51.40 L 50.80 62.89 L 60.86 70.20 L 76.77 463.25 L 67.28 471.62 L 73.53 482.62 L 85.58 478.77 L 84.28 466.18 L 86.81 463.65 L 94.14 466.58 L 101.32 463.31 L 103.91 455.86 L 100.31 448.83 L 273.01 240.84 L 282.97 242.51 L 289.34 234.66 L 285.65 225.26 L 275.65 223.82 L 269.55 208.76 L 275.50 201.97 L 273.59 193.15 L 265.37 189.43 L 257.48 193.82 Z" />
</symbol>
<symbol id="bl4">
<path d="M 17.38 17.10 L 18.36 4.05 L 5.60 1.12 L 0.81 13.30 L 12.13 19.86 L 92.06 446.69 L 84.03 458.32 L 95.60 466.44 L 103.81 454.93 L 92.36 446.64 L 28.55 36.64 L 35.94 31.30 L 35.95 22.18 L 28.58 16.81 L 19.91 19.63 Z" />
</symbol>
<symbol id="bl5">
<path d="M 273.62 193.18 L 263.69 189.64 L 256.08 196.92 L 259.16 207.00 L 269.55 208.76 L 275.65 223.82 L 269.43 234.07 L 277.48 242.97 L 288.30 237.80 L 286.44 225.95 L 474.34 33.90 L 488.31 33.95 L 488.79 19.99 L 474.85 19.09 L 473.52 33.00 Z" />
</symbol>
</defs>
<!-- isDone: 0 -->
<rect width="700" height="500" style="fill:#fff;stroke-width:0" />
<use class="p0 borderLine" xlink:href="#bl0"/>
<use class="p1 borderLine" xlink:href="#bl1"/>
<use class="p2 borderLine" xlink:href="#bl2"/>
<use class="p3 borderLine" xlink:href="#bl3"/>
<use class="p4 borderLine" xlink:href="#bl4"/>
<use class="p5 borderLine" xlink:href="#bl5"/>
<use class="q0 outLine" xlink:href="#bl0"/>
<use class="q1 outLine" xlink:href="#bl1"/>
<use class="q2 outLine" xlink:href="#bl2"/>
<use class="q3 outLine" xlink:href="#bl3"/>
<use class="q4 outLine" xlink:href="#bl4"/>
<use class="q5 outLine" xlink:href="#bl5"/>
<circle onclick="fromCircle(1)" class="circle" cx="447.9059" cy="406.3793" r="1.3059" />
<text class="tLabel" x="447.91" y="386.38"></text>
<text class="nLabel" x="447.91" y="401.38">7</text>
<text class="belong" x="447.91" y="411.38">(1)</text>
<circle onclick="fromCircle(2)" class="spcircle" cx="27.0079" cy="490.0000" r="1.5609" />
<text class="tLabel" x="27.01" y="470.00"></text>
<text class="nLabel" x="27.01" y="485.00">10</text>
<text class="belong" x="27.01" y="495.00">(2)</text>
<circle onclick="fromCircle(6)" class="circle" cx="298.4794" cy="226.8614" r="3.4552" />
<text class="tLabel" x="298.48" y="206.86"></text>
<text class="nLabel" x="298.48" y="221.86">49</text>
<text class="belong" x="298.48" y="231.86">(2, 3)</text>
<circle onclick="fromCircle(14)" class="circle" cx="246.0656" cy="212.2751" r="0.7862" />
<text class="tLabel" x="246.07" y="192.28"></text>
<text class="nLabel" x="246.07" y="207.28">2</text>
<text class="belong" x="246.07" y="217.28">(2, 3, 4)</text>
<circle onclick="fromCircle(10)" class="spcircle" cx="260.5645" cy="239.9540" r="0.8549" />
<text class="tLabel" x="260.56" y="219.95"></text>
<text class="nLabel" x="260.56" y="234.95">3</text>
<text class="belong" x="260.56" y="244.95">(2, 4)</text>
<circle onclick="fromCircle(26)" class="spcircle" cx="93.9046" cy="456.5518" r="0.7862" />
<text class="tLabel" x="93.90" y="436.55"></text>
<text class="nLabel" x="93.90" y="451.55">1</text>
<text class="belong" x="93.90" y="461.55">(2, 4, 5)</text>
<circle onclick="fromCircle(38)" class="circle" cx="283.8712" cy="213.1029" r="0.9872" />
<text class="tLabel" x="283.87" y="193.10"></text>
<text class="nLabel" x="283.87" y="208.10">4</text>
<text class="belong" x="283.87" y="218.10">(2, 3, 6)</text>
<circle onclick="fromCircle(4)" class="circle" cx="481.3542" cy="490.0000" r="8.3621" />
<text class="tLabel" x="481.35" y="470.00"></text>
<text class="nLabel" x="481.35" y="485.00">287</text>
<text class="belong" x="481.35" y="495.00">(3)</text>
<circle onclick="fromCircle(5)" class="circle" cx="269.5242" cy="272.5860" r="0.7862" />
<text class="tLabel" x="269.52" y="252.59"></text>
<text class="nLabel" x="269.52" y="267.59">1</text>
<text class="belong" x="269.52" y="277.59">(1, 3)</text>
<circle onclick="fromCircle(12)" class="circle" cx="60.4562" cy="60.1725" r="1.9744" />
<text class="tLabel" x="60.46" y="40.17"></text>
<text class="nLabel" x="60.46" y="55.17">16</text>
<text class="belong" x="60.46" y="65.17">(3, 4)</text>
<circle onclick="fromCircle(44)" class="circle" cx="265.7854" cy="199.4579" r="0.7862" />
<text class="tLabel" x="265.79" y="179.46"></text>
<text class="nLabel" x="265.79" y="194.46">1</text>
<text class="belong" x="265.79" y="204.46">(3, 4, 6)</text>
<circle onclick="fromCircle(20)" class="circle" cx="27.0079" cy="26.7242" r="0.7862" />
<text class="tLabel" x="27.01" y="6.72"></text>
<text class="nLabel" x="27.01" y="21.72">2</text>
<text class="belong" x="27.01" y="31.72">(3, 5)</text>
<circle onclick="fromCircle(36)" class="circle" cx="296.5493" cy="197.5478" r="3.0825" />
<text class="tLabel" x="296.55" y="177.55"></text>
<text class="nLabel" x="296.55" y="192.55">39</text>
<text class="belong" x="296.55" y="202.55">(3, 6)</text>
<circle onclick="fromCircle(8)" class="spcircle" cx="77.1804" cy="473.2759" r="2.2074" />
<text class="tLabel" x="77.18" y="453.28"></text>
<text class="nLabel" x="77.18" y="468.28">20</text>
<text class="belong" x="77.18" y="478.28">(4)</text>
<circle onclick="fromCircle(16)" class="circle" cx="10.2838" cy="10.0000" r="0.7862" />
<text class="tLabel" x="10.28" y="-10.00"></text>
<text class="nLabel" x="10.28" y="5.00">2</text>
<text class="belong" x="10.28" y="15.00">(5)</text>
<circle onclick="fromCircle(32)" class="circle" cx="481.3542" cy="26.7242" r="3.0825" />
<text class="tLabel" x="481.35" y="6.72"></text>
<text class="nLabel" x="481.35" y="21.72">39</text>
<text class="belong" x="481.35" y="31.72">(6)</text>
<circle onclick="fromCircle(47)" class="circle" cx="279.4216" cy="233.1210" r="0.7862" />
<text class="tLabel" x="279.42" y="213.12"></text>
<text class="nLabel" x="279.42" y="228.12">1</text>
<text class="belong" x="279.42" y="238.12">(1, 2, 3, 4, 6)</text>
<rect class="p0 borderLine" x="500.00" y="50.00" width="30.00" height="15.00" />
<rect class="q0" x="500.00" y="50.00" width="30.00" height="15.00" />
<text class="legend" x="540.00" y="65.00">IBA</text>
<rect class="p1 borderLine" x="500.00" y="90.00" width="30.00" height="15.00" />
<rect class="q1" x="500.00" y="90.00" width="30.00" height="15.00" />
<text class="legend" x="540.00" y="105.00">IC</text>
<rect class="p2 borderLine" x="500.00" y="130.00" width="30.00" height="15.00" />
<rect class="q2" x="500.00" y="130.00" width="30.00" height="15.00" />
<text class="legend" x="540.00" y="145.00">IDA</text>
<rect class="p3 borderLine" x="500.00" y="170.00" width="30.00" height="15.00" />
<rect class="q3" x="500.00" y="170.00" width="30.00" height="15.00" />
<text class="legend" x="540.00" y="185.00">IEA</text>
<rect class="p4 borderLine" x="500.00" y="210.00" width="30.00" height="15.00" />
<rect class="q4" x="500.00" y="210.00" width="30.00" height="15.00" />
<text class="legend" x="540.00" y="225.00">ISS</text>
<rect class="p5 borderLine" x="500.00" y="250.00" width="30.00" height="15.00" />
<rect class="q5" x="500.00" y="250.00" width="30.00" height="15.00" />
<text class="legend" x="540.00" y="265.00">NAS</text>
</svg>
