<svg xmlns="http://www.w3.org/2000/svg" xmlns:xlink="http://www.w3.org/1999/xlink" width="700" height="500">
<defs>
<style type="text/css"><![CDATA[
  .borderLine {
	   stroke: none;
	   fill-opacity: 0.4;
  }
  .outLine {
	   stroke-width: 1;
	   fill: none;
  }
  .circle {
	   stroke: #888888;
	   stroke-width: 0.5;
	   fill: none;
    pointer-events: all;
  }
  .spcircle {
	   stroke: #FF2222;
	   stroke-width: 1;
	   fill: none;
    pointer-events: all;
  }
  .tLabel {
	   font-family: Arial;
    pointer-events: none;
	   font-size: 14px;
	   text-anchor: middle;
	   alignment-baseline: central;
  }
  .nLabel {
	   font-family: Arial;
    pointer-events: none;
	   font-size: 10px;
	   text-anchor: middle;
	   alignment-baseline: central;
  }
  .belong {
	   font-family: Arial;
    pointer-events: none;
	   font-size: 5px;
	   text-anchor: middle;
	   alignment-baseline: central;
  }
  .p0{
    stroke: none;
    fill: #e6194b;
  }
  .q0{
    fill: none;
    stroke: #e6194b;
  }
  .p1{
    stroke: none;
    fill: #3cb44b;
  }
  .q1{
    fill: none;
    stroke: #3cb44b;
  }
  .p2{
    stroke: none;
    fill: #ffe119;
  }
  .q2{
    fill: none;
    stroke: #ffe119;
  }
  .p3{
    stroke: none;
    fill: #0082c8;
  }
  .q3{
    fill: none;
    stroke: #0082c8;
  }
]]>
</style>
<symbol id="bl0">
<path d="M 310.15 515.93 L 265.68 415.86 L 162.35 452.12 L 190.16 558.04 L 297.98 538.85 L 488.30 683.43 L 496.74 790.59 L 604.16 794.44 L 620.25 688.15 L 516.49 660.05 L 507.97 642.99 L 551.96 580.96 L 524.92 509.89 L 450.82 492.79 L 395.37 544.83 Z" />
</symbol>
<symbol id="bl1">
<path d="M 138.19 388.70 L 36.37 355.48 L -8.88 452.56 L 82.03 509.19 L 149.20 425.76 L 310.42 418.16 L 365.41 490.92 L 453.15 466.03 L 461.74 375.23 L 380.23 334.33 L 380.08 333.23 L 448.96 265.98 L 404.54 180.58 L 309.94 198.36 L 299.56 294.06 Z" />
</symbol>
<symbol id="bl2">
<path d="M 15.39 575.63 L -74.52 600.12 L -81.50 693.03 L 3.73 730.69 L 67.72 662.95 L 472.66 720.85 L 532.92 810.60 L 628.46 760.00 L 588.07 659.72 L 484.14 689.46 L 137.00 472.38 L 131.75 379.30 L 42.25 353.20 L -12.23 428.86 L 40.92 505.46 Z" />
</symbol>
<symbol id="bl3">
<path d="M 273.32 235.10 L 302.05 133.23 L 205.26 90.40 L 149.19 180.17 L 230.15 248.36 L 232.49 409.25 L 155.83 468.48 L 191.17 558.67 L 287.67 550.06 L 306.46 455.02 L 318.30 449.33 L 398.24 494.80 L 468.91 435.95 L 438.68 349.10 L 346.74 346.86 Z" />
</symbol>
</defs>
<!-- isDone: 0 -->
<rect width="700" height="500" style="fill:#fff;stroke-width:0" />
<use class="p0 borderLine" xlink:href="#bl0"/>
<use class="p1 borderLine" xlink:href="#bl1"/>
<use class="p2 borderLine" xlink:href="#bl2"/>
<use class="p3 borderLine" xlink:href="#bl3"/>
<use class="q0 outLine" xlink:href="#bl0"/>
<use class="q1 outLine" xlink:href="#bl1"/>
<use class="q2 outLine" xlink:href="#bl2"/>
<use class="q3 outLine" xlink:href="#bl3"/>
<circle onclick="fromCircle(1)" class="circle" cx="471.8487" cy="570.7597" r="35.2720" />
<text class="tLabel" x="471.85" y="550.76"></text>
<text class="nLabel" x="471.85" y="565.76">1378</text>
<text class="belong" x="471.85" y="575.76">(1)</text>
<circle onclick="fromCircle(2)" class="circle" cx="369.2168" cy="253.2009" r="40.3798" />
<text class="tLabel" x="369.22" y="233.20"></text>
<text class="nLabel" x="369.22" y="248.20">1806</text>
<text class="belong" x="369.22" y="258.20">(2)</text>
<circle onclick="fromCircle(6)" class="circle" cx="68.5311" cy="429.5630" r="3.6294" />
<text class="tLabel" x="68.53" y="409.56"></text>
<text class="nLabel" x="68.53" y="424.56">8</text>
<text class="belong" x="68.53" y="434.56">(2, 3)</text>
<circle onclick="fromCircle(10)" class="circle" cx="391.0891" cy="414.3521" r="5.1169" />
<text class="tLabel" x="391.09" y="394.35"></text>
<text class="nLabel" x="391.09" y="409.35">29</text>
<text class="belong" x="391.09" y="419.35">(2, 4)</text>
<circle onclick="fromCircle(8)" class="circle" cx="228.9701" cy="167.6051" r="5.9339" />
<text class="tLabel" x="228.97" y="147.61"></text>
<text class="nLabel" x="228.97" y="162.61">39</text>
<text class="belong" x="228.97" y="172.61">(4)</text>
<circle onclick="fromCircle(9)" class="circle" cx="233.6697" cy="490.0000" r="3.6294" />
<text class="tLabel" x="233.67" y="470.00"></text>
<text class="nLabel" x="233.67" y="485.00">6</text>
<text class="belong" x="233.67" y="495.00">(1, 4)</text>
<rect class="p0 borderLine" x="500.00" y="50.00" width="30.00" height="15.00" />
<rect class="q0" x="500.00" y="50.00" width="30.00" height="15.00" />
<text class="legend" x="540.00" y="65.00">Up_in_POU3F2_KO_iNs</text>
<rect class="p1 borderLine" x="500.00" y="90.00" width="30.00" height="15.00" />
<rect class="q1" x="500.00" y="90.00" width="30.00" height="15.00" />
<text class="legend" x="540.00" y="105.00">Down_in_POU3F2_KO_iNs</text>
<rect class="p2 borderLine" x="500.00" y="130.00" width="30.00" height="15.00" />
<rect class="q2" x="500.00" y="130.00" width="30.00" height="15.00" />
<text class="legend" x="540.00" y="145.00">Up_in_VGF_KO_iNs</text>
<rect class="p3 borderLine" x="500.00" y="170.00" width="30.00" height="15.00" />
<rect class="q3" x="500.00" y="170.00" width="30.00" height="15.00" />
<text class="legend" x="540.00" y="185.00">Down_in_VGF_KO_iNs</text>
</svg>
