<svg xmlns="http://www.w3.org/2000/svg" xmlns:xlink="http://www.w3.org/1999/xlink" width="700" height="500">
<defs>
<style type="text/css"><![CDATA[
  .borderLine {
	   stroke: none;
	   fill-opacity: 0.4;
  }
  .outLine {
	   stroke-width: 1;
	   fill: none;
  }
  .circle {
	   stroke: #888888;
	   stroke-width: 0.5;
	   fill: none;
    pointer-events: all;
  }
  .spcircle {
	   stroke: #FF2222;
	   stroke-width: 1;
	   fill: none;
    pointer-events: all;
  }
  .tLabel {
	   font-family: Arial;
    pointer-events: none;
	   font-size: 14px;
	   text-anchor: middle;
	   alignment-baseline: central;
  }
  .nLabel {
	   font-family: Arial;
    pointer-events: none;
	   font-size: 10px;
	   text-anchor: middle;
	   alignment-baseline: central;
  }
  .belong {
	   font-family: Arial;
    pointer-events: none;
	   font-size: 5px;
	   text-anchor: middle;
	   alignment-baseline: central;
  }
  .p0{
    stroke: none;
    fill: #e6194b;
  }
  .q0{
    fill: none;
    stroke: #e6194b;
  }
  .p1{
    stroke: none;
    fill: #3cb44b;
  }
  .q1{
    fill: none;
    stroke: #3cb44b;
  }
  .p2{
    stroke: none;
    fill: #ffe119;
  }
  .q2{
    fill: none;
    stroke: #ffe119;
  }
  .p3{
    stroke: none;
    fill: #0082c8;
  }
  .q3{
    fill: none;
    stroke: #0082c8;
  }
  .p4{
    stroke: none;
    fill: #f58231;
  }
  .q4{
    fill: none;
    stroke: #f58231;
  }
  .p5{
    stroke: none;
    fill: #911eb4;
  }
  .q5{
    fill: none;
    stroke: #911eb4;
  }
]]>
</style>
<symbol id="bl0">
<path d="M 285.76 293.80 L 288.72 262.83 L 258.89 254.02 L 244.55 281.63 L 268.92 300.97 L 268.93 300.99 L 248.45 312.80 L 247.54 336.42 L 267.04 349.78 L 288.73 340.40 L 462.85 475.04 L 466.63 508.86 L 500.55 506.15 L 498.92 472.16 L 464.89 472.72 Z" />
</symbol>
<symbol id="bl1">
<path d="M 164.16 209.72 L 147.16 182.14 L 117.71 195.64 L 127.52 226.52 L 159.36 220.56 L 381.39 393.47 L 383.86 426.24 L 416.72 426.95 L 420.61 394.31 L 388.50 387.29 L 322.89 273.13 L 334.95 255.09 L 327.92 234.56 L 307.33 227.71 L 289.40 239.94 L 288.88 239.64 L 290.47 219.08 L 275.78 204.61 L 255.24 206.53 L 243.48 223.47 Z" />
</symbol>
<symbol id="bl2">
<path d="M 112.43 347.10 L 81.53 350.96 L 79.48 382.03 L 109.60 389.92 L 123.05 361.84 L 245.66 331.34 L 261.28 348.51 L 284.21 344.89 L 293.78 323.74 L 281.37 304.12 L 298.72 273.25 L 323.90 272.52 L 335.08 249.94 L 320.39 229.48 L 295.43 232.84 L 249.17 175.03 L 256.74 147.22 L 232.56 131.52 L 210.24 149.75 L 220.78 176.57 Z" />
</symbol>
<symbol id="bl3">
<path d="M 34.56 27.81 L 37.68 -4.25 L 6.31 -11.58 L -5.10 18.54 L 23.24 33.84 L 93.88 343.90 L 75.02 364.97 L 88.66 389.75 L 116.56 385.08 L 121.38 357.20 L 162.62 337.52 L 177.09 350.23 L 196.27 348.52 L 208.27 333.45 L 205.63 314.37 L 247.52 289.14 L 273.38 300.47 L 292.69 279.86 L 279.68 254.79 L 251.71 258.71 Z" />
</symbol>
<symbol id="bl4">
<path d="M 161.82 194.37 L 131.44 182.66 L 116.36 211.51 L 143.30 229.78 L 164.52 205.08 L 200.31 204.41 L 210.60 223.89 L 232.38 227.19 L 247.98 211.62 L 244.72 189.84 L 421.47 64.87 L 454.84 71.20 L 462.35 38.08 L 429.51 29.41 L 419.69 61.93 Z" />
</symbol>
<symbol id="bl5">
<path d="M 69.50 427.38 L 38.03 435.96 L 43.09 468.18 L 75.67 466.72 L 77.82 434.18 L 291.45 267.00 L 324.98 271.78 L 331.12 238.48 L 298.09 230.98 L 289.26 263.68 L 120.76 355.99 L 102.55 343.50 L 81.70 350.78 L 75.22 371.88 L 88.38 389.61 Z" />
</symbol>
</defs>
<!-- isDone: 0 -->
<rect width="700" height="500" style="fill:#fff;stroke-width:0" />
<use class="p0 borderLine" xlink:href="#bl0"/>
<use class="p1 borderLine" xlink:href="#bl1"/>
<use class="p2 borderLine" xlink:href="#bl2"/>
<use class="p3 borderLine" xlink:href="#bl3"/>
<use class="p4 borderLine" xlink:href="#bl4"/>
<use class="p5 borderLine" xlink:href="#bl5"/>
<use class="q0 outLine" xlink:href="#bl0"/>
<use class="q1 outLine" xlink:href="#bl1"/>
<use class="q2 outLine" xlink:href="#bl2"/>
<use class="q3 outLine" xlink:href="#bl3"/>
<use class="q4 outLine" xlink:href="#bl4"/>
<use class="q5 outLine" xlink:href="#bl5"/>
<circle onclick="fromCircle(1)" class="circle" cx="482.1914" cy="490.0000" r="3.1823" />
<text class="tLabel" x="482.19" y="470.00"></text>
<text class="nLabel" x="482.19" y="485.00">7</text>
<text class="belong" x="482.19" y="495.00">(1)</text>
<circle onclick="fromCircle(2)" class="circle" cx="400.6842" cy="408.4928" r="3.8036" />
<text class="tLabel" x="400.68" y="388.49"></text>
<text class="nLabel" x="400.68" y="403.49">10</text>
<text class="belong" x="400.68" y="413.49">(2)</text>
<circle onclick="fromCircle(6)" class="circle" cx="267.5709" cy="227.6494" r="8.4196" />
<text class="tLabel" x="267.57" y="207.65"></text>
<text class="nLabel" x="267.57" y="222.65">49</text>
<text class="belong" x="267.57" y="232.65">(2, 3)</text>
<circle onclick="fromCircle(14)" class="circle" cx="225.6959" cy="252.8941" r="1.7911" />
<text class="tLabel" x="225.70" y="232.89"></text>
<text class="nLabel" x="225.70" y="247.89">2</text>
<text class="belong" x="225.70" y="257.89">(2, 3, 4)</text>
<circle onclick="fromCircle(10)" class="circle" cx="182.8511" cy="229.1732" r="2.0833" />
<text class="tLabel" x="182.85" y="209.17"></text>
<text class="nLabel" x="182.85" y="224.17">3</text>
<text class="belong" x="182.85" y="234.17">(2, 4)</text>
<circle onclick="fromCircle(26)" class="circle" cx="140.0695" cy="205.5397" r="1.7911" />
<text class="tLabel" x="140.07" y="185.54"></text>
<text class="nLabel" x="140.07" y="200.54">1</text>
<text class="belong" x="140.07" y="210.54">(2, 4, 5)</text>
<circle onclick="fromCircle(38)" class="circle" cx="310.7044" cy="251.9300" r="2.4056" />
<text class="tLabel" x="310.70" y="231.93"></text>
<text class="nLabel" x="310.70" y="246.93">4</text>
<text class="belong" x="310.70" y="256.93">(2, 3, 6)</text>
<circle onclick="fromCircle(4)" class="circle" cx="233.8942" cy="155.9353" r="20.3768" />
<text class="tLabel" x="233.89" y="135.94"></text>
<text class="nLabel" x="233.89" y="150.94">287</text>
<text class="belong" x="233.89" y="160.94">(3)</text>
<circle onclick="fromCircle(5)" class="spcircle" cx="269.3868" cy="325.4399" r="1.7911" />
<text class="tLabel" x="269.39" y="305.44"></text>
<text class="nLabel" x="269.39" y="320.44">1</text>
<text class="belong" x="269.39" y="330.44">(1, 3)</text>
<circle onclick="fromCircle(12)" class="spcircle" cx="184.6824" cy="326.9856" r="4.8112" />
<text class="tLabel" x="184.68" y="306.99"></text>
<text class="nLabel" x="184.68" y="321.99">16</text>
<text class="belong" x="184.68" y="331.99">(3, 4)</text>
<circle onclick="fromCircle(44)" class="spcircle" cx="99.3158" cy="367.7392" r="1.7911" />
<text class="tLabel" x="99.32" y="347.74"></text>
<text class="nLabel" x="99.32" y="362.74">1</text>
<text class="belong" x="99.32" y="372.74">(3, 4, 6)</text>
<circle onclick="fromCircle(20)" class="circle" cx="224.7578" cy="203.9520" r="1.7911" />
<text class="tLabel" x="224.76" y="183.95"></text>
<text class="nLabel" x="224.76" y="198.95">2</text>
<text class="belong" x="224.76" y="208.95">(3, 5)</text>
<circle onclick="fromCircle(36)" class="spcircle" cx="226.5607" cy="301.7674" r="7.5115" />
<text class="tLabel" x="226.56" y="281.77"></text>
<text class="nLabel" x="226.56" y="296.77">39</text>
<text class="belong" x="226.56" y="306.77">(3, 6)</text>
<circle onclick="fromCircle(8)" class="circle" cx="17.8086" cy="10.0000" r="5.3791" />
<text class="tLabel" x="17.81" y="-10.00"></text>
<text class="nLabel" x="17.81" y="5.00">20</text>
<text class="belong" x="17.81" y="15.00">(4)</text>
<circle onclick="fromCircle(16)" class="circle" cx="441.4378" cy="50.7536" r="1.7911" />
<text class="tLabel" x="441.44" y="30.75"></text>
<text class="nLabel" x="441.44" y="45.75">2</text>
<text class="belong" x="441.44" y="55.75">(5)</text>
<circle onclick="fromCircle(32)" class="spcircle" cx="58.5622" cy="449.2464" r="7.5115" />
<text class="tLabel" x="58.56" y="429.25"></text>
<text class="nLabel" x="58.56" y="444.25">39</text>
<text class="belong" x="58.56" y="454.25">(6)</text>
<circle onclick="fromCircle(47)" class="circle" cx="268.4631" cy="276.5183" r="1.7911" />
<text class="tLabel" x="268.46" y="256.52"></text>
<text class="nLabel" x="268.46" y="271.52">1</text>
<text class="belong" x="268.46" y="281.52">(1, 2, 3, 4, 6)</text>
<rect class="p0 borderLine" x="500.00" y="50.00" width="30.00" height="15.00" />
<rect class="q0" x="500.00" y="50.00" width="30.00" height="15.00" />
<text class="legend" x="540.00" y="65.00">IBA</text>
<rect class="p1 borderLine" x="500.00" y="90.00" width="30.00" height="15.00" />
<rect class="q1" x="500.00" y="90.00" width="30.00" height="15.00" />
<text class="legend" x="540.00" y="105.00">IC</text>
<rect class="p2 borderLine" x="500.00" y="130.00" width="30.00" height="15.00" />
<rect class="q2" x="500.00" y="130.00" width="30.00" height="15.00" />
<text class="legend" x="540.00" y="145.00">IDA</text>
<rect class="p3 borderLine" x="500.00" y="170.00" width="30.00" height="15.00" />
<rect class="q3" x="500.00" y="170.00" width="30.00" height="15.00" />
<text class="legend" x="540.00" y="185.00">IEA</text>
<rect class="p4 borderLine" x="500.00" y="210.00" width="30.00" height="15.00" />
<rect class="q4" x="500.00" y="210.00" width="30.00" height="15.00" />
<text class="legend" x="540.00" y="225.00">ISS</text>
<rect class="p5 borderLine" x="500.00" y="250.00" width="30.00" height="15.00" />
<rect class="q5" x="500.00" y="250.00" width="30.00" height="15.00" />
<text class="legend" x="540.00" y="265.00">NAS</text>
</svg>
