<svg xmlns="http://www.w3.org/2000/svg" xmlns:xlink="http://www.w3.org/1999/xlink" width="700" height="500">
<defs>
<style type="text/css"><![CDATA[
  .borderLine {
	   stroke: none;
	   fill-opacity: 0.4;
  }
  .outLine {
	   stroke-width: 1;
	   fill: none;
  }
  .circle {
	   stroke: #888888;
	   stroke-width: 0.5;
	   fill: none;
    pointer-events: all;
  }
  .spcircle {
	   stroke: #FF2222;
	   stroke-width: 1;
	   fill: none;
    pointer-events: all;
  }
  .tLabel {
	   font-family: Arial;
    pointer-events: none;
	   font-size: 14px;
	   text-anchor: middle;
	   alignment-baseline: central;
  }
  .nLabel {
	   font-family: Arial;
    pointer-events: none;
	   font-size: 10px;
	   text-anchor: middle;
	   alignment-baseline: central;
  }
  .belong {
	   font-family: Arial;
    pointer-events: none;
	   font-size: 5px;
	   text-anchor: middle;
	   alignment-baseline: central;
  }
  .p0{
    stroke: none;
    fill: #e6194b;
  }
  .q0{
    fill: none;
    stroke: #e6194b;
  }
  .p1{
    stroke: none;
    fill: #3cb44b;
  }
  .q1{
    fill: none;
    stroke: #3cb44b;
  }
  .p2{
    stroke: none;
    fill: #ffe119;
  }
  .q2{
    fill: none;
    stroke: #ffe119;
  }
  .p3{
    stroke: none;
    fill: #0082c8;
  }
  .q3{
    fill: none;
    stroke: #0082c8;
  }
]]>
</style>
<symbol id="bl0">
<path d="M 245.29 404.72 L 153.92 461.07 L 196.49 559.62 L 300.15 531.74 L 287.53 425.13 L 287.48 425.19 L 369.82 442.09 L 423.84 377.68 L 392.86 299.55 L 309.39 289.64 L 309.42 289.70 L 354.98 192.50 L 265.38 133.37 L 193.94 213.50 L 262.90 295.77 Z" />
</symbol>
<symbol id="bl1">
<path d="M 188.60 107.51 L 84.00 83.94 L 45.36 183.95 L 138.63 236.83 L 204.61 152.31 L 340.94 145.62 L 415.26 223.31 L 502.70 160.76 L 453.19 65.33 L 351.70 100.79 L 336.08 91.84 L 334.66 7.83 L 260.09 -30.89 L 190.55 16.26 L 198.92 99.86 Z" />
</symbol>
<symbol id="bl2">
<path d="M 77.78 367.97 L -31.44 391.97 L -15.32 502.63 L 96.20 494.48 L 96.06 382.65 L 215.99 270.74 L 291.28 295.38 L 352.32 244.89 L 342.25 166.32 L 270.44 132.87 L 270.44 132.91 L 346.67 57.80 L 283.81 -28.82 L 188.76 20.36 L 223.16 121.70 Z" />
</symbol>
<symbol id="bl3">
<path d="M 182.26 212.73 L 179.50 97.16 L 63.91 99.01 L 64.85 214.61 L 180.46 214.58 L 396.05 431.76 L 394.81 546.98 L 510.00 549.87 L 514.53 434.73 L 399.47 428.56 L 397.23 426.03 L 424.83 367.75 L 401.80 307.52 L 342.35 282.52 L 283.20 308.20 Z" />
</symbol>
</defs>
<!-- isDone: 0 -->
<rect width="700" height="500" style="fill:#fff;stroke-width:0" />
<use class="p0 borderLine" xlink:href="#bl0"/>
<use class="p1 borderLine" xlink:href="#bl1"/>
<use class="p2 borderLine" xlink:href="#bl2"/>
<use class="p3 borderLine" xlink:href="#bl3"/>
<use class="q0 outLine" xlink:href="#bl0"/>
<use class="q1 outLine" xlink:href="#bl1"/>
<use class="q2 outLine" xlink:href="#bl2"/>
<use class="q3 outLine" xlink:href="#bl3"/>
<circle onclick="fromCircle(1)" class="spcircle" cx="232.1945" cy="485.7318" r="35.8424" />
<text class="tLabel" x="232.19" y="465.73"></text>
<text class="nLabel" x="232.19" y="480.73">1378</text>
<text class="belong" x="232.19" y="490.73">(1)</text>
<circle onclick="fromCircle(2)" class="circle" cx="422.9039" cy="141.5972" r="41.0328" />
<text class="tLabel" x="422.90" y="121.60"></text>
<text class="nLabel" x="422.90" y="136.60">1806</text>
<text class="belong" x="422.90" y="146.60">(2)</text>
<circle onclick="fromCircle(6)" class="circle" cx="264.8819" cy="51.0328" r="4.2787" />
<text class="tLabel" x="264.88" y="31.03"></text>
<text class="nLabel" x="264.88" y="46.03">8</text>
<text class="belong" x="264.88" y="56.03">(2, 3)</text>
<circle onclick="fromCircle(10)" class="circle" cx="122.6385" cy="156.3376" r="5.1996" />
<text class="tLabel" x="122.64" y="136.34"></text>
<text class="nLabel" x="122.64" y="151.34">29</text>
<text class="belong" x="122.64" y="161.34">(2, 4)</text>
<circle onclick="fromCircle(4)" class="spcircle" cx="36.0633" cy="438.6405" r="8.0783" />
<text class="tLabel" x="36.06" y="418.64"></text>
<text class="nLabel" x="36.06" y="433.64">70</text>
<text class="belong" x="36.06" y="443.64">(3)</text>
<circle onclick="fromCircle(5)" class="circle" cx="275.9935" cy="214.7520" r="6.5486" />
<text class="tLabel" x="275.99" y="194.75"></text>
<text class="nLabel" x="275.99" y="209.75">46</text>
<text class="belong" x="275.99" y="219.75">(1, 3)</text>
<circle onclick="fromCircle(8)" class="circle" cx="453.8700" cy="490.0000" r="6.0298" />
<text class="tLabel" x="453.87" y="470.00"></text>
<text class="nLabel" x="453.87" y="485.00">39</text>
<text class="belong" x="453.87" y="495.00">(4)</text>
<circle onclick="fromCircle(9)" class="circle" cx="342.8231" cy="364.5889" r="4.2787" />
<text class="tLabel" x="342.82" y="344.59"></text>
<text class="nLabel" x="342.82" y="359.59">6</text>
<text class="belong" x="342.82" y="369.59">(1, 4)</text>
<rect class="p0 borderLine" x="500.00" y="50.00" width="30.00" height="15.00" />
<rect class="q0" x="500.00" y="50.00" width="30.00" height="15.00" />
<text class="legend" x="540.00" y="65.00">Up_in_POU3F2_KO_iNs</text>
<rect class="p1 borderLine" x="500.00" y="90.00" width="30.00" height="15.00" />
<rect class="q1" x="500.00" y="90.00" width="30.00" height="15.00" />
<text class="legend" x="540.00" y="105.00">Down_in_POU3F2_KO_iNs</text>
<rect class="p2 borderLine" x="500.00" y="130.00" width="30.00" height="15.00" />
<rect class="q2" x="500.00" y="130.00" width="30.00" height="15.00" />
<text class="legend" x="540.00" y="145.00">Up_in_VGF_KO_iNs</text>
<rect class="p3 borderLine" x="500.00" y="170.00" width="30.00" height="15.00" />
<rect class="q3" x="500.00" y="170.00" width="30.00" height="15.00" />
<text class="legend" x="540.00" y="185.00">Down_in_VGF_KO_iNs</text>
</svg>
