<svg xmlns="http://www.w3.org/2000/svg" xmlns:xlink="http://www.w3.org/1999/xlink" width="700" height="500">
<defs>
<style type="text/css"><![CDATA[
  .borderLine {
	   stroke: none;
	   fill-opacity: 0.4;
  }
  .outLine {
	   stroke-width: 1;
	   fill: none;
  }
  .circle {
	   stroke: #888888;
	   stroke-width: 0.5;
	   fill: none;
    pointer-events: all;
  }
  .spcircle {
	   stroke: #FF2222;
	   stroke-width: 1;
	   fill: none;
    pointer-events: all;
  }
  .tLabel {
	   font-family: Arial;
    pointer-events: none;
	   font-size: 14px;
	   text-anchor: middle;
	   alignment-baseline: central;
  }
  .nLabel {
	   font-family: Arial;
    pointer-events: none;
	   font-size: 10px;
	   text-anchor: middle;
	   alignment-baseline: central;
  }
  .belong {
	   font-family: Arial;
    pointer-events: none;
	   font-size: 5px;
	   text-anchor: middle;
	   alignment-baseline: central;
  }
  .p0{
    stroke: none;
    fill: #e6194b;
  }
  .q0{
    fill: none;
    stroke: #e6194b;
  }
  .p1{
    stroke: none;
    fill: #3cb44b;
  }
  .q1{
    fill: none;
    stroke: #3cb44b;
  }
  .p2{
    stroke: none;
    fill: #ffe119;
  }
  .q2{
    fill: none;
    stroke: #ffe119;
  }
  .p3{
    stroke: none;
    fill: #0082c8;
  }
  .q3{
    fill: none;
    stroke: #0082c8;
  }
  .p4{
    stroke: none;
    fill: #f58231;
  }
  .q4{
    fill: none;
    stroke: #f58231;
  }
]]>
</style>
<symbol id="bl0">
<path d="M 190.91 189.00 L 183.99 164.38 L 158.62 167.60 L 158.08 193.17 L 183.29 197.47 L 259.71 324.16 L 250.40 338.47 L 255.85 354.64 L 271.92 360.40 L 286.40 351.35 L 465.27 463.89 L 469.66 489.65 L 495.74 488.11 L 497.07 462.01 L 471.28 457.83 L 368.75 297.76 L 377.52 284.34 L 373.34 268.87 L 358.99 261.71 L 344.10 267.66 L 344.13 267.69 L 349.54 252.13 L 341.15 237.95 L 324.92 235.19 L 312.31 245.79 Z" />
</symbol>
<symbol id="bl1">
<path d="M 56.80 460.80 L 30.87 458.67 L 25.71 484.17 L 50.44 492.28 L 61.39 468.67 L 240.75 414.69 L 252.96 427.50 L 270.51 425.24 L 279.07 409.75 L 271.65 393.69 L 296.31 362.50 L 312.41 366.32 L 325.68 356.44 L 326.65 339.92 L 314.63 328.56 L 317.82 318.93 L 333.60 317.42 L 343.08 304.73 L 340.07 289.17 L 326.54 280.94 L 327.51 273.50 L 345.12 266.59 L 348.67 248.02 L 334.86 235.10 L 316.56 239.89 L 316.58 239.90 L 321.36 218.67 L 303.57 206.14 L 285.18 217.79 L 288.92 239.23 Z" />
</symbol>
<symbol id="bl2">
<path d="M 24.70 30.46 L 23.87 3.70 L -2.89 2.78 L -5.55 29.42 L 20.86 33.82 L 221.06 334.37 L 212.39 349.22 L 218.78 365.19 L 235.30 369.95 L 249.21 359.84 L 265.72 368.59 L 264.48 384.07 L 274.90 395.58 L 290.43 395.88 L 301.30 384.79 L 430.93 434.65 L 440.06 458.99 L 465.31 452.81 L 462.17 427.01 L 436.17 427.07 L 306.00 281.16 L 312.54 267.07 L 306.76 252.65 L 292.31 246.97 L 278.26 253.61 Z" />
</symbol>
<symbol id="bl3">
<path d="M 262.43 389.69 L 241.54 401.24 L 247.35 424.40 L 271.23 424.72 L 277.66 401.73 L 303.49 391.32 L 314.74 402.32 L 330.45 401.49 L 340.48 389.37 L 338.36 373.79 L 399.86 336.20 L 418.86 345.43 L 435.19 332.04 L 429.86 311.61 L 409.07 307.90 L 404.80 297.61 L 416.80 281.22 L 407.81 263.00 L 387.49 262.58 L 377.73 280.40 L 377.75 280.40 L 369.30 265.15 L 352.04 262.68 L 339.65 274.95 L 341.96 292.23 L 286.05 329.97 L 269.53 321.35 L 253.27 330.46 L 252.01 349.06 L 266.89 360.29 Z" />
</symbol>
<symbol id="bl4">
<path d="M 127.20 112.06 L 109.38 95.91 L 89.34 109.22 L 97.32 131.91 L 121.28 129.73 L 271.74 290.59 L 266.04 309.30 L 279.36 323.61 L 298.43 319.26 L 304.21 300.58 L 378.20 283.85 L 391.25 298.15 L 410.21 294.25 L 416.55 275.95 L 404.07 261.15 L 475.07 68.53 L 497.84 61.45 L 496.88 37.62 L 473.61 32.39 L 462.55 53.53 Z" />
</symbol>
</defs>
<!-- isDone: 0 -->
<rect width="700" height="500" style="fill:#fff;stroke-width:0" />
<use class="p0 borderLine" xlink:href="#bl0"/>
<use class="p1 borderLine" xlink:href="#bl1"/>
<use class="p2 borderLine" xlink:href="#bl2"/>
<use class="p3 borderLine" xlink:href="#bl3"/>
<use class="p4 borderLine" xlink:href="#bl4"/>
<use class="q0 outLine" xlink:href="#bl0"/>
<use class="q1 outLine" xlink:href="#bl1"/>
<use class="q2 outLine" xlink:href="#bl2"/>
<use class="q3 outLine" xlink:href="#bl3"/>
<use class="q4 outLine" xlink:href="#bl4"/>
<circle onclick="fromCircle(1)" class="circle" cx="481.8412" cy="474.3162" r="15.3845" />
<text class="tLabel" x="481.84" y="454.32"></text>
<text class="nLabel" x="481.84" y="469.32">40</text>
<text class="belong" x="481.84" y="479.32">(1)</text>
<circle onclick="fromCircle(3)" class="spcircle" cx="323.9987" cy="300.3511" r="2.4325" />
<text class="tLabel" x="324.00" y="280.35"></text>
<text class="nLabel" x="324.00" y="295.35">1</text>
<text class="belong" x="324.00" y="305.35">(1, 2)</text>
<circle onclick="fromCircle(7)" class="spcircle" cx="254.6981" cy="274.7209" r="2.4325" />
<text class="tLabel" x="254.70" y="254.72"></text>
<text class="nLabel" x="254.70" y="269.72">1</text>
<text class="belong" x="254.70" y="279.72">(1, 2, 3)</text>
<circle onclick="fromCircle(15)" class="circle" cx="308.4522" cy="347.1409" r="3.4401" />
<text class="tLabel" x="308.45" y="327.14"></text>
<text class="nLabel" x="308.45" y="342.14">2</text>
<text class="belong" x="308.45" y="352.14">(1, 2, 3, 4)</text>
<circle onclick="fromCircle(2)" class="spcircle" cx="42.6354" cy="474.3162" r="2.4325" />
<text class="tLabel" x="42.64" y="454.32"></text>
<text class="nLabel" x="42.64" y="469.32">1</text>
<text class="belong" x="42.64" y="479.32">(2)</text>
<circle onclick="fromCircle(6)" class="spcircle" cx="231.9138" cy="350.6657" r="4.2132" />
<text class="tLabel" x="231.91" y="330.67"></text>
<text class="nLabel" x="231.91" y="345.67">3</text>
<text class="belong" x="231.91" y="355.67">(2, 3)</text>
<circle onclick="fromCircle(14)" class="spcircle" cx="283.0200" cy="377.7597" r="6.4358" />
<text class="tLabel" x="283.02" y="357.76"></text>
<text class="nLabel" x="283.02" y="372.76">7</text>
<text class="belong" x="283.02" y="382.76">(2, 3, 4)</text>
<circle onclick="fromCircle(10)" class="spcircle" cx="259.4999" cy="409.0455" r="6.8801" />
<text class="tLabel" x="259.50" y="389.05"></text>
<text class="nLabel" x="259.50" y="404.05">8</text>
<text class="belong" x="259.50" y="414.05">(2, 4)</text>
<circle onclick="fromCircle(18)" class="circle" cx="303.0893" cy="225.7105" r="5.4392" />
<text class="tLabel" x="303.09" y="205.71"></text>
<text class="nLabel" x="303.09" y="220.71">5</text>
<text class="belong" x="303.09" y="230.71">(2, 5)</text>
<circle onclick="fromCircle(22)" class="spcircle" cx="285.1154" cy="304.8957" r="16.3177" />
<text class="tLabel" x="285.12" y="284.90"></text>
<text class="nLabel" x="285.12" y="299.90">45</text>
<text class="belong" x="285.12" y="309.90">(2, 3, 5)</text>
<circle onclick="fromCircle(5)" class="circle" cx="449.2058" cy="441.6808" r="4.2132" />
<text class="tLabel" x="449.21" y="421.68"></text>
<text class="nLabel" x="449.21" y="436.68">3</text>
<text class="belong" x="449.21" y="446.68">(1, 3)</text>
<circle onclick="fromCircle(13)" class="circle" cx="345.0677" cy="333.3535" r="5.4392" />
<text class="tLabel" x="345.07" y="313.35"></text>
<text class="nLabel" x="345.07" y="328.35">5</text>
<text class="belong" x="345.07" y="338.35">(1, 3, 4)</text>
<circle onclick="fromCircle(12)" class="spcircle" cx="321.6543" cy="383.9974" r="4.8650" />
<text class="tLabel" x="321.65" y="364.00"></text>
<text class="nLabel" x="321.65" y="379.00">4</text>
<text class="belong" x="321.65" y="389.00">(3, 4)</text>
<circle onclick="fromCircle(20)" class="circle" cx="107.9061" cy="115.4311" r="5.4392" />
<text class="tLabel" x="107.91" y="95.43"></text>
<text class="nLabel" x="107.91" y="110.43">5</text>
<text class="belong" x="107.91" y="120.43">(3, 5)</text>
<circle onclick="fromCircle(21)" class="circle" cx="173.1768" cy="180.7018" r="5.4392" />
<text class="tLabel" x="173.18" y="160.70"></text>
<text class="nLabel" x="173.18" y="175.70">5</text>
<text class="belong" x="173.18" y="185.70">(1, 3, 5)</text>
<circle onclick="fromCircle(8)" class="circle" cx="416.5704" cy="325.9878" r="2.4325" />
<text class="tLabel" x="416.57" y="305.99"></text>
<text class="nLabel" x="416.57" y="320.99">1</text>
<text class="belong" x="416.57" y="330.99">(4)</text>
<circle onclick="fromCircle(9)" class="circle" cx="379.2285" cy="314.2590" r="6.4358" />
<text class="tLabel" x="379.23" y="294.26"></text>
<text class="nLabel" x="379.23" y="309.26">7</text>
<text class="belong" x="379.23" y="319.26">(1, 4)</text>
<circle onclick="fromCircle(11)" class="spcircle" cx="269.8260" cy="340.9272" r="4.2132" />
<text class="tLabel" x="269.83" y="320.93"></text>
<text class="nLabel" x="269.83" y="335.93">3</text>
<text class="belong" x="269.83" y="345.93">(1, 2, 4)</text>
<circle onclick="fromCircle(24)" class="circle" cx="397.2963" cy="279.5260" r="6.8801" />
<text class="tLabel" x="397.30" y="259.53"></text>
<text class="nLabel" x="397.30" y="274.53">8</text>
<text class="belong" x="397.30" y="284.53">(4, 5)</text>
<circle onclick="fromCircle(25)" class="circle" cx="358.1848" cy="281.2707" r="3.4401" />
<text class="tLabel" x="358.18" y="261.27"></text>
<text class="nLabel" x="358.18" y="276.27">2</text>
<text class="belong" x="358.18" y="286.27">(1, 4, 5)</text>
<circle onclick="fromCircle(16)" class="circle" cx="481.8412" cy="50.1603" r="2.4325" />
<text class="tLabel" x="481.84" y="30.16"></text>
<text class="nLabel" x="481.84" y="45.16">1</text>
<text class="belong" x="481.84" y="55.16">(5)</text>
<circle onclick="fromCircle(17)" class="circle" cx="265.6522" cy="237.1411" r="5.4392" />
<text class="tLabel" x="265.65" y="217.14"></text>
<text class="nLabel" x="265.65" y="232.14">5</text>
<text class="belong" x="265.65" y="242.14">(1, 5)</text>
<circle onclick="fromCircle(19)" class="circle" cx="330.0514" cy="254.0829" r="5.4392" />
<text class="tLabel" x="330.05" y="234.08"></text>
<text class="nLabel" x="330.05" y="249.08">5</text>
<text class="belong" x="330.05" y="259.08">(1, 2, 5)</text>
<circle onclick="fromCircle(23)" class="circle" cx="292.9645" cy="266.5438" r="4.2132" />
<text class="tLabel" x="292.96" y="246.54"></text>
<text class="nLabel" x="292.96" y="261.54">3</text>
<text class="belong" x="292.96" y="271.54">(1, 2, 3, 5)</text>
<rect class="p0 borderLine" x="500.00" y="50.00" width="30.00" height="15.00" />
<rect class="q0" x="500.00" y="50.00" width="30.00" height="15.00" />
<text class="legend" x="540.00" y="65.00">Ball2017</text>
<rect class="p1 borderLine" x="500.00" y="90.00" width="30.00" height="15.00" />
<rect class="q1" x="500.00" y="90.00" width="30.00" height="15.00" />
<text class="legend" x="540.00" y="105.00">Courtois2015</text>
<rect class="p2 borderLine" x="500.00" y="130.00" width="30.00" height="15.00" />
<rect class="q2" x="500.00" y="130.00" width="30.00" height="15.00" />
<text class="legend" x="540.00" y="145.00">Hilton2017</text>
<rect class="p3 borderLine" x="500.00" y="170.00" width="30.00" height="15.00" />
<rect class="q3" x="500.00" y="170.00" width="30.00" height="15.00" />
<text class="legend" x="540.00" y="185.00">Ball2017</text>
<rect class="p4 borderLine" x="500.00" y="210.00" width="30.00" height="15.00" />
<rect class="q4" x="500.00" y="210.00" width="30.00" height="15.00" />
<text class="legend" x="540.00" y="225.00">Hilton2017</text>
</svg>
