<svg xmlns="http://www.w3.org/2000/svg" xmlns:xlink="http://www.w3.org/1999/xlink" width="700" height="500">
<defs>
<style type="text/css"><![CDATA[
  .borderLine {
	   stroke: none;
	   fill-opacity: 0.4;
  }
  .outLine {
	   stroke-width: 1;
	   fill: none;
  }
  .circle {
	   stroke: #888888;
	   stroke-width: 0.5;
	   fill: none;
    pointer-events: all;
  }
  .spcircle {
	   stroke: #FF2222;
	   stroke-width: 1;
	   fill: none;
    pointer-events: all;
  }
  .tLabel {
	   font-family: Arial;
    pointer-events: none;
	   font-size: 14px;
	   text-anchor: middle;
	   alignment-baseline: central;
  }
  .nLabel {
	   font-family: Arial;
    pointer-events: none;
	   font-size: 10px;
	   text-anchor: middle;
	   alignment-baseline: central;
  }
  .belong {
	   font-family: Arial;
    pointer-events: none;
	   font-size: 5px;
	   text-anchor: middle;
	   alignment-baseline: central;
  }
  .p0{
    stroke: none;
    fill: #e6194b;
  }
  .q0{
    fill: none;
    stroke: #e6194b;
  }
  .p1{
    stroke: none;
    fill: #3cb44b;
  }
  .q1{
    fill: none;
    stroke: #3cb44b;
  }
  .p2{
    stroke: none;
    fill: #ffe119;
  }
  .q2{
    fill: none;
    stroke: #ffe119;
  }
  .p3{
    stroke: none;
    fill: #0082c8;
  }
  .q3{
    fill: none;
    stroke: #0082c8;
  }
]]>
</style>
<symbol id="bl0">
<path d="M 148.64 252.10 L 136.44 262.55 L 125.91 269.61 L 115.69 277.45 L 106.36 286.30 L 98.65 294.58 L 91.02 303.39 L 83.04 311.57 L 80.90 323.32 L 78.60 330.93 L 78.95 341.89 L 89.26 349.44 L 102.59 347.01 L 112.86 333.98 L 122.92 321.46 L 135.79 309.07 L 148.75 295.52 L 157.48 283.49 L 169.06 272.15 L 180.70 261.70 L 194.39 251.82 L 209.44 244.61 L 224.61 239.78 L 240.33 238.16 L 255.81 236.34 L 271.74 234.72 L 287.05 230.39 L 302.13 227.23 L 319.44 226.30 L 334.77 231.41 L 349.51 238.10 L 364.82 245.17 L 380.13 248.71 L 394.74 250.18 L 409.31 248.00 L 423.07 243.90 L 436.08 237.58 L 447.73 229.22 L 457.77 219.26 L 465.82 208.06 L 471.58 196.20 L 475.44 183.95 L 477.35 171.74 L 477.98 159.59 L 476.31 147.66 L 473.06 136.41 L 468.39 125.55 L 462.38 115.56 L 455.06 106.41 L 447.30 98.94 L 438.57 92.57 L 429.27 87.45 L 419.86 83.53 L 410.45 80.87 L 400.74 79.19 L 391.35 78.97 L 381.66 79.62 L 371.11 81.69 L 361.68 84.73 L 353.03 88.60 L 344.58 93.74 L 336.37 100.16 L 328.62 107.86 L 320.94 115.56 L 312.96 121.98 L 304.56 129.95 L 296.64 137.48 L 287.71 145.25 L 281.40 155.15 L 273.99 163.72 L 262.59 169.22 L 250.21 175.33 L 237.42 183.32 L 223.45 191.54 L 209.18 199.11 L 198.62 206.60 L 190.71 213.77 L 181.10 222.13 L 170.98 231.57 L 160.84 240.94 Z" />
</symbol>
<symbol id="bl1">
<path d="M 171.25 271.01 L 162.97 279.93 L 154.14 288.57 L 145.94 296.75 L 139.08 305.96 L 130.59 314.01 L 117.81 323.33 L 112.86 331.75 L 111.73 339.56 L 104.69 344.16 L 94.87 352.81 L 103.42 361.54 L 101.50 370.21 L 107.91 374.60 L 121.28 380.05 L 129.83 386.88 L 137.16 392.41 L 146.28 398.38 L 155.08 403.40 L 162.92 407.54 L 172.15 410.38 L 181.46 413.50 L 189.90 417.58 L 197.34 421.98 L 205.43 425.84 L 214.35 429.11 L 222.88 431.24 L 230.88 432.82 L 238.89 433.23 L 246.74 433.50 L 254.62 432.70 L 262.30 431.85 L 270.01 430.29 L 277.09 427.99 L 283.58 425.24 L 290.11 422.11 L 296.36 418.52 L 302.09 414.37 L 307.58 410.07 L 312.84 405.50 L 317.62 400.44 L 321.95 394.93 L 325.97 389.17 L 329.64 383.17 L 332.97 376.67 L 335.70 369.81 L 338.11 362.29 L 339.94 354.91 L 341.14 347.26 L 341.79 339.68 L 342.68 332.03 L 342.86 324.75 L 342.88 316.56 L 342.91 308.01 L 343.07 299.20 L 342.82 290.02 L 341.64 281.12 L 339.40 272.43 L 336.80 263.79 L 334.02 255.45 L 330.58 247.13 L 326.54 239.68 L 323.30 231.44 L 316.45 224.27 L 305.30 224.75 L 293.95 226.84 L 282.33 228.00 L 270.26 229.68 L 257.91 232.04 L 245.34 234.99 L 232.82 237.69 L 219.96 241.27 L 206.25 245.90 L 193.37 252.50 L 181.58 260.96 Z" />
</symbol>
<symbol id="bl2">
<path d="M -4.72 412.38 L -4.92 415.57 L -6.29 418.54 L -7.98 421.84 L -8.95 425.42 L -9.42 428.83 L -9.63 432.14 L -9.67 435.17 L -9.48 438.06 L -9.07 440.61 L -8.44 442.81 L -7.51 444.72 L -6.19 446.33 L -4.58 447.56 L -2.70 448.50 L -0.59 449.14 L 1.82 449.41 L 4.55 449.36 L 7.50 448.97 L 10.70 448.32 L 14.09 447.60 L 17.76 446.36 L 21.25 444.36 L 24.24 441.68 L 27.06 438.56 L 29.84 436.44 L 32.43 434.14 L 35.27 431.69 L 38.64 429.44 L 41.45 426.36 L 43.26 421.84 L 45.25 416.50 L 48.54 411.87 L 53.33 407.93 L 57.44 404.23 L 60.13 401.56 L 63.82 396.81 L 69.69 390.77 L 77.63 386.97 L 88.39 381.94 L 99.33 376.48 L 101.99 369.51 L 103.90 363.84 L 110.22 355.13 L 109.72 348.00 L 107.56 339.96 L 109.91 332.15 L 109.04 323.31 L 98.30 315.91 L 86.33 316.79 L 76.56 320.24 L 68.42 328.06 L 60.57 334.76 L 54.15 339.93 L 47.02 345.01 L 42.48 350.50 L 37.41 356.11 L 32.83 362.09 L 28.91 367.92 L 24.76 372.90 L 19.57 376.53 L 13.36 379.23 L 8.03 383.02 L 5.37 387.56 L 3.41 392.11 L -1.02 396.53 L -5.80 400.41 L -7.38 404.78 L -6.17 409.04 Z" />
</symbol>
<symbol id="bl3">
<path d="M 309.10 144.84 L 309.97 140.81 L 311.22 136.30 L 312.19 131.51 L 312.48 126.58 L 313.69 120.79 L 314.77 116.09 L 314.13 111.91 L 312.50 108.40 L 310.06 105.51 L 306.86 103.49 L 304.04 101.60 L 301.57 101.06 L 297.43 101.79 L 291.18 103.67 L 288.09 107.05 L 285.82 110.50 L 285.27 115.26 L 286.25 120.31 L 287.61 124.96 L 289.06 129.76 L 291.37 133.90 L 293.68 137.81 L 294.93 141.75 L 295.47 145.18 L 296.27 149.11 L 297.56 152.99 L 298.50 157.18 L 299.34 161.56 L 300.22 166.15 L 301.49 170.77 L 303.15 174.94 L 304.12 179.00 L 304.92 183.38 L 305.69 187.27 L 306.37 191.87 L 307.17 196.57 L 307.47 200.86 L 306.77 205.72 L 305.53 211.38 L 304.18 216.59 L 302.84 221.23 L 301.76 226.82 L 298.75 233.07 L 298.39 238.61 L 300.60 242.89 L 304.19 245.89 L 308.73 247.70 L 313.34 248.62 L 317.74 246.78 L 320.94 244.07 L 322.79 241.13 L 323.91 237.84 L 325.21 235.31 L 326.07 232.17 L 326.33 229.27 L 326.65 226.90 L 326.61 224.51 L 326.25 221.62 L 325.05 218.91 L 323.68 216.18 L 322.11 213.50 L 320.99 210.50 L 319.18 207.72 L 317.16 204.66 L 315.69 201.61 L 314.03 198.46 L 312.84 195.19 L 311.67 191.92 L 310.62 188.51 L 309.76 184.70 L 308.88 180.92 L 307.94 177.10 L 307.10 172.91 L 306.90 168.66 L 306.99 164.52 L 306.78 160.92 L 306.78 156.92 L 307.26 153.14 L 307.79 148.86 Z" />
</symbol>
</defs>
<!-- isDone: 0 -->
<rect width="700" height="500" style="fill:#fff;stroke-width:0" />
<use class="p0 borderLine" xlink:href="#bl0"/>
<use class="p1 borderLine" xlink:href="#bl1"/>
<use class="p2 borderLine" xlink:href="#bl2"/>
<use class="p3 borderLine" xlink:href="#bl3"/>
<use class="q0 outLine" xlink:href="#bl0"/>
<use class="q1 outLine" xlink:href="#bl1"/>
<use class="q2 outLine" xlink:href="#bl2"/>
<use class="q3 outLine" xlink:href="#bl3"/>
<circle onclick="fromCircle(1)" class="circle" cx="392.4686" cy="164.2751" r="85.1942" />
<text class="tLabel" x="392.47" y="144.28"></text>
<text class="nLabel" x="392.47" y="159.28">1378</text>
<text class="belong" x="392.47" y="169.28">(1)</text>
<circle onclick="fromCircle(2)" class="circle" cx="244.2132" cy="335.7250" r="97.5314" />
<text class="tLabel" x="244.21" y="315.72"></text>
<text class="nLabel" x="244.21" y="330.72">1806</text>
<text class="belong" x="244.21" y="340.72">(2)</text>
<circle onclick="fromCircle(6)" class="circle" cx="103.6048" cy="353.0582" r="6.4913" />
<text class="tLabel" x="103.60" y="333.06"></text>
<text class="nLabel" x="103.60" y="348.06">8</text>
<text class="belong" x="103.60" y="358.06">(2, 3)</text>
<circle onclick="fromCircle(10)" class="circle" cx="311.2414" cy="235.5787" r="12.3590" />
<text class="tLabel" x="311.24" y="215.58"></text>
<text class="nLabel" x="311.24" y="230.58">29</text>
<text class="belong" x="311.24" y="240.58">(2, 4)</text>
<circle onclick="fromCircle(5)" class="circle" cx="93.9647" cy="331.8213" r="15.5655" />
<text class="tLabel" x="93.96" y="311.82"></text>
<text class="nLabel" x="93.96" y="326.82">46</text>
<text class="belong" x="93.96" y="336.82">(1, 3)</text>
<circle onclick="fromCircle(8)" class="circle" cx="299.9682" cy="115.9742" r="14.3324" />
<text class="tLabel" x="299.97" y="95.97"></text>
<text class="nLabel" x="299.97" y="110.97">39</text>
<text class="belong" x="299.97" y="120.97">(4)</text>
<circle onclick="fromCircle(9)" class="circle" cx="301.8917" cy="147.9183" r="5.6216" />
<text class="tLabel" x="301.89" y="127.92"></text>
<text class="nLabel" x="301.89" y="142.92">6</text>
<text class="belong" x="301.89" y="152.92">(1, 4)</text>
<rect class="p0 borderLine" x="500.00" y="50.00" width="30.00" height="15.00" />
<rect class="q0" x="500.00" y="50.00" width="30.00" height="15.00" />
<text class="legend" x="540.00" y="65.00">Up_in_POU3F2_KO_iNs</text>
<rect class="p1 borderLine" x="500.00" y="90.00" width="30.00" height="15.00" />
<rect class="q1" x="500.00" y="90.00" width="30.00" height="15.00" />
<text class="legend" x="540.00" y="105.00">Down_in_POU3F2_KO_iNs</text>
<rect class="p2 borderLine" x="500.00" y="130.00" width="30.00" height="15.00" />
<rect class="q2" x="500.00" y="130.00" width="30.00" height="15.00" />
<text class="legend" x="540.00" y="145.00">Up_in_VGF_KO_iNs</text>
<rect class="p3 borderLine" x="500.00" y="170.00" width="30.00" height="15.00" />
<rect class="q3" x="500.00" y="170.00" width="30.00" height="15.00" />
<text class="legend" x="540.00" y="185.00">Down_in_VGF_KO_iNs</text>
</svg>
