<svg xmlns="http://www.w3.org/2000/svg" xmlns:xlink="http://www.w3.org/1999/xlink" width="700" height="500">
<defs>
<style type="text/css"><![CDATA[
  .borderLine {
	   stroke: none;
	   fill-opacity: 0.4;
  }
  .outLine {
	   stroke-width: 1;
	   fill: none;
  }
  .circle {
	   stroke: #888888;
	   stroke-width: 0.5;
	   fill: none;
    pointer-events: all;
  }
  .spcircle {
	   stroke: #FF2222;
	   stroke-width: 1;
	   fill: none;
    pointer-events: all;
  }
  .tLabel {
	   font-family: Arial;
    pointer-events: none;
	   font-size: 14px;
	   text-anchor: middle;
	   alignment-baseline: central;
  }
  .nLabel {
	   font-family: Arial;
    pointer-events: none;
	   font-size: 10px;
	   text-anchor: middle;
	   alignment-baseline: central;
  }
  .belong {
	   font-family: Arial;
    pointer-events: none;
	   font-size: 5px;
	   text-anchor: middle;
	   alignment-baseline: central;
  }
  .p0{
    stroke: none;
    fill: #e6194b;
  }
  .q0{
    fill: none;
    stroke: #e6194b;
  }
  .p1{
    stroke: none;
    fill: #3cb44b;
  }
  .q1{
    fill: none;
    stroke: #3cb44b;
  }
  .p2{
    stroke: none;
    fill: #ffe119;
  }
  .q2{
    fill: none;
    stroke: #ffe119;
  }
  .p3{
    stroke: none;
    fill: #0082c8;
  }
  .q3{
    fill: none;
    stroke: #0082c8;
  }
]]>
</style>
<symbol id="bl0">
<path d="M 201.75 220.90 L 201.23 218.21 L 200.69 215.53 L 200.14 212.86 L 199.59 210.19 L 199.03 207.53 L 198.48 204.87 L 197.92 202.21 L 197.38 199.55 L 196.84 196.90 L 196.32 194.25 L 195.73 191.61 L 195.35 188.92 L 194.98 186.17 L 194.42 183.51 L 193.32 181.04 L 192.12 178.60 L 190.38 176.57 L 188.46 174.72 L 186.36 173.19 L 184.05 171.95 L 181.53 171.18 L 178.96 170.71 L 176.35 170.54 L 173.73 170.43 L 171.09 170.35 L 168.44 170.35 L 165.77 170.39 L 163.08 170.46 L 160.39 170.57 L 157.67 170.72 L 154.95 170.92 L 152.21 171.15 L 149.46 171.42 L 146.69 171.73 L 143.92 172.08 L 141.13 172.46 L 138.34 172.88 L 135.53 173.34 L 132.72 173.84 L 129.91 174.37 L 127.08 174.94 L 124.26 175.54 L 121.43 176.18 L 118.60 176.85 L 115.78 177.56 L 112.95 178.31 L 110.13 179.08 L 107.31 179.89 L 104.50 180.74 L 101.69 181.61 L 98.90 182.52 L 96.11 183.45 L 93.34 184.42 L 90.58 185.41 L 87.84 186.43 L 85.11 187.47 L 82.40 188.54 L 79.70 189.63 L 77.02 190.73 L 74.36 191.87 L 71.72 193.02 L 69.11 194.19 L 66.51 195.38 L 63.96 196.63 L 61.46 197.96 L 59.02 199.36 L 56.59 200.76 L 54.20 202.24 L 51.96 203.91 L 49.68 205.51 L 47.48 207.29 L 45.38 209.00 L 43.27 210.83 L 41.26 212.67 L 39.26 214.56 L 37.33 216.50 L 35.45 218.48 L 33.63 220.52 L 31.88 222.60 L 30.18 224.73 L 28.55 226.90 L 26.99 229.12 L 25.48 231.37 L 24.04 233.66 L 22.67 235.99 L 21.36 238.36 L 20.12 240.76 L 18.94 243.19 L 17.83 245.66 L 16.79 248.16 L 15.82 250.69 L 14.92 253.24 L 14.08 255.83 L 13.32 258.44 L 12.63 261.08 L 12.01 263.74 L 11.46 266.42 L 10.98 269.12 L 10.58 271.84 L 10.26 274.57 L 10.01 277.31 L 9.83 280.06 L 9.74 282.82 L 9.72 285.58 L 9.78 288.34 L 9.92 291.09 L 10.14 293.84 L 10.45 296.59 L 10.83 299.32 L 11.29 302.05 L 11.83 304.76 L 12.45 307.45 L 13.15 310.12 L 13.91 312.78 L 14.71 315.45 L 15.61 318.07 L 16.54 320.70 L 17.51 323.29 L 18.53 325.89 L 19.63 328.42 L 20.82 330.92 L 22.13 333.35 L 23.54 335.73 L 25.07 338.04 L 26.64 340.33 L 28.30 342.55 L 29.94 344.79 L 31.61 347.00 L 33.37 349.14 L 35.18 351.23 L 37.08 353.26 L 39.03 355.24 L 41.00 357.19 L 43.03 359.09 L 45.09 360.95 L 47.23 362.74 L 49.41 364.48 L 51.64 366.16 L 53.92 367.77 L 56.26 369.31 L 58.65 370.76 L 61.10 372.13 L 63.59 373.43 L 66.11 374.68 L 68.66 375.88 L 71.24 377.00 L 73.85 378.03 L 76.51 378.96 L 79.20 379.79 L 81.92 380.53 L 84.65 381.22 L 87.38 381.91 L 90.13 382.51 L 92.90 383.02 L 95.68 383.43 L 98.47 383.79 L 101.27 384.05 L 104.06 384.23 L 106.86 384.33 L 109.65 384.35 L 112.44 384.30 L 115.22 384.18 L 117.99 383.97 L 120.74 383.68 L 123.48 383.32 L 126.20 382.89 L 128.90 382.37 L 131.57 381.80 L 134.22 381.11 L 136.85 380.45 L 139.42 379.63 L 141.98 378.77 L 144.54 377.95 L 147.08 377.10 L 149.62 376.27 L 152.14 375.44 L 154.67 374.64 L 157.19 373.84 L 159.70 373.06 L 162.21 372.29 L 164.70 371.52 L 167.19 370.76 L 169.67 370.01 L 172.13 369.26 L 174.58 368.51 L 177.01 367.75 L 179.43 366.99 L 181.83 366.22 L 184.20 365.44 L 186.56 364.64 L 188.89 363.83 L 191.21 363.00 L 193.50 362.15 L 195.77 361.28 L 198.00 360.37 L 200.23 359.47 L 202.43 358.52 L 204.64 357.56 L 206.72 356.47 L 208.70 355.21 L 210.67 353.94 L 211.59 351.84 L 211.91 349.65 L 212.38 347.43 L 212.57 345.11 L 212.83 342.83 L 213.07 340.52 L 213.31 338.21 L 213.53 335.89 L 213.75 333.56 L 213.95 331.21 L 214.13 328.86 L 214.28 326.49 L 214.40 324.10 L 214.49 321.70 L 214.55 319.28 L 214.57 316.85 L 214.55 314.40 L 214.50 311.93 L 214.41 309.45 L 214.28 306.94 L 214.12 304.42 L 213.93 301.88 L 213.70 299.31 L 213.44 296.73 L 213.16 294.14 L 212.85 291.52 L 212.52 288.89 L 212.17 286.24 L 211.81 283.58 L 211.43 280.90 L 211.04 278.21 L 210.65 275.51 L 210.24 272.80 L 209.83 270.08 L 209.42 267.35 L 209.01 264.62 L 208.59 261.88 L 208.17 259.13 L 207.75 256.39 L 207.32 253.64 L 206.89 250.89 L 206.46 248.14 L 206.03 245.40 L 205.59 242.65 L 205.14 239.91 L 204.69 237.18 L 204.22 234.45 L 203.75 231.73 L 203.27 229.01 L 202.77 226.30 L 202.27 223.60 Z" />
</symbol>
<symbol id="bl1">
<path d="M 265.80 255.87 L 266.41 258.61 L 267.00 261.35 L 267.58 264.09 L 268.16 266.82 L 268.72 269.54 L 269.28 272.26 L 269.84 274.96 L 270.39 277.66 L 270.94 280.35 L 271.49 283.03 L 272.04 285.70 L 272.59 288.37 L 273.13 291.02 L 273.68 293.66 L 274.22 296.30 L 274.76 298.94 L 275.29 301.57 L 275.81 304.20 L 276.33 306.83 L 276.83 309.46 L 277.32 312.10 L 277.78 314.75 L 278.23 317.40 L 278.64 320.08 L 279.04 322.76 L 279.36 325.47 L 279.80 328.16 L 280.08 330.90 L 280.53 333.54 L 281.47 336.17 L 282.85 338.45 L 284.51 340.61 L 286.64 342.28 L 288.92 343.73 L 291.55 344.31 L 294.14 344.96 L 296.81 345.11 L 299.47 345.47 L 302.13 345.77 L 304.82 346.06 L 307.51 346.31 L 310.20 346.55 L 312.91 346.77 L 315.62 346.96 L 318.33 347.14 L 321.05 347.30 L 323.78 347.44 L 326.51 347.56 L 329.25 347.65 L 331.99 347.72 L 334.74 347.77 L 337.50 347.79 L 340.26 347.77 L 343.03 347.73 L 345.80 347.66 L 348.58 347.55 L 351.36 347.41 L 354.14 347.24 L 356.92 347.03 L 359.70 346.79 L 362.48 346.52 L 365.26 346.22 L 368.04 345.88 L 370.82 345.52 L 373.59 345.13 L 376.36 344.72 L 379.13 344.29 L 381.89 343.84 L 384.65 343.37 L 387.41 342.89 L 390.17 342.40 L 392.92 341.91 L 395.68 341.42 L 398.44 340.91 L 401.19 340.31 L 403.94 339.73 L 406.66 338.98 L 409.39 338.22 L 412.08 337.33 L 414.76 336.39 L 417.42 335.38 L 420.07 334.31 L 422.71 333.17 L 425.33 331.98 L 427.93 330.70 L 430.50 329.36 L 433.04 327.91 L 435.57 326.44 L 438.07 324.89 L 440.52 323.25 L 442.96 321.55 L 445.34 319.76 L 447.72 317.98 L 450.01 316.05 L 452.25 314.06 L 454.44 312.01 L 456.61 309.94 L 458.68 307.75 L 460.73 305.56 L 462.74 303.32 L 464.68 301.00 L 466.55 298.65 L 468.35 296.25 L 470.07 293.81 L 471.73 291.33 L 473.32 288.80 L 474.82 286.23 L 476.24 283.63 L 477.63 281.02 L 478.95 278.37 L 480.20 275.71 L 481.33 273.00 L 482.41 270.28 L 483.41 267.54 L 484.35 264.80 L 485.24 262.05 L 486.03 259.27 L 486.73 256.49 L 487.38 253.70 L 487.99 250.91 L 488.48 248.10 L 488.93 245.30 L 489.31 242.49 L 489.59 239.68 L 489.81 236.86 L 489.96 234.04 L 490.04 231.22 L 490.04 228.39 L 489.95 225.57 L 489.81 222.75 L 489.65 219.93 L 489.40 217.11 L 489.01 214.31 L 488.62 211.50 L 488.14 208.70 L 487.56 205.90 L 486.94 203.15 L 486.26 200.39 L 485.51 197.65 L 484.69 194.92 L 483.79 192.22 L 482.82 189.54 L 481.77 186.89 L 480.67 184.26 L 479.49 181.65 L 478.29 179.08 L 477.01 176.55 L 475.63 174.07 L 474.26 171.60 L 472.85 169.15 L 471.39 166.74 L 469.89 164.36 L 468.33 162.03 L 466.72 159.75 L 465.07 157.52 L 463.35 155.33 L 461.59 153.20 L 459.78 151.13 L 457.91 149.12 L 456.00 147.16 L 454.04 145.27 L 452.03 143.44 L 449.97 141.67 L 447.86 139.97 L 445.71 138.33 L 443.52 136.75 L 441.28 135.24 L 439.00 133.79 L 436.68 132.40 L 434.32 131.08 L 431.92 129.81 L 429.49 128.59 L 427.02 127.43 L 424.52 126.32 L 421.99 125.26 L 419.43 124.21 L 416.86 123.17 L 414.24 122.24 L 411.60 121.35 L 408.94 120.51 L 406.24 119.75 L 403.51 119.03 L 400.78 118.36 L 398.01 117.79 L 395.24 117.26 L 392.43 116.84 L 389.61 116.51 L 386.79 116.20 L 383.95 115.97 L 381.11 115.81 L 378.26 115.70 L 375.41 115.66 L 372.56 115.77 L 369.71 115.91 L 366.87 116.09 L 364.03 116.40 L 361.20 116.76 L 358.37 117.14 L 355.56 117.62 L 352.76 118.19 L 349.98 118.81 L 347.22 119.54 L 344.48 120.30 L 341.76 121.13 L 339.06 122.03 L 336.38 122.98 L 333.74 124.02 L 331.12 125.11 L 328.52 126.26 L 325.96 127.51 L 323.42 128.77 L 320.94 130.14 L 318.48 131.57 L 316.06 133.03 L 313.67 134.57 L 311.29 136.10 L 308.91 137.63 L 306.55 139.18 L 304.20 140.75 L 301.86 142.33 L 299.54 143.92 L 297.24 145.53 L 294.96 147.16 L 292.71 148.79 L 290.48 150.45 L 288.27 152.11 L 286.09 153.79 L 283.93 155.48 L 281.80 157.17 L 279.70 158.87 L 277.62 160.57 L 275.57 162.28 L 273.54 163.98 L 271.55 165.69 L 269.57 167.40 L 267.63 169.11 L 265.70 170.82 L 263.81 172.54 L 261.93 174.25 L 260.11 175.99 L 258.29 177.71 L 256.49 179.46 L 254.65 181.21 L 252.48 182.75 L 250.97 184.86 L 250.48 187.61 L 250.66 190.03 L 251.84 192.28 L 252.45 194.71 L 253.07 197.12 L 253.74 199.58 L 254.37 202.08 L 255.04 204.59 L 255.69 207.13 L 256.34 209.69 L 256.99 212.28 L 257.62 214.89 L 258.25 217.52 L 258.86 220.17 L 259.46 222.85 L 260.05 225.54 L 260.62 228.25 L 261.17 230.98 L 261.71 233.72 L 262.23 236.48 L 262.73 239.24 L 263.22 242.02 L 263.69 244.80 L 264.14 247.58 L 264.64 250.36 L 265.19 253.13 Z" />
</symbol>
<symbol id="bl2">
<path d="M 194.53 165.36 L 192.35 165.73 L 190.19 166.12 L 188.05 166.53 L 185.93 166.98 L 183.84 167.45 L 181.78 167.96 L 179.75 168.51 L 177.76 169.10 L 175.80 169.73 L 173.89 170.40 L 172.00 171.11 L 170.18 171.89 L 168.44 172.75 L 166.79 173.73 L 165.30 174.85 L 163.91 176.12 L 162.70 177.49 L 161.63 179.01 L 160.73 180.57 L 159.99 182.26 L 159.38 184.00 L 158.94 185.81 L 158.69 187.67 L 158.63 189.55 L 158.81 191.45 L 159.28 193.32 L 159.85 195.17 L 160.64 197.03 L 161.57 198.77 L 162.79 200.36 L 164.17 201.89 L 165.71 203.31 L 167.49 204.42 L 169.34 205.47 L 171.38 206.21 L 173.48 206.70 L 175.64 206.99 L 177.84 207.00 L 180.06 206.75 L 182.33 206.61 L 184.58 206.47 L 186.85 206.38 L 189.12 206.29 L 191.41 206.26 L 193.70 206.25 L 196.00 206.28 L 198.31 206.33 L 200.62 206.42 L 202.94 206.53 L 205.26 206.68 L 207.59 206.84 L 209.92 207.06 L 212.25 207.24 L 214.59 207.49 L 216.93 207.63 L 219.28 207.50 L 221.61 207.27 L 223.89 206.65 L 226.15 205.96 L 228.37 205.19 L 230.60 204.47 L 232.82 203.75 L 235.04 203.06 L 237.26 202.38 L 239.47 201.70 L 241.68 201.04 L 243.87 200.38 L 246.07 199.74 L 248.26 199.10 L 250.46 198.49 L 252.66 197.87 L 254.85 197.27 L 257.08 196.66 L 259.26 196.17 L 261.60 195.83 L 263.59 194.67 L 265.18 193.14 L 266.37 191.42 L 266.41 189.26 L 266.30 187.30 L 266.48 185.18 L 265.63 183.20 L 263.89 181.90 L 261.99 181.13 L 260.35 179.94 L 258.63 178.86 L 256.88 177.79 L 255.12 176.76 L 253.34 175.76 L 251.55 174.78 L 249.73 173.82 L 247.88 172.89 L 246.01 171.98 L 244.11 171.10 L 242.17 170.24 L 240.21 169.40 L 238.22 168.59 L 236.20 167.81 L 234.15 167.04 L 232.07 166.31 L 229.98 165.60 L 227.85 164.93 L 225.73 164.20 L 223.55 163.62 L 221.38 162.99 L 219.13 162.85 L 216.92 162.72 L 214.65 162.90 L 212.40 163.13 L 210.15 163.30 L 207.89 163.56 L 205.64 163.81 L 203.40 164.08 L 201.16 164.38 L 198.94 164.69 L 196.73 165.02 Z" />
</symbol>
<symbol id="bl3">
<path d="M 202.11 343.74 L 200.58 344.72 L 199.35 346.02 L 198.66 347.64 L 198.48 349.32 L 198.64 350.98 L 199.17 352.54 L 199.97 353.93 L 201.30 354.95 L 202.57 355.97 L 203.92 356.89 L 205.34 357.73 L 206.79 358.53 L 208.28 359.25 L 209.82 359.92 L 211.39 360.52 L 213.00 361.07 L 214.66 361.57 L 216.35 362.00 L 218.09 362.38 L 219.87 362.71 L 221.68 362.99 L 223.53 363.22 L 225.40 363.41 L 227.31 363.55 L 229.24 363.66 L 231.19 363.72 L 233.16 363.75 L 235.15 363.75 L 237.15 363.72 L 239.16 363.65 L 241.18 363.56 L 243.20 363.44 L 245.24 363.30 L 247.27 363.13 L 249.30 362.93 L 251.34 362.71 L 253.37 362.46 L 255.41 362.19 L 257.44 361.92 L 259.46 361.60 L 261.48 361.26 L 263.50 360.96 L 265.49 360.45 L 267.42 359.79 L 269.35 359.13 L 271.28 358.47 L 273.19 357.75 L 275.10 357.02 L 277.00 356.27 L 278.89 355.49 L 280.76 354.69 L 282.63 353.85 L 284.49 353.00 L 286.34 352.11 L 288.18 351.19 L 290.01 350.25 L 291.83 349.27 L 293.63 348.26 L 295.41 347.22 L 297.17 346.15 L 298.89 345.03 L 300.58 343.86 L 302.22 342.65 L 303.82 341.41 L 305.25 340.00 L 306.51 338.50 L 307.50 336.79 L 308.28 334.96 L 308.76 333.03 L 309.04 331.14 L 309.24 329.15 L 308.92 327.20 L 308.29 325.24 L 307.50 323.39 L 306.54 321.53 L 305.02 320.08 L 303.56 318.60 L 301.69 317.39 L 299.77 316.52 L 297.63 315.89 L 295.40 315.53 L 293.14 315.56 L 290.88 316.00 L 288.71 316.88 L 286.53 317.82 L 284.40 318.81 L 282.18 319.70 L 279.93 320.55 L 277.67 321.40 L 275.38 322.22 L 273.08 323.02 L 270.75 323.80 L 268.41 324.57 L 266.06 325.32 L 263.69 326.04 L 261.32 326.77 L 258.94 327.47 L 256.49 327.98 L 254.12 328.84 L 251.83 329.83 L 249.48 330.69 L 247.13 331.53 L 244.78 332.37 L 242.42 333.17 L 240.07 333.96 L 237.71 334.73 L 235.36 335.48 L 233.02 336.21 L 230.68 336.92 L 228.35 337.61 L 226.04 338.26 L 223.75 338.89 L 221.47 339.49 L 219.23 340.06 L 217.00 340.60 L 214.81 341.12 L 212.64 341.60 L 210.49 342.07 L 208.37 342.41 L 206.18 342.78 L 204.04 342.85 Z" />
</symbol>
</defs>
<!-- isDone: 0 -->
<rect width="700" height="500" style="fill:#fff;stroke-width:0" />
<use class="p0 borderLine" xlink:href="#bl0"/>
<use class="p1 borderLine" xlink:href="#bl1"/>
<use class="p2 borderLine" xlink:href="#bl2"/>
<use class="p3 borderLine" xlink:href="#bl3"/>
<use class="q0 outLine" xlink:href="#bl0"/>
<use class="q1 outLine" xlink:href="#bl1"/>
<use class="q2 outLine" xlink:href="#bl2"/>
<use class="q3 outLine" xlink:href="#bl3"/>
<circle onclick="fromCircle(1)" class="circle" cx="109.2744" cy="284.9751" r="99.2744" />
<text class="tLabel" x="109.27" y="264.98"></text>
<text class="nLabel" x="109.27" y="279.98">1378</text>
<text class="belong" x="109.27" y="289.98">(1)</text>
<circle onclick="fromCircle(2)" class="circle" cx="376.3495" cy="229.4010" r="113.6506" />
<text class="tLabel" x="376.35" y="209.40"></text>
<text class="nLabel" x="376.35" y="224.40">1806</text>
<text class="belong" x="376.35" y="234.40">(2)</text>
<circle onclick="fromCircle(6)" class="circle" cx="258.7079" cy="188.4869" r="7.5641" />
<text class="tLabel" x="258.71" y="168.49"></text>
<text class="nLabel" x="258.71" y="183.49">8</text>
<text class="belong" x="258.71" y="193.49">(2, 3)</text>
<circle onclick="fromCircle(10)" class="circle" cx="294.6064" cy="330.0774" r="14.4016" />
<text class="tLabel" x="294.61" y="310.08"></text>
<text class="nLabel" x="294.61" y="325.08">29</text>
<text class="belong" x="294.61" y="335.08">(2, 4)</text>
<circle onclick="fromCircle(4)" class="circle" cx="217.4469" cy="185.2054" r="22.3749" />
<text class="tLabel" x="217.45" y="165.21"></text>
<text class="nLabel" x="217.45" y="180.21">70</text>
<text class="belong" x="217.45" y="190.21">(3)</text>
<circle onclick="fromCircle(5)" class="circle" cx="176.9163" cy="188.8657" r="18.1381" />
<text class="tLabel" x="176.92" y="168.87"></text>
<text class="nLabel" x="176.92" y="183.87">46</text>
<text class="belong" x="176.92" y="193.87">(1, 3)</text>
<circle onclick="fromCircle(8)" class="circle" cx="260.7018" cy="344.3947" r="16.7011" />
<text class="tLabel" x="260.70" y="324.39"></text>
<text class="nLabel" x="260.70" y="339.39">39</text>
<text class="belong" x="260.70" y="349.39">(4)</text>
<circle onclick="fromCircle(9)" class="circle" cx="205.2297" cy="349.5707" r="6.5507" />
<text class="tLabel" x="205.23" y="329.57"></text>
<text class="nLabel" x="205.23" y="344.57">6</text>
<text class="belong" x="205.23" y="354.57">(1, 4)</text>
<rect class="p0 borderLine" x="500.00" y="50.00" width="30.00" height="15.00" />
<rect class="q0" x="500.00" y="50.00" width="30.00" height="15.00" />
<text class="legend" x="540.00" y="65.00">Up_in_POU3F2_KO_iNs</text>
<rect class="p1 borderLine" x="500.00" y="90.00" width="30.00" height="15.00" />
<rect class="q1" x="500.00" y="90.00" width="30.00" height="15.00" />
<text class="legend" x="540.00" y="105.00">Down_in_POU3F2_KO_iNs</text>
<rect class="p2 borderLine" x="500.00" y="130.00" width="30.00" height="15.00" />
<rect class="q2" x="500.00" y="130.00" width="30.00" height="15.00" />
<text class="legend" x="540.00" y="145.00">Up_in_VGF_KO_iNs</text>
<rect class="p3 borderLine" x="500.00" y="170.00" width="30.00" height="15.00" />
<rect class="q3" x="500.00" y="170.00" width="30.00" height="15.00" />
<text class="legend" x="540.00" y="185.00">Down_in_VGF_KO_iNs</text>
</svg>
