<svg xmlns="http://www.w3.org/2000/svg" xmlns:xlink="http://www.w3.org/1999/xlink" width="700" height="500">
<defs>
<style type="text/css"><![CDATA[
  .borderLine {
	   stroke: none;
	   fill-opacity: 0.4;
  }
  .outLine {
	   stroke-width: 1;
	   fill: none;
  }
  .circle {
	   stroke: #888888;
	   stroke-width: 0.5;
	   fill: none;
    pointer-events: all;
  }
  .spcircle {
	   stroke: #FF2222;
	   stroke-width: 1;
	   fill: none;
    pointer-events: all;
  }
  .tLabel {
	   font-family: Arial;
    pointer-events: none;
	   font-size: 14px;
	   text-anchor: middle;
	   alignment-baseline: central;
  }
  .nLabel {
	   font-family: Arial;
    pointer-events: none;
	   font-size: 10px;
	   text-anchor: middle;
	   alignment-baseline: central;
  }
  .belong {
	   font-family: Arial;
    pointer-events: none;
	   font-size: 5px;
	   text-anchor: middle;
	   alignment-baseline: central;
  }
  .p0{
    stroke: none;
    fill: #e6194b;
  }
  .q0{
    fill: none;
    stroke: #e6194b;
  }
  .p1{
    stroke: none;
    fill: #3cb44b;
  }
  .q1{
    fill: none;
    stroke: #3cb44b;
  }
  .p2{
    stroke: none;
    fill: #ffe119;
  }
  .q2{
    fill: none;
    stroke: #ffe119;
  }
  .p3{
    stroke: none;
    fill: #0082c8;
  }
  .q3{
    fill: none;
    stroke: #0082c8;
  }
  .p4{
    stroke: none;
    fill: #f58231;
  }
  .q4{
    fill: none;
    stroke: #f58231;
  }
  .p5{
    stroke: none;
    fill: #911eb4;
  }
  .q5{
    fill: none;
    stroke: #911eb4;
  }
]]>
</style>
<symbol id="bl0">
<path d="M 160.63 286.77 L 156.93 292.91 L 151.15 298.22 L 146.26 303.95 L 144.25 310.71 L 140.04 316.89 L 136.00 321.54 L 130.66 326.61 L 124.52 329.57 L 118.38 332.21 L 116.09 337.32 L 115.82 342.65 L 118.45 345.32 L 127.86 349.47 L 133.48 343.72 L 134.16 337.57 L 131.93 333.05 L 132.65 325.97 L 136.60 320.98 L 140.62 316.71 L 143.57 311.28 L 145.30 305.29 L 148.26 300.65 L 152.13 296.24 L 156.90 292.59 L 161.01 287.78 L 163.19 282.28 L 164.79 277.67 L 165.72 272.72 L 167.57 267.17 L 170.43 260.95 L 172.58 255.51 L 173.12 250.95 L 171.98 245.17 L 170.94 238.31 L 172.94 232.59 L 170.40 225.98 L 169.15 220.75 L 167.04 214.37 L 165.36 208.24 L 163.88 202.18 L 162.80 196.13 L 160.50 190.42 L 158.31 185.42 L 154.47 180.65 L 149.34 176.76 L 143.85 174.30 L 136.93 172.72 L 130.81 174.32 L 125.32 176.28 L 121.15 179.59 L 117.55 183.84 L 115.27 188.22 L 113.79 193.59 L 113.17 199.89 L 115.03 204.99 L 117.22 210.09 L 120.12 214.45 L 123.58 217.58 L 126.51 221.51 L 130.08 224.90 L 134.91 226.43 L 140.12 226.97 L 144.72 230.24 L 149.81 232.95 L 154.43 237.39 L 159.04 243.56 L 163.36 250.72 L 161.96 258.28 L 160.98 264.29 L 162.24 269.38 L 161.52 274.56 L 161.16 280.29 Z" />
</symbol>
<symbol id="bl1">
<path d="M 89.79 189.35 L 82.90 190.14 L 76.25 193.10 L 70.21 197.20 L 65.56 203.26 L 62.86 208.78 L 61.35 215.05 L 61.46 221.99 L 62.98 229.31 L 67.26 235.73 L 72.83 241.07 L 79.58 244.47 L 85.99 247.78 L 92.15 250.44 L 98.50 252.62 L 104.63 256.04 L 110.87 259.85 L 118.05 261.78 L 125.65 264.30 L 132.78 268.72 L 139.06 275.39 L 143.95 283.72 L 146.02 292.46 L 145.73 302.25 L 142.73 312.09 L 136.27 321.28 L 127.68 328.33 L 116.95 332.59 L 114.59 343.13 L 108.58 352.36 L 112.01 364.03 L 112.25 377.35 L 113.83 390.66 L 112.85 401.66 L 110.64 412.49 L 107.06 423.58 L 105.26 434.74 L 104.07 446.83 L 101.30 458.65 L 99.43 470.08 L 98.37 481.61 L 96.89 493.34 L 99.00 504.80 L 103.28 515.57 L 109.23 525.97 L 117.23 535.29 L 127.05 543.00 L 138.75 548.80 L 151.22 552.33 L 164.07 552.55 L 177.44 550.83 L 190.52 545.03 L 201.65 537.28 L 210.79 527.31 L 217.45 516.17 L 222.26 503.79 L 223.96 491.45 L 222.53 478.59 L 218.72 466.92 L 213.21 456.16 L 205.89 446.86 L 197.16 439.13 L 187.94 432.66 L 178.29 427.20 L 169.08 420.70 L 163.18 413.86 L 156.02 408.06 L 151.01 399.37 L 143.73 392.97 L 137.42 388.02 L 131.63 382.08 L 125.55 375.84 L 119.00 369.87 L 112.91 361.82 L 111.94 348.26 L 124.79 347.96 L 131.86 348.11 L 139.85 349.14 L 148.06 349.68 L 156.88 349.94 L 162.08 345.22 L 167.99 337.33 L 169.56 329.62 L 167.31 321.26 L 167.06 313.49 L 167.21 305.66 L 167.67 297.55 L 168.57 290.42 L 168.35 283.20 L 165.56 276.89 L 163.77 271.08 L 162.89 263.84 L 160.84 256.35 L 160.36 247.47 L 156.21 239.35 L 151.23 233.07 L 143.25 230.47 L 136.49 226.70 L 130.43 224.22 L 124.97 220.44 L 120.96 215.53 L 117.52 210.27 L 114.23 204.00 L 110.00 197.80 L 104.17 193.64 L 97.16 190.59 Z" />
</symbol>
<symbol id="bl2">
<path d="M 78.53 280.28 L 74.65 289.83 L 74.47 300.18 L 76.60 309.64 L 80.33 319.11 L 86.62 328.06 L 92.02 337.41 L 97.53 346.38 L 102.67 355.12 L 106.59 364.10 L 110.33 373.33 L 112.93 382.99 L 114.25 392.71 L 112.79 402.21 L 111.07 411.78 L 109.14 421.24 L 107.05 430.71 L 104.33 440.27 L 101.86 450.17 L 99.84 459.85 L 98.72 469.65 L 98.02 479.29 L 97.75 489.44 L 98.39 499.50 L 100.93 509.57 L 104.76 518.82 L 110.07 527.09 L 116.40 534.53 L 124.10 540.95 L 132.79 546.15 L 142.15 549.91 L 152.17 552.18 L 162.47 552.77 L 173.04 551.65 L 183.62 548.24 L 193.56 543.25 L 202.04 536.76 L 210.03 528.45 L 217.23 518.48 L 223.41 508.34 L 226.53 496.56 L 229.49 485.02 L 232.07 473.58 L 235.33 462.42 L 239.80 452.04 L 242.76 440.80 L 245.87 429.55 L 250.69 419.02 L 255.45 408.42 L 259.34 397.58 L 263.11 385.54 L 266.85 374.50 L 267.89 364.15 L 268.89 353.89 L 266.33 343.55 L 270.20 333.14 L 277.78 326.30 L 289.76 321.89 L 303.67 318.68 L 315.97 318.07 L 325.58 314.63 L 338.70 311.06 L 353.21 307.98 L 367.65 303.10 L 381.75 297.38 L 394.69 290.52 L 406.48 281.91 L 418.03 271.67 L 428.47 261.03 L 438.02 248.84 L 446.28 235.85 L 453.29 221.51 L 458.65 206.83 L 462.79 190.68 L 465.17 174.69 L 465.76 158.79 L 464.88 143.82 L 462.45 129.74 L 458.85 114.97 L 453.04 100.60 L 446.53 87.10 L 438.20 74.34 L 428.48 61.85 L 417.55 50.70 L 405.05 40.29 L 392.62 31.37 L 379.56 24.81 L 365.28 18.87 L 350.82 14.12 L 336.34 11.55 L 322.02 10.23 L 306.75 9.66 L 292.02 10.82 L 278.57 13.52 L 266.52 17.58 L 253.84 22.33 L 241.93 27.63 L 230.97 33.88 L 220.77 41.48 L 211.27 49.68 L 202.01 58.60 L 194.07 67.93 L 187.07 77.58 L 180.99 87.29 L 176.31 97.93 L 172.44 108.02 L 168.67 119.03 L 165.53 130.29 L 163.54 141.66 L 162.42 153.54 L 162.80 166.44 L 162.48 180.89 L 162.32 193.72 L 160.49 202.59 L 159.18 212.33 L 157.51 219.90 L 153.80 231.66 L 156.98 243.48 L 149.71 252.94 L 136.02 260.66 L 123.83 263.24 L 110.70 260.22 L 97.99 262.32 L 85.64 270.74 Z" />
</symbol>
<symbol id="bl3">
<path d="M 20.91 240.26 L 16.65 240.18 L 13.09 240.25 L 10.07 240.59 L 7.12 241.35 L 4.13 242.62 L 1.14 244.34 L -1.79 246.43 L -4.60 248.85 L -7.23 251.58 L -9.61 254.60 L -11.69 257.88 L -13.43 261.37 L -14.82 264.99 L -15.89 268.71 L -16.63 272.51 L -17.05 276.30 L -17.17 280.07 L -16.95 283.82 L -16.42 287.54 L -15.56 291.21 L -14.34 294.79 L -12.79 298.29 L -10.90 301.64 L -8.67 304.83 L -6.12 307.84 L -3.29 310.63 L -0.16 313.13 L 3.34 315.28 L 7.24 317.03 L 11.10 318.48 L 15.10 319.52 L 18.70 320.32 L 21.75 321.33 L 25.51 322.33 L 29.17 323.39 L 33.46 324.06 L 37.60 325.27 L 41.73 326.96 L 45.80 328.73 L 49.73 330.34 L 53.63 331.40 L 57.83 332.55 L 62.26 334.05 L 66.72 335.62 L 71.20 337.26 L 75.72 338.74 L 79.78 340.46 L 83.76 342.01 L 88.00 344.68 L 91.46 347.51 L 95.07 350.57 L 98.94 353.58 L 103.21 356.82 L 107.86 359.30 L 112.67 363.44 L 119.03 363.90 L 123.73 363.72 L 127.16 358.45 L 128.34 352.73 L 132.31 347.24 L 134.91 340.38 L 132.93 334.51 L 132.71 328.26 L 134.94 323.01 L 139.20 317.83 L 143.37 311.89 L 145.38 304.34 L 149.92 298.33 L 154.64 292.74 L 158.39 286.64 L 160.37 280.58 L 162.31 274.49 L 162.20 268.55 L 163.51 262.96 L 164.20 256.06 L 162.56 248.38 L 157.75 242.06 L 154.43 236.69 L 148.83 233.06 L 142.71 234.01 L 135.38 233.28 L 130.09 233.05 L 125.22 231.82 L 120.48 231.39 L 115.51 231.86 L 111.62 235.71 L 108.14 239.47 L 103.95 242.61 L 98.90 244.88 L 93.20 246.12 L 87.49 246.47 L 82.30 245.47 L 77.10 245.32 L 71.93 245.21 L 67.00 245.40 L 62.36 245.37 L 57.70 245.38 L 53.13 245.13 L 48.64 244.24 L 44.50 243.99 L 39.94 243.31 L 35.34 242.22 L 30.52 241.49 L 25.05 240.63 Z" />
</symbol>
<symbol id="bl4">
<path d="M 182.50 254.48 L 179.27 250.82 L 175.28 248.22 L 170.50 246.73 L 167.19 243.61 L 164.07 242.92 L 160.68 241.99 L 158.24 240.60 L 156.39 237.64 L 153.33 235.86 L 151.28 232.44 L 146.61 231.98 L 144.82 232.22 L 141.89 234.29 L 139.34 236.86 L 137.91 238.18 L 136.95 242.55 L 138.58 247.79 L 141.61 251.63 L 146.76 252.36 L 150.88 255.08 L 155.19 256.36 L 158.57 258.66 L 161.85 260.44 L 166.10 261.46 L 170.65 263.44 L 172.15 265.85 L 174.22 268.31 L 177.68 271.18 L 181.08 274.13 L 184.28 276.90 L 187.51 280.10 L 190.61 284.04 L 194.16 288.19 L 198.26 292.17 L 202.36 295.91 L 206.41 299.58 L 210.45 303.33 L 214.57 306.60 L 218.96 309.54 L 223.27 313.27 L 227.26 317.85 L 231.31 322.03 L 235.44 325.95 L 239.90 329.65 L 244.33 332.73 L 248.70 334.95 L 255.00 338.46 L 262.25 343.12 L 269.57 346.34 L 274.67 349.48 L 281.66 350.98 L 288.21 350.01 L 292.63 345.46 L 295.39 339.66 L 294.74 333.69 L 289.89 328.10 L 283.81 323.10 L 277.49 319.26 L 271.57 314.84 L 265.80 309.43 L 260.29 305.30 L 255.52 303.07 L 250.68 300.36 L 245.64 297.54 L 241.39 294.31 L 237.28 292.03 L 232.77 289.32 L 228.18 286.16 L 223.31 284.25 L 218.65 282.34 L 214.27 279.94 L 210.33 277.07 L 206.59 273.88 L 203.12 271.11 L 199.78 268.16 L 196.17 264.97 L 192.28 262.32 L 189.01 259.52 L 186.02 256.94 Z" />
</symbol>
<symbol id="bl5">
<path d="M 13.26 358.23 L 9.47 363.80 L 6.55 369.67 L 4.40 375.33 L 2.75 381.06 L 1.96 387.08 L 1.87 392.95 L 2.00 398.95 L 3.33 404.76 L 5.02 410.44 L 7.26 415.93 L 9.95 421.11 L 13.13 426.00 L 16.86 430.71 L 21.19 434.85 L 26.16 438.46 L 31.58 441.41 L 37.20 444.01 L 43.31 446.03 L 49.88 447.62 L 56.55 448.36 L 63.23 447.70 L 69.82 446.64 L 76.20 444.98 L 83.21 442.47 L 90.24 440.04 L 97.20 437.99 L 104.59 436.57 L 112.03 434.85 L 119.60 433.20 L 127.53 431.88 L 135.31 430.57 L 143.32 429.37 L 151.41 427.90 L 159.19 427.34 L 167.33 427.68 L 175.53 428.52 L 183.07 429.86 L 190.65 432.58 L 199.11 434.36 L 208.14 435.05 L 215.51 434.06 L 223.38 432.88 L 231.68 430.20 L 239.27 425.08 L 245.57 420.49 L 250.58 413.91 L 255.12 406.53 L 259.30 398.34 L 261.83 387.95 L 262.55 379.10 L 261.94 369.84 L 259.67 360.15 L 255.17 351.60 L 249.52 342.52 L 242.16 335.81 L 235.86 330.29 L 229.52 323.93 L 222.56 319.01 L 214.17 314.16 L 205.53 311.23 L 196.88 308.85 L 188.07 307.58 L 178.31 306.14 L 168.76 308.04 L 159.31 309.92 L 149.82 312.86 L 141.15 315.57 L 135.05 322.94 L 128.16 328.03 L 120.05 331.31 L 111.89 332.95 L 103.85 333.13 L 95.60 333.53 L 87.76 334.18 L 79.80 334.60 L 72.16 335.12 L 65.10 335.56 L 57.63 335.95 L 50.18 336.69 L 42.62 338.25 L 35.63 340.80 L 29.15 344.13 L 23.24 348.20 L 17.84 353.05 Z" />
</symbol>
</defs>
<!-- isDone: 0 -->
<rect width="700" height="500" style="fill:#fff;stroke-width:0" />
<use class="p0 borderLine" xlink:href="#bl0"/>
<use class="p1 borderLine" xlink:href="#bl1"/>
<use class="p2 borderLine" xlink:href="#bl2"/>
<use class="p3 borderLine" xlink:href="#bl3"/>
<use class="p4 borderLine" xlink:href="#bl4"/>
<use class="p5 borderLine" xlink:href="#bl5"/>
<use class="q0 outLine" xlink:href="#bl0"/>
<use class="q1 outLine" xlink:href="#bl1"/>
<use class="q2 outLine" xlink:href="#bl2"/>
<use class="q3 outLine" xlink:href="#bl3"/>
<use class="q4 outLine" xlink:href="#bl4"/>
<use class="q5 outLine" xlink:href="#bl5"/>
<circle onclick="fromCircle(1)" class="circle" cx="137.3812" cy="197.1587" r="23.6481" />
<text class="tLabel" x="137.38" y="177.16"></text>
<text class="nLabel" x="137.38" y="192.16">7</text>
<text class="belong" x="137.38" y="202.16">(1)</text>
<circle onclick="fromCircle(2)" class="circle" cx="89.6415" cy="217.9885" r="28.2648" />
<text class="tLabel" x="89.64" y="197.99"></text>
<text class="nLabel" x="89.64" y="212.99">10</text>
<text class="belong" x="89.64" y="222.99">(2)</text>
<circle onclick="fromCircle(6)" class="circle" cx="160.4822" cy="490.0000" r="62.5669" />
<text class="tLabel" x="160.48" y="470.00"></text>
<text class="nLabel" x="160.48" y="485.00">49</text>
<text class="belong" x="160.48" y="495.00">(2, 3)</text>
<circle onclick="fromCircle(14)" class="circle" cx="148.8760" cy="267.8926" r="12.6404" />
<text class="tLabel" x="148.88" y="247.89"></text>
<text class="nLabel" x="148.88" y="262.89">2</text>
<text class="belong" x="148.88" y="272.89">(2, 3, 4)</text>
<circle onclick="fromCircle(10)" class="circle" cx="122.1682" cy="247.0876" r="15.4813" />
<text class="tLabel" x="122.17" y="227.09"></text>
<text class="nLabel" x="122.17" y="242.09">3</text>
<text class="belong" x="122.17" y="252.09">(2, 4)</text>
<circle onclick="fromCircle(26)" class="circle" cx="146.3113" cy="242.4637" r="8.9381" />
<text class="tLabel" x="146.31" y="222.46"></text>
<text class="nLabel" x="146.31" y="237.46">1</text>
<text class="belong" x="146.31" y="247.46">(2, 4, 5)</text>
<circle onclick="fromCircle(38)" class="circle" cx="150.7284" cy="331.1872" r="17.8763" />
<text class="tLabel" x="150.73" y="311.19"></text>
<text class="nLabel" x="150.73" y="326.19">4</text>
<text class="belong" x="150.73" y="336.19">(2, 3, 6)</text>
<circle onclick="fromCircle(4)" class="circle" cx="314.1495" cy="161.4215" r="151.4215" />
<text class="tLabel" x="314.15" y="141.42"></text>
<text class="nLabel" x="314.15" y="156.42">287</text>
<text class="belong" x="314.15" y="166.42">(3)</text>
<circle onclick="fromCircle(5)" class="circle" cx="163.1168" cy="231.7834" r="8.9381" />
<text class="tLabel" x="163.12" y="211.78"></text>
<text class="nLabel" x="163.12" y="226.78">1</text>
<text class="belong" x="163.12" y="236.78">(1, 3)</text>
<circle onclick="fromCircle(12)" class="circle" cx="110.3355" cy="296.7497" r="35.7525" />
<text class="tLabel" x="110.34" y="276.75"></text>
<text class="nLabel" x="110.34" y="291.75">16</text>
<text class="belong" x="110.34" y="301.75">(3, 4)</text>
<circle onclick="fromCircle(44)" class="circle" cx="118.7678" cy="355.0941" r="8.9381" />
<text class="tLabel" x="118.77" y="335.09"></text>
<text class="nLabel" x="118.77" y="350.09">1</text>
<text class="belong" x="118.77" y="360.09">(3, 4, 6)</text>
<circle onclick="fromCircle(20)" class="circle" cx="238.0379" cy="307.8777" r="12.6404" />
<text class="tLabel" x="238.04" y="287.88"></text>
<text class="nLabel" x="238.04" y="302.88">2</text>
<text class="belong" x="238.04" y="312.88">(3, 5)</text>
<circle onclick="fromCircle(36)" class="circle" cx="206.5994" cy="378.7935" r="55.8186" />
<text class="tLabel" x="206.60" y="358.79"></text>
<text class="nLabel" x="206.60" y="373.79">39</text>
<text class="belong" x="206.60" y="383.79">(3, 6)</text>
<circle onclick="fromCircle(8)" class="circle" cx="34.4290" cy="283.1529" r="39.9725" />
<text class="tLabel" x="34.43" y="263.15"></text>
<text class="nLabel" x="34.43" y="278.15">20</text>
<text class="belong" x="34.43" y="288.15">(4)</text>
<circle onclick="fromCircle(16)" class="circle" cx="282.0681" cy="338.1754" r="12.6404" />
<text class="tLabel" x="282.07" y="318.18"></text>
<text class="nLabel" x="282.07" y="333.18">2</text>
<text class="belong" x="282.07" y="343.18">(5)</text>
<circle onclick="fromCircle(32)" class="circle" cx="57.6565" cy="392.0928" r="55.8186" />
<text class="tLabel" x="57.66" y="372.09"></text>
<text class="nLabel" x="57.66" y="387.09">39</text>
<text class="belong" x="57.66" y="397.09">(6)</text>
<circle onclick="fromCircle(47)" class="circle" cx="124.9322" cy="338.9557" r="8.9381" />
<text class="tLabel" x="124.93" y="318.96"></text>
<text class="nLabel" x="124.93" y="333.96">1</text>
<text class="belong" x="124.93" y="343.96">(1, 2, 3, 4, 6)</text>
<rect class="p0 borderLine" x="500.00" y="50.00" width="30.00" height="15.00" />
<rect class="q0" x="500.00" y="50.00" width="30.00" height="15.00" />
<text class="legend" x="540.00" y="65.00">iba</text>
<rect class="p1 borderLine" x="500.00" y="90.00" width="30.00" height="15.00" />
<rect class="q1" x="500.00" y="90.00" width="30.00" height="15.00" />
<text class="legend" x="540.00" y="105.00">ic</text>
<rect class="p2 borderLine" x="500.00" y="130.00" width="30.00" height="15.00" />
<rect class="q2" x="500.00" y="130.00" width="30.00" height="15.00" />
<text class="legend" x="540.00" y="145.00">ida</text>
<rect class="p3 borderLine" x="500.00" y="170.00" width="30.00" height="15.00" />
<rect class="q3" x="500.00" y="170.00" width="30.00" height="15.00" />
<text class="legend" x="540.00" y="185.00">iea</text>
<rect class="p4 borderLine" x="500.00" y="210.00" width="30.00" height="15.00" />
<rect class="q4" x="500.00" y="210.00" width="30.00" height="15.00" />
<text class="legend" x="540.00" y="225.00">iss</text>
<rect class="p5 borderLine" x="500.00" y="250.00" width="30.00" height="15.00" />
<rect class="q5" x="500.00" y="250.00" width="30.00" height="15.00" />
<text class="legend" x="540.00" y="265.00">nas</text>
</svg>
