<svg xmlns="http://www.w3.org/2000/svg" xmlns:xlink="http://www.w3.org/1999/xlink" width="700" height="500">
<defs>
<style type="text/css"><![CDATA[
  .borderLine {
	   stroke: none;
	   fill-opacity: 0.4;
  }
  .outLine {
	   stroke-width: 1;
	   fill: none;
  }
  .circle {
	   stroke: #888888;
	   stroke-width: 0.5;
	   fill: none;
    pointer-events: all;
  }
  .spcircle {
	   stroke: #FF2222;
	   stroke-width: 1;
	   fill: none;
    pointer-events: all;
  }
  .tLabel {
	   font-family: Arial;
    pointer-events: none;
	   font-size: 14px;
	   text-anchor: middle;
	   alignment-baseline: central;
  }
  .nLabel {
	   font-family: Arial;
    pointer-events: none;
	   font-size: 10px;
	   text-anchor: middle;
	   alignment-baseline: central;
  }
  .belong {
	   font-family: Arial;
    pointer-events: none;
	   font-size: 5px;
	   text-anchor: middle;
	   alignment-baseline: central;
  }
  .p0{
    stroke: none;
    fill: #e6194b;
  }
  .q0{
    fill: none;
    stroke: #e6194b;
  }
  .p1{
    stroke: none;
    fill: #3cb44b;
  }
  .q1{
    fill: none;
    stroke: #3cb44b;
  }
  .p2{
    stroke: none;
    fill: #ffe119;
  }
  .q2{
    fill: none;
    stroke: #ffe119;
  }
  .p3{
    stroke: none;
    fill: #0082c8;
  }
  .q3{
    fill: none;
    stroke: #0082c8;
  }
  .p4{
    stroke: none;
    fill: #f58231;
  }
  .q4{
    fill: none;
    stroke: #f58231;
  }
  .p5{
    stroke: none;
    fill: #911eb4;
  }
  .q5{
    fill: none;
    stroke: #911eb4;
  }
  .p6{
    stroke: none;
    fill: #46f0f0;
  }
  .q6{
    fill: none;
    stroke: #46f0f0;
  }
  .p7{
    stroke: none;
    fill: #f032e6;
  }
  .q7{
    fill: none;
    stroke: #f032e6;
  }
]]>
</style>
<symbol id="bl0">
<path d="M 225.07 351.41 L 232.50 344.33 L 240.64 339.23 L 249.94 335.80 L 259.09 334.49 L 269.39 335.47 L 277.97 338.26 L 286.41 343.52 L 293.13 350.42 L 298.21 358.28 L 301.53 368.02 L 303.51 377.62 L 306.23 386.42 L 309.24 395.71 L 313.98 405.42 L 319.95 413.27 L 325.85 420.29 L 332.67 427.55 L 340.98 433.87 L 350.21 439.69 L 359.97 444.40 L 369.76 447.63 L 380.05 449.97 L 390.31 451.22 L 400.18 451.53 L 410.49 451.00 L 420.36 448.72 L 429.40 445.62 L 438.56 441.30 L 447.37 436.20 L 455.11 430.90 L 462.21 424.29 L 468.85 417.01 L 474.78 409.51 L 479.58 401.06 L 483.24 391.99 L 487.29 383.05 L 488.95 372.84 L 490.00 362.58 L 489.99 352.64 L 489.67 342.76 L 487.38 333.29 L 484.61 324.07 L 480.20 314.89 L 475.38 305.71 L 470.26 297.48 L 464.48 289.26 L 458.21 281.35 L 452.47 273.64 L 447.17 265.39 L 441.92 256.93 L 436.24 248.89 L 430.65 240.71 L 425.88 232.64 L 420.13 225.09 L 413.86 217.16 L 404.78 212.19 L 395.55 210.36 L 386.54 207.77 L 379.47 201.08 L 374.16 192.62 L 368.58 184.56 L 360.38 178.52 L 352.23 174.02 L 344.83 169.04 L 337.12 163.42 L 329.90 157.14 L 323.53 149.99 L 317.26 143.38 L 310.25 136.06 L 301.57 131.71 L 292.29 129.81 L 282.94 130.02 L 274.05 132.55 L 265.36 136.90 L 258.29 143.56 L 255.24 152.20 L 252.58 160.98 L 251.59 170.40 L 253.99 179.79 L 259.72 187.54 L 265.07 194.96 L 273.87 199.74 L 282.57 203.07 L 291.89 205.93 L 300.27 210.28 L 307.60 216.55 L 313.01 223.90 L 316.92 232.74 L 318.24 242.21 L 317.12 251.45 L 314.38 260.78 L 308.52 268.58 L 301.68 275.32 L 293.34 279.83 L 284.37 282.50 L 274.71 282.94 L 265.73 280.70 L 257.43 276.16 L 249.78 270.65 L 244.57 263.27 L 240.70 254.71 L 238.92 245.54 L 239.74 235.80 L 242.52 226.99 L 246.60 218.99 L 253.20 212.46 L 256.28 203.14 L 254.88 193.30 L 253.40 183.86 L 251.37 174.42 L 250.31 164.74 L 249.74 155.24 L 248.92 145.50 L 245.72 135.72 L 240.92 127.44 L 238.27 117.31 L 234.99 107.53 L 232.46 97.66 L 229.98 87.93 L 226.61 78.88 L 222.56 70.10 L 216.06 62.19 L 207.29 56.56 L 197.04 54.60 L 186.51 55.42 L 177.24 59.51 L 169.02 66.16 L 163.96 74.62 L 161.09 85.12 L 161.87 94.94 L 165.18 104.14 L 171.03 112.95 L 176.38 121.79 L 180.81 130.51 L 182.80 140.13 L 182.12 149.95 L 182.46 160.18 L 183.29 170.07 L 184.58 180.17 L 184.36 190.25 L 184.68 200.58 L 182.98 211.65 L 179.01 220.67 L 175.86 230.76 L 172.76 239.72 L 171.98 248.15 L 171.37 258.09 L 169.66 268.05 L 167.83 278.56 L 166.96 287.88 L 166.12 297.30 L 164.33 307.59 L 162.06 316.47 L 163.31 327.08 L 166.66 336.53 L 171.75 344.40 L 179.60 351.82 L 187.46 355.68 L 197.75 358.94 L 207.04 358.14 L 216.95 356.47 Z" />
</symbol>
<symbol id="bl1">
<path d="M 102.05 190.13 L 103.90 197.79 L 107.58 204.74 L 114.02 209.33 L 120.43 212.56 L 127.49 216.41 L 134.09 218.93 L 140.76 221.37 L 147.12 224.59 L 153.83 226.72 L 160.57 227.07 L 167.88 225.63 L 174.64 223.65 L 181.79 221.25 L 188.38 217.58 L 195.26 215.05 L 201.89 213.74 L 209.86 213.65 L 217.63 215.40 L 225.38 219.67 L 230.88 225.32 L 235.21 231.49 L 237.92 238.84 L 238.97 246.30 L 239.23 254.00 L 238.82 262.15 L 238.90 270.24 L 239.29 278.25 L 239.60 286.33 L 240.60 294.06 L 240.78 301.76 L 240.82 309.39 L 242.31 317.39 L 240.99 325.13 L 239.61 332.14 L 236.72 338.68 L 232.07 344.85 L 226.93 350.54 L 223.00 356.52 L 219.62 363.99 L 218.17 371.59 L 217.97 379.37 L 218.52 386.81 L 221.01 394.17 L 225.32 400.50 L 229.79 406.17 L 236.01 411.32 L 242.66 414.84 L 249.25 417.77 L 256.06 418.57 L 262.94 418.86 L 270.19 417.41 L 277.42 415.40 L 283.99 411.50 L 289.76 406.41 L 295.27 400.78 L 298.38 393.88 L 301.24 387.43 L 302.14 380.11 L 302.55 372.79 L 301.12 365.69 L 300.35 358.40 L 301.32 350.23 L 302.27 343.26 L 303.00 336.45 L 304.58 329.47 L 307.34 322.64 L 310.20 316.17 L 313.15 309.83 L 317.33 304.57 L 321.42 297.88 L 322.76 290.97 L 322.36 284.27 L 321.83 277.23 L 321.80 270.37 L 321.86 264.11 L 321.44 256.97 L 320.14 249.96 L 319.22 243.65 L 317.84 236.46 L 316.08 229.33 L 314.41 221.77 L 312.28 214.08 L 311.93 206.28 L 313.17 199.04 L 316.38 191.26 L 320.68 184.80 L 324.53 177.36 L 325.48 169.11 L 325.52 161.49 L 323.71 154.78 L 320.64 148.30 L 316.21 142.22 L 310.70 137.37 L 304.79 133.32 L 297.30 130.65 L 290.45 129.58 L 282.92 128.84 L 276.08 132.01 L 269.73 134.60 L 262.16 136.17 L 254.60 136.84 L 247.22 135.01 L 241.79 129.09 L 236.11 124.51 L 230.02 120.56 L 223.66 118.19 L 216.20 117.16 L 208.31 118.34 L 201.12 120.48 L 193.08 121.11 L 186.02 120.52 L 179.27 117.70 L 171.72 115.56 L 165.76 111.62 L 158.68 109.95 L 150.21 108.91 L 141.33 110.21 L 133.73 112.93 L 127.74 116.65 L 122.56 122.12 L 117.82 127.93 L 113.43 134.24 L 108.95 140.72 L 103.47 147.36 L 99.19 153.68 L 95.68 160.35 L 93.63 168.31 L 96.05 175.47 L 98.98 183.03 Z" />
</symbol>
<symbol id="bl2">
<path d="M 219.70 280.25 L 227.75 280.66 L 234.73 280.66 L 243.09 281.26 L 250.25 282.21 L 258.45 282.50 L 265.39 282.56 L 272.80 282.32 L 280.72 282.56 L 288.43 281.39 L 296.43 278.99 L 305.03 276.62 L 312.55 274.91 L 320.35 273.89 L 328.53 272.13 L 335.53 269.96 L 343.30 269.16 L 351.10 267.58 L 359.41 266.31 L 368.65 265.61 L 377.59 264.31 L 385.71 263.26 L 393.32 262.56 L 401.56 262.46 L 409.25 259.51 L 415.59 254.75 L 420.40 248.64 L 422.76 241.89 L 423.85 234.43 L 426.10 226.99 L 427.84 219.46 L 429.59 212.18 L 432.18 204.67 L 434.03 197.05 L 436.38 189.44 L 437.81 181.62 L 437.57 173.59 L 435.40 165.45 L 431.39 158.31 L 426.31 152.49 L 420.54 147.93 L 414.40 142.95 L 407.86 138.94 L 401.16 135.15 L 394.13 129.96 L 387.47 124.95 L 380.91 120.47 L 374.45 115.71 L 368.21 111.82 L 361.39 109.55 L 354.34 109.34 L 346.61 110.22 L 339.62 112.68 L 334.02 117.70 L 329.15 123.79 L 325.82 130.79 L 318.87 135.15 L 310.50 135.49 L 303.31 132.72 L 295.99 129.76 L 287.33 129.32 L 279.85 130.75 L 272.51 133.68 L 265.18 138.10 L 260.03 143.33 L 256.06 149.01 L 251.64 155.50 L 247.05 161.68 L 243.43 169.10 L 238.21 175.20 L 232.46 179.31 L 225.85 182.32 L 218.21 184.08 L 209.31 183.56 L 202.15 181.69 L 194.37 179.72 L 185.61 178.59 L 177.66 177.59 L 169.48 176.53 L 162.03 175.54 L 154.06 176.11 L 146.94 178.36 L 140.73 182.60 L 135.92 189.60 L 133.34 197.11 L 132.35 205.15 L 129.88 213.35 L 127.63 220.99 L 125.58 229.22 L 123.65 236.54 L 121.85 243.29 L 120.79 250.97 L 121.94 259.80 L 125.28 266.56 L 130.27 271.72 L 137.44 275.76 L 145.10 277.11 L 151.79 278.47 L 159.72 278.32 L 167.39 278.74 L 174.48 278.49 L 182.22 278.44 L 189.76 278.94 L 197.23 279.10 L 205.04 279.85 L 212.45 280.52 Z" />
</symbol>
<symbol id="bl3">
<path d="M 185.07 370.45 L 188.39 376.81 L 191.69 383.00 L 197.58 387.62 L 203.40 391.92 L 209.69 396.17 L 215.57 400.57 L 222.35 404.15 L 229.67 407.06 L 236.10 411.27 L 242.96 415.16 L 249.92 417.52 L 256.22 418.64 L 263.28 419.40 L 270.89 417.24 L 277.38 414.95 L 283.38 411.90 L 289.36 407.13 L 294.29 401.06 L 298.36 394.19 L 301.06 386.28 L 302.89 378.91 L 302.62 370.99 L 301.63 363.78 L 300.25 356.84 L 299.86 349.24 L 298.85 341.59 L 298.04 334.61 L 297.35 327.02 L 296.18 318.87 L 295.28 311.56 L 294.37 304.24 L 293.64 296.96 L 293.33 289.34 L 296.36 282.16 L 300.81 276.14 L 307.04 271.36 L 312.06 264.62 L 315.46 257.76 L 317.72 250.90 L 318.10 243.39 L 317.13 235.86 L 315.49 228.03 L 313.86 219.91 L 311.51 211.98 L 311.43 204.24 L 314.39 196.53 L 317.14 188.93 L 323.61 183.32 L 329.60 178.95 L 336.72 175.55 L 344.29 174.52 L 351.09 172.59 L 358.11 170.43 L 364.16 167.69 L 371.09 164.96 L 376.79 159.78 L 380.79 154.24 L 384.06 147.96 L 386.05 140.77 L 384.41 133.06 L 381.83 125.90 L 377.46 119.55 L 372.89 114.25 L 365.66 110.26 L 357.98 109.05 L 350.01 108.44 L 341.86 108.02 L 334.24 107.43 L 326.46 107.68 L 317.85 106.81 L 309.32 107.12 L 303.25 111.29 L 300.07 117.78 L 295.86 124.84 L 289.03 128.55 L 282.73 129.40 L 276.62 131.42 L 269.82 134.08 L 262.77 138.37 L 258.95 144.97 L 255.00 150.04 L 251.64 155.90 L 247.41 161.96 L 243.99 168.87 L 240.51 174.01 L 234.15 178.53 L 227.91 181.56 L 221.36 184.77 L 217.27 190.50 L 214.17 197.18 L 212.15 204.56 L 206.46 209.85 L 198.85 212.95 L 192.15 216.07 L 185.72 219.90 L 179.35 225.32 L 175.49 232.38 L 172.94 239.83 L 171.76 246.61 L 172.30 253.61 L 171.24 261.39 L 170.48 269.60 L 169.13 277.54 L 168.28 284.57 L 167.26 292.83 L 165.18 300.56 L 164.14 307.33 L 162.57 314.97 L 162.63 321.93 L 164.26 329.27 L 166.64 336.41 L 169.85 342.83 L 173.44 350.63 L 178.24 356.50 L 181.11 363.92 Z" />
</symbol>
<symbol id="bl4">
<path d="M 119.98 126.04 L 117.22 133.47 L 116.45 140.80 L 116.66 148.72 L 119.14 156.14 L 124.05 163.99 L 129.64 169.20 L 136.45 173.22 L 144.16 175.58 L 151.94 175.50 L 159.80 175.32 L 168.14 176.95 L 175.27 177.74 L 182.18 178.30 L 190.15 179.52 L 197.54 181.25 L 205.03 182.51 L 213.43 184.68 L 221.39 183.84 L 229.63 180.67 L 238.18 180.10 L 245.60 182.84 L 252.20 186.73 L 258.82 190.99 L 265.70 195.15 L 272.55 199.52 L 279.80 203.52 L 287.30 204.61 L 294.98 207.01 L 302.88 211.53 L 308.92 216.46 L 313.11 222.32 L 318.39 228.61 L 324.19 234.40 L 331.01 238.82 L 338.49 241.25 L 345.77 242.26 L 353.95 240.50 L 361.01 237.71 L 367.27 233.52 L 372.18 228.36 L 376.62 221.70 L 382.05 216.19 L 389.40 212.58 L 397.47 211.00 L 405.58 211.65 L 412.56 210.76 L 419.90 208.44 L 426.74 203.62 L 432.16 197.37 L 435.96 190.33 L 438.12 182.75 L 438.08 174.85 L 436.19 167.44 L 432.53 160.29 L 427.85 153.54 L 421.12 148.80 L 413.24 146.38 L 405.22 144.52 L 396.84 146.10 L 389.07 149.34 L 381.83 154.21 L 376.38 160.21 L 369.89 164.97 L 363.01 168.22 L 355.48 169.17 L 347.74 168.50 L 340.43 165.52 L 334.10 160.03 L 327.71 154.23 L 322.93 148.12 L 317.35 142.36 L 312.17 137.65 L 304.74 133.32 L 298.23 130.66 L 290.93 129.07 L 282.92 128.72 L 275.74 124.74 L 270.44 118.13 L 266.16 112.00 L 258.82 107.94 L 251.23 106.50 L 243.87 103.58 L 237.49 98.72 L 231.94 91.80 L 229.86 84.63 L 227.00 76.74 L 222.25 69.31 L 216.44 62.96 L 210.24 58.19 L 203.20 55.88 L 196.07 54.55 L 188.44 55.27 L 180.22 57.36 L 174.04 60.66 L 167.44 65.07 L 160.33 67.66 L 154.49 71.13 L 148.06 75.73 L 142.13 79.63 L 135.81 84.00 L 131.61 91.80 L 129.53 97.88 L 127.58 105.72 L 125.89 113.09 L 123.02 119.93 Z" />
</symbol>
<symbol id="bl5">
<path d="M 260.05 143.29 L 254.33 151.00 L 251.95 160.90 L 252.85 171.39 L 255.10 179.94 L 259.70 188.98 L 266.82 195.05 L 275.01 200.82 L 284.38 202.25 L 293.77 202.06 L 303.88 199.33 L 313.12 194.14 L 318.30 187.33 L 323.78 178.68 L 325.82 168.55 L 325.02 159.11 L 324.44 149.71 L 324.71 140.15 L 326.94 129.37 L 329.12 117.98 L 329.35 108.23 L 330.01 97.63 L 331.17 86.31 L 329.11 76.74 L 322.22 68.82 L 311.43 64.81 L 302.03 67.05 L 294.17 72.26 L 289.06 82.80 L 285.69 91.83 L 279.44 99.75 L 272.26 107.35 L 270.83 116.57 L 269.66 126.32 L 264.99 134.79 Z" />
</symbol>
<symbol id="bl6">
<path d="M 232.55 63.51 L 229.48 74.12 L 230.24 86.17 L 231.82 97.86 L 235.19 108.49 L 239.06 119.08 L 241.95 129.29 L 247.04 140.00 L 248.88 150.76 L 251.74 161.14 L 252.65 171.86 L 255.18 182.05 L 261.02 190.50 L 269.64 197.99 L 280.65 201.97 L 291.20 202.27 L 302.20 200.09 L 312.63 193.65 L 320.04 184.97 L 324.49 175.01 L 325.37 163.73 L 322.69 152.79 L 317.31 142.19 L 308.83 135.15 L 301.16 127.01 L 300.68 115.50 L 296.90 104.06 L 291.24 95.19 L 289.03 82.17 L 288.09 70.96 L 282.94 59.98 L 275.04 52.60 L 264.30 48.47 L 251.20 49.21 L 240.68 54.25 Z" />
</symbol>
<symbol id="bl7">
<path d="M 42.20 199.67 L 54.52 201.13 L 65.67 198.88 L 76.75 195.09 L 87.21 191.02 L 98.25 186.82 L 109.22 182.02 L 121.12 174.83 L 122.35 161.50 L 112.86 152.92 L 104.64 145.48 L 96.42 138.41 L 87.42 131.89 L 78.19 125.10 L 68.62 119.39 L 57.76 116.73 L 45.84 117.03 L 35.08 120.70 L 24.36 127.69 L 16.37 136.94 L 12.12 146.55 L 10.00 158.25 L 10.76 168.92 L 15.91 179.07 L 22.44 188.21 L 31.40 195.57 Z" />
</symbol>
</defs>
<!-- isDone: 0 -->
<rect width="700" height="500" style="fill:#fff;stroke-width:0" />
<use class="p0 borderLine" xlink:href="#bl0"/>
<use class="p1 borderLine" xlink:href="#bl1"/>
<use class="p2 borderLine" xlink:href="#bl2"/>
<use class="p3 borderLine" xlink:href="#bl3"/>
<use class="p4 borderLine" xlink:href="#bl4"/>
<use class="p5 borderLine" xlink:href="#bl5"/>
<use class="p6 borderLine" xlink:href="#bl6"/>
<use class="p7 borderLine" xlink:href="#bl7"/>
<use class="q0 outLine" xlink:href="#bl0"/>
<use class="q1 outLine" xlink:href="#bl1"/>
<use class="q2 outLine" xlink:href="#bl2"/>
<use class="q3 outLine" xlink:href="#bl3"/>
<use class="q4 outLine" xlink:href="#bl4"/>
<use class="q5 outLine" xlink:href="#bl5"/>
<use class="q6 outLine" xlink:href="#bl6"/>
<use class="q7 outLine" xlink:href="#bl7"/>
<circle onclick="fromCircle(1)" class="circle" cx="395.8751" cy="357.0441" r="78.6376" />
<text class="tLabel" x="395.88" y="337.04"></text>
<text class="nLabel" x="395.88" y="352.04">40</text>
<text class="belong" x="395.88" y="362.04">(1)</text>
<circle onclick="fromCircle(3)" class="circle" cx="307.8446" cy="292.2019" r="12.4337" />
<text class="tLabel" x="307.84" y="272.20"></text>
<text class="nLabel" x="307.84" y="287.20">1</text>
<text class="belong" x="307.84" y="297.20">(1, 2)</text>
<circle onclick="fromCircle(7)" class="circle" cx="199.2787" cy="196.2717" r="12.4337" />
<text class="tLabel" x="199.28" y="176.27"></text>
<text class="nLabel" x="199.28" y="191.27">1</text>
<text class="belong" x="199.28" y="201.27">(1, 2, 3)</text>
<circle onclick="fromCircle(15)" class="circle" cx="235.2533" cy="201.1986" r="17.5839" />
<text class="tLabel" x="235.25" y="181.20"></text>
<text class="nLabel" x="235.25" y="196.20">2</text>
<text class="belong" x="235.25" y="206.20">(1, 2, 3, 4)</text>
<circle onclick="fromCircle(127)" class="circle" cx="288.7611" cy="166.2109" r="30.4562" />
<text class="tLabel" x="288.76" y="146.21"></text>
<text class="nLabel" x="288.76" y="161.21">6</text>
<text class="belong" x="288.76" y="171.21">(1, 2, 3, 4, 5, 6, 7)</text>
<circle onclick="fromCircle(2)" class="circle" cx="118.6691" cy="195.0532" r="12.4337" />
<text class="tLabel" x="118.67" y="175.05"></text>
<text class="nLabel" x="118.67" y="190.05">1</text>
<text class="belong" x="118.67" y="200.05">(2)</text>
<circle onclick="fromCircle(6)" class="circle" cx="158.8212" cy="201.3342" r="21.5358" />
<text class="tLabel" x="158.82" y="181.33"></text>
<text class="nLabel" x="158.82" y="196.33">3</text>
<text class="belong" x="158.82" y="206.33">(2, 3)</text>
<circle onclick="fromCircle(14)" class="circle" cx="278.5577" cy="243.2190" r="32.8965" />
<text class="tLabel" x="278.56" y="223.22"></text>
<text class="nLabel" x="278.56" y="238.22">7</text>
<text class="belong" x="278.56" y="248.22">(2, 3, 4)</text>
<circle onclick="fromCircle(10)" class="circle" cx="260.1144" cy="376.5967" r="35.1678" />
<text class="tLabel" x="260.11" y="356.60"></text>
<text class="nLabel" x="260.11" y="371.60">8</text>
<text class="belong" x="260.11" y="381.60">(2, 4)</text>
<circle onclick="fromCircle(18)" class="circle" cx="149.6281" cy="142.2666" r="27.8026" />
<text class="tLabel" x="149.63" y="122.27"></text>
<text class="nLabel" x="149.63" y="137.27">5</text>
<text class="belong" x="149.63" y="147.27">(2, 5)</text>
<circle onclick="fromCircle(130)" class="circle" cx="108.5400" cy="167.0610" r="12.4337" />
<text class="tLabel" x="108.54" y="147.06"></text>
<text class="nLabel" x="108.54" y="162.06">1</text>
<text class="belong" x="108.54" y="172.06">(2, 8)</text>
<circle onclick="fromCircle(4)" class="circle" cx="146.5155" cy="251.3970" r="21.5358" />
<text class="tLabel" x="146.52" y="231.40"></text>
<text class="nLabel" x="146.52" y="246.40">3</text>
<text class="belong" x="146.52" y="256.40">(3)</text>
<circle onclick="fromCircle(5)" class="circle" cx="396.9580" cy="237.0712" r="21.5358" />
<text class="tLabel" x="396.96" y="217.07"></text>
<text class="nLabel" x="396.96" y="232.07">3</text>
<text class="belong" x="396.96" y="242.07">(1, 3)</text>
<circle onclick="fromCircle(13)" class="circle" cx="205.5339" cy="246.6742" r="27.8026" />
<text class="tLabel" x="205.53" y="226.67"></text>
<text class="nLabel" x="205.53" y="241.67">5</text>
<text class="belong" x="205.53" y="251.67">(1, 3, 4)</text>
<circle onclick="fromCircle(12)" class="circle" cx="355.1452" cy="139.0922" r="24.8674" />
<text class="tLabel" x="355.15" y="119.09"></text>
<text class="nLabel" x="355.15" y="134.09">4</text>
<text class="belong" x="355.15" y="144.09">(3, 4)</text>
<circle onclick="fromCircle(20)" class="circle" cx="404.5061" cy="178.4332" r="27.8026" />
<text class="tLabel" x="404.51" y="158.43"></text>
<text class="nLabel" x="404.51" y="173.43">5</text>
<text class="belong" x="404.51" y="183.43">(3, 5)</text>
<circle onclick="fromCircle(21)" class="circle" cx="345.1577" cy="208.5331" r="27.8026" />
<text class="tLabel" x="345.16" y="188.53"></text>
<text class="nLabel" x="345.16" y="203.53">5</text>
<text class="belong" x="345.16" y="213.53">(1, 3, 5)</text>
<circle onclick="fromCircle(8)" class="circle" cx="203.1070" cy="373.5063" r="12.4337" />
<text class="tLabel" x="203.11" y="353.51"></text>
<text class="nLabel" x="203.11" y="368.51">1</text>
<text class="belong" x="203.11" y="378.51">(4)</text>
<circle onclick="fromCircle(9)" class="circle" cx="202.1549" cy="319.0356" r="32.8965" />
<text class="tLabel" x="202.15" y="299.04"></text>
<text class="nLabel" x="202.15" y="314.04">7</text>
<text class="belong" x="202.15" y="324.04">(1, 4)</text>
<circle onclick="fromCircle(11)" class="circle" cx="267.5208" cy="308.6857" r="21.5358" />
<text class="tLabel" x="267.52" y="288.69"></text>
<text class="nLabel" x="267.52" y="303.69">3</text>
<text class="belong" x="267.52" y="313.69">(1, 2, 4)</text>
<circle onclick="fromCircle(40)" class="circle" cx="314.5701" cy="121.3575" r="12.4337" />
<text class="tLabel" x="314.57" y="101.36"></text>
<text class="nLabel" x="314.57" y="116.36">1</text>
<text class="belong" x="314.57" y="126.36">(4, 6)</text>
<circle onclick="fromCircle(16)" class="circle" cx="146.5905" cy="94.0834" r="12.4337" />
<text class="tLabel" x="146.59" y="74.08"></text>
<text class="nLabel" x="146.59" y="89.08">1</text>
<text class="belong" x="146.59" y="99.08">(5)</text>
<circle onclick="fromCircle(17)" class="circle" cx="194.4299" cy="87.8949" r="27.8026" />
<text class="tLabel" x="194.43" y="67.89"></text>
<text class="nLabel" x="194.43" y="82.89">5</text>
<text class="belong" x="194.43" y="92.89">(1, 5)</text>
<circle onclick="fromCircle(19)" class="circle" cx="215.5430" cy="150.7188" r="27.8026" />
<text class="tLabel" x="215.54" y="130.72"></text>
<text class="nLabel" x="215.54" y="145.72">5</text>
<text class="belong" x="215.54" y="155.72">(1, 2, 5)</text>
<circle onclick="fromCircle(80)" class="circle" cx="255.4485" cy="122.3120" r="12.4337" />
<text class="tLabel" x="255.45" y="102.31"></text>
<text class="nLabel" x="255.45" y="117.31">1</text>
<text class="belong" x="255.45" y="127.31">(5, 7)</text>
<circle onclick="fromCircle(32)" class="circle" cx="310.2822" cy="85.9084" r="17.5839" />
<text class="tLabel" x="310.28" y="65.91"></text>
<text class="nLabel" x="310.28" y="80.91">2</text>
<text class="belong" x="310.28" y="90.91">(6)</text>
<circle onclick="fromCircle(96)" class="circle" cx="285.7596" cy="113.7944" r="12.4337" />
<text class="tLabel" x="285.76" y="93.79"></text>
<text class="nLabel" x="285.76" y="108.79">1</text>
<text class="belong" x="285.76" y="118.79">(6, 7)</text>
<circle onclick="fromCircle(64)" class="circle" cx="258.9181" cy="77.6812" r="24.8674" />
<text class="tLabel" x="258.92" y="57.68"></text>
<text class="nLabel" x="258.92" y="72.68">4</text>
<text class="belong" x="258.92" y="82.68">(7)</text>
<circle onclick="fromCircle(128)" class="circle" cx="52.6198" cy="158.8710" r="35.1678" />
<text class="tLabel" x="52.62" y="138.87"></text>
<text class="nLabel" x="52.62" y="153.87">8</text>
<text class="belong" x="52.62" y="163.87">(8)</text>
<rect class="p0 borderLine" x="500.00" y="50.00" width="30.00" height="15.00" />
<rect class="q0" x="500.00" y="50.00" width="30.00" height="15.00" />
<text class="legend" x="540.00" y="65.00">Ball2017</text>
<rect class="p1 borderLine" x="500.00" y="90.00" width="30.00" height="15.00" />
<rect class="q1" x="500.00" y="90.00" width="30.00" height="15.00" />
<text class="legend" x="540.00" y="105.00">Courtois2015</text>
<rect class="p2 borderLine" x="500.00" y="130.00" width="30.00" height="15.00" />
<rect class="q2" x="500.00" y="130.00" width="30.00" height="15.00" />
<text class="legend" x="540.00" y="145.00">Hilton2017</text>
<rect class="p3 borderLine" x="500.00" y="170.00" width="30.00" height="15.00" />
<rect class="q3" x="500.00" y="170.00" width="30.00" height="15.00" />
<text class="legend" x="540.00" y="185.00">Ball2017</text>
<rect class="p4 borderLine" x="500.00" y="210.00" width="30.00" height="15.00" />
<rect class="q4" x="500.00" y="210.00" width="30.00" height="15.00" />
<text class="legend" x="540.00" y="225.00">Courtois2015</text>
<rect class="p5 borderLine" x="500.00" y="250.00" width="30.00" height="15.00" />
<rect class="q5" x="500.00" y="250.00" width="30.00" height="15.00" />
<text class="legend" x="540.00" y="265.00">Hilton2017</text>
<rect class="p6 borderLine" x="500.00" y="290.00" width="30.00" height="15.00" />
<rect class="q6" x="500.00" y="290.00" width="30.00" height="15.00" />
<text class="legend" x="540.00" y="305.00">Ball2017</text>
<rect class="p7 borderLine" x="500.00" y="330.00" width="30.00" height="15.00" />
<rect class="q7" x="500.00" y="330.00" width="30.00" height="15.00" />
<text class="legend" x="540.00" y="345.00">Courtois2015</text>
</svg>
