<svg xmlns="http://www.w3.org/2000/svg" xmlns:xlink="http://www.w3.org/1999/xlink" width="700" height="500">
<defs>
<style type="text/css"><![CDATA[
  .borderLine {
	   stroke: none;
	   fill-opacity: 0.4;
  }
  .outLine {
	   stroke-width: 1;
	   fill: none;
  }
  .circle {
	   stroke: #888888;
	   stroke-width: 0.5;
	   fill: none;
    pointer-events: all;
  }
  .spcircle {
	   stroke: #FF2222;
	   stroke-width: 1;
	   fill: none;
    pointer-events: all;
  }
  .tLabel {
	   font-family: Arial;
    pointer-events: none;
	   font-size: 14px;
	   text-anchor: middle;
	   alignment-baseline: central;
  }
  .nLabel {
	   font-family: Arial;
    pointer-events: none;
	   font-size: 10px;
	   text-anchor: middle;
	   alignment-baseline: central;
  }
  .belong {
	   font-family: Arial;
    pointer-events: none;
	   font-size: 5px;
	   text-anchor: middle;
	   alignment-baseline: central;
  }
  .p0{
    stroke: none;
    fill: #e6194b;
  }
  .q0{
    fill: none;
    stroke: #e6194b;
  }
  .p1{
    stroke: none;
    fill: #3cb44b;
  }
  .q1{
    fill: none;
    stroke: #3cb44b;
  }
  .p2{
    stroke: none;
    fill: #ffe119;
  }
  .q2{
    fill: none;
    stroke: #ffe119;
  }
  .p3{
    stroke: none;
    fill: #0082c8;
  }
  .q3{
    fill: none;
    stroke: #0082c8;
  }
  .p4{
    stroke: none;
    fill: #f58231;
  }
  .q4{
    fill: none;
    stroke: #f58231;
  }
  .p5{
    stroke: none;
    fill: #911eb4;
  }
  .q5{
    fill: none;
    stroke: #911eb4;
  }
  .p6{
    stroke: none;
    fill: #46f0f0;
  }
  .q6{
    fill: none;
    stroke: #46f0f0;
  }
  .p7{
    stroke: none;
    fill: #f032e6;
  }
  .q7{
    fill: none;
    stroke: #f032e6;
  }
]]>
</style>
<symbol id="bl0">
<path d="M 52.23 455.03 L 50.00 454.54 L 47.26 454.53 L 43.38 453.81 L 39.51 453.55 L 35.79 454.01 L 32.03 455.27 L 29.38 456.88 L 27.04 458.07 L 25.10 459.46 L 24.30 461.66 L 23.86 464.31 L 23.30 468.05 L 23.23 471.74 L 23.23 475.52 L 24.20 479.25 L 25.16 481.94 L 26.15 484.37 L 27.34 486.38 L 29.43 487.39 L 31.95 488.16 L 35.30 488.99 L 38.92 490.00 L 42.64 489.94 L 46.38 489.16 L 49.65 488.31 L 52.22 487.55 L 54.41 486.58 L 55.58 484.54 L 56.55 482.09 L 57.48 478.88 L 58.82 475.13 L 59.14 471.45 L 59.05 467.63 L 58.08 464.04 L 57.41 461.37 L 56.71 459.16 L 57.37 458.59 L 58.41 457.76 L 60.38 456.18 L 62.48 454.50 L 64.58 452.83 L 66.68 451.15 L 68.78 449.47 L 70.87 447.80 L 72.97 446.12 L 75.07 444.44 L 77.17 442.77 L 79.27 441.09 L 81.37 439.41 L 83.47 437.74 L 85.56 436.06 L 87.66 434.38 L 89.76 432.70 L 91.86 431.03 L 93.96 429.35 L 96.06 427.67 L 98.16 426.00 L 100.26 424.32 L 102.35 422.64 L 104.45 420.97 L 106.55 419.29 L 108.65 417.61 L 110.75 415.94 L 112.85 414.26 L 114.95 412.58 L 117.05 410.91 L 119.14 409.23 L 121.24 407.55 L 123.34 405.88 L 125.44 404.20 L 127.54 402.52 L 129.64 400.85 L 131.74 399.17 L 133.84 397.49 L 135.93 395.82 L 138.03 394.14 L 140.13 392.46 L 142.23 390.79 L 144.33 389.11 L 146.43 387.43 L 148.53 385.76 L 150.63 384.08 L 152.72 382.40 L 154.82 380.73 L 156.92 379.05 L 159.02 377.37 L 161.12 375.70 L 163.22 374.02 L 165.32 372.34 L 167.42 370.66 L 169.51 368.99 L 171.61 367.31 L 173.71 365.63 L 175.81 363.96 L 177.91 362.28 L 180.01 360.60 L 182.11 358.93 L 184.21 357.25 L 186.30 355.57 L 188.40 353.90 L 190.50 352.22 L 192.60 350.54 L 194.70 348.87 L 196.80 347.19 L 198.90 345.51 L 200.99 343.84 L 203.09 342.16 L 205.19 340.48 L 207.29 338.81 L 209.39 337.13 L 211.49 335.45 L 213.59 333.78 L 215.69 332.10 L 217.78 330.42 L 219.88 328.75 L 221.98 327.07 L 224.08 325.39 L 226.18 323.72 L 228.28 322.04 L 230.38 320.36 L 232.48 318.69 L 234.57 317.01 L 236.67 315.33 L 238.77 313.66 L 240.87 311.98 L 242.97 310.30 L 245.07 308.62 L 247.17 306.95 L 249.27 305.27 L 251.36 303.59 L 253.46 301.92 L 255.56 300.24 L 257.66 298.56 L 259.76 296.89 L 261.86 295.21 L 263.96 293.53 L 266.06 291.86 L 268.15 290.18 L 270.25 288.50 L 272.35 286.83 L 274.45 285.15 L 276.55 283.47 L 278.65 281.80 L 280.75 280.12 L 282.85 278.44 L 284.94 276.77 L 287.04 275.09 L 289.14 273.41 L 291.24 271.74 L 293.34 270.06 L 295.44 268.38 L 297.54 266.71 L 299.64 265.03 L 301.73 263.35 L 303.83 261.68 L 305.81 260.13 L 306.96 259.70 L 309.10 260.72 L 311.41 261.29 L 313.41 260.94 L 315.28 260.06 L 317.00 258.92 L 318.36 257.48 L 318.69 255.48 L 318.74 253.39 L 318.33 251.38 L 317.36 249.59 L 315.72 248.02 L 313.65 246.90 L 313.26 245.92 L 313.36 243.65 L 313.50 241.21 L 313.63 238.77 L 313.77 236.33 L 313.91 233.89 L 314.05 231.45 L 314.23 229.14 L 314.89 227.90 L 317.37 226.60 L 319.30 224.68 L 320.41 222.24 L 320.67 219.58 L 319.58 217.14 L 317.80 215.13 L 315.39 213.87 L 312.47 213.42 L 311.47 212.27 L 310.52 209.93 L 309.55 207.44 L 308.57 204.94 L 307.60 202.44 L 306.62 199.95 L 305.72 197.59 L 305.48 196.20 L 307.42 194.70 L 309.16 192.64 L 310.19 190.17 L 309.94 187.42 L 309.09 184.80 L 307.56 182.66 L 305.13 181.53 L 302.43 180.86 L 299.65 181.10 L 297.38 182.65 L 295.49 184.55 L 294.32 186.76 L 293.14 186.80 L 290.79 186.31 L 288.29 185.77 L 285.78 185.23 L 283.27 184.68 L 280.77 184.14 L 278.26 183.60 L 275.75 183.05 L 273.24 182.51 L 270.74 181.97 L 268.23 181.43 L 265.72 180.88 L 263.21 180.34 L 260.71 179.80 L 258.20 179.25 L 255.69 178.71 L 253.18 178.17 L 250.68 177.63 L 248.26 177.07 L 246.77 176.42 L 246.35 173.61 L 244.67 171.11 L 241.92 169.99 L 238.81 170.30 L 236.53 172.20 L 235.36 175.08 L 235.92 178.01 L 237.45 180.38 L 236.88 181.76 L 235.46 183.88 L 233.96 186.10 L 232.46 188.33 L 230.95 190.55 L 229.44 192.78 L 227.94 195.01 L 226.43 197.23 L 224.93 199.46 L 223.42 201.69 L 221.92 203.91 L 220.41 206.14 L 218.91 208.37 L 217.40 210.59 L 215.90 212.82 L 214.39 215.05 L 212.89 217.27 L 211.38 219.50 L 209.88 221.72 L 208.37 223.95 L 206.86 226.18 L 205.36 228.40 L 203.85 230.63 L 202.35 232.86 L 200.84 235.08 L 199.34 237.31 L 197.83 239.54 L 196.33 241.76 L 194.82 243.99 L 193.32 246.22 L 191.81 248.44 L 190.31 250.67 L 188.80 252.89 L 187.30 255.12 L 185.79 257.35 L 184.28 259.57 L 182.78 261.80 L 181.27 264.03 L 179.77 266.25 L 178.26 268.48 L 176.76 270.71 L 175.25 272.93 L 173.75 275.16 L 172.24 277.39 L 170.74 279.61 L 169.23 281.84 L 167.73 284.06 L 166.22 286.29 L 164.72 288.52 L 163.21 290.74 L 161.71 292.97 L 160.20 295.20 L 158.69 297.42 L 157.19 299.65 L 155.68 301.88 L 154.18 304.10 L 152.67 306.33 L 151.17 308.56 L 149.66 310.78 L 148.16 313.01 L 146.65 315.23 L 145.15 317.46 L 143.64 319.69 L 142.14 321.91 L 140.63 324.14 L 139.11 326.35 L 137.20 328.12 L 135.38 330.34 L 134.27 332.95 L 133.10 335.27 L 131.60 337.50 L 130.09 339.73 L 128.59 341.95 L 127.08 344.18 L 125.58 346.40 L 124.07 348.63 L 122.57 350.86 L 121.06 353.08 L 119.56 355.31 L 118.05 357.54 L 116.55 359.76 L 115.04 361.99 L 113.53 364.22 L 112.03 366.44 L 110.52 368.67 L 109.02 370.90 L 107.51 373.12 L 106.01 375.35 L 104.50 377.57 L 103.00 379.80 L 101.49 382.03 L 99.99 384.25 L 98.48 386.48 L 96.98 388.71 L 95.47 390.93 L 93.97 393.16 L 92.46 395.39 L 90.95 397.61 L 89.45 399.84 L 87.94 402.06 L 86.44 404.29 L 84.93 406.52 L 83.43 408.74 L 81.92 410.97 L 80.42 413.20 L 78.91 415.42 L 77.41 417.65 L 75.90 419.88 L 74.40 422.10 L 72.89 424.33 L 71.39 426.56 L 69.88 428.78 L 68.37 431.01 L 66.87 433.23 L 65.36 435.46 L 63.86 437.69 L 62.35 439.91 L 60.85 442.14 L 59.34 444.37 L 57.84 446.59 L 56.33 448.82 L 54.83 451.04 L 53.42 453.14 L 52.76 454.22 Z" />
</symbol>
<symbol id="bl1">
<path d="M 179.23 184.36 L 177.30 184.56 L 175.54 185.26 L 174.50 186.76 L 174.20 188.50 L 174.12 190.28 L 174.96 191.88 L 177.06 192.65 L 178.99 193.70 L 180.94 194.20 L 182.18 195.16 L 183.76 197.16 L 185.38 199.26 L 187.00 201.37 L 188.63 203.47 L 190.25 205.58 L 191.87 207.68 L 193.50 209.79 L 195.12 211.89 L 196.74 214.00 L 198.37 216.10 L 199.99 218.21 L 201.61 220.31 L 203.24 222.41 L 204.86 224.52 L 206.48 226.62 L 208.11 228.73 L 209.73 230.83 L 211.25 232.87 L 211.83 234.35 L 210.79 236.60 L 210.98 238.98 L 211.79 241.09 L 213.27 242.74 L 215.39 243.36 L 217.63 243.13 L 219.89 242.45 L 221.62 240.61 L 223.01 240.49 L 225.36 241.02 L 227.85 241.61 L 230.32 242.17 L 232.49 242.24 L 233.41 240.26 L 234.03 237.79 L 234.63 235.28 L 235.23 232.77 L 235.83 230.26 L 236.43 227.75 L 237.03 225.25 L 237.59 222.88 L 237.80 221.57 L 237.58 221.31 L 235.37 220.08 L 233.56 218.08 L 232.67 215.51 L 232.58 213.05 L 232.60 212.68 L 232.76 212.45 L 233.86 210.17 L 235.83 208.23 L 238.39 207.19 L 241.06 206.96 L 241.35 207.00 L 241.56 207.27 L 244.04 208.42 L 246.08 210.53 L 247.09 213.18 L 247.14 215.98 L 247.06 216.25 L 246.83 216.46 L 245.58 218.86 L 243.43 220.77 L 240.75 221.59 L 238.15 221.52 L 237.82 221.58 L 237.59 222.88 L 237.03 225.25 L 236.43 227.75 L 235.83 230.26 L 235.23 232.77 L 234.63 235.28 L 234.04 237.79 L 233.47 240.27 L 233.38 242.45 L 235.28 243.36 L 237.65 243.96 L 240.05 244.53 L 242.43 245.10 L 244.60 245.71 L 245.70 246.80 L 247.14 249.64 L 250.21 250.74 L 253.25 249.72 L 255.53 247.66 L 256.38 246.47 L 258.01 246.06 L 260.60 245.79 L 263.27 245.51 L 265.94 245.24 L 268.61 244.97 L 271.28 244.69 L 273.95 244.42 L 276.62 244.14 L 279.29 243.87 L 281.96 243.60 L 284.64 243.32 L 287.31 243.05 L 289.98 242.77 L 292.65 242.50 L 295.32 242.23 L 297.99 241.95 L 300.66 241.68 L 303.33 241.40 L 306.01 241.13 L 308.68 240.86 L 311.35 240.58 L 314.02 240.31 L 316.69 240.03 L 319.36 239.76 L 322.03 239.49 L 324.70 239.21 L 327.38 238.94 L 330.05 238.66 L 332.72 238.39 L 335.39 238.12 L 338.06 237.84 L 340.73 237.57 L 343.40 237.29 L 346.07 237.02 L 348.75 236.75 L 351.41 236.47 L 353.95 236.23 L 355.42 236.33 L 356.73 239.00 L 358.87 241.44 L 361.57 242.67 L 362.03 242.67 L 364.40 242.49 L 366.72 241.56 L 368.51 240.01 L 369.76 238.10 L 369.88 237.62 L 369.70 234.51 L 368.79 231.41 L 366.71 229.08 L 363.53 228.41 L 360.25 228.65 L 357.71 229.88 L 356.53 229.05 L 354.75 227.29 L 352.89 225.42 L 351.01 223.55 L 349.14 221.68 L 347.27 219.80 L 345.40 217.93 L 343.53 216.06 L 341.66 214.18 L 339.79 212.31 L 337.92 210.44 L 336.05 208.57 L 334.18 206.69 L 332.31 204.82 L 330.44 202.95 L 328.57 201.07 L 326.70 199.20 L 324.83 197.33 L 322.96 195.45 L 321.08 193.58 L 319.21 191.71 L 317.34 189.84 L 315.47 187.96 L 313.60 186.09 L 311.73 184.22 L 309.86 182.34 L 307.99 180.47 L 306.12 178.60 L 304.25 176.72 L 302.38 174.85 L 300.51 172.98 L 298.64 171.11 L 296.77 169.23 L 294.90 167.36 L 293.03 165.49 L 291.16 163.61 L 289.28 161.74 L 287.41 159.87 L 285.54 157.99 L 283.67 156.12 L 281.80 154.25 L 279.93 152.38 L 278.06 150.50 L 276.19 148.63 L 274.32 146.76 L 272.45 144.88 L 270.58 143.01 L 268.71 141.14 L 266.97 139.32 L 266.45 137.97 L 267.19 135.09 L 266.21 132.52 L 264.63 130.55 L 262.79 129.23 L 261.97 129.07 L 259.71 129.54 L 257.80 130.76 L 257.45 131.06 L 257.25 131.51 L 255.99 133.56 L 255.88 136.52 L 255.92 136.80 L 255.14 137.52 L 253.06 138.64 L 250.82 139.82 L 248.59 141.01 L 246.35 142.19 L 244.11 143.38 L 241.87 144.56 L 239.64 145.75 L 237.40 146.93 L 235.16 148.12 L 232.93 149.30 L 230.73 150.50 L 229.06 151.86 L 229.65 153.88 L 230.78 156.06 L 231.94 158.25 L 233.10 160.45 L 234.26 162.64 L 235.42 164.84 L 236.58 167.03 L 237.68 169.11 L 238.28 170.26 L 238.59 170.31 L 240.61 169.82 L 242.89 170.06 L 244.78 171.13 L 246.13 172.55 L 246.29 172.76 L 246.30 173.04 L 246.79 175.03 L 246.58 177.33 L 245.54 179.25 L 244.12 180.65 L 243.92 180.79 L 243.62 180.78 L 241.60 181.29 L 239.27 181.07 L 237.35 180.03 L 235.97 178.56 L 235.84 178.36 L 235.84 178.07 L 235.33 176.02 L 235.56 173.72 L 236.63 171.81 L 238.12 170.48 L 238.26 170.27 L 237.68 169.11 L 236.58 167.03 L 235.42 164.84 L 234.26 162.64 L 233.10 160.45 L 231.94 158.25 L 230.77 156.06 L 229.60 153.90 L 228.27 152.27 L 226.32 152.83 L 224.20 153.92 L 222.08 155.04 L 219.96 156.16 L 217.83 157.29 L 215.71 158.41 L 213.64 159.50 L 211.80 160.35 L 210.28 160.09 L 207.36 159.16 L 204.61 160.16 L 203.02 162.64 L 202.74 165.40 L 202.61 166.67 L 200.95 168.23 L 199.00 169.92 L 197.03 171.62 L 195.06 173.32 L 193.08 175.03 L 191.11 176.73 L 189.14 178.43 L 187.17 180.14 L 185.20 181.84 L 183.29 183.45 L 181.97 183.74 Z" />
</symbol>
<symbol id="bl2">
<path d="M 233.48 134.88 L 231.93 132.16 L 229.02 130.57 L 225.93 130.89 L 223.88 132.43 L 223.44 132.90 L 222.84 134.05 L 222.46 135.53 L 222.42 137.07 L 222.81 138.39 L 222.95 138.90 L 225.12 140.97 L 228.10 142.13 L 228.72 143.32 L 229.12 145.76 L 229.52 148.36 L 229.92 150.97 L 230.32 153.58 L 230.72 156.19 L 231.12 158.80 L 231.52 161.41 L 231.92 164.02 L 232.32 166.63 L 232.72 169.24 L 233.12 171.85 L 233.52 174.46 L 233.92 177.07 L 234.32 179.69 L 234.72 182.30 L 235.12 184.91 L 235.52 187.52 L 235.92 190.13 L 236.32 192.74 L 236.72 195.35 L 237.12 197.96 L 237.52 200.57 L 237.92 203.18 L 238.27 205.67 L 238.11 207.16 L 235.41 208.57 L 233.33 210.97 L 232.62 214.11 L 233.18 217.29 L 235.08 219.78 L 237.85 221.38 L 241.22 221.42 L 244.17 220.46 L 245.18 221.18 L 246.72 223.03 L 248.35 225.03 L 249.98 227.03 L 251.61 229.02 L 253.25 231.02 L 254.88 233.02 L 256.51 235.02 L 258.14 237.02 L 259.78 239.01 L 261.41 241.01 L 263.04 243.01 L 264.67 245.01 L 266.30 247.01 L 267.94 249.01 L 269.57 251.00 L 271.20 253.00 L 272.83 255.00 L 274.34 256.89 L 274.88 258.11 L 273.55 260.68 L 272.94 263.87 L 273.53 266.61 L 275.42 268.80 L 278.11 270.30 L 281.06 270.62 L 283.76 269.39 L 286.05 267.33 L 287.46 264.62 L 286.60 261.25 L 285.15 258.32 L 282.84 256.28 L 282.97 255.28 L 283.81 252.94 L 284.73 250.42 L 285.65 247.89 L 286.57 245.37 L 287.48 242.84 L 288.40 240.31 L 289.32 237.79 L 290.24 235.26 L 291.16 232.74 L 292.08 230.21 L 292.99 227.68 L 293.91 225.16 L 294.83 222.63 L 295.75 220.10 L 296.67 217.58 L 297.59 215.05 L 298.50 212.53 L 299.42 210.00 L 300.34 207.47 L 301.26 204.95 L 302.18 202.42 L 303.10 199.90 L 304.09 197.48 L 305.67 196.02 L 308.07 194.19 L 309.75 191.52 L 310.14 188.36 L 309.58 185.25 L 309.26 183.27 L 310.04 180.81 L 310.95 178.28 L 311.87 175.76 L 312.79 173.23 L 313.71 170.70 L 314.63 168.17 L 315.55 165.64 L 316.47 163.11 L 317.39 160.58 L 318.30 158.06 L 319.22 155.53 L 320.14 153.00 L 321.06 150.47 L 321.98 147.94 L 322.90 145.41 L 323.82 142.89 L 324.74 140.36 L 325.66 137.83 L 326.53 135.46 L 327.22 134.25 L 330.03 134.24 L 332.84 133.35 L 334.83 131.55 L 335.54 128.87 L 335.34 126.01 L 334.25 123.91 L 332.28 122.39 L 329.65 121.60 L 327.11 121.83 L 325.01 123.20 L 323.32 125.36 L 322.44 127.84 L 321.17 128.33 L 318.70 128.56 L 316.08 128.77 L 313.45 128.98 L 310.82 129.20 L 308.20 129.41 L 305.57 129.62 L 302.94 129.83 L 300.33 129.97 L 297.75 129.78 L 294.97 129.97 L 292.42 130.60 L 289.80 130.89 L 287.18 131.10 L 284.55 131.32 L 281.92 131.53 L 279.29 131.74 L 276.67 131.95 L 274.04 132.16 L 271.42 132.37 L 268.87 132.54 L 266.74 132.36 L 264.96 131.15 L 263.17 129.95 L 261.28 129.32 L 259.48 130.26 L 257.57 131.38 L 256.20 133.09 L 254.45 133.70 L 252.07 133.94 L 249.60 134.14 L 247.12 134.34 L 244.65 134.54 L 242.17 134.74 L 239.70 134.94 L 237.22 135.13 L 234.85 135.28 Z" />
</symbol>
<symbol id="bl3">
<path d="M 146.38 327.04 L 146.07 327.12 L 143.10 326.57 L 139.84 327.06 L 137.18 328.73 L 135.26 331.05 L 135.18 331.19 L 135.17 331.40 L 134.45 334.37 L 134.72 337.58 L 136.12 340.27 L 138.01 342.21 L 138.45 342.47 L 141.04 342.94 L 144.07 343.19 L 147.11 342.36 L 149.28 340.98 L 150.28 338.42 L 151.08 335.49 L 150.82 332.21 L 149.93 329.75 L 150.69 328.82 L 152.58 327.16 L 154.60 325.40 L 156.64 323.64 L 158.67 321.87 L 160.70 320.11 L 162.74 318.34 L 164.77 316.58 L 166.80 314.81 L 168.84 313.05 L 170.87 311.28 L 172.90 309.52 L 174.93 307.75 L 176.97 305.99 L 179.00 304.22 L 181.03 302.46 L 183.07 300.69 L 185.10 298.93 L 187.13 297.16 L 189.16 295.40 L 191.20 293.63 L 193.23 291.87 L 195.26 290.10 L 197.30 288.34 L 199.33 286.57 L 201.36 284.81 L 203.40 283.04 L 205.43 281.28 L 207.46 279.51 L 209.49 277.75 L 211.53 275.98 L 213.56 274.22 L 215.59 272.45 L 217.63 270.69 L 219.66 268.92 L 221.69 267.16 L 223.72 265.39 L 225.76 263.63 L 227.79 261.86 L 229.82 260.10 L 231.86 258.33 L 233.89 256.57 L 235.92 254.80 L 237.96 253.04 L 239.99 251.27 L 242.02 249.51 L 243.99 247.68 L 245.35 245.39 L 246.77 242.46 L 249.46 240.04 L 252.34 239.90 L 254.22 238.90 L 256.25 237.15 L 258.28 235.39 L 260.32 233.62 L 262.35 231.86 L 264.38 230.09 L 266.42 228.33 L 268.45 226.56 L 270.48 224.80 L 272.52 223.03 L 274.55 221.27 L 276.58 219.50 L 278.61 217.74 L 280.65 215.97 L 282.68 214.21 L 284.71 212.44 L 286.75 210.68 L 288.78 208.91 L 290.81 207.15 L 292.84 205.38 L 294.88 203.62 L 296.91 201.85 L 298.94 200.09 L 300.98 198.35 L 303.09 196.80 L 305.67 196.10 L 307.58 194.86 L 309.05 193.17 L 310.15 190.84 L 311.74 189.00 L 313.68 187.30 L 315.63 185.60 L 317.58 183.91 L 319.53 182.21 L 321.49 180.52 L 323.44 178.82 L 325.39 177.13 L 327.34 175.43 L 329.30 173.74 L 331.25 172.04 L 333.20 170.35 L 335.15 168.65 L 337.11 166.96 L 339.06 165.26 L 341.01 163.56 L 342.96 161.87 L 344.92 160.17 L 346.87 158.48 L 348.73 156.87 L 349.62 156.31 L 350.83 155.68 L 351.45 155.84 L 354.53 156.78 L 356.77 156.00 L 357.11 155.36 L 358.29 153.54 L 358.64 151.33 L 358.06 149.38 L 356.79 147.75 L 355.99 147.84 L 353.93 147.21 L 351.66 147.28 L 351.53 147.59 L 350.38 147.30 L 348.86 146.06 L 346.94 144.26 L 344.99 142.43 L 343.03 140.59 L 341.08 138.75 L 339.13 136.91 L 337.18 135.08 L 335.36 133.33 L 334.59 132.16 L 335.38 129.98 L 335.69 127.56 L 335.31 125.73 L 335.14 125.29 L 334.35 124.00 L 333.19 122.80 L 331.73 121.97 L 330.29 121.51 L 330.07 121.46 L 329.85 121.46 L 328.33 121.53 L 326.66 121.96 L 325.18 122.81 L 323.99 123.87 L 323.88 123.98 L 323.78 124.12 L 323.04 125.53 L 322.52 127.31 L 322.70 129.28 L 323.02 131.01 L 323.13 131.21 L 322.28 131.79 L 320.22 133.01 L 318.00 134.30 L 315.78 135.60 L 313.55 136.89 L 311.32 138.19 L 309.10 139.48 L 306.87 140.78 L 304.65 142.07 L 302.42 143.37 L 300.20 144.66 L 297.97 145.96 L 295.75 147.25 L 293.52 148.55 L 291.30 149.84 L 289.07 151.14 L 286.85 152.43 L 284.62 153.73 L 282.40 155.02 L 280.18 156.24 L 277.93 157.02 L 275.41 157.43 L 273.01 158.24 L 271.10 159.91 L 269.46 161.86 L 267.75 163.45 L 265.62 164.78 L 263.41 166.08 L 261.20 167.37 L 258.98 168.66 L 256.77 169.94 L 254.55 171.23 L 252.34 172.52 L 250.12 173.81 L 248.00 175.14 L 246.78 176.75 L 245.74 178.89 L 243.96 180.56 L 241.65 181.28 L 239.16 181.24 L 237.25 181.42 L 235.03 182.60 L 232.76 183.92 L 230.50 185.23 L 228.24 186.55 L 225.97 187.87 L 223.71 189.19 L 221.45 190.50 L 219.31 191.70 L 218.04 191.93 L 216.07 190.60 L 213.85 189.92 L 211.82 189.11 L 209.59 189.33 L 207.39 189.83 L 205.41 190.70 L 204.10 192.44 L 203.00 194.39 L 202.31 196.50 L 202.48 198.70 L 202.69 201.09 L 203.56 203.29 L 202.99 204.46 L 201.27 206.27 L 199.42 208.18 L 197.56 210.09 L 195.69 212.00 L 193.83 213.91 L 191.99 215.80 L 190.22 217.45 L 188.57 217.67 L 185.33 217.69 L 183.03 219.85 L 182.66 223.03 L 183.67 225.73 L 184.25 226.86 L 183.51 229.10 L 182.57 231.57 L 181.62 234.06 L 180.68 236.55 L 179.73 239.04 L 178.78 241.53 L 177.84 244.02 L 176.89 246.51 L 175.95 249.00 L 175.00 251.50 L 174.05 253.99 L 173.11 256.48 L 172.16 258.97 L 171.21 261.46 L 170.27 263.95 L 169.32 266.44 L 168.37 268.93 L 167.43 271.42 L 166.48 273.91 L 165.53 276.40 L 164.59 278.89 L 163.64 281.38 L 162.69 283.87 L 161.75 286.36 L 160.80 288.86 L 159.85 291.35 L 158.91 293.84 L 157.96 296.33 L 157.01 298.82 L 156.07 301.31 L 155.12 303.80 L 154.17 306.29 L 153.23 308.78 L 152.28 311.27 L 151.33 313.76 L 150.39 316.25 L 149.44 318.74 L 148.49 321.23 L 147.55 323.72 L 146.67 326.04 Z" />
</symbol>
<symbol id="bl4">
<path d="M 280.53 256.09 L 277.97 256.56 L 275.57 257.79 L 273.83 259.51 L 273.05 261.96 L 272.97 264.61 L 273.65 266.89 L 275.24 268.72 L 277.35 270.08 L 279.76 270.71 L 282.18 270.29 L 284.50 269.19 L 286.34 267.66 L 287.66 267.97 L 289.87 269.15 L 292.20 270.44 L 294.54 271.72 L 296.87 273.01 L 299.21 274.30 L 301.54 275.58 L 303.88 276.87 L 306.21 278.15 L 308.55 279.44 L 310.88 280.73 L 313.22 282.01 L 315.55 283.30 L 317.89 284.59 L 320.22 285.87 L 322.56 287.16 L 324.89 288.44 L 327.23 289.73 L 329.56 291.02 L 331.90 292.30 L 334.23 293.59 L 336.57 294.88 L 338.90 296.16 L 341.24 297.45 L 343.57 298.74 L 345.91 300.02 L 348.24 301.31 L 350.58 302.59 L 352.91 303.88 L 355.25 305.17 L 357.58 306.45 L 359.92 307.74 L 362.25 309.03 L 364.59 310.31 L 366.92 311.60 L 369.26 312.88 L 371.59 314.17 L 373.93 315.46 L 376.26 316.74 L 378.60 318.03 L 380.93 319.32 L 383.27 320.60 L 385.60 321.89 L 387.94 323.17 L 390.27 324.46 L 392.61 325.75 L 394.94 327.03 L 397.28 328.32 L 399.61 329.61 L 401.95 330.89 L 404.28 332.18 L 406.62 333.47 L 408.95 334.75 L 411.29 336.04 L 413.62 337.32 L 415.96 338.61 L 418.29 339.90 L 420.63 341.18 L 422.96 342.47 L 425.30 343.76 L 427.63 345.04 L 429.97 346.33 L 432.30 347.61 L 434.64 348.90 L 436.97 350.19 L 439.31 351.47 L 441.64 352.76 L 443.98 354.05 L 446.31 355.33 L 448.65 356.62 L 450.98 357.90 L 453.32 359.19 L 455.65 360.48 L 457.99 361.76 L 460.32 363.05 L 462.65 364.34 L 464.99 365.62 L 467.16 366.86 L 468.19 368.17 L 468.14 371.11 L 470.28 373.54 L 473.38 373.77 L 476.08 371.87 L 476.77 369.08 L 475.66 366.09 L 474.85 365.82 L 472.15 364.55 L 469.31 365.10 L 469.05 365.40 L 468.64 365.01 L 467.15 363.04 L 465.53 360.90 L 463.91 358.75 L 462.29 356.60 L 460.67 354.45 L 459.05 352.30 L 457.42 350.15 L 455.80 348.00 L 454.18 345.85 L 452.56 343.70 L 450.94 341.55 L 449.32 339.40 L 447.69 337.25 L 446.07 335.10 L 444.45 332.96 L 442.83 330.81 L 441.21 328.66 L 439.59 326.51 L 437.96 324.36 L 436.34 322.21 L 434.72 320.06 L 433.10 317.91 L 431.48 315.76 L 429.85 313.61 L 428.23 311.46 L 426.61 309.31 L 424.99 307.16 L 423.37 305.01 L 421.75 302.87 L 420.12 300.72 L 418.50 298.57 L 416.88 296.42 L 415.26 294.27 L 413.64 292.12 L 412.02 289.97 L 410.39 287.82 L 408.77 285.67 L 407.15 283.52 L 405.53 281.37 L 403.91 279.22 L 402.29 277.07 L 400.66 274.92 L 399.04 272.78 L 397.42 270.63 L 395.80 268.48 L 394.18 266.33 L 392.56 264.18 L 390.93 262.03 L 389.31 259.88 L 387.69 257.73 L 386.07 255.58 L 384.45 253.43 L 382.83 251.28 L 381.20 249.13 L 379.58 246.98 L 377.96 244.83 L 376.34 242.69 L 374.72 240.54 L 373.10 238.39 L 371.52 236.23 L 370.29 233.96 L 369.27 231.23 L 367.14 229.10 L 365.05 227.56 L 363.37 225.49 L 361.74 223.34 L 360.12 221.19 L 358.50 219.04 L 356.88 216.89 L 355.26 214.74 L 353.63 212.60 L 352.01 210.45 L 350.39 208.30 L 348.77 206.15 L 347.15 204.00 L 345.53 201.85 L 343.90 199.70 L 342.28 197.55 L 340.66 195.40 L 339.04 193.25 L 337.42 191.10 L 335.80 188.95 L 334.17 186.80 L 332.55 184.66 L 330.93 182.51 L 329.31 180.36 L 327.69 178.21 L 326.06 176.06 L 324.44 173.91 L 322.82 171.76 L 321.20 169.61 L 319.58 167.46 L 317.96 165.31 L 316.33 163.16 L 314.71 161.01 L 313.09 158.86 L 311.47 156.71 L 309.85 154.57 L 308.23 152.42 L 306.60 150.27 L 304.98 148.12 L 303.36 145.97 L 301.85 143.95 L 301.16 142.93 L 301.22 142.70 L 302.77 140.94 L 303.79 138.55 L 303.87 135.97 L 303.23 133.70 L 303.03 133.35 L 300.81 131.33 L 297.80 129.91 L 294.67 129.93 L 292.04 131.69 L 290.00 134.14 L 289.15 137.25 L 290.51 140.31 L 292.52 142.91 L 295.21 144.40 L 295.33 145.62 L 295.02 148.07 L 294.68 150.67 L 294.34 153.29 L 294.00 155.90 L 293.65 158.51 L 293.31 161.13 L 292.97 163.74 L 292.63 166.35 L 292.29 168.97 L 291.95 171.58 L 291.61 174.19 L 291.26 176.81 L 290.92 179.42 L 290.58 182.03 L 290.24 184.65 L 289.90 187.26 L 289.56 189.87 L 289.22 192.48 L 288.87 195.10 L 288.53 197.71 L 288.19 200.32 L 287.85 202.94 L 287.51 205.55 L 287.17 208.16 L 286.83 210.78 L 286.48 213.39 L 286.14 216.00 L 285.80 218.62 L 285.46 221.23 L 285.18 223.78 L 285.19 226.17 L 285.70 228.73 L 285.46 230.18 L 285.00 231.48 L 284.24 233.74 L 283.62 235.84 L 283.24 238.20 L 282.92 240.63 L 282.61 243.07 L 282.29 245.51 L 281.97 247.94 L 281.65 250.38 L 281.33 252.81 L 281.01 255.08 Z" />
</symbol>
<symbol id="bl5">
<path d="M 308.08 182.98 L 307.82 182.99 L 305.64 181.57 L 302.90 180.83 L 300.11 181.07 L 297.71 181.99 L 297.41 182.24 L 296.12 184.40 L 294.84 186.86 L 294.50 189.88 L 295.05 192.29 L 296.86 194.16 L 299.11 195.79 L 302.02 196.59 L 304.48 196.51 L 306.60 195.01 L 308.57 193.11 L 309.86 190.47 L 310.36 188.20 L 311.64 187.90 L 314.14 187.65 L 316.77 187.40 L 319.42 187.15 L 322.06 186.89 L 324.70 186.64 L 327.34 186.38 L 329.98 186.13 L 332.63 185.88 L 335.27 185.62 L 337.91 185.37 L 340.55 185.11 L 343.20 184.86 L 345.84 184.61 L 348.48 184.35 L 351.12 184.10 L 353.76 183.84 L 356.41 183.59 L 359.05 183.34 L 361.58 183.13 L 363.09 183.50 L 365.51 184.40 L 366.99 185.55 L 368.78 186.11 L 370.35 185.62 L 371.65 184.65 L 372.60 183.45 L 373.11 182.08 L 373.09 181.52 L 372.91 179.97 L 372.37 178.26 L 372.23 178.34 L 371.81 176.87 L 372.36 174.77 L 373.23 172.32 L 374.12 169.84 L 375.00 167.36 L 375.89 164.87 L 376.78 162.39 L 377.66 159.91 L 378.55 157.42 L 379.44 154.94 L 380.32 152.46 L 381.21 149.97 L 382.10 147.49 L 382.99 145.01 L 383.87 142.52 L 384.76 140.04 L 385.65 137.56 L 386.53 135.07 L 387.42 132.59 L 388.31 130.11 L 389.19 127.62 L 390.08 125.14 L 390.97 122.66 L 391.85 120.17 L 392.74 117.69 L 393.63 115.21 L 394.52 112.72 L 395.40 110.24 L 396.29 107.76 L 397.18 105.27 L 398.06 102.79 L 398.95 100.31 L 399.84 97.82 L 400.73 95.34 L 401.64 92.97 L 402.75 91.80 L 405.75 90.94 L 407.95 88.68 L 408.37 85.59 L 406.79 82.56 L 402.58 81.99 L 399.12 83.85 L 398.22 87.49 L 399.97 90.89 L 399.09 91.53 L 397.32 93.27 L 395.44 95.16 L 393.56 97.05 L 391.67 98.95 L 389.79 100.84 L 387.91 102.73 L 386.03 104.63 L 384.14 106.52 L 382.26 108.41 L 380.38 110.30 L 378.49 112.20 L 376.61 114.09 L 374.73 115.98 L 372.84 117.87 L 370.96 119.77 L 369.08 121.66 L 367.19 123.55 L 365.31 125.44 L 363.43 127.34 L 361.54 129.23 L 359.66 131.12 L 357.78 133.01 L 355.89 134.91 L 354.01 136.80 L 352.13 138.69 L 350.24 140.58 L 348.36 142.48 L 346.48 144.37 L 344.59 146.26 L 342.71 148.15 L 340.83 150.05 L 338.94 151.94 L 337.06 153.83 L 335.18 155.72 L 333.29 157.62 L 331.41 159.51 L 329.53 161.40 L 327.65 163.29 L 325.76 165.19 L 323.88 167.08 L 322.00 168.97 L 320.11 170.86 L 318.23 172.76 L 316.35 174.65 L 314.46 176.54 L 312.58 178.43 L 310.70 180.32 L 308.93 182.10 Z" />
</symbol>
<symbol id="bl6">
<path d="M 307.92 182.88 L 305.46 181.71 L 302.62 180.87 L 299.65 181.11 L 297.25 182.81 L 295.31 184.96 L 294.27 187.69 L 294.69 190.69 L 295.80 193.41 L 297.53 195.31 L 297.95 195.55 L 299.77 196.40 L 302.00 196.81 L 304.23 196.55 L 306.12 195.87 L 306.32 195.83 L 306.91 196.96 L 308.12 199.11 L 309.41 201.38 L 310.71 203.66 L 312.00 205.94 L 313.30 208.22 L 314.59 210.50 L 315.93 212.71 L 317.43 214.55 L 318.94 215.91 L 320.19 217.41 L 320.80 219.27 L 321.26 221.29 L 322.05 223.49 L 323.26 225.76 L 324.55 228.04 L 325.84 230.32 L 327.14 232.60 L 328.43 234.89 L 329.73 237.17 L 331.03 239.45 L 332.32 241.73 L 333.62 244.02 L 334.91 246.30 L 336.21 248.58 L 337.50 250.86 L 338.80 253.15 L 340.09 255.43 L 341.36 257.67 L 341.98 259.14 L 342.14 260.26 L 341.80 260.69 L 340.39 263.41 L 340.77 265.90 L 341.62 266.49 L 343.51 267.94 L 345.90 268.20 L 348.04 267.17 L 349.37 264.90 L 349.49 262.29 L 348.14 259.27 L 348.05 258.51 L 348.58 257.15 L 349.62 254.76 L 350.70 252.30 L 351.77 249.84 L 352.85 247.38 L 353.92 244.91 L 355.00 242.45 L 355.96 240.02 L 355.88 237.93 L 355.50 235.13 L 356.12 232.31 L 357.74 230.09 L 359.92 228.44 L 361.58 227.09 L 362.72 224.76 L 363.80 222.31 L 364.87 219.85 L 365.94 217.39 L 367.02 214.94 L 368.09 212.48 L 369.17 210.02 L 370.24 207.56 L 371.31 205.10 L 372.39 202.64 L 373.46 200.19 L 374.53 197.73 L 375.61 195.27 L 376.68 192.81 L 377.76 190.35 L 378.83 187.89 L 379.90 185.44 L 380.98 182.98 L 382.05 180.52 L 383.13 178.06 L 384.20 175.60 L 385.27 173.15 L 386.35 170.69 L 387.42 168.23 L 388.49 165.77 L 389.57 163.31 L 390.64 160.85 L 391.72 158.40 L 392.79 155.94 L 393.86 153.48 L 394.94 151.02 L 396.01 148.56 L 397.08 146.10 L 398.16 143.65 L 399.23 141.19 L 400.31 138.73 L 401.38 136.27 L 402.45 133.81 L 403.53 131.35 L 404.60 128.90 L 405.68 126.44 L 406.75 123.98 L 407.82 121.52 L 408.90 119.06 L 409.97 116.60 L 411.04 114.15 L 412.12 111.69 L 413.19 109.23 L 414.27 106.77 L 415.34 104.31 L 416.41 101.85 L 417.49 99.40 L 418.56 96.94 L 419.64 94.48 L 420.71 92.02 L 421.78 89.56 L 422.86 87.10 L 423.93 84.65 L 425.00 82.19 L 426.08 79.73 L 427.15 77.27 L 428.23 74.81 L 429.30 72.35 L 430.37 69.90 L 431.45 67.44 L 432.52 64.98 L 433.59 62.53 L 434.62 60.22 L 435.41 59.05 L 438.48 58.92 L 441.61 58.02 L 443.67 56.10 L 443.85 55.73 L 444.49 53.52 L 444.36 51.04 L 443.34 48.88 L 441.83 47.31 L 441.42 47.07 L 438.58 46.50 L 435.44 46.78 L 432.83 48.36 L 431.89 51.43 L 431.76 54.64 L 432.87 57.38 L 432.13 58.44 L 430.42 60.17 L 428.58 62.01 L 426.75 63.86 L 424.91 65.70 L 423.07 67.55 L 421.23 69.39 L 419.40 71.23 L 417.56 73.08 L 415.72 74.92 L 413.89 76.77 L 412.05 78.61 L 410.21 80.45 L 408.48 82.22 L 407.60 83.32 L 407.71 83.59 L 408.34 85.13 L 408.54 86.95 L 408.15 88.66 L 407.38 90.03 L 406.80 90.36 L 404.19 91.71 L 400.51 91.28 L 399.20 91.61 L 397.42 93.30 L 395.55 95.17 L 393.68 97.04 L 391.82 98.92 L 389.95 100.79 L 388.08 102.66 L 386.22 104.54 L 384.35 106.41 L 382.48 108.29 L 380.61 110.16 L 378.75 112.03 L 376.88 113.91 L 375.01 115.78 L 373.14 117.66 L 371.28 119.53 L 369.41 121.41 L 367.54 123.28 L 365.68 125.15 L 363.81 127.03 L 361.94 128.90 L 360.07 130.78 L 358.21 132.65 L 356.34 134.52 L 354.47 136.40 L 352.61 138.27 L 350.74 140.15 L 348.91 142.02 L 347.60 143.82 L 348.50 145.34 L 349.85 146.71 L 350.71 147.24 L 352.61 147.59 L 355.51 147.72 L 357.60 149.38 L 358.28 151.83 L 357.92 154.25 L 354.34 155.28 L 351.02 154.29 L 349.49 151.00 L 351.54 147.52 L 350.64 147.25 L 349.85 146.71 L 348.46 145.39 L 346.94 144.49 L 345.18 145.76 L 343.36 147.55 L 341.54 149.38 L 339.72 151.21 L 337.90 153.04 L 336.08 154.86 L 334.25 156.69 L 332.43 158.52 L 330.61 160.35 L 328.79 162.18 L 326.97 164.00 L 325.15 165.83 L 323.33 167.66 L 321.50 169.49 L 319.68 171.32 L 317.86 173.15 L 316.04 174.97 L 314.22 176.80 L 312.40 178.63 L 310.58 180.45 L 308.86 182.16 Z" />
</symbol>
<symbol id="bl7">
<path d="M 46.70 25.61 L 47.99 22.72 L 49.30 19.44 L 49.12 15.57 L 47.94 12.77 L 44.94 11.30 L 41.64 10.00 L 37.77 10.15 L 34.93 11.33 L 33.46 14.36 L 32.18 17.70 L 32.40 21.61 L 33.59 24.35 L 36.58 25.84 L 39.89 27.12 L 43.80 26.87 L 46.40 25.85 L 47.30 26.71 L 48.87 28.65 L 50.53 30.73 L 52.20 32.81 L 53.86 34.88 L 55.53 36.96 L 57.20 39.04 L 58.86 41.12 L 60.53 43.20 L 62.20 45.28 L 63.87 47.35 L 65.53 49.43 L 67.20 51.51 L 68.87 53.59 L 70.53 55.67 L 72.20 57.75 L 73.87 59.82 L 75.53 61.90 L 77.20 63.98 L 78.87 66.06 L 80.53 68.14 L 82.20 70.22 L 83.87 72.29 L 85.54 74.37 L 87.20 76.45 L 88.87 78.53 L 90.54 80.61 L 92.20 82.69 L 93.87 84.77 L 95.54 86.84 L 97.20 88.92 L 98.87 91.00 L 100.54 93.08 L 102.20 95.16 L 103.87 97.24 L 105.54 99.31 L 107.21 101.39 L 108.87 103.47 L 110.54 105.55 L 112.21 107.63 L 113.87 109.71 L 115.54 111.78 L 117.21 113.86 L 118.87 115.94 L 120.54 118.02 L 122.21 120.10 L 123.87 122.18 L 125.54 124.25 L 127.21 126.33 L 128.88 128.41 L 130.54 130.49 L 132.21 132.57 L 133.88 134.65 L 135.54 136.73 L 137.21 138.80 L 138.88 140.88 L 140.54 142.96 L 142.21 145.04 L 143.88 147.12 L 145.54 149.20 L 147.21 151.27 L 148.88 153.35 L 150.55 155.43 L 152.21 157.51 L 153.88 159.59 L 155.55 161.67 L 157.21 163.74 L 158.88 165.82 L 160.55 167.90 L 162.21 169.98 L 163.88 172.06 L 165.55 174.14 L 167.22 176.21 L 168.88 178.29 L 170.55 180.37 L 172.21 182.45 L 173.79 184.50 L 174.49 186.21 L 173.97 188.42 L 174.66 190.60 L 176.15 192.07 L 179.71 191.14 L 181.14 188.64 L 179.27 184.47 L 176.78 184.78 L 175.12 185.64 L 173.79 184.41 L 172.21 182.45 L 170.55 180.37 L 168.88 178.29 L 167.22 176.21 L 165.55 174.14 L 163.88 172.06 L 162.21 169.98 L 160.55 167.90 L 158.88 165.82 L 157.21 163.74 L 155.55 161.67 L 153.88 159.59 L 152.21 157.51 L 150.55 155.43 L 148.88 153.35 L 147.21 151.27 L 145.54 149.20 L 143.88 147.12 L 142.21 145.04 L 140.54 142.96 L 138.88 140.88 L 137.21 138.80 L 135.54 136.73 L 133.88 134.65 L 132.21 132.57 L 130.54 130.49 L 128.88 128.41 L 127.21 126.33 L 125.54 124.25 L 123.87 122.18 L 122.21 120.10 L 120.54 118.02 L 118.87 115.94 L 117.21 113.86 L 115.54 111.78 L 113.87 109.71 L 112.21 107.63 L 110.54 105.55 L 108.87 103.47 L 107.21 101.39 L 105.54 99.31 L 103.87 97.24 L 102.20 95.16 L 100.54 93.08 L 98.87 91.00 L 97.20 88.92 L 95.54 86.84 L 93.87 84.77 L 92.20 82.69 L 90.54 80.61 L 88.87 78.53 L 87.20 76.45 L 85.54 74.37 L 83.87 72.29 L 82.20 70.22 L 80.53 68.14 L 78.87 66.06 L 77.20 63.98 L 75.53 61.90 L 73.87 59.82 L 72.20 57.75 L 70.53 55.67 L 68.87 53.59 L 67.20 51.51 L 65.53 49.43 L 63.87 47.35 L 62.20 45.28 L 60.53 43.20 L 58.86 41.12 L 57.20 39.04 L 55.53 36.96 L 53.86 34.88 L 52.20 32.81 L 50.53 30.73 L 48.87 28.65 L 47.31 26.70 Z" />
</symbol>
</defs>
<!-- isDone: 0 -->
<rect width="700" height="500" style="fill:#fff;stroke-width:0" />
<use class="p0 borderLine" xlink:href="#bl0"/>
<use class="p1 borderLine" xlink:href="#bl1"/>
<use class="p2 borderLine" xlink:href="#bl2"/>
<use class="p3 borderLine" xlink:href="#bl3"/>
<use class="p4 borderLine" xlink:href="#bl4"/>
<use class="p5 borderLine" xlink:href="#bl5"/>
<use class="p6 borderLine" xlink:href="#bl6"/>
<use class="p7 borderLine" xlink:href="#bl7"/>
<use class="q0 outLine" xlink:href="#bl0"/>
<use class="q1 outLine" xlink:href="#bl1"/>
<use class="q2 outLine" xlink:href="#bl2"/>
<use class="q3 outLine" xlink:href="#bl3"/>
<use class="q4 outLine" xlink:href="#bl4"/>
<use class="q5 outLine" xlink:href="#bl5"/>
<use class="q6 outLine" xlink:href="#bl6"/>
<use class="q7 outLine" xlink:href="#bl7"/>
<circle onclick="fromCircle(1)" class="circle" cx="41.1963" cy="471.7910" r="17.0603" />
<text class="tLabel" x="41.20" y="451.79"></text>
<text class="nLabel" x="41.20" y="466.79">40</text>
<text class="belong" x="41.20" y="476.79">(1)</text>
<circle onclick="fromCircle(3)" class="circle" cx="251.2586" cy="244.6656" r="4.5355" />
<text class="tLabel" x="251.26" y="224.67"></text>
<text class="nLabel" x="251.26" y="239.67">1</text>
<text class="belong" x="251.26" y="249.67">(1, 2)</text>
<circle onclick="fromCircle(7)" class="circle" cx="279.9255" cy="229.4238" r="4.5355" />
<text class="tLabel" x="279.93" y="209.42"></text>
<text class="nLabel" x="279.93" y="224.42">1</text>
<text class="belong" x="279.93" y="234.42">(1, 2, 3)</text>
<circle onclick="fromCircle(15)" class="circle" cx="269.4223" cy="197.8959" r="4.5355" />
<text class="tLabel" x="269.42" y="177.90"></text>
<text class="nLabel" x="269.42" y="192.90">2</text>
<text class="belong" x="269.42" y="202.90">(1, 2, 3, 4)</text>
<circle onclick="fromCircle(127)" class="circle" cx="302.2354" cy="188.8665" r="6.6074" />
<text class="tLabel" x="302.24" y="168.87"></text>
<text class="nLabel" x="302.24" y="183.87">6</text>
<text class="belong" x="302.24" y="193.87">(1, 2, 3, 4, 5, 6, 7)</text>
<circle onclick="fromCircle(2)" class="circle" cx="208.4678" cy="165.5049" r="4.5355" />
<text class="tLabel" x="208.47" y="145.50"></text>
<text class="nLabel" x="208.47" y="160.50">1</text>
<text class="belong" x="208.47" y="170.50">(2)</text>
<circle onclick="fromCircle(6)" class="circle" cx="261.4306" cy="135.4344" r="4.6721" />
<text class="tLabel" x="261.43" y="115.43"></text>
<text class="nLabel" x="261.43" y="130.43">3</text>
<text class="belong" x="261.43" y="140.43">(2, 3)</text>
<circle onclick="fromCircle(14)" class="circle" cx="277.4794" cy="165.9350" r="7.1368" />
<text class="tLabel" x="277.48" y="145.93"></text>
<text class="nLabel" x="277.48" y="160.93">7</text>
<text class="belong" x="277.48" y="170.93">(2, 3, 4)</text>
<circle onclick="fromCircle(10)" class="circle" cx="211.9568" cy="199.1037" r="7.6296" />
<text class="tLabel" x="211.96" y="179.10"></text>
<text class="nLabel" x="211.96" y="194.10">8</text>
<text class="belong" x="211.96" y="204.10">(2, 4)</text>
<circle onclick="fromCircle(18)" class="circle" cx="362.6420" cy="235.4563" r="6.0317" />
<text class="tLabel" x="362.64" y="215.46"></text>
<text class="nLabel" x="362.64" y="230.46">5</text>
<text class="belong" x="362.64" y="240.46">(2, 5)</text>
<circle onclick="fromCircle(130)" class="circle" cx="181.1232" cy="188.6602" r="4.5355" />
<text class="tLabel" x="181.12" y="168.66"></text>
<text class="nLabel" x="181.12" y="183.66">1</text>
<text class="belong" x="181.12" y="193.66">(2, 8)</text>
<circle onclick="fromCircle(4)" class="circle" cx="227.9424" cy="136.1317" r="4.6721" />
<text class="tLabel" x="227.94" y="116.13"></text>
<text class="nLabel" x="227.94" y="131.13">3</text>
<text class="belong" x="227.94" y="141.13">(3)</text>
<circle onclick="fromCircle(5)" class="circle" cx="241.0609" cy="175.5707" r="4.6721" />
<text class="tLabel" x="241.06" y="155.57"></text>
<text class="nLabel" x="241.06" y="170.57">3</text>
<text class="belong" x="241.06" y="180.57">(1, 3)</text>
<circle onclick="fromCircle(13)" class="circle" cx="239.8131" cy="214.3661" r="6.0317" />
<text class="tLabel" x="239.81" y="194.37"></text>
<text class="nLabel" x="239.81" y="209.37">5</text>
<text class="belong" x="239.81" y="219.37">(1, 3, 4)</text>
<circle onclick="fromCircle(12)" class="circle" cx="329.2275" cy="127.9326" r="5.3949" />
<text class="tLabel" x="329.23" y="107.93"></text>
<text class="nLabel" x="329.23" y="122.93">4</text>
<text class="belong" x="329.23" y="132.93">(3, 4)</text>
<circle onclick="fromCircle(20)" class="circle" cx="296.8312" cy="136.9257" r="6.0317" />
<text class="tLabel" x="296.83" y="116.93"></text>
<text class="nLabel" x="296.83" y="131.93">5</text>
<text class="belong" x="296.83" y="141.93">(3, 5)</text>
<circle onclick="fromCircle(21)" class="circle" cx="279.9214" cy="263.5480" r="6.0317" />
<text class="tLabel" x="279.92" y="243.55"></text>
<text class="nLabel" x="279.92" y="258.55">5</text>
<text class="belong" x="279.92" y="268.55">(1, 3, 5)</text>
<circle onclick="fromCircle(8)" class="circle" cx="188.8182" cy="223.3876" r="4.5355" />
<text class="tLabel" x="188.82" y="203.39"></text>
<text class="nLabel" x="188.82" y="218.39">1</text>
<text class="belong" x="188.82" y="228.39">(4)</text>
<circle onclick="fromCircle(9)" class="circle" cx="142.8045" cy="334.9950" r="7.1368" />
<text class="tLabel" x="142.80" y="314.99"></text>
<text class="nLabel" x="142.80" y="329.99">7</text>
<text class="belong" x="142.80" y="339.99">(1, 4)</text>
<circle onclick="fromCircle(11)" class="circle" cx="216.6370" cy="237.6226" r="4.6721" />
<text class="tLabel" x="216.64" y="217.62"></text>
<text class="nLabel" x="216.64" y="232.62">3</text>
<text class="belong" x="216.64" y="242.62">(1, 2, 4)</text>
<circle onclick="fromCircle(40)" class="circle" cx="352.9037" cy="152.1026" r="4.5355" />
<text class="tLabel" x="352.90" y="132.10"></text>
<text class="nLabel" x="352.90" y="147.10">1</text>
<text class="belong" x="352.90" y="157.10">(4, 6)</text>
<circle onclick="fromCircle(16)" class="circle" cx="471.8451" cy="369.4130" r="4.5355" />
<text class="tLabel" x="471.85" y="349.41"></text>
<text class="nLabel" x="471.85" y="364.41">1</text>
<text class="belong" x="471.85" y="374.41">(5)</text>
<circle onclick="fromCircle(17)" class="circle" cx="311.1158" cy="253.6722" r="6.0317" />
<text class="tLabel" x="311.12" y="233.67"></text>
<text class="nLabel" x="311.12" y="248.67">5</text>
<text class="belong" x="311.12" y="258.67">(1, 5)</text>
<circle onclick="fromCircle(19)" class="circle" cx="312.5184" cy="220.8469" r="6.0317" />
<text class="tLabel" x="312.52" y="200.85"></text>
<text class="nLabel" x="312.52" y="215.85">5</text>
<text class="belong" x="312.52" y="225.85">(1, 2, 5)</text>
<circle onclick="fromCircle(80)" class="circle" cx="345.1437" cy="262.7884" r="4.5355" />
<text class="tLabel" x="345.14" y="242.79"></text>
<text class="nLabel" x="345.14" y="257.79">1</text>
<text class="belong" x="345.14" y="267.79">(5, 7)</text>
<circle onclick="fromCircle(32)" class="circle" cx="403.4889" cy="86.8146" r="4.5355" />
<text class="tLabel" x="403.49" y="66.81"></text>
<text class="nLabel" x="403.49" y="81.81">2</text>
<text class="belong" x="403.49" y="91.81">(6)</text>
<circle onclick="fromCircle(96)" class="circle" cx="367.1147" cy="179.5364" r="4.5355" />
<text class="tLabel" x="367.11" y="159.54"></text>
<text class="nLabel" x="367.11" y="174.54">1</text>
<text class="belong" x="367.11" y="184.54">(6, 7)</text>
<circle onclick="fromCircle(64)" class="circle" cx="438.2091" cy="52.6545" r="5.3949" />
<text class="tLabel" x="438.21" y="32.65"></text>
<text class="nLabel" x="438.21" y="47.65">4</text>
<text class="belong" x="438.21" y="57.65">(7)</text>
<circle onclick="fromCircle(128)" class="circle" cx="40.8011" cy="18.6271" r="7.6296" />
<text class="tLabel" x="40.80" y="-1.37"></text>
<text class="nLabel" x="40.80" y="13.63">8</text>
<text class="belong" x="40.80" y="23.63">(8)</text>
<rect class="p0 borderLine" x="500.00" y="50.00" width="30.00" height="15.00" />
<rect class="q0" x="500.00" y="50.00" width="30.00" height="15.00" />
<text class="legend" x="540.00" y="65.00">Ball2017</text>
<rect class="p1 borderLine" x="500.00" y="90.00" width="30.00" height="15.00" />
<rect class="q1" x="500.00" y="90.00" width="30.00" height="15.00" />
<text class="legend" x="540.00" y="105.00">Courtois2015</text>
<rect class="p2 borderLine" x="500.00" y="130.00" width="30.00" height="15.00" />
<rect class="q2" x="500.00" y="130.00" width="30.00" height="15.00" />
<text class="legend" x="540.00" y="145.00">Hilton2017</text>
<rect class="p3 borderLine" x="500.00" y="170.00" width="30.00" height="15.00" />
<rect class="q3" x="500.00" y="170.00" width="30.00" height="15.00" />
<text class="legend" x="540.00" y="185.00">Ball2017</text>
<rect class="p4 borderLine" x="500.00" y="210.00" width="30.00" height="15.00" />
<rect class="q4" x="500.00" y="210.00" width="30.00" height="15.00" />
<text class="legend" x="540.00" y="225.00">Ball2017</text>
<rect class="p5 borderLine" x="500.00" y="250.00" width="30.00" height="15.00" />
<rect class="q5" x="500.00" y="250.00" width="30.00" height="15.00" />
<text class="legend" x="540.00" y="265.00">Ball2017</text>
<rect class="p6 borderLine" x="500.00" y="290.00" width="30.00" height="15.00" />
<rect class="q6" x="500.00" y="290.00" width="30.00" height="15.00" />
<text class="legend" x="540.00" y="305.00">Courtois2015</text>
<rect class="p7 borderLine" x="500.00" y="330.00" width="30.00" height="15.00" />
<rect class="q7" x="500.00" y="330.00" width="30.00" height="15.00" />
<text class="legend" x="540.00" y="345.00">Hilton2017</text>
</svg>
