<svg xmlns="http://www.w3.org/2000/svg" xmlns:xlink="http://www.w3.org/1999/xlink" width="700" height="500">
<defs>
<style type="text/css"><![CDATA[
  .borderLine {
	   stroke: none;
	   fill-opacity: 0.4;
  }
  .outLine {
	   stroke-width: 1;
	   fill: none;
  }
  .circle {
	   stroke: #888888;
	   stroke-width: 0.5;
	   fill: none;
    pointer-events: all;
  }
  .spcircle {
	   stroke: #FF2222;
	   stroke-width: 1;
	   fill: none;
    pointer-events: all;
  }
  .tLabel {
	   font-family: Arial;
    pointer-events: none;
	   font-size: 14px;
	   text-anchor: middle;
	   alignment-baseline: central;
  }
  .nLabel {
	   font-family: Arial;
    pointer-events: none;
	   font-size: 10px;
	   text-anchor: middle;
	   alignment-baseline: central;
  }
  .belong {
	   font-family: Arial;
    pointer-events: none;
	   font-size: 5px;
	   text-anchor: middle;
	   alignment-baseline: central;
  }
  .p0{
    stroke: none;
    fill: #e6194b;
  }
  .q0{
    fill: none;
    stroke: #e6194b;
  }
  .p1{
    stroke: none;
    fill: #3cb44b;
  }
  .q1{
    fill: none;
    stroke: #3cb44b;
  }
  .p2{
    stroke: none;
    fill: #ffe119;
  }
  .q2{
    fill: none;
    stroke: #ffe119;
  }
  .p3{
    stroke: none;
    fill: #0082c8;
  }
  .q3{
    fill: none;
    stroke: #0082c8;
  }
]]>
</style>
<symbol id="bl0">
<path d="M 100.71 368.51 L 108.26 373.04 L 116.08 376.75 L 123.77 380.46 L 131.34 384.14 L 138.79 387.84 L 146.12 391.53 L 153.34 395.22 L 160.37 398.99 L 167.15 402.89 L 173.87 406.58 L 181.18 408.77 L 188.60 410.65 L 196.00 412.60 L 203.37 414.75 L 210.74 417.03 L 217.92 419.89 L 224.61 423.64 L 230.53 428.52 L 235.82 434.15 L 240.47 440.39 L 244.86 446.78 L 249.40 453.05 L 253.92 459.32 L 258.26 465.70 L 263.42 471.57 L 270.06 475.69 L 277.41 478.18 L 285.05 478.67 L 292.52 477.65 L 299.60 475.25 L 305.44 470.64 L 310.64 465.12 L 314.22 458.43 L 316.19 451.24 L 316.05 443.58 L 314.28 436.13 L 310.96 429.33 L 306.15 423.41 L 299.92 418.79 L 292.80 415.60 L 285.16 414.58 L 277.42 413.93 L 269.70 413.61 L 262.11 412.79 L 254.52 411.88 L 246.89 411.17 L 239.67 408.72 L 233.00 404.95 L 227.75 399.12 L 224.41 392.09 L 222.54 384.65 L 222.60 376.83 L 222.58 369.04 L 222.26 361.26 L 221.88 353.50 L 221.67 345.82 L 221.91 338.08 L 218.72 331.03 L 213.25 325.31 L 205.96 322.29 L 198.82 318.51 L 191.45 314.54 L 183.93 310.43 L 176.31 306.22 L 168.59 301.89 L 160.75 297.49 L 152.84 292.96 L 144.73 288.38 L 135.55 286.49 L 126.17 286.21 L 116.89 287.67 L 108.08 291.25 L 100.03 296.29 L 93.49 303.08 L 88.36 311.02 L 84.92 319.68 L 83.46 328.77 L 83.92 337.91 L 85.85 346.67 L 89.56 354.75 L 94.14 362.45 Z" />
</symbol>
<symbol id="bl1">
<path d="M 224.24 338.77 L 223.85 348.28 L 219.96 356.73 L 216.24 365.41 L 212.48 374.11 L 208.70 382.78 L 204.84 391.28 L 201.28 399.86 L 195.21 406.92 L 188.39 412.92 L 181.05 418.38 L 173.22 423.41 L 166.76 430.27 L 161.76 438.25 L 158.62 447.07 L 157.64 456.31 L 158.33 465.49 L 160.90 474.25 L 165.22 482.23 L 171.03 488.94 L 177.76 494.51 L 185.52 498.25 L 193.66 500.54 L 201.98 501.84 L 210.17 500.28 L 218.00 497.92 L 225.28 494.31 L 231.58 489.23 L 236.73 483.07 L 240.93 476.26 L 243.69 468.76 L 245.94 461.04 L 247.69 453.17 L 249.33 445.27 L 250.58 437.16 L 253.77 429.43 L 258.95 422.83 L 265.01 417.08 L 270.62 411.00 L 276.00 404.65 L 280.83 397.64 L 284.18 389.71 L 284.91 381.10 L 283.58 372.43 L 280.08 364.17 L 276.12 356.12 L 272.33 347.85 L 268.54 339.57 L 264.97 331.18 L 261.66 322.64 L 258.66 313.94 L 255.97 304.93 L 253.41 295.61 L 250.80 286.05 L 248.26 276.31 L 246.43 266.26 L 242.90 256.32 L 237.49 247.20 L 229.70 239.74 L 220.21 234.40 L 209.68 231.59 L 198.64 231.41 L 187.95 234.43 L 178.44 240.08 L 170.80 247.96 L 165.03 257.34 L 162.04 268.03 L 162.64 278.90 L 165.41 289.19 L 170.41 298.54 L 177.78 306.08 L 186.61 311.68 L 195.94 315.69 L 204.95 319.78 L 213.97 323.54 L 221.16 329.95 Z" />
</symbol>
<symbol id="bl2">
<path d="M 257.69 227.74 L 253.01 235.72 L 249.60 244.24 L 247.84 253.14 L 247.63 262.08 L 248.79 270.88 L 249.18 279.65 L 246.83 288.05 L 243.53 295.95 L 238.68 302.73 L 232.44 307.87 L 225.89 312.37 L 218.79 315.98 L 210.87 317.41 L 202.94 317.94 L 195.09 319.82 L 188.04 323.79 L 182.97 330.13 L 180.61 337.82 L 180.62 345.84 L 183.10 353.27 L 187.50 359.75 L 192.77 365.10 L 197.36 370.88 L 201.86 376.63 L 206.16 382.56 L 210.58 388.45 L 214.79 394.50 L 218.96 400.60 L 223.16 406.70 L 227.31 412.82 L 231.47 418.94 L 235.66 425.01 L 239.64 431.22 L 243.10 437.66 L 245.80 444.41 L 247.21 451.53 L 248.81 458.76 L 251.81 465.54 L 256.33 471.33 L 261.36 476.63 L 267.52 480.58 L 274.53 482.58 L 281.59 483.69 L 288.66 483.54 L 295.54 481.93 L 302.01 479.14 L 308.34 476.05 L 314.51 472.57 L 320.59 468.89 L 326.68 465.17 L 332.84 461.52 L 339.02 457.84 L 345.21 454.13 L 351.42 450.41 L 357.65 446.67 L 363.86 442.84 L 370.02 438.93 L 376.18 434.97 L 382.32 430.94 L 388.64 427.19 L 394.57 422.75 L 400.20 417.98 L 405.19 412.50 L 409.59 406.50 L 413.37 400.04 L 416.33 393.14 L 418.56 385.95 L 420.00 378.49 L 420.51 370.83 L 420.19 363.12 L 418.98 355.45 L 416.76 347.93 L 413.89 340.53 L 409.92 333.64 L 405.61 326.81 L 400.81 320.22 L 396.18 313.43 L 391.55 306.56 L 386.88 299.61 L 382.22 292.57 L 377.57 285.42 L 372.95 278.15 L 368.35 270.78 L 363.79 263.28 L 359.18 255.71 L 354.43 248.13 L 349.85 240.37 L 345.15 232.54 L 339.92 224.92 L 333.27 218.36 L 325.60 213.08 L 316.99 209.21 L 307.73 206.94 L 298.24 205.86 L 288.82 207.56 L 279.71 210.41 L 271.24 214.75 L 263.82 220.63 Z" />
</symbol>
<symbol id="bl3">
<path d="M 108.49 52.53 L 102.21 61.44 L 97.52 71.23 L 93.50 81.25 L 90.01 91.42 L 87.99 101.92 L 86.98 112.48 L 86.79 123.00 L 87.04 133.40 L 87.28 143.71 L 87.28 153.94 L 87.13 164.09 L 86.92 174.16 L 86.65 184.15 L 86.33 194.06 L 85.95 203.90 L 85.51 213.67 L 85.02 223.36 L 84.48 232.99 L 83.89 242.54 L 83.25 252.03 L 82.58 261.44 L 81.86 270.78 L 81.06 280.04 L 80.13 289.21 L 79.01 298.29 L 77.92 307.31 L 76.85 316.23 L 75.71 325.11 L 75.56 334.03 L 76.92 342.72 L 78.92 351.31 L 83.02 359.08 L 87.65 366.42 L 93.97 372.33 L 100.85 377.25 L 108.20 381.23 L 116.12 383.93 L 124.39 385.40 L 132.76 385.33 L 140.98 384.14 L 148.89 381.74 L 156.37 378.53 L 162.66 373.67 L 168.67 368.23 L 176.03 365.08 L 183.88 364.48 L 191.32 366.04 L 198.79 367.59 L 206.67 367.80 L 214.16 365.72 L 220.75 361.58 L 225.66 355.47 L 231.45 350.54 L 238.31 347.00 L 245.60 344.85 L 252.87 342.61 L 259.72 339.36 L 266.73 335.98 L 273.92 332.55 L 281.22 329.04 L 288.63 325.48 L 296.10 321.83 L 303.60 318.10 L 311.07 314.27 L 318.62 310.46 L 326.20 306.64 L 333.18 302.16 L 339.47 296.74 L 344.76 290.34 L 349.07 283.14 L 352.10 275.30 L 354.16 267.18 L 354.98 258.74 L 354.14 250.19 L 352.20 241.86 L 349.58 233.72 L 346.93 225.52 L 344.43 217.21 L 341.83 208.89 L 339.24 200.52 L 336.71 192.10 L 334.22 183.62 L 331.76 175.08 L 329.34 166.49 L 326.93 157.83 L 324.53 149.12 L 322.13 140.36 L 319.71 131.54 L 317.28 122.66 L 314.81 113.73 L 312.23 104.78 L 309.56 95.79 L 306.83 86.76 L 303.74 77.76 L 299.91 68.97 L 295.26 60.48 L 289.83 52.38 L 283.65 44.74 L 276.79 37.59 L 269.30 30.95 L 261.05 25.14 L 252.27 19.96 L 243.09 15.29 L 233.27 11.89 L 223.18 9.07 L 212.79 7.40 L 202.23 6.63 L 191.56 6.77 L 180.89 7.82 L 170.41 10.32 L 160.08 13.58 L 150.11 17.86 L 140.63 23.23 L 131.59 29.39 L 123.08 36.26 L 115.45 44.09 Z" />
</symbol>
</defs>
<!-- isDone: 0 -->
<rect width="700" height="500" style="fill:#fff;stroke-width:0" />
<use class="p0 borderLine" xlink:href="#bl0"/>
<use class="p1 borderLine" xlink:href="#bl1"/>
<use class="p2 borderLine" xlink:href="#bl2"/>
<use class="p3 borderLine" xlink:href="#bl3"/>
<use class="q0 outLine" xlink:href="#bl0"/>
<use class="q1 outLine" xlink:href="#bl1"/>
<use class="q2 outLine" xlink:href="#bl2"/>
<use class="q3 outLine" xlink:href="#bl3"/>
<circle onclick="fromCircle(1)" class="circle" cx="182.4729" cy="390.4820" r="15.7505" />
<text class="tLabel" x="182.47" y="370.48"></text>
<text class="nLabel" x="182.47" y="385.48">2</text>
<text class="belong" x="182.47" y="395.48">(1)</text>
<circle onclick="fromCircle(2)" class="circle" cx="201.3045" cy="457.5007" r="38.5806" />
<text class="tLabel" x="201.30" y="437.50"></text>
<text class="nLabel" x="201.30" y="452.50">12</text>
<text class="belong" x="201.30" y="462.50">(2)</text>
<circle onclick="fromCircle(6)" class="circle" cx="252.5699" cy="381.7368" r="27.2806" />
<text class="tLabel" x="252.57" y="361.74"></text>
<text class="nLabel" x="252.57" y="376.74">6</text>
<text class="belong" x="252.57" y="386.74">(2, 3)</text>
<circle onclick="fromCircle(14)" class="circle" cx="242.5797" cy="323.7459" r="11.1373" />
<text class="tLabel" x="242.58" y="303.75"></text>
<text class="nLabel" x="242.58" y="318.75">1</text>
<text class="belong" x="242.58" y="328.75">(2, 3, 4)</text>
<circle onclick="fromCircle(10)" class="circle" cx="204.2655" cy="273.3251" r="36.9381" />
<text class="tLabel" x="204.27" y="253.33"></text>
<text class="nLabel" x="204.27" y="268.33">11</text>
<text class="belong" x="204.27" y="278.33">(2, 4)</text>
<circle onclick="fromCircle(4)" class="circle" cx="353.9254" cy="370.0140" r="58.9329" />
<text class="tLabel" x="353.93" y="350.01"></text>
<text class="nLabel" x="353.93" y="365.01">28</text>
<text class="belong" x="353.93" y="375.01">(3)</text>
<circle onclick="fromCircle(5)" class="circle" cx="284.0289" cy="446.6191" r="29.4664" />
<text class="tLabel" x="284.03" y="426.62"></text>
<text class="nLabel" x="284.03" y="441.62">7</text>
<text class="belong" x="284.03" y="451.62">(1, 3)</text>
<circle onclick="fromCircle(13)" class="circle" cx="203.5696" cy="341.6771" r="15.7505" />
<text class="tLabel" x="203.57" y="321.68"></text>
<text class="nLabel" x="203.57" y="336.68">2</text>
<text class="belong" x="203.57" y="346.68">(1, 3, 4)</text>
<circle onclick="fromCircle(12)" class="circle" cx="299.9612" cy="258.6497" r="44.5491" />
<text class="tLabel" x="299.96" y="238.65"></text>
<text class="nLabel" x="299.96" y="253.65">16</text>
<text class="belong" x="299.96" y="263.65">(3, 4)</text>
<circle onclick="fromCircle(8)" class="circle" cx="199.2773" cy="119.0702" r="102.0747" />
<text class="tLabel" x="199.28" y="99.07"></text>
<text class="nLabel" x="199.28" y="114.07">84</text>
<text class="belong" x="199.28" y="124.07">(4)</text>
<circle onclick="fromCircle(9)" class="circle" cx="129.2041" cy="332.1147" r="43.1344" />
<text class="tLabel" x="129.20" y="312.11"></text>
<text class="nLabel" x="129.20" y="327.11">15</text>
<text class="belong" x="129.20" y="337.11">(1, 4)</text>
<rect class="p0 borderLine" x="500.00" y="50.00" width="30.00" height="15.00" />
<rect class="q0" x="500.00" y="50.00" width="30.00" height="15.00" />
<text class="legend" x="540.00" y="65.00">S_salivarius</text>
<rect class="p1 borderLine" x="500.00" y="90.00" width="30.00" height="15.00" />
<rect class="q1" x="500.00" y="90.00" width="30.00" height="15.00" />
<text class="legend" x="540.00" y="105.00">Other</text>
<rect class="p2 borderLine" x="500.00" y="130.00" width="30.00" height="15.00" />
<rect class="q2" x="500.00" y="130.00" width="30.00" height="15.00" />
<text class="legend" x="540.00" y="145.00">GAS</text>
<rect class="p3 borderLine" x="500.00" y="170.00" width="30.00" height="15.00" />
<rect class="q3" x="500.00" y="170.00" width="30.00" height="15.00" />
<text class="legend" x="540.00" y="185.00">GCS/GGS</text>
</svg>
