<svg xmlns="http://www.w3.org/2000/svg" xmlns:xlink="http://www.w3.org/1999/xlink" width="700" height="500">
<defs>
<style type="text/css"><![CDATA[
  .borderLine {
	   stroke: none;
	   fill-opacity: 0.4;
  }
  .outLine {
	   stroke-width: 1;
	   fill: none;
  }
  .circle {
	   stroke: #888888;
	   stroke-width: 0.5;
	   fill: none;
    pointer-events: all;
  }
  .spcircle {
	   stroke: #FF2222;
	   stroke-width: 1;
	   fill: none;
    pointer-events: all;
  }
  .tLabel {
	   font-family: Arial;
    pointer-events: none;
	   font-size: 14px;
	   text-anchor: middle;
	   alignment-baseline: central;
  }
  .nLabel {
	   font-family: Arial;
    pointer-events: none;
	   font-size: 10px;
	   text-anchor: middle;
	   alignment-baseline: central;
  }
  .belong {
	   font-family: Arial;
    pointer-events: none;
	   font-size: 5px;
	   text-anchor: middle;
	   alignment-baseline: central;
  }
  .p0{
    stroke: none;
    fill: #e6194b;
  }
  .q0{
    fill: none;
    stroke: #e6194b;
  }
  .p1{
    stroke: none;
    fill: #3cb44b;
  }
  .q1{
    fill: none;
    stroke: #3cb44b;
  }
  .p2{
    stroke: none;
    fill: #ffe119;
  }
  .q2{
    fill: none;
    stroke: #ffe119;
  }
  .p3{
    stroke: none;
    fill: #0082c8;
  }
  .q3{
    fill: none;
    stroke: #0082c8;
  }
]]>
</style>
<symbol id="bl0">
<path d="M 276.38 353.07 L 276.25 366.31 L 279.89 378.88 L 286.00 390.21 L 294.05 400.05 L 304.27 407.46 L 315.90 412.03 L 327.92 414.75 L 340.25 414.26 L 352.48 411.12 L 363.85 405.36 L 375.29 399.47 L 386.57 392.86 L 397.64 385.71 L 408.58 378.19 L 419.31 370.38 L 429.86 362.46 L 440.15 354.33 L 450.03 345.08 L 455.99 333.52 L 462.58 322.03 L 469.58 310.59 L 476.94 299.24 L 484.48 287.88 L 491.59 275.67 L 492.74 261.82 L 489.40 248.15 L 482.02 235.46 L 471.01 226.78 L 458.00 223.59 L 443.93 223.63 L 430.76 229.81 L 417.73 235.74 L 405.09 241.47 L 392.30 246.60 L 379.68 252.13 L 367.22 256.77 L 356.24 265.82 L 346.61 274.84 L 336.22 283.71 L 326.02 292.40 L 315.32 300.53 L 304.61 308.92 L 293.59 316.97 L 284.89 327.66 L 279.43 340.05 Z" />
</symbol>
<symbol id="bl1">
<path d="M 184.52 12.07 L 173.62 17.31 L 164.89 25.70 L 158.08 35.74 L 152.92 46.87 L 151.32 59.12 L 149.32 71.20 L 147.11 83.25 L 145.09 95.32 L 143.35 107.38 L 141.76 119.37 L 140.18 131.30 L 138.72 143.19 L 137.54 155.04 L 136.29 166.85 L 135.76 178.69 L 137.32 190.54 L 141.60 201.95 L 148.35 212.21 L 157.83 220.40 L 169.06 226.43 L 181.68 229.63 L 194.81 229.15 L 207.82 226.45 L 219.39 219.79 L 228.62 210.22 L 238.13 201.12 L 247.81 192.32 L 257.58 183.69 L 267.13 174.93 L 277.26 166.92 L 286.31 157.88 L 296.36 149.46 L 306.63 141.00 L 317.22 132.51 L 327.14 123.20 L 335.87 112.78 L 339.61 99.49 L 338.21 85.86 L 334.05 72.81 L 324.36 63.01 L 312.28 56.51 L 300.50 49.70 L 288.87 43.08 L 277.10 36.97 L 265.40 31.17 L 253.96 25.28 L 242.71 19.43 L 231.36 14.25 L 219.91 9.87 L 207.98 7.43 L 196.04 8.54 Z" />
</symbol>
<symbol id="bl2">
<path d="M 241.98 168.12 L 242.44 182.21 L 239.87 196.35 L 234.12 209.71 L 230.22 223.81 L 228.23 238.28 L 231.82 252.59 L 237.36 266.51 L 246.24 278.50 L 257.78 288.00 L 271.11 295.02 L 285.68 298.27 L 300.45 298.93 L 315.19 297.52 L 329.59 295.84 L 343.74 296.58 L 357.41 300.99 L 370.69 306.63 L 384.99 306.94 L 399.26 306.91 L 413.42 306.66 L 427.45 305.27 L 441.75 307.40 L 456.36 308.61 L 470.54 305.05 L 483.79 298.12 L 492.97 286.25 L 499.34 272.85 L 498.69 258.08 L 498.72 243.54 L 498.35 229.23 L 498.26 215.05 L 498.21 200.89 L 498.22 186.74 L 498.15 172.58 L 497.94 158.44 L 497.46 144.34 L 496.55 130.36 L 493.78 116.77 L 488.49 104.09 L 481.58 92.23 L 472.12 82.44 L 461.75 73.91 L 450.19 67.18 L 437.57 62.45 L 424.28 59.74 L 410.64 58.13 L 396.82 57.26 L 382.86 56.24 L 368.78 55.24 L 354.58 54.14 L 340.25 53.35 L 325.94 52.80 L 311.65 52.47 L 297.41 51.53 L 283.23 54.80 L 270.85 62.29 L 261.71 73.53 L 256.86 87.04 L 252.57 100.55 L 248.78 114.16 L 244.74 127.53 L 241.64 141.24 L 238.35 154.57 Z" />
</symbol>
<symbol id="bl3">
<path d="M -3.25 359.87 L -2.29 376.80 L 0.64 393.60 L 6.05 409.84 L 12.90 425.59 L 21.77 440.44 L 32.72 453.99 L 45.28 466.10 L 59.67 475.95 L 74.78 484.70 L 91.09 491.21 L 108.09 495.85 L 125.64 498.11 L 143.47 498.56 L 161.27 496.41 L 178.48 491.39 L 195.30 485.10 L 211.93 478.20 L 228.76 471.67 L 245.75 465.31 L 262.71 458.78 L 279.67 452.14 L 296.62 445.47 L 313.45 438.65 L 330.02 431.49 L 346.34 424.13 L 362.58 416.63 L 377.58 406.54 L 388.58 392.15 L 395.65 375.50 L 397.97 357.41 L 398.15 339.22 L 400.92 320.79 L 404.46 302.36 L 407.41 283.87 L 404.15 263.56 L 393.91 250.50 L 383.87 238.55 L 374.01 226.71 L 364.23 214.31 L 354.46 201.95 L 344.61 189.74 L 332.93 178.97 L 320.91 168.02 L 308.06 157.75 L 295.61 148.05 L 283.08 137.86 L 266.70 127.62 L 249.60 125.77 L 233.27 124.23 L 216.35 122.51 L 199.50 121.07 L 182.74 120.03 L 166.51 123.50 L 152.16 131.77 L 140.38 143.07 L 128.51 154.34 L 116.84 165.88 L 105.31 177.67 L 93.97 189.72 L 82.82 202.00 L 71.98 214.59 L 61.47 227.47 L 51.09 240.51 L 40.95 253.79 L 31.38 267.44 L 21.43 280.82 L 12.48 295.04 L 5.81 310.44 L 0.94 326.51 L -2.03 343.05 Z" />
</symbol>
</defs>
<!-- isDone: 0 -->
<rect width="700" height="500" style="fill:#fff;stroke-width:0" />
<use class="p0 borderLine" xlink:href="#bl0"/>
<use class="p1 borderLine" xlink:href="#bl1"/>
<use class="p2 borderLine" xlink:href="#bl2"/>
<use class="p3 borderLine" xlink:href="#bl3"/>
<use class="q0 outLine" xlink:href="#bl0"/>
<use class="q1 outLine" xlink:href="#bl1"/>
<use class="q2 outLine" xlink:href="#bl2"/>
<use class="q3 outLine" xlink:href="#bl3"/>
<circle onclick="fromCircle(1)" class="circle" cx="429.9586" cy="334.0197" r="19.3664" />
<text class="tLabel" x="429.96" y="314.02"></text>
<text class="nLabel" x="429.96" y="329.02">2</text>
<text class="belong" x="429.96" y="339.02">(1)</text>
<circle onclick="fromCircle(2)" class="circle" cx="205.0741" cy="61.4686" r="47.4378" />
<text class="tLabel" x="205.07" y="41.47"></text>
<text class="nLabel" x="205.07" y="56.47">12</text>
<text class="belong" x="205.07" y="66.47">(2)</text>
<circle onclick="fromCircle(6)" class="circle" cx="299.1545" cy="94.6046" r="33.5436" />
<text class="tLabel" x="299.15" y="74.60"></text>
<text class="nLabel" x="299.15" y="89.60">6</text>
<text class="belong" x="299.15" y="99.60">(2, 3)</text>
<circle onclick="fromCircle(14)" class="circle" cx="261.4146" cy="153.4266" r="13.6941" />
<text class="tLabel" x="261.41" y="133.43"></text>
<text class="nLabel" x="261.41" y="148.43">1</text>
<text class="belong" x="261.41" y="158.43">(2, 3, 4)</text>
<circle onclick="fromCircle(10)" class="circle" cx="187.4746" cy="177.8470" r="45.4182" />
<text class="tLabel" x="187.47" y="157.85"></text>
<text class="nLabel" x="187.47" y="172.85">11</text>
<text class="belong" x="187.47" y="182.85">(2, 4)</text>
<circle onclick="fromCircle(4)" class="circle" cx="415.0989" cy="141.1541" r="72.4624" />
<text class="tLabel" x="415.10" y="121.15"></text>
<text class="nLabel" x="415.10" y="136.15">28</text>
<text class="belong" x="415.10" y="146.15">(3)</text>
<circle onclick="fromCircle(5)" class="circle" cx="452.9548" cy="262.9070" r="36.2312" />
<text class="tLabel" x="452.95" y="242.91"></text>
<text class="nLabel" x="452.95" y="257.91">7</text>
<text class="belong" x="452.95" y="267.91">(1, 3)</text>
<circle onclick="fromCircle(13)" class="circle" cx="375.6852" cy="277.9837" r="19.3664" />
<text class="tLabel" x="375.69" y="257.98"></text>
<text class="nLabel" x="375.69" y="272.98">2</text>
<text class="belong" x="375.69" y="282.98">(1, 3, 4)</text>
<circle onclick="fromCircle(12)" class="circle" cx="293.3694" cy="234.6980" r="54.7764" />
<text class="tLabel" x="293.37" y="214.70"></text>
<text class="nLabel" x="293.37" y="229.70">16</text>
<text class="belong" x="293.37" y="239.70">(3, 4)</text>
<circle onclick="fromCircle(8)" class="circle" cx="134.9787" cy="360.2644" r="125.5086" />
<text class="tLabel" x="134.98" y="340.26"></text>
<text class="nLabel" x="134.98" y="355.26">84</text>
<text class="belong" x="134.98" y="365.26">(4)</text>
<circle onclick="fromCircle(9)" class="circle" cx="332.4202" cy="358.3188" r="53.0370" />
<text class="tLabel" x="332.42" y="338.32"></text>
<text class="nLabel" x="332.42" y="353.32">15</text>
<text class="belong" x="332.42" y="363.32">(1, 4)</text>
<rect class="p0 borderLine" x="500.00" y="50.00" width="30.00" height="15.00" />
<rect class="q0" x="500.00" y="50.00" width="30.00" height="15.00" />
<text class="legend" x="540.00" y="65.00">S_salivarius</text>
<rect class="p1 borderLine" x="500.00" y="90.00" width="30.00" height="15.00" />
<rect class="q1" x="500.00" y="90.00" width="30.00" height="15.00" />
<text class="legend" x="540.00" y="105.00">Other</text>
<rect class="p2 borderLine" x="500.00" y="130.00" width="30.00" height="15.00" />
<rect class="q2" x="500.00" y="130.00" width="30.00" height="15.00" />
<text class="legend" x="540.00" y="145.00">GAS</text>
<rect class="p3 borderLine" x="500.00" y="170.00" width="30.00" height="15.00" />
<rect class="q3" x="500.00" y="170.00" width="30.00" height="15.00" />
<text class="legend" x="540.00" y="185.00">GCS/GGS</text>
</svg>
