<svg xmlns="http://www.w3.org/2000/svg" xmlns:xlink="http://www.w3.org/1999/xlink" width="700" height="500">
<defs>
<style type="text/css"><![CDATA[
  .borderLine {
	   stroke: none;
	   fill-opacity: 0.4;
  }
  .outLine {
	   stroke-width: 1;
	   fill: none;
  }
  .circle {
	   stroke: #888888;
	   stroke-width: 0.5;
	   fill: none;
    pointer-events: all;
  }
  .spcircle {
	   stroke: #FF2222;
	   stroke-width: 1;
	   fill: none;
    pointer-events: all;
  }
  .tLabel {
	   font-family: Arial;
    pointer-events: none;
	   font-size: 14px;
	   text-anchor: middle;
	   alignment-baseline: central;
  }
  .nLabel {
	   font-family: Arial;
    pointer-events: none;
	   font-size: 10px;
	   text-anchor: middle;
	   alignment-baseline: central;
  }
  .belong {
	   font-family: Arial;
    pointer-events: none;
	   font-size: 5px;
	   text-anchor: middle;
	   alignment-baseline: central;
  }
  .p0{
    stroke: none;
    fill: #e6194b;
  }
  .q0{
    fill: none;
    stroke: #e6194b;
  }
  .p1{
    stroke: none;
    fill: #3cb44b;
  }
  .q1{
    fill: none;
    stroke: #3cb44b;
  }
  .p2{
    stroke: none;
    fill: #ffe119;
  }
  .q2{
    fill: none;
    stroke: #ffe119;
  }
  .p3{
    stroke: none;
    fill: #0082c8;
  }
  .q3{
    fill: none;
    stroke: #0082c8;
  }
  .p4{
    stroke: none;
    fill: #f58231;
  }
  .q4{
    fill: none;
    stroke: #f58231;
  }
  .p5{
    stroke: none;
    fill: #911eb4;
  }
  .q5{
    fill: none;
    stroke: #911eb4;
  }
  .p6{
    stroke: none;
    fill: #46f0f0;
  }
  .q6{
    fill: none;
    stroke: #46f0f0;
  }
  .p7{
    stroke: none;
    fill: #f032e6;
  }
  .q7{
    fill: none;
    stroke: #f032e6;
  }
]]>
</style>
<symbol id="bl0">
<path d="M 65.58 237.36 L 61.81 240.19 L 58.04 242.99 L 54.11 245.53 L 50.13 248.10 L 46.14 250.79 L 42.24 253.58 L 38.75 256.59 L 35.69 260.50 L 33.15 264.40 L 31.01 268.68 L 29.88 273.23 L 29.38 277.90 L 29.27 282.55 L 30.11 286.98 L 31.45 291.39 L 33.47 295.86 L 36.16 299.75 L 39.07 303.05 L 42.17 306.45 L 46.26 308.67 L 50.39 310.75 L 54.68 312.47 L 58.98 314.18 L 63.42 315.85 L 67.88 317.43 L 72.19 319.27 L 76.77 320.85 L 81.52 322.01 L 86.09 323.40 L 90.65 324.79 L 95.22 325.90 L 99.80 326.77 L 104.27 327.79 L 108.79 328.73 L 113.38 329.65 L 117.99 330.49 L 122.52 331.41 L 127.22 331.75 L 131.91 331.02 L 136.25 329.66 L 140.68 328.09 L 144.93 325.90 L 148.75 322.83 L 152.25 319.80 L 155.47 316.51 L 159.06 313.84 L 162.97 311.51 L 167.11 309.58 L 171.29 307.56 L 175.95 307.09 L 180.66 306.47 L 185.35 306.47 L 189.83 307.20 L 194.43 308.29 L 198.83 309.63 L 202.76 311.74 L 206.76 314.07 L 210.45 316.75 L 213.89 319.84 L 217.05 323.43 L 219.27 327.57 L 221.47 331.77 L 223.07 335.97 L 224.06 340.37 L 224.71 344.70 L 225.40 349.08 L 226.56 353.21 L 228.21 357.29 L 230.38 361.13 L 232.69 364.75 L 235.51 368.08 L 238.82 370.98 L 242.41 373.58 L 246.20 375.95 L 249.87 378.42 L 253.63 380.65 L 257.44 382.86 L 261.20 385.18 L 264.87 387.60 L 268.56 390.12 L 272.34 392.52 L 276.18 394.89 L 280.10 397.16 L 284.08 399.21 L 288.00 401.30 L 291.88 403.40 L 295.75 405.40 L 299.48 407.51 L 303.14 409.76 L 306.73 412.16 L 310.29 414.68 L 314.00 417.02 L 317.71 419.35 L 321.38 421.77 L 325.11 424.04 L 328.80 426.30 L 332.41 428.69 L 335.93 431.17 L 339.45 433.57 L 343.18 435.66 L 346.74 438.01 L 350.42 440.27 L 354.34 442.07 L 358.24 443.95 L 362.25 445.56 L 366.23 447.27 L 370.37 448.48 L 374.55 449.42 L 378.76 450.24 L 382.98 451.12 L 387.28 451.50 L 391.60 451.76 L 395.89 452.00 L 400.20 452.08 L 404.48 451.40 L 408.81 451.15 L 413.07 450.34 L 417.29 449.33 L 421.48 448.36 L 425.60 447.11 L 429.58 445.53 L 433.58 444.00 L 437.44 442.15 L 441.26 440.13 L 444.89 437.82 L 448.56 435.61 L 452.03 433.07 L 455.40 430.49 L 458.68 427.75 L 461.84 424.85 L 464.81 421.78 L 467.81 418.73 L 470.38 415.32 L 472.85 411.83 L 475.28 408.32 L 477.28 404.58 L 479.40 400.89 L 481.17 397.04 L 482.82 393.16 L 484.66 389.27 L 486.10 385.21 L 487.08 381.06 L 487.96 376.90 L 488.62 372.66 L 489.09 368.38 L 489.41 364.16 L 489.94 359.98 L 490.00 355.71 L 489.45 351.47 L 489.01 347.23 L 488.40 342.99 L 487.95 338.73 L 487.42 334.47 L 485.98 330.45 L 484.28 326.56 L 482.84 322.61 L 481.30 318.65 L 479.50 314.81 L 477.43 311.11 L 475.17 307.47 L 472.90 303.80 L 470.15 300.48 L 467.44 297.12 L 464.52 293.92 L 461.45 290.94 L 458.40 287.95 L 455.14 285.13 L 451.72 282.46 L 448.22 279.96 L 444.57 277.66 L 440.86 275.39 L 437.03 273.27 L 433.14 271.30 L 429.27 269.20 L 425.24 267.36 L 421.29 265.35 L 417.34 263.44 L 413.38 261.54 L 409.43 259.58 L 405.56 257.45 L 401.64 255.46 L 397.61 253.62 L 393.57 251.62 L 389.57 249.55 L 385.61 247.42 L 381.63 245.31 L 377.55 243.43 L 373.49 241.65 L 369.52 239.83 L 365.49 238.06 L 361.58 236.15 L 357.60 234.35 L 353.59 232.51 L 349.42 230.74 L 345.26 229.12 L 340.90 228.08 L 336.54 227.85 L 332.09 228.24 L 327.95 229.63 L 323.64 231.20 L 319.09 232.11 L 314.41 232.86 L 309.69 233.14 L 305.01 233.70 L 300.24 234.29 L 295.42 234.83 L 290.71 235.52 L 286.00 235.99 L 281.29 236.28 L 276.68 237.38 L 271.91 237.77 L 267.57 239.97 L 263.29 242.16 L 259.46 244.92 L 255.46 247.13 L 251.35 249.22 L 246.78 250.36 L 242.19 251.16 L 237.54 251.27 L 232.79 250.92 L 228.19 250.29 L 223.67 248.86 L 219.32 246.69 L 214.84 244.60 L 211.74 240.98 L 208.19 237.51 L 205.47 233.81 L 202.84 229.63 L 200.84 225.13 L 199.39 220.78 L 198.60 216.14 L 198.68 211.35 L 199.15 206.53 L 200.02 202.05 L 200.19 197.24 L 201.19 192.54 L 200.84 187.83 L 200.40 183.31 L 199.07 178.49 L 197.37 174.33 L 195.33 170.30 L 192.52 166.83 L 189.59 163.33 L 185.94 160.25 L 181.80 157.88 L 177.82 155.98 L 173.29 154.46 L 168.70 153.23 L 164.05 153.49 L 159.34 153.76 L 155.00 155.00 L 150.57 155.48 L 146.47 158.13 L 142.99 160.77 L 139.00 163.83 L 135.79 167.56 L 131.76 170.50 L 127.68 172.99 L 123.06 174.93 L 118.15 176.16 L 113.41 176.24 L 108.78 175.87 L 103.82 174.92 L 99.21 173.16 L 94.34 172.98 L 89.76 174.27 L 85.73 176.96 L 83.10 181.04 L 81.24 185.69 L 81.62 190.65 L 81.59 195.63 L 82.06 200.38 L 82.31 204.90 L 82.19 209.56 L 81.58 214.44 L 80.31 219.12 L 78.54 223.56 L 75.90 227.76 L 72.85 231.52 L 69.41 234.41 Z" />
</symbol>
<symbol id="bl1">
<path d="M 34.01 178.73 L 30.48 180.76 L 27.20 183.31 L 24.14 186.11 L 21.68 189.37 L 19.34 192.78 L 17.89 196.59 L 16.73 200.49 L 15.84 204.59 L 15.70 208.62 L 16.15 212.67 L 16.52 216.84 L 18.06 220.64 L 19.65 224.46 L 22.07 227.79 L 24.66 231.02 L 27.66 233.85 L 31.14 236.34 L 34.81 238.37 L 38.77 240.11 L 42.75 241.02 L 46.78 242.47 L 50.98 243.23 L 55.13 243.76 L 59.39 244.77 L 63.20 245.66 L 67.00 246.68 L 70.84 247.51 L 74.69 248.57 L 78.31 250.41 L 81.88 252.42 L 85.03 255.32 L 88.14 258.24 L 91.49 260.98 L 95.03 263.34 L 99.12 265.13 L 103.26 266.12 L 107.53 266.99 L 111.86 266.74 L 116.07 266.12 L 120.47 265.35 L 124.84 264.87 L 129.21 264.74 L 133.52 265.57 L 137.64 266.55 L 141.49 268.34 L 145.33 270.66 L 148.66 273.60 L 151.88 276.71 L 154.27 280.24 L 156.47 284.05 L 157.92 288.20 L 159.01 292.62 L 159.56 297.19 L 159.57 301.70 L 158.67 306.09 L 157.37 310.34 L 155.37 314.36 L 153.04 318.20 L 150.14 321.44 L 147.72 324.79 L 145.98 328.60 L 144.09 332.24 L 142.47 336.00 L 141.77 340.04 L 140.96 344.06 L 140.97 348.44 L 140.74 352.76 L 141.58 356.93 L 142.16 361.24 L 143.91 365.31 L 146.15 369.06 L 148.25 372.93 L 150.94 376.41 L 153.95 379.64 L 157.31 382.32 L 160.75 384.84 L 164.57 386.72 L 168.55 388.24 L 172.67 389.46 L 176.97 390.13 L 181.28 390.74 L 185.54 390.81 L 189.71 390.00 L 193.89 389.25 L 198.01 387.93 L 202.08 386.21 L 205.79 384.08 L 209.13 381.46 L 212.28 378.60 L 215.55 375.74 L 217.76 371.95 L 220.31 368.41 L 221.88 364.34 L 223.44 360.35 L 224.34 356.20 L 224.86 352.04 L 225.20 347.78 L 224.57 343.61 L 224.39 339.53 L 224.57 335.42 L 225.56 331.27 L 226.72 327.11 L 228.30 323.04 L 230.57 319.39 L 232.83 315.72 L 236.04 312.78 L 239.29 309.94 L 241.82 306.64 L 243.78 302.91 L 245.32 298.90 L 246.02 294.76 L 246.40 290.54 L 246.76 286.15 L 247.02 281.72 L 247.08 277.39 L 247.48 272.96 L 247.64 268.49 L 248.25 264.13 L 249.42 259.88 L 251.02 255.79 L 253.29 251.99 L 255.86 248.56 L 258.93 245.59 L 262.31 242.94 L 265.63 240.45 L 268.47 237.35 L 270.86 233.87 L 273.48 230.69 L 275.63 226.94 L 277.22 223.22 L 279.34 219.83 L 281.79 216.42 L 284.18 213.05 L 286.19 209.43 L 287.89 205.83 L 289.86 202.10 L 291.69 198.44 L 293.37 194.82 L 295.70 191.50 L 298.29 188.33 L 301.45 185.56 L 304.99 183.47 L 308.80 181.96 L 312.45 180.07 L 316.13 178.16 L 319.81 176.61 L 323.41 174.74 L 327.19 173.01 L 330.97 171.32 L 334.38 168.87 L 336.90 165.24 L 338.45 161.14 L 338.88 156.84 L 337.84 152.67 L 335.82 148.93 L 333.61 145.47 L 331.41 142.13 L 329.37 138.84 L 327.16 135.29 L 324.89 132.06 L 322.42 128.77 L 320.34 125.63 L 317.53 122.40 L 314.41 120.09 L 310.74 118.85 L 307.15 118.13 L 303.23 118.79 L 299.61 120.56 L 296.26 122.77 L 292.97 124.97 L 290.17 127.70 L 287.55 130.40 L 284.65 132.67 L 281.55 135.13 L 278.63 137.95 L 275.26 140.06 L 272.11 142.59 L 268.93 145.32 L 265.96 148.20 L 263.39 151.22 L 261.35 154.84 L 259.06 158.23 L 256.64 161.71 L 253.62 164.59 L 250.62 167.24 L 246.97 169.18 L 243.16 170.72 L 239.37 171.91 L 235.20 172.70 L 231.26 173.14 L 227.28 172.55 L 223.34 171.75 L 219.63 170.41 L 215.32 170.08 L 211.70 168.27 L 207.54 167.62 L 203.67 166.11 L 199.91 164.32 L 196.26 162.88 L 192.57 161.06 L 188.92 159.30 L 185.56 157.31 L 181.72 156.05 L 177.69 155.59 L 173.97 154.79 L 170.24 154.33 L 166.41 153.16 L 162.48 152.69 L 158.32 152.93 L 154.21 153.83 L 150.50 155.48 L 147.04 157.64 L 143.75 159.97 L 140.41 162.52 L 137.51 165.35 L 134.46 168.40 L 131.10 170.84 L 127.53 173.20 L 123.60 174.88 L 119.49 175.90 L 115.43 176.47 L 111.20 176.21 L 106.90 175.62 L 102.96 174.30 L 99.06 173.04 L 94.87 172.85 L 90.44 172.84 L 86.19 173.08 L 82.03 173.40 L 77.87 173.54 L 73.81 173.41 L 69.61 173.52 L 65.46 173.92 L 61.48 174.04 L 57.48 174.24 L 53.53 174.40 L 49.52 174.57 L 45.50 175.25 L 41.56 175.78 L 37.75 177.12 Z" />
</symbol>
<symbol id="bl2">
<path d="M 120.94 264.96 L 116.86 266.24 L 112.93 267.74 L 108.99 269.72 L 105.52 272.11 L 102.64 274.93 L 99.77 278.12 L 97.61 281.54 L 95.72 285.47 L 94.30 289.44 L 93.34 293.88 L 93.05 297.99 L 93.41 302.21 L 94.03 306.33 L 95.37 310.30 L 97.16 314.24 L 99.42 317.80 L 102.17 321.07 L 105.30 324.01 L 108.64 326.35 L 112.04 328.37 L 116.00 329.65 L 120.04 330.80 L 124.16 331.36 L 128.24 331.51 L 132.12 330.95 L 136.18 330.31 L 140.03 328.44 L 143.72 326.34 L 147.40 324.10 L 150.43 320.99 L 153.52 318.15 L 156.83 315.49 L 160.07 312.82 L 162.99 309.88 L 166.14 307.15 L 169.44 304.35 L 172.55 301.37 L 175.42 298.37 L 178.48 295.58 L 181.69 292.92 L 184.69 290.03 L 187.71 287.12 L 190.74 284.30 L 193.66 281.43 L 196.58 278.61 L 199.71 275.89 L 202.89 273.18 L 206.36 270.56 L 210.20 268.71 L 214.07 267.10 L 218.08 266.48 L 222.17 266.62 L 226.20 267.31 L 230.01 268.61 L 233.64 270.27 L 236.88 272.62 L 239.94 275.14 L 242.64 278.02 L 245.40 280.85 L 247.93 284.03 L 250.90 287.03 L 254.07 289.85 L 256.81 293.04 L 259.90 295.85 L 263.24 298.31 L 266.79 300.41 L 270.62 301.96 L 274.74 302.90 L 278.73 303.37 L 282.65 303.48 L 286.55 303.17 L 290.45 302.13 L 294.28 300.75 L 298.04 299.34 L 301.67 297.53 L 305.47 295.97 L 309.47 294.51 L 313.34 292.77 L 317.30 291.02 L 321.34 289.49 L 325.26 287.90 L 329.14 286.19 L 333.05 284.55 L 336.94 282.76 L 340.75 280.99 L 344.34 279.11 L 347.94 277.12 L 351.52 274.96 L 354.90 272.45 L 357.79 269.46 L 359.87 265.85 L 361.53 262.12 L 362.65 258.22 L 363.02 254.20 L 362.99 250.21 L 362.10 246.27 L 360.85 242.57 L 359.15 238.98 L 357.54 235.37 L 355.83 231.76 L 353.98 228.32 L 352.35 224.62 L 350.58 221.04 L 349.16 217.32 L 347.83 213.55 L 346.29 209.80 L 344.69 206.15 L 343.32 202.52 L 341.60 198.91 L 339.85 195.27 L 337.87 191.85 L 335.52 188.75 L 332.57 186.02 L 329.58 183.19 L 326.80 180.14 L 323.83 177.58 L 320.72 175.18 L 317.60 172.47 L 314.47 169.91 L 311.82 166.85 L 310.01 162.91 L 309.00 158.82 L 307.71 155.05 L 305.70 151.83 L 303.19 148.60 L 300.04 146.11 L 296.75 143.67 L 294.05 140.90 L 290.79 138.41 L 287.56 136.31 L 284.25 134.15 L 281.01 131.77 L 277.86 129.42 L 274.91 127.07 L 271.69 124.86 L 268.07 122.83 L 264.76 120.44 L 261.21 118.37 L 257.76 116.19 L 254.30 113.85 L 250.66 112.04 L 247.28 109.77 L 243.57 108.03 L 239.70 106.41 L 235.61 106.22 L 231.66 105.49 L 227.72 106.13 L 223.69 106.81 L 219.82 108.14 L 216.13 109.72 L 212.65 112.01 L 209.70 114.72 L 206.71 117.04 L 204.86 120.36 L 202.41 123.38 L 201.00 127.24 L 197.90 130.24 L 194.30 132.47 L 190.54 133.67 L 186.73 135.41 L 182.92 136.92 L 179.16 138.74 L 175.69 140.58 L 172.05 142.20 L 168.34 143.95 L 164.49 145.03 L 160.60 145.35 L 156.73 144.74 L 153.20 143.23 L 150.12 140.90 L 147.49 138.05 L 144.77 135.29 L 141.69 132.57 L 138.93 129.45 L 135.93 126.55 L 132.73 123.48 L 129.52 120.94 L 125.71 119.28 L 122.14 117.47 L 118.04 116.88 L 113.92 116.56 L 109.91 117.17 L 106.13 117.96 L 102.23 119.00 L 98.71 120.78 L 95.57 123.11 L 92.82 125.92 L 89.96 128.48 L 87.76 131.60 L 86.34 135.16 L 85.24 138.98 L 84.34 143.07 L 84.03 147.33 L 84.43 151.47 L 85.67 155.34 L 87.05 159.13 L 88.58 162.96 L 91.17 166.16 L 94.14 168.84 L 97.44 171.28 L 100.91 173.40 L 104.48 175.36 L 107.62 178.12 L 110.12 181.48 L 113.22 184.48 L 116.23 187.54 L 118.97 190.87 L 121.53 194.19 L 124.41 197.38 L 127.15 200.77 L 130.02 203.96 L 132.56 207.44 L 134.79 211.02 L 137.37 214.39 L 139.77 217.60 L 141.10 221.35 L 142.36 225.02 L 143.67 228.88 L 144.46 232.81 L 143.31 237.02 L 142.58 240.96 L 141.59 244.88 L 139.98 248.78 L 137.73 252.38 L 135.35 255.91 L 132.05 258.74 L 128.59 261.42 L 124.86 263.37 Z" />
</symbol>
<symbol id="bl3">
<path d="M 103.22 117.70 L 99.69 120.53 L 95.97 122.94 L 92.76 125.85 L 90.10 129.12 L 87.69 132.75 L 85.81 136.80 L 84.89 141.09 L 83.94 145.27 L 84.17 149.67 L 85.13 154.15 L 86.62 158.51 L 88.93 162.40 L 91.50 166.06 L 94.78 169.29 L 98.54 172.06 L 102.79 174.15 L 106.69 176.92 L 109.88 180.71 L 112.98 184.34 L 116.33 187.77 L 119.16 191.51 L 122.28 195.02 L 125.05 198.71 L 127.94 202.20 L 130.72 205.90 L 133.57 209.53 L 136.48 213.34 L 139.60 216.68 L 142.67 220.20 L 145.73 223.65 L 148.66 227.30 L 151.77 230.65 L 154.76 234.20 L 157.61 237.80 L 160.49 241.25 L 163.35 244.60 L 166.12 248.15 L 169.11 251.63 L 172.36 254.99 L 174.14 259.32 L 174.95 264.12 L 174.15 268.79 L 172.69 273.27 L 171.04 277.70 L 169.51 282.37 L 167.71 286.71 L 165.91 290.98 L 163.84 295.20 L 161.85 299.56 L 160.12 304.13 L 158.08 308.54 L 155.92 312.91 L 153.62 317.14 L 150.95 321.24 L 148.19 325.15 L 145.76 329.17 L 143.61 333.47 L 141.80 337.89 L 140.96 342.50 L 140.52 347.20 L 141.01 351.84 L 141.54 356.55 L 142.33 361.27 L 144.46 365.67 L 146.80 369.90 L 149.00 374.07 L 152.05 377.65 L 155.66 380.74 L 159.35 383.76 L 163.69 385.97 L 168.16 387.87 L 172.77 389.39 L 177.54 390.29 L 182.38 390.89 L 187.20 390.68 L 191.99 389.86 L 196.70 389.10 L 201.48 388.95 L 206.20 388.62 L 210.90 388.24 L 215.56 387.63 L 220.17 386.94 L 224.88 386.59 L 229.68 386.12 L 234.37 385.17 L 238.97 384.22 L 243.67 383.39 L 248.39 382.75 L 253.05 382.36 L 257.64 381.42 L 262.25 380.96 L 266.83 380.03 L 271.41 379.54 L 275.86 378.11 L 280.18 376.53 L 284.26 374.06 L 288.21 371.56 L 291.70 368.43 L 294.78 364.89 L 297.67 361.31 L 299.62 357.06 L 301.36 352.63 L 302.33 348.05 L 303.06 343.37 L 303.76 338.81 L 304.79 334.08 L 305.72 329.38 L 306.41 324.69 L 307.23 319.91 L 307.96 315.14 L 308.66 310.45 L 309.33 305.71 L 310.17 301.04 L 310.92 296.29 L 311.59 291.54 L 312.26 286.90 L 312.96 282.19 L 313.59 277.51 L 314.28 272.76 L 314.13 268.05 L 313.40 263.40 L 311.98 258.75 L 310.28 254.53 L 308.12 250.37 L 306.12 246.15 L 303.90 242.13 L 301.65 237.98 L 299.38 233.86 L 296.98 229.81 L 294.34 225.97 L 291.83 221.97 L 289.21 217.95 L 286.82 213.84 L 284.18 209.92 L 281.60 205.91 L 279.01 201.98 L 276.62 197.91 L 273.75 194.18 L 271.49 190.28 L 268.47 186.76 L 265.09 183.37 L 261.61 180.39 L 257.81 177.71 L 253.49 175.94 L 249.03 174.17 L 244.42 173.03 L 239.74 172.83 L 235.25 172.76 L 230.62 172.77 L 226.01 172.32 L 221.51 171.55 L 217.44 169.76 L 213.66 167.23 L 209.86 164.66 L 206.50 161.60 L 203.40 158.32 L 199.96 155.27 L 197.05 151.70 L 194.21 148.24 L 190.84 145.18 L 187.80 141.59 L 185.05 138.01 L 181.79 134.87 L 178.83 131.38 L 176.21 127.75 L 173.96 123.49 L 171.25 119.97 L 167.47 117.22 L 163.48 114.57 L 159.91 111.79 L 156.37 108.98 L 153.55 104.98 L 151.04 101.01 L 147.67 97.96 L 143.33 95.89 L 138.49 95.37 L 133.75 96.52 L 129.67 98.81 L 125.88 101.59 L 122.05 104.36 L 118.11 106.69 L 114.44 109.33 L 110.87 112.21 L 106.96 114.90 Z" />
</symbol>
<symbol id="bl4">
<path d="M 39.65 303.95 L 41.46 305.56 L 43.40 306.97 L 45.44 308.13 L 47.49 309.38 L 49.67 310.47 L 51.94 311.33 L 54.25 312.15 L 56.65 312.42 L 58.97 313.42 L 61.39 314.22 L 63.93 315.03 L 66.56 315.61 L 69.21 316.45 L 71.88 317.06 L 74.54 317.84 L 77.18 318.62 L 79.85 319.39 L 82.54 320.31 L 85.31 321.02 L 88.02 321.64 L 90.57 322.54 L 92.99 323.63 L 95.58 324.40 L 98.44 324.84 L 101.23 325.50 L 104.01 326.44 L 106.94 327.04 L 109.72 327.43 L 112.35 328.36 L 115.10 329.51 L 118.01 330.48 L 120.89 331.41 L 123.74 331.64 L 126.60 331.56 L 129.26 331.19 L 132.00 331.22 L 134.74 330.51 L 137.72 329.84 L 140.57 328.56 L 143.09 326.82 L 145.79 325.40 L 148.38 323.45 L 150.52 320.99 L 152.62 318.58 L 154.76 316.02 L 156.04 312.77 L 157.34 309.75 L 158.83 306.78 L 159.50 303.46 L 159.60 300.13 L 159.47 296.74 L 159.36 293.45 L 158.69 290.21 L 157.75 287.01 L 156.90 283.90 L 155.04 281.15 L 153.50 278.11 L 150.80 275.57 L 148.13 272.92 L 146.31 269.89 L 145.45 266.24 L 145.37 262.48 L 146.08 259.02 L 147.87 255.55 L 150.29 252.60 L 153.32 250.41 L 156.19 248.29 L 159.03 246.34 L 161.50 243.74 L 163.87 240.95 L 166.43 238.50 L 169.20 236.03 L 172.00 233.40 L 174.53 230.75 L 176.93 228.15 L 179.71 225.75 L 182.44 223.14 L 185.11 220.61 L 187.90 218.22 L 190.67 215.79 L 193.23 213.07 L 195.03 209.86 L 196.96 206.62 L 198.65 203.43 L 200.00 199.79 L 201.94 196.63 L 203.37 193.28 L 205.39 190.17 L 207.64 187.06 L 210.07 184.46 L 212.67 182.10 L 215.36 179.62 L 218.64 177.64 L 222.07 175.98 L 225.56 174.73 L 229.39 173.37 L 233.28 173.03 L 237.28 172.58 L 241.00 172.03 L 244.87 170.97 L 247.91 168.66 L 251.13 166.85 L 253.98 164.39 L 256.55 161.59 L 259.03 158.54 L 261.06 155.28 L 262.72 151.81 L 263.80 148.09 L 264.68 144.18 L 265.36 140.52 L 265.34 136.75 L 264.24 133.12 L 263.64 129.44 L 262.28 125.98 L 260.55 122.69 L 258.43 119.46 L 255.90 116.48 L 252.97 113.89 L 249.95 111.45 L 246.72 109.61 L 243.35 108.04 L 239.80 106.77 L 236.13 106.29 L 232.42 105.65 L 228.65 106.09 L 224.91 106.34 L 221.16 106.87 L 217.46 106.70 L 213.91 106.78 L 210.38 107.19 L 206.63 107.49 L 202.49 107.35 L 198.50 106.51 L 194.87 105.43 L 191.13 104.28 L 187.45 103.83 L 183.90 104.79 L 180.38 106.36 L 177.37 109.06 L 175.28 111.87 L 173.70 115.32 L 173.55 119.07 L 174.04 122.89 L 175.51 126.46 L 175.76 130.27 L 175.32 133.91 L 174.07 137.36 L 172.02 140.42 L 169.37 143.19 L 166.13 144.71 L 162.93 146.54 L 159.94 148.78 L 157.39 151.43 L 154.32 153.33 L 151.13 155.28 L 147.80 156.87 L 145.12 159.37 L 141.87 160.83 L 139.24 163.53 L 136.70 166.04 L 134.71 169.07 L 132.68 171.77 L 130.11 174.03 L 127.85 176.62 L 125.58 179.30 L 122.85 181.55 L 120.43 183.75 L 118.21 186.29 L 115.82 189.13 L 113.28 191.53 L 110.80 193.84 L 108.55 196.43 L 106.20 199.17 L 102.98 200.99 L 99.61 202.27 L 96.26 202.85 L 92.97 202.39 L 89.76 201.39 L 86.96 199.68 L 84.72 197.49 L 82.47 195.06 L 79.93 192.86 L 77.44 190.68 L 75.34 188.22 L 73.40 185.60 L 71.00 183.17 L 68.36 181.27 L 65.71 179.55 L 62.80 178.19 L 59.97 176.88 L 56.99 175.94 L 53.81 175.45 L 50.71 175.01 L 47.65 175.16 L 44.55 175.29 L 41.51 175.78 L 38.60 176.72 L 35.81 177.69 L 33.15 178.84 L 30.71 180.49 L 28.30 182.19 L 26.16 184.13 L 24.16 186.17 L 22.32 188.36 L 20.78 190.76 L 19.35 193.18 L 18.21 195.76 L 17.10 198.38 L 16.34 201.20 L 15.57 203.92 L 15.00 206.65 L 14.54 209.40 L 13.94 212.04 L 13.47 214.62 L 12.85 217.07 L 12.06 219.53 L 11.83 222.16 L 11.56 224.78 L 11.04 227.28 L 10.56 229.75 L 10.37 232.31 L 10.43 234.89 L 10.44 237.37 L 10.59 239.80 L 10.54 242.18 L 10.29 244.60 L 10.18 246.96 L 10.00 249.43 L 10.06 251.91 L 10.58 254.44 L 11.34 256.78 L 12.27 259.08 L 13.25 261.38 L 14.16 263.78 L 15.12 266.08 L 16.05 268.46 L 17.01 270.90 L 18.17 273.29 L 19.42 275.50 L 20.75 277.57 L 22.27 279.51 L 23.34 281.63 L 24.27 283.98 L 25.54 286.22 L 27.07 288.33 L 28.63 290.40 L 30.17 292.45 L 31.56 294.57 L 33.19 296.50 L 34.84 298.39 L 36.49 300.23 L 37.90 302.22 Z" />
</symbol>
<symbol id="bl5">
<path d="M 126.76 58.25 L 123.68 61.27 L 121.32 64.97 L 119.60 68.93 L 119.19 73.07 L 119.18 77.31 L 120.06 81.44 L 120.87 85.48 L 121.48 89.45 L 121.71 93.54 L 122.29 97.64 L 122.92 101.72 L 123.40 105.85 L 124.18 109.88 L 124.74 113.89 L 126.59 117.67 L 128.95 120.74 L 132.38 123.32 L 135.52 126.17 L 138.25 129.45 L 140.52 132.82 L 142.34 136.75 L 143.37 140.89 L 143.73 145.07 L 143.88 149.32 L 143.40 153.58 L 141.85 157.53 L 140.42 160.91 L 137.93 164.16 L 135.74 167.65 L 132.46 170.24 L 130.62 173.85 L 129.06 177.90 L 128.05 181.83 L 128.05 186.07 L 127.94 189.92 L 128.02 193.90 L 129.20 197.99 L 129.61 202.02 L 131.10 205.82 L 133.28 209.56 L 136.11 212.89 L 138.62 216.06 L 141.21 218.89 L 144.70 220.81 L 148.12 223.05 L 151.50 225.30 L 155.80 226.16 L 160.04 226.76 L 164.33 226.71 L 169.13 226.60 L 173.71 225.55 L 177.85 224.46 L 181.55 222.71 L 185.09 220.77 L 188.21 218.08 L 191.10 215.17 L 193.66 212.02 L 195.83 208.47 L 197.89 204.84 L 199.79 201.42 L 200.30 197.34 L 200.84 193.28 L 200.88 189.07 L 200.92 184.92 L 200.13 180.93 L 199.45 177.05 L 197.85 173.41 L 196.83 169.31 L 194.32 165.99 L 191.60 162.99 L 187.99 160.71 L 184.30 158.57 L 180.67 156.55 L 176.64 155.41 L 172.55 154.31 L 169.32 152.19 L 165.40 150.55 L 161.51 148.88 L 158.02 146.79 L 154.52 144.63 L 151.17 141.94 L 148.37 138.56 L 146.59 134.48 L 146.16 130.09 L 146.88 125.73 L 148.70 121.98 L 151.53 119.09 L 154.84 116.88 L 158.79 115.64 L 162.72 114.69 L 166.79 113.73 L 170.79 112.45 L 174.68 110.91 L 177.83 108.06 L 180.08 104.60 L 181.47 100.93 L 181.54 96.93 L 180.79 93.14 L 178.86 89.75 L 176.54 86.71 L 174.06 83.76 L 171.82 80.69 L 169.40 77.52 L 167.02 74.27 L 164.67 70.87 L 162.00 67.73 L 159.26 64.61 L 156.54 61.43 L 153.71 58.52 L 150.45 56.17 L 146.75 54.29 L 142.62 53.63 L 138.43 53.48 L 134.28 54.30 L 130.27 55.85 Z" />
</symbol>
<symbol id="bl6">
<path d="M 165.43 78.03 L 163.24 80.44 L 161.01 82.87 L 158.78 85.25 L 156.51 87.56 L 154.19 90.02 L 152.48 93.08 L 151.81 96.25 L 151.88 99.57 L 152.59 102.86 L 154.04 105.88 L 156.28 108.78 L 159.03 111.02 L 161.81 112.89 L 164.37 114.93 L 167.26 116.69 L 169.95 118.66 L 172.41 120.89 L 174.27 123.69 L 175.27 126.91 L 175.72 130.24 L 175.38 133.79 L 174.31 136.90 L 172.78 139.82 L 170.99 142.89 L 168.66 145.29 L 165.89 147.41 L 163.10 149.01 L 160.41 150.74 L 157.91 152.51 L 155.33 154.35 L 152.23 155.61 L 148.96 156.40 L 146.34 158.07 L 143.52 160.36 L 140.78 162.19 L 138.09 164.45 L 136.27 167.17 L 134.48 169.72 L 132.87 172.39 L 130.89 174.99 L 130.08 178.02 L 129.19 180.83 L 127.82 184.23 L 127.89 188.02 L 126.84 191.02 L 126.92 194.61 L 128.18 198.04 L 129.56 200.83 L 130.98 204.10 L 132.57 207.46 L 133.83 210.58 L 136.25 212.79 L 138.63 215.45 L 140.99 217.80 L 143.65 220.34 L 146.35 222.53 L 149.21 224.13 L 152.18 225.30 L 155.45 226.51 L 158.55 227.13 L 161.59 227.25 L 164.85 227.36 L 168.21 227.25 L 171.49 226.49 L 174.88 225.66 L 178.21 225.46 L 180.76 223.51 L 183.71 222.52 L 186.12 220.54 L 188.69 218.67 L 190.81 216.09 L 193.08 213.77 L 195.11 211.05 L 196.60 208.03 L 198.47 205.08 L 199.18 201.94 L 199.56 198.81 L 200.61 195.90 L 200.92 192.50 L 200.87 189.13 L 200.61 185.69 L 200.48 182.13 L 200.39 178.55 L 200.77 174.98 L 200.85 171.45 L 200.51 167.93 L 200.28 164.21 L 199.74 160.54 L 199.72 156.94 L 199.62 153.43 L 199.53 150.04 L 198.95 146.92 L 198.32 143.64 L 198.24 140.38 L 198.48 137.13 L 199.20 133.76 L 199.60 130.42 L 200.89 127.19 L 202.20 123.94 L 203.70 121.09 L 205.21 118.33 L 207.68 116.29 L 210.28 114.28 L 212.87 112.35 L 215.35 110.22 L 218.02 108.46 L 220.33 106.35 L 222.27 104.03 L 224.60 101.81 L 226.54 99.41 L 228.78 97.49 L 230.65 94.85 L 232.38 92.19 L 233.65 89.47 L 234.58 86.67 L 235.32 83.75 L 235.83 80.55 L 235.95 77.12 L 235.67 73.74 L 235.11 70.48 L 234.15 67.36 L 232.94 64.36 L 231.31 61.55 L 229.24 59.03 L 227.23 56.44 L 224.68 54.41 L 221.98 52.67 L 219.20 51.02 L 216.20 49.65 L 212.93 48.92 L 209.65 48.23 L 206.35 48.10 L 203.03 47.92 L 199.89 48.76 L 196.83 49.70 L 193.77 50.76 L 190.91 52.36 L 188.17 54.17 L 185.69 56.29 L 183.47 58.66 L 181.27 61.01 L 179.14 63.41 L 177.03 65.97 L 174.76 68.42 L 172.49 70.76 L 170.10 73.18 L 167.70 75.60 Z" />
</symbol>
<symbol id="bl7">
<path d="M 331.58 59.09 L 325.55 62.88 L 320.27 67.74 L 315.60 73.49 L 312.09 79.86 L 309.46 86.66 L 306.91 93.50 L 304.33 100.49 L 301.73 107.15 L 299.08 113.92 L 296.39 120.74 L 293.84 127.83 L 292.77 135.32 L 296.09 142.46 L 302.31 147.15 L 309.83 147.71 L 316.89 144.89 L 324.11 142.85 L 331.41 141.90 L 338.61 140.74 L 345.55 139.62 L 352.77 138.60 L 360.07 137.65 L 366.85 135.39 L 373.30 132.25 L 378.98 127.86 L 384.10 122.75 L 387.82 116.60 L 390.50 109.98 L 392.53 103.05 L 392.78 96.05 L 392.28 89.03 L 390.38 82.10 L 387.31 75.72 L 383.44 69.77 L 378.65 64.57 L 372.67 60.89 L 366.34 57.59 L 359.45 55.43 L 352.32 54.56 L 345.15 54.32 L 338.33 56.40 Z" />
</symbol>
</defs>
<!-- isDone: 0 -->
<rect width="700" height="500" style="fill:#fff;stroke-width:0" />
<use class="p0 borderLine" xlink:href="#bl0"/>
<use class="p1 borderLine" xlink:href="#bl1"/>
<use class="p2 borderLine" xlink:href="#bl2"/>
<use class="p3 borderLine" xlink:href="#bl3"/>
<use class="p4 borderLine" xlink:href="#bl4"/>
<use class="p5 borderLine" xlink:href="#bl5"/>
<use class="p6 borderLine" xlink:href="#bl6"/>
<use class="p7 borderLine" xlink:href="#bl7"/>
<use class="q0 outLine" xlink:href="#bl0"/>
<use class="q1 outLine" xlink:href="#bl1"/>
<use class="q2 outLine" xlink:href="#bl2"/>
<use class="q3 outLine" xlink:href="#bl3"/>
<use class="q4 outLine" xlink:href="#bl4"/>
<use class="q5 outLine" xlink:href="#bl5"/>
<use class="q6 outLine" xlink:href="#bl6"/>
<use class="q7 outLine" xlink:href="#bl7"/>
<circle onclick="fromCircle(1)" class="circle" cx="395.7593" cy="357.8629" r="78.2495" />
<text class="tLabel" x="395.76" y="337.86"></text>
<text class="nLabel" x="395.76" y="352.86">40</text>
<text class="belong" x="395.76" y="362.86">(1)</text>
<circle onclick="fromCircle(3)" class="circle" cx="96.2821" cy="187.7082" r="12.3723" />
<text class="tLabel" x="96.28" y="167.71"></text>
<text class="nLabel" x="96.28" y="182.71">1</text>
<text class="belong" x="96.28" y="192.71">(1, 2)</text>
<circle onclick="fromCircle(7)" class="circle" cx="160.1082" cy="263.8736" r="12.3723" />
<text class="tLabel" x="160.11" y="243.87"></text>
<text class="nLabel" x="160.11" y="258.87">1</text>
<text class="belong" x="160.11" y="268.87">(1, 2, 3)</text>
<circle onclick="fromCircle(15)" class="circle" cx="194.1931" cy="253.1718" r="17.4971" />
<text class="tLabel" x="194.19" y="233.17"></text>
<text class="nLabel" x="194.19" y="248.17">2</text>
<text class="belong" x="194.19" y="258.17">(1, 2, 3, 4)</text>
<circle onclick="fromCircle(127)" class="circle" cx="164.5624" cy="190.1028" r="30.3059" />
<text class="tLabel" x="164.56" y="170.10"></text>
<text class="nLabel" x="164.56" y="185.10">6</text>
<text class="belong" x="164.56" y="195.10">(1, 2, 3, 4, 5, 6, 7)</text>
<circle onclick="fromCircle(2)" class="circle" cx="323.9622" cy="157.9760" r="12.3723" />
<text class="tLabel" x="323.96" y="137.98"></text>
<text class="nLabel" x="323.96" y="152.98">1</text>
<text class="belong" x="323.96" y="162.98">(2)</text>
<circle onclick="fromCircle(6)" class="circle" cx="284.2739" cy="166.4306" r="21.4295" />
<text class="tLabel" x="284.27" y="146.43"></text>
<text class="nLabel" x="284.27" y="161.43">3</text>
<text class="belong" x="284.27" y="171.43">(2, 3)</text>
<circle onclick="fromCircle(14)" class="circle" cx="238.0514" cy="212.0149" r="32.7341" />
<text class="tLabel" x="238.05" y="192.01"></text>
<text class="nLabel" x="238.05" y="207.01">7</text>
<text class="belong" x="238.05" y="217.01">(2, 3, 4)</text>
<circle onclick="fromCircle(10)" class="circle" cx="182.8788" cy="348.6142" r="34.9942" />
<text class="tLabel" x="182.88" y="328.61"></text>
<text class="nLabel" x="182.88" y="343.61">8</text>
<text class="belong" x="182.88" y="353.61">(2, 4)</text>
<circle onclick="fromCircle(18)" class="circle" cx="48.9325" cy="208.3428" r="27.6654" />
<text class="tLabel" x="48.93" y="188.34"></text>
<text class="nLabel" x="48.93" y="203.34">5</text>
<text class="belong" x="48.93" y="213.34">(2, 5)</text>
<circle onclick="fromCircle(130)" class="circle" cx="307.5782" cy="133.1881" r="12.3723" />
<text class="tLabel" x="307.58" y="113.19"></text>
<text class="nLabel" x="307.58" y="128.19">1</text>
<text class="belong" x="307.58" y="138.19">(2, 8)</text>
<circle onclick="fromCircle(4)" class="circle" cx="316.5702" cy="206.4121" r="21.4295" />
<text class="tLabel" x="316.57" y="186.41"></text>
<text class="nLabel" x="316.57" y="201.41">3</text>
<text class="belong" x="316.57" y="211.41">(3)</text>
<circle onclick="fromCircle(5)" class="circle" cx="337.3415" cy="253.5336" r="21.4295" />
<text class="tLabel" x="337.34" y="233.53"></text>
<text class="nLabel" x="337.34" y="248.53">3</text>
<text class="belong" x="337.34" y="258.53">(1, 3)</text>
<circle onclick="fromCircle(13)" class="circle" cx="280.9862" cy="270.2937" r="27.6654" />
<text class="tLabel" x="280.99" y="250.29"></text>
<text class="nLabel" x="280.99" y="265.29">5</text>
<text class="belong" x="280.99" y="275.29">(1, 3, 4)</text>
<circle onclick="fromCircle(12)" class="circle" cx="114.0726" cy="146.6319" r="24.7447" />
<text class="tLabel" x="114.07" y="126.63"></text>
<text class="nLabel" x="114.07" y="141.63">4</text>
<text class="belong" x="114.07" y="151.63">(3, 4)</text>
<circle onclick="fromCircle(20)" class="circle" cx="231.8068" cy="139.5181" r="27.6654" />
<text class="tLabel" x="231.81" y="119.52"></text>
<text class="nLabel" x="231.81" y="134.52">5</text>
<text class="belong" x="231.81" y="144.52">(3, 5)</text>
<circle onclick="fromCircle(21)" class="circle" cx="126.3349" cy="298.0779" r="27.6654" />
<text class="tLabel" x="126.33" y="278.08"></text>
<text class="nLabel" x="126.33" y="293.08">5</text>
<text class="belong" x="126.33" y="303.08">(1, 3, 5)</text>
<circle onclick="fromCircle(8)" class="circle" cx="160.8890" cy="130.5547" r="12.3723" />
<text class="tLabel" x="160.89" y="110.55"></text>
<text class="nLabel" x="160.89" y="125.55">1</text>
<text class="belong" x="160.89" y="135.55">(4)</text>
<circle onclick="fromCircle(9)" class="circle" cx="263.8052" cy="340.6957" r="32.7341" />
<text class="tLabel" x="263.81" y="320.70"></text>
<text class="nLabel" x="263.81" y="335.70">7</text>
<text class="belong" x="263.81" y="345.70">(1, 4)</text>
<circle onclick="fromCircle(11)" class="circle" cx="220.3367" cy="292.3354" r="21.4295" />
<text class="tLabel" x="220.34" y="272.34"></text>
<text class="nLabel" x="220.34" y="287.34">3</text>
<text class="belong" x="220.34" y="297.34">(1, 2, 4)</text>
<circle onclick="fromCircle(40)" class="circle" cx="139.4772" cy="110.1757" r="12.3723" />
<text class="tLabel" x="139.48" y="90.18"></text>
<text class="nLabel" x="139.48" y="105.18">1</text>
<text class="belong" x="139.48" y="115.18">(4, 6)</text>
<circle onclick="fromCircle(16)" class="circle" cx="24.8180" cy="250.0018" r="12.3723" />
<text class="tLabel" x="24.82" y="230.00"></text>
<text class="nLabel" x="24.82" y="245.00">1</text>
<text class="belong" x="24.82" y="255.00">(5)</text>
<circle onclick="fromCircle(17)" class="circle" cx="62.6497" cy="279.7787" r="27.6654" />
<text class="tLabel" x="62.65" y="259.78"></text>
<text class="nLabel" x="62.65" y="274.78">5</text>
<text class="belong" x="62.65" y="284.78">(1, 5)</text>
<circle onclick="fromCircle(19)" class="circle" cx="110.2661" cy="233.5850" r="27.6654" />
<text class="tLabel" x="110.27" y="213.58"></text>
<text class="nLabel" x="110.27" y="228.58">5</text>
<text class="belong" x="110.27" y="238.58">(1, 2, 5)</text>
<circle onclick="fromCircle(80)" class="circle" cx="188.2816" cy="118.8614" r="12.3723" />
<text class="tLabel" x="188.28" y="98.86"></text>
<text class="nLabel" x="188.28" y="113.86">1</text>
<text class="belong" x="188.28" y="123.86">(5, 7)</text>
<circle onclick="fromCircle(32)" class="circle" cx="140.0240" cy="74.4478" r="17.4971" />
<text class="tLabel" x="140.02" y="54.45"></text>
<text class="nLabel" x="140.02" y="69.45">2</text>
<text class="belong" x="140.02" y="79.45">(6)</text>
<circle onclick="fromCircle(96)" class="circle" cx="166.7414" cy="98.1802" r="12.3723" />
<text class="tLabel" x="166.74" y="78.18"></text>
<text class="nLabel" x="166.74" y="93.18">1</text>
<text class="belong" x="166.74" y="103.18">(6, 7)</text>
<circle onclick="fromCircle(64)" class="circle" cx="206.2655" cy="77.8119" r="24.7447" />
<text class="tLabel" x="206.27" y="57.81"></text>
<text class="nLabel" x="206.27" y="72.81">4</text>
<text class="belong" x="206.27" y="82.81">(7)</text>
<circle onclick="fromCircle(128)" class="circle" cx="350.7488" cy="96.6143" r="34.9942" />
<text class="tLabel" x="350.75" y="76.61"></text>
<text class="nLabel" x="350.75" y="91.61">8</text>
<text class="belong" x="350.75" y="101.61">(8)</text>
<rect class="p0 borderLine" x="500.00" y="50.00" width="30.00" height="15.00" />
<rect class="q0" x="500.00" y="50.00" width="30.00" height="15.00" />
<text class="legend" x="540.00" y="65.00">Ball2017</text>
<rect class="p1 borderLine" x="500.00" y="90.00" width="30.00" height="15.00" />
<rect class="q1" x="500.00" y="90.00" width="30.00" height="15.00" />
<text class="legend" x="540.00" y="105.00">Courtois2015</text>
<rect class="p2 borderLine" x="500.00" y="130.00" width="30.00" height="15.00" />
<rect class="q2" x="500.00" y="130.00" width="30.00" height="15.00" />
<text class="legend" x="540.00" y="145.00">Hilton2017</text>
<rect class="p3 borderLine" x="500.00" y="170.00" width="30.00" height="15.00" />
<rect class="q3" x="500.00" y="170.00" width="30.00" height="15.00" />
<text class="legend" x="540.00" y="185.00">Ball2017</text>
<rect class="p4 borderLine" x="500.00" y="210.00" width="30.00" height="15.00" />
<rect class="q4" x="500.00" y="210.00" width="30.00" height="15.00" />
<text class="legend" x="540.00" y="225.00">Ball2017</text>
<rect class="p5 borderLine" x="500.00" y="250.00" width="30.00" height="15.00" />
<rect class="q5" x="500.00" y="250.00" width="30.00" height="15.00" />
<text class="legend" x="540.00" y="265.00">Ball2017</text>
<rect class="p6 borderLine" x="500.00" y="290.00" width="30.00" height="15.00" />
<rect class="q6" x="500.00" y="290.00" width="30.00" height="15.00" />
<text class="legend" x="540.00" y="305.00">Courtois2015</text>
<rect class="p7 borderLine" x="500.00" y="330.00" width="30.00" height="15.00" />
<rect class="q7" x="500.00" y="330.00" width="30.00" height="15.00" />
<text class="legend" x="540.00" y="345.00">Hilton2017</text>
</svg>
