<svg xmlns="http://www.w3.org/2000/svg" xmlns:xlink="http://www.w3.org/1999/xlink" width="700" height="500">
<defs>
<style type="text/css"><![CDATA[
  .borderLine {
	   stroke: none;
	   fill-opacity: 0.4;
  }
  .outLine {
	   stroke-width: 1;
	   fill: none;
  }
  .circle {
	   stroke: #888888;
	   stroke-width: 0.5;
	   fill: none;
    pointer-events: all;
  }
  .spcircle {
	   stroke: #FF2222;
	   stroke-width: 1;
	   fill: none;
    pointer-events: all;
  }
  .tLabel {
	   font-family: Arial;
    pointer-events: none;
	   font-size: 14px;
	   text-anchor: middle;
	   alignment-baseline: central;
  }
  .nLabel {
	   font-family: Arial;
    pointer-events: none;
	   font-size: 10px;
	   text-anchor: middle;
	   alignment-baseline: central;
  }
  .belong {
	   font-family: Arial;
    pointer-events: none;
	   font-size: 5px;
	   text-anchor: middle;
	   alignment-baseline: central;
  }
  .p0{
    stroke: none;
    fill: #e6194b;
  }
  .q0{
    fill: none;
    stroke: #e6194b;
  }
  .p1{
    stroke: none;
    fill: #3cb44b;
  }
  .q1{
    fill: none;
    stroke: #3cb44b;
  }
  .p2{
    stroke: none;
    fill: #ffe119;
  }
  .q2{
    fill: none;
    stroke: #ffe119;
  }
  .p3{
    stroke: none;
    fill: #0082c8;
  }
  .q3{
    fill: none;
    stroke: #0082c8;
  }
]]>
</style>
<symbol id="bl0">
<path d="M 40.61 100.50 L 39.90 107.53 L 39.31 114.62 L 38.85 121.73 L 38.57 128.85 L 38.42 135.96 L 38.43 143.03 L 38.60 150.07 L 38.92 157.06 L 39.32 164.01 L 39.73 170.93 L 40.23 177.81 L 40.88 184.62 L 41.16 191.50 L 41.47 198.47 L 42.78 205.21 L 44.92 211.52 L 48.14 217.17 L 52.88 221.91 L 58.23 226.69 L 64.92 229.74 L 72.16 231.23 L 79.63 231.34 L 87.15 230.47 L 94.38 228.28 L 101.93 226.61 L 109.60 224.74 L 117.37 222.68 L 125.18 220.40 L 133.00 217.93 L 140.79 215.36 L 148.61 213.42 L 156.62 210.99 L 164.21 208.09 L 172.19 205.66 L 180.32 203.30 L 188.51 200.89 L 196.76 198.49 L 205.05 196.19 L 213.42 194.12 L 221.87 192.13 L 230.21 189.48 L 237.68 184.90 L 244.35 179.35 L 250.16 173.00 L 254.51 165.72 L 257.13 157.80 L 258.79 149.74 L 258.87 141.71 L 257.79 133.94 L 255.85 126.42 L 252.28 119.69 L 248.08 113.49 L 242.96 108.12 L 237.13 103.62 L 230.74 100.02 L 224.44 96.25 L 217.93 92.74 L 211.31 89.39 L 204.63 86.12 L 197.89 82.94 L 191.11 79.81 L 184.29 76.73 L 177.45 73.69 L 170.61 70.66 L 163.79 67.62 L 157.00 64.55 L 150.26 61.43 L 143.59 58.25 L 137.01 54.95 L 130.54 51.52 L 124.06 48.15 L 117.55 44.83 L 110.55 42.85 L 103.46 41.42 L 96.30 41.34 L 89.25 42.06 L 82.42 43.59 L 75.92 45.85 L 69.79 48.95 L 63.89 52.46 L 58.84 57.05 L 54.07 61.93 L 50.14 67.55 L 46.85 73.57 L 44.42 80.00 L 42.36 86.59 L 41.46 93.51 Z" />
</symbol>
<symbol id="bl1">
<path d="M 131.16 339.60 L 126.58 347.53 L 124.43 356.06 L 124.24 364.96 L 126.56 373.82 L 130.50 381.69 L 136.07 388.74 L 142.18 395.35 L 147.83 402.32 L 153.63 409.25 L 159.54 416.12 L 165.47 422.98 L 171.54 429.69 L 177.74 436.23 L 184.05 442.63 L 190.58 448.74 L 197.09 454.68 L 204.70 459.10 L 212.96 462.14 L 221.58 463.74 L 230.34 463.49 L 239.02 462.11 L 247.11 458.76 L 254.70 454.45 L 260.81 448.25 L 265.79 441.24 L 270.20 434.01 L 274.49 426.82 L 278.80 419.81 L 283.16 412.98 L 287.45 406.25 L 291.65 399.66 L 295.83 393.24 L 299.97 387.00 L 304.04 380.89 L 307.99 374.88 L 311.76 368.92 L 315.55 363.12 L 319.59 357.61 L 322.61 351.47 L 326.18 345.54 L 326.72 338.63 L 327.32 331.80 L 326.75 324.89 L 325.77 317.86 L 322.77 311.31 L 318.84 305.16 L 313.97 299.57 L 308.28 294.61 L 301.62 290.84 L 294.37 288.10 L 286.62 286.41 L 278.56 286.07 L 270.55 287.46 L 262.97 290.27 L 255.86 294.00 L 248.67 297.60 L 241.40 301.10 L 234.05 304.41 L 226.62 307.53 L 219.17 310.48 L 211.69 313.15 L 204.09 315.47 L 196.23 317.53 L 188.10 319.46 L 179.76 321.25 L 171.26 322.98 L 162.62 324.52 L 153.91 326.00 L 145.36 328.53 L 137.62 333.19 Z" />
</symbol>
<symbol id="bl2">
<path d="M -6.37 292.45 L -7.36 300.19 L -7.82 308.00 L -7.10 315.90 L -5.76 323.74 L -3.66 331.42 L -0.64 338.83 L 3.50 345.75 L 8.25 352.34 L 13.65 358.38 L 19.73 363.75 L 26.51 368.29 L 33.62 372.29 L 41.24 375.25 L 48.99 377.74 L 56.75 380.08 L 64.50 382.40 L 72.28 384.49 L 80.06 386.39 L 87.84 388.14 L 95.62 389.70 L 103.37 391.10 L 111.11 392.37 L 118.83 393.54 L 126.54 394.60 L 134.23 395.54 L 141.92 396.55 L 149.60 397.92 L 157.33 398.37 L 165.10 397.88 L 172.79 395.55 L 180.06 392.26 L 185.99 386.63 L 191.49 380.37 L 197.61 374.49 L 203.85 368.62 L 210.02 362.53 L 216.32 356.45 L 223.24 350.81 L 231.17 345.98 L 233.75 337.77 L 234.51 326.83 L 236.11 316.97 L 239.13 307.37 L 242.27 297.50 L 245.89 287.50 L 250.17 277.42 L 253.05 266.51 L 253.23 255.04 L 251.57 243.70 L 247.34 233.06 L 241.41 223.21 L 234.08 214.35 L 224.64 208.16 L 214.52 203.99 L 204.37 200.14 L 194.19 196.87 L 184.38 192.98 L 175.92 187.09 L 168.59 180.30 L 162.49 172.54 L 153.63 168.27 L 144.16 167.62 L 134.84 166.13 L 125.49 164.73 L 116.14 163.37 L 106.82 161.95 L 97.56 160.38 L 88.30 159.00 L 79.09 157.34 L 69.96 157.87 L 60.86 159.34 L 53.42 164.70 L 47.05 170.71 L 41.05 177.18 L 38.07 185.19 L 34.13 192.47 L 31.12 200.00 L 28.23 207.37 L 25.02 214.50 L 21.73 221.51 L 18.49 228.47 L 15.35 235.41 L 12.32 242.38 L 9.41 249.37 L 6.59 256.41 L 3.91 263.51 L 1.31 270.66 L -1.49 277.78 L -4.03 285.04 Z" />
</symbol>
<symbol id="bl3">
<path d="M 124.09 214.49 L 126.69 224.81 L 129.46 235.03 L 132.19 245.27 L 134.99 255.42 L 137.99 265.39 L 140.87 275.33 L 144.65 285.01 L 150.43 293.54 L 157.32 301.10 L 164.30 308.50 L 171.26 315.81 L 178.17 323.00 L 185.09 330.03 L 191.70 337.64 L 196.51 346.59 L 204.53 352.74 L 213.46 356.24 L 222.44 359.59 L 231.42 363.17 L 240.46 366.80 L 249.49 370.44 L 257.53 375.81 L 266.31 379.61 L 275.46 382.24 L 285.05 382.80 L 294.68 381.79 L 303.40 377.61 L 312.07 373.51 L 320.71 369.21 L 329.35 364.81 L 337.99 360.30 L 346.59 355.61 L 355.14 350.80 L 363.66 345.89 L 372.14 340.89 L 380.56 335.79 L 388.90 330.58 L 397.16 325.28 L 405.33 319.89 L 413.40 314.43 L 421.38 308.93 L 429.28 303.41 L 437.07 297.87 L 444.78 292.34 L 452.21 286.56 L 459.20 280.40 L 465.46 273.63 L 471.15 266.50 L 476.34 259.13 L 480.98 251.52 L 484.74 243.57 L 488.03 235.52 L 490.68 227.33 L 492.64 219.03 L 494.23 210.73 L 494.90 202.37 L 495.23 194.01 L 495.03 185.67 L 494.05 177.36 L 492.57 169.09 L 490.62 160.84 L 487.84 152.72 L 484.62 144.63 L 480.66 136.73 L 476.09 128.98 L 470.92 121.40 L 464.89 114.20 L 458.13 107.42 L 451.06 100.69 L 442.85 95.05 L 434.35 89.50 L 425.09 84.93 L 415.46 80.77 L 405.23 77.88 L 394.77 75.53 L 384.06 73.79 L 373.14 73.95 L 362.18 74.07 L 351.33 75.58 L 340.44 76.61 L 329.54 77.53 L 318.65 78.38 L 307.80 79.13 L 296.99 79.81 L 286.24 80.45 L 275.57 81.07 L 264.97 81.69 L 254.46 82.35 L 244.05 83.10 L 233.75 83.93 L 223.55 84.92 L 213.49 86.24 L 203.54 87.46 L 193.72 89.49 L 184.49 93.18 L 176.05 98.41 L 168.53 104.88 L 162.32 112.67 L 157.55 121.53 L 153.03 130.67 L 147.53 139.29 L 142.08 147.99 L 136.55 156.69 L 131.15 165.56 L 126.17 174.68 L 120.87 183.59 L 119.43 193.62 L 121.43 204.28 Z" />
</symbol>
</defs>
<!-- isDone: 0 -->
<rect width="700" height="500" style="fill:#fff;stroke-width:0" />
<use class="p0 borderLine" xlink:href="#bl0"/>
<use class="p1 borderLine" xlink:href="#bl1"/>
<use class="p2 borderLine" xlink:href="#bl2"/>
<use class="p3 borderLine" xlink:href="#bl3"/>
<use class="q0 outLine" xlink:href="#bl0"/>
<use class="q1 outLine" xlink:href="#bl1"/>
<use class="q2 outLine" xlink:href="#bl2"/>
<use class="q3 outLine" xlink:href="#bl3"/>
<circle onclick="fromCircle(1)" class="circle" cx="97.7346" cy="97.7434" r="53.4136" />
<text class="tLabel" x="97.73" y="77.74"></text>
<text class="nLabel" x="97.73" y="92.74">20</text>
<text class="belong" x="97.73" y="102.74">(1)</text>
<circle onclick="fromCircle(2)" class="circle" cx="225.2657" cy="416.9275" r="41.3740" />
<text class="tLabel" x="225.27" y="396.93"></text>
<text class="nLabel" x="225.27" y="411.93">12</text>
<text class="belong" x="225.27" y="421.93">(2)</text>
<circle onclick="fromCircle(6)" class="circle" cx="158.9236" cy="360.7472" r="29.2558" />
<text class="tLabel" x="158.92" y="340.75"></text>
<text class="nLabel" x="158.92" y="355.75">6</text>
<text class="belong" x="158.92" y="365.75">(2, 3)</text>
<circle onclick="fromCircle(14)" class="circle" cx="213.8236" cy="331.6926" r="11.9436" />
<text class="tLabel" x="213.82" y="311.69"></text>
<text class="nLabel" x="213.82" y="326.69">1</text>
<text class="belong" x="213.82" y="336.69">(2, 3, 4)</text>
<circle onclick="fromCircle(10)" class="circle" cx="282.1569" cy="331.5071" r="39.6126" />
<text class="tLabel" x="282.16" y="311.51"></text>
<text class="nLabel" x="282.16" y="326.51">11</text>
<text class="belong" x="282.16" y="336.51">(2, 4)</text>
<circle onclick="fromCircle(4)" class="circle" cx="63.9360" cy="307.5848" r="63.1998" />
<text class="tLabel" x="63.94" y="287.58"></text>
<text class="nLabel" x="63.94" y="302.58">28</text>
<text class="belong" x="63.94" y="312.58">(3)</text>
<circle onclick="fromCircle(5)" class="circle" cx="76.7329" cy="197.0742" r="31.5999" />
<text class="tLabel" x="76.73" y="177.07"></text>
<text class="nLabel" x="76.73" y="192.07">7</text>
<text class="belong" x="76.73" y="202.07">(1, 3)</text>
<circle onclick="fromCircle(13)" class="circle" cx="147.1449" cy="193.3921" r="16.8909" />
<text class="tLabel" x="147.14" y="173.39"></text>
<text class="nLabel" x="147.14" y="188.39">2</text>
<text class="belong" x="147.14" y="198.39">(1, 3, 4)</text>
<circle onclick="fromCircle(12)" class="circle" cx="197.1008" cy="257.3878" r="47.7746" />
<text class="tLabel" x="197.10" y="237.39"></text>
<text class="nLabel" x="197.10" y="252.39">16</text>
<text class="belong" x="197.10" y="262.39">(3, 4)</text>
<circle onclick="fromCircle(8)" class="circle" cx="374.7178" cy="194.3373" r="109.4653" />
<text class="tLabel" x="374.72" y="174.34"></text>
<text class="nLabel" x="374.72" y="189.34">84</text>
<text class="belong" x="374.72" y="199.34">(4)</text>
<circle onclick="fromCircle(9)" class="circle" cx="209.8908" cy="144.5148" r="46.2575" />
<text class="tLabel" x="209.89" y="124.51"></text>
<text class="nLabel" x="209.89" y="139.51">15</text>
<text class="belong" x="209.89" y="149.51">(1, 4)</text>
<rect class="p0 borderLine" x="500.00" y="50.00" width="30.00" height="15.00" />
<rect class="q0" x="500.00" y="50.00" width="30.00" height="15.00" />
<text class="legend" x="540.00" y="65.00">S_salivarius</text>
<rect class="p1 borderLine" x="500.00" y="90.00" width="30.00" height="15.00" />
<rect class="q1" x="500.00" y="90.00" width="30.00" height="15.00" />
<text class="legend" x="540.00" y="105.00">Other</text>
<rect class="p2 borderLine" x="500.00" y="130.00" width="30.00" height="15.00" />
<rect class="q2" x="500.00" y="130.00" width="30.00" height="15.00" />
<text class="legend" x="540.00" y="145.00">GAS</text>
<rect class="p3 borderLine" x="500.00" y="170.00" width="30.00" height="15.00" />
<rect class="q3" x="500.00" y="170.00" width="30.00" height="15.00" />
<text class="legend" x="540.00" y="185.00">GCS/GGS</text>
</svg>
