<svg xmlns="http://www.w3.org/2000/svg" xmlns:xlink="http://www.w3.org/1999/xlink" viewBox="0 0 700 500">
<defs>
<style type="text/css"><![CDATA[
  .borderLine {
	   stroke: none;
	   fill-opacity: 0.4;
  }
  .outLine {
	   stroke-width: 1;
	   fill: none;
  }
  .circle {
	   stroke: #888888;
	   stroke-width: 0.5;
	   fill: none;
    pointer-events: all;
  }
  .spcircle {
	   stroke: #FF2222;
	   stroke-width: 1;
	   fill: none;
    pointer-events: all;
  }
  .tLabel {
	   font-family: Arial;
    pointer-events: none;
	   font-size: 14px;
	   text-anchor: middle;
	   alignment-baseline: central;
  }
  .nLabel {
	   font-family: Arial;
    pointer-events: none;
	   font-size: 10px;
	   text-anchor: middle;
	   alignment-baseline: central;
  }
  .belong {
	   font-family: Arial;
    pointer-events: none;
	   font-size: 5px;
	   text-anchor: middle;
	   alignment-baseline: central;
  }
  .p0{
    stroke: none;
    fill: #e6194b;
  }
  .q0{
    fill: none;
    stroke: #e6194b;
  }
  .p1{
    stroke: none;
    fill: #3cb44b;
  }
  .q1{
    fill: none;
    stroke: #3cb44b;
  }
  .p2{
    stroke: none;
    fill: #ffe119;
  }
  .q2{
    fill: none;
    stroke: #ffe119;
  }
  .p3{
    stroke: none;
    fill: #0082c8;
  }
  .q3{
    fill: none;
    stroke: #0082c8;
  }
  .p4{
    stroke: none;
    fill: #f58231;
  }
  .q4{
    fill: none;
    stroke: #f58231;
  }
  .p5{
    stroke: none;
    fill: #911eb4;
  }
  .q5{
    fill: none;
    stroke: #911eb4;
  }
  .p6{
    stroke: none;
    fill: #46f0f0;
  }
  .q6{
    fill: none;
    stroke: #46f0f0;
  }
]]>
</style>
<symbol id="bl0">
<path d="M 203.50 94.52 L 204.36 70.66 L 196.03 48.34 L 179.84 30.95 L 158.26 21.06 L 134.51 20.15 L 112.18 28.41 L 94.67 44.63 L 84.71 66.35 L 83.85 90.21 L 92.18 112.53 L 108.38 129.93 L 129.96 139.82 L 153.70 140.72 L 176.04 132.46 L 193.55 116.24 Z" />
</symbol>
<symbol id="bl1">
<path d="M 362.02 428.74 L 353.98 410.78 L 339.00 398.18 L 321.73 393.41 L 304.86 395.63 L 290.55 403.70 L 280.33 416.22 L 275.35 431.52 L 276.20 447.60 L 282.88 462.41 L 294.50 473.80 L 309.41 480.17 L 325.64 480.69 L 341.11 475.19 L 353.84 463.93 L 361.61 447.67 Z" />
</symbol>
<symbol id="bl2">
<path d="M 403.11 281.34 L 382.12 270.98 L 357.93 273.00 L 338.74 286.96 L 329.82 306.43 L 330.69 326.71 L 340.17 344.16 L 356.64 355.90 L 377.23 359.11 L 397.11 352.55 L 411.50 338.10 L 417.91 319.29 L 415.39 299.29 Z" />
</symbol>
<symbol id="bl3">
<path d="M 241.70 353.64 L 223.41 346.86 L 204.57 345.95 L 186.77 350.47 L 171.28 359.74 L 159.17 372.89 L 151.26 388.87 L 148.16 406.46 L 150.15 424.31 L 157.14 440.91 L 168.48 454.78 L 183.05 464.78 L 199.62 470.29 L 216.70 472.18 L 233.61 474.12 L 250.22 476.05 L 266.36 477.88 L 281.76 479.49 L 296.18 480.76 L 309.55 481.65 L 322.44 482.28 L 335.59 479.22 L 348.80 471.11 L 359.90 456.20 L 364.03 435.47 L 357.46 413.75 L 340.41 397.56 L 319.77 387.96 L 299.34 378.75 L 279.38 370.03 L 260.16 361.67 Z" />
</symbol>
<symbol id="bl4">
<path d="M 319.83 483.01 L 336.74 479.41 L 350.59 470.28 L 360.13 457.14 L 364.54 440.71 L 362.05 422.01 L 351.25 404.89 L 333.94 394.04 L 314.59 391.71 L 297.42 396.87 L 284.31 407.32 L 276.02 421.33 L 273.16 437.77 L 276.74 455.02 L 286.96 470.02 L 302.22 479.87 Z" />
</symbol>
<symbol id="bl5">
<path d="M 315.75 483.52 L 333.50 481.27 L 348.34 473.09 L 358.92 460.70 L 364.66 444.82 L 363.91 426.10 L 354.74 407.84 L 338.12 395.07 L 318.50 390.90 L 300.55 394.69 L 286.51 404.11 L 277.10 417.23 L 272.74 433.11 L 274.52 450.62 L 283.21 466.85 L 297.83 478.55 Z" />
</symbol>
<symbol id="bl6">
<path d="M 146.50 403.53 L 147.71 421.85 L 154.09 439.21 L 165.11 454.05 L 179.74 465.10 L 196.58 471.52 L 214.06 473.07 L 230.93 474.65 L 247.22 476.41 L 262.98 478.30 L 278.42 480.16 L 294.04 481.84 L 310.51 483.47 L 328.21 483.30 L 344.29 476.78 L 356.74 465.11 L 364.31 449.30 L 371.89 432.86 L 379.73 415.95 L 387.63 398.76 L 395.45 381.43 L 403.12 364.03 L 410.70 346.53 L 418.37 328.90 L 420.24 309.21 L 413.90 290.60 L 400.78 276.41 L 383.36 268.77 L 364.65 268.37 L 345.99 268.31 L 327.24 268.86 L 308.41 269.88 L 289.53 271.11 L 270.53 272.32 L 252.44 279.67 L 238.84 293.48 L 225.26 306.86 L 211.76 319.89 L 198.34 332.61 L 184.99 345.03 L 171.65 357.14 L 159.01 369.98 L 150.41 385.81 Z" />
</symbol>
</defs>
<!-- signature: 2269067988;7;Pseudo;Epidernidis;Coryne;Aureus;Neumo;Pyogenes;Microbiota;0;2;0;0;0;0;0;0;0;0;0;0;0;0;0;0;0;0;0;0;0;0;0;0;0;0;0;0;0;0;0;0;0;0;0;0;0;0;0;0;0;0;0;0;0;0;0;0;0;0;0;0;0;0;0;0;0;0;0;0;0;0;0;0;1;0;0;0;1;0;0;0;2;0;0;0;0;0;0;0;0;0;0;0;0;0;0;0;0;0;0;0;0;0;0;0;0;0;0;0;0;0;0;0;0;0;0;0;0;0;0;0;0;0;0;0;0;0;0;0;0;0;1;0;0;0;0;0; -->
<desc>STEP: 7;EVALUATE: 110.883;LASTEVALUATE: 110.928;DT: 0.01;SIMTIME: 5.04006;COUNTER: 1;CANFINISH: 1;CWI: 0</desc>
<rect width="700" height="500" style="fill:#fff;stroke-width:0" />
<use class="p0 borderLine" xlink:href="#bl0"/>
<use class="p1 borderLine" xlink:href="#bl1"/>
<use class="p2 borderLine" xlink:href="#bl2"/>
<use class="p3 borderLine" xlink:href="#bl3"/>
<use class="p4 borderLine" xlink:href="#bl4"/>
<use class="p5 borderLine" xlink:href="#bl5"/>
<use class="p6 borderLine" xlink:href="#bl6"/>
<use class="q0 outLine" xlink:href="#bl0"/>
<use class="q1 outLine" xlink:href="#bl1"/>
<use class="q2 outLine" xlink:href="#bl2"/>
<use class="q3 outLine" xlink:href="#bl3"/>
<use class="q4 outLine" xlink:href="#bl4"/>
<use class="q5 outLine" xlink:href="#bl5"/>
<use class="q6 outLine" xlink:href="#bl6"/>
<circle onclick="fromCircle(1)" class="circle" cx="144.1080" cy="80.4383" r="60.4383" />
<text class="tLabel" x="144.11" y="60.44"></text>
<text class="nLabel" x="144.11" y="75.44">2</text>
<text class="belong" x="144.11" y="85.44">(1)</text>
<circle onclick="fromCircle(122)" class="circle" cx="318.9130" cy="437.2636" r="42.7363" />
<text class="tLabel" x="318.91" y="417.26"></text>
<text class="nLabel" x="318.91" y="432.26">1</text>
<text class="belong" x="318.91" y="442.26">(2, 4, 5, 6, 7)</text>
<circle onclick="fromCircle(68)" class="circle" cx="373.5939" cy="314.7079" r="42.7363" />
<text class="tLabel" x="373.59" y="294.71"></text>
<text class="nLabel" x="373.59" y="309.71">1</text>
<text class="belong" x="373.59" y="319.71">(3, 7)</text>
<circle onclick="fromCircle(72)" class="circle" cx="210.9814" cy="408.4728" r="60.4383" />
<text class="tLabel" x="210.98" y="388.47"></text>
<text class="nLabel" x="210.98" y="403.47">2</text>
<text class="belong" x="210.98" y="413.47">(4, 7)</text>
<circle onclick="fromCircle(64)" class="circle" cx="278.7770" cy="318.5568" r="42.7363" />
<text class="tLabel" x="278.78" y="298.56"></text>
<text class="nLabel" x="278.78" y="313.56">1</text>
<text class="belong" x="278.78" y="323.56">(7)</text>
<rect class="p0 borderLine" x="500.00" y="50.00" width="30.00" height="15.00" />
<rect class="q0" x="500.00" y="50.00" width="30.00" height="15.00" />
<text class="legend" x="540.00" y="65.00">Pseudo</text>
<rect class="p1 borderLine" x="500.00" y="90.00" width="30.00" height="15.00" />
<rect class="q1" x="500.00" y="90.00" width="30.00" height="15.00" />
<text class="legend" x="540.00" y="105.00">Epidernidis</text>
<rect class="p2 borderLine" x="500.00" y="130.00" width="30.00" height="15.00" />
<rect class="q2" x="500.00" y="130.00" width="30.00" height="15.00" />
<text class="legend" x="540.00" y="145.00">Coryne</text>
<rect class="p3 borderLine" x="500.00" y="170.00" width="30.00" height="15.00" />
<rect class="q3" x="500.00" y="170.00" width="30.00" height="15.00" />
<text class="legend" x="540.00" y="185.00">Aureus</text>
<rect class="p4 borderLine" x="500.00" y="210.00" width="30.00" height="15.00" />
<rect class="q4" x="500.00" y="210.00" width="30.00" height="15.00" />
<text class="legend" x="540.00" y="225.00">Neumo</text>
<rect class="p5 borderLine" x="500.00" y="250.00" width="30.00" height="15.00" />
<rect class="q5" x="500.00" y="250.00" width="30.00" height="15.00" />
<text class="legend" x="540.00" y="265.00">Pyogenes</text>
<rect class="p6 borderLine" x="500.00" y="290.00" width="30.00" height="15.00" />
<rect class="q6" x="500.00" y="290.00" width="30.00" height="15.00" />
<text class="legend" x="540.00" y="305.00">Microbiota</text>
</svg>
