<svg xmlns="http://www.w3.org/2000/svg" xmlns:xlink="http://www.w3.org/1999/xlink" width="700" height="500">
<defs>
<style type="text/css"><![CDATA[
  .borderLine {
	   stroke: none;
	   fill-opacity: 0.4;
  }
  .outLine {
	   stroke-width: 1;
	   fill: none;
  }
  .circle {
	   stroke: #888888;
	   stroke-width: 0.5;
	   fill: none;
    pointer-events: all;
  }
  .spcircle {
	   stroke: #FF2222;
	   stroke-width: 1;
	   fill: none;
    pointer-events: all;
  }
  .tLabel {
	   font-family: Arial;
    pointer-events: none;
	   font-size: 14px;
	   text-anchor: middle;
	   alignment-baseline: central;
  }
  .nLabel {
	   font-family: Arial;
    pointer-events: none;
	   font-size: 10px;
	   text-anchor: middle;
	   alignment-baseline: central;
  }
  .belong {
	   font-family: Arial;
    pointer-events: none;
	   font-size: 5px;
	   text-anchor: middle;
	   alignment-baseline: central;
  }
  .p0{
    stroke: none;
    fill: #e6194b;
  }
  .q0{
    fill: none;
    stroke: #e6194b;
  }
  .p1{
    stroke: none;
    fill: #3cb44b;
  }
  .q1{
    fill: none;
    stroke: #3cb44b;
  }
  .p2{
    stroke: none;
    fill: #ffe119;
  }
  .q2{
    fill: none;
    stroke: #ffe119;
  }
  .p3{
    stroke: none;
    fill: #0082c8;
  }
  .q3{
    fill: none;
    stroke: #0082c8;
  }
]]>
</style>
<symbol id="bl0">
<path d="M 307.87 236.85 L 309.62 253.94 L 311.34 270.93 L 312.63 287.91 L 313.76 304.42 L 323.20 320.12 L 333.69 334.19 L 343.37 348.36 L 352.68 362.18 L 362.58 376.02 L 377.47 381.20 L 392.09 381.18 L 405.39 375.32 L 415.54 364.73 L 421.07 350.92 L 425.84 336.40 L 429.76 321.28 L 432.98 305.89 L 435.90 290.78 L 431.24 274.35 L 425.12 258.32 L 418.47 241.97 L 411.51 226.23 L 407.15 209.85 L 399.27 193.81 L 385.88 182.40 L 370.57 173.93 L 353.04 174.56 L 336.25 178.96 L 322.38 189.38 L 312.71 203.42 L 308.27 219.59 Z" />
</symbol>
<symbol id="bl1">
<path d="M 92.06 288.51 L 86.38 302.66 L 80.99 316.91 L 74.96 330.99 L 69.50 345.51 L 64.26 360.13 L 61.01 375.86 L 63.19 391.46 L 71.09 405.74 L 83.35 417.19 L 98.48 423.71 L 113.75 428.06 L 129.36 431.32 L 145.47 433.87 L 161.80 435.72 L 178.49 435.89 L 195.02 433.01 L 210.81 429.67 L 224.24 419.48 L 231.49 403.01 L 229.96 384.29 L 222.03 367.62 L 214.25 350.86 L 207.17 333.74 L 200.42 316.85 L 196.56 299.16 L 193.38 281.68 L 190.02 264.94 L 182.74 250.07 L 170.45 239.05 L 154.93 232.87 L 138.47 232.62 L 123.45 237.26 L 111.42 246.86 L 102.04 259.44 L 97.55 274.30 Z" />
</symbol>
<symbol id="bl2">
<path d="M 161.57 357.71 L 160.45 375.12 L 157.84 392.23 L 158.37 409.06 L 167.18 423.23 L 179.25 434.52 L 191.78 445.08 L 205.00 455.23 L 218.95 464.81 L 233.38 473.99 L 248.52 482.10 L 264.05 489.54 L 280.06 495.49 L 296.48 499.28 L 312.90 499.07 L 328.15 495.05 L 342.62 489.93 L 356.07 482.97 L 368.41 474.05 L 379.58 462.98 L 389.58 449.98 L 398.44 435.43 L 405.98 419.58 L 412.83 403.14 L 418.40 386.01 L 422.37 368.66 L 425.30 351.25 L 423.68 333.98 L 414.83 319.27 L 400.40 309.10 L 384.95 301.27 L 369.24 293.14 L 354.28 284.63 L 337.76 276.03 L 321.30 269.97 L 305.34 262.04 L 289.89 253.06 L 273.79 245.37 L 256.67 241.58 L 238.42 241.17 L 222.06 249.41 L 207.36 259.71 L 198.06 275.63 L 192.41 292.45 L 183.67 308.64 L 171.20 322.01 L 164.01 340.10 Z" />
</symbol>
<symbol id="bl3">
<path d="M 126.42 36.21 L 114.55 49.63 L 104.13 64.52 L 96.53 81.19 L 91.62 98.84 L 89.55 117.12 L 90.18 135.56 L 89.87 154.05 L 89.68 172.62 L 89.81 191.28 L 90.13 210.12 L 90.69 229.09 L 91.68 247.97 L 92.86 266.62 L 92.93 285.30 L 99.57 303.23 L 111.41 317.88 L 127.78 326.73 L 143.89 335.89 L 158.53 347.13 L 173.99 359.44 L 200.36 355.80 L 212.50 358.04 L 227.66 359.14 L 244.70 358.96 L 262.22 357.47 L 279.41 352.88 L 296.62 347.31 L 313.54 341.62 L 329.31 335.98 L 345.10 329.13 L 362.30 309.73 L 372.78 298.25 L 383.36 284.95 L 393.68 270.60 L 406.36 257.41 L 414.37 241.20 L 416.68 223.13 L 413.46 205.05 L 405.41 188.13 L 393.92 174.09 L 384.42 158.60 L 374.54 143.22 L 364.19 128.19 L 354.00 113.18 L 344.09 98.06 L 334.30 82.85 L 324.49 67.75 L 314.68 52.79 L 303.26 38.90 L 289.94 26.77 L 275.76 15.76 L 259.69 7.83 L 242.31 3.21 L 224.55 0.43 L 206.68 -0.41 L 188.83 1.91 L 171.40 6.87 L 154.87 14.23 L 139.76 24.21 Z" />
</symbol>
</defs>
<!-- isDone: 0 -->
<rect width="700" height="500" style="fill:#fff;stroke-width:0" />
<use class="p0 borderLine" xlink:href="#bl0"/>
<use class="p1 borderLine" xlink:href="#bl1"/>
<use class="p2 borderLine" xlink:href="#bl2"/>
<use class="p3 borderLine" xlink:href="#bl3"/>
<use class="q0 outLine" xlink:href="#bl0"/>
<use class="q1 outLine" xlink:href="#bl1"/>
<use class="q2 outLine" xlink:href="#bl2"/>
<use class="q3 outLine" xlink:href="#bl3"/>
<circle onclick="fromCircle(1)" class="circle" cx="416.0345" cy="288.3395" r="17.2522" />
<text class="tLabel" x="416.03" y="268.34"></text>
<text class="nLabel" x="416.03" y="283.34">2</text>
<text class="belong" x="416.03" y="293.34">(1)</text>
<circle onclick="fromCircle(2)" class="circle" cx="109.3351" cy="376.8783" r="42.2592" />
<text class="tLabel" x="109.34" y="356.88"></text>
<text class="nLabel" x="109.34" y="371.88">12</text>
<text class="belong" x="109.34" y="381.88">(2)</text>
<circle onclick="fromCircle(6)" class="circle" cx="195.8957" cy="396.6376" r="29.8817" />
<text class="tLabel" x="195.90" y="376.64"></text>
<text class="nLabel" x="195.90" y="391.64">6</text>
<text class="belong" x="195.90" y="401.64">(2, 3)</text>
<circle onclick="fromCircle(14)" class="circle" cx="184.7161" cy="338.0828" r="12.1992" />
<text class="tLabel" x="184.72" y="318.08"></text>
<text class="nLabel" x="184.72" y="333.08">1</text>
<text class="belong" x="184.72" y="343.08">(2, 3, 4)</text>
<circle onclick="fromCircle(10)" class="circle" cx="145.3548" cy="278.2838" r="40.4601" />
<text class="tLabel" x="145.35" y="258.28"></text>
<text class="nLabel" x="145.35" y="273.28">11</text>
<text class="belong" x="145.35" y="283.28">(2, 4)</text>
<circle onclick="fromCircle(4)" class="circle" cx="303.7476" cy="426.3749" r="64.5519" />
<text class="tLabel" x="303.75" y="406.37"></text>
<text class="nLabel" x="303.75" y="421.37">28</text>
<text class="belong" x="303.75" y="431.37">(3)</text>
<circle onclick="fromCircle(5)" class="circle" cx="384.7809" cy="346.9492" r="32.2760" />
<text class="tLabel" x="384.78" y="326.95"></text>
<text class="nLabel" x="384.78" y="341.95">7</text>
<text class="belong" x="384.78" y="351.95">(1, 3)</text>
<circle onclick="fromCircle(13)" class="circle" cx="334.8193" cy="302.3062" r="17.2522" />
<text class="tLabel" x="334.82" y="282.31"></text>
<text class="nLabel" x="334.82" y="297.31">2</text>
<text class="belong" x="334.82" y="307.31">(1, 3, 4)</text>
<circle onclick="fromCircle(12)" class="circle" cx="251.8732" cy="298.4519" r="48.7967" />
<text class="tLabel" x="251.87" y="278.45"></text>
<text class="nLabel" x="251.87" y="293.45">16</text>
<text class="belong" x="251.87" y="303.45">(3, 4)</text>
<circle onclick="fromCircle(8)" class="circle" cx="213.6776" cy="123.2747" r="111.8072" />
<text class="tLabel" x="213.68" y="103.27"></text>
<text class="nLabel" x="213.68" y="118.27">84</text>
<text class="belong" x="213.68" y="128.27">(4)</text>
<circle onclick="fromCircle(9)" class="circle" cx="358.3466" cy="224.2569" r="47.2472" />
<text class="tLabel" x="358.35" y="204.26"></text>
<text class="nLabel" x="358.35" y="219.26">15</text>
<text class="belong" x="358.35" y="229.26">(1, 4)</text>
<rect class="p0 borderLine" x="500.00" y="50.00" width="30.00" height="15.00" />
<rect class="q0" x="500.00" y="50.00" width="30.00" height="15.00" />
<text class="legend" x="540.00" y="65.00">S_salivarius</text>
<rect class="p1 borderLine" x="500.00" y="90.00" width="30.00" height="15.00" />
<rect class="q1" x="500.00" y="90.00" width="30.00" height="15.00" />
<text class="legend" x="540.00" y="105.00">Other</text>
<rect class="p2 borderLine" x="500.00" y="130.00" width="30.00" height="15.00" />
<rect class="q2" x="500.00" y="130.00" width="30.00" height="15.00" />
<text class="legend" x="540.00" y="145.00">GAS</text>
<rect class="p3 borderLine" x="500.00" y="170.00" width="30.00" height="15.00" />
<rect class="q3" x="500.00" y="170.00" width="30.00" height="15.00" />
<text class="legend" x="540.00" y="185.00">GCS/GGS</text>
</svg>
