<svg xmlns="http://www.w3.org/2000/svg" xmlns:xlink="http://www.w3.org/1999/xlink" width="700" height="500">
<defs>
<style type="text/css"><![CDATA[
  .borderLine {
	   stroke: none;
	   fill-opacity: 0.4;
  }
  .outLine {
	   stroke-width: 1;
	   fill: none;
  }
  .circle {
	   stroke: #888888;
	   stroke-width: 0.5;
	   fill: none;
    pointer-events: all;
  }
  .spcircle {
	   stroke: #FF2222;
	   stroke-width: 1;
	   fill: none;
    pointer-events: all;
  }
  .tLabel {
	   font-family: Arial;
    pointer-events: none;
	   font-size: 14px;
	   text-anchor: middle;
	   alignment-baseline: central;
  }
  .nLabel {
	   font-family: Arial;
    pointer-events: none;
	   font-size: 10px;
	   text-anchor: middle;
	   alignment-baseline: central;
  }
  .belong {
	   font-family: Arial;
    pointer-events: none;
	   font-size: 5px;
	   text-anchor: middle;
	   alignment-baseline: central;
  }
  .p0{
    stroke: none;
    fill: #e6194b;
  }
  .q0{
    fill: none;
    stroke: #e6194b;
  }
  .p1{
    stroke: none;
    fill: #3cb44b;
  }
  .q1{
    fill: none;
    stroke: #3cb44b;
  }
  .p2{
    stroke: none;
    fill: #ffe119;
  }
  .q2{
    fill: none;
    stroke: #ffe119;
  }
  .p3{
    stroke: none;
    fill: #0082c8;
  }
  .q3{
    fill: none;
    stroke: #0082c8;
  }
]]>
</style>
<symbol id="bl0">
<path d="M 139.24 365.92 L 115.90 369.09 L 97.02 381.86 L 85.76 400.70 L 86.24 422.87 L 98.06 445.12 L 117.70 458.40 L 139.02 460.92 L 157.57 454.88 L 171.13 443.28 L 179.03 428.92 L 183.91 414.61 L 192.95 400.97 L 178.11 385.64 L 160.35 373.64 Z" />
</symbol>
<symbol id="bl1">
<path d="M 218.12 283.65 L 215.50 316.86 L 214.64 350.80 L 221.52 388.58 L 243.19 384.75 L 261.51 357.61 L 281.98 331.69 L 304.01 306.33 L 326.65 280.86 L 340.05 246.70 L 328.28 211.00 L 296.88 191.47 L 261.17 195.87 L 236.17 220.99 L 221.73 250.54 Z" />
</symbol>
<symbol id="bl2">
<path d="M 205.64 224.85 L 199.79 224.57 L 195.00 227.93 L 192.30 233.99 L 193.22 240.08 L 197.13 244.55 L 202.13 247.39 L 207.29 250.00 L 212.72 252.54 L 218.59 255.08 L 225.15 258.08 L 230.45 256.07 L 230.90 251.34 L 227.60 246.87 L 223.39 242.56 L 219.23 238.01 L 215.17 233.32 L 211.16 228.50 Z" />
</symbol>
<symbol id="bl3">
<path d="M 194.03 387.20 L 189.18 391.55 L 184.52 395.92 L 181.92 401.29 L 184.48 407.57 L 187.91 412.69 L 191.87 416.48 L 196.66 418.05 L 201.74 416.49 L 204.98 411.87 L 207.15 405.97 L 210.28 400.16 L 214.67 394.78 L 220.74 390.35 L 229.37 388.37 L 234.96 382.73 L 232.86 375.96 L 226.19 373.95 L 214.84 375.91 L 206.17 379.09 L 199.48 382.98 Z" />
</symbol>
</defs>
<!-- isDone: 0 -->
<rect width="700" height="500" style="fill:#fff;stroke-width:0" />
<use class="p0 borderLine" xlink:href="#bl0"/>
<use class="p1 borderLine" xlink:href="#bl1"/>
<use class="p2 borderLine" xlink:href="#bl2"/>
<use class="p3 borderLine" xlink:href="#bl3"/>
<use class="q0 outLine" xlink:href="#bl0"/>
<use class="q1 outLine" xlink:href="#bl1"/>
<use class="q2 outLine" xlink:href="#bl2"/>
<use class="q3 outLine" xlink:href="#bl3"/>
<circle onclick="fromCircle(1)" class="circle" cx="133.8212" cy="413.4039" r="47.8001" />
<text class="tLabel" x="133.82" y="393.40"></text>
<text class="nLabel" x="133.82" y="408.40">1378</text>
<text class="belong" x="133.82" y="418.40">(1)</text>
<circle onclick="fromCircle(2)" class="circle" cx="285.3627" cy="244.9550" r="54.7221" />
<text class="tLabel" x="285.36" y="224.95"></text>
<text class="nLabel" x="285.36" y="239.95">1806</text>
<text class="belong" x="285.36" y="249.95">(2)</text>
<circle onclick="fromCircle(6)" class="circle" cx="226.0653" cy="252.6538" r="4.7214" />
<text class="tLabel" x="226.07" y="232.65"></text>
<text class="nLabel" x="226.07" y="247.65">8</text>
<text class="belong" x="226.07" y="257.65">(2, 3)</text>
<circle onclick="fromCircle(10)" class="circle" cx="227.1723" cy="380.8176" r="6.9343" />
<text class="tLabel" x="227.17" y="360.82"></text>
<text class="nLabel" x="227.17" y="375.82">29</text>
<text class="belong" x="227.17" y="385.82">(2, 4)</text>
<circle onclick="fromCircle(4)" class="circle" cx="202.9731" cy="235.4857" r="10.7734" />
<text class="tLabel" x="202.97" y="215.49"></text>
<text class="nLabel" x="202.97" y="230.49">70</text>
<text class="belong" x="202.97" y="240.49">(3)</text>
<circle onclick="fromCircle(5)" class="circle" cx="222.9078" cy="398.8124" r="8.7334" />
<text class="tLabel" x="222.91" y="378.81"></text>
<text class="nLabel" x="222.91" y="393.81">46</text>
<text class="belong" x="222.91" y="403.81">(1, 3)</text>
<circle onclick="fromCircle(8)" class="circle" cx="196.7538" cy="409.6057" r="8.0415" />
<text class="tLabel" x="196.75" y="389.61"></text>
<text class="nLabel" x="196.75" y="404.61">39</text>
<text class="belong" x="196.75" y="414.61">(4)</text>
<circle onclick="fromCircle(9)" class="circle" cx="187.0821" cy="401.4592" r="4.7214" />
<text class="tLabel" x="187.08" y="381.46"></text>
<text class="nLabel" x="187.08" y="396.46">6</text>
<text class="belong" x="187.08" y="406.46">(1, 4)</text>
<rect class="p0 borderLine" x="500.00" y="50.00" width="30.00" height="15.00" />
<rect class="q0" x="500.00" y="50.00" width="30.00" height="15.00" />
<text class="legend" x="540.00" y="65.00">Up_in_POU3F2_KO_iNs</text>
<rect class="p1 borderLine" x="500.00" y="90.00" width="30.00" height="15.00" />
<rect class="q1" x="500.00" y="90.00" width="30.00" height="15.00" />
<text class="legend" x="540.00" y="105.00">Down_in_POU3F2_KO_iNs</text>
<rect class="p2 borderLine" x="500.00" y="130.00" width="30.00" height="15.00" />
<rect class="q2" x="500.00" y="130.00" width="30.00" height="15.00" />
<text class="legend" x="540.00" y="145.00">Up_in_VGF_KO_iNs</text>
<rect class="p3 borderLine" x="500.00" y="170.00" width="30.00" height="15.00" />
<rect class="q3" x="500.00" y="170.00" width="30.00" height="15.00" />
<text class="legend" x="540.00" y="185.00">Down_in_VGF_KO_iNs</text>
</svg>
