<svg xmlns="http://www.w3.org/2000/svg" xmlns:xlink="http://www.w3.org/1999/xlink" width="700" height="500">
<defs>
<style type="text/css"><![CDATA[
  .borderLine {
	   stroke: none;
	   fill-opacity: 0.4;
  }
  .outLine {
	   stroke-width: 1;
	   fill: none;
  }
  .circle {
	   stroke: #888888;
	   stroke-width: 0.5;
	   fill: none;
    pointer-events: all;
  }
  .spcircle {
	   stroke: #FF2222;
	   stroke-width: 1;
	   fill: none;
    pointer-events: all;
  }
  .tLabel {
	   font-family: Arial;
    pointer-events: none;
	   font-size: 14px;
	   text-anchor: middle;
	   alignment-baseline: central;
  }
  .nLabel {
	   font-family: Arial;
    pointer-events: none;
	   font-size: 10px;
	   text-anchor: middle;
	   alignment-baseline: central;
  }
  .belong {
	   font-family: Arial;
    pointer-events: none;
	   font-size: 5px;
	   text-anchor: middle;
	   alignment-baseline: central;
  }
  .p0{
    stroke: none;
    fill: #e6194b;
  }
  .q0{
    fill: none;
    stroke: #e6194b;
  }
  .p1{
    stroke: none;
    fill: #3cb44b;
  }
  .q1{
    fill: none;
    stroke: #3cb44b;
  }
  .p2{
    stroke: none;
    fill: #ffe119;
  }
  .q2{
    fill: none;
    stroke: #ffe119;
  }
  .p3{
    stroke: none;
    fill: #0082c8;
  }
  .q3{
    fill: none;
    stroke: #0082c8;
  }
]]>
</style>
<symbol id="bl0">
<path d="M 213.12 341.73 L 209.47 339.56 L 206.34 337.72 L 203.60 336.10 L 201.00 334.57 L 198.51 333.10 L 196.12 331.67 L 193.87 330.34 L 191.72 329.09 L 189.64 327.88 L 187.33 327.04 L 184.93 327.53 L 183.20 329.21 L 182.07 331.23 L 180.97 333.25 L 179.88 335.28 L 178.79 337.28 L 177.69 339.27 L 176.59 341.25 L 175.51 343.23 L 174.45 345.24 L 173.39 347.24 L 172.34 349.25 L 171.30 351.26 L 170.26 353.28 L 169.23 355.31 L 168.22 357.36 L 167.21 359.42 L 166.21 361.49 L 165.22 363.57 L 164.24 365.66 L 163.27 367.77 L 162.30 369.88 L 161.35 372.01 L 160.41 374.15 L 159.49 376.29 L 158.58 378.45 L 157.68 380.61 L 156.80 382.78 L 155.93 384.96 L 155.06 387.13 L 154.22 389.32 L 153.38 391.50 L 152.55 393.69 L 151.75 395.88 L 151.02 398.10 L 150.37 400.34 L 149.81 402.60 L 149.32 404.88 L 148.92 407.16 L 148.59 409.46 L 148.36 411.77 L 148.20 414.09 L 148.13 416.40 L 148.11 418.72 L 148.10 421.03 L 148.11 423.35 L 148.12 425.67 L 148.15 427.98 L 148.20 430.30 L 148.25 432.61 L 148.33 434.93 L 148.41 437.25 L 148.52 439.57 L 148.64 441.89 L 148.77 444.22 L 148.93 446.55 L 149.10 448.88 L 149.28 451.21 L 149.48 453.55 L 149.70 455.88 L 149.92 458.22 L 150.16 460.57 L 150.41 462.92 L 150.67 465.26 L 150.93 467.61 L 151.19 469.97 L 151.45 472.33 L 151.72 474.69 L 152.28 477.01 L 153.30 479.17 L 154.72 481.09 L 156.50 482.68 L 158.57 483.89 L 160.81 484.66 L 163.17 484.97 L 165.54 484.81 L 167.89 484.62 L 170.25 484.42 L 172.59 484.23 L 174.93 484.06 L 177.28 483.89 L 179.61 483.73 L 181.94 483.58 L 184.27 483.44 L 186.61 483.32 L 188.93 483.20 L 191.25 483.10 L 193.57 483.01 L 195.89 482.93 L 198.21 482.87 L 200.53 482.81 L 202.84 482.76 L 205.15 482.71 L 207.46 482.68 L 209.78 482.64 L 212.08 482.61 L 214.40 482.57 L 216.70 482.49 L 219.01 482.33 L 221.31 482.09 L 223.60 481.77 L 225.88 481.36 L 228.15 480.88 L 230.40 480.32 L 232.63 479.67 L 234.84 478.94 L 237.03 478.13 L 239.19 477.25 L 241.32 476.28 L 243.42 475.24 L 245.48 474.13 L 247.50 472.93 L 249.48 471.67 L 251.41 470.34 L 253.30 468.93 L 255.13 467.46 L 256.91 465.92 L 258.63 464.32 L 260.29 462.66 L 261.89 460.94 L 263.43 459.17 L 264.90 457.34 L 266.31 455.46 L 267.64 453.54 L 268.90 451.56 L 270.10 449.55 L 271.22 447.49 L 272.26 445.39 L 273.23 443.26 L 274.12 441.09 L 274.94 438.89 L 275.68 436.66 L 276.33 434.40 L 276.91 432.12 L 277.40 429.82 L 277.81 427.50 L 278.13 425.15 L 278.37 422.80 L 278.53 420.44 L 278.60 418.07 L 278.59 415.70 L 278.48 413.33 L 278.29 410.97 L 278.02 408.60 L 277.68 406.25 L 277.21 403.92 L 276.68 401.60 L 276.06 399.31 L 275.36 397.03 L 274.59 394.79 L 273.72 392.57 L 272.78 390.38 L 271.76 388.24 L 270.66 386.14 L 269.49 384.07 L 268.24 382.05 L 266.91 380.08 L 265.53 378.15 L 264.07 376.29 L 262.55 374.47 L 260.96 372.72 L 259.30 371.02 L 257.59 369.38 L 255.82 367.81 L 253.99 366.29 L 252.09 364.84 L 250.12 363.44 L 248.06 362.09 L 245.87 360.77 L 243.58 359.45 L 241.24 358.11 L 238.93 356.79 L 236.49 355.40 L 233.73 353.77 L 230.89 352.10 L 228.01 350.43 L 224.55 348.39 L 221.39 346.59 L 218.65 344.99 Z" />
</symbol>
<symbol id="bl1">
<path d="M 107.62 264.16 L 105.78 267.52 L 104.25 270.38 L 102.91 272.88 L 101.65 275.24 L 100.45 277.50 L 99.30 279.68 L 98.23 281.76 L 97.22 283.73 L 96.26 285.65 L 95.32 287.55 L 94.38 289.44 L 93.46 291.36 L 92.55 293.28 L 91.96 295.39 L 92.32 297.56 L 93.59 299.37 L 95.53 300.44 L 97.77 300.55 L 99.84 299.69 L 101.64 298.44 L 103.42 297.17 L 105.21 295.91 L 107.00 294.67 L 108.80 293.43 L 110.61 292.20 L 112.41 290.97 L 114.21 289.74 L 116.01 288.52 L 117.81 287.30 L 119.62 286.10 L 121.42 284.91 L 123.22 283.72 L 125.02 282.53 L 126.82 281.36 L 128.62 280.19 L 130.42 279.04 L 132.21 277.89 L 134.01 276.74 L 135.80 275.61 L 137.60 274.48 L 139.39 273.35 L 141.18 272.24 L 142.96 271.12 L 144.75 270.02 L 146.54 268.91 L 148.32 267.82 L 150.11 266.72 L 151.88 265.62 L 153.67 264.54 L 155.44 263.45 L 157.22 262.36 L 159.00 261.28 L 160.78 260.19 L 162.56 259.11 L 164.33 258.03 L 166.11 256.95 L 167.89 255.87 L 169.66 254.79 L 171.45 253.71 L 173.23 252.63 L 175.01 251.55 L 176.79 250.47 L 178.56 249.39 L 180.35 248.31 L 182.13 247.23 L 183.91 246.15 L 185.70 245.06 L 187.47 243.99 L 189.25 242.91 L 191.03 241.83 L 192.81 240.74 L 194.60 239.66 L 196.37 238.59 L 198.14 237.51 L 199.92 236.43 L 201.69 235.35 L 203.47 234.28 L 205.24 233.20 L 207.02 232.12 L 208.79 231.05 L 210.56 229.97 L 212.34 228.89 L 214.13 227.81 L 215.91 226.74 L 217.70 225.66 L 219.48 224.58 L 221.27 223.51 L 223.06 222.43 L 224.86 221.36 L 226.66 220.29 L 228.45 219.22 L 230.24 218.16 L 232.04 217.11 L 233.84 216.06 L 235.63 215.01 L 237.42 213.97 L 239.20 212.94 L 240.98 211.91 L 242.76 210.90 L 244.53 209.89 L 246.30 208.88 L 248.06 207.89 L 249.82 206.90 L 251.58 205.92 L 253.32 204.94 L 255.07 203.97 L 256.81 203.01 L 258.55 202.06 L 260.29 201.11 L 262.02 200.16 L 263.75 199.23 L 265.48 198.29 L 267.20 197.37 L 268.93 196.45 L 270.64 195.53 L 272.36 194.62 L 274.07 193.72 L 275.79 192.82 L 277.49 191.93 L 279.20 191.05 L 280.90 190.17 L 282.60 189.30 L 284.30 188.44 L 286.00 187.59 L 287.69 186.75 L 289.38 185.91 L 291.07 185.08 L 292.75 184.26 L 294.44 183.46 L 296.13 182.65 L 297.81 181.86 L 299.50 181.08 L 301.18 180.31 L 302.87 179.55 L 304.56 178.80 L 306.25 178.05 L 307.95 177.32 L 309.64 176.60 L 311.35 175.89 L 313.07 175.18 L 314.79 174.49 L 316.52 173.80 L 318.26 173.13 L 320.01 172.46 L 321.77 171.81 L 323.54 171.16 L 325.33 170.52 L 327.13 169.89 L 328.95 169.28 L 330.78 168.66 L 332.63 168.06 L 334.49 167.47 L 336.36 166.89 L 338.26 166.32 L 340.16 165.76 L 342.09 165.21 L 344.03 164.66 L 345.98 164.13 L 347.95 163.61 L 349.93 163.09 L 351.92 162.59 L 353.92 162.10 L 355.94 161.61 L 357.97 161.13 L 360.00 160.66 L 362.05 160.20 L 364.11 159.74 L 366.17 159.30 L 368.24 158.85 L 370.31 158.42 L 372.39 157.99 L 374.47 157.54 L 376.54 157.05 L 378.60 156.49 L 380.64 155.87 L 382.66 155.20 L 384.66 154.47 L 386.63 153.68 L 388.58 152.84 L 390.50 151.95 L 392.39 151.00 L 394.24 150.01 L 396.06 148.97 L 397.84 147.88 L 399.58 146.75 L 401.28 145.57 L 402.95 144.36 L 404.57 143.10 L 406.14 141.81 L 407.68 140.48 L 409.18 139.11 L 410.63 137.70 L 412.04 136.27 L 413.41 134.80 L 414.73 133.29 L 416.02 131.76 L 417.25 130.19 L 418.45 128.59 L 419.60 126.96 L 420.71 125.30 L 421.77 123.61 L 422.79 121.89 L 423.76 120.14 L 424.69 118.36 L 425.57 116.56 L 426.41 114.73 L 427.19 112.87 L 427.93 110.98 L 428.62 109.08 L 429.26 107.15 L 429.84 105.20 L 430.38 103.23 L 430.85 101.24 L 431.28 99.23 L 431.65 97.21 L 431.97 95.18 L 432.23 93.14 L 432.44 91.07 L 432.59 89.00 L 432.68 86.91 L 432.71 84.81 L 432.69 82.68 L 432.60 80.52 L 432.44 78.34 L 432.23 76.14 L 431.93 73.90 L 431.56 71.62 L 431.11 69.32 L 430.58 66.98 L 429.97 64.63 L 429.27 62.26 L 428.47 59.88 L 427.59 57.50 L 426.62 55.15 L 425.57 52.82 L 424.44 50.53 L 423.24 48.29 L 421.98 46.12 L 420.67 44.02 L 419.30 41.99 L 417.90 40.04 L 416.46 38.18 L 414.99 36.39 L 413.51 34.69 L 411.99 33.06 L 410.47 31.50 L 408.91 30.02 L 407.34 28.59 L 405.75 27.23 L 404.13 25.93 L 402.49 24.68 L 400.83 23.47 L 399.13 22.33 L 397.41 21.23 L 395.66 20.17 L 393.89 19.17 L 392.08 18.21 L 390.25 17.31 L 388.40 16.45 L 386.51 15.65 L 384.61 14.89 L 382.68 14.19 L 380.73 13.53 L 378.75 12.93 L 376.77 12.39 L 374.76 11.90 L 372.73 11.45 L 370.70 11.08 L 368.65 10.76 L 366.59 10.49 L 364.53 10.28 L 362.46 10.13 L 360.40 10.04 L 358.32 10.00 L 356.26 10.02 L 354.20 10.10 L 352.14 10.23 L 350.09 10.42 L 348.05 10.67 L 346.01 10.97 L 343.99 11.33 L 341.97 11.74 L 339.97 12.21 L 337.97 12.74 L 335.99 13.32 L 334.01 13.97 L 332.05 14.66 L 330.10 15.42 L 328.16 16.23 L 326.23 17.10 L 324.32 18.03 L 322.43 19.03 L 320.55 20.08 L 318.70 21.19 L 316.87 22.36 L 315.06 23.59 L 313.28 24.88 L 311.53 26.23 L 309.81 27.64 L 308.13 29.10 L 306.49 30.62 L 304.89 32.20 L 303.33 33.82 L 301.82 35.49 L 300.36 37.21 L 298.95 38.98 L 297.60 40.78 L 296.31 42.62 L 295.07 44.50 L 293.89 46.40 L 292.78 48.33 L 291.73 50.28 L 290.74 52.25 L 289.82 54.23 L 288.93 56.21 L 288.03 58.17 L 287.13 60.11 L 286.23 62.03 L 285.33 63.93 L 284.42 65.80 L 283.50 67.65 L 282.58 69.49 L 281.64 71.29 L 280.70 73.08 L 279.74 74.85 L 278.77 76.60 L 277.78 78.32 L 276.78 80.03 L 275.76 81.72 L 274.72 83.39 L 273.67 85.05 L 272.60 86.69 L 271.51 88.31 L 270.40 89.92 L 269.27 91.51 L 268.13 93.09 L 266.97 94.66 L 265.79 96.21 L 264.59 97.75 L 263.37 99.28 L 262.14 100.79 L 260.89 102.29 L 259.63 103.78 L 258.35 105.26 L 257.05 106.73 L 255.74 108.18 L 254.41 109.63 L 253.07 111.07 L 251.72 112.50 L 250.35 113.93 L 248.97 115.34 L 247.58 116.75 L 246.17 118.15 L 244.76 119.55 L 243.33 120.94 L 241.90 122.32 L 240.45 123.71 L 239.00 125.08 L 237.54 126.45 L 236.07 127.82 L 234.60 129.19 L 233.12 130.55 L 231.64 131.91 L 230.14 133.28 L 228.65 134.63 L 227.15 135.99 L 225.64 137.35 L 224.14 138.71 L 222.62 140.07 L 221.11 141.43 L 219.58 142.79 L 218.06 144.16 L 216.53 145.52 L 215.00 146.89 L 213.47 148.26 L 211.93 149.63 L 210.39 151.01 L 208.85 152.38 L 207.32 153.77 L 205.78 155.15 L 204.24 156.53 L 202.70 157.91 L 201.17 159.30 L 199.63 160.69 L 198.09 162.09 L 196.56 163.49 L 195.03 164.89 L 193.50 166.29 L 191.97 167.71 L 190.44 169.12 L 188.91 170.55 L 187.39 171.98 L 185.86 173.41 L 184.33 174.86 L 182.81 176.31 L 181.28 177.77 L 179.76 179.24 L 178.22 180.72 L 176.70 182.21 L 175.18 183.70 L 173.65 185.20 L 172.13 186.72 L 170.61 188.24 L 169.09 189.76 L 167.58 191.30 L 166.07 192.83 L 164.56 194.38 L 163.06 195.93 L 161.55 197.48 L 160.07 199.04 L 158.58 200.59 L 157.10 202.15 L 155.62 203.71 L 154.16 205.27 L 152.69 206.84 L 151.24 208.40 L 149.78 209.95 L 148.33 211.51 L 146.88 213.07 L 145.43 214.62 L 143.97 216.17 L 142.52 217.72 L 141.06 219.27 L 139.61 220.81 L 138.14 222.35 L 136.66 223.89 L 135.18 225.43 L 133.68 226.97 L 132.18 228.52 L 130.65 230.08 L 129.11 231.67 L 127.53 233.29 L 125.89 234.97 L 124.19 236.72 L 122.45 238.48 L 120.83 240.34 L 119.57 242.60 L 118.11 245.17 L 116.63 247.81 L 115.15 250.48 L 113.36 253.68 L 111.80 256.58 L 110.40 259.10 Z" />
</symbol>
<symbol id="bl2">
<path d="M 99.41 443.35 L 102.18 446.05 L 104.57 448.30 L 106.72 450.22 L 108.79 451.99 L 110.79 453.64 L 112.75 455.19 L 114.63 456.61 L 116.44 457.92 L 118.20 459.14 L 119.94 460.32 L 121.69 461.48 L 123.45 462.62 L 125.21 463.75 L 126.99 464.87 L 128.78 465.99 L 130.59 467.11 L 132.41 468.22 L 134.25 469.34 L 136.10 470.46 L 137.97 471.59 L 139.86 472.72 L 141.77 473.87 L 143.70 475.03 L 145.64 476.19 L 147.60 477.36 L 149.58 478.55 L 151.57 479.75 L 153.60 480.97 L 155.67 482.23 L 157.84 483.53 L 160.31 484.53 L 163.00 484.96 L 165.70 484.76 L 168.36 483.93 L 170.84 482.45 L 172.86 480.42 L 171.58 476.93 L 143.50 146.30 L 146.40 401.45 L 147.99 485.61 L 149.26 490.00 L 150.05 482.73 L 150.71 471.87 L 151.21 462.31 L 151.46 454.96 L 151.26 449.29 L 150.82 444.79 L 150.46 441.03 L 150.17 437.96 L 149.73 435.48 L 149.07 433.32 L 148.27 431.27 L 147.43 429.24 L 146.59 427.21 L 145.75 425.18 L 144.91 423.16 L 144.07 421.13 L 143.24 419.10 L 142.41 417.06 L 141.58 415.02 L 140.75 412.97 L 139.93 410.91 L 139.11 408.85 L 138.29 406.79 L 137.48 404.72 L 136.65 402.64 L 135.85 400.56 L 135.04 398.48 L 134.24 396.39 L 133.44 394.30 L 132.64 392.21 L 131.86 390.11 L 131.07 388.01 L 130.30 385.90 L 129.53 383.79 L 128.77 381.69 L 128.01 379.58 L 127.26 377.47 L 126.52 375.36 L 125.79 373.26 L 125.07 371.15 L 124.35 369.05 L 123.65 366.96 L 122.95 364.87 L 122.26 362.78 L 121.57 360.69 L 120.90 358.61 L 120.22 356.54 L 119.56 354.47 L 118.90 352.40 L 118.24 350.33 L 117.59 348.27 L 116.94 346.21 L 116.29 344.14 L 115.64 342.08 L 114.99 340.01 L 114.34 337.94 L 113.70 335.87 L 113.06 333.79 L 112.41 331.71 L 111.77 329.63 L 111.13 327.54 L 110.49 325.45 L 109.86 323.35 L 109.24 321.25 L 108.61 319.16 L 107.99 317.07 L 107.38 314.97 L 106.77 312.88 L 106.17 310.79 L 105.59 308.71 L 105.00 306.63 L 104.41 304.56 L 103.84 302.49 L 103.28 300.44 L 102.74 298.39 L 102.21 296.35 L 101.67 294.33 L 100.64 292.45 L 98.95 291.18 L 96.90 290.72 L 94.86 291.17 L 93.19 292.40 L 92.16 294.18 L 91.18 295.97 L 90.23 297.76 L 89.30 299.57 L 88.38 301.37 L 87.47 303.18 L 86.57 304.98 L 85.68 306.79 L 84.81 308.62 L 83.96 310.43 L 83.11 312.26 L 82.28 314.08 L 81.46 315.92 L 80.66 317.76 L 79.88 319.61 L 79.11 321.46 L 78.36 323.32 L 77.63 325.19 L 76.91 327.06 L 76.21 328.94 L 75.53 330.83 L 74.88 332.73 L 74.25 334.63 L 73.64 336.55 L 73.05 338.47 L 72.48 340.40 L 71.94 342.34 L 71.43 344.29 L 70.94 346.25 L 70.47 348.22 L 70.04 350.20 L 69.63 352.18 L 69.25 354.18 L 68.90 356.18 L 68.58 358.19 L 68.30 360.20 L 68.04 362.22 L 67.82 364.25 L 67.64 366.29 L 67.49 368.31 L 67.39 370.35 L 67.32 372.39 L 67.29 374.43 L 67.30 376.46 L 67.35 378.50 L 67.45 380.53 L 67.59 382.56 L 67.78 384.57 L 68.01 386.59 L 68.29 388.59 L 68.62 390.58 L 68.99 392.56 L 69.41 394.53 L 69.88 396.48 L 70.39 398.41 L 70.95 400.33 L 71.55 402.23 L 72.20 404.12 L 72.89 405.98 L 73.64 407.84 L 74.43 409.68 L 75.27 411.52 L 76.18 413.36 L 77.15 415.23 L 78.23 417.14 L 79.41 419.09 L 80.67 421.07 L 81.95 423.00 L 83.36 425.02 L 85.09 427.30 L 86.93 429.62 L 88.83 431.92 L 91.21 434.66 L 93.38 437.07 L 95.34 439.19 Z" />
</symbol>
<symbol id="bl3">
<path d="M 119.07 259.24 L 119.02 263.02 L 118.98 266.26 L 118.95 269.11 L 118.90 271.81 L 118.84 274.40 L 118.79 276.88 L 118.73 279.23 L 118.68 281.47 L 118.62 283.63 L 118.57 285.76 L 118.51 287.88 L 118.46 289.99 L 118.41 292.10 L 118.37 294.20 L 118.33 296.32 L 118.31 298.43 L 118.29 300.54 L 118.36 302.66 L 118.83 304.72 L 119.70 306.66 L 120.91 308.41 L 122.45 309.90 L 124.27 311.06 L 126.24 311.93 L 128.23 312.81 L 130.23 313.68 L 132.25 314.54 L 134.28 315.40 L 136.33 316.25 L 138.38 317.10 L 140.44 317.95 L 142.51 318.79 L 144.59 319.63 L 146.67 320.46 L 148.76 321.29 L 150.85 322.12 L 152.95 322.95 L 155.05 323.77 L 157.16 324.59 L 159.27 325.42 L 161.39 326.23 L 163.51 327.05 L 165.64 327.87 L 167.78 328.70 L 169.92 329.52 L 172.08 330.34 L 174.23 331.16 L 176.39 331.97 L 178.55 332.81 L 180.71 333.64 L 182.87 334.47 L 185.03 335.30 L 187.37 335.73 L 189.59 334.87 L 191.04 333.00 L 191.29 330.65 L 190.30 328.52 L 189.13 326.57 L 187.93 324.63 L 186.71 322.70 L 185.48 320.79 L 184.28 318.87 L 183.07 316.96 L 181.85 315.07 L 180.62 313.19 L 179.39 311.32 L 178.16 309.46 L 176.94 307.59 L 175.72 305.73 L 174.49 303.87 L 173.27 302.02 L 172.05 300.17 L 170.83 298.32 L 169.61 296.47 L 168.40 294.61 L 167.20 292.76 L 166.01 290.91 L 164.82 289.06 L 163.64 287.20 L 162.47 285.34 L 161.32 283.49 L 160.17 281.64 L 159.03 279.78 L 157.91 277.92 L 156.80 276.07 L 155.69 274.22 L 154.60 272.37 L 153.51 270.52 L 152.44 268.66 L 151.38 266.81 L 150.32 264.96 L 149.27 263.11 L 148.22 261.26 L 147.17 259.40 L 146.14 257.55 L 145.09 255.69 L 144.06 253.84 L 143.03 251.98 L 142.00 250.13 L 140.96 248.27 L 139.93 246.41 L 138.89 244.56 L 137.85 242.69 L 136.80 240.81 L 135.46 239.06 L 133.70 237.64 L 131.58 236.65 L 129.23 236.20 L 126.85 236.36 L 124.50 237.16 L 122.19 238.76 L 120.39 241.08 L 119.39 243.86 L 119.32 247.44 L 119.19 250.70 L 119.17 253.55 Z" />
</symbol>
</defs>
<!-- isDone: 0 -->
<rect width="700" height="500" style="fill:#fff;stroke-width:0" />
<use class="p0 borderLine" xlink:href="#bl0"/>
<use class="p1 borderLine" xlink:href="#bl1"/>
<use class="p2 borderLine" xlink:href="#bl2"/>
<use class="p3 borderLine" xlink:href="#bl3"/>
<use class="q0 outLine" xlink:href="#bl0"/>
<use class="q1 outLine" xlink:href="#bl1"/>
<use class="q2 outLine" xlink:href="#bl2"/>
<use class="q3 outLine" xlink:href="#bl3"/>
<circle onclick="fromCircle(1)" class="circle" cx="213.3634" cy="417.3370" r="54.3689" />
<text class="tLabel" x="213.36" y="397.34"></text>
<text class="nLabel" x="213.36" y="412.34">1378</text>
<text class="belong" x="213.36" y="422.34">(1)</text>
<circle onclick="fromCircle(2)" class="circle" cx="358.0168" cy="84.6926" r="62.2422" />
<text class="tLabel" x="358.02" y="64.69"></text>
<text class="nLabel" x="358.02" y="79.69">1806</text>
<text class="belong" x="358.02" y="89.69">(2)</text>
<circle onclick="fromCircle(6)" class="circle" cx="96.9019" cy="295.6862" r="4.1426" />
<text class="tLabel" x="96.90" y="275.69"></text>
<text class="nLabel" x="96.90" y="290.69">8</text>
<text class="belong" x="96.90" y="300.69">(2, 3)</text>
<circle onclick="fromCircle(10)" class="circle" cx="128.6700" cy="245.6413" r="7.8872" />
<text class="tLabel" x="128.67" y="225.64"></text>
<text class="nLabel" x="128.67" y="240.64">29</text>
<text class="belong" x="128.67" y="250.64">(2, 4)</text>
<circle onclick="fromCircle(4)" class="circle" cx="115.1939" cy="388.6671" r="12.2539" />
<text class="tLabel" x="115.19" y="368.67"></text>
<text class="nLabel" x="115.19" y="383.67">70</text>
<text class="belong" x="115.19" y="393.67">(3)</text>
<circle onclick="fromCircle(5)" class="circle" cx="163.5172" cy="473.0651" r="9.9336" />
<text class="tLabel" x="163.52" y="453.07"></text>
<text class="nLabel" x="163.52" y="468.07">46</text>
<text class="belong" x="163.52" y="478.07">(1, 3)</text>
<circle onclick="fromCircle(8)" class="circle" cx="129.2459" cy="301.2785" r="9.1466" />
<text class="tLabel" x="129.25" y="281.28"></text>
<text class="nLabel" x="129.25" y="296.28">39</text>
<text class="belong" x="129.25" y="306.28">(4)</text>
<circle onclick="fromCircle(9)" class="circle" cx="186.9810" cy="331.3858" r="3.6543" />
<text class="tLabel" x="186.98" y="311.39"></text>
<text class="nLabel" x="186.98" y="326.39">6</text>
<text class="belong" x="186.98" y="336.39">(1, 4)</text>
<rect class="p0 borderLine" x="500.00" y="50.00" width="30.00" height="15.00" />
<rect class="q0" x="500.00" y="50.00" width="30.00" height="15.00" />
<text class="legend" x="540.00" y="65.00">Up_in_POU3F2_KO_iNs</text>
<rect class="p1 borderLine" x="500.00" y="90.00" width="30.00" height="15.00" />
<rect class="q1" x="500.00" y="90.00" width="30.00" height="15.00" />
<text class="legend" x="540.00" y="105.00">Down_in_POU3F2_KO_iNs</text>
<rect class="p2 borderLine" x="500.00" y="130.00" width="30.00" height="15.00" />
<rect class="q2" x="500.00" y="130.00" width="30.00" height="15.00" />
<text class="legend" x="540.00" y="145.00">Up_in_VGF_KO_iNs</text>
<rect class="p3 borderLine" x="500.00" y="170.00" width="30.00" height="15.00" />
<rect class="q3" x="500.00" y="170.00" width="30.00" height="15.00" />
<text class="legend" x="540.00" y="185.00">Down_in_VGF_KO_iNs</text>
</svg>
