<svg xmlns="http://www.w3.org/2000/svg" xmlns:xlink="http://www.w3.org/1999/xlink" width="700" height="500">
<defs>
<style type="text/css"><![CDATA[
  .borderLine {
	   stroke: none;
	   fill-opacity: 0.4;
  }
  .outLine {
	   stroke-width: 1;
	   fill: none;
  }
  .circle {
	   stroke: #888888;
	   stroke-width: 0.5;
	   fill: none;
    pointer-events: all;
  }
  .spcircle {
	   stroke: #FF2222;
	   stroke-width: 1;
	   fill: none;
    pointer-events: all;
  }
  .tLabel {
	   font-family: Arial;
    pointer-events: none;
	   font-size: 14px;
	   text-anchor: middle;
	   alignment-baseline: central;
  }
  .nLabel {
	   font-family: Arial;
    pointer-events: none;
	   font-size: 10px;
	   text-anchor: middle;
	   alignment-baseline: central;
  }
  .belong {
	   font-family: Arial;
    pointer-events: none;
	   font-size: 5px;
	   text-anchor: middle;
	   alignment-baseline: central;
  }
  .p0{
    stroke: none;
    fill: #e6194b;
  }
  .q0{
    fill: none;
    stroke: #e6194b;
  }
  .p1{
    stroke: none;
    fill: #3cb44b;
  }
  .q1{
    fill: none;
    stroke: #3cb44b;
  }
  .p2{
    stroke: none;
    fill: #ffe119;
  }
  .q2{
    fill: none;
    stroke: #ffe119;
  }
  .p3{
    stroke: none;
    fill: #0082c8;
  }
  .q3{
    fill: none;
    stroke: #0082c8;
  }
  .p4{
    stroke: none;
    fill: #f58231;
  }
  .q4{
    fill: none;
    stroke: #f58231;
  }
  .p5{
    stroke: none;
    fill: #911eb4;
  }
  .q5{
    fill: none;
    stroke: #911eb4;
  }
  .p6{
    stroke: none;
    fill: #46f0f0;
  }
  .q6{
    fill: none;
    stroke: #46f0f0;
  }
]]>
</style>
<symbol id="bl0">
<path d="M 217.84 290.08 L 220.93 290.76 L 223.56 290.89 L 226.59 291.67 L 228.39 292.07 L 231.16 292.68 L 234.22 293.69 L 237.95 294.76 L 241.10 295.02 L 244.53 295.86 L 247.48 296.54 L 250.46 297.07 L 253.75 297.74 L 256.80 298.45 L 259.85 299.12 L 263.01 299.76 L 265.54 300.81 L 268.16 302.02 L 271.51 303.19 L 274.26 304.56 L 277.10 305.75 L 280.19 307.29 L 283.14 308.59 L 286.01 310.11 L 288.53 312.19 L 291.23 313.95 L 293.74 315.77 L 296.35 317.72 L 299.02 319.11 L 301.46 320.82 L 304.11 322.94 L 306.74 324.73 L 309.36 326.59 L 312.46 328.77 L 315.32 330.57 L 317.75 332.27 L 320.95 333.36 L 323.61 334.54 L 326.08 336.16 L 329.26 337.08 L 332.54 337.82 L 335.44 337.45 L 338.54 336.63 L 340.91 334.85 L 343.28 333.09 L 345.05 330.92 L 346.35 328.50 L 347.44 325.78 L 348.53 322.76 L 347.44 319.76 L 346.56 316.57 L 345.95 313.67 L 345.49 310.95 L 345.13 308.29 L 344.11 305.55 L 343.60 302.45 L 342.19 299.78 L 340.18 297.41 L 337.87 296.54 L 335.30 296.71 L 332.77 296.18 L 330.05 295.80 L 327.19 295.29 L 324.46 294.66 L 321.61 294.26 L 319.07 293.04 L 316.54 292.19 L 313.21 291.66 L 310.41 290.77 L 307.49 290.49 L 304.72 290.52 L 301.99 290.92 L 299.18 290.75 L 295.99 290.63 L 292.85 290.22 L 289.82 290.41 L 286.64 290.45 L 283.59 291.04 L 280.68 291.00 L 277.43 290.84 L 274.03 291.32 L 270.85 291.36 L 267.82 291.22 L 264.60 291.93 L 261.21 292.18 L 257.71 291.98 L 254.24 291.41 L 250.69 290.92 L 247.30 290.98 L 243.96 291.07 L 240.56 290.93 L 237.58 290.91 L 234.26 291.04 L 230.70 291.14 L 227.60 290.76 L 224.68 290.95 L 221.76 290.60 L 218.99 289.96 L 216.05 289.23 L 213.01 288.41 L 210.35 286.94 L 207.66 285.48 L 205.18 283.81 L 203.14 282.07 L 201.23 280.05 L 199.22 277.88 L 197.26 275.44 L 195.48 273.06 L 194.16 270.29 L 192.95 267.33 L 191.08 265.07 L 189.75 262.79 L 188.73 260.37 L 187.18 257.72 L 185.72 255.33 L 184.31 253.21 L 182.33 250.62 L 179.56 248.91 L 175.97 248.54 L 173.26 247.39 L 169.98 246.22 L 167.49 245.72 L 165.04 246.28 L 163.42 247.91 L 162.09 251.01 L 162.45 254.02 L 164.24 255.95 L 166.92 257.42 L 169.51 258.19 L 171.81 258.95 L 174.10 259.15 L 176.79 260.11 L 179.73 260.59 L 181.84 261.63 L 184.68 261.85 L 187.15 262.45 L 189.85 263.58 L 191.95 265.49 L 193.51 267.82 L 194.38 270.59 L 195.79 273.09 L 197.33 275.49 L 198.89 277.87 L 201.40 280.35 L 204.01 282.86 L 205.76 284.03 L 207.76 285.61 L 210.59 287.12 L 212.65 287.98 L 215.42 289.16 Z" />
</symbol>
<symbol id="bl1">
<path d="M 115.60 22.17 L 114.46 25.18 L 113.81 28.07 L 112.62 31.25 L 111.82 33.67 L 111.03 37.34 L 109.83 40.81 L 108.63 44.77 L 108.25 47.84 L 107.82 51.02 L 107.22 54.23 L 106.43 57.07 L 105.67 60.55 L 105.31 63.91 L 104.71 67.17 L 104.01 70.24 L 103.19 73.15 L 102.68 76.23 L 101.99 79.42 L 101.46 82.48 L 101.73 85.50 L 101.37 88.39 L 101.93 91.13 L 102.29 93.77 L 103.34 96.98 L 103.94 100.31 L 104.70 103.11 L 106.24 105.81 L 107.46 108.84 L 108.78 111.46 L 109.93 114.66 L 111.46 117.78 L 112.59 121.30 L 113.02 124.44 L 112.12 127.71 L 109.99 130.26 L 107.41 131.65 L 104.44 132.98 L 102.13 134.06 L 99.23 135.65 L 96.03 136.95 L 92.77 138.62 L 90.13 141.36 L 88.32 144.71 L 88.34 148.36 L 89.60 151.98 L 91.84 154.83 L 95.15 156.57 L 97.71 158.64 L 99.84 161.02 L 101.80 163.80 L 103.70 166.29 L 104.93 169.47 L 106.20 172.68 L 107.42 175.57 L 107.88 178.70 L 109.44 181.40 L 111.02 184.22 L 113.14 186.22 L 116.21 187.39 L 119.58 187.30 L 122.44 187.65 L 125.30 187.97 L 128.19 189.23 L 131.30 191.02 L 133.66 193.04 L 136.11 195.18 L 137.94 197.55 L 139.21 200.01 L 140.85 202.63 L 141.29 205.34 L 141.53 208.26 L 142.24 211.46 L 142.13 214.91 L 142.14 217.65 L 142.12 221.15 L 142.69 224.66 L 142.77 227.89 L 143.08 231.14 L 143.81 234.08 L 144.63 237.38 L 145.00 239.82 L 145.70 242.99 L 145.92 245.45 L 146.03 248.25 L 146.86 251.30 L 147.09 254.53 L 147.68 257.41 L 148.43 260.38 L 149.01 263.63 L 149.46 266.68 L 149.68 269.93 L 149.33 272.94 L 149.38 276.22 L 149.56 279.60 L 149.91 282.42 L 149.74 285.85 L 149.68 289.10 L 149.38 292.62 L 149.05 295.68 L 149.95 298.90 L 150.57 302.21 L 151.81 305.21 L 153.11 307.90 L 154.44 310.36 L 157.15 312.56 L 159.62 314.65 L 162.44 316.07 L 165.68 317.13 L 168.64 317.01 L 171.49 316.85 L 174.87 315.98 L 177.62 314.84 L 180.17 313.21 L 182.31 310.92 L 184.62 308.62 L 185.79 305.67 L 186.92 302.46 L 187.92 299.51 L 189.04 296.60 L 189.55 293.40 L 190.44 290.03 L 190.83 286.60 L 191.77 283.30 L 192.63 279.68 L 193.91 276.02 L 194.32 273.05 L 193.82 269.90 L 192.81 267.44 L 191.67 265.36 L 190.56 262.31 L 188.68 260.19 L 186.87 257.84 L 185.77 255.42 L 184.17 251.99 L 182.33 250.28 L 179.79 248.52 L 177.16 247.79 L 174.11 247.15 L 171.83 246.34 L 168.92 245.56 L 166.82 244.17 L 164.21 242.32 L 161.86 240.86 L 160.25 238.61 L 158.39 236.52 L 156.82 234.48 L 155.96 232.18 L 155.35 229.24 L 154.95 226.47 L 154.63 223.49 L 155.04 220.49 L 155.38 218.11 L 156.22 215.88 L 157.37 213.17 L 158.80 210.40 L 160.69 208.12 L 162.19 205.65 L 164.95 204.39 L 167.94 202.54 L 171.13 201.79 L 173.22 201.14 L 176.26 200.89 L 178.88 199.63 L 181.43 198.83 L 183.39 197.09 L 185.52 195.42 L 187.51 194.29 L 189.31 192.59 L 191.38 191.29 L 192.77 189.13 L 194.84 186.86 L 195.73 184.51 L 196.96 182.55 L 198.61 180.47 L 199.67 178.15 L 200.84 175.33 L 201.44 172.70 L 202.46 170.20 L 202.75 167.47 L 203.16 164.96 L 203.25 162.14 L 202.69 159.57 L 201.98 157.08 L 201.27 154.00 L 200.70 150.97 L 200.03 147.85 L 199.54 145.36 L 198.00 142.51 L 196.01 140.41 L 194.14 138.52 L 193.09 136.69 L 192.03 134.45 L 189.86 131.87 L 188.07 129.37 L 186.12 127.25 L 184.81 124.53 L 183.06 122.69 L 181.20 120.77 L 179.58 118.55 L 178.39 116.15 L 177.27 113.89 L 176.25 111.26 L 176.29 108.23 L 177.81 105.40 L 178.59 102.58 L 179.67 99.41 L 180.20 96.32 L 180.75 93.53 L 181.29 90.02 L 181.55 86.94 L 181.92 84.11 L 181.43 80.87 L 180.76 77.24 L 180.17 73.76 L 179.23 70.55 L 177.17 67.34 L 175.62 64.69 L 174.22 61.77 L 172.57 58.09 L 171.39 55.41 L 169.53 52.78 L 167.41 49.91 L 165.41 46.87 L 163.36 43.72 L 161.52 40.96 L 159.36 38.14 L 157.77 35.18 L 155.99 32.61 L 154.35 29.46 L 152.78 26.25 L 151.36 23.39 L 148.93 20.34 L 147.31 17.99 L 145.08 15.33 L 142.48 13.35 L 139.80 12.06 L 136.78 10.67 L 132.97 10.00 L 128.86 10.05 L 125.85 10.34 L 123.61 12.17 L 120.57 14.58 L 118.58 16.38 L 116.69 19.02 Z" />
</symbol>
<symbol id="bl2">
<path d="M 109.02 303.64 L 112.60 304.32 L 115.26 304.49 L 118.80 303.98 L 121.11 303.17 L 124.04 302.73 L 126.77 301.53 L 129.93 300.05 L 132.78 298.87 L 135.20 297.31 L 137.39 295.00 L 139.81 293.66 L 142.45 292.04 L 144.65 290.76 L 147.14 289.52 L 149.40 287.91 L 151.91 286.29 L 154.50 285.41 L 157.46 284.34 L 159.89 283.15 L 161.96 282.25 L 164.55 281.39 L 167.44 280.94 L 170.02 280.87 L 173.10 280.97 L 175.73 282.25 L 178.58 283.65 L 180.99 285.23 L 183.02 287.04 L 184.27 289.63 L 185.72 292.72 L 186.79 295.92 L 187.06 298.85 L 186.84 302.21 L 186.13 304.90 L 185.23 307.68 L 183.23 310.37 L 180.98 312.30 L 178.57 314.09 L 176.00 315.68 L 173.64 317.29 L 171.87 319.38 L 169.96 321.16 L 167.94 322.66 L 165.96 324.64 L 164.04 326.88 L 162.19 328.49 L 160.62 330.50 L 158.92 332.65 L 157.15 334.70 L 155.26 337.06 L 153.98 339.52 L 152.44 341.83 L 150.78 344.34 L 149.52 347.15 L 147.95 350.16 L 146.50 353.11 L 145.14 355.91 L 143.92 359.03 L 143.04 362.14 L 141.93 364.87 L 141.05 367.43 L 140.78 370.20 L 140.11 373.09 L 139.48 375.71 L 138.88 378.45 L 138.75 381.41 L 138.26 384.37 L 137.77 387.28 L 137.77 390.23 L 137.95 393.23 L 138.02 395.90 L 138.06 398.55 L 137.87 401.60 L 138.14 404.64 L 138.74 407.33 L 139.34 410.04 L 139.87 412.86 L 139.99 415.64 L 140.48 418.35 L 141.51 421.02 L 142.75 423.71 L 143.79 426.54 L 144.77 429.40 L 146.03 432.08 L 147.10 434.65 L 148.07 437.04 L 149.31 439.35 L 150.81 441.61 L 151.90 444.16 L 153.43 446.63 L 155.32 449.05 L 157.21 451.36 L 158.82 453.74 L 160.82 455.64 L 162.76 457.58 L 164.73 459.74 L 166.95 461.97 L 169.14 464.50 L 171.61 466.79 L 174.13 468.75 L 176.81 470.54 L 179.59 472.74 L 182.69 474.44 L 185.24 476.39 L 187.94 478.01 L 190.89 479.20 L 193.81 480.59 L 196.83 481.86 L 199.72 483.28 L 202.76 484.43 L 206.04 485.36 L 209.27 486.51 L 212.57 487.30 L 215.96 488.06 L 219.34 488.55 L 222.47 489.58 L 225.78 489.66 L 229.20 489.87 L 232.57 490.00 L 236.01 489.66 L 239.46 489.49 L 242.77 489.45 L 245.93 489.28 L 249.17 489.28 L 252.71 488.50 L 256.19 487.62 L 259.38 486.77 L 262.68 485.79 L 265.78 484.63 L 268.93 483.44 L 272.21 482.05 L 275.50 480.83 L 279.03 479.32 L 282.18 477.36 L 285.48 475.76 L 288.57 473.76 L 291.19 471.44 L 294.11 469.37 L 296.72 467.08 L 299.59 464.95 L 301.88 462.65 L 304.69 460.30 L 306.97 457.81 L 308.94 455.24 L 311.11 452.67 L 312.99 449.75 L 315.08 447.03 L 316.87 444.14 L 318.87 441.05 L 320.34 437.65 L 322.06 434.47 L 323.43 431.23 L 324.85 427.96 L 326.47 424.53 L 327.47 421.39 L 328.16 417.64 L 329.03 414.10 L 329.83 410.25 L 330.31 406.89 L 330.85 402.85 L 331.13 399.16 L 331.81 395.40 L 331.54 391.48 L 331.79 387.41 L 331.44 383.26 L 330.72 379.45 L 330.00 375.40 L 329.01 371.49 L 328.09 367.74 L 327.02 363.97 L 325.83 360.59 L 324.50 356.89 L 322.93 353.58 L 321.62 350.36 L 320.12 347.32 L 318.08 344.02 L 316.21 340.99 L 314.23 338.02 L 312.23 335.13 L 310.01 332.18 L 308.21 328.96 L 305.37 326.46 L 302.65 324.00 L 300.16 321.01 L 297.78 317.76 L 295.39 315.14 L 293.41 311.71 L 292.15 308.10 L 292.56 304.61 L 293.24 301.10 L 294.94 297.61 L 297.33 294.62 L 300.16 292.45 L 303.74 290.91 L 307.90 290.42 L 311.93 290.52 L 315.57 292.43 L 318.23 294.81 L 321.70 296.71 L 324.45 299.26 L 327.15 301.53 L 330.06 303.83 L 332.45 306.22 L 336.21 307.72 L 340.29 306.93 L 343.48 305.32 L 347.30 304.00 L 350.70 302.47 L 354.25 301.10 L 358.23 299.97 L 362.08 298.90 L 365.56 297.45 L 369.36 296.00 L 372.94 294.83 L 376.40 293.96 L 380.06 292.45 L 383.33 290.80 L 386.63 288.95 L 389.95 287.03 L 393.56 285.11 L 396.75 283.29 L 400.00 281.11 L 403.21 278.93 L 406.13 276.63 L 409.11 274.57 L 411.72 272.57 L 414.14 269.94 L 416.80 267.12 L 419.23 264.47 L 421.64 261.82 L 424.33 259.02 L 426.18 256.07 L 428.10 253.20 L 430.32 250.27 L 431.88 246.92 L 433.54 243.59 L 435.31 240.43 L 436.96 237.06 L 438.59 233.82 L 440.18 230.21 L 440.72 226.05 L 441.18 222.40 L 442.31 218.88 L 442.85 215.01 L 443.55 211.05 L 443.77 207.04 L 443.72 203.12 L 443.85 199.03 L 443.75 195.10 L 443.17 191.26 L 442.98 187.30 L 442.46 183.56 L 441.75 179.94 L 441.10 176.36 L 440.52 172.91 L 438.96 169.50 L 437.51 165.96 L 436.08 162.79 L 434.75 159.52 L 433.14 156.28 L 431.63 153.08 L 430.01 150.20 L 428.19 147.17 L 426.14 144.09 L 423.60 141.25 L 421.29 138.17 L 418.77 135.09 L 416.28 132.45 L 413.81 129.91 L 411.18 127.41 L 408.21 124.97 L 405.15 122.55 L 402.26 120.19 L 399.05 118.49 L 395.99 116.77 L 392.78 115.13 L 389.71 113.35 L 386.65 111.97 L 383.62 110.30 L 380.21 109.34 L 377.03 108.22 L 373.64 107.14 L 370.21 106.31 L 366.86 105.57 L 363.42 104.75 L 360.09 104.19 L 356.81 103.54 L 353.51 103.38 L 350.10 102.71 L 346.70 103.18 L 343.40 103.42 L 340.27 103.63 L 336.88 103.41 L 333.70 104.45 L 330.25 104.86 L 327.03 105.74 L 323.76 106.31 L 320.43 107.09 L 317.23 107.39 L 314.03 108.73 L 310.80 109.89 L 307.86 111.52 L 304.83 113.16 L 301.64 114.42 L 298.71 115.92 L 295.91 117.74 L 292.86 119.52 L 290.13 121.58 L 287.32 123.60 L 284.72 126.23 L 281.45 128.39 L 278.94 130.91 L 276.52 133.61 L 273.92 136.50 L 271.66 139.52 L 269.25 142.79 L 267.15 145.85 L 265.04 148.70 L 263.06 151.59 L 261.38 154.75 L 259.84 158.14 L 258.59 161.40 L 256.94 164.50 L 255.51 167.83 L 254.57 171.25 L 253.47 174.46 L 252.74 177.72 L 252.27 180.82 L 251.48 184.14 L 250.75 187.48 L 248.97 190.53 L 247.14 193.82 L 244.50 196.61 L 241.69 198.76 L 238.95 200.71 L 236.24 202.61 L 233.06 203.07 L 229.95 203.89 L 226.63 203.69 L 223.30 203.41 L 219.84 202.70 L 216.56 201.73 L 213.50 200.00 L 210.55 198.47 L 208.04 196.41 L 206.32 193.42 L 204.41 190.78 L 203.07 187.66 L 201.68 184.50 L 201.35 181.38 L 201.00 178.36 L 201.47 174.93 L 201.93 172.00 L 202.58 169.27 L 203.41 165.70 L 204.99 162.90 L 205.49 159.71 L 207.24 156.74 L 208.27 153.85 L 209.48 150.97 L 211.05 148.18 L 211.01 144.79 L 209.84 141.28 L 208.42 138.37 L 207.01 135.33 L 206.03 132.04 L 205.04 129.08 L 204.17 125.87 L 203.32 122.83 L 202.48 119.90 L 200.36 117.20 L 197.37 115.52 L 194.50 114.00 L 192.78 111.36 L 192.12 108.12 L 190.92 105.03 L 190.25 101.87 L 189.76 98.91 L 188.13 95.74 L 187.41 93.09 L 186.24 89.94 L 185.09 87.24 L 184.03 84.66 L 182.81 81.67 L 182.10 78.72 L 180.97 75.60 L 179.92 72.30 L 178.78 69.38 L 177.31 66.42 L 175.28 63.76 L 173.34 61.21 L 171.66 58.00 L 168.89 56.30 L 166.16 54.10 L 163.75 52.03 L 161.00 50.49 L 158.05 49.26 L 155.07 47.87 L 152.44 46.88 L 149.75 46.12 L 146.67 45.63 L 143.49 45.24 L 140.47 45.67 L 137.02 45.96 L 133.93 46.43 L 130.88 46.39 L 128.25 47.81 L 125.06 48.88 L 122.05 50.03 L 119.86 52.17 L 117.19 53.55 L 114.95 55.59 L 113.17 57.29 L 111.28 59.23 L 108.90 61.84 L 107.22 64.69 L 105.96 67.41 L 104.18 70.19 L 103.21 73.26 L 102.40 76.56 L 102.20 79.48 L 101.80 82.42 L 101.38 85.55 L 101.15 88.79 L 101.56 91.92 L 102.16 95.10 L 102.93 97.59 L 104.12 100.08 L 104.66 102.91 L 105.29 105.67 L 106.60 108.28 L 108.24 110.44 L 109.27 113.23 L 110.27 115.84 L 111.47 118.25 L 112.43 120.60 L 113.42 122.75 L 114.62 125.22 L 115.51 127.52 L 116.59 129.96 L 117.39 132.68 L 118.97 135.72 L 120.69 138.43 L 122.12 140.89 L 123.21 143.63 L 123.55 146.42 L 123.91 149.35 L 123.52 152.19 L 123.16 155.29 L 122.51 158.35 L 122.43 161.68 L 121.73 164.17 L 120.20 166.75 L 118.74 169.33 L 116.46 170.36 L 113.97 172.02 L 111.03 173.48 L 109.79 176.47 L 108.84 178.85 L 108.32 181.91 L 107.21 184.85 L 105.87 187.73 L 104.88 190.14 L 103.60 192.51 L 101.66 195.09 L 99.67 197.79 L 98.03 200.41 L 97.00 203.28 L 95.94 206.91 L 94.69 209.84 L 93.70 212.36 L 92.26 215.16 L 91.13 218.36 L 90.19 222.00 L 89.26 225.31 L 88.44 228.24 L 87.85 231.10 L 87.16 233.34 L 86.25 235.99 L 85.83 238.47 L 84.97 241.12 L 84.34 244.59 L 83.89 247.24 L 82.42 249.28 L 80.89 252.30 L 79.75 255.30 L 78.96 258.90 L 78.61 262.12 L 78.02 264.88 L 77.99 267.48 L 77.89 270.74 L 78.22 273.70 L 78.21 276.54 L 79.40 279.60 L 80.34 282.24 L 81.63 284.60 L 83.50 287.28 L 85.17 289.59 L 87.22 292.23 L 89.63 295.13 L 93.02 297.59 L 95.52 299.25 L 97.98 300.60 L 101.25 301.92 L 103.50 302.74 L 106.18 303.18 Z" />
</symbol>
<symbol id="bl3">
<path d="M 67.57 157.54 L 64.92 159.88 L 62.87 161.96 L 60.02 164.59 L 58.91 167.39 L 57.66 170.72 L 56.47 174.22 L 56.07 178.08 L 55.94 181.47 L 56.45 184.26 L 57.19 187.15 L 58.48 190.58 L 60.15 193.46 L 62.15 196.24 L 64.30 198.65 L 66.96 200.95 L 69.83 203.41 L 72.43 205.84 L 74.74 208.76 L 76.97 211.16 L 79.78 213.02 L 82.18 215.47 L 84.82 217.32 L 87.30 218.55 L 90.00 220.02 L 92.92 222.16 L 95.82 224.09 L 98.19 225.84 L 101.06 227.22 L 103.65 228.23 L 106.76 229.62 L 109.93 231.24 L 113.54 232.50 L 116.99 232.85 L 120.01 233.01 L 122.82 233.44 L 126.13 235.03 L 128.89 236.06 L 131.69 237.18 L 134.23 238.87 L 137.12 241.04 L 139.33 242.72 L 142.70 244.13 L 144.82 245.26 L 147.26 247.22 L 150.31 248.92 L 153.61 250.38 L 156.50 252.48 L 159.30 254.11 L 161.91 255.42 L 164.98 256.57 L 167.43 257.20 L 170.25 258.75 L 173.45 259.08 L 176.89 260.13 L 180.46 260.39 L 182.98 258.35 L 184.34 255.56 L 185.48 253.35 L 187.13 250.85 L 188.31 248.26 L 189.01 245.58 L 190.72 243.87 L 192.19 242.11 L 193.85 239.75 L 195.71 237.63 L 197.45 234.93 L 198.91 232.23 L 200.85 230.08 L 203.24 228.04 L 205.32 226.12 L 207.91 224.43 L 210.08 222.73 L 212.69 221.77 L 215.08 220.58 L 217.14 219.19 L 219.35 217.16 L 221.11 215.73 L 222.99 213.93 L 224.93 212.26 L 227.76 210.21 L 229.72 208.04 L 232.06 206.60 L 234.52 204.97 L 236.79 203.14 L 239.16 201.49 L 241.60 199.95 L 243.31 197.75 L 245.15 195.88 L 247.38 193.87 L 249.09 191.32 L 249.94 188.55 L 251.07 185.69 L 251.80 182.69 L 252.11 179.26 L 252.74 176.37 L 252.01 173.26 L 251.05 170.02 L 250.02 167.15 L 248.44 164.21 L 246.70 161.72 L 244.60 159.67 L 242.11 157.50 L 239.34 156.11 L 236.85 154.55 L 234.31 153.59 L 231.69 153.02 L 228.95 152.00 L 225.83 151.14 L 223.67 150.02 L 220.47 148.57 L 217.59 147.01 L 215.49 145.75 L 213.10 143.98 L 210.25 142.30 L 207.02 140.56 L 203.33 139.98 L 201.03 142.15 L 199.77 145.14 L 199.86 148.05 L 200.47 150.44 L 201.32 153.89 L 201.91 156.85 L 202.34 159.78 L 202.34 163.19 L 202.66 166.36 L 202.61 169.09 L 201.21 171.88 L 200.84 174.54 L 199.99 177.68 L 198.23 180.41 L 196.73 183.05 L 194.81 185.82 L 192.73 188.76 L 190.41 191.47 L 188.12 193.85 L 186.07 195.58 L 183.45 196.94 L 180.98 198.23 L 178.12 199.43 L 175.37 200.82 L 172.25 201.52 L 169.30 202.06 L 165.94 202.53 L 162.73 202.88 L 159.24 203.19 L 156.77 202.74 L 153.43 201.84 L 150.33 200.93 L 147.03 200.39 L 144.26 198.85 L 142.15 197.64 L 139.88 195.74 L 136.88 193.83 L 134.62 192.03 L 132.34 189.88 L 130.80 187.56 L 129.26 185.20 L 127.71 182.79 L 125.67 179.59 L 124.60 175.95 L 123.26 172.91 L 122.38 170.47 L 122.44 167.39 L 122.46 163.92 L 122.63 160.28 L 122.63 156.62 L 122.92 154.03 L 123.10 150.30 L 123.55 146.92 L 123.03 143.95 L 121.99 140.94 L 120.01 138.70 L 117.33 136.36 L 115.48 134.58 L 113.16 131.86 L 109.75 131.23 L 106.30 132.01 L 103.44 133.89 L 100.53 134.95 L 97.55 136.35 L 94.23 137.79 L 91.80 139.49 L 88.50 141.53 L 85.57 144.07 L 82.50 146.09 L 80.59 147.86 L 78.24 149.66 L 74.84 152.28 L 72.56 153.72 L 70.02 155.71 Z" />
</symbol>
<symbol id="bl4">
<path d="M 96.94 122.52 L 96.99 125.51 L 98.28 129.00 L 100.81 132.10 L 102.84 134.49 L 104.52 136.97 L 106.93 141.68 L 109.60 144.21 L 112.10 146.93 L 113.86 149.77 L 117.32 151.27 L 120.18 150.79 L 122.63 148.75 L 124.90 146.08 L 126.39 143.82 L 127.99 140.91 L 130.39 138.13 L 132.80 134.96 L 135.25 132.70 L 137.52 131.06 L 140.88 128.71 L 143.60 126.97 L 146.71 125.64 L 150.06 124.65 L 153.25 123.94 L 156.82 122.78 L 160.06 122.20 L 163.09 122.56 L 166.10 123.01 L 169.45 122.57 L 172.40 123.22 L 175.33 124.35 L 178.50 125.91 L 181.85 127.38 L 184.93 128.22 L 188.47 129.02 L 191.56 130.45 L 194.30 131.33 L 197.72 131.42 L 200.71 129.22 L 202.31 126.48 L 204.42 123.65 L 204.97 120.81 L 206.03 117.85 L 206.72 114.65 L 207.69 111.47 L 208.23 108.13 L 208.34 105.15 L 206.28 102.44 L 203.52 100.55 L 200.17 99.86 L 196.79 99.98 L 193.54 100.30 L 189.97 100.63 L 186.82 101.37 L 183.38 101.63 L 180.40 103.02 L 178.44 104.82 L 176.50 107.38 L 174.11 109.63 L 172.05 112.02 L 169.95 113.98 L 167.93 116.22 L 165.30 118.50 L 162.49 120.04 L 159.35 121.90 L 156.32 122.53 L 153.21 123.69 L 149.80 124.56 L 146.88 125.46 L 144.04 126.06 L 141.22 125.48 L 138.43 125.79 L 135.31 125.46 L 132.45 125.47 L 130.18 124.56 L 127.07 123.69 L 124.43 122.60 L 121.16 122.50 L 117.92 121.08 L 114.20 119.46 L 110.83 117.74 L 108.66 116.81 L 105.01 115.84 L 101.59 116.72 L 98.82 118.64 Z" />
</symbol>
<symbol id="bl5">
<path d="M 76.58 364.80 L 79.12 366.87 L 81.25 368.41 L 84.74 370.26 L 87.35 371.73 L 90.22 372.81 L 93.56 373.47 L 97.47 374.00 L 100.85 374.57 L 103.92 374.62 L 107.00 374.70 L 110.27 373.51 L 113.54 372.34 L 116.05 370.92 L 118.84 369.49 L 121.28 367.57 L 124.14 365.73 L 126.57 363.59 L 128.51 361.10 L 130.60 358.82 L 131.99 356.04 L 133.58 352.71 L 135.28 349.99 L 135.76 347.08 L 136.94 344.11 L 137.99 341.04 L 138.48 337.69 L 139.28 335.00 L 140.33 332.37 L 140.68 329.12 L 141.54 325.75 L 142.61 322.36 L 143.81 319.34 L 144.83 316.00 L 145.80 312.84 L 146.86 309.92 L 147.60 306.29 L 148.57 303.30 L 149.32 300.43 L 149.93 297.39 L 150.66 294.43 L 152.42 291.50 L 153.73 289.14 L 155.81 286.38 L 158.65 283.84 L 161.69 282.02 L 164.95 280.97 L 167.98 280.21 L 171.61 280.66 L 174.76 281.37 L 177.83 283.31 L 180.94 284.18 L 183.88 284.73 L 186.86 285.36 L 190.49 286.04 L 194.02 286.81 L 198.12 287.41 L 201.50 287.46 L 204.87 287.77 L 208.59 288.33 L 212.12 288.67 L 215.78 289.35 L 218.93 289.94 L 222.27 290.71 L 225.30 290.86 L 228.78 290.76 L 232.31 290.67 L 235.72 289.82 L 238.93 288.72 L 242.18 287.54 L 245.38 285.99 L 248.25 284.07 L 251.17 281.61 L 253.87 279.19 L 256.01 276.05 L 257.73 272.95 L 259.72 269.97 L 260.47 266.88 L 261.58 263.80 L 262.06 260.43 L 262.32 257.21 L 262.27 253.93 L 262.10 250.67 L 261.55 247.21 L 260.84 244.11 L 259.45 241.05 L 257.98 237.83 L 256.53 235.32 L 254.62 232.87 L 252.87 230.54 L 250.57 228.45 L 248.23 226.46 L 245.55 224.75 L 242.87 222.51 L 240.27 220.42 L 237.45 218.31 L 234.83 216.24 L 232.27 214.23 L 229.44 212.33 L 226.56 210.42 L 223.93 208.18 L 221.34 205.99 L 218.53 204.38 L 216.12 202.12 L 213.47 200.33 L 210.36 198.18 L 207.62 195.80 L 205.54 193.17 L 204.31 190.24 L 203.02 187.58 L 201.92 184.68 L 201.31 181.45 L 200.99 178.29 L 201.00 175.22 L 201.93 172.34 L 202.44 169.58 L 203.48 166.80 L 204.90 164.28 L 206.82 161.94 L 208.91 159.59 L 211.28 157.73 L 213.96 156.02 L 216.76 154.60 L 219.39 153.19 L 222.45 152.22 L 225.54 152.40 L 228.71 152.70 L 232.35 153.12 L 235.95 154.08 L 239.24 154.52 L 242.23 154.98 L 245.58 154.93 L 248.81 154.20 L 252.10 153.86 L 255.25 152.80 L 258.41 151.55 L 261.18 149.93 L 263.84 148.06 L 266.14 145.73 L 268.35 143.71 L 270.35 140.93 L 272.59 138.19 L 274.71 135.51 L 275.56 132.19 L 276.93 129.36 L 277.87 126.45 L 278.53 123.34 L 278.75 120.22 L 278.93 117.03 L 278.26 113.52 L 277.80 110.22 L 276.85 107.39 L 275.99 104.55 L 274.69 101.84 L 272.80 99.35 L 270.66 97.09 L 269.00 94.31 L 266.64 92.42 L 264.49 90.38 L 261.68 88.59 L 259.08 86.95 L 256.44 85.56 L 253.43 84.69 L 250.76 84.21 L 247.81 83.84 L 244.73 83.38 L 241.97 82.98 L 238.80 83.28 L 235.33 83.66 L 232.73 84.78 L 229.71 85.25 L 227.02 86.76 L 224.42 88.45 L 221.66 90.20 L 219.01 92.05 L 216.76 94.34 L 214.38 96.68 L 212.25 99.43 L 210.90 102.01 L 209.70 105.14 L 208.42 108.10 L 207.63 111.43 L 206.77 114.32 L 206.12 117.80 L 205.47 121.13 L 205.06 124.45 L 204.10 127.30 L 202.95 130.65 L 202.09 134.03 L 201.26 137.09 L 200.57 140.33 L 200.19 143.66 L 199.41 146.92 L 200.52 150.08 L 201.30 153.20 L 201.77 156.35 L 202.57 159.31 L 202.98 162.13 L 202.86 165.35 L 202.56 168.51 L 201.80 171.58 L 201.36 174.83 L 201.28 177.93 L 201.21 181.52 L 201.25 184.84 L 201.54 188.32 L 201.89 191.46 L 201.79 194.92 L 201.39 197.87 L 201.52 201.22 L 201.42 204.91 L 201.26 207.78 L 200.93 210.44 L 200.91 213.53 L 200.92 217.01 L 200.93 220.45 L 200.72 223.91 L 200.57 227.27 L 199.54 229.80 L 199.13 232.80 L 196.84 236.00 L 194.96 238.53 L 193.06 240.91 L 190.50 242.78 L 187.59 244.10 L 184.58 245.44 L 181.16 246.42 L 177.78 246.74 L 174.44 246.84 L 171.19 245.86 L 168.16 245.41 L 166.08 243.44 L 163.43 242.63 L 160.79 242.11 L 157.93 241.78 L 155.20 240.70 L 152.22 240.41 L 149.79 239.87 L 146.65 238.98 L 143.65 238.72 L 141.13 237.85 L 138.34 237.19 L 135.51 236.19 L 132.57 235.27 L 129.55 234.70 L 126.61 233.77 L 123.28 233.70 L 120.37 233.03 L 117.27 232.82 L 114.33 232.82 L 111.31 232.81 L 108.42 232.90 L 105.09 233.24 L 102.07 234.55 L 99.23 235.57 L 96.80 236.71 L 93.59 238.42 L 90.72 240.71 L 88.34 242.69 L 85.76 244.85 L 83.84 247.22 L 82.65 250.07 L 80.98 252.64 L 79.97 255.97 L 79.11 259.61 L 78.48 263.13 L 77.06 266.63 L 75.91 270.21 L 75.06 273.50 L 74.40 276.41 L 74.09 279.18 L 73.76 282.07 L 73.77 284.74 L 73.01 288.24 L 72.13 291.09 L 71.71 293.76 L 71.04 296.85 L 71.06 299.34 L 69.92 302.50 L 69.24 305.20 L 68.98 308.27 L 68.00 311.03 L 68.18 313.60 L 67.43 316.67 L 66.42 319.75 L 66.49 322.78 L 66.21 325.87 L 66.27 328.70 L 65.85 331.76 L 65.31 334.33 L 65.12 337.66 L 65.03 341.41 L 65.96 345.11 L 66.80 349.19 L 67.90 351.93 L 68.93 354.40 L 70.58 357.77 L 72.03 360.03 L 74.58 362.55 Z" />
</symbol>
<symbol id="bl6">
<path d="M 132.88 131.74 L 130.14 133.07 L 127.48 133.88 L 124.44 135.99 L 122.13 137.28 L 119.35 138.28 L 116.54 139.96 L 113.23 142.33 L 112.03 144.58 L 110.08 147.49 L 107.67 150.08 L 106.21 152.87 L 103.96 155.64 L 103.09 158.20 L 102.31 161.07 L 103.00 164.86 L 105.35 167.12 L 108.10 169.50 L 111.72 170.29 L 114.82 170.85 L 118.28 171.27 L 121.45 172.35 L 124.02 174.29 L 124.94 176.49 L 125.72 179.04 L 127.36 182.10 L 128.49 184.79 L 130.70 187.11 L 132.02 189.24 L 133.81 191.32 L 135.77 194.28 L 137.96 197.20 L 139.57 199.98 L 140.81 203.36 L 141.35 206.24 L 141.77 209.22 L 142.46 212.48 L 144.04 215.71 L 145.53 218.07 L 147.43 221.12 L 149.45 224.16 L 151.27 226.63 L 153.16 228.97 L 155.02 231.52 L 157.31 233.94 L 158.55 236.17 L 160.20 238.43 L 161.93 240.97 L 164.59 242.98 L 167.25 244.69 L 170.37 246.39 L 173.13 249.11 L 173.62 251.92 L 172.81 254.41 L 172.37 257.62 L 172.44 260.75 L 172.14 264.48 L 172.30 267.54 L 171.47 271.02 L 170.40 274.07 L 167.40 276.24 L 164.77 278.22 L 162.72 280.03 L 160.93 281.41 L 159.24 282.90 L 156.94 285.08 L 154.95 287.48 L 152.98 290.13 L 151.78 293.08 L 150.72 295.57 L 150.75 298.41 L 150.79 300.78 L 151.13 303.52 L 152.09 305.84 L 153.39 308.30 L 154.70 310.83 L 156.91 313.03 L 159.60 314.89 L 162.84 316.35 L 165.52 316.53 L 168.63 317.06 L 171.84 316.60 L 174.27 315.89 L 176.77 315.30 L 179.10 313.68 L 181.57 312.24 L 184.40 310.52 L 187.39 308.77 L 189.52 307.20 L 192.01 305.38 L 194.88 304.12 L 197.81 302.94 L 200.56 301.94 L 203.45 301.39 L 206.15 300.49 L 208.66 299.92 L 211.60 298.88 L 214.29 298.50 L 217.10 297.93 L 220.03 297.15 L 223.03 296.84 L 226.07 296.58 L 228.93 296.36 L 232.11 295.89 L 235.42 296.12 L 238.07 296.09 L 241.02 296.50 L 243.79 296.77 L 246.35 297.11 L 248.98 297.18 L 251.66 297.64 L 254.06 298.28 L 256.49 298.74 L 259.38 299.53 L 261.94 299.84 L 264.44 300.91 L 267.16 301.67 L 270.40 302.45 L 272.94 303.63 L 275.49 305.20 L 278.58 306.83 L 281.41 307.96 L 284.40 309.29 L 287.44 310.95 L 289.83 312.74 L 292.74 314.57 L 295.21 315.91 L 297.40 317.48 L 300.46 319.15 L 303.54 320.09 L 306.65 320.67 L 309.67 320.69 L 312.86 320.73 L 314.99 319.28 L 317.90 317.12 L 319.63 314.69 L 321.57 311.93 L 323.24 309.25 L 326.03 307.17 L 327.99 304.30 L 330.30 301.77 L 332.24 299.16 L 334.51 297.02 L 337.91 296.62 L 341.23 297.07 L 344.18 297.30 L 347.51 297.34 L 350.70 297.31 L 353.85 296.93 L 357.08 296.69 L 360.20 296.33 L 362.66 295.95 L 365.52 295.35 L 369.20 295.11 L 372.01 294.57 L 374.77 293.37 L 377.81 292.46 L 380.23 291.51 L 383.04 290.47 L 386.18 289.89 L 389.00 288.47 L 391.94 286.86 L 394.72 285.69 L 397.03 283.62 L 399.47 281.87 L 402.13 280.44 L 404.40 278.89 L 406.59 276.96 L 409.05 275.05 L 411.26 273.20 L 413.36 271.38 L 415.43 269.67 L 417.08 267.34 L 419.51 265.52 L 421.10 262.87 L 422.84 260.49 L 424.84 258.02 L 426.68 255.23 L 428.42 252.90 L 430.31 250.39 L 432.01 247.65 L 433.41 245.28 L 434.36 242.44 L 435.58 239.67 L 436.63 236.79 L 438.06 233.82 L 439.03 231.03 L 439.92 228.45 L 440.86 225.66 L 441.01 222.89 L 441.88 220.08 L 442.38 216.80 L 442.72 213.90 L 443.07 210.94 L 443.49 208.07 L 443.43 205.55 L 444.06 202.73 L 443.64 199.90 L 443.62 196.89 L 443.43 193.69 L 443.07 190.64 L 443.17 187.66 L 442.76 184.72 L 442.50 182.07 L 442.04 179.00 L 441.22 176.13 L 440.15 173.61 L 439.47 170.94 L 438.61 168.06 L 437.46 165.43 L 436.22 162.80 L 435.01 160.02 L 433.83 157.45 L 432.65 154.95 L 431.30 152.43 L 429.81 149.63 L 427.86 146.87 L 426.02 144.31 L 424.48 141.92 L 422.20 139.56 L 420.15 136.80 L 418.02 134.56 L 416.10 132.18 L 413.98 130.01 L 411.91 128.07 L 410.27 126.41 L 408.28 124.76 L 405.75 123.56 L 403.04 121.38 L 400.35 119.19 L 398.04 117.97 L 395.63 116.40 L 392.96 114.25 L 389.87 112.95 L 387.04 111.57 L 384.59 110.42 L 381.65 109.52 L 378.69 108.76 L 375.43 107.83 L 372.06 107.01 L 368.74 105.93 L 365.73 105.46 L 362.85 104.61 L 359.44 104.21 L 356.21 103.55 L 352.69 102.74 L 349.42 101.95 L 346.39 101.23 L 343.18 100.52 L 339.99 99.53 L 337.04 98.96 L 334.51 98.76 L 331.54 98.40 L 328.37 97.99 L 325.43 97.24 L 322.66 96.79 L 319.41 96.40 L 316.04 95.63 L 312.85 95.47 L 309.59 94.92 L 306.65 94.24 L 303.60 94.01 L 300.46 93.15 L 297.50 92.51 L 294.13 91.72 L 291.12 90.96 L 288.22 90.81 L 285.43 90.81 L 282.45 91.28 L 278.98 90.54 L 275.76 89.23 L 272.49 88.67 L 269.31 88.08 L 266.68 87.47 L 263.92 86.70 L 260.74 86.70 L 257.78 86.23 L 254.92 85.13 L 252.00 84.64 L 248.98 83.71 L 245.97 83.65 L 242.67 83.44 L 239.85 83.50 L 236.68 84.00 L 233.79 84.64 L 231.18 85.37 L 227.73 86.61 L 224.76 88.19 L 222.24 89.49 L 219.42 90.48 L 216.35 91.32 L 213.65 92.33 L 211.28 93.98 L 208.40 94.90 L 206.20 95.96 L 203.34 96.60 L 200.41 97.36 L 197.91 99.93 L 195.65 101.33 L 193.36 103.75 L 192.06 106.84 L 192.42 110.01 L 192.25 112.89 L 190.85 115.94 L 188.86 118.10 L 187.40 121.14 L 187.15 123.78 L 187.43 126.75 L 189.66 129.25 L 191.76 130.62 L 193.96 131.79 L 196.98 132.99 L 199.52 135.35 L 202.00 137.35 L 205.20 138.93 L 208.12 140.43 L 210.81 143.61 L 211.10 146.61 L 209.64 149.77 L 206.35 151.70 L 202.91 151.06 L 200.56 148.94 L 199.42 146.83 L 197.71 143.61 L 195.60 140.78 L 194.05 138.52 L 191.94 135.89 L 189.27 133.22 L 187.05 131.26 L 184.49 129.65 L 181.92 127.86 L 179.27 126.54 L 176.16 125.18 L 172.89 124.10 L 170.10 123.63 L 166.99 123.01 L 163.55 122.53 L 160.36 122.35 L 157.58 123.00 L 154.36 123.29 L 150.29 124.60 L 147.51 125.26 L 144.57 126.17 L 140.98 127.69 L 138.74 129.20 L 135.43 130.50 Z" />
</symbol>
</defs>
<!-- isDone: 0 -->
<rect width="700" height="500" style="fill:#fff;stroke-width:0" />
<use class="p0 borderLine" xlink:href="#bl0"/>
<use class="p1 borderLine" xlink:href="#bl1"/>
<use class="p2 borderLine" xlink:href="#bl2"/>
<use class="p3 borderLine" xlink:href="#bl3"/>
<use class="p4 borderLine" xlink:href="#bl4"/>
<use class="p5 borderLine" xlink:href="#bl5"/>
<use class="p6 borderLine" xlink:href="#bl6"/>
<use class="q0 outLine" xlink:href="#bl0"/>
<use class="q1 outLine" xlink:href="#bl1"/>
<use class="q2 outLine" xlink:href="#bl2"/>
<use class="q3 outLine" xlink:href="#bl3"/>
<use class="q4 outLine" xlink:href="#bl4"/>
<use class="q5 outLine" xlink:href="#bl5"/>
<use class="q6 outLine" xlink:href="#bl6"/>
<circle onclick="fromCircle(1)" class="circle" cx="332.5972" cy="322.3787" r="12.5769" />
<text class="tLabel" x="332.60" y="302.38"></text>
<text class="nLabel" x="332.60" y="317.38">7</text>
<text class="belong" x="332.60" y="327.38">(1)</text>
<circle onclick="fromCircle(2)" class="circle" cx="132.5318" cy="28.3044" r="15.0323" />
<text class="tLabel" x="132.53" y="8.30"></text>
<text class="nLabel" x="132.53" y="23.30">10</text>
<text class="belong" x="132.53" y="33.30">(2)</text>
<circle onclick="fromCircle(6)" class="circle" cx="141.6822" cy="85.5810" r="33.2754" />
<text class="tLabel" x="141.68" y="65.58"></text>
<text class="nLabel" x="141.68" y="80.58">49</text>
<text class="belong" x="141.68" y="90.58">(2, 3)</text>
<circle onclick="fromCircle(14)" class="circle" cx="117.3698" cy="179.3794" r="6.7226" />
<text class="tLabel" x="117.37" y="159.38"></text>
<text class="nLabel" x="117.37" y="174.38">2</text>
<text class="belong" x="117.37" y="184.38">(2, 3, 4)</text>
<circle onclick="fromCircle(10)" class="circle" cx="98.2332" cy="146.9851" r="8.2335" />
<text class="tLabel" x="98.23" y="126.99"></text>
<text class="nLabel" x="98.23" y="141.99">3</text>
<text class="belong" x="98.23" y="151.99">(2, 4)</text>
<circle onclick="fromCircle(26)" class="circle" cx="110.3364" cy="136.8062" r="4.7536" />
<text class="tLabel" x="110.34" y="116.81"></text>
<text class="nLabel" x="110.34" y="131.81">1</text>
<text class="belong" x="110.34" y="141.81">(2, 4, 5)</text>
<circle onclick="fromCircle(74)" class="circle" cx="112.5793" cy="160.4637" r="8.2335" />
<text class="tLabel" x="112.58" y="140.46"></text>
<text class="nLabel" x="112.58" y="155.46">3</text>
<text class="belong" x="112.58" y="165.46">(2, 4, 7)</text>
<circle onclick="fromCircle(90)" class="circle" cx="117.8134" cy="145.5849" r="4.7536" />
<text class="tLabel" x="117.81" y="125.58"></text>
<text class="nLabel" x="117.81" y="140.58">1</text>
<text class="belong" x="117.81" y="150.58">(2, 4, 5, 7)</text>
<circle onclick="fromCircle(38)" class="circle" cx="160.6514" cy="267.0919" r="9.5073" />
<text class="tLabel" x="160.65" y="247.09"></text>
<text class="nLabel" x="160.65" y="262.09">4</text>
<text class="belong" x="160.65" y="272.09">(2, 3, 6)</text>
<circle onclick="fromCircle(102)" class="circle" cx="182.8217" cy="272.9831" r="9.5073" />
<text class="tLabel" x="182.82" y="252.98"></text>
<text class="nLabel" x="182.82" y="267.98">4</text>
<text class="belong" x="182.82" y="277.98">(2, 3, 6, 7)</text>
<circle onclick="fromCircle(66)" class="circle" cx="168.7560" cy="298.9102" r="15.0323" />
<text class="tLabel" x="168.76" y="278.91"></text>
<text class="nLabel" x="168.76" y="293.91">10</text>
<text class="belong" x="168.76" y="303.91">(2, 7)</text>
<circle onclick="fromCircle(70)" class="circle" cx="162.3170" cy="162.7668" r="33.2754" />
<text class="tLabel" x="162.32" y="142.77"></text>
<text class="nLabel" x="162.32" y="157.77">49</text>
<text class="belong" x="162.32" y="167.77">(2, 3, 7)</text>
<circle onclick="fromCircle(78)" class="circle" cx="150.0541" cy="209.4912" r="6.7226" />
<text class="tLabel" x="150.05" y="189.49"></text>
<text class="nLabel" x="150.05" y="204.49">2</text>
<text class="belong" x="150.05" y="214.49">(2, 3, 4, 7)</text>
<circle onclick="fromCircle(4)" class="circle" cx="234.7047" cy="392.9827" r="80.5316" />
<text class="tLabel" x="234.70" y="372.98"></text>
<text class="nLabel" x="234.70" y="387.98">287</text>
<text class="belong" x="234.70" y="397.98">(3)</text>
<circle onclick="fromCircle(5)" class="circle" cx="337.0547" cy="302.1493" r="4.7536" />
<text class="tLabel" x="337.05" y="282.15"></text>
<text class="nLabel" x="337.05" y="297.15">1</text>
<text class="belong" x="337.05" y="307.15">(1, 3)</text>
<circle onclick="fromCircle(12)" class="circle" cx="118.8161" cy="210.2420" r="19.0145" />
<text class="tLabel" x="118.82" y="190.24"></text>
<text class="nLabel" x="118.82" y="205.24">16</text>
<text class="belong" x="118.82" y="215.24">(3, 4)</text>
<circle onclick="fromCircle(44)" class="circle" cx="205.3249" cy="145.9013" r="4.7536" />
<text class="tLabel" x="205.32" y="125.90"></text>
<text class="nLabel" x="205.32" y="140.90">1</text>
<text class="belong" x="205.32" y="150.90">(3, 4, 6)</text>
<circle onclick="fromCircle(108)" class="circle" cx="206.7405" cy="217.0963" r="4.7536" />
<text class="tLabel" x="206.74" y="197.10"></text>
<text class="nLabel" x="206.74" y="212.10">1</text>
<text class="belong" x="206.74" y="222.10">(3, 4, 6, 7)</text>
<circle onclick="fromCircle(76)" class="circle" cx="177.6360" cy="223.6650" r="19.0145" />
<text class="tLabel" x="177.64" y="203.66"></text>
<text class="nLabel" x="177.64" y="218.66">16</text>
<text class="belong" x="177.64" y="228.66">(3, 4, 7)</text>
<circle onclick="fromCircle(20)" class="circle" cx="184.4059" cy="110.3683" r="6.7226" />
<text class="tLabel" x="184.41" y="90.37"></text>
<text class="nLabel" x="184.41" y="105.37">2</text>
<text class="belong" x="184.41" y="115.37">(3, 5)</text>
<circle onclick="fromCircle(84)" class="circle" cx="195.1623" cy="123.2484" r="6.7226" />
<text class="tLabel" x="195.16" y="103.25"></text>
<text class="nLabel" x="195.16" y="118.25">2</text>
<text class="belong" x="195.16" y="128.25">(3, 5, 7)</text>
<circle onclick="fromCircle(36)" class="circle" cx="113.6542" cy="268.3855" r="29.6864" />
<text class="tLabel" x="113.65" y="248.39"></text>
<text class="nLabel" x="113.65" y="263.39">39</text>
<text class="belong" x="113.65" y="273.39">(3, 6)</text>
<circle onclick="fromCircle(100)" class="circle" cx="226.7831" cy="255.2523" r="29.6864" />
<text class="tLabel" x="226.78" y="235.25"></text>
<text class="nLabel" x="226.78" y="250.25">39</text>
<text class="belong" x="226.78" y="260.25">(3, 6, 7)</text>
<circle onclick="fromCircle(68)" class="circle" cx="346.9713" cy="200.2908" r="80.5316" />
<text class="tLabel" x="346.97" y="180.29"></text>
<text class="nLabel" x="346.97" y="195.29">287</text>
<text class="belong" x="346.97" y="205.29">(3, 7)</text>
<circle onclick="fromCircle(69)" class="circle" cx="279.2184" cy="298.5126" r="4.7536" />
<text class="tLabel" x="279.22" y="278.51"></text>
<text class="nLabel" x="279.22" y="293.51">1</text>
<text class="belong" x="279.22" y="303.51">(1, 3, 7)</text>
<circle onclick="fromCircle(8)" class="circle" cx="81.5655" cy="179.5002" r="21.2589" />
<text class="tLabel" x="81.57" y="159.50"></text>
<text class="nLabel" x="81.57" y="174.50">20</text>
<text class="belong" x="81.57" y="184.50">(4)</text>
<circle onclick="fromCircle(72)" class="circle" cx="226.7309" cy="178.0987" r="21.2589" />
<text class="tLabel" x="226.73" y="158.10"></text>
<text class="nLabel" x="226.73" y="173.10">20</text>
<text class="belong" x="226.73" y="183.10">(4, 7)</text>
<circle onclick="fromCircle(16)" class="circle" cx="104.9950" cy="123.9823" r="6.7226" />
<text class="tLabel" x="105.00" y="103.98"></text>
<text class="nLabel" x="105.00" y="118.98">2</text>
<text class="belong" x="105.00" y="128.98">(5)</text>
<circle onclick="fromCircle(80)" class="circle" cx="200.2355" cy="107.9721" r="6.7226" />
<text class="tLabel" x="200.24" y="87.97"></text>
<text class="nLabel" x="200.24" y="102.97">2</text>
<text class="belong" x="200.24" y="112.97">(5, 7)</text>
<circle onclick="fromCircle(32)" class="circle" cx="100.9734" cy="338.4420" r="29.6864" />
<text class="tLabel" x="100.97" y="318.44"></text>
<text class="nLabel" x="100.97" y="333.44">39</text>
<text class="belong" x="100.97" y="343.44">(6)</text>
<circle onclick="fromCircle(47)" class="circle" cx="167.7088" cy="251.5664" r="4.7536" />
<text class="tLabel" x="167.71" y="231.57"></text>
<text class="nLabel" x="167.71" y="246.57">1</text>
<text class="belong" x="167.71" y="256.57">(1, 2, 3, 4, 6)</text>
<circle onclick="fromCircle(111)" class="circle" cx="178.5703" cy="254.6793" r="4.7536" />
<text class="tLabel" x="178.57" y="234.68"></text>
<text class="nLabel" x="178.57" y="249.68">1</text>
<text class="belong" x="178.57" y="259.68">(1, 2, 3, 4, 6, 7)</text>
<circle onclick="fromCircle(96)" class="circle" cx="242.4692" cy="119.0441" r="29.6864" />
<text class="tLabel" x="242.47" y="99.04"></text>
<text class="nLabel" x="242.47" y="114.04">39</text>
<text class="belong" x="242.47" y="124.04">(6, 7)</text>
<circle onclick="fromCircle(65)" class="circle" cx="307.5973" cy="305.5826" r="12.5769" />
<text class="tLabel" x="307.60" y="285.58"></text>
<text class="nLabel" x="307.60" y="300.58">7</text>
<text class="belong" x="307.60" y="310.58">(1, 7)</text>
<rect class="p0 borderLine" x="500.00" y="50.00" width="30.00" height="15.00" />
<rect class="q0" x="500.00" y="50.00" width="30.00" height="15.00" />
<text class="legend" x="540.00" y="65.00">IBA</text>
<rect class="p1 borderLine" x="500.00" y="90.00" width="30.00" height="15.00" />
<rect class="q1" x="500.00" y="90.00" width="30.00" height="15.00" />
<text class="legend" x="540.00" y="105.00">IC</text>
<rect class="p2 borderLine" x="500.00" y="130.00" width="30.00" height="15.00" />
<rect class="q2" x="500.00" y="130.00" width="30.00" height="15.00" />
<text class="legend" x="540.00" y="145.00">IDA</text>
<rect class="p3 borderLine" x="500.00" y="170.00" width="30.00" height="15.00" />
<rect class="q3" x="500.00" y="170.00" width="30.00" height="15.00" />
<text class="legend" x="540.00" y="185.00">IEA</text>
<rect class="p4 borderLine" x="500.00" y="210.00" width="30.00" height="15.00" />
<rect class="q4" x="500.00" y="210.00" width="30.00" height="15.00" />
<text class="legend" x="540.00" y="225.00">ISS</text>
<rect class="p5 borderLine" x="500.00" y="250.00" width="30.00" height="15.00" />
<rect class="q5" x="500.00" y="250.00" width="30.00" height="15.00" />
<text class="legend" x="540.00" y="265.00">NAS</text>
<rect class="p6 borderLine" x="500.00" y="290.00" width="30.00" height="15.00" />
<rect class="q6" x="500.00" y="290.00" width="30.00" height="15.00" />
<text class="legend" x="540.00" y="305.00">nxt</text>
</svg>
