<svg xmlns="http://www.w3.org/2000/svg" xmlns:xlink="http://www.w3.org/1999/xlink" width="700" height="500">
<defs>
<style type="text/css"><![CDATA[
  .borderLine {
	   stroke: none;
	   fill-opacity: 0.4;
  }
  .outLine {
	   stroke-width: 1;
	   fill: none;
  }
  .circle {
	   stroke: #888888;
	   stroke-width: 0.5;
	   fill: none;
    pointer-events: all;
  }
  .spcircle {
	   stroke: #FF2222;
	   stroke-width: 1;
	   fill: none;
    pointer-events: all;
  }
  .tLabel {
	   font-family: Arial;
    pointer-events: none;
	   font-size: 14px;
	   text-anchor: middle;
	   alignment-baseline: central;
  }
  .nLabel {
	   font-family: Arial;
    pointer-events: none;
	   font-size: 10px;
	   text-anchor: middle;
	   alignment-baseline: central;
  }
  .belong {
	   font-family: Arial;
    pointer-events: none;
	   font-size: 5px;
	   text-anchor: middle;
	   alignment-baseline: central;
  }
  .p0{
    stroke: none;
    fill: #e6194b;
  }
  .q0{
    fill: none;
    stroke: #e6194b;
  }
  .p1{
    stroke: none;
    fill: #3cb44b;
  }
  .q1{
    fill: none;
    stroke: #3cb44b;
  }
  .p2{
    stroke: none;
    fill: #ffe119;
  }
  .q2{
    fill: none;
    stroke: #ffe119;
  }
  .p3{
    stroke: none;
    fill: #0082c8;
  }
  .q3{
    fill: none;
    stroke: #0082c8;
  }
]]>
</style>
<symbol id="bl0">
<path d="M 201.13 357.96 L 190.44 362.47 L 179.59 366.83 L 168.48 370.75 L 159.13 378.23 L 152.65 388.30 L 148.83 399.72 L 150.12 411.76 L 154.68 423.03 L 162.12 432.40 L 172.70 437.88 L 182.70 443.86 L 192.50 450.15 L 202.24 456.40 L 212.01 462.83 L 220.99 470.28 L 232.97 473.60 L 244.46 472.20 L 256.73 470.87 L 268.89 469.13 L 281.10 467.95 L 293.56 467.38 L 306.25 466.96 L 319.21 466.59 L 331.99 463.24 L 344.14 457.70 L 353.85 448.43 L 360.59 436.83 L 364.22 424.15 L 364.31 411.26 L 362.64 398.60 L 356.71 387.47 L 348.91 378.08 L 339.63 369.67 L 327.81 364.98 L 316.02 360.35 L 303.85 356.62 L 291.84 352.93 L 279.80 349.78 L 267.70 347.23 L 255.76 344.75 L 244.34 342.91 L 233.45 345.99 L 222.64 349.33 L 211.74 353.28 Z" />
</symbol>
<symbol id="bl1">
<path d="M 110.54 311.46 L 97.71 319.11 L 84.95 326.72 L 72.39 334.38 L 60.27 342.31 L 48.07 349.86 L 38.26 360.33 L 31.62 372.84 L 28.36 386.80 L 29.71 401.15 L 35.16 414.58 L 44.26 425.95 L 56.60 433.91 L 70.81 438.33 L 86.01 439.23 L 100.26 433.87 L 112.93 425.43 L 122.93 413.95 L 133.07 402.71 L 143.10 391.56 L 153.46 380.62 L 164.16 369.86 L 178.53 364.62 L 192.40 358.88 L 206.10 353.10 L 219.55 347.37 L 233.50 343.13 L 247.67 339.53 L 261.91 343.52 L 276.22 347.58 L 290.83 351.69 L 306.01 354.97 L 321.64 353.14 L 336.68 348.03 L 348.12 337.03 L 354.41 322.36 L 356.17 306.57 L 353.42 291.24 L 346.49 277.39 L 335.01 267.15 L 321.64 260.80 L 307.03 257.86 L 291.96 260.37 L 278.68 267.85 L 266.60 277.12 L 254.23 286.22 L 241.56 295.12 L 226.62 298.89 L 211.27 300.13 L 196.19 297.98 L 181.02 296.51 L 166.03 294.99 L 151.12 293.46 L 136.13 295.76 L 123.30 303.64 Z" />
</symbol>
<symbol id="bl2">
<path d="M 30.16 300.77 L 42.34 309.15 L 55.26 316.67 L 68.75 323.54 L 81.94 330.90 L 94.84 338.57 L 107.89 345.83 L 119.14 355.98 L 127.24 368.85 L 131.67 383.20 L 137.92 397.14 L 143.23 411.43 L 148.40 426.73 L 159.38 438.52 L 174.42 445.02 L 190.45 445.89 L 205.53 441.33 L 217.95 431.29 L 228.33 420.17 L 238.81 408.74 L 249.36 397.45 L 260.13 386.56 L 269.63 374.26 L 271.59 358.97 L 267.53 344.80 L 262.67 330.41 L 257.78 316.08 L 257.64 301.06 L 261.60 286.53 L 269.16 273.63 L 275.74 259.67 L 278.63 244.59 L 277.36 229.18 L 270.97 215.60 L 262.95 201.91 L 251.25 191.84 L 237.11 186.00 L 222.43 182.53 L 207.82 181.57 L 193.39 179.29 L 178.88 177.43 L 164.36 175.77 L 149.87 174.06 L 135.40 172.29 L 120.95 170.51 L 106.48 168.86 L 92.07 166.61 L 77.47 164.20 L 62.77 165.65 L 48.74 170.41 L 35.66 177.02 L 24.43 186.14 L 14.34 196.73 L 7.04 209.36 L 2.59 223.20 L 0.70 237.81 L 1.99 251.89 L 5.12 265.58 L 11.19 278.74 L 19.27 290.81 Z" />
</symbol>
<symbol id="bl3">
<path d="M 163.91 211.91 L 157.10 229.00 L 155.50 247.02 L 159.32 264.62 L 167.61 280.00 L 176.07 295.29 L 186.34 309.16 L 193.11 325.03 L 200.31 340.61 L 208.30 356.01 L 215.77 370.29 L 227.90 388.30 L 236.78 402.42 L 245.62 416.93 L 253.61 430.78 L 263.34 450.16 L 276.01 463.60 L 293.08 472.87 L 312.32 475.86 L 331.06 473.10 L 347.36 464.46 L 360.66 451.75 L 370.71 435.90 L 378.86 419.28 L 387.27 402.92 L 395.61 386.48 L 403.80 369.95 L 412.07 353.45 L 420.47 336.95 L 428.90 320.43 L 437.25 303.84 L 445.49 287.19 L 453.69 270.51 L 461.78 253.78 L 469.60 236.99 L 477.33 220.20 L 486.15 203.96 L 493.52 186.95 L 498.80 169.28 L 501.21 150.89 L 500.88 132.46 L 497.54 114.40 L 492.09 96.83 L 484.30 80.17 L 474.08 64.94 L 461.70 51.47 L 447.84 39.38 L 431.89 30.06 L 415.36 21.57 L 397.22 17.58 L 378.73 15.61 L 360.11 17.03 L 341.63 19.89 L 323.81 26.06 L 306.98 34.56 L 291.70 45.51 L 277.48 58.27 L 265.53 73.36 L 253.74 88.59 L 242.16 104.04 L 230.63 119.55 L 219.14 135.08 L 207.67 150.58 L 196.25 166.03 L 185.03 181.50 L 174.31 196.86 Z" />
</symbol>
</defs>
<!-- isDone: 0 -->
<rect width="700" height="500" style="fill:#fff;stroke-width:0" />
<use class="p0 borderLine" xlink:href="#bl0"/>
<use class="p1 borderLine" xlink:href="#bl1"/>
<use class="p2 borderLine" xlink:href="#bl2"/>
<use class="p3 borderLine" xlink:href="#bl3"/>
<use class="q0 outLine" xlink:href="#bl0"/>
<use class="q1 outLine" xlink:href="#bl1"/>
<use class="q2 outLine" xlink:href="#bl2"/>
<use class="q3 outLine" xlink:href="#bl3"/>
<circle onclick="fromCircle(1)" class="circle" cx="233.9775" cy="452.6725" r="17.8908" />
<text class="tLabel" x="233.98" y="432.67"></text>
<text class="nLabel" x="233.98" y="447.67">2</text>
<text class="belong" x="233.98" y="457.67">(1)</text>
<circle onclick="fromCircle(2)" class="circle" cx="78.4318" cy="389.2316" r="43.8233" />
<text class="tLabel" x="78.43" y="369.23"></text>
<text class="nLabel" x="78.43" y="384.23">12</text>
<text class="belong" x="78.43" y="394.23">(2)</text>
<circle onclick="fromCircle(6)" class="circle" cx="149.4778" cy="330.4409" r="30.9877" />
<text class="tLabel" x="149.48" y="310.44"></text>
<text class="nLabel" x="149.48" y="325.44">6</text>
<text class="belong" x="149.48" y="335.44">(2, 3)</text>
<circle onclick="fromCircle(14)" class="circle" cx="217.7040" cy="323.6884" r="12.6507" />
<text class="tLabel" x="217.70" y="303.69"></text>
<text class="nLabel" x="217.70" y="318.69">1</text>
<text class="belong" x="217.70" y="328.69">(2, 3, 4)</text>
<circle onclick="fromCircle(10)" class="circle" cx="307.9515" cy="306.6751" r="41.9576" />
<text class="tLabel" x="307.95" y="286.68"></text>
<text class="nLabel" x="307.95" y="301.68">11</text>
<text class="belong" x="307.95" y="311.68">(2, 4)</text>
<circle onclick="fromCircle(4)" class="circle" cx="76.7707" cy="240.7755" r="66.9412" />
<text class="tLabel" x="76.77" y="220.78"></text>
<text class="nLabel" x="76.77" y="235.78">28</text>
<text class="belong" x="76.77" y="245.78">(3)</text>
<circle onclick="fromCircle(5)" class="circle" cx="185.6080" cy="403.8597" r="33.4706" />
<text class="tLabel" x="185.61" y="383.86"></text>
<text class="nLabel" x="185.61" y="398.86">7</text>
<text class="belong" x="185.61" y="408.86">(1, 3)</text>
<circle onclick="fromCircle(13)" class="circle" cx="244.6560" cy="363.9406" r="17.8908" />
<text class="tLabel" x="244.66" y="343.94"></text>
<text class="nLabel" x="244.66" y="358.94">2</text>
<text class="belong" x="244.66" y="368.94">(1, 3, 4)</text>
<circle onclick="fromCircle(12)" class="circle" cx="217.9085" cy="242.9721" r="50.6028" />
<text class="tLabel" x="217.91" y="222.97"></text>
<text class="nLabel" x="217.91" y="237.97">16</text>
<text class="belong" x="217.91" y="247.97">(3, 4)</text>
<circle onclick="fromCircle(8)" class="circle" cx="373.2311" cy="143.9462" r="115.9455" />
<text class="tLabel" x="373.23" y="123.95"></text>
<text class="nLabel" x="373.23" y="138.95">84</text>
<text class="belong" x="373.23" y="148.95">(4)</text>
<circle onclick="fromCircle(9)" class="circle" cx="312.4417" cy="414.8943" r="48.9959" />
<text class="tLabel" x="312.44" y="394.89"></text>
<text class="nLabel" x="312.44" y="409.89">15</text>
<text class="belong" x="312.44" y="419.89">(1, 4)</text>
<rect class="p0 borderLine" x="500.00" y="50.00" width="30.00" height="15.00" />
<rect class="q0" x="500.00" y="50.00" width="30.00" height="15.00" />
<text class="legend" x="540.00" y="65.00">S_salivarius</text>
<rect class="p1 borderLine" x="500.00" y="90.00" width="30.00" height="15.00" />
<rect class="q1" x="500.00" y="90.00" width="30.00" height="15.00" />
<text class="legend" x="540.00" y="105.00">Other</text>
<rect class="p2 borderLine" x="500.00" y="130.00" width="30.00" height="15.00" />
<rect class="q2" x="500.00" y="130.00" width="30.00" height="15.00" />
<text class="legend" x="540.00" y="145.00">GAS</text>
<rect class="p3 borderLine" x="500.00" y="170.00" width="30.00" height="15.00" />
<rect class="q3" x="500.00" y="170.00" width="30.00" height="15.00" />
<text class="legend" x="540.00" y="185.00">GCS/GGS</text>
</svg>
