<svg xmlns="http://www.w3.org/2000/svg" xmlns:xlink="http://www.w3.org/1999/xlink" width="700" height="500">
<defs>
<style type="text/css"><![CDATA[
  .borderLine {
	   stroke: none;
	   fill-opacity: 0.4;
  }
  .outLine {
	   stroke-width: 1;
	   fill: none;
  }
  .circle {
	   stroke: #888888;
	   stroke-width: 0.5;
	   fill: none;
    pointer-events: all;
  }
  .spcircle {
	   stroke: #FF2222;
	   stroke-width: 1;
	   fill: none;
    pointer-events: all;
  }
  .tLabel {
	   font-family: Arial;
    pointer-events: none;
	   font-size: 14px;
	   text-anchor: middle;
	   alignment-baseline: central;
  }
  .nLabel {
	   font-family: Arial;
    pointer-events: none;
	   font-size: 10px;
	   text-anchor: middle;
	   alignment-baseline: central;
  }
  .belong {
	   font-family: Arial;
    pointer-events: none;
	   font-size: 5px;
	   text-anchor: middle;
	   alignment-baseline: central;
  }
  .p0{
    stroke: none;
    fill: #e6194b;
  }
  .q0{
    fill: none;
    stroke: #e6194b;
  }
  .p1{
    stroke: none;
    fill: #3cb44b;
  }
  .q1{
    fill: none;
    stroke: #3cb44b;
  }
  .p2{
    stroke: none;
    fill: #ffe119;
  }
  .q2{
    fill: none;
    stroke: #ffe119;
  }
  .p3{
    stroke: none;
    fill: #0082c8;
  }
  .q3{
    fill: none;
    stroke: #0082c8;
  }
  .p4{
    stroke: none;
    fill: #f58231;
  }
  .q4{
    fill: none;
    stroke: #f58231;
  }
]]>
</style>
<symbol id="bl0">
<path d="M 161.17 125.67 L 154.14 126.27 L 147.50 126.95 L 141.46 129.09 L 135.27 131.03 L 128.82 132.79 L 122.48 134.19 L 115.37 136.17 L 109.50 140.05 L 105.83 146.14 L 106.12 153.07 L 110.19 159.36 L 117.60 162.51 L 123.83 165.43 L 129.64 169.57 L 136.04 173.17 L 141.89 177.58 L 147.53 180.73 L 153.02 184.52 L 158.62 189.13 L 163.58 194.22 L 168.18 199.79 L 171.76 205.48 L 175.88 211.22 L 179.32 217.19 L 181.62 223.21 L 184.25 228.82 L 186.11 235.51 L 187.07 242.22 L 186.99 248.45 L 186.50 254.90 L 186.04 261.75 L 185.42 267.95 L 184.64 274.29 L 183.11 280.48 L 180.80 286.58 L 178.46 292.20 L 174.87 297.54 L 171.59 303.53 L 167.89 309.00 L 163.59 314.90 L 159.04 319.92 L 156.92 326.70 L 156.51 333.59 L 158.29 340.29 L 162.38 346.81 L 168.55 350.93 L 175.30 353.59 L 182.21 353.28 L 188.80 351.26 L 194.97 347.93 L 201.93 346.48 L 208.82 346.42 L 215.34 347.41 L 221.87 349.45 L 227.51 353.02 L 232.60 357.45 L 236.92 363.00 L 241.10 368.12 L 246.25 372.21 L 252.50 374.93 L 259.55 376.15 L 266.35 376.64 L 273.08 377.89 L 279.38 380.96 L 284.32 385.91 L 288.41 391.75 L 293.80 395.84 L 300.07 398.89 L 306.76 400.75 L 313.22 402.66 L 319.80 405.23 L 326.90 407.11 L 333.10 409.86 L 339.33 412.51 L 345.81 414.37 L 352.12 416.99 L 357.97 419.51 L 363.80 422.07 L 369.75 424.64 L 375.88 426.87 L 381.78 429.56 L 388.23 430.79 L 394.72 432.22 L 401.55 433.13 L 408.70 433.01 L 415.27 432.63 L 421.80 431.59 L 428.29 429.84 L 434.73 428.14 L 441.21 426.32 L 447.17 423.05 L 452.69 419.11 L 458.14 415.19 L 463.84 411.35 L 468.13 406.44 L 472.79 401.66 L 476.07 395.45 L 479.57 389.87 L 482.45 383.98 L 485.40 378.03 L 486.80 371.45 L 488.66 365.43 L 489.85 359.52 L 489.71 352.99 L 490.00 346.21 L 489.59 339.41 L 488.05 332.96 L 486.37 326.53 L 484.37 319.71 L 481.73 313.73 L 478.72 307.81 L 474.88 302.50 L 471.07 297.92 L 467.10 293.08 L 462.53 288.74 L 457.46 284.51 L 451.80 280.71 L 446.26 276.83 L 439.80 274.01 L 432.85 271.12 L 425.73 268.99 L 418.44 267.37 L 411.16 267.28 L 404.25 267.19 L 397.40 267.59 L 390.84 268.55 L 384.40 268.59 L 378.01 268.54 L 370.99 269.30 L 363.90 271.33 L 356.83 272.63 L 349.51 273.35 L 342.13 273.88 L 334.91 273.59 L 327.46 271.50 L 321.30 267.50 L 314.81 265.16 L 308.34 263.32 L 302.16 263.03 L 295.58 263.02 L 289.09 261.88 L 282.87 259.26 L 277.74 255.77 L 273.26 251.68 L 268.11 247.47 L 263.29 242.77 L 258.94 238.00 L 253.99 233.60 L 248.78 229.62 L 243.65 225.54 L 238.19 221.79 L 232.83 217.70 L 226.53 214.66 L 221.74 209.56 L 218.29 204.21 L 215.55 197.69 L 214.53 191.07 L 215.09 183.98 L 217.93 177.09 L 221.54 171.49 L 226.88 166.42 L 232.64 163.38 L 237.61 159.92 L 241.91 154.20 L 244.85 146.86 L 246.05 139.77 L 245.95 133.20 L 243.27 126.43 L 239.78 120.48 L 235.38 115.59 L 229.43 111.47 L 223.01 109.99 L 216.07 109.02 L 208.64 110.39 L 202.12 112.94 L 195.35 116.77 L 188.85 118.84 L 182.06 121.62 L 175.86 125.06 L 168.72 126.13 Z" />
</symbol>
<symbol id="bl1">
<path d="M 98.26 387.77 L 103.48 393.01 L 108.72 398.77 L 114.22 403.43 L 120.03 406.81 L 127.23 409.11 L 133.53 410.03 L 140.80 411.00 L 147.17 410.19 L 154.54 410.90 L 162.04 411.40 L 168.62 412.74 L 175.68 413.57 L 182.97 413.35 L 189.36 413.48 L 196.07 414.04 L 203.30 415.57 L 210.36 415.65 L 216.64 414.56 L 223.02 412.12 L 228.94 408.35 L 234.30 403.20 L 238.37 396.82 L 241.15 389.58 L 241.85 382.13 L 241.66 374.62 L 239.52 368.04 L 236.03 361.51 L 232.78 355.09 L 232.26 348.07 L 231.70 340.64 L 234.44 333.68 L 235.96 326.61 L 237.36 318.97 L 237.88 311.31 L 238.73 303.96 L 239.40 296.81 L 239.55 289.48 L 239.73 282.72 L 240.17 275.12 L 240.99 267.77 L 241.84 261.40 L 244.14 254.96 L 246.84 249.02 L 250.35 243.30 L 253.85 236.71 L 256.79 230.67 L 260.21 224.16 L 262.85 217.96 L 265.18 211.64 L 268.81 205.84 L 272.53 199.65 L 273.00 192.79 L 272.64 185.86 L 270.82 179.21 L 267.91 173.26 L 262.99 168.45 L 257.74 164.33 L 250.48 161.97 L 243.28 161.10 L 236.15 162.29 L 229.28 165.40 L 222.74 167.84 L 215.69 169.37 L 208.62 170.20 L 201.57 170.83 L 195.11 172.18 L 188.13 173.28 L 181.20 175.66 L 175.95 179.65 L 169.55 182.62 L 163.03 183.87 L 155.85 183.51 L 148.64 181.36 L 142.56 177.54 L 137.15 172.97 L 133.58 166.73 L 131.80 159.89 L 131.26 152.69 L 132.16 145.85 L 128.44 140.69 L 122.71 136.72 L 115.50 135.32 L 108.71 133.19 L 102.79 130.45 L 97.54 126.57 L 90.90 123.71 L 83.85 122.10 L 77.46 122.88 L 71.72 125.18 L 65.68 128.67 L 61.53 134.84 L 57.73 140.68 L 54.29 146.83 L 51.31 152.97 L 47.55 158.31 L 43.99 164.16 L 40.55 170.56 L 37.56 176.47 L 33.94 182.11 L 30.51 188.71 L 27.66 195.39 L 24.74 201.11 L 22.60 207.60 L 20.30 214.15 L 17.24 220.35 L 14.82 226.34 L 13.27 233.31 L 11.47 240.60 L 10.33 247.11 L 10.66 254.84 L 10.76 262.73 L 12.20 270.18 L 13.03 277.55 L 14.97 283.18 L 17.82 288.55 L 20.70 295.13 L 24.51 301.74 L 27.87 307.82 L 32.34 311.97 L 37.56 317.30 L 41.81 322.71 L 45.34 328.04 L 51.08 334.11 L 55.65 339.37 L 59.79 344.60 L 64.89 349.87 L 69.13 354.71 L 73.86 360.49 L 78.01 365.90 L 83.16 371.57 L 88.72 376.66 L 93.48 381.76 Z" />
</symbol>
<symbol id="bl2">
<path d="M 66.67 128.15 L 62.98 133.75 L 59.32 139.93 L 56.11 145.70 L 52.53 151.49 L 49.35 157.89 L 46.36 163.35 L 42.62 169.59 L 39.89 175.27 L 35.91 181.14 L 32.22 187.28 L 29.52 193.15 L 26.05 198.77 L 22.85 205.61 L 20.90 212.04 L 18.16 217.96 L 14.55 224.89 L 13.01 231.79 L 11.89 238.13 L 11.18 244.66 L 11.08 251.64 L 10.46 259.05 L 10.74 266.70 L 11.65 273.92 L 14.86 280.36 L 17.46 286.67 L 19.74 292.44 L 22.34 298.56 L 26.30 304.26 L 29.44 309.90 L 34.38 314.64 L 39.81 319.03 L 44.63 323.83 L 50.46 327.69 L 56.58 331.54 L 63.31 334.73 L 69.85 336.89 L 76.39 338.91 L 83.22 340.47 L 90.40 342.22 L 97.68 342.10 L 104.45 342.29 L 110.85 340.97 L 117.49 339.60 L 124.06 338.09 L 130.23 335.78 L 137.01 333.26 L 143.43 330.18 L 149.51 326.72 L 154.56 322.15 L 160.27 318.00 L 165.21 312.88 L 171.33 309.66 L 178.41 308.12 L 185.62 309.25 L 192.08 312.13 L 197.25 317.05 L 200.83 323.81 L 202.12 331.54 L 200.53 338.84 L 196.80 345.37 L 191.16 350.42 L 184.67 354.52 L 178.50 359.82 L 175.34 366.68 L 173.41 373.46 L 172.59 381.07 L 173.58 388.03 L 175.16 395.28 L 179.40 401.34 L 183.96 407.00 L 190.32 411.11 L 197.29 414.91 L 204.26 416.98 L 211.28 418.33 L 217.92 419.76 L 224.61 421.40 L 231.75 422.39 L 238.23 423.94 L 244.88 425.37 L 251.75 426.62 L 258.74 429.00 L 266.32 429.00 L 273.09 427.15 L 279.19 423.83 L 284.81 419.09 L 290.84 415.11 L 296.79 411.14 L 301.98 406.72 L 307.81 402.51 L 312.62 397.89 L 318.66 394.32 L 323.41 389.30 L 326.76 383.38 L 327.57 376.53 L 326.20 369.49 L 323.31 362.79 L 318.33 357.19 L 312.53 352.50 L 306.98 347.73 L 301.35 344.12 L 296.72 339.48 L 291.84 335.23 L 287.10 330.66 L 281.87 325.99 L 275.96 321.83 L 270.92 318.45 L 265.27 316.13 L 259.65 314.33 L 254.01 311.55 L 247.65 309.75 L 242.04 307.12 L 235.97 304.26 L 229.65 301.98 L 223.91 299.72 L 217.71 297.74 L 211.56 293.67 L 207.58 288.01 L 203.80 282.08 L 200.38 275.31 L 196.84 269.15 L 194.32 262.68 L 191.18 255.69 L 189.16 248.48 L 188.41 241.68 L 189.42 234.34 L 192.21 228.07 L 195.84 222.76 L 200.80 217.57 L 206.46 213.28 L 210.78 208.37 L 214.08 202.19 L 214.84 195.43 L 214.01 187.84 L 210.03 181.57 L 205.52 176.07 L 202.03 169.92 L 198.06 163.94 L 193.38 157.57 L 189.96 151.29 L 188.20 144.20 L 187.84 136.93 L 189.24 129.16 L 190.52 121.59 L 192.88 115.29 L 194.33 108.22 L 195.79 101.60 L 196.40 94.02 L 194.31 86.53 L 190.86 79.71 L 185.34 73.67 L 179.58 70.16 L 173.23 68.11 L 166.28 66.87 L 159.17 68.38 L 152.29 71.34 L 146.27 74.13 L 139.18 76.76 L 132.19 78.97 L 126.50 81.51 L 119.24 84.49 L 113.09 87.33 L 107.41 90.66 L 101.00 94.74 L 96.29 98.87 L 91.55 104.60 L 87.32 109.56 L 82.36 113.90 L 77.49 119.18 L 72.23 123.48 Z" />
</symbol>
<symbol id="bl3">
<path d="M 229.90 424.72 L 236.75 426.32 L 244.41 426.82 L 251.84 427.52 L 259.06 428.52 L 266.94 428.79 L 273.56 426.76 L 280.21 423.07 L 284.93 418.14 L 288.94 411.48 L 290.77 404.10 L 289.57 397.10 L 286.88 389.66 L 283.40 383.27 L 281.94 376.93 L 281.99 370.10 L 285.85 362.86 L 291.07 357.36 L 296.29 352.50 L 301.03 347.01 L 306.45 341.87 L 312.07 336.55 L 317.64 331.04 L 322.82 326.09 L 327.73 320.71 L 331.90 315.15 L 334.88 308.90 L 336.43 301.43 L 339.02 294.15 L 342.02 287.13 L 343.66 279.13 L 345.78 272.18 L 348.13 265.08 L 348.66 257.64 L 346.11 250.36 L 343.72 242.82 L 340.94 235.83 L 339.08 228.69 L 337.44 222.21 L 335.29 215.23 L 332.47 208.23 L 327.93 202.12 L 322.44 196.73 L 316.23 192.77 L 309.21 190.31 L 301.69 188.93 L 294.41 189.35 L 287.25 190.85 L 280.76 193.90 L 274.75 198.05 L 270.16 203.90 L 266.37 210.07 L 263.88 216.54 L 260.43 222.56 L 257.89 228.71 L 254.22 234.55 L 251.59 240.69 L 247.73 246.93 L 245.11 254.20 L 241.87 261.48 L 239.76 269.12 L 237.70 276.13 L 235.60 283.18 L 233.62 290.25 L 229.25 295.89 L 222.70 298.14 L 215.64 299.10 L 208.80 300.64 L 201.99 301.57 L 195.22 303.62 L 188.58 305.31 L 181.34 307.31 L 174.08 308.55 L 167.80 311.35 L 161.87 315.74 L 156.39 320.67 L 151.38 324.99 L 145.72 329.35 L 139.05 332.05 L 132.54 334.99 L 126.16 337.49 L 119.47 340.09 L 113.65 344.08 L 108.51 348.95 L 104.04 355.42 L 100.89 362.79 L 99.66 370.67 L 99.80 378.69 L 101.71 384.94 L 104.00 391.19 L 108.69 397.10 L 113.87 402.48 L 119.99 406.47 L 126.27 408.62 L 134.04 409.99 L 141.46 411.25 L 148.73 412.10 L 156.88 412.75 L 164.12 413.33 L 171.49 414.32 L 179.39 415.66 L 186.33 416.80 L 194.04 418.18 L 201.15 418.76 L 208.69 419.54 L 215.89 420.88 L 222.91 422.93 Z" />
</symbol>
<symbol id="bl4">
<path d="M 137.72 103.64 L 138.64 110.96 L 138.03 118.49 L 135.99 125.96 L 134.47 133.48 L 133.05 140.85 L 132.05 147.86 L 129.92 155.48 L 124.97 160.82 L 117.58 162.69 L 110.37 163.13 L 103.39 163.98 L 96.58 165.27 L 89.68 166.69 L 82.10 167.80 L 75.33 169.02 L 68.11 170.99 L 61.20 172.37 L 55.48 176.74 L 49.06 180.58 L 42.89 185.11 L 37.69 190.77 L 32.66 196.25 L 28.38 201.57 L 24.09 207.17 L 20.52 212.76 L 18.04 218.50 L 15.11 224.34 L 13.44 230.62 L 11.75 236.77 L 11.50 243.12 L 10.11 249.57 L 10.00 255.81 L 10.66 262.20 L 11.92 268.60 L 12.92 275.04 L 14.45 281.39 L 17.17 287.27 L 19.32 293.77 L 22.92 300.00 L 26.65 305.87 L 30.57 310.78 L 35.43 314.60 L 39.63 319.06 L 44.40 323.27 L 50.20 327.60 L 56.81 331.19 L 63.63 334.57 L 70.28 336.96 L 76.93 339.21 L 83.57 341.00 L 90.31 342.03 L 96.74 342.62 L 103.37 342.10 L 110.53 341.44 L 117.46 340.03 L 123.73 337.99 L 130.49 335.87 L 137.00 333.42 L 143.54 330.61 L 149.47 327.20 L 154.60 322.15 L 159.60 317.59 L 164.39 312.71 L 169.05 307.98 L 173.85 303.49 L 178.92 299.59 L 183.78 295.40 L 189.25 291.74 L 194.88 288.27 L 200.67 284.44 L 206.16 280.68 L 211.25 276.83 L 217.01 272.96 L 224.17 272.68 L 230.51 273.75 L 236.65 276.21 L 242.82 278.75 L 249.40 280.10 L 255.51 282.75 L 262.35 283.23 L 268.74 281.16 L 274.58 276.42 L 279.72 270.76 L 286.84 266.63 L 293.71 263.64 L 301.51 263.04 L 308.90 261.93 L 316.06 259.34 L 322.63 255.44 L 327.98 250.13 L 332.22 244.43 L 335.06 238.39 L 336.85 231.20 L 336.95 223.39 L 335.70 216.24 L 333.97 209.31 L 329.90 203.72 L 325.19 198.40 L 319.90 193.12 L 315.29 187.88 L 310.81 183.25 L 305.15 178.67 L 300.00 173.63 L 294.96 168.51 L 290.11 163.28 L 285.40 157.58 L 280.49 152.62 L 276.28 148.15 L 271.73 143.72 L 266.86 139.39 L 261.61 135.60 L 255.67 131.83 L 250.04 126.76 L 244.27 121.87 L 237.89 117.42 L 232.40 113.02 L 227.57 109.52 L 221.97 104.15 L 215.76 99.90 L 210.34 95.46 L 205.80 90.87 L 200.30 86.91 L 194.86 81.93 L 190.28 77.29 L 184.41 72.86 L 177.94 69.03 L 171.24 67.43 L 163.16 67.08 L 156.41 68.98 L 150.27 72.48 L 144.90 77.11 L 141.31 82.64 L 137.93 89.69 L 137.64 96.30 Z" />
</symbol>
</defs>
<!-- isDone: 0 -->
<rect width="700" height="500" style="fill:#fff;stroke-width:0" />
<use class="p0 borderLine" xlink:href="#bl0"/>
<use class="p1 borderLine" xlink:href="#bl1"/>
<use class="p2 borderLine" xlink:href="#bl2"/>
<use class="p3 borderLine" xlink:href="#bl3"/>
<use class="p4 borderLine" xlink:href="#bl4"/>
<use class="q0 outLine" xlink:href="#bl0"/>
<use class="q1 outLine" xlink:href="#bl1"/>
<use class="q2 outLine" xlink:href="#bl2"/>
<use class="q3 outLine" xlink:href="#bl3"/>
<use class="q4 outLine" xlink:href="#bl4"/>
<circle onclick="fromCircle(1)" class="circle" cx="406.8058" cy="350.0073" r="68.9971" />
<text class="tLabel" x="406.81" y="330.01"></text>
<text class="nLabel" x="406.81" y="345.01">40</text>
<text class="belong" x="406.81" y="355.01">(1)</text>
<circle onclick="fromCircle(3)" class="circle" cx="221.5460" cy="285.2088" r="10.9094" />
<text class="tLabel" x="221.55" y="265.21"></text>
<text class="nLabel" x="221.55" y="280.21">1</text>
<text class="belong" x="221.55" y="290.21">(1, 2)</text>
<circle onclick="fromCircle(7)" class="circle" cx="118.5440" cy="149.3181" r="10.9094" />
<text class="tLabel" x="118.54" y="129.32"></text>
<text class="nLabel" x="118.54" y="144.32">1</text>
<text class="belong" x="118.54" y="154.32">(1, 2, 3)</text>
<circle onclick="fromCircle(15)" class="circle" cx="218.5460" cy="317.5910" r="15.4282" />
<text class="tLabel" x="218.55" y="297.59"></text>
<text class="nLabel" x="218.55" y="312.59">2</text>
<text class="belong" x="218.55" y="322.59">(1, 2, 3, 4)</text>
<circle onclick="fromCircle(2)" class="circle" cx="86.0941" cy="355.5341" r="10.9094" />
<text class="tLabel" x="86.09" y="335.53"></text>
<text class="nLabel" x="86.09" y="350.53">1</text>
<text class="belong" x="86.09" y="360.53">(2)</text>
<circle onclick="fromCircle(6)" class="circle" cx="82.7457" cy="144.9066" r="18.8956" />
<text class="tLabel" x="82.75" y="124.91"></text>
<text class="nLabel" x="82.75" y="139.91">3</text>
<text class="belong" x="82.75" y="149.91">(2, 3)</text>
<circle onclick="fromCircle(14)" class="circle" cx="207.3714" cy="381.0104" r="28.8635" />
<text class="tLabel" x="207.37" y="361.01"></text>
<text class="nLabel" x="207.37" y="376.01">7</text>
<text class="belong" x="207.37" y="386.01">(2, 3, 4)</text>
<circle onclick="fromCircle(10)" class="circle" cx="136.5698" cy="372.9488" r="30.8564" />
<text class="tLabel" x="136.57" y="352.95"></text>
<text class="nLabel" x="136.57" y="367.95">8</text>
<text class="belong" x="136.57" y="377.95">(2, 4)</text>
<circle onclick="fromCircle(18)" class="circle" cx="243.8474" cy="190.5606" r="24.3941" />
<text class="tLabel" x="243.85" y="170.56"></text>
<text class="nLabel" x="243.85" y="185.56">5</text>
<text class="belong" x="243.85" y="195.56">(2, 5)</text>
<circle onclick="fromCircle(22)" class="circle" cx="98.7333" cy="253.9378" r="73.1824" />
<text class="tLabel" x="98.73" y="233.94"></text>
<text class="nLabel" x="98.73" y="248.94">45</text>
<text class="belong" x="98.73" y="258.94">(2, 3, 5)</text>
<circle onclick="fromCircle(4)" class="circle" cx="116.1271" cy="111.5879" r="18.8956" />
<text class="tLabel" x="116.13" y="91.59"></text>
<text class="nLabel" x="116.13" y="106.59">3</text>
<text class="belong" x="116.13" y="116.59">(3)</text>
<circle onclick="fromCircle(5)" class="circle" cx="304.6938" cy="375.6995" r="18.8956" />
<text class="tLabel" x="304.69" y="355.70"></text>
<text class="nLabel" x="304.69" y="370.70">3</text>
<text class="belong" x="304.69" y="380.70">(1, 3)</text>
<circle onclick="fromCircle(13)" class="circle" cx="261.4169" cy="346.9484" r="24.3941" />
<text class="tLabel" x="261.42" y="326.95"></text>
<text class="nLabel" x="261.42" y="341.95">5</text>
<text class="belong" x="261.42" y="351.95">(1, 3, 4)</text>
<circle onclick="fromCircle(12)" class="circle" cx="264.1017" cy="402.5537" r="21.8188" />
<text class="tLabel" x="264.10" y="382.55"></text>
<text class="nLabel" x="264.10" y="397.55">4</text>
<text class="belong" x="264.10" y="407.55">(3, 4)</text>
<circle onclick="fromCircle(20)" class="circle" cx="167.0937" cy="96.6653" r="24.3941" />
<text class="tLabel" x="167.09" y="76.67"></text>
<text class="nLabel" x="167.09" y="91.67">5</text>
<text class="belong" x="167.09" y="101.67">(3, 5)</text>
<circle onclick="fromCircle(21)" class="circle" cx="160.6586" cy="154.5690" r="24.3941" />
<text class="tLabel" x="160.66" y="134.57"></text>
<text class="nLabel" x="160.66" y="149.57">5</text>
<text class="belong" x="160.66" y="159.57">(1, 3, 5)</text>
<circle onclick="fromCircle(8)" class="circle" cx="335.8629" cy="260.5944" r="10.9094" />
<text class="tLabel" x="335.86" y="240.59"></text>
<text class="nLabel" x="335.86" y="255.59">1</text>
<text class="belong" x="335.86" y="265.59">(4)</text>
<circle onclick="fromCircle(9)" class="circle" cx="301.8788" cy="297.7067" r="28.8635" />
<text class="tLabel" x="301.88" y="277.71"></text>
<text class="nLabel" x="301.88" y="292.71">7</text>
<text class="belong" x="301.88" y="302.71">(1, 4)</text>
<circle onclick="fromCircle(11)" class="circle" cx="178.9971" cy="331.0010" r="18.8956" />
<text class="tLabel" x="179.00" y="311.00"></text>
<text class="nLabel" x="179.00" y="326.00">3</text>
<text class="belong" x="179.00" y="336.00">(1, 2, 4)</text>
<circle onclick="fromCircle(24)" class="circle" cx="299.8336" cy="226.0768" r="30.8564" />
<text class="tLabel" x="299.83" y="206.08"></text>
<text class="nLabel" x="299.83" y="221.08">8</text>
<text class="belong" x="299.83" y="231.08">(4, 5)</text>
<circle onclick="fromCircle(25)" class="circle" cx="260.2226" cy="264.7382" r="15.4282" />
<text class="tLabel" x="260.22" y="244.74"></text>
<text class="nLabel" x="260.22" y="259.74">2</text>
<text class="belong" x="260.22" y="269.74">(1, 4, 5)</text>
<circle onclick="fromCircle(16)" class="circle" cx="260.5697" cy="151.3286" r="10.9094" />
<text class="tLabel" x="260.57" y="131.33"></text>
<text class="nLabel" x="260.57" y="146.33">1</text>
<text class="belong" x="260.57" y="156.33">(5)</text>
<circle onclick="fromCircle(17)" class="circle" cx="216.8829" cy="138.6721" r="24.3941" />
<text class="tLabel" x="216.88" y="118.67"></text>
<text class="nLabel" x="216.88" y="133.67">5</text>
<text class="belong" x="216.88" y="143.67">(1, 5)</text>
<circle onclick="fromCircle(19)" class="circle" cx="217.7498" cy="242.7704" r="24.3941" />
<text class="tLabel" x="217.75" y="222.77"></text>
<text class="nLabel" x="217.75" y="237.77">5</text>
<text class="belong" x="217.75" y="247.77">(1, 2, 5)</text>
<circle onclick="fromCircle(23)" class="circle" cx="192.3173" cy="195.7087" r="18.8956" />
<text class="tLabel" x="192.32" y="175.71"></text>
<text class="nLabel" x="192.32" y="190.71">3</text>
<text class="belong" x="192.32" y="200.71">(1, 2, 3, 5)</text>
<rect class="p0 borderLine" x="500.00" y="50.00" width="30.00" height="15.00" />
<rect class="q0" x="500.00" y="50.00" width="30.00" height="15.00" />
<text class="legend" x="540.00" y="65.00">Ball2017</text>
<rect class="p1 borderLine" x="500.00" y="90.00" width="30.00" height="15.00" />
<rect class="q1" x="500.00" y="90.00" width="30.00" height="15.00" />
<text class="legend" x="540.00" y="105.00">Courtois2015</text>
<rect class="p2 borderLine" x="500.00" y="130.00" width="30.00" height="15.00" />
<rect class="q2" x="500.00" y="130.00" width="30.00" height="15.00" />
<text class="legend" x="540.00" y="145.00">Hilton2017</text>
<rect class="p3 borderLine" x="500.00" y="170.00" width="30.00" height="15.00" />
<rect class="q3" x="500.00" y="170.00" width="30.00" height="15.00" />
<text class="legend" x="540.00" y="185.00">Ball2017</text>
<rect class="p4 borderLine" x="500.00" y="210.00" width="30.00" height="15.00" />
<rect class="q4" x="500.00" y="210.00" width="30.00" height="15.00" />
<text class="legend" x="540.00" y="225.00">Hilton2017</text>
</svg>
