<svg xmlns="http://www.w3.org/2000/svg" xmlns:xlink="http://www.w3.org/1999/xlink" width="700" height="500">
<defs>
<style type="text/css"><![CDATA[
  .borderLine {
	   stroke: none;
	   fill-opacity: 0.4;
  }
  .outLine {
	   stroke-width: 1;
	   fill: none;
  }
  .circle {
	   stroke: #888888;
	   stroke-width: 0.5;
	   fill: none;
    pointer-events: all;
  }
  .spcircle {
	   stroke: #FF2222;
	   stroke-width: 1;
	   fill: none;
    pointer-events: all;
  }
  .tLabel {
	   font-family: Arial;
    pointer-events: none;
	   font-size: 14px;
	   text-anchor: middle;
	   alignment-baseline: central;
  }
  .nLabel {
	   font-family: Arial;
    pointer-events: none;
	   font-size: 10px;
	   text-anchor: middle;
	   alignment-baseline: central;
  }
  .belong {
	   font-family: Arial;
    pointer-events: none;
	   font-size: 5px;
	   text-anchor: middle;
	   alignment-baseline: central;
  }
  .p0{
    stroke: none;
    fill: #e6194b;
  }
  .q0{
    fill: none;
    stroke: #e6194b;
  }
  .p1{
    stroke: none;
    fill: #3cb44b;
  }
  .q1{
    fill: none;
    stroke: #3cb44b;
  }
  .p2{
    stroke: none;
    fill: #ffe119;
  }
  .q2{
    fill: none;
    stroke: #ffe119;
  }
  .p3{
    stroke: none;
    fill: #0082c8;
  }
  .q3{
    fill: none;
    stroke: #0082c8;
  }
  .p4{
    stroke: none;
    fill: #f58231;
  }
  .q4{
    fill: none;
    stroke: #f58231;
  }
  .p5{
    stroke: none;
    fill: #911eb4;
  }
  .q5{
    fill: none;
    stroke: #911eb4;
  }
]]>
</style>
<symbol id="bl0">
<path d="M 409.78 240.46 L 417.93 247.26 L 426.19 253.06 L 437.65 255.42 L 447.56 250.26 L 458.27 246.38 L 468.99 241.97 L 479.34 236.66 L 489.30 230.96 L 496.47 221.97 L 497.29 210.74 L 491.97 200.70 L 482.72 193.91 L 470.77 193.07 L 459.59 195.70 L 448.75 197.53 L 437.78 198.67 L 426.93 200.15 L 416.21 202.20 L 405.36 204.45 L 394.59 205.39 L 385.75 216.70 L 393.11 227.49 L 401.61 233.42 Z" />
</symbol>
<symbol id="bl1">
<path d="M 268.92 369.73 L 266.62 379.00 L 262.36 387.58 L 264.74 397.47 L 271.62 404.28 L 281.16 404.58 L 288.02 398.73 L 295.35 392.87 L 301.57 385.91 L 308.26 378.86 L 315.06 371.41 L 321.86 363.48 L 329.62 355.88 L 339.14 350.15 L 350.08 347.89 L 360.90 346.33 L 371.49 344.41 L 381.86 342.32 L 392.14 340.17 L 402.40 337.92 L 412.55 335.45 L 422.49 332.68 L 432.13 329.73 L 441.43 326.32 L 450.07 321.67 L 457.22 314.60 L 460.47 305.09 L 461.14 295.68 L 458.26 286.69 L 452.52 278.19 L 444.34 271.56 L 436.03 265.22 L 428.62 258.27 L 421.36 251.42 L 418.61 241.58 L 415.58 231.89 L 413.01 222.28 L 411.03 213.28 L 404.94 205.60 L 399.59 198.05 L 394.46 189.93 L 389.01 181.82 L 382.73 174.02 L 377.12 164.94 L 366.85 160.84 L 356.07 163.79 L 347.73 170.39 L 340.94 176.75 L 332.86 182.88 L 324.74 189.26 L 316.23 195.25 L 307.56 201.20 L 299.01 207.38 L 290.52 213.61 L 281.08 218.49 L 272.84 225.46 L 267.16 234.58 L 261.93 243.67 L 259.06 253.62 L 257.46 263.87 L 257.64 274.17 L 259.93 284.02 L 261.98 293.84 L 264.19 303.67 L 266.66 313.25 L 269.94 322.45 L 272.23 331.88 L 272.12 341.43 L 271.25 350.99 L 270.38 360.43 Z" />
</symbol>
<symbol id="bl2">
<path d="M 1.70 200.55 L 2.24 213.80 L 4.19 226.87 L 8.46 239.49 L 13.01 252.16 L 18.47 264.48 L 25.87 275.78 L 34.05 286.67 L 43.75 296.16 L 55.19 303.72 L 66.49 311.46 L 77.42 319.63 L 88.48 327.56 L 99.51 335.35 L 110.42 343.10 L 121.18 350.80 L 131.79 358.45 L 142.25 366.05 L 152.60 373.59 L 162.84 381.03 L 173.04 388.30 L 183.36 395.35 L 193.71 402.27 L 204.12 408.91 L 214.60 414.94 L 225.22 420.54 L 237.51 423.36 L 247.89 417.94 L 255.01 407.88 L 257.67 396.07 L 259.37 384.05 L 269.65 374.79 L 281.94 373.41 L 293.20 370.28 L 304.33 367.67 L 313.82 360.25 L 322.37 352.75 L 330.99 344.65 L 338.99 336.02 L 346.82 327.25 L 354.66 318.63 L 362.18 309.99 L 371.89 303.06 L 381.76 297.04 L 391.58 290.79 L 401.10 284.17 L 410.19 277.09 L 419.40 270.08 L 429.66 266.67 L 438.66 261.50 L 446.99 255.38 L 451.31 245.19 L 448.67 234.92 L 445.90 224.50 L 443.72 213.65 L 441.58 202.29 L 438.99 190.79 L 435.89 179.80 L 429.35 169.07 L 418.04 165.54 L 407.39 160.18 L 397.73 153.41 L 389.31 145.36 L 382.26 136.19 L 376.71 125.83 L 372.07 114.93 L 368.75 103.69 L 364.20 93.38 L 358.94 83.05 L 350.42 74.67 L 341.33 66.70 L 330.02 62.57 L 318.07 61.50 L 306.53 62.43 L 295.11 61.97 L 283.67 61.14 L 272.15 60.14 L 260.54 59.32 L 248.80 58.80 L 236.97 58.57 L 225.05 58.53 L 213.06 58.68 L 201.00 59.07 L 188.89 59.72 L 176.74 60.65 L 164.59 61.87 L 152.46 63.41 L 140.35 65.19 L 128.22 67.01 L 116.17 69.30 L 104.14 71.62 L 92.25 74.90 L 80.68 79.20 L 69.56 84.61 L 58.92 91.01 L 48.88 98.51 L 38.78 106.20 L 30.11 115.54 L 22.80 126.09 L 16.82 137.53 L 11.37 149.29 L 6.99 161.54 L 3.92 174.29 L 2.18 187.34 Z" />
</symbol>
<symbol id="bl3">
<path d="M 260.59 402.30 L 268.37 409.54 L 278.64 412.11 L 289.59 414.48 L 300.32 417.69 L 310.89 420.97 L 321.61 424.08 L 332.43 426.73 L 343.16 428.89 L 353.90 429.78 L 364.52 428.41 L 374.40 424.37 L 382.73 417.82 L 389.68 409.83 L 394.85 400.36 L 396.68 389.54 L 397.62 378.81 L 398.93 367.96 L 399.78 357.04 L 400.75 346.07 L 402.07 335.07 L 403.35 324.13 L 401.17 313.09 L 398.17 302.01 L 399.08 290.35 L 403.73 279.78 L 406.87 268.96 L 409.89 257.85 L 413.25 247.03 L 415.05 236.06 L 421.03 226.98 L 426.88 217.31 L 432.36 207.46 L 437.72 197.53 L 439.76 186.69 L 438.53 175.38 L 428.82 166.64 L 415.94 165.07 L 404.56 171.32 L 399.03 182.24 L 392.89 191.94 L 385.54 200.38 L 377.79 209.33 L 375.50 221.46 L 376.82 232.08 L 376.20 243.11 L 376.27 254.10 L 375.34 264.92 L 374.56 275.68 L 371.84 286.27 L 367.14 296.13 L 361.06 305.22 L 353.40 313.11 L 344.95 320.51 L 334.83 325.83 L 323.56 328.44 L 312.26 328.17 L 300.99 326.84 L 290.74 323.95 L 280.86 319.20 L 272.46 311.95 L 263.60 304.31 L 254.88 296.61 L 243.05 293.20 L 230.83 295.03 L 219.05 298.44 L 209.35 305.59 L 200.95 314.02 L 196.51 324.99 L 195.17 336.51 L 196.99 347.86 L 202.62 357.57 L 209.46 365.97 L 218.77 371.40 L 227.75 377.31 L 237.41 381.30 L 248.21 384.86 L 255.15 393.34 Z" />
</symbol>
<symbol id="bl4">
<path d="M 209.42 397.10 L 209.41 409.10 L 214.85 418.91 L 222.78 426.91 L 231.80 434.71 L 241.20 442.58 L 250.39 451.15 L 262.69 457.12 L 276.48 456.93 L 288.07 449.07 L 296.34 437.21 L 296.58 424.09 L 298.00 411.32 L 299.37 398.80 L 298.93 385.74 L 292.73 373.67 L 281.82 368.25 L 266.85 370.32 L 254.05 375.35 L 240.82 378.74 L 227.48 379.41 L 215.53 386.02 Z" />
</symbol>
<symbol id="bl5">
<path d="M 328.35 53.88 L 310.11 51.54 L 291.34 57.33 L 274.12 67.26 L 258.33 81.04 L 252.39 101.86 L 250.99 123.26 L 257.92 143.40 L 270.70 160.06 L 286.85 172.44 L 303.61 183.28 L 320.99 193.14 L 337.44 201.90 L 360.25 216.28 L 372.03 228.73 L 387.79 241.60 L 409.42 238.93 L 422.27 221.97 L 434.22 207.95 L 443.90 193.55 L 455.12 180.71 L 464.75 167.17 L 474.12 153.74 L 483.48 140.48 L 489.98 125.68 L 491.45 109.59 L 489.36 93.63 L 483.03 78.90 L 474.79 64.91 L 461.34 55.46 L 446.26 48.98 L 430.16 46.52 L 413.70 47.97 L 397.16 49.78 L 380.42 50.89 L 363.44 51.89 L 346.05 52.83 Z" />
</symbol>
</defs>
<!-- isDone: 0 -->
<rect width="700" height="500" style="fill:#fff;stroke-width:0" />
<use class="p0 borderLine" xlink:href="#bl0"/>
<use class="p1 borderLine" xlink:href="#bl1"/>
<use class="p2 borderLine" xlink:href="#bl2"/>
<use class="p3 borderLine" xlink:href="#bl3"/>
<use class="p4 borderLine" xlink:href="#bl4"/>
<use class="p5 borderLine" xlink:href="#bl5"/>
<use class="q0 outLine" xlink:href="#bl0"/>
<use class="q1 outLine" xlink:href="#bl1"/>
<use class="q2 outLine" xlink:href="#bl2"/>
<use class="q3 outLine" xlink:href="#bl3"/>
<use class="q4 outLine" xlink:href="#bl4"/>
<use class="q5 outLine" xlink:href="#bl5"/>
<circle onclick="fromCircle(1)" class="circle" cx="474.9146" cy="214.4341" r="18.7886" />
<text class="tLabel" x="474.91" y="194.43"></text>
<text class="nLabel" x="474.91" y="209.43">7</text>
<text class="belong" x="474.91" y="219.43">(1)</text>
<circle onclick="fromCircle(2)" class="circle" cx="432.7000" cy="299.1025" r="22.4566" />
<text class="tLabel" x="432.70" y="279.10"></text>
<text class="nLabel" x="432.70" y="294.10">10</text>
<text class="belong" x="432.70" y="304.10">(2)</text>
<circle onclick="fromCircle(6)" class="circle" cx="313.6066" cy="265.4162" r="49.7098" />
<text class="tLabel" x="313.61" y="245.42"></text>
<text class="nLabel" x="313.61" y="260.42">49</text>
<text class="belong" x="313.61" y="270.42">(2, 3)</text>
<circle onclick="fromCircle(14)" class="circle" cx="297.9530" cy="348.9332" r="10.0429" />
<text class="tLabel" x="297.95" y="328.93"></text>
<text class="nLabel" x="297.95" y="343.93">2</text>
<text class="belong" x="297.95" y="353.93">(2, 3, 4)</text>
<circle onclick="fromCircle(10)" class="circle" cx="379.0604" cy="323.1623" r="12.3000" />
<text class="tLabel" x="379.06" y="303.16"></text>
<text class="nLabel" x="379.06" y="318.16">3</text>
<text class="belong" x="379.06" y="328.16">(2, 4)</text>
<circle onclick="fromCircle(26)" class="circle" cx="276.9841" cy="391.0399" r="7.5507" />
<text class="tLabel" x="276.98" y="371.04"></text>
<text class="nLabel" x="276.98" y="386.04">1</text>
<text class="belong" x="276.98" y="396.04">(2, 4, 5)</text>
<circle onclick="fromCircle(38)" class="circle" cx="364.7395" cy="183.8192" r="14.2028" />
<text class="tLabel" x="364.74" y="163.82"></text>
<text class="nLabel" x="364.74" y="178.82">4</text>
<text class="belong" x="364.74" y="188.82">(2, 3, 6)</text>
<circle onclick="fromCircle(4)" class="circle" cx="131.0636" cy="198.3022" r="120.3054" />
<text class="tLabel" x="131.06" y="178.30"></text>
<text class="nLabel" x="131.06" y="193.30">287</text>
<text class="belong" x="131.06" y="203.30">(3)</text>
<circle onclick="fromCircle(5)" class="circle" cx="434.3508" cy="244.7922" r="7.5507" />
<text class="tLabel" x="434.35" y="224.79"></text>
<text class="nLabel" x="434.35" y="239.79">1</text>
<text class="belong" x="434.35" y="249.79">(1, 3)</text>
<circle onclick="fromCircle(12)" class="circle" cx="236.8985" cy="335.2170" r="28.4056" />
<text class="tLabel" x="236.90" y="315.22"></text>
<text class="nLabel" x="236.90" y="330.22">16</text>
<text class="belong" x="236.90" y="340.22">(3, 4)</text>
<circle onclick="fromCircle(44)" class="circle" cx="419.8619" cy="184.7873" r="7.5507" />
<text class="tLabel" x="419.86" y="164.79"></text>
<text class="nLabel" x="419.86" y="179.79">1</text>
<text class="belong" x="419.86" y="189.79">(3, 4, 6)</text>
<circle onclick="fromCircle(20)" class="circle" cx="234.8967" cy="403.4863" r="10.0429" />
<text class="tLabel" x="234.90" y="383.49"></text>
<text class="nLabel" x="234.90" y="398.49">2</text>
<text class="belong" x="234.90" y="408.49">(3, 5)</text>
<circle onclick="fromCircle(36)" class="circle" cx="315.3000" cy="116.3061" r="44.3483" />
<text class="tLabel" x="315.30" y="96.31"></text>
<text class="nLabel" x="315.30" y="111.31">39</text>
<text class="belong" x="315.30" y="121.31">(3, 6)</text>
<circle onclick="fromCircle(8)" class="circle" cx="352.2714" cy="386.0163" r="31.7584" />
<text class="tLabel" x="352.27" y="366.02"></text>
<text class="nLabel" x="352.27" y="381.02">20</text>
<text class="belong" x="352.27" y="391.02">(4)</text>
<circle onclick="fromCircle(16)" class="circle" cx="269.5462" cy="432.1138" r="10.0429" />
<text class="tLabel" x="269.55" y="412.11"></text>
<text class="nLabel" x="269.55" y="427.11">2</text>
<text class="belong" x="269.55" y="437.11">(5)</text>
<circle onclick="fromCircle(32)" class="circle" cx="428.1396" cy="108.9692" r="44.3483" />
<text class="tLabel" x="428.14" y="88.97"></text>
<text class="nLabel" x="428.14" y="103.97">39</text>
<text class="belong" x="428.14" y="113.97">(6)</text>
<circle onclick="fromCircle(47)" class="circle" cx="397.0527" cy="216.4107" r="7.5507" />
<text class="tLabel" x="397.05" y="196.41"></text>
<text class="nLabel" x="397.05" y="211.41">1</text>
<text class="belong" x="397.05" y="221.41">(1, 2, 3, 4, 6)</text>
<rect class="p0 borderLine" x="500.00" y="50.00" width="30.00" height="15.00" />
<rect class="q0" x="500.00" y="50.00" width="30.00" height="15.00" />
<text class="legend" x="540.00" y="65.00">iba</text>
<rect class="p1 borderLine" x="500.00" y="90.00" width="30.00" height="15.00" />
<rect class="q1" x="500.00" y="90.00" width="30.00" height="15.00" />
<text class="legend" x="540.00" y="105.00">ic</text>
<rect class="p2 borderLine" x="500.00" y="130.00" width="30.00" height="15.00" />
<rect class="q2" x="500.00" y="130.00" width="30.00" height="15.00" />
<text class="legend" x="540.00" y="145.00">ida</text>
<rect class="p3 borderLine" x="500.00" y="170.00" width="30.00" height="15.00" />
<rect class="q3" x="500.00" y="170.00" width="30.00" height="15.00" />
<text class="legend" x="540.00" y="185.00">iea</text>
<rect class="p4 borderLine" x="500.00" y="210.00" width="30.00" height="15.00" />
<rect class="q4" x="500.00" y="210.00" width="30.00" height="15.00" />
<text class="legend" x="540.00" y="225.00">iss</text>
<rect class="p5 borderLine" x="500.00" y="250.00" width="30.00" height="15.00" />
<rect class="q5" x="500.00" y="250.00" width="30.00" height="15.00" />
<text class="legend" x="540.00" y="265.00">nas</text>
</svg>
