<svg xmlns="http://www.w3.org/2000/svg" xmlns:xlink="http://www.w3.org/1999/xlink" width="700" height="500">
<defs>
<style type="text/css"><![CDATA[
  .borderLine {
	   stroke: none;
	   fill-opacity: 0.4;
  }
  .outLine {
	   stroke-width: 1;
	   fill: none;
  }
  .circle {
	   stroke: #888888;
	   stroke-width: 0.5;
	   fill: none;
    pointer-events: all;
  }
  .spcircle {
	   stroke: #FF2222;
	   stroke-width: 1;
	   fill: none;
    pointer-events: all;
  }
  .tLabel {
	   font-family: Arial;
    pointer-events: none;
	   font-size: 14px;
	   text-anchor: middle;
	   alignment-baseline: central;
  }
  .nLabel {
	   font-family: Arial;
    pointer-events: none;
	   font-size: 10px;
	   text-anchor: middle;
	   alignment-baseline: central;
  }
  .belong {
	   font-family: Arial;
    pointer-events: none;
	   font-size: 5px;
	   text-anchor: middle;
	   alignment-baseline: central;
  }
  .p0{
    stroke: none;
    fill: #e6194b;
  }
  .q0{
    fill: none;
    stroke: #e6194b;
  }
  .p1{
    stroke: none;
    fill: #3cb44b;
  }
  .q1{
    fill: none;
    stroke: #3cb44b;
  }
  .p2{
    stroke: none;
    fill: #ffe119;
  }
  .q2{
    fill: none;
    stroke: #ffe119;
  }
  .p3{
    stroke: none;
    fill: #0082c8;
  }
  .q3{
    fill: none;
    stroke: #0082c8;
  }
]]>
</style>
<symbol id="bl0">
<path d="M -1374.95 -3994.83 L -1385.19 -4030.50 L -1449.57 -4037.15 L -1465.77 -4007.53 L -1487.72 -3978.75 L -1502.62 -3946.02 L -1514.21 -3911.23 L -1527.13 -3908.92 L -1522.97 -3901.80 L -1502.30 -3885.97 L -1492.46 -3895.70 L -1458.42 -3913.73 L -1422.83 -3934.15 L -1407.16 -3957.03 L -1385.96 -3970.92 Z" />
</symbol>
<symbol id="bl1">
<path d="M -504.75 1437.39 L -497.23 1452.69 L -490.00 1468.21 L -484.44 1461.35 L -468.25 1450.48 L -461.03 1448.20 L -456.67 1446.56 L -434.59 1454.20 L -413.40 1464.67 L -414.50 1465.99 L -413.72 1469.07 L -397.45 1469.44 L -359.36 1471.98 L -337.44 1469.71 L -321.45 1460.21 L -304.85 1436.79 L -302.67 1408.53 L -315.93 1383.31 L -337.91 1369.18 L -365.70 1367.91 L -399.32 1393.39 L -428.63 1414.88 L -448.17 1432.16 L -462.83 1436.72 L -480.98 1431.23 L -495.74 1431.90 L -496.75 1436.53 Z" />
</symbol>
<symbol id="bl2">
<path d="M -277.42 -16.36 L -265.67 -10.57 L -268.97 -1.78 L -274.29 5.92 L -272.42 7.52 L -274.32 1.28 L -277.55 -19.06 L -276.93 -14.50 L -238.62 -34.42 L -244.73 -48.12 L -256.44 -45.14 L -259.04 -12.36 L -259.49 36.13 L -269.40 37.63 L -263.20 57.19 L -230.20 91.44 L -210.06 92.56 L -229.38 77.91 L -263.67 71.32 L -296.18 81.29 L -277.38 53.10 L -275.83 37.58 L -268.40 28.20 L -268.58 0.64 L -244.24 -19.90 L -242.96 -27.37 L -239.56 -44.12 L -252.54 -49.42 L -260.95 -40.26 L -270.48 -25.75 Z" />
</symbol>
<symbol id="bl3">
<path d="M -270.97 -34.07 L -277.81 -34.36 L -269.39 -33.51 L -267.82 -30.96 L -269.07 -26.71 L -273.22 -23.99 L -276.24 -16.49 L -278.52 -9.64 L -273.21 -7.47 L -262.60 -11.57 L -245.74 -20.10 L -244.13 -27.86 L -239.26 -41.07 L -242.82 -46.91 L -250.70 -48.07 L -252.30 -47.62 L -260.30 -41.11 L -265.32 -37.00 Z" />
</symbol>
</defs>
<!-- isDone: 0 -->
<rect width="700" height="500" style="fill:#fff;stroke-width:0" />
<use class="p0 borderLine" xlink:href="#bl0"/>
<use class="p1 borderLine" xlink:href="#bl1"/>
<use class="p2 borderLine" xlink:href="#bl2"/>
<use class="p3 borderLine" xlink:href="#bl3"/>
<use class="q0 outLine" xlink:href="#bl0"/>
<use class="q1 outLine" xlink:href="#bl1"/>
<use class="q2 outLine" xlink:href="#bl2"/>
<use class="q3 outLine" xlink:href="#bl3"/>
<rect class="p0 borderLine" x="500.00" y="50.00" width="30.00" height="15.00" />
<rect class="q0" x="500.00" y="50.00" width="30.00" height="15.00" />
<text class="legend" x="540.00" y="65.00">Up_in_POU3F2_KO_iNs</text>
<rect class="p1 borderLine" x="500.00" y="90.00" width="30.00" height="15.00" />
<rect class="q1" x="500.00" y="90.00" width="30.00" height="15.00" />
<text class="legend" x="540.00" y="105.00">Down_in_POU3F2_KO_iNs</text>
<rect class="p2 borderLine" x="500.00" y="130.00" width="30.00" height="15.00" />
<rect class="q2" x="500.00" y="130.00" width="30.00" height="15.00" />
<text class="legend" x="540.00" y="145.00">Up_in_VGF_KO_iNs</text>
<rect class="p3 borderLine" x="500.00" y="170.00" width="30.00" height="15.00" />
<rect class="q3" x="500.00" y="170.00" width="30.00" height="15.00" />
<text class="legend" x="540.00" y="185.00">Down_in_VGF_KO_iNs</text>
</svg>
