<svg xmlns="http://www.w3.org/2000/svg" xmlns:xlink="http://www.w3.org/1999/xlink" width="700" height="500">
<defs>
<style type="text/css"><![CDATA[
  .borderLine {
	   stroke: none;
	   fill-opacity: 0.4;
  }
  .outLine {
	   stroke-width: 1;
	   fill: none;
  }
  .circle {
	   stroke: #888888;
	   stroke-width: 0.5;
	   fill: none;
    pointer-events: all;
  }
  .spcircle {
	   stroke: #FF2222;
	   stroke-width: 1;
	   fill: none;
    pointer-events: all;
  }
  .tLabel {
	   font-family: Arial;
    pointer-events: none;
	   font-size: 14px;
	   text-anchor: middle;
	   alignment-baseline: central;
  }
  .nLabel {
	   font-family: Arial;
    pointer-events: none;
	   font-size: 10px;
	   text-anchor: middle;
	   alignment-baseline: central;
  }
  .belong {
	   font-family: Arial;
    pointer-events: none;
	   font-size: 5px;
	   text-anchor: middle;
	   alignment-baseline: central;
  }
  .p0{
    stroke: none;
    fill: #e6194b;
  }
  .q0{
    fill: none;
    stroke: #e6194b;
  }
  .p1{
    stroke: none;
    fill: #3cb44b;
  }
  .q1{
    fill: none;
    stroke: #3cb44b;
  }
  .p2{
    stroke: none;
    fill: #ffe119;
  }
  .q2{
    fill: none;
    stroke: #ffe119;
  }
  .p3{
    stroke: none;
    fill: #0082c8;
  }
  .q3{
    fill: none;
    stroke: #0082c8;
  }
  .p4{
    stroke: none;
    fill: #f58231;
  }
  .q4{
    fill: none;
    stroke: #f58231;
  }
  .p5{
    stroke: none;
    fill: #911eb4;
  }
  .q5{
    fill: none;
    stroke: #911eb4;
  }
]]>
</style>
<symbol id="bl0">
<path d="M 199.61 334.90 L 204.21 334.22 L 208.81 332.70 L 213.62 331.48 L 218.75 331.71 L 222.98 332.30 L 226.87 332.45 L 230.91 332.61 L 236.39 334.30 L 240.36 335.56 L 245.23 334.88 L 248.65 332.89 L 250.51 327.39 L 250.41 323.09 L 246.90 320.47 L 241.97 318.54 L 237.36 316.89 L 233.28 314.15 L 228.57 311.10 L 224.73 308.29 L 220.81 305.72 L 217.03 303.13 L 213.94 299.27 L 209.16 296.86 L 203.98 294.96 L 199.72 294.70 L 194.90 295.50 L 189.70 296.81 L 186.57 300.14 L 183.83 302.72 L 181.62 306.46 L 180.75 310.31 L 180.45 313.81 L 181.08 318.96 L 182.12 323.52 L 185.14 327.46 L 188.35 330.29 L 191.73 332.99 L 195.78 333.97 Z" />
</symbol>
<symbol id="bl1">
<path d="M 210.87 379.77 L 215.57 380.40 L 220.16 379.60 L 224.25 377.99 L 228.45 375.63 L 232.20 373.57 L 235.40 370.09 L 236.50 366.37 L 238.14 362.51 L 238.87 358.56 L 239.16 355.16 L 240.49 352.05 L 241.55 348.62 L 241.71 345.13 L 242.75 342.41 L 244.72 339.34 L 247.39 334.98 L 249.92 330.96 L 253.35 327.71 L 256.57 324.66 L 259.50 322.29 L 262.26 319.63 L 265.55 317.71 L 268.74 317.23 L 271.88 315.54 L 275.41 314.40 L 279.80 313.67 L 285.16 313.03 L 290.19 313.20 L 294.43 313.44 L 298.90 314.45 L 303.10 315.16 L 307.36 316.42 L 311.91 318.32 L 315.78 319.75 L 320.08 321.57 L 324.42 322.78 L 328.17 324.50 L 332.24 324.65 L 335.35 323.85 L 338.99 322.12 L 343.24 317.04 L 344.98 315.11 L 347.06 313.01 L 350.69 310.55 L 355.18 309.37 L 359.68 307.27 L 364.02 305.78 L 368.59 303.85 L 372.69 301.87 L 377.34 300.08 L 382.04 297.84 L 385.33 295.74 L 388.74 292.93 L 392.43 290.57 L 395.65 288.82 L 399.01 286.78 L 402.42 284.76 L 405.18 282.50 L 408.40 279.82 L 411.22 277.24 L 413.83 274.17 L 417.32 271.58 L 419.23 267.30 L 421.77 262.90 L 422.98 258.71 L 424.20 255.02 L 425.37 250.81 L 426.46 246.76 L 427.30 242.18 L 427.20 236.36 L 426.12 231.63 L 424.87 228.05 L 423.57 223.69 L 421.86 218.86 L 419.53 214.29 L 417.01 209.64 L 414.41 206.12 L 411.78 203.42 L 408.97 200.71 L 405.26 197.84 L 401.91 194.67 L 396.99 193.01 L 392.20 191.04 L 387.91 188.87 L 383.50 188.23 L 379.01 187.32 L 374.53 187.25 L 370.08 187.29 L 365.93 187.59 L 361.45 188.65 L 356.79 190.15 L 352.74 191.21 L 349.04 193.37 L 345.30 195.37 L 341.61 198.40 L 338.49 201.70 L 335.48 204.37 L 332.43 207.83 L 329.42 211.84 L 327.30 215.93 L 325.19 219.77 L 323.49 224.07 L 321.54 227.85 L 319.73 231.73 L 318.37 236.45 L 316.16 241.08 L 315.00 244.97 L 313.13 248.74 L 310.41 252.99 L 309.13 256.86 L 307.63 260.15 L 305.55 263.35 L 303.06 267.26 L 300.96 270.59 L 299.13 274.46 L 297.14 278.59 L 295.17 282.29 L 292.72 287.23 L 290.67 291.39 L 289.94 295.62 L 290.19 300.28 L 290.81 305.15 L 288.61 309.68 L 285.33 310.91 L 281.74 312.65 L 277.85 312.74 L 274.24 313.38 L 270.45 315.60 L 266.98 316.81 L 263.38 317.47 L 259.35 317.87 L 255.54 318.25 L 251.44 318.77 L 247.21 318.74 L 243.54 319.33 L 239.67 320.23 L 236.42 321.41 L 233.34 325.15 L 230.35 326.70 L 225.85 328.33 L 220.94 328.88 L 216.86 329.62 L 212.21 331.53 L 208.83 333.02 L 204.41 334.28 L 201.03 336.37 L 197.65 339.38 L 195.26 343.05 L 192.73 347.03 L 192.07 351.58 L 190.89 355.08 L 191.62 359.47 L 192.56 364.30 L 194.39 368.30 L 197.17 371.90 L 200.45 374.89 L 203.38 377.71 L 207.21 378.36 Z" />
</symbol>
<symbol id="bl2">
<path d="M 116.64 41.36 L 112.82 43.97 L 109.24 46.57 L 106.38 49.76 L 103.70 53.24 L 101.42 55.96 L 98.66 59.31 L 95.91 61.89 L 92.62 65.67 L 90.04 69.61 L 87.70 73.70 L 86.08 77.35 L 84.14 82.07 L 82.52 86.59 L 81.73 90.57 L 80.26 94.69 L 79.10 99.06 L 77.37 103.69 L 76.33 109.08 L 74.91 114.42 L 73.96 119.35 L 73.83 124.48 L 72.70 128.98 L 73.10 133.62 L 72.93 138.25 L 73.01 142.51 L 73.37 147.10 L 73.24 152.10 L 73.96 156.24 L 74.66 159.70 L 75.19 164.02 L 76.30 168.19 L 76.78 172.52 L 78.24 177.22 L 80.52 181.37 L 82.21 185.98 L 84.33 191.27 L 86.29 195.81 L 88.02 199.69 L 91.15 203.47 L 93.38 207.36 L 96.02 211.15 L 98.73 215.82 L 102.05 219.43 L 105.54 223.13 L 108.82 227.02 L 112.12 229.93 L 115.34 232.79 L 118.47 236.11 L 121.73 239.53 L 125.89 241.67 L 129.49 243.90 L 133.23 246.77 L 137.61 249.74 L 142.52 251.92 L 147.49 254.33 L 151.29 256.06 L 155.35 258.28 L 160.04 260.95 L 163.13 263.37 L 166.97 265.92 L 170.89 268.33 L 174.36 271.16 L 177.95 273.91 L 181.16 276.11 L 185.25 278.61 L 189.78 280.95 L 193.76 283.33 L 197.51 285.88 L 200.64 289.84 L 203.35 292.44 L 206.55 294.77 L 210.16 296.92 L 213.91 299.72 L 216.87 302.73 L 218.39 306.44 L 219.39 309.95 L 220.50 314.26 L 220.11 318.94 L 220.79 322.93 L 222.22 327.23 L 225.50 330.09 L 228.13 334.19 L 231.00 337.85 L 233.86 340.88 L 236.34 344.34 L 238.07 348.16 L 239.98 352.40 L 239.41 357.15 L 240.07 361.01 L 240.00 365.90 L 241.22 370.70 L 242.19 375.12 L 243.61 378.85 L 245.36 382.95 L 247.20 386.54 L 249.87 389.52 L 252.53 393.27 L 256.01 396.12 L 259.36 399.83 L 262.98 402.65 L 267.12 404.46 L 271.24 405.73 L 275.47 407.11 L 279.88 407.33 L 284.14 408.05 L 289.11 407.83 L 293.72 407.25 L 298.37 405.89 L 302.96 405.57 L 306.43 403.24 L 310.25 401.07 L 314.17 399.08 L 318.07 396.20 L 321.38 393.12 L 324.45 389.24 L 327.07 385.31 L 329.11 381.27 L 330.88 377.32 L 332.31 373.12 L 333.16 369.52 L 334.93 365.09 L 334.38 360.29 L 334.22 356.75 L 334.06 353.50 L 333.47 349.90 L 331.69 345.53 L 330.70 341.91 L 329.19 338.63 L 327.57 334.77 L 326.16 331.09 L 324.97 327.73 L 323.39 323.66 L 321.75 320.10 L 319.69 317.06 L 318.77 312.91 L 318.86 308.14 L 319.24 303.77 L 319.66 300.12 L 320.43 296.73 L 321.68 292.31 L 321.67 288.11 L 324.88 285.74 L 327.82 283.59 L 331.46 284.01 L 335.54 286.76 L 338.15 290.52 L 339.96 294.26 L 340.55 299.03 L 341.43 302.72 L 344.40 306.96 L 347.76 308.96 L 352.30 310.67 L 356.16 309.33 L 359.86 307.92 L 363.81 305.44 L 366.54 303.61 L 370.00 301.95 L 373.46 300.52 L 376.19 299.12 L 379.22 297.74 L 383.05 295.75 L 386.62 293.60 L 389.42 292.53 L 392.09 290.79 L 394.65 288.90 L 397.97 287.49 L 402.35 286.08 L 405.00 284.31 L 408.04 281.96 L 410.88 278.51 L 413.72 275.85 L 416.53 272.26 L 418.39 268.51 L 420.35 266.07 L 422.33 262.64 L 424.05 259.02 L 425.09 255.20 L 425.41 250.93 L 426.62 247.35 L 426.68 243.55 L 427.19 240.00 L 426.58 235.74 L 426.15 232.28 L 425.30 228.58 L 424.30 224.65 L 422.78 221.11 L 421.55 217.55 L 419.54 214.10 L 416.88 209.94 L 414.29 206.71 L 412.40 202.99 L 408.89 200.27 L 405.51 198.21 L 401.61 195.28 L 397.57 193.11 L 393.46 191.17 L 388.74 189.85 L 384.27 188.53 L 379.14 187.99 L 373.98 187.66 L 369.60 187.04 L 364.62 187.86 L 360.44 188.34 L 355.96 189.79 L 351.52 191.59 L 347.47 193.90 L 344.59 196.29 L 340.75 199.14 L 336.33 200.11 L 331.57 198.83 L 327.85 195.30 L 326.18 191.90 L 325.52 187.69 L 325.49 183.97 L 325.40 179.31 L 325.65 174.81 L 325.73 170.78 L 326.74 166.65 L 328.02 162.52 L 328.23 158.43 L 328.58 154.56 L 327.95 150.62 L 327.78 146.49 L 328.25 142.29 L 328.19 137.90 L 328.21 133.13 L 328.04 129.09 L 327.60 124.54 L 326.80 120.22 L 326.32 116.29 L 325.22 112.99 L 324.37 109.08 L 323.40 105.65 L 323.16 102.26 L 322.25 98.13 L 321.39 93.79 L 319.29 90.49 L 318.22 87.18 L 316.33 83.66 L 314.78 79.95 L 312.63 76.11 L 310.94 72.79 L 309.71 69.08 L 307.55 64.89 L 305.29 61.27 L 302.31 58.40 L 299.32 56.30 L 295.47 53.53 L 292.79 50.12 L 289.98 47.45 L 286.99 44.30 L 283.99 41.44 L 280.48 38.76 L 276.77 36.04 L 273.07 33.62 L 269.88 31.43 L 266.89 28.82 L 263.74 26.02 L 259.52 24.33 L 255.47 23.05 L 251.92 21.28 L 248.39 19.81 L 244.71 18.97 L 240.70 16.86 L 237.13 15.40 L 233.85 14.30 L 230.12 12.81 L 226.16 12.63 L 222.72 11.88 L 219.15 12.04 L 214.89 11.61 L 210.77 10.96 L 207.35 10.73 L 202.77 10.29 L 199.08 10.26 L 195.22 10.43 L 190.09 10.00 L 185.89 10.32 L 181.09 10.94 L 176.56 11.33 L 173.03 12.08 L 169.21 11.82 L 165.35 12.88 L 160.84 14.20 L 157.11 15.17 L 153.99 16.61 L 149.11 18.30 L 145.47 20.44 L 141.80 22.89 L 137.97 25.32 L 134.53 27.16 L 130.66 30.29 L 126.96 32.50 L 123.33 35.29 L 120.22 38.49 Z" />
</symbol>
<symbol id="bl3">
<path d="M 225.39 306.57 L 227.52 310.45 L 231.16 313.01 L 233.58 316.49 L 235.63 320.39 L 235.43 324.77 L 235.84 329.22 L 238.36 333.11 L 242.82 334.62 L 247.00 334.12 L 250.63 330.93 L 253.57 326.75 L 256.76 323.41 L 260.39 321.34 L 264.12 318.76 L 268.78 316.18 L 274.39 314.77 L 279.52 313.16 L 283.96 312.58 L 287.70 312.08 L 292.51 313.42 L 296.52 314.18 L 300.59 315.21 L 305.16 316.70 L 309.38 318.58 L 313.18 321.17 L 317.00 324.16 L 320.63 327.20 L 323.92 330.83 L 327.11 334.77 L 329.87 338.98 L 331.90 343.32 L 333.57 347.98 L 335.83 352.31 L 337.40 356.98 L 340.54 361.59 L 344.23 365.31 L 347.09 367.64 L 350.57 370.76 L 355.19 372.50 L 359.60 373.46 L 364.40 374.95 L 369.41 374.51 L 374.63 373.53 L 380.24 372.48 L 384.89 369.46 L 388.80 367.00 L 392.49 363.11 L 396.16 359.01 L 398.60 354.16 L 401.15 349.78 L 401.68 344.93 L 401.09 339.87 L 401.20 335.11 L 399.54 331.13 L 397.66 326.76 L 395.76 322.59 L 393.30 319.13 L 390.32 316.40 L 387.55 313.55 L 384.45 310.70 L 380.45 307.89 L 376.44 305.64 L 371.81 302.05 L 367.99 299.92 L 365.06 296.43 L 362.24 293.76 L 359.54 290.83 L 354.46 289.44 L 349.59 287.46 L 345.19 286.49 L 340.30 285.97 L 336.40 284.79 L 333.09 283.61 L 328.33 284.13 L 324.39 286.11 L 321.31 288.98 L 320.91 292.99 L 320.28 296.29 L 319.74 300.74 L 317.74 304.58 L 314.99 307.66 L 311.32 310.05 L 307.95 311.57 L 304.13 311.35 L 301.02 310.81 L 296.96 309.17 L 293.29 307.14 L 291.54 303.15 L 289.34 298.96 L 286.98 295.12 L 284.56 290.20 L 282.06 285.66 L 280.30 281.79 L 278.99 278.19 L 276.90 274.89 L 275.07 271.37 L 271.35 267.90 L 268.33 264.31 L 264.21 262.38 L 259.26 260.23 L 253.67 258.89 L 248.24 258.47 L 243.26 258.79 L 238.82 259.95 L 234.94 261.93 L 231.38 264.04 L 228.21 267.18 L 226.16 269.21 L 223.08 273.02 L 221.18 277.11 L 219.98 281.07 L 219.14 284.76 L 218.88 289.03 L 218.78 292.89 L 219.47 296.36 L 220.41 299.99 L 222.45 303.23 Z" />
</symbol>
<symbol id="bl4">
<path d="M 317.75 271.15 L 318.75 275.97 L 320.42 281.08 L 321.73 285.57 L 321.86 289.99 L 322.57 294.74 L 326.69 297.90 L 332.71 298.29 L 336.45 294.44 L 337.71 289.60 L 335.29 285.53 L 333.91 280.21 L 332.46 275.74 L 330.70 271.17 L 328.28 267.38 L 325.35 262.57 L 323.18 257.74 L 321.80 253.05 L 320.47 248.49 L 319.85 243.52 L 320.35 238.23 L 320.43 233.37 L 322.14 228.64 L 323.22 223.98 L 324.83 220.00 L 327.09 215.17 L 330.00 211.28 L 332.31 207.02 L 335.63 204.14 L 338.73 200.20 L 342.45 197.59 L 345.37 193.71 L 346.95 189.63 L 346.07 185.19 L 343.77 180.01 L 338.25 177.64 L 333.82 178.18 L 328.87 180.67 L 325.90 184.62 L 322.30 188.61 L 318.15 193.02 L 314.20 196.71 L 311.54 201.30 L 311.46 205.83 L 310.87 211.94 L 311.58 217.74 L 312.73 222.35 L 312.38 228.52 L 313.56 233.95 L 314.27 238.66 L 314.18 244.14 L 314.11 248.85 L 314.35 253.70 L 315.20 258.17 L 315.95 262.63 L 316.82 267.20 Z" />
</symbol>
<symbol id="bl5">
<path d="M 271.66 310.12 L 267.81 313.30 L 263.57 314.88 L 258.88 317.02 L 253.70 318.15 L 249.95 319.46 L 245.35 320.37 L 240.91 320.35 L 237.12 323.31 L 235.22 327.18 L 236.47 331.18 L 236.48 335.99 L 236.78 340.56 L 238.03 344.51 L 238.61 347.90 L 239.33 352.04 L 239.09 355.94 L 239.49 360.81 L 240.21 365.32 L 241.16 369.84 L 242.33 375.11 L 243.91 379.35 L 245.35 383.87 L 247.93 387.71 L 250.42 391.34 L 253.54 395.04 L 256.14 399.04 L 257.67 403.34 L 260.27 407.19 L 262.67 410.95 L 264.91 415.56 L 267.17 419.87 L 269.34 423.85 L 271.78 427.77 L 274.08 432.03 L 276.71 436.98 L 279.88 440.89 L 282.25 444.57 L 284.43 448.25 L 286.84 451.52 L 288.86 455.16 L 290.76 460.29 L 293.24 465.04 L 295.32 468.70 L 298.29 472.02 L 301.25 475.27 L 304.73 478.10 L 308.39 480.91 L 312.06 483.14 L 316.24 485.07 L 320.37 486.62 L 324.68 487.98 L 329.02 488.98 L 332.94 490.00 L 337.00 489.43 L 340.17 488.80 L 343.87 488.04 L 348.68 487.07 L 352.43 485.16 L 356.23 482.87 L 360.18 480.83 L 363.36 478.14 L 366.29 475.48 L 369.77 473.28 L 371.76 469.48 L 374.95 465.53 L 377.32 460.92 L 379.10 456.45 L 380.00 451.43 L 380.72 446.44 L 380.77 441.97 L 380.87 438.22 L 380.68 433.99 L 379.98 429.67 L 378.65 425.67 L 376.98 421.86 L 375.17 418.10 L 372.48 414.49 L 371.01 410.16 L 368.26 406.39 L 365.90 402.89 L 363.59 399.78 L 361.56 396.58 L 359.52 393.17 L 356.59 390.34 L 354.37 387.38 L 352.70 384.34 L 350.75 381.55 L 349.66 377.51 L 347.27 373.57 L 344.27 369.11 L 342.01 365.32 L 339.63 361.96 L 338.34 358.02 L 336.08 353.60 L 334.16 349.51 L 332.52 345.73 L 330.45 342.00 L 329.01 337.03 L 327.42 333.15 L 325.81 328.48 L 324.24 324.04 L 321.68 319.93 L 319.26 315.59 L 318.37 311.09 L 319.25 305.51 L 321.01 301.19 L 320.26 297.33 L 319.63 292.51 L 317.45 288.67 L 314.00 283.96 L 309.64 281.93 L 305.50 280.68 L 300.36 282.06 L 295.24 284.15 L 290.04 287.65 L 286.97 291.21 L 283.95 294.21 L 280.12 297.16 L 276.16 301.97 L 274.73 306.79 Z" />
</symbol>
</defs>
<!-- isDone: 0 -->
<rect width="700" height="500" style="fill:#fff;stroke-width:0" />
<use class="p0 borderLine" xlink:href="#bl0"/>
<use class="p1 borderLine" xlink:href="#bl1"/>
<use class="p2 borderLine" xlink:href="#bl2"/>
<use class="p3 borderLine" xlink:href="#bl3"/>
<use class="p4 borderLine" xlink:href="#bl4"/>
<use class="p5 borderLine" xlink:href="#bl5"/>
<use class="q0 outLine" xlink:href="#bl0"/>
<use class="q1 outLine" xlink:href="#bl1"/>
<use class="q2 outLine" xlink:href="#bl2"/>
<use class="q3 outLine" xlink:href="#bl3"/>
<use class="q4 outLine" xlink:href="#bl4"/>
<use class="q5 outLine" xlink:href="#bl5"/>
<circle onclick="fromCircle(1)" class="circle" cx="200.3891" cy="314.6118" r="16.5537" />
<text class="tLabel" x="200.39" y="294.61"></text>
<text class="nLabel" x="200.39" y="309.61">7</text>
<text class="belong" x="200.39" y="319.61">(1)</text>
<circle onclick="fromCircle(2)" class="circle" cx="215.2868" cy="355.7768" r="19.7854" />
<text class="tLabel" x="215.29" y="335.78"></text>
<text class="nLabel" x="215.29" y="350.78">10</text>
<text class="belong" x="215.29" y="360.78">(2)</text>
<circle onclick="fromCircle(6)" class="circle" cx="373.7971" cy="240.3051" r="43.7969" />
<text class="tLabel" x="373.80" y="220.31"></text>
<text class="nLabel" x="373.80" y="235.31">49</text>
<text class="belong" x="373.80" y="245.31">(2, 3)</text>
<circle onclick="fromCircle(14)" class="circle" cx="351.6720" cy="299.3472" r="8.8483" />
<text class="tLabel" x="351.67" y="279.35"></text>
<text class="nLabel" x="351.67" y="294.35">2</text>
<text class="belong" x="351.67" y="304.35">(2, 3, 4)</text>
<circle onclick="fromCircle(10)" class="circle" cx="331.5145" cy="311.4409" r="10.8369" />
<text class="tLabel" x="331.51" y="291.44"></text>
<text class="nLabel" x="331.51" y="306.44">3</text>
<text class="belong" x="331.51" y="316.44">(2, 4)</text>
<circle onclick="fromCircle(26)" class="circle" cx="329.6741" cy="291.3384" r="6.2567" />
<text class="tLabel" x="329.67" y="271.34"></text>
<text class="nLabel" x="329.67" y="286.34">1</text>
<text class="belong" x="329.67" y="296.34">(2, 4, 5)</text>
<circle onclick="fromCircle(38)" class="circle" cx="304.8192" cy="296.4917" r="12.5134" />
<text class="tLabel" x="304.82" y="276.49"></text>
<text class="nLabel" x="304.82" y="291.49">4</text>
<text class="belong" x="304.82" y="301.49">(2, 3, 6)</text>
<circle onclick="fromCircle(4)" class="circle" cx="200.2407" cy="138.0967" r="105.9951" />
<text class="tLabel" x="200.24" y="118.10"></text>
<text class="nLabel" x="200.24" y="133.10">287</text>
<text class="belong" x="200.24" y="143.10">(3)</text>
<circle onclick="fromCircle(5)" class="circle" cx="227.3300" cy="319.8654" r="6.2567" />
<text class="tLabel" x="227.33" y="299.87"></text>
<text class="nLabel" x="227.33" y="314.87">1</text>
<text class="belong" x="227.33" y="324.87">(1, 3)</text>
<circle onclick="fromCircle(12)" class="circle" cx="249.2391" cy="288.4830" r="25.0268" />
<text class="tLabel" x="249.24" y="268.48"></text>
<text class="nLabel" x="249.24" y="283.48">16</text>
<text class="belong" x="249.24" y="293.48">(3, 4)</text>
<circle onclick="fromCircle(44)" class="circle" cx="283.4543" cy="303.7318" r="6.2567" />
<text class="tLabel" x="283.45" y="283.73"></text>
<text class="nLabel" x="283.45" y="298.73">1</text>
<text class="belong" x="283.45" y="308.73">(3, 4, 6)</text>
<circle onclick="fromCircle(20)" class="circle" cx="321.8542" cy="204.4932" r="8.8483" />
<text class="tLabel" x="321.85" y="184.49"></text>
<text class="nLabel" x="321.85" y="199.49">2</text>
<text class="belong" x="321.85" y="209.49">(3, 5)</text>
<circle onclick="fromCircle(36)" class="circle" cx="287.1039" cy="360.3345" r="39.0730" />
<text class="tLabel" x="287.10" y="340.33"></text>
<text class="nLabel" x="287.10" y="355.33">39</text>
<text class="belong" x="287.10" y="365.33">(3, 6)</text>
<circle onclick="fromCircle(8)" class="circle" cx="367.3470" cy="340.9242" r="27.9808" />
<text class="tLabel" x="367.35" y="320.92"></text>
<text class="nLabel" x="367.35" y="335.92">20</text>
<text class="belong" x="367.35" y="345.92">(4)</text>
<circle onclick="fromCircle(16)" class="circle" cx="336.0427" cy="188.8340" r="8.8483" />
<text class="tLabel" x="336.04" y="168.83"></text>
<text class="nLabel" x="336.04" y="183.83">2</text>
<text class="belong" x="336.04" y="193.83">(5)</text>
<circle onclick="fromCircle(32)" class="circle" cx="333.9775" cy="441.5703" r="39.0730" />
<text class="tLabel" x="333.98" y="421.57"></text>
<text class="nLabel" x="333.98" y="436.57">39</text>
<text class="belong" x="333.98" y="446.57">(6)</text>
<circle onclick="fromCircle(47)" class="circle" cx="243.1298" cy="327.5037" r="6.2567" />
<text class="tLabel" x="243.13" y="307.50"></text>
<text class="nLabel" x="243.13" y="322.50">1</text>
<text class="belong" x="243.13" y="332.50">(1, 2, 3, 4, 6)</text>
<rect class="p0 borderLine" x="500.00" y="50.00" width="30.00" height="15.00" />
<rect class="q0" x="500.00" y="50.00" width="30.00" height="15.00" />
<text class="legend" x="540.00" y="65.00">IBA</text>
<rect class="p1 borderLine" x="500.00" y="90.00" width="30.00" height="15.00" />
<rect class="q1" x="500.00" y="90.00" width="30.00" height="15.00" />
<text class="legend" x="540.00" y="105.00">IC</text>
<rect class="p2 borderLine" x="500.00" y="130.00" width="30.00" height="15.00" />
<rect class="q2" x="500.00" y="130.00" width="30.00" height="15.00" />
<text class="legend" x="540.00" y="145.00">IDA</text>
<rect class="p3 borderLine" x="500.00" y="170.00" width="30.00" height="15.00" />
<rect class="q3" x="500.00" y="170.00" width="30.00" height="15.00" />
<text class="legend" x="540.00" y="185.00">IEA</text>
<rect class="p4 borderLine" x="500.00" y="210.00" width="30.00" height="15.00" />
<rect class="q4" x="500.00" y="210.00" width="30.00" height="15.00" />
<text class="legend" x="540.00" y="225.00">ISS</text>
<rect class="p5 borderLine" x="500.00" y="250.00" width="30.00" height="15.00" />
<rect class="q5" x="500.00" y="250.00" width="30.00" height="15.00" />
<text class="legend" x="540.00" y="265.00">NAS</text>
</svg>
