<svg xmlns="http://www.w3.org/2000/svg" xmlns:xlink="http://www.w3.org/1999/xlink" width="700" height="500">
<defs>
<style type="text/css"><![CDATA[
  .borderLine {
	   stroke: none;
	   fill-opacity: 0.4;
  }
  .outLine {
	   stroke-width: 1;
	   fill: none;
  }
  .circle {
	   stroke: #888888;
	   stroke-width: 0.5;
	   fill: none;
    pointer-events: all;
  }
  .spcircle {
	   stroke: #FF2222;
	   stroke-width: 1;
	   fill: none;
    pointer-events: all;
  }
  .tLabel {
	   font-family: Arial;
    pointer-events: none;
	   font-size: 14px;
	   text-anchor: middle;
	   alignment-baseline: central;
  }
  .nLabel {
	   font-family: Arial;
    pointer-events: none;
	   font-size: 10px;
	   text-anchor: middle;
	   alignment-baseline: central;
  }
  .belong {
	   font-family: Arial;
    pointer-events: none;
	   font-size: 5px;
	   text-anchor: middle;
	   alignment-baseline: central;
  }
  .p0{
    stroke: none;
    fill: #e6194b;
  }
  .q0{
    fill: none;
    stroke: #e6194b;
  }
  .p1{
    stroke: none;
    fill: #3cb44b;
  }
  .q1{
    fill: none;
    stroke: #3cb44b;
  }
  .p2{
    stroke: none;
    fill: #ffe119;
  }
  .q2{
    fill: none;
    stroke: #ffe119;
  }
  .p3{
    stroke: none;
    fill: #0082c8;
  }
  .q3{
    fill: none;
    stroke: #0082c8;
  }
]]>
</style>
<symbol id="bl0">
<path d="M 293.66 360.17 L 295.48 364.90 L 297.54 369.74 L 300.40 374.59 L 304.27 379.25 L 309.38 383.58 L 315.42 386.95 L 322.32 389.31 L 329.76 390.30 L 337.50 389.29 L 345.35 386.45 L 352.58 381.86 L 358.64 375.47 L 363.07 367.60 L 365.57 358.85 L 365.88 350.03 L 363.58 341.58 L 359.37 333.81 L 353.50 327.19 L 346.32 322.27 L 338.35 319.32 L 330.25 317.46 L 322.25 315.70 L 315.25 311.98 L 314.63 305.09 L 318.56 298.33 L 321.45 291.89 L 319.53 286.54 L 314.69 284.23 L 310.40 285.64 L 306.92 289.49 L 303.65 293.24 L 301.08 297.31 L 299.13 301.56 L 297.73 305.96 L 296.65 310.40 L 295.83 314.87 Z" />
</symbol>
<symbol id="bl1">
<path d="M 302.28 272.00 L 298.97 274.99 L 295.76 278.18 L 292.65 281.55 L 289.64 285.09 L 288.73 289.25 L 291.16 292.21 L 297.60 291.90 L 303.32 290.72 L 308.34 287.85 L 315.93 282.14 L 322.30 291.51 L 327.96 302.02 L 336.35 310.32 L 346.72 316.11 L 357.93 318.87 L 369.47 317.67 L 380.69 313.21 L 390.16 306.01 L 396.83 296.99 L 400.78 287.28 L 402.25 277.57 L 400.95 268.19 L 397.78 259.50 L 393.44 252.45 L 388.34 246.89 L 382.91 242.74 L 377.42 239.79 L 372.09 237.85 L 366.92 236.68 L 361.94 236.20 L 357.16 236.39 L 352.59 237.09 L 348.24 238.23 L 344.11 239.80 L 340.22 241.78 L 336.54 244.14 Z" />
</symbol>
<symbol id="bl2">
<path d="M 254.03 291.49 L 251.95 292.17 L 250.24 293.07 L 248.88 294.09 L 247.87 295.25 L 247.20 296.54 L 246.88 297.96 L 246.90 299.51 L 247.27 301.19 L 248.00 302.97 L 249.19 304.82 L 250.99 306.38 L 253.26 307.37 L 255.90 307.62 L 258.61 306.94 L 261.18 305.55 L 264.06 304.28 L 267.22 303.14 L 270.65 302.12 L 274.35 301.21 L 278.29 300.40 L 282.47 299.67 L 286.87 299.02 L 291.50 298.44 L 296.35 297.93 L 301.48 297.42 L 306.92 297.49 L 312.79 298.41 L 318.63 297.11 L 321.45 291.88 L 319.63 286.82 L 315.02 283.55 L 310.41 281.24 L 306.16 279.87 L 302.94 280.80 L 301.08 283.93 L 300.05 287.67 L 298.59 291.42 L 295.41 293.19 L 291.37 292.74 L 287.63 292.16 L 284.19 291.75 L 281.09 291.49 L 278.32 291.36 Z" />
</symbol>
<symbol id="bl3">
<path d="M 297.53 283.65 L 296.00 282.87 L 294.49 282.56 L 293.02 282.77 L 291.66 283.33 L 290.52 284.26 L 289.73 285.46 L 289.22 286.83 L 289.10 288.31 L 289.50 289.82 L 290.20 291.32 L 290.96 292.88 L 291.80 294.46 L 292.73 296.05 L 293.76 297.63 L 294.90 299.18 L 296.17 300.69 L 297.57 302.15 L 299.11 303.55 L 300.79 304.90 L 302.64 306.14 L 304.65 307.32 L 306.81 308.45 L 309.09 309.55 L 311.48 310.62 L 313.93 311.69 L 316.39 312.77 L 318.80 313.89 L 321.26 314.35 L 323.53 313.73 L 325.40 312.34 L 326.59 310.56 L 327.13 308.68 L 326.94 306.79 L 326.20 305.05 L 324.58 303.30 L 322.53 301.96 L 320.42 300.73 L 318.27 299.57 L 316.15 298.53 L 313.95 298.06 L 312.23 297.70 L 310.36 296.83 Z" />
</symbol>
</defs>
<!-- isDone: 0 -->
<rect width="700" height="500" style="fill:#fff;stroke-width:0" />
<use class="p0 borderLine" xlink:href="#bl0"/>
<use class="p1 borderLine" xlink:href="#bl1"/>
<use class="p2 borderLine" xlink:href="#bl2"/>
<use class="p3 borderLine" xlink:href="#bl3"/>
<use class="q0 outLine" xlink:href="#bl0"/>
<use class="q1 outLine" xlink:href="#bl1"/>
<use class="q2 outLine" xlink:href="#bl2"/>
<use class="q3 outLine" xlink:href="#bl3"/>
<circle onclick="fromCircle(1)" class="spcircle" cx="329.8418" cy="354.1380" r="35.8424" />
<text class="tLabel" x="329.84" y="334.14"></text>
<text class="nLabel" x="329.84" y="349.14">1378</text>
<text class="belong" x="329.84" y="359.14">(1)</text>
<circle onclick="fromCircle(2)" class="circle" cx="360.7848" cy="277.3103" r="41.0328" />
<text class="tLabel" x="360.78" y="257.31"></text>
<text class="nLabel" x="360.78" y="272.31">1806</text>
<text class="belong" x="360.78" y="282.31">(2)</text>
<circle onclick="fromCircle(6)" class="circle" cx="305.7575" cy="284.4336" r="4.2787" />
<text class="tLabel" x="305.76" y="264.43"></text>
<text class="nLabel" x="305.76" y="279.43">8</text>
<text class="belong" x="305.76" y="289.43">(2, 3)</text>
<circle onclick="fromCircle(10)" class="circle" cx="294.3550" cy="287.8374" r="5.1996" />
<text class="tLabel" x="294.35" y="267.84"></text>
<text class="nLabel" x="294.35" y="282.84">29</text>
<text class="belong" x="294.35" y="292.84">(2, 4)</text>
<circle onclick="fromCircle(4)" class="spcircle" cx="255.3250" cy="299.5594" r="8.0783" />
<text class="tLabel" x="255.33" y="279.56"></text>
<text class="nLabel" x="255.33" y="294.56">70</text>
<text class="belong" x="255.33" y="304.56">(3)</text>
<circle onclick="fromCircle(5)" class="circle" cx="314.3091" cy="291.3653" r="6.5486" />
<text class="tLabel" x="314.31" y="271.37"></text>
<text class="nLabel" x="314.31" y="286.37">46</text>
<text class="belong" x="314.31" y="296.37">(1, 3)</text>
<circle onclick="fromCircle(8)" class="circle" cx="321.0055" cy="308.1655" r="6.0298" />
<text class="tLabel" x="321.01" y="288.17"></text>
<text class="nLabel" x="321.01" y="303.17">39</text>
<text class="belong" x="321.01" y="313.17">(4)</text>
<circle onclick="fromCircle(9)" class="circle" cx="303.7554" cy="301.7331" r="4.2787" />
<text class="tLabel" x="303.76" y="281.73"></text>
<text class="nLabel" x="303.76" y="296.73">6</text>
<text class="belong" x="303.76" y="306.73">(1, 4)</text>
<rect class="p0 borderLine" x="500.00" y="50.00" width="30.00" height="15.00" />
<rect class="q0" x="500.00" y="50.00" width="30.00" height="15.00" />
<text class="legend" x="540.00" y="65.00">Up_in_POU3F2_KO_iNs</text>
<rect class="p1 borderLine" x="500.00" y="90.00" width="30.00" height="15.00" />
<rect class="q1" x="500.00" y="90.00" width="30.00" height="15.00" />
<text class="legend" x="540.00" y="105.00">Down_in_POU3F2_KO_iNs</text>
<rect class="p2 borderLine" x="500.00" y="130.00" width="30.00" height="15.00" />
<rect class="q2" x="500.00" y="130.00" width="30.00" height="15.00" />
<text class="legend" x="540.00" y="145.00">Up_in_VGF_KO_iNs</text>
<rect class="p3 borderLine" x="500.00" y="170.00" width="30.00" height="15.00" />
<rect class="q3" x="500.00" y="170.00" width="30.00" height="15.00" />
<text class="legend" x="540.00" y="185.00">Down_in_VGF_KO_iNs</text>
</svg>
