<svg xmlns="http://www.w3.org/2000/svg" xmlns:xlink="http://www.w3.org/1999/xlink" viewBox="0 0 700 500">
<defs>
<style type="text/css"><![CDATA[
  .borderLine {
	   stroke: none;
	   fill-opacity: 0.4;
  }
  .outLine {
	   stroke-width: 1;
	   fill: none;
  }
  .circle {
	   stroke: #888888;
	   stroke-width: 0.5;
	   fill: none;
    pointer-events: all;
  }
  .spcircle {
	   stroke: #FF2222;
	   stroke-width: 1;
	   fill: none;
    pointer-events: all;
  }
  .tLabel {
	   font-family: Arial;
    pointer-events: none;
	   font-size: 14px;
	   text-anchor: middle;
	   alignment-baseline: central;
  }
  .nLabel {
	   font-family: Arial;
    pointer-events: none;
	   font-size: 10px;
	   text-anchor: middle;
	   alignment-baseline: central;
  }
  .belong {
	   font-family: Arial;
    pointer-events: none;
	   font-size: 5px;
	   text-anchor: middle;
	   alignment-baseline: central;
  }
  .p0{
    stroke: none;
    fill: #e6194b;
  }
  .q0{
    fill: none;
    stroke: #e6194b;
  }
  .p1{
    stroke: none;
    fill: #3cb44b;
  }
  .q1{
    fill: none;
    stroke: #3cb44b;
  }
  .p2{
    stroke: none;
    fill: #ffe119;
  }
  .q2{
    fill: none;
    stroke: #ffe119;
  }
  .p3{
    stroke: none;
    fill: #0082c8;
  }
  .q3{
    fill: none;
    stroke: #0082c8;
  }
  .p4{
    stroke: none;
    fill: #f58231;
  }
  .q4{
    fill: none;
    stroke: #f58231;
  }
  .p5{
    stroke: none;
    fill: #911eb4;
  }
  .q5{
    fill: none;
    stroke: #911eb4;
  }
  .p6{
    stroke: none;
    fill: #46f0f0;
  }
  .q6{
    fill: none;
    stroke: #46f0f0;
  }
]]>
</style>
<symbol id="bl0">
<path d="M 95.57 267.91 L 95.86 258.00 L 93.58 248.32 L 88.85 239.51 L 82.00 232.23 L 73.46 226.97 L 63.86 224.11 L 53.90 223.83 L 44.21 226.14 L 35.43 230.89 L 28.19 237.73 L 22.96 246.23 L 20.11 255.78 L 19.82 265.69 L 22.10 275.38 L 26.83 284.18 L 33.68 291.46 L 42.22 296.72 L 51.82 299.59 L 61.77 299.86 L 71.47 297.55 L 80.25 292.80 L 87.49 285.96 L 92.72 277.46 Z" />
</symbol>
<symbol id="bl1">
<path d="M 470.13 237.78 L 460.24 232.89 L 449.41 232.26 L 439.38 235.74 L 431.57 242.56 L 426.84 251.77 L 425.91 262.60 L 429.55 273.48 L 437.66 282.17 L 447.96 286.50 L 458.52 286.50 L 467.90 282.79 L 475.24 276.03 L 479.73 266.95 L 480.59 256.52 L 477.32 246.19 Z" />
</symbol>
<symbol id="bl2">
<path d="M 440.14 319.67 L 444.02 308.76 L 442.90 296.46 L 436.25 285.51 L 425.42 278.69 L 413.15 277.37 L 402.16 281.08 L 394.11 288.28 L 389.56 297.40 L 388.57 307.18 L 390.97 316.59 L 396.47 324.61 L 404.41 330.27 L 413.84 332.85 L 423.67 332.00 L 432.84 327.59 Z" />
</symbol>
<symbol id="bl3">
<path d="M 372.27 218.70 L 377.74 229.21 L 385.66 237.30 L 393.76 244.67 L 401.82 251.86 L 409.89 258.87 L 417.92 265.79 L 425.84 272.75 L 433.71 279.94 L 443.06 285.87 L 453.84 287.76 L 463.95 285.66 L 472.31 280.38 L 478.36 272.47 L 481.33 262.71 L 480.58 252.30 L 476.15 242.65 L 471.43 232.84 L 466.13 222.96 L 460.31 213.07 L 454.19 203.22 L 448.02 193.45 L 441.99 183.78 L 434.39 175.51 L 425.07 169.86 L 414.86 167.02 L 404.52 166.97 L 394.57 169.61 L 385.39 174.92 L 377.55 183.05 L 372.07 193.91 L 370.17 206.43 Z" />
</symbol>
<symbol id="bl4">
<path d="M 472.21 280.97 L 478.40 273.21 L 481.65 263.24 L 480.88 251.97 L 475.44 241.39 L 465.97 233.84 L 454.41 230.88 L 443.17 232.68 L 434.07 238.22 L 427.82 246.31 L 424.75 256.53 L 425.97 268.28 L 432.33 279.07 L 442.43 286.03 L 453.60 288.14 L 463.80 286.13 Z" />
</symbol>
<symbol id="bl5">
<path d="M 474.81 278.92 L 480.25 270.13 L 482.27 259.37 L 479.83 247.84 L 472.64 237.91 L 462.01 231.83 L 450.09 230.65 L 438.83 234.31 L 429.70 242.52 L 424.61 254.77 L 425.73 268.75 L 433.23 280.52 L 444.48 287.17 L 456.32 288.36 L 466.69 285.22 Z" />
</symbol>
<symbol id="bl6">
<path d="M 368.02 202.12 L 362.70 215.43 L 357.09 228.28 L 351.35 240.73 L 345.56 252.83 L 342.64 266.07 L 345.85 278.97 L 354.16 288.94 L 363.48 297.08 L 372.46 305.13 L 381.16 312.98 L 389.65 320.57 L 397.94 327.98 L 407.76 333.19 L 418.59 334.40 L 428.88 331.69 L 437.29 325.74 L 443.21 317.86 L 448.99 310.32 L 454.68 303.07 L 460.37 296.00 L 466.21 288.97 L 472.43 281.78 L 478.86 273.95 L 482.31 263.93 L 481.94 253.09 L 477.57 242.98 L 472.19 233.33 L 466.58 223.57 L 460.71 213.78 L 454.81 203.97 L 449.04 194.05 L 443.34 183.75 L 434.84 174.42 L 422.95 167.81 L 408.79 165.53 L 394.37 168.46 L 381.84 176.45 L 373.04 188.44 Z" />
</symbol>
</defs>
<!-- signature: 3160072746;7;Pseudo;Epidernidis;Coryne;Aureus;Neumo;Pyogenes;Microbiota;0;2;0;0;0;0;0;0;0;0;0;0;0;0;0;0;0;0;0;0;0;0;0;0;0;0;0;0;0;0;0;0;0;0;0;0;0;0;0;0;0;0;0;0;0;0;0;0;0;0;0;0;0;0;0;0;0;0;0;0;0;0;0;0;1;0;0;0;1;0;0;0;2;0;0;0;0;0;0;0;0;0;0;0;0;0;0;0;0;0;0;0;0;0;0;0;0;0;0;0;0;0;0;0;0;0;0;0;0;0;0;0;0;0;0;0;0;0;0;0;0;0;1;0;0;0;0;0; -->
<desc>STEP: 7;EVALUATE: 107.349;LASTEVALUATE: 107.368;DT: 0.01;SIMTIME: 3.91004;COUNTER: 1;CANFINISH: 1;CWI: 0</desc>
<rect width="700" height="500" style="fill:#fff;stroke-width:0" />
<use class="p0 borderLine" xlink:href="#bl0"/>
<use class="p1 borderLine" xlink:href="#bl1"/>
<use class="p2 borderLine" xlink:href="#bl2"/>
<use class="p3 borderLine" xlink:href="#bl3"/>
<use class="p4 borderLine" xlink:href="#bl4"/>
<use class="p5 borderLine" xlink:href="#bl5"/>
<use class="p6 borderLine" xlink:href="#bl6"/>
<use class="q0 outLine" xlink:href="#bl0"/>
<use class="q1 outLine" xlink:href="#bl1"/>
<use class="q2 outLine" xlink:href="#bl2"/>
<use class="q3 outLine" xlink:href="#bl3"/>
<use class="q4 outLine" xlink:href="#bl4"/>
<use class="q5 outLine" xlink:href="#bl5"/>
<use class="q6 outLine" xlink:href="#bl6"/>
<circle onclick="fromCircle(1)" class="circle" cx="57.8379" cy="261.8458" r="37.8379" />
<text class="tLabel" x="57.84" y="241.85"></text>
<text class="nLabel" x="57.84" y="256.85">2</text>
<text class="belong" x="57.84" y="266.85">(1)</text>
<circle onclick="fromCircle(122)" class="circle" cx="453.2445" cy="259.5001" r="26.7554" />
<text class="tLabel" x="453.24" y="239.50"></text>
<text class="nLabel" x="453.24" y="254.50">1</text>
<text class="belong" x="453.24" y="264.50">(2, 4, 5, 6, 7)</text>
<circle onclick="fromCircle(68)" class="circle" cx="416.3760" cy="305.0762" r="26.7554" />
<text class="tLabel" x="416.38" y="285.08"></text>
<text class="nLabel" x="416.38" y="300.08">1</text>
<text class="belong" x="416.38" y="310.08">(3, 7)</text>
<circle onclick="fromCircle(72)" class="circle" cx="409.5179" cy="206.0062" r="37.8379" />
<text class="tLabel" x="409.52" y="186.01"></text>
<text class="nLabel" x="409.52" y="201.01">2</text>
<text class="belong" x="409.52" y="211.01">(4, 7)</text>
<circle onclick="fromCircle(64)" class="circle" cx="372.0446" cy="265.6048" r="26.7554" />
<text class="tLabel" x="372.04" y="245.60"></text>
<text class="nLabel" x="372.04" y="260.60">1</text>
<text class="belong" x="372.04" y="270.60">(7)</text>
<rect class="p0 borderLine" x="500.00" y="50.00" width="30.00" height="15.00" />
<rect class="q0" x="500.00" y="50.00" width="30.00" height="15.00" />
<text class="legend" x="540.00" y="65.00">Pseudo</text>
<rect class="p1 borderLine" x="500.00" y="90.00" width="30.00" height="15.00" />
<rect class="q1" x="500.00" y="90.00" width="30.00" height="15.00" />
<text class="legend" x="540.00" y="105.00">Epidernidis</text>
<rect class="p2 borderLine" x="500.00" y="130.00" width="30.00" height="15.00" />
<rect class="q2" x="500.00" y="130.00" width="30.00" height="15.00" />
<text class="legend" x="540.00" y="145.00">Coryne</text>
<rect class="p3 borderLine" x="500.00" y="170.00" width="30.00" height="15.00" />
<rect class="q3" x="500.00" y="170.00" width="30.00" height="15.00" />
<text class="legend" x="540.00" y="185.00">Aureus</text>
<rect class="p4 borderLine" x="500.00" y="210.00" width="30.00" height="15.00" />
<rect class="q4" x="500.00" y="210.00" width="30.00" height="15.00" />
<text class="legend" x="540.00" y="225.00">Neumo</text>
<rect class="p5 borderLine" x="500.00" y="250.00" width="30.00" height="15.00" />
<rect class="q5" x="500.00" y="250.00" width="30.00" height="15.00" />
<text class="legend" x="540.00" y="265.00">Pyogenes</text>
<rect class="p6 borderLine" x="500.00" y="290.00" width="30.00" height="15.00" />
<rect class="q6" x="500.00" y="290.00" width="30.00" height="15.00" />
<text class="legend" x="540.00" y="305.00">Microbiota</text>
</svg>
