<svg xmlns="http://www.w3.org/2000/svg" xmlns:xlink="http://www.w3.org/1999/xlink" width="700" height="500">
<defs>
<style type="text/css"><![CDATA[
  .borderLine {
	   stroke: none;
	   fill-opacity: 0.4;
  }
  .outLine {
	   stroke-width: 1;
	   fill: none;
  }
  .circle {
	   stroke: #888888;
	   stroke-width: 0.5;
	   fill: none;
    pointer-events: all;
  }
  .spcircle {
	   stroke: #FF2222;
	   stroke-width: 1;
	   fill: none;
    pointer-events: all;
  }
  .tLabel {
	   font-family: Arial;
    pointer-events: none;
	   font-size: 14px;
	   text-anchor: middle;
	   alignment-baseline: central;
  }
  .nLabel {
	   font-family: Arial;
    pointer-events: none;
	   font-size: 10px;
	   text-anchor: middle;
	   alignment-baseline: central;
  }
  .belong {
	   font-family: Arial;
    pointer-events: none;
	   font-size: 5px;
	   text-anchor: middle;
	   alignment-baseline: central;
  }
  .p0{
    stroke: none;
    fill: #e6194b;
  }
  .q0{
    fill: none;
    stroke: #e6194b;
  }
  .p1{
    stroke: none;
    fill: #3cb44b;
  }
  .q1{
    fill: none;
    stroke: #3cb44b;
  }
  .p2{
    stroke: none;
    fill: #ffe119;
  }
  .q2{
    fill: none;
    stroke: #ffe119;
  }
  .p3{
    stroke: none;
    fill: #0082c8;
  }
  .q3{
    fill: none;
    stroke: #0082c8;
  }
]]>
</style>
<symbol id="bl0">
<path d="M 324.40 353.45 L 325.01 361.10 L 325.37 368.82 L 325.42 376.60 L 325.38 384.39 L 325.46 392.14 L 325.40 399.82 L 325.15 407.51 L 325.00 415.22 L 326.98 422.63 L 330.02 429.68 L 335.06 435.55 L 340.96 440.35 L 347.46 444.17 L 354.97 445.71 L 362.58 445.98 L 370.19 445.10 L 377.05 441.50 L 383.39 437.15 L 388.24 431.35 L 392.39 425.02 L 396.40 418.53 L 400.30 411.97 L 403.98 405.37 L 407.98 398.98 L 412.17 392.77 L 416.40 386.72 L 420.68 380.89 L 425.00 375.25 L 427.84 368.68 L 428.63 361.73 L 429.86 354.76 L 431.11 347.65 L 432.36 340.45 L 433.67 333.23 L 435.07 326.02 L 436.57 318.83 L 438.09 311.64 L 439.41 304.41 L 440.75 297.20 L 442.45 290.03 L 443.16 282.64 L 443.13 275.27 L 442.14 267.99 L 440.04 260.85 L 436.98 253.96 L 432.65 247.77 L 427.56 242.15 L 421.57 237.40 L 415.06 233.20 L 407.77 230.28 L 399.89 229.10 L 391.86 228.80 L 383.85 229.89 L 375.99 231.90 L 368.46 235.24 L 361.81 240.21 L 355.73 245.92 L 350.66 252.60 L 346.95 260.14 L 344.53 268.21 L 342.81 276.34 L 340.62 284.38 L 338.53 292.40 L 336.36 300.35 L 334.17 308.22 L 331.91 315.98 L 329.50 323.57 L 326.78 330.94 L 323.37 338.04 L 323.45 345.90 Z" />
</symbol>
<symbol id="bl1">
<path d="M 56.57 310.97 L 59.99 318.06 L 64.39 324.65 L 70.06 330.29 L 76.54 335.05 L 83.44 338.89 L 89.94 343.42 L 96.47 347.98 L 102.99 352.63 L 109.49 357.41 L 115.97 362.32 L 122.37 367.42 L 128.69 372.77 L 134.79 378.45 L 140.59 384.52 L 147.76 389.23 L 156.07 391.72 L 164.45 393.06 L 172.73 391.64 L 180.39 388.34 L 187.15 383.69 L 193.15 378.02 L 196.83 370.61 L 199.14 362.84 L 201.56 355.11 L 203.83 347.31 L 206.02 339.53 L 208.17 331.83 L 210.32 324.26 L 212.52 316.90 L 214.88 309.79 L 216.35 302.41 L 218.12 295.02 L 220.17 287.56 L 222.33 280.03 L 224.58 272.49 L 226.92 264.96 L 229.51 257.52 L 232.29 250.11 L 234.29 242.39 L 234.98 234.40 L 233.77 226.56 L 231.68 219.05 L 228.46 212.01 L 224.13 205.74 L 218.72 200.56 L 212.84 196.02 L 206.23 192.78 L 199.24 190.78 L 192.12 189.71 L 184.95 189.55 L 177.93 190.93 L 171.12 192.96 L 164.57 195.79 L 158.18 199.07 L 151.81 202.46 L 145.46 205.95 L 139.16 209.56 L 132.92 213.31 L 126.75 217.19 L 120.66 221.21 L 114.64 225.37 L 108.71 229.64 L 102.83 233.99 L 97.00 238.40 L 91.22 242.88 L 85.43 247.36 L 79.31 251.39 L 73.04 255.41 L 67.47 260.50 L 62.25 266.11 L 58.61 272.87 L 56.03 280.12 L 54.48 287.68 L 54.13 295.48 L 54.99 303.27 Z" />
</symbol>
<symbol id="bl2">
<path d="M 264.42 240.43 L 254.87 242.94 L 246.04 247.29 L 237.83 252.51 L 231.33 259.47 L 225.73 267.32 L 218.88 273.86 L 211.00 278.76 L 202.64 282.11 L 193.95 283.66 L 185.75 287.16 L 179.62 293.31 L 173.19 299.11 L 166.55 304.85 L 159.87 310.71 L 153.11 316.58 L 146.20 322.39 L 139.19 328.15 L 132.84 335.16 L 128.26 343.48 L 125.79 352.68 L 126.04 362.16 L 128.06 371.39 L 132.54 379.71 L 138.00 387.14 L 143.17 394.60 L 148.07 402.16 L 152.70 409.84 L 157.19 417.58 L 161.65 425.31 L 166.10 432.99 L 170.61 440.59 L 175.17 448.10 L 179.69 455.56 L 184.20 462.99 L 188.77 470.30 L 193.99 477.10 L 199.74 483.43 L 206.67 488.31 L 213.81 492.68 L 221.29 496.39 L 229.20 499.04 L 237.29 501.07 L 245.63 501.59 L 253.93 501.04 L 262.13 499.89 L 270.17 497.84 L 278.03 495.07 L 285.81 491.95 L 293.55 488.66 L 301.29 485.30 L 309.00 481.77 L 316.66 478.05 L 324.30 474.25 L 331.93 470.40 L 339.57 466.53 L 347.22 462.64 L 354.90 458.79 L 362.73 455.13 L 370.57 451.28 L 378.22 447.15 L 385.48 442.25 L 392.15 436.48 L 396.46 428.80 L 399.64 420.46 L 400.29 411.53 L 399.46 402.73 L 396.85 394.30 L 392.37 386.82 L 386.92 380.17 L 383.09 372.39 L 380.30 364.26 L 377.28 356.23 L 373.94 348.39 L 370.56 340.66 L 367.30 332.87 L 362.76 325.51 L 356.32 319.68 L 350.37 313.45 L 345.32 306.21 L 340.89 298.40 L 336.54 290.38 L 332.30 282.23 L 327.79 274.16 L 323.16 266.03 L 317.51 258.40 L 310.60 251.71 L 302.42 246.54 L 293.53 242.55 L 283.97 240.23 L 274.19 239.27 Z" />
</symbol>
<symbol id="bl3">
<path d="M 175.97 312.30 L 181.31 320.26 L 190.08 325.70 L 198.93 329.09 L 207.55 332.27 L 216.01 335.73 L 224.52 339.43 L 233.09 343.17 L 241.74 346.99 L 250.46 350.83 L 259.46 353.96 L 268.86 356.16 L 278.34 358.12 L 287.87 360.01 L 297.45 361.83 L 307.04 363.72 L 316.55 365.73 L 325.93 367.81 L 335.55 369.44 L 344.63 370.59 L 354.72 368.10 L 362.36 363.09 L 370.18 357.87 L 377.64 352.53 L 384.87 347.18 L 392.02 341.71 L 400.48 337.93 L 409.28 335.03 L 417.93 331.40 L 426.24 326.72 L 433.81 320.72 L 440.35 313.54 L 445.33 305.17 L 449.19 296.19 L 451.53 286.65 L 452.06 276.79 L 451.26 266.96 L 450.64 257.13 L 450.20 247.27 L 449.66 237.36 L 449.02 227.41 L 448.37 217.42 L 447.68 207.37 L 446.90 197.28 L 446.01 187.14 L 445.00 176.96 L 443.87 166.74 L 442.62 156.49 L 441.24 146.20 L 439.75 135.88 L 438.22 125.53 L 436.78 115.12 L 435.07 104.72 L 432.90 94.39 L 430.01 84.21 L 426.19 74.32 L 422.00 64.52 L 416.59 55.30 L 410.04 46.84 L 402.96 38.84 L 395.44 31.23 L 386.90 24.79 L 378.20 18.51 L 368.93 13.10 L 359.01 8.95 L 348.80 5.52 L 338.32 3.05 L 327.74 0.84 L 316.93 0.19 L 306.10 0.64 L 295.33 2.03 L 284.56 3.63 L 274.24 7.18 L 264.03 11.11 L 254.09 15.72 L 245.00 21.88 L 236.22 28.49 L 227.86 35.66 L 220.49 43.86 L 213.76 52.59 L 207.72 61.80 L 202.81 71.64 L 198.37 81.63 L 193.71 91.48 L 189.18 101.34 L 184.74 111.18 L 180.35 120.98 L 176.03 130.72 L 171.79 140.42 L 167.63 150.06 L 163.56 159.65 L 159.57 169.18 L 155.67 178.65 L 151.81 188.05 L 148.01 197.39 L 144.51 206.75 L 141.24 216.09 L 138.45 225.55 L 137.45 235.26 L 138.38 244.95 L 141.00 254.25 L 145.45 262.82 L 150.80 270.98 L 156.05 279.14 L 161.23 287.27 L 166.33 295.42 L 171.19 303.68 Z" />
</symbol>
</defs>
<!-- isDone: 0 -->
<rect width="700" height="500" style="fill:#fff;stroke-width:0" />
<use class="p0 borderLine" xlink:href="#bl0"/>
<use class="p1 borderLine" xlink:href="#bl1"/>
<use class="p2 borderLine" xlink:href="#bl2"/>
<use class="p3 borderLine" xlink:href="#bl3"/>
<use class="q0 outLine" xlink:href="#bl0"/>
<use class="q1 outLine" xlink:href="#bl1"/>
<use class="q2 outLine" xlink:href="#bl2"/>
<use class="q3 outLine" xlink:href="#bl3"/>
<circle onclick="fromCircle(1)" class="circle" cx="407.6902" cy="365.2774" r="17.1583" />
<text class="tLabel" x="407.69" y="345.28"></text>
<text class="nLabel" x="407.69" y="360.28">2</text>
<text class="belong" x="407.69" y="370.28">(1)</text>
<circle onclick="fromCircle(2)" class="circle" cx="102.1153" cy="293.7036" r="42.0291" />
<text class="tLabel" x="102.12" y="273.70"></text>
<text class="nLabel" x="102.12" y="288.70">12</text>
<text class="belong" x="102.12" y="298.70">(2)</text>
<circle onclick="fromCircle(6)" class="circle" cx="163.9465" cy="357.2289" r="29.7191" />
<text class="tLabel" x="163.95" y="337.23"></text>
<text class="nLabel" x="163.95" y="352.23">6</text>
<text class="belong" x="163.95" y="362.23">(2, 3)</text>
<circle onclick="fromCircle(14)" class="circle" cx="197.9324" cy="303.8795" r="12.1328" />
<text class="tLabel" x="197.93" y="283.88"></text>
<text class="nLabel" x="197.93" y="298.88">1</text>
<text class="belong" x="197.93" y="308.88">(2, 3, 4)</text>
<circle onclick="fromCircle(10)" class="circle" cx="188.8468" cy="235.3874" r="40.2398" />
<text class="tLabel" x="188.85" y="215.39"></text>
<text class="nLabel" x="188.85" y="230.39">11</text>
<text class="belong" x="188.85" y="240.39">(2, 4)</text>
<circle onclick="fromCircle(4)" class="circle" cx="248.3062" cy="428.6890" r="64.2005" />
<text class="tLabel" x="248.31" y="408.69"></text>
<text class="nLabel" x="248.31" y="423.69">28</text>
<text class="belong" x="248.31" y="433.69">(3)</text>
<circle onclick="fromCircle(5)" class="circle" cx="359.9053" cy="411.0264" r="32.1003" />
<text class="tLabel" x="359.91" y="391.03"></text>
<text class="nLabel" x="359.91" y="406.03">7</text>
<text class="belong" x="359.91" y="416.03">(1, 3)</text>
<circle onclick="fromCircle(13)" class="circle" cx="343.3420" cy="342.1897" r="17.1583" />
<text class="tLabel" x="343.34" y="322.19"></text>
<text class="nLabel" x="343.34" y="337.19">2</text>
<text class="belong" x="343.34" y="347.19">(1, 3, 4)</text>
<circle onclick="fromCircle(12)" class="circle" cx="274.9549" cy="296.3066" r="48.5311" />
<text class="tLabel" x="274.95" y="276.31"></text>
<text class="nLabel" x="274.95" y="291.31">16</text>
<text class="belong" x="274.95" y="301.31">(3, 4)</text>
<circle onclick="fromCircle(8)" class="circle" cx="313.8850" cy="122.9436" r="111.1986" />
<text class="tLabel" x="313.89" y="102.94"></text>
<text class="nLabel" x="313.89" y="117.94">84</text>
<text class="belong" x="313.89" y="127.94">(4)</text>
<circle onclick="fromCircle(9)" class="circle" cx="393.4842" cy="278.6960" r="46.9900" />
<text class="tLabel" x="393.48" y="258.70"></text>
<text class="nLabel" x="393.48" y="273.70">15</text>
<text class="belong" x="393.48" y="283.70">(1, 4)</text>
<rect class="p0 borderLine" x="500.00" y="50.00" width="30.00" height="15.00" />
<rect class="q0" x="500.00" y="50.00" width="30.00" height="15.00" />
<text class="legend" x="540.00" y="65.00">S_salivarius</text>
<rect class="p1 borderLine" x="500.00" y="90.00" width="30.00" height="15.00" />
<rect class="q1" x="500.00" y="90.00" width="30.00" height="15.00" />
<text class="legend" x="540.00" y="105.00">Other</text>
<rect class="p2 borderLine" x="500.00" y="130.00" width="30.00" height="15.00" />
<rect class="q2" x="500.00" y="130.00" width="30.00" height="15.00" />
<text class="legend" x="540.00" y="145.00">GAS</text>
<rect class="p3 borderLine" x="500.00" y="170.00" width="30.00" height="15.00" />
<rect class="q3" x="500.00" y="170.00" width="30.00" height="15.00" />
<text class="legend" x="540.00" y="185.00">GCS/GGS</text>
</svg>
