<svg xmlns="http://www.w3.org/2000/svg" xmlns:xlink="http://www.w3.org/1999/xlink" width="700" height="500">
<defs>
<style type="text/css"><![CDATA[
  .borderLine {
	   stroke: none;
	   fill-opacity: 0.4;
  }
  .outLine {
	   stroke-width: 1;
	   fill: none;
  }
  .circle {
	   stroke: #888888;
	   stroke-width: 0.5;
	   fill: none;
    pointer-events: all;
  }
  .spcircle {
	   stroke: #FF2222;
	   stroke-width: 1;
	   fill: none;
    pointer-events: all;
  }
  .tLabel {
	   font-family: Arial;
    pointer-events: none;
	   font-size: 14px;
	   text-anchor: middle;
	   alignment-baseline: central;
  }
  .nLabel {
	   font-family: Arial;
    pointer-events: none;
	   font-size: 10px;
	   text-anchor: middle;
	   alignment-baseline: central;
  }
  .belong {
	   font-family: Arial;
    pointer-events: none;
	   font-size: 5px;
	   text-anchor: middle;
	   alignment-baseline: central;
  }
  .p0{
    stroke: none;
    fill: #e6194b;
  }
  .q0{
    fill: none;
    stroke: #e6194b;
  }
  .p1{
    stroke: none;
    fill: #3cb44b;
  }
  .q1{
    fill: none;
    stroke: #3cb44b;
  }
  .p2{
    stroke: none;
    fill: #ffe119;
  }
  .q2{
    fill: none;
    stroke: #ffe119;
  }
  .p3{
    stroke: none;
    fill: #0082c8;
  }
  .q3{
    fill: none;
    stroke: #0082c8;
  }
  .p4{
    stroke: none;
    fill: #f58231;
  }
  .q4{
    fill: none;
    stroke: #f58231;
  }
  .p5{
    stroke: none;
    fill: #911eb4;
  }
  .q5{
    fill: none;
    stroke: #911eb4;
  }
  .p6{
    stroke: none;
    fill: #46f0f0;
  }
  .q6{
    fill: none;
    stroke: #46f0f0;
  }
  .p7{
    stroke: none;
    fill: #f032e6;
  }
  .q7{
    fill: none;
    stroke: #f032e6;
  }
]]>
</style>
<symbol id="bl0">
<path d="M 112.63 273.74 L 120.77 271.90 L 128.92 269.32 L 136.79 266.20 L 144.56 262.46 L 152.81 261.11 L 161.33 260.49 L 169.75 260.44 L 178.02 260.30 L 187.21 261.02 L 195.41 263.44 L 203.54 265.90 L 212.27 268.40 L 219.91 272.08 L 227.50 273.91 L 236.25 276.60 L 243.73 281.37 L 249.58 287.84 L 253.95 295.28 L 256.03 303.42 L 256.03 310.77 L 254.57 318.73 L 254.66 327.60 L 255.42 336.08 L 256.55 344.16 L 256.51 352.21 L 257.11 360.27 L 257.73 368.38 L 257.78 376.52 L 257.58 384.64 L 258.19 392.72 L 258.92 401.20 L 260.04 409.64 L 261.88 417.77 L 264.02 425.65 L 266.45 433.64 L 270.43 441.05 L 274.97 448.14 L 280.11 454.66 L 285.64 460.64 L 291.86 466.23 L 298.35 471.29 L 305.04 475.68 L 312.23 479.79 L 320.10 482.88 L 328.02 485.26 L 336.06 487.43 L 344.23 488.85 L 352.44 490.00 L 360.91 488.77 L 369.31 488.08 L 376.91 485.96 L 384.62 483.80 L 392.55 481.24 L 399.89 477.79 L 406.79 473.41 L 413.32 468.09 L 419.85 463.08 L 425.02 456.96 L 430.04 450.78 L 434.38 444.15 L 439.04 437.59 L 442.65 430.15 L 444.38 422.17 L 447.04 414.60 L 448.52 406.45 L 448.56 398.10 L 448.60 389.96 L 448.26 381.85 L 446.89 373.57 L 444.95 365.50 L 441.81 358.17 L 438.38 350.81 L 434.96 343.50 L 430.87 336.82 L 426.23 330.43 L 422.55 323.32 L 417.95 316.68 L 413.73 309.47 L 409.34 302.30 L 404.64 295.48 L 400.35 288.40 L 395.68 281.41 L 391.47 274.35 L 387.53 267.19 L 383.61 259.99 L 379.39 253.20 L 375.01 246.23 L 369.05 240.26 L 362.20 235.73 L 354.72 232.37 L 347.95 227.08 L 343.00 220.09 L 339.71 212.20 L 338.58 204.00 L 337.32 195.55 L 337.22 187.23 L 336.12 178.95 L 335.66 170.90 L 335.04 162.81 L 336.25 154.32 L 336.77 146.24 L 334.63 137.89 L 330.11 130.80 L 323.06 125.67 L 315.24 122.83 L 306.61 122.67 L 298.30 125.25 L 291.77 130.09 L 284.53 133.91 L 276.17 134.61 L 267.56 133.72 L 259.79 132.27 L 251.84 132.19 L 243.34 133.61 L 235.71 137.67 L 228.99 142.78 L 221.54 146.92 L 214.19 149.82 L 205.89 150.27 L 197.88 149.21 L 189.70 146.82 L 182.33 142.95 L 175.53 137.41 L 167.24 136.51 L 159.84 139.78 L 155.51 146.78 L 154.29 154.94 L 153.09 163.29 L 149.70 171.32 L 145.48 178.54 L 140.28 184.65 L 132.81 189.33 L 124.91 192.37 L 116.90 194.19 L 108.34 194.46 L 99.82 195.47 L 91.34 197.79 L 84.35 202.00 L 78.21 208.39 L 73.16 215.66 L 69.38 223.61 L 68.54 232.30 L 69.30 241.46 L 71.49 249.64 L 75.59 256.88 L 81.01 263.58 L 87.79 268.11 L 95.43 271.81 L 104.07 274.01 Z" />
</symbol>
<symbol id="bl1">
<path d="M 148.91 59.67 L 143.86 64.65 L 138.72 68.76 L 133.21 73.42 L 127.80 78.01 L 122.62 83.53 L 117.54 88.50 L 112.16 93.21 L 106.46 97.82 L 101.23 102.80 L 96.27 108.28 L 90.83 112.81 L 85.29 118.18 L 79.78 124.01 L 75.30 130.10 L 72.22 136.57 L 69.72 143.18 L 68.80 150.34 L 69.54 157.69 L 71.43 164.26 L 73.64 170.82 L 77.39 176.47 L 81.65 181.81 L 87.04 186.08 L 92.89 190.54 L 100.54 192.63 L 107.77 193.95 L 114.88 194.65 L 122.27 196.60 L 129.07 200.30 L 135.92 205.03 L 141.39 211.15 L 144.62 218.29 L 149.86 224.10 L 154.89 229.38 L 160.44 234.81 L 165.85 240.22 L 171.04 245.29 L 176.41 250.49 L 182.46 255.24 L 188.46 260.53 L 193.66 265.66 L 196.01 273.06 L 195.28 280.51 L 192.69 287.69 L 190.78 295.12 L 189.61 303.17 L 189.31 310.75 L 190.89 318.46 L 194.15 325.58 L 199.02 331.77 L 205.27 336.63 L 211.86 339.61 L 219.37 341.47 L 226.68 341.67 L 233.92 340.63 L 241.30 339.10 L 248.14 339.12 L 255.92 339.99 L 263.13 340.11 L 269.83 339.15 L 276.85 337.00 L 282.17 331.77 L 287.09 325.95 L 291.27 320.22 L 296.07 314.60 L 299.83 307.83 L 303.87 301.71 L 308.29 296.01 L 311.59 289.82 L 314.20 282.81 L 314.90 275.54 L 314.06 268.62 L 311.71 261.80 L 308.18 256.02 L 303.49 250.62 L 297.84 246.62 L 291.29 243.84 L 285.20 239.77 L 280.18 235.05 L 274.82 230.84 L 269.65 225.54 L 264.17 220.57 L 258.86 215.06 L 253.86 209.46 L 248.80 204.78 L 243.14 200.49 L 237.06 196.36 L 232.29 191.35 L 227.19 185.88 L 223.19 179.93 L 221.30 172.89 L 220.37 165.30 L 221.12 157.88 L 223.66 150.77 L 228.34 143.97 L 233.34 139.01 L 238.23 133.70 L 241.92 127.46 L 244.44 121.03 L 245.24 113.94 L 245.05 106.90 L 244.04 99.94 L 242.35 92.86 L 240.54 85.83 L 238.81 79.09 L 236.33 72.32 L 234.54 65.70 L 231.99 59.38 L 231.13 52.26 L 231.65 44.96 L 230.64 37.72 L 227.92 31.32 L 223.76 25.87 L 218.14 21.77 L 211.24 19.72 L 204.33 18.99 L 197.33 20.15 L 190.86 23.38 L 185.73 28.36 L 180.63 32.69 L 175.20 36.70 L 170.08 41.20 L 165.28 46.04 L 159.68 50.75 L 154.38 55.22 Z" />
</symbol>
<symbol id="bl2">
<path d="M 179.41 48.81 L 178.12 56.00 L 177.09 63.15 L 176.31 70.42 L 174.01 78.22 L 171.98 85.17 L 169.73 92.09 L 166.49 99.13 L 165.11 106.74 L 163.13 114.00 L 161.42 121.51 L 159.92 129.09 L 158.02 136.33 L 156.27 143.83 L 154.70 151.00 L 155.98 158.55 L 160.65 163.35 L 165.57 168.04 L 170.53 172.17 L 175.85 176.85 L 180.73 181.62 L 185.42 186.45 L 189.38 192.49 L 191.67 199.46 L 192.09 206.76 L 190.66 213.81 L 188.62 220.37 L 187.00 226.76 L 187.02 233.36 L 187.78 240.19 L 189.22 246.58 L 192.27 252.63 L 196.97 257.74 L 201.80 262.35 L 206.69 266.24 L 212.94 268.85 L 219.61 270.25 L 226.11 269.71 L 232.83 268.89 L 238.80 266.38 L 244.82 263.05 L 250.92 259.33 L 254.49 254.09 L 259.64 249.37 L 265.56 246.25 L 271.73 243.67 L 278.18 241.98 L 285.30 241.70 L 292.02 243.89 L 298.60 246.59 L 305.76 247.33 L 313.01 246.10 L 319.51 244.00 L 325.09 240.88 L 330.64 236.69 L 337.10 234.00 L 343.81 232.25 L 350.83 232.19 L 357.73 234.12 L 364.42 236.88 L 371.81 237.93 L 379.14 236.72 L 386.14 234.44 L 392.39 230.51 L 397.60 225.72 L 401.74 219.64 L 404.50 213.24 L 405.96 206.21 L 405.86 198.80 L 404.29 192.21 L 400.98 186.38 L 397.07 181.09 L 391.74 176.31 L 385.46 172.87 L 378.57 170.58 L 371.41 170.11 L 364.81 170.86 L 358.31 173.40 L 351.34 175.72 L 343.85 174.55 L 338.39 170.02 L 335.11 162.91 L 336.14 155.35 L 337.13 147.98 L 335.88 140.88 L 333.09 134.18 L 329.80 127.54 L 325.92 121.56 L 322.73 115.18 L 319.83 108.66 L 316.44 102.76 L 312.90 96.29 L 309.29 89.49 L 305.33 83.37 L 301.76 77.15 L 298.82 70.25 L 294.63 64.02 L 290.80 57.99 L 287.48 51.28 L 284.20 44.99 L 280.56 38.80 L 275.97 33.48 L 270.57 28.33 L 263.40 26.24 L 255.91 25.20 L 248.97 24.22 L 241.84 23.66 L 234.90 22.51 L 227.71 21.06 L 220.20 20.51 L 213.11 19.50 L 205.70 18.78 L 198.16 19.84 L 191.71 23.17 L 185.89 27.95 L 182.08 34.40 L 179.88 41.67 Z" />
</symbol>
<symbol id="bl3">
<path d="M 81.51 121.86 L 76.61 128.23 L 72.95 135.57 L 70.37 142.68 L 68.13 150.04 L 67.01 157.85 L 65.40 164.99 L 62.86 172.58 L 60.81 179.95 L 58.29 187.23 L 56.64 195.72 L 59.25 202.94 L 60.31 210.95 L 62.75 218.56 L 64.81 225.98 L 66.74 233.24 L 68.90 240.13 L 70.86 247.75 L 73.92 254.76 L 78.14 260.76 L 84.02 266.06 L 90.82 270.32 L 97.83 272.62 L 105.20 274.23 L 113.36 273.78 L 120.56 272.33 L 127.82 270.22 L 135.03 266.63 L 141.98 263.94 L 149.67 261.61 L 157.02 262.83 L 162.93 267.51 L 165.91 274.29 L 167.63 281.82 L 173.14 287.03 L 180.28 289.55 L 188.24 288.53 L 194.45 284.86 L 201.47 281.65 L 207.61 277.72 L 215.21 275.11 L 222.15 271.93 L 229.28 270.37 L 236.66 267.35 L 243.62 263.67 L 249.71 258.77 L 254.89 253.62 L 258.71 247.54 L 260.66 240.03 L 263.26 233.23 L 265.25 226.35 L 268.00 219.13 L 270.98 212.26 L 273.10 204.89 L 276.23 197.46 L 279.62 190.50 L 283.04 183.29 L 286.21 175.77 L 287.55 167.90 L 287.36 160.30 L 285.13 152.65 L 285.24 145.74 L 286.64 138.81 L 289.93 132.33 L 295.27 127.33 L 300.23 121.32 L 303.34 114.36 L 304.95 106.72 L 304.30 98.65 L 301.63 91.32 L 297.58 84.80 L 291.66 79.75 L 284.85 76.13 L 277.29 74.69 L 269.61 74.91 L 262.60 77.63 L 254.99 77.57 L 247.72 76.62 L 240.66 75.67 L 233.26 74.76 L 225.68 73.17 L 218.26 71.62 L 211.47 70.59 L 203.98 70.50 L 196.73 71.69 L 189.62 74.03 L 182.95 77.52 L 177.08 82.32 L 172.40 88.28 L 169.01 95.08 L 166.50 102.36 L 165.93 109.74 L 166.59 117.14 L 168.72 124.50 L 172.12 131.12 L 176.56 137.20 L 182.15 142.62 L 184.37 150.65 L 182.54 158.68 L 176.37 164.51 L 167.87 166.15 L 159.85 162.55 L 155.04 155.49 L 154.30 147.56 L 152.87 139.49 L 149.78 131.71 L 145.28 124.62 L 139.70 119.14 L 133.28 115.01 L 126.20 111.47 L 118.27 109.50 L 110.02 109.38 L 102.37 109.97 L 95.02 112.80 L 87.77 116.98 Z" />
</symbol>
<symbol id="bl4">
<path d="M 189.55 356.32 L 194.27 363.48 L 202.51 367.31 L 211.11 365.46 L 217.40 359.46 L 223.62 353.08 L 229.94 347.50 L 236.46 341.80 L 242.87 336.13 L 248.78 329.45 L 253.28 322.02 L 257.78 314.69 L 265.07 309.41 L 274.11 309.42 L 282.79 309.68 L 291.77 308.20 L 300.29 306.93 L 309.21 305.09 L 318.14 304.08 L 326.93 302.37 L 335.71 300.38 L 344.65 299.44 L 353.84 298.84 L 361.98 296.12 L 370.17 291.97 L 375.24 284.86 L 379.83 277.19 L 383.28 268.31 L 386.35 259.92 L 389.30 251.28 L 392.19 242.87 L 395.73 234.83 L 399.13 226.16 L 403.03 218.24 L 405.37 209.11 L 405.81 200.09 L 403.49 191.66 L 399.31 183.75 L 393.62 176.96 L 386.51 171.85 L 379.74 165.83 L 373.11 160.03 L 366.07 155.04 L 359.38 149.10 L 350.58 145.93 L 341.89 148.45 L 335.81 155.49 L 331.97 163.51 L 325.66 170.37 L 317.62 174.12 L 309.19 177.60 L 300.43 180.02 L 291.98 182.49 L 284.28 187.55 L 276.58 191.96 L 268.61 195.76 L 260.05 198.66 L 250.94 199.92 L 241.97 198.92 L 233.13 197.38 L 223.99 195.89 L 215.47 196.30 L 207.47 199.71 L 199.70 203.89 L 194.19 211.28 L 189.71 219.03 L 187.29 226.97 L 187.17 235.87 L 188.77 244.18 L 190.60 252.74 L 192.69 261.52 L 195.49 269.76 L 195.77 278.15 L 193.28 285.73 L 191.71 294.36 L 189.46 302.62 L 189.44 311.62 L 189.89 320.44 L 190.18 329.35 L 190.03 338.23 L 189.86 347.16 Z" />
</symbol>
<symbol id="bl5">
<path d="M 157.45 326.53 L 164.11 329.26 L 171.54 329.34 L 178.12 327.40 L 183.86 322.90 L 187.43 316.51 L 189.12 309.54 L 189.70 302.32 L 191.50 295.18 L 195.38 288.61 L 200.46 283.05 L 206.18 278.33 L 212.76 275.23 L 219.60 274.03 L 226.25 270.80 L 233.44 268.33 L 240.87 266.18 L 246.76 261.36 L 252.42 256.51 L 256.47 250.22 L 259.39 243.23 L 260.25 236.21 L 260.04 228.94 L 258.97 221.73 L 255.98 215.17 L 251.71 209.09 L 246.46 203.48 L 240.01 199.64 L 233.11 197.39 L 225.72 195.51 L 218.27 196.50 L 210.92 198.34 L 204.39 201.51 L 198.45 205.94 L 193.66 211.72 L 188.43 217.36 L 183.74 223.25 L 178.56 228.54 L 173.34 233.27 L 168.13 237.95 L 163.38 243.22 L 158.43 248.09 L 153.39 253.31 L 148.35 258.66 L 143.17 263.65 L 137.64 268.27 L 135.65 275.43 L 137.34 282.48 L 141.42 288.58 L 144.55 295.40 L 145.80 302.26 L 145.89 309.27 L 148.05 316.17 L 151.90 322.35 Z" />
</symbol>
<symbol id="bl6">
<path d="M 90.25 321.09 L 95.55 326.10 L 101.20 330.59 L 107.93 333.32 L 114.86 334.11 L 121.72 333.38 L 129.02 331.82 L 135.17 327.18 L 139.66 321.91 L 143.20 315.66 L 145.79 309.50 L 147.34 303.03 L 150.52 296.11 L 155.48 291.02 L 161.37 287.22 L 165.07 281.50 L 166.39 274.12 L 167.45 266.83 L 173.37 262.37 L 179.80 259.72 L 187.32 260.26 L 193.95 262.95 L 200.88 264.34 L 207.53 266.85 L 214.49 268.35 L 221.79 269.53 L 228.67 269.74 L 235.85 267.43 L 243.19 264.01 L 248.97 259.15 L 254.03 253.86 L 258.00 247.49 L 260.69 240.84 L 262.54 233.95 L 265.09 227.00 L 267.46 220.13 L 270.18 213.50 L 272.73 206.48 L 274.88 199.41 L 278.15 192.95 L 283.18 187.92 L 289.28 183.95 L 296.10 181.43 L 303.30 179.29 L 311.47 179.16 L 319.08 178.45 L 326.06 177.95 L 333.40 176.81 L 340.48 176.03 L 347.86 175.80 L 355.12 174.77 L 361.33 170.59 L 364.83 163.85 L 364.38 155.76 L 360.38 149.23 L 353.22 146.04 L 345.31 146.37 L 339.17 150.48 L 335.43 156.69 L 332.19 163.09 L 327.08 168.64 L 320.99 172.47 L 314.24 175.00 L 307.07 177.28 L 300.07 179.71 L 293.17 182.25 L 286.97 185.48 L 280.80 189.39 L 274.59 193.02 L 267.94 196.32 L 260.81 198.44 L 253.18 199.12 L 245.93 198.51 L 238.93 197.65 L 232.25 195.98 L 224.80 196.07 L 217.14 196.37 L 209.80 198.81 L 202.97 202.48 L 197.44 206.94 L 192.74 212.14 L 188.59 217.61 L 184.16 222.74 L 179.06 227.47 L 173.66 232.14 L 168.22 237.05 L 162.70 241.76 L 157.84 246.46 L 152.03 250.95 L 145.84 255.41 L 139.75 259.52 L 134.35 264.44 L 128.63 268.85 L 121.80 271.52 L 115.05 273.49 L 107.70 274.23 L 101.26 277.46 L 95.39 281.41 L 90.49 287.24 L 87.19 293.74 L 84.95 300.54 L 85.62 307.56 L 87.05 314.32 Z" />
</symbol>
<symbol id="bl7">
<path d="M 88.59 10.37 L 79.98 11.65 L 72.24 15.76 L 65.21 20.91 L 59.60 27.45 L 54.61 34.61 L 51.95 43.10 L 51.40 51.92 L 52.35 61.06 L 54.93 69.83 L 59.34 77.59 L 65.48 84.40 L 72.74 89.28 L 80.78 92.71 L 89.34 94.54 L 97.56 97.15 L 105.74 99.32 L 114.21 101.31 L 122.57 103.50 L 130.81 105.52 L 139.69 105.58 L 147.22 100.64 L 150.39 92.18 L 148.59 83.20 L 145.62 74.83 L 142.49 66.75 L 140.13 58.08 L 137.67 49.56 L 135.37 41.20 L 131.76 33.08 L 127.32 25.85 L 121.09 19.81 L 114.21 14.47 L 106.15 11.08 L 97.20 10.00 Z" />
</symbol>
</defs>
<!-- isDone: 0 -->
<rect width="700" height="500" style="fill:#fff;stroke-width:0" />
<use class="p0 borderLine" xlink:href="#bl0"/>
<use class="p1 borderLine" xlink:href="#bl1"/>
<use class="p2 borderLine" xlink:href="#bl2"/>
<use class="p3 borderLine" xlink:href="#bl3"/>
<use class="p4 borderLine" xlink:href="#bl4"/>
<use class="p5 borderLine" xlink:href="#bl5"/>
<use class="p6 borderLine" xlink:href="#bl6"/>
<use class="p7 borderLine" xlink:href="#bl7"/>
<use class="q0 outLine" xlink:href="#bl0"/>
<use class="q1 outLine" xlink:href="#bl1"/>
<use class="q2 outLine" xlink:href="#bl2"/>
<use class="q3 outLine" xlink:href="#bl3"/>
<use class="q4 outLine" xlink:href="#bl4"/>
<use class="q5 outLine" xlink:href="#bl5"/>
<use class="q6 outLine" xlink:href="#bl6"/>
<use class="q7 outLine" xlink:href="#bl7"/>
<circle onclick="fromCircle(1)" class="circle" cx="353.7823" cy="394.0316" r="79.1311" />
<text class="tLabel" x="353.78" y="374.03"></text>
<text class="nLabel" x="353.78" y="389.03">40</text>
<text class="belong" x="353.78" y="399.03">(1)</text>
<circle onclick="fromCircle(3)" class="circle" cx="269.2425" cy="323.9364" r="12.5117" />
<text class="tLabel" x="269.24" y="303.94"></text>
<text class="nLabel" x="269.24" y="318.94">1</text>
<text class="belong" x="269.24" y="328.94">(1, 2)</text>
<circle onclick="fromCircle(7)" class="circle" cx="169.3813" cy="151.1443" r="12.5117" />
<text class="tLabel" x="169.38" y="131.14"></text>
<text class="nLabel" x="169.38" y="146.14">1</text>
<text class="belong" x="169.38" y="156.14">(1, 2, 3)</text>
<circle onclick="fromCircle(15)" class="circle" cx="199.7672" cy="170.8909" r="17.6943" />
<text class="tLabel" x="199.77" y="150.89"></text>
<text class="nLabel" x="199.77" y="165.89">2</text>
<text class="belong" x="199.77" y="175.89">(1, 2, 3, 4)</text>
<circle onclick="fromCircle(127)" class="circle" cx="223.6547" cy="232.7586" r="30.6474" />
<text class="tLabel" x="223.65" y="212.76"></text>
<text class="nLabel" x="223.65" y="227.76">6</text>
<text class="belong" x="223.65" y="237.76">(1, 2, 3, 4, 5, 6, 7)</text>
<circle onclick="fromCircle(2)" class="circle" cx="161.3343" cy="69.4552" r="12.5117" />
<text class="tLabel" x="161.33" y="49.46"></text>
<text class="nLabel" x="161.33" y="64.46">1</text>
<text class="belong" x="161.33" y="74.46">(2)</text>
<circle onclick="fromCircle(6)" class="circle" cx="205.6674" cy="44.9453" r="21.6710" />
<text class="tLabel" x="205.67" y="24.95"></text>
<text class="nLabel" x="205.67" y="39.95">3</text>
<text class="belong" x="205.67" y="49.95">(2, 3)</text>
<circle onclick="fromCircle(14)" class="circle" cx="205.6578" cy="110.3447" r="33.1029" />
<text class="tLabel" x="205.66" y="90.34"></text>
<text class="nLabel" x="205.66" y="105.34">7</text>
<text class="belong" x="205.66" y="115.34">(2, 3, 4)</text>
<circle onclick="fromCircle(10)" class="circle" cx="111.9654" cy="151.6943" r="35.3885" />
<text class="tLabel" x="111.97" y="131.69"></text>
<text class="nLabel" x="111.97" y="146.69">8</text>
<text class="belong" x="111.97" y="156.69">(2, 4)</text>
<circle onclick="fromCircle(18)" class="circle" cx="222.7467" cy="307.8357" r="27.9771" />
<text class="tLabel" x="222.75" y="287.84"></text>
<text class="nLabel" x="222.75" y="302.84">5</text>
<text class="belong" x="222.75" y="312.84">(2, 5)</text>
<circle onclick="fromCircle(130)" class="circle" cx="135.6543" cy="91.2430" r="12.5117" />
<text class="tLabel" x="135.65" y="71.24"></text>
<text class="nLabel" x="135.65" y="86.24">1</text>
<text class="belong" x="135.65" y="96.24">(2, 8)</text>
<circle onclick="fromCircle(4)" class="circle" cx="257.3256" cy="51.5120" r="21.6710" />
<text class="tLabel" x="257.33" y="31.51"></text>
<text class="nLabel" x="257.33" y="46.51">3</text>
<text class="belong" x="257.33" y="56.51">(3)</text>
<circle onclick="fromCircle(5)" class="circle" cx="310.8927" cy="148.4125" r="21.6710" />
<text class="tLabel" x="310.89" y="128.41"></text>
<text class="nLabel" x="310.89" y="143.41">3</text>
<text class="belong" x="310.89" y="153.41">(1, 3)</text>
<circle onclick="fromCircle(13)" class="circle" cx="254.1204" cy="165.5226" r="27.9771" />
<text class="tLabel" x="254.12" y="145.52"></text>
<text class="nLabel" x="254.12" y="160.52">5</text>
<text class="belong" x="254.12" y="170.52">(1, 3, 4)</text>
<circle onclick="fromCircle(12)" class="circle" cx="274.9839" cy="104.7126" r="25.0235" />
<text class="tLabel" x="274.98" y="84.71"></text>
<text class="nLabel" x="274.98" y="99.71">4</text>
<text class="belong" x="274.98" y="109.71">(3, 4)</text>
<circle onclick="fromCircle(20)" class="circle" cx="372.3233" cy="203.6531" r="27.9771" />
<text class="tLabel" x="372.32" y="183.65"></text>
<text class="nLabel" x="372.32" y="198.65">5</text>
<text class="belong" x="372.32" y="208.65">(3, 5)</text>
<circle onclick="fromCircle(21)" class="circle" cx="305.8679" cy="213.3241" r="27.9771" />
<text class="tLabel" x="305.87" y="193.32"></text>
<text class="nLabel" x="305.87" y="208.32">5</text>
<text class="belong" x="305.87" y="218.32">(1, 3, 5)</text>
<circle onclick="fromCircle(8)" class="circle" cx="71.8909" cy="193.5474" r="12.5117" />
<text class="tLabel" x="71.89" y="173.55"></text>
<text class="nLabel" x="71.89" y="188.55">1</text>
<text class="belong" x="71.89" y="198.55">(4)</text>
<circle onclick="fromCircle(9)" class="circle" cx="108.3171" cy="234.2842" r="33.1029" />
<text class="tLabel" x="108.32" y="214.28"></text>
<text class="nLabel" x="108.32" y="229.28">7</text>
<text class="belong" x="108.32" y="239.28">(1, 4)</text>
<circle onclick="fromCircle(11)" class="circle" cx="166.1302" cy="203.9707" r="21.6710" />
<text class="tLabel" x="166.13" y="183.97"></text>
<text class="nLabel" x="166.13" y="198.97">3</text>
<text class="belong" x="166.13" y="208.97">(1, 2, 4)</text>
<circle onclick="fromCircle(40)" class="circle" cx="181.4346" cy="274.7493" r="12.5117" />
<text class="tLabel" x="181.43" y="254.75"></text>
<text class="nLabel" x="181.43" y="269.75">1</text>
<text class="belong" x="181.43" y="279.75">(4, 6)</text>
<circle onclick="fromCircle(16)" class="circle" cx="204.1575" cy="352.3784" r="12.5117" />
<text class="tLabel" x="204.16" y="332.38"></text>
<text class="nLabel" x="204.16" y="347.38">1</text>
<text class="belong" x="204.16" y="357.38">(5)</text>
<circle onclick="fromCircle(17)" class="circle" cx="347.4336" cy="265.9072" r="27.9771" />
<text class="tLabel" x="347.43" y="245.91"></text>
<text class="nLabel" x="347.43" y="260.91">5</text>
<text class="belong" x="347.43" y="270.91">(1, 5)</text>
<circle onclick="fromCircle(19)" class="circle" cx="281.2728" cy="275.8710" r="27.9771" />
<text class="tLabel" x="281.27" y="255.87"></text>
<text class="nLabel" x="281.27" y="270.87">5</text>
<text class="belong" x="281.27" y="280.87">(1, 2, 5)</text>
<circle onclick="fromCircle(80)" class="circle" cx="350.1509" cy="160.7773" r="12.5117" />
<text class="tLabel" x="350.15" y="140.78"></text>
<text class="nLabel" x="350.15" y="155.78">1</text>
<text class="belong" x="350.15" y="165.78">(5, 7)</text>
<circle onclick="fromCircle(32)" class="circle" cx="167.8551" cy="308.2964" r="17.6943" />
<text class="tLabel" x="167.86" y="288.30"></text>
<text class="nLabel" x="167.86" y="303.30">2</text>
<text class="belong" x="167.86" y="313.30">(6)</text>
<circle onclick="fromCircle(96)" class="circle" cx="151.0601" cy="276.4029" r="12.5117" />
<text class="tLabel" x="151.06" y="256.40"></text>
<text class="nLabel" x="151.06" y="271.40">1</text>
<text class="belong" x="151.06" y="281.40">(6, 7)</text>
<circle onclick="fromCircle(64)" class="circle" cx="115.5395" cy="303.8488" r="25.0235" />
<text class="tLabel" x="115.54" y="283.85"></text>
<text class="nLabel" x="115.54" y="298.85">4</text>
<text class="belong" x="115.54" y="308.85">(7)</text>
<circle onclick="fromCircle(128)" class="circle" cx="93.8574" cy="52.2395" r="35.3885" />
<text class="tLabel" x="93.86" y="32.24"></text>
<text class="nLabel" x="93.86" y="47.24">8</text>
<text class="belong" x="93.86" y="57.24">(8)</text>
<rect class="p0 borderLine" x="500.00" y="50.00" width="30.00" height="15.00" />
<rect class="q0" x="500.00" y="50.00" width="30.00" height="15.00" />
<text class="legend" x="540.00" y="65.00">Ball2017</text>
<rect class="p1 borderLine" x="500.00" y="90.00" width="30.00" height="15.00" />
<rect class="q1" x="500.00" y="90.00" width="30.00" height="15.00" />
<text class="legend" x="540.00" y="105.00">Courtois2015</text>
<rect class="p2 borderLine" x="500.00" y="130.00" width="30.00" height="15.00" />
<rect class="q2" x="500.00" y="130.00" width="30.00" height="15.00" />
<text class="legend" x="540.00" y="145.00">Hilton2017</text>
<rect class="p3 borderLine" x="500.00" y="170.00" width="30.00" height="15.00" />
<rect class="q3" x="500.00" y="170.00" width="30.00" height="15.00" />
<text class="legend" x="540.00" y="185.00">Ball2017</text>
<rect class="p4 borderLine" x="500.00" y="210.00" width="30.00" height="15.00" />
<rect class="q4" x="500.00" y="210.00" width="30.00" height="15.00" />
<text class="legend" x="540.00" y="225.00">Ball2017</text>
<rect class="p5 borderLine" x="500.00" y="250.00" width="30.00" height="15.00" />
<rect class="q5" x="500.00" y="250.00" width="30.00" height="15.00" />
<text class="legend" x="540.00" y="265.00">Ball2017</text>
<rect class="p6 borderLine" x="500.00" y="290.00" width="30.00" height="15.00" />
<rect class="q6" x="500.00" y="290.00" width="30.00" height="15.00" />
<text class="legend" x="540.00" y="305.00">Courtois2015</text>
<rect class="p7 borderLine" x="500.00" y="330.00" width="30.00" height="15.00" />
<rect class="q7" x="500.00" y="330.00" width="30.00" height="15.00" />
<text class="legend" x="540.00" y="345.00">Hilton2017</text>
</svg>
