<svg xmlns="http://www.w3.org/2000/svg" xmlns:xlink="http://www.w3.org/1999/xlink" width="700" height="500">
<defs>
<style type="text/css"><![CDATA[
  .borderLine {
	   stroke: none;
	   fill-opacity: 0.4;
  }
  .outLine {
	   stroke-width: 1;
	   fill: none;
  }
  .circle {
	   stroke: #888888;
	   stroke-width: 0.5;
	   fill: none;
    pointer-events: all;
  }
  .spcircle {
	   stroke: #FF2222;
	   stroke-width: 1;
	   fill: none;
    pointer-events: all;
  }
  .tLabel {
	   font-family: Arial;
    pointer-events: none;
	   font-size: 14px;
	   text-anchor: middle;
	   alignment-baseline: central;
  }
  .nLabel {
	   font-family: Arial;
    pointer-events: none;
	   font-size: 10px;
	   text-anchor: middle;
	   alignment-baseline: central;
  }
  .belong {
	   font-family: Arial;
    pointer-events: none;
	   font-size: 5px;
	   text-anchor: middle;
	   alignment-baseline: central;
  }
  .p0{
    stroke: none;
    fill: #e6194b;
  }
  .q0{
    fill: none;
    stroke: #e6194b;
  }
  .p1{
    stroke: none;
    fill: #3cb44b;
  }
  .q1{
    fill: none;
    stroke: #3cb44b;
  }
  .p2{
    stroke: none;
    fill: #ffe119;
  }
  .q2{
    fill: none;
    stroke: #ffe119;
  }
  .p3{
    stroke: none;
    fill: #0082c8;
  }
  .q3{
    fill: none;
    stroke: #0082c8;
  }
]]>
</style>
<symbol id="bl0">
<path d="M 224.07 344.81 L 219.38 349.98 L 215.96 356.25 L 214.06 362.76 L 213.62 369.21 L 214.81 375.42 L 217.20 381.22 L 220.32 386.03 L 224.00 389.90 L 228.10 392.92 L 232.52 395.15 L 237.16 396.67 L 242.06 397.46 L 247.16 397.23 L 252.36 396.10 L 257.18 394.19 L 261.44 391.60 L 265.10 388.45 L 268.32 384.86 L 271.69 381.12 L 275.16 377.22 L 278.68 373.17 L 282.19 368.97 L 285.67 364.65 L 289.08 360.23 L 292.40 355.73 L 295.62 351.20 L 298.72 346.64 L 301.74 342.08 L 304.72 337.55 L 307.76 333.06 L 311.10 328.64 L 313.44 323.36 L 311.31 319.85 L 306.34 316.53 L 302.78 312.37 L 298.55 311.21 L 292.19 313.81 L 286.21 316.81 L 280.30 319.79 L 274.44 322.70 L 268.62 325.51 L 262.82 328.19 L 257.06 330.71 L 251.34 333.04 L 245.68 335.17 L 240.08 337.10 L 234.57 338.86 L 229.15 341.23 Z" />
</symbol>
<symbol id="bl1">
<path d="M 300.90 281.58 L 298.15 284.28 L 295.59 287.10 L 294.70 289.83 L 293.89 292.72 L 293.20 295.71 L 292.69 298.77 L 292.36 301.88 L 292.19 305.03 L 292.51 308.17 L 294.84 311.13 L 299.72 310.47 L 304.66 309.86 L 309.09 309.20 L 310.58 306.65 L 319.16 313.27 L 327.51 317.58 L 335.48 319.43 L 343.59 318.90 L 351.79 316.46 L 360.11 311.82 L 366.57 304.83 L 371.10 295.96 L 373.24 286.72 L 372.09 277.44 L 368.79 268.77 L 363.68 261.62 L 357.67 256.44 L 351.98 253.24 L 345.60 251.22 L 339.84 250.37 L 334.18 250.67 L 328.77 251.79 L 323.98 253.48 L 319.83 255.68 L 316.10 258.29 L 312.90 261.32 L 310.16 264.65 L 307.91 268.17 L 306.17 271.82 L 304.97 275.52 L 304.01 278.90 Z" />
</symbol>
<symbol id="bl2">
<path d="M 303.58 283.46 L 303.84 280.57 L 304.38 277.76 L 304.99 274.92 L 303.96 272.27 L 302.09 270.13 L 299.37 268.87 L 296.35 268.92 L 293.85 270.12 L 292.22 271.92 L 291.33 274.09 L 291.02 276.44 L 291.10 278.94 L 291.48 281.59 L 292.11 284.35 L 292.94 287.22 L 293.95 290.19 L 295.12 293.26 L 296.47 296.41 L 297.97 299.64 L 299.65 302.93 L 301.17 306.40 L 301.93 310.29 L 302.79 314.21 L 301.97 318.48 L 301.42 322.33 L 302.09 325.76 L 304.82 328.65 L 308.60 329.09 L 312.27 326.01 L 312.45 321.97 L 309.81 318.90 L 307.60 316.02 L 307.36 312.10 L 307.12 308.41 L 306.72 304.93 L 306.22 301.60 L 305.66 298.40 L 305.09 295.31 L 304.42 292.34 L 303.91 289.39 L 303.63 286.40 Z" />
</symbol>
<symbol id="bl3">
<path d="M 291.65 307.47 L 291.14 308.72 L 290.80 309.91 L 290.62 311.05 L 290.60 312.13 L 290.75 313.15 L 291.07 314.12 L 291.56 315.03 L 292.21 315.89 L 293.02 316.70 L 293.97 317.49 L 295.06 318.25 L 296.26 319.03 L 297.60 319.77 L 299.09 319.96 L 300.67 319.55 L 302.29 319.09 L 303.97 318.69 L 305.73 318.41 L 307.66 318.28 L 309.45 318.72 L 310.90 319.65 L 312.63 320.31 L 314.40 320.16 L 316.10 319.79 L 317.43 318.22 L 318.12 316.54 L 318.36 315.20 L 318.19 313.98 L 317.90 312.99 L 317.54 312.34 L 317.44 312.22 L 315.04 310.30 L 313.72 309.16 L 312.21 307.90 L 310.54 306.82 L 308.76 305.93 L 306.90 305.18 L 305.00 304.55 L 303.07 304.03 L 301.16 303.58 L 299.30 303.19 L 297.51 302.84 L 295.84 302.93 L 294.31 303.66 L 293.15 304.84 L 292.32 306.17 Z" />
</symbol>
</defs>
<!-- isDone: 0 -->
<rect width="700" height="500" style="fill:#fff;stroke-width:0" />
<use class="p0 borderLine" xlink:href="#bl0"/>
<use class="p1 borderLine" xlink:href="#bl1"/>
<use class="p2 borderLine" xlink:href="#bl2"/>
<use class="p3 borderLine" xlink:href="#bl3"/>
<use class="q0 outLine" xlink:href="#bl0"/>
<use class="q1 outLine" xlink:href="#bl1"/>
<use class="q2 outLine" xlink:href="#bl2"/>
<use class="q3 outLine" xlink:href="#bl3"/>
<circle onclick="fromCircle(1)" class="circle" cx="243.7858" cy="367.3831" r="29.9705" />
<text class="tLabel" x="243.79" y="347.38"></text>
<text class="nLabel" x="243.79" y="362.38">1378</text>
<text class="belong" x="243.79" y="372.38">(1)</text>
<circle onclick="fromCircle(2)" class="circle" cx="338.4077" cy="284.8355" r="34.3106" />
<text class="tLabel" x="338.41" y="264.84"></text>
<text class="nLabel" x="338.41" y="279.84">1806</text>
<text class="belong" x="338.41" y="289.84">(2)</text>
<circle onclick="fromCircle(6)" class="spcircle" cx="299.5802" cy="288.4884" r="4.2274" />
<text class="tLabel" x="299.58" y="268.49"></text>
<text class="nLabel" x="299.58" y="283.49">8</text>
<text class="belong" x="299.58" y="293.49">(2, 3)</text>
<circle onclick="fromCircle(10)" class="circle" cx="296.7845" cy="307.2354" r="4.3478" />
<text class="tLabel" x="296.78" y="287.24"></text>
<text class="nLabel" x="296.78" y="302.24">29</text>
<text class="belong" x="296.78" y="312.24">(2, 4)</text>
<circle onclick="fromCircle(4)" class="circle" cx="297.9629" cy="275.4771" r="6.7549" />
<text class="tLabel" x="297.96" y="255.48"></text>
<text class="nLabel" x="297.96" y="270.48">70</text>
<text class="belong" x="297.96" y="280.48">(3)</text>
<circle onclick="fromCircle(5)" class="circle" cx="307.2774" cy="323.7551" r="5.4758" />
<text class="tLabel" x="307.28" y="303.76"></text>
<text class="nLabel" x="307.28" y="318.76">46</text>
<text class="belong" x="307.28" y="328.76">(1, 3)</text>
<circle onclick="fromCircle(8)" class="circle" cx="313.2088" cy="315.0459" r="5.0420" />
<text class="tLabel" x="313.21" y="295.05"></text>
<text class="nLabel" x="313.21" y="310.05">39</text>
<text class="belong" x="313.21" y="320.05">(4)</text>
<circle onclick="fromCircle(9)" class="circle" cx="298.8183" cy="315.6630" r="4.2274" />
<text class="tLabel" x="298.82" y="295.66"></text>
<text class="nLabel" x="298.82" y="310.66">6</text>
<text class="belong" x="298.82" y="320.66">(1, 4)</text>
<rect class="p0 borderLine" x="500.00" y="50.00" width="30.00" height="15.00" />
<rect class="q0" x="500.00" y="50.00" width="30.00" height="15.00" />
<text class="legend" x="540.00" y="65.00">Up_in_POU3F2_KO_iNs</text>
<rect class="p1 borderLine" x="500.00" y="90.00" width="30.00" height="15.00" />
<rect class="q1" x="500.00" y="90.00" width="30.00" height="15.00" />
<text class="legend" x="540.00" y="105.00">Down_in_POU3F2_KO_iNs</text>
<rect class="p2 borderLine" x="500.00" y="130.00" width="30.00" height="15.00" />
<rect class="q2" x="500.00" y="130.00" width="30.00" height="15.00" />
<text class="legend" x="540.00" y="145.00">Up_in_VGF_KO_iNs</text>
<rect class="p3 borderLine" x="500.00" y="170.00" width="30.00" height="15.00" />
<rect class="q3" x="500.00" y="170.00" width="30.00" height="15.00" />
<text class="legend" x="540.00" y="185.00">Down_in_VGF_KO_iNs</text>
</svg>
