<svg xmlns="http://www.w3.org/2000/svg" xmlns:xlink="http://www.w3.org/1999/xlink" width="700" height="500">
<defs>
<style type="text/css"><![CDATA[
  .borderLine {
	   stroke: none;
	   fill-opacity: 0.4;
  }
  .outLine {
	   stroke-width: 1;
	   fill: none;
  }
  .circle {
	   stroke: #888888;
	   stroke-width: 0.5;
	   fill: none;
    pointer-events: all;
  }
  .spcircle {
	   stroke: #FF2222;
	   stroke-width: 1;
	   fill: none;
    pointer-events: all;
  }
  .tLabel {
	   font-family: Arial;
    pointer-events: none;
	   font-size: 14px;
	   text-anchor: middle;
	   alignment-baseline: central;
  }
  .nLabel {
	   font-family: Arial;
    pointer-events: none;
	   font-size: 10px;
	   text-anchor: middle;
	   alignment-baseline: central;
  }
  .belong {
	   font-family: Arial;
    pointer-events: none;
	   font-size: 5px;
	   text-anchor: middle;
	   alignment-baseline: central;
  }
  .p0{
    stroke: none;
    fill: #e6194b;
  }
  .q0{
    fill: none;
    stroke: #e6194b;
  }
  .p1{
    stroke: none;
    fill: #3cb44b;
  }
  .q1{
    fill: none;
    stroke: #3cb44b;
  }
  .p2{
    stroke: none;
    fill: #ffe119;
  }
  .q2{
    fill: none;
    stroke: #ffe119;
  }
  .p3{
    stroke: none;
    fill: #0082c8;
  }
  .q3{
    fill: none;
    stroke: #0082c8;
  }
  .p4{
    stroke: none;
    fill: #f58231;
  }
  .q4{
    fill: none;
    stroke: #f58231;
  }
  .p5{
    stroke: none;
    fill: #911eb4;
  }
  .q5{
    fill: none;
    stroke: #911eb4;
  }
  .p6{
    stroke: none;
    fill: #46f0f0;
  }
  .q6{
    fill: none;
    stroke: #46f0f0;
  }
  .p7{
    stroke: none;
    fill: #f032e6;
  }
  .q7{
    fill: none;
    stroke: #f032e6;
  }
]]>
</style>
<symbol id="bl0">
<path d="M 73.01 170.65 L 69.70 173.36 L 66.39 176.10 L 63.08 178.83 L 59.76 181.58 L 56.46 184.34 L 53.15 187.10 L 49.84 189.87 L 46.53 192.65 L 43.21 195.41 L 39.83 198.11 L 36.55 200.95 L 33.38 203.92 L 30.43 207.11 L 27.63 210.44 L 25.00 213.92 L 22.57 217.55 L 20.29 221.28 L 18.31 225.19 L 16.50 229.18 L 14.87 233.27 L 13.53 237.46 L 12.27 241.70 L 11.20 246.00 L 10.65 250.40 L 10.13 254.82 L 10.11 259.27 L 10.00 263.73 L 10.34 268.18 L 10.93 272.62 L 11.72 277.02 L 12.96 281.33 L 14.18 285.64 L 15.78 289.84 L 17.40 294.03 L 19.57 297.98 L 21.67 301.96 L 24.15 305.73 L 26.81 309.38 L 29.68 312.88 L 32.73 316.22 L 35.97 319.39 L 39.35 322.41 L 43.03 325.07 L 46.73 327.70 L 50.64 330.03 L 54.57 332.31 L 58.74 334.15 L 62.99 335.77 L 67.31 337.20 L 71.71 338.39 L 76.17 339.25 L 80.67 339.94 L 85.19 340.36 L 89.74 340.61 L 94.28 340.57 L 98.80 340.19 L 103.30 339.53 L 107.74 338.68 L 112.17 337.67 L 116.56 336.55 L 120.92 335.34 L 125.29 334.15 L 129.66 332.98 L 134.03 331.83 L 138.41 330.67 L 142.78 329.53 L 147.15 328.38 L 151.51 327.24 L 155.87 326.11 L 160.22 324.98 L 164.58 323.85 L 168.91 322.73 L 173.25 321.61 L 177.56 320.51 L 181.87 319.40 L 186.17 318.30 L 190.46 317.21 L 194.76 316.20 L 199.23 315.96 L 203.58 315.08 L 207.81 313.77 L 212.08 312.66 L 216.35 311.58 L 220.60 310.49 L 225.03 309.93 L 229.37 310.79 L 233.69 311.71 L 237.78 313.30 L 241.56 315.80 L 246.44 315.65 L 251.00 315.87 L 255.34 315.83 L 259.59 315.40 L 264.67 312.94 L 268.57 311.85 L 272.49 311.43 L 276.64 310.90 L 280.89 310.64 L 285.15 310.55 L 289.41 310.48 L 293.67 310.43 L 297.91 310.51 L 302.15 311.11 L 306.49 311.56 L 310.89 311.73 L 315.31 311.04 L 319.59 309.73 L 323.66 307.85 L 327.35 305.32 L 330.49 302.23 L 333.02 298.72 L 335.28 294.73 L 336.86 290.36 L 337.46 286.13 L 337.44 282.18 L 336.98 278.16 L 336.02 274.18 L 334.47 270.37 L 332.30 266.90 L 330.03 263.50 L 327.59 260.18 L 325.29 256.72 L 323.08 253.19 L 321.40 249.37 L 320.12 245.43 L 319.32 241.35 L 318.71 237.19 L 319.05 233.02 L 319.54 228.86 L 320.56 224.85 L 321.38 220.80 L 322.30 216.79 L 323.47 212.80 L 324.16 208.64 L 324.43 204.57 L 323.70 200.42 L 321.12 196.80 L 317.66 194.21 L 313.59 193.02 L 309.37 193.11 L 305.32 194.48 L 301.75 196.65 L 298.24 198.77 L 294.60 200.28 L 290.88 200.79 L 287.08 201.17 L 282.51 200.14 L 278.22 199.45 L 273.71 199.35 L 270.27 198.09 L 266.88 196.47 L 263.80 194.07 L 261.49 190.95 L 259.64 187.54 L 257.40 183.75 L 255.10 180.16 L 251.59 177.71 L 249.47 174.06 L 248.52 169.93 L 249.00 166.03 L 252.03 163.46 L 252.09 158.41 L 253.93 153.50 L 255.12 149.28 L 256.63 145.67 L 259.61 142.79 L 262.89 140.11 L 266.33 137.73 L 269.42 135.03 L 271.47 131.43 L 272.26 127.35 L 271.68 123.22 L 269.78 119.50 L 266.77 116.63 L 263.00 114.86 L 258.86 114.40 L 254.80 115.32 L 251.05 116.94 L 247.28 118.55 L 243.52 120.16 L 239.75 121.78 L 235.98 123.41 L 232.18 124.97 L 228.21 126.18 L 224.04 127.14 L 219.89 128.62 L 216.56 131.28 L 214.76 134.80 L 212.22 139.34 L 210.00 142.73 L 207.04 145.50 L 203.77 148.01 L 200.10 149.98 L 196.09 151.24 L 191.92 151.65 L 187.73 151.51 L 183.62 150.68 L 179.69 149.19 L 176.01 147.15 L 172.73 144.47 L 169.89 141.33 L 167.42 137.97 L 164.69 134.85 L 161.62 132.06 L 158.21 129.68 L 154.54 127.69 L 150.61 126.08 L 146.53 125.18 L 142.35 124.70 L 138.12 124.72 L 133.87 125.17 L 129.72 126.27 L 125.74 127.92 L 122.01 130.09 L 118.53 132.62 L 115.44 135.59 L 112.61 138.67 L 109.36 141.35 L 106.07 143.98 L 102.78 146.62 L 99.48 149.26 L 96.19 151.90 L 92.87 154.55 L 89.57 157.21 L 86.26 159.88 L 82.95 162.55 L 79.64 165.24 L 76.32 167.94 Z" />
</symbol>
<symbol id="bl1">
<path d="M 215.40 162.72 L 218.06 165.72 L 220.66 168.65 L 222.58 172.01 L 223.90 175.63 L 224.83 179.32 L 225.24 183.02 L 225.80 186.55 L 224.92 190.46 L 224.38 194.63 L 224.15 198.67 L 225.08 202.24 L 226.71 205.80 L 228.51 209.31 L 230.41 212.69 L 232.31 216.04 L 234.18 219.41 L 236.03 222.77 L 237.88 226.12 L 239.72 229.47 L 241.54 232.83 L 243.24 236.22 L 244.46 239.83 L 245.52 243.57 L 247.27 247.05 L 249.55 250.30 L 252.13 253.35 L 254.82 256.10 L 257.85 258.19 L 261.45 260.01 L 264.92 262.15 L 268.32 264.05 L 270.90 266.41 L 273.39 268.94 L 275.74 271.72 L 277.72 274.81 L 279.35 278.14 L 280.54 281.70 L 280.83 285.46 L 281.25 289.16 L 282.34 292.72 L 283.70 296.18 L 285.63 299.32 L 287.30 302.57 L 288.85 305.86 L 290.40 309.16 L 291.94 312.44 L 293.50 315.70 L 295.07 318.95 L 296.66 322.18 L 298.21 325.42 L 299.72 328.67 L 301.00 332.01 L 301.98 335.42 L 302.96 338.82 L 303.99 342.19 L 305.06 345.54 L 306.55 348.71 L 308.52 351.61 L 310.93 354.14 L 313.68 356.30 L 316.75 357.97 L 320.06 359.05 L 323.46 359.65 L 326.93 359.76 L 330.36 359.27 L 333.68 358.25 L 336.76 356.68 L 339.62 354.74 L 342.31 352.61 L 345.02 350.50 L 347.73 348.40 L 350.45 346.32 L 353.17 344.23 L 355.89 342.14 L 358.60 340.05 L 361.31 337.96 L 364.02 335.87 L 366.74 333.78 L 369.45 331.68 L 372.16 329.59 L 374.95 327.60 L 377.94 325.88 L 380.76 323.81 L 383.28 321.37 L 385.52 318.66 L 387.41 315.70 L 388.96 312.56 L 390.09 309.28 L 390.89 305.93 L 391.64 302.60 L 392.67 299.37 L 393.77 296.15 L 394.87 292.94 L 395.96 289.74 L 397.05 286.54 L 398.15 283.34 L 399.33 280.19 L 400.83 277.18 L 402.01 273.93 L 402.51 270.58 L 403.21 267.30 L 404.05 264.05 L 404.90 260.81 L 405.75 257.57 L 406.59 254.34 L 407.41 251.11 L 408.22 247.88 L 409.02 244.65 L 409.81 241.43 L 410.58 238.21 L 411.36 235.01 L 412.13 231.81 L 412.90 228.62 L 413.66 225.43 L 414.42 222.25 L 415.16 219.08 L 415.91 215.91 L 416.64 212.75 L 417.37 209.59 L 418.09 206.44 L 418.06 203.20 L 417.19 200.07 L 415.56 197.26 L 413.26 194.95 L 410.44 193.31 L 407.28 192.43 L 403.98 192.39 L 400.73 192.86 L 397.45 193.34 L 394.16 193.83 L 390.85 194.32 L 387.53 194.83 L 384.19 195.33 L 380.84 195.84 L 377.48 196.36 L 374.10 196.87 L 370.71 197.39 L 367.31 197.91 L 363.90 198.44 L 360.47 198.95 L 357.02 199.47 L 353.58 200.06 L 350.10 200.47 L 346.60 201.07 L 343.18 202.06 L 339.90 203.46 L 336.62 204.82 L 333.06 205.19 L 329.56 204.48 L 326.45 202.81 L 323.91 200.38 L 322.12 197.35 L 321.31 193.92 L 320.45 190.40 L 320.00 186.79 L 319.64 183.15 L 319.30 179.51 L 318.99 175.87 L 318.93 172.30 L 319.13 168.65 L 319.18 163.71 L 319.31 160.19 L 318.84 156.27 L 317.65 152.28 L 315.91 148.44 L 313.69 144.83 L 310.99 141.55 L 307.91 138.63 L 304.49 136.18 L 300.67 134.55 L 296.85 132.95 L 292.71 132.56 L 289.20 130.97 L 285.89 128.91 L 282.61 126.81 L 279.33 124.71 L 276.04 122.59 L 272.76 120.49 L 269.48 118.39 L 266.21 116.26 L 262.56 114.76 L 258.62 114.41 L 254.76 115.31 L 251.21 116.88 L 247.63 118.41 L 244.05 119.95 L 240.48 121.49 L 236.90 123.04 L 233.31 124.54 L 229.56 125.61 L 225.55 126.13 L 221.67 127.59 L 218.01 129.69 L 215.24 132.69 L 213.46 136.45 L 211.46 140.82 L 209.33 144.17 L 208.58 148.19 L 209.05 152.42 L 210.35 156.44 L 212.44 160.01 Z" />
</symbol>
<symbol id="bl2">
<path d="M 165.45 133.34 L 166.90 136.61 L 168.63 139.68 L 170.50 142.57 L 171.95 145.64 L 173.05 148.83 L 173.81 152.10 L 174.20 155.43 L 174.33 158.77 L 174.13 162.10 L 173.56 165.35 L 172.61 168.42 L 171.51 171.52 L 169.83 175.23 L 167.96 178.18 L 167.06 181.58 L 166.91 185.25 L 167.29 188.89 L 168.17 192.39 L 169.46 195.67 L 171.28 198.62 L 172.48 201.72 L 173.33 204.95 L 174.13 208.18 L 174.94 211.40 L 175.74 214.61 L 176.55 217.83 L 177.36 221.03 L 178.16 224.24 L 178.98 227.43 L 179.78 230.63 L 180.60 233.80 L 181.42 236.99 L 182.23 240.16 L 183.29 243.26 L 184.78 246.17 L 186.67 248.81 L 188.94 251.14 L 191.52 253.10 L 194.35 254.67 L 197.18 256.21 L 200.04 257.72 L 202.89 259.22 L 205.73 260.74 L 208.51 262.36 L 211.26 263.98 L 213.83 265.88 L 216.10 268.12 L 218.15 270.55 L 219.92 273.19 L 221.38 276.00 L 222.51 278.94 L 223.37 281.95 L 223.83 285.07 L 223.91 288.49 L 223.98 291.75 L 224.22 294.77 L 225.29 297.79 L 226.28 300.88 L 227.32 304.01 L 229.84 306.04 L 231.62 308.53 L 233.01 311.26 L 234.37 314.01 L 235.72 316.76 L 236.80 319.64 L 237.77 322.55 L 238.75 325.46 L 239.72 328.36 L 240.70 331.25 L 241.68 334.14 L 242.65 337.02 L 243.63 339.89 L 244.61 342.75 L 245.58 345.60 L 246.18 348.57 L 247.27 351.41 L 248.77 354.05 L 250.45 356.57 L 252.35 358.91 L 254.45 361.06 L 256.77 362.96 L 259.14 364.70 L 261.31 366.70 L 263.48 368.70 L 265.65 370.70 L 267.83 372.68 L 270.02 374.66 L 272.22 376.63 L 274.42 378.60 L 276.63 380.55 L 278.85 382.51 L 281.07 384.45 L 283.31 386.38 L 285.54 388.31 L 287.77 390.24 L 290.00 392.17 L 292.27 394.05 L 294.60 395.89 L 297.17 397.39 L 299.94 398.54 L 302.85 399.32 L 305.87 399.68 L 308.93 399.62 L 311.96 399.13 L 314.93 398.23 L 317.76 396.90 L 320.40 395.20 L 322.74 393.08 L 324.81 390.68 L 326.48 387.98 L 327.79 385.09 L 328.49 382.07 L 329.62 379.25 L 330.98 376.48 L 332.35 373.71 L 333.71 370.93 L 335.08 368.14 L 336.46 365.34 L 337.84 362.53 L 339.22 359.71 L 340.62 356.88 L 342.03 354.05 L 343.46 351.20 L 344.87 348.34 L 346.26 345.43 L 347.08 342.30 L 347.52 339.10 L 347.52 335.85 L 346.95 332.65 L 345.99 329.54 L 344.59 326.59 L 342.77 323.87 L 340.53 321.48 L 337.91 319.54 L 335.10 317.87 L 332.07 316.67 L 328.90 315.91 L 325.74 315.13 L 322.58 314.36 L 319.42 313.57 L 316.25 312.79 L 313.08 312.04 L 309.86 312.03 L 306.49 311.78 L 303.10 311.36 L 299.87 310.27 L 296.67 309.02 L 293.58 307.45 L 290.76 305.43 L 288.21 303.08 L 286.01 300.44 L 284.45 297.38 L 282.84 294.44 L 281.60 291.32 L 280.86 288.02 L 280.88 284.62 L 280.43 281.29 L 280.92 277.98 L 281.82 274.72 L 283.20 271.64 L 284.85 268.75 L 286.65 265.98 L 288.81 263.45 L 291.41 261.20 L 294.40 259.07 L 297.19 256.83 L 300.01 254.44 L 302.76 252.30 L 304.69 249.27 L 305.99 245.82 L 307.41 242.41 L 308.38 238.88 L 309.68 235.56 L 311.27 232.36 L 312.94 229.20 L 314.63 226.04 L 316.35 222.88 L 318.14 219.76 L 320.09 216.72 L 322.03 213.56 L 323.48 210.12 L 324.30 206.53 L 324.10 202.95 L 323.29 199.36 L 321.69 195.84 L 320.83 192.24 L 320.25 188.60 L 319.87 184.91 L 319.51 181.21 L 319.16 177.50 L 319.00 173.77 L 319.48 170.04 L 319.13 165.67 L 319.35 162.07 L 319.26 158.27 L 318.42 154.37 L 317.02 150.55 L 315.15 146.92 L 312.81 143.54 L 310.05 140.50 L 306.93 137.80 L 303.48 135.50 L 299.76 133.64 L 295.83 132.24 L 291.74 131.32 L 287.57 130.89 L 283.40 130.97 L 279.31 131.57 L 275.36 132.65 L 271.61 134.19 L 268.29 136.36 L 264.87 138.55 L 261.62 140.86 L 258.57 143.44 L 256.32 146.34 L 255.93 149.56 L 254.06 153.69 L 252.24 158.14 L 251.70 162.20 L 249.42 165.08 L 246.41 167.56 L 243.01 169.53 L 239.25 170.66 L 235.43 171.28 L 231.63 170.89 L 227.92 170.37 L 224.29 169.39 L 220.99 167.60 L 217.98 165.39 L 215.29 162.68 L 212.45 160.13 L 210.45 156.79 L 209.13 153.04 L 208.53 149.08 L 208.93 145.26 L 211.33 142.62 L 212.93 138.62 L 214.26 135.04 L 215.37 131.64 L 215.87 128.12 L 215.81 124.57 L 215.27 121.07 L 214.43 117.62 L 212.99 114.36 L 211.10 111.35 L 208.78 108.68 L 206.16 106.31 L 203.27 104.25 L 200.06 102.73 L 196.75 101.43 L 193.25 100.72 L 189.67 100.42 L 186.08 100.78 L 182.54 101.56 L 178.98 102.51 L 175.75 104.27 L 173.01 106.72 L 170.20 109.14 L 168.12 112.15 L 167.51 115.61 L 165.85 119.31 L 164.65 122.63 L 164.27 126.20 L 164.58 129.83 Z" />
</symbol>
<symbol id="bl3">
<path d="M 146.61 103.95 L 144.21 106.30 L 142.40 108.96 L 140.24 111.33 L 138.01 113.64 L 135.77 115.95 L 133.54 118.26 L 131.31 120.59 L 129.09 122.92 L 126.87 125.26 L 124.64 127.59 L 122.33 129.83 L 119.41 131.35 L 117.23 133.90 L 114.89 136.27 L 112.82 138.91 L 111.07 141.78 L 109.52 144.78 L 108.36 147.96 L 107.50 151.25 L 106.99 154.60 L 106.81 158.00 L 107.05 161.39 L 107.52 164.75 L 108.34 168.05 L 109.53 171.24 L 111.08 174.27 L 112.88 177.14 L 114.93 179.83 L 117.20 182.34 L 119.69 184.63 L 122.47 186.56 L 125.55 188.02 L 128.67 189.50 L 131.84 190.79 L 135.07 191.96 L 138.32 193.13 L 141.58 194.31 L 144.84 195.50 L 148.10 196.70 L 151.37 197.90 L 154.66 199.11 L 157.95 200.32 L 161.24 201.53 L 164.54 202.74 L 167.84 203.96 L 171.15 205.20 L 174.46 206.44 L 177.78 207.68 L 181.10 208.94 L 184.27 210.51 L 187.57 211.97 L 191.11 212.79 L 194.71 213.22 L 198.34 213.39 L 201.90 212.79 L 205.52 212.82 L 209.11 213.45 L 212.55 214.67 L 215.75 216.46 L 218.62 218.74 L 221.20 221.34 L 223.79 223.93 L 226.40 226.52 L 229.01 229.11 L 231.64 231.70 L 234.28 234.29 L 236.92 236.88 L 239.58 239.48 L 242.22 242.08 L 244.86 244.70 L 247.37 247.44 L 249.63 250.48 L 252.06 253.44 L 254.78 256.04 L 257.79 258.18 L 261.62 259.49 L 265.23 262.20 L 269.08 263.68 L 272.61 265.33 L 276.52 266.16 L 280.70 265.98 L 284.59 264.84 L 287.95 262.70 L 291.25 260.20 L 295.08 258.45 L 298.88 256.90 L 302.37 255.85 L 305.95 255.23 L 309.65 255.06 L 313.40 255.30 L 317.15 255.87 L 320.71 257.26 L 324.11 259.12 L 327.46 261.14 L 330.72 263.44 L 334.06 265.69 L 337.45 267.92 L 341.08 269.80 L 344.94 271.17 L 348.96 272.09 L 353.06 272.58 L 357.20 272.53 L 361.30 271.99 L 365.29 270.88 L 369.18 269.47 L 372.89 267.68 L 376.25 265.40 L 379.33 262.73 L 382.11 259.58 L 384.71 256.26 L 386.83 252.68 L 388.62 248.92 L 389.80 244.94 L 390.41 240.82 L 390.73 236.65 L 390.57 232.47 L 389.93 228.34 L 388.79 224.30 L 387.19 220.41 L 385.15 216.74 L 382.69 213.32 L 379.84 210.22 L 376.65 207.47 L 373.16 205.12 L 369.43 203.19 L 365.49 201.71 L 361.42 200.72 L 357.27 200.20 L 353.10 200.17 L 348.96 200.62 L 344.91 201.54 L 340.99 202.92 L 337.26 204.74 L 333.77 206.96 L 330.22 209.05 L 326.72 211.20 L 323.24 213.36 L 319.70 215.41 L 316.15 217.40 L 312.15 218.14 L 308.14 217.68 L 304.55 215.93 L 301.68 213.22 L 299.83 209.81 L 299.02 205.85 L 299.56 201.85 L 301.45 198.42 L 304.03 195.50 L 307.43 193.40 L 310.83 191.35 L 314.22 189.33 L 317.61 187.30 L 320.98 185.25 L 324.36 183.21 L 327.69 181.14 L 331.50 179.92 L 335.38 179.16 L 339.04 177.46 L 342.02 174.62 L 343.94 170.64 L 344.62 166.70 L 343.82 162.57 L 341.65 158.94 L 338.51 156.24 L 334.81 154.59 L 331.16 153.32 L 327.69 151.74 L 324.28 150.05 L 320.89 148.36 L 317.50 146.68 L 314.15 144.99 L 310.96 143.08 L 308.53 140.17 L 305.40 137.79 L 302.32 135.36 L 298.88 133.34 L 295.01 132.01 L 290.95 131.19 L 286.84 130.86 L 282.75 131.02 L 278.73 131.59 L 274.83 132.48 L 271.38 134.19 L 268.20 136.17 L 265.17 138.46 L 261.72 139.55 L 258.10 139.64 L 254.62 138.70 L 251.53 136.81 L 249.09 133.99 L 246.91 131.43 L 244.01 129.63 L 241.05 127.94 L 238.15 126.18 L 235.29 124.37 L 232.45 122.55 L 229.60 120.75 L 226.76 118.95 L 223.93 117.16 L 221.09 115.38 L 218.27 113.60 L 215.44 111.84 L 212.62 110.08 L 209.81 108.32 L 207.00 106.57 L 204.18 104.85 L 201.27 103.27 L 198.28 101.79 L 195.05 100.89 L 191.73 100.32 L 188.39 100.39 L 185.15 101.07 L 181.91 101.32 L 178.66 101.41 L 175.40 101.47 L 172.16 101.52 L 168.93 101.56 L 165.70 101.61 L 162.47 101.64 L 159.26 101.64 L 156.05 101.42 L 152.75 101.41 L 149.51 102.26 Z" />
</symbol>
<symbol id="bl4">
<path d="M 184.87 261.00 L 181.82 262.45 L 178.90 264.15 L 176.33 266.35 L 173.88 268.67 L 171.89 271.39 L 170.16 274.27 L 169.14 277.44 L 168.20 280.70 L 167.41 283.89 L 167.13 287.17 L 167.23 290.46 L 167.77 293.70 L 168.72 296.84 L 169.95 299.86 L 171.45 302.74 L 172.93 305.60 L 174.31 308.51 L 175.66 311.42 L 177.02 314.33 L 178.38 317.23 L 179.73 320.14 L 181.09 323.04 L 182.45 325.93 L 183.82 328.82 L 185.18 331.72 L 186.51 334.62 L 188.41 337.23 L 190.91 339.29 L 193.86 340.64 L 197.05 341.20 L 200.29 340.94 L 203.35 339.87 L 206.30 338.62 L 209.27 337.41 L 212.25 336.22 L 215.37 335.45 L 218.56 335.05 L 221.77 335.03 L 224.97 335.43 L 228.09 336.24 L 231.09 337.45 L 233.91 339.03 L 236.51 340.96 L 238.86 343.19 L 241.00 345.61 L 243.14 348.03 L 245.29 350.43 L 247.45 352.83 L 249.53 355.29 L 251.44 357.93 L 253.69 360.31 L 256.19 362.45 L 258.80 364.51 L 261.73 366.10 L 264.87 367.27 L 268.12 368.15 L 271.46 368.65 L 274.85 368.92 L 278.25 368.54 L 281.63 367.88 L 284.89 366.77 L 287.96 365.26 L 290.15 362.74 L 293.33 360.50 L 295.98 358.56 L 297.96 355.85 L 299.66 352.86 L 300.97 349.68 L 301.82 346.37 L 302.36 343.01 L 302.54 339.68 L 303.25 336.43 L 304.13 333.21 L 305.08 330.00 L 306.50 326.95 L 308.36 324.14 L 310.68 321.68 L 313.32 319.55 L 316.28 317.87 L 319.47 316.65 L 322.82 315.92 L 326.26 315.72 L 329.70 316.07 L 333.03 316.99 L 336.16 318.47 L 339.09 320.29 L 342.01 322.16 L 344.88 324.07 L 347.79 325.91 L 350.84 327.53 L 354.05 328.82 L 357.41 329.70 L 360.86 330.25 L 364.39 330.34 L 367.89 329.88 L 371.34 329.05 L 374.66 327.73 L 377.78 325.98 L 380.65 323.85 L 383.25 321.39 L 385.55 318.63 L 387.49 315.60 L 389.04 312.34 L 390.16 308.91 L 390.83 305.37 L 391.06 301.77 L 390.85 298.17 L 390.18 294.63 L 389.06 291.20 L 387.54 287.95 L 385.68 284.87 L 383.41 282.09 L 380.68 279.71 L 377.84 277.62 L 374.67 276.05 L 371.39 274.77 L 368.00 273.90 L 364.54 273.40 L 361.07 272.95 L 357.58 272.74 L 354.07 272.54 L 350.55 272.24 L 347.06 271.67 L 343.63 270.77 L 340.27 269.56 L 337.05 267.99 L 334.08 266.00 L 331.31 263.74 L 328.74 261.27 L 326.36 258.60 L 324.30 255.68 L 322.62 252.54 L 321.09 249.35 L 319.49 246.21 L 317.84 243.10 L 316.16 240.02 L 314.48 236.93 L 312.80 233.86 L 311.12 230.77 L 309.48 227.68 L 307.98 224.50 L 306.58 221.26 L 304.74 218.14 L 302.62 215.11 L 300.85 211.97 L 298.54 209.01 L 296.45 206.13 L 293.76 203.72 L 290.61 202.11 L 287.12 201.72 L 282.85 201.14 L 279.11 199.30 L 274.88 200.01 L 271.27 199.61 L 267.76 199.30 L 264.20 200.23 L 260.96 201.95 L 258.28 204.34 L 255.48 207.41 L 253.28 210.14 L 250.52 212.98 L 248.14 215.30 L 246.36 218.19 L 244.58 221.11 L 242.44 223.81 L 240.18 226.41 L 237.91 229.01 L 235.63 231.60 L 233.35 234.20 L 231.07 236.79 L 228.78 239.38 L 226.50 241.97 L 224.21 244.56 L 221.92 247.13 L 219.61 249.66 L 217.08 251.97 L 214.25 253.87 L 211.15 255.29 L 207.89 256.23 L 204.59 256.93 L 201.28 257.59 L 197.97 258.21 L 194.67 258.80 L 191.39 259.45 L 188.09 260.02 Z" />
</symbol>
<symbol id="bl5">
<path d="M 245.28 224.00 L 244.52 227.13 L 243.71 230.32 L 242.89 233.59 L 242.58 236.92 L 242.92 240.21 L 243.96 243.32 L 245.62 246.12 L 247.72 248.64 L 249.82 251.08 L 251.74 253.58 L 253.69 256.00 L 255.95 257.96 L 258.56 259.12 L 261.54 260.36 L 264.88 261.82 L 267.79 263.53 L 270.58 264.77 L 273.22 266.25 L 276.37 266.72 L 279.68 266.64 L 282.92 266.15 L 285.63 264.88 L 287.53 262.44 L 290.85 261.29 L 293.84 259.37 L 296.60 256.75 L 299.16 255.23 L 301.77 253.91 L 303.82 251.74 L 305.35 248.95 L 306.51 245.96 L 307.35 242.88 L 307.84 239.76 L 308.01 236.64 L 307.95 233.54 L 307.72 230.45 L 307.41 227.39 L 306.87 224.36 L 306.12 221.39 L 304.87 218.64 L 303.08 216.29 L 301.78 213.46 L 300.30 210.86 L 299.20 207.83 L 298.96 204.77 L 299.64 201.77 L 300.96 198.94 L 302.90 196.57 L 305.28 194.58 L 308.26 193.35 L 311.41 192.77 L 314.61 193.16 L 317.60 194.29 L 320.14 196.04 L 322.48 198.10 L 324.40 200.83 L 326.76 202.88 L 329.44 204.33 L 332.47 205.08 L 335.65 204.90 L 338.70 204.10 L 341.54 202.66 L 344.59 201.72 L 347.59 200.64 L 350.60 199.58 L 353.63 198.53 L 356.67 197.47 L 359.71 196.40 L 362.76 195.34 L 365.90 194.51 L 368.97 193.24 L 371.79 191.41 L 374.24 189.06 L 376.21 186.27 L 377.63 183.15 L 378.43 179.79 L 378.57 176.35 L 378.04 172.94 L 376.89 169.71 L 375.14 166.76 L 372.89 164.21 L 370.21 162.15 L 367.22 160.64 L 364.04 159.69 L 360.78 159.26 L 357.54 158.87 L 354.33 158.38 L 351.11 157.88 L 347.90 157.36 L 344.69 156.85 L 341.49 156.32 L 338.31 155.68 L 335.22 154.69 L 331.88 154.35 L 328.59 154.76 L 325.62 156.08 L 323.13 158.01 L 321.18 160.38 L 319.93 162.97 L 319.13 165.62 L 318.88 169.32 L 318.77 172.62 L 318.41 175.94 L 316.53 178.77 L 315.37 181.78 L 314.04 184.71 L 312.41 187.48 L 310.39 189.88 L 307.78 191.59 L 305.11 193.57 L 302.66 195.61 L 299.90 197.55 L 297.51 199.67 L 294.70 201.00 L 291.85 201.53 L 289.42 202.07 L 286.73 201.87 L 282.67 201.44 L 278.63 199.86 L 274.68 200.01 L 271.59 199.25 L 268.51 198.81 L 265.27 199.46 L 262.13 200.76 L 259.45 202.60 L 257.45 205.12 L 255.01 207.99 L 252.91 210.35 L 250.13 212.72 L 248.23 215.01 L 246.88 217.80 L 245.96 220.87 Z" />
</symbol>
<symbol id="bl6">
<path d="M 195.21 355.93 L 194.81 359.56 L 194.95 363.21 L 195.62 366.80 L 196.79 370.26 L 198.48 373.51 L 200.61 376.50 L 203.13 379.16 L 206.03 381.42 L 209.24 383.24 L 212.69 384.58 L 216.30 385.45 L 220.02 385.72 L 223.76 385.48 L 227.43 384.65 L 230.96 383.31 L 234.26 381.46 L 237.26 379.11 L 239.84 376.31 L 242.01 373.17 L 243.71 369.74 L 244.88 366.08 L 245.47 362.28 L 245.46 358.43 L 244.86 354.62 L 243.96 350.89 L 243.03 347.16 L 242.12 343.43 L 241.25 339.68 L 240.38 335.92 L 239.52 332.16 L 238.68 328.40 L 237.85 324.63 L 237.02 320.86 L 235.89 317.12 L 234.20 313.66 L 232.47 310.22 L 230.42 306.99 L 227.80 304.09 L 226.40 300.31 L 224.90 296.64 L 223.85 292.90 L 223.93 289.03 L 223.98 284.85 L 224.37 280.98 L 225.67 277.33 L 227.36 273.83 L 229.45 270.59 L 231.93 267.66 L 234.80 265.13 L 237.98 263.04 L 241.19 260.89 L 244.83 259.61 L 248.62 259.01 L 252.43 259.00 L 256.17 259.30 L 259.99 259.76 L 263.96 260.67 L 267.46 263.12 L 271.39 264.51 L 275.15 265.92 L 279.29 266.11 L 283.34 265.33 L 286.77 263.31 L 290.54 261.34 L 294.44 259.20 L 297.95 256.60 L 300.48 253.53 L 303.02 250.91 L 305.22 247.64 L 306.89 243.97 L 308.67 240.45 L 310.77 237.16 L 312.98 233.93 L 315.20 230.70 L 317.43 227.46 L 319.64 224.22 L 321.84 220.95 L 324.07 217.70 L 326.21 214.38 L 328.77 211.36 L 331.64 208.64 L 334.79 206.25 L 338.24 204.27 L 341.76 202.35 L 344.51 199.29 L 346.12 195.47 L 346.45 191.34 L 345.52 187.32 L 343.10 183.80 L 339.87 181.13 L 335.89 179.92 L 331.78 179.90 L 327.96 181.22 L 324.79 183.61 L 322.51 186.80 L 321.33 190.51 L 321.43 194.31 L 322.39 198.12 L 323.97 201.93 L 324.40 205.96 L 323.71 209.95 L 321.75 213.57 L 318.60 216.17 L 314.93 217.81 L 310.97 218.19 L 307.03 217.30 L 303.60 215.02 L 300.90 212.20 L 298.17 209.17 L 295.83 206.07 L 292.76 203.82 L 289.12 202.98 L 285.08 201.94 L 280.79 199.90 L 276.40 199.54 L 271.84 200.31 L 267.99 199.82 L 264.10 200.67 L 260.60 202.78 L 258.03 206.08 L 255.00 209.11 L 252.30 212.30 L 249.20 215.01 L 247.17 218.48 L 245.79 222.28 L 244.45 226.10 L 243.54 229.98 L 242.43 233.73 L 241.09 237.40 L 239.69 241.03 L 238.29 244.65 L 236.89 248.26 L 235.49 251.87 L 234.10 255.47 L 232.70 259.07 L 231.30 262.66 L 229.90 266.25 L 228.52 269.83 L 227.15 273.42 L 225.73 277.00 L 224.38 280.65 L 224.06 284.44 L 223.90 288.50 L 223.66 292.24 L 222.76 295.82 L 221.51 299.37 L 219.91 302.80 L 218.29 306.22 L 216.64 309.62 L 215.01 313.01 L 213.39 316.39 L 212.06 319.93 L 211.40 323.60 L 210.74 327.27 L 210.08 330.93 L 208.83 334.48 L 206.61 337.50 L 204.08 340.20 L 201.68 342.99 L 199.35 345.83 L 197.48 348.99 L 196.08 352.38 Z" />
</symbol>
<symbol id="bl7">
<path d="M 393.39 208.74 L 394.48 211.24 L 396.08 213.46 L 398.12 215.28 L 400.50 216.63 L 403.10 217.42 L 405.79 217.66 L 408.46 217.31 L 410.99 216.42 L 413.39 215.33 L 415.79 214.25 L 418.16 213.19 L 420.53 212.12 L 422.88 211.08 L 425.21 210.04 L 427.53 209.01 L 429.83 208.00 L 432.12 207.00 L 434.39 206.01 L 436.64 205.04 L 438.88 204.09 L 441.10 203.15 L 443.30 202.22 L 445.49 201.32 L 447.65 200.42 L 449.80 199.55 L 451.93 198.69 L 454.04 197.86 L 456.14 197.03 L 458.21 196.24 L 460.26 195.46 L 462.30 194.71 L 464.31 193.97 L 466.28 193.18 L 468.16 192.25 L 469.97 191.25 L 471.70 190.18 L 473.33 188.99 L 474.88 187.76 L 476.35 186.46 L 477.73 185.11 L 479.00 183.70 L 480.18 182.26 L 481.24 180.75 L 482.24 179.23 L 483.13 177.69 L 483.94 176.14 L 484.66 174.58 L 485.32 173.01 L 485.85 171.44 L 486.35 169.88 L 486.72 168.32 L 487.10 166.79 L 487.47 165.29 L 487.80 163.81 L 488.13 162.36 L 488.42 160.93 L 488.69 159.53 L 488.93 158.15 L 489.16 156.80 L 489.35 155.47 L 489.52 154.16 L 489.67 152.89 L 489.79 151.63 L 489.88 150.40 L 489.95 149.19 L 489.99 148.01 L 490.00 146.86 L 489.98 145.73 L 489.95 144.62 L 489.88 143.54 L 489.79 142.49 L 489.67 141.46 L 489.52 140.46 L 489.35 139.49 L 489.15 138.54 L 488.93 137.61 L 488.67 136.72 L 488.39 135.85 L 488.09 135.01 L 487.76 134.19 L 487.40 133.40 L 487.01 132.64 L 486.60 131.90 L 486.16 131.19 L 485.69 130.51 L 485.20 129.86 L 484.68 129.23 L 484.13 128.62 L 483.56 128.05 L 482.96 127.50 L 482.33 126.98 L 481.67 126.49 L 480.99 126.02 L 480.28 125.59 L 479.54 125.17 L 478.78 124.79 L 477.99 124.43 L 477.18 124.10 L 476.33 123.80 L 475.46 123.52 L 474.57 123.27 L 473.65 123.04 L 472.70 122.84 L 471.72 122.67 L 470.72 122.52 L 469.69 122.40 L 468.64 122.31 L 467.56 122.24 L 466.46 122.20 L 465.32 122.18 L 464.17 122.19 L 462.98 122.23 L 461.78 122.29 L 460.54 122.38 L 459.29 122.50 L 458.00 122.64 L 456.69 122.81 L 455.36 122.99 L 454.00 123.20 L 452.62 123.44 L 451.21 123.70 L 449.77 123.98 L 448.31 124.28 L 446.82 124.61 L 445.32 124.97 L 443.78 125.36 L 442.21 125.73 L 440.65 126.22 L 439.07 126.76 L 437.49 127.40 L 435.92 128.13 L 434.35 128.94 L 432.81 129.84 L 431.29 130.84 L 429.79 131.93 L 428.34 133.12 L 426.92 134.39 L 425.56 135.78 L 424.24 137.24 L 422.99 138.79 L 421.84 140.45 L 420.76 142.19 L 419.76 144.01 L 418.86 145.91 L 418.05 147.88 L 417.20 149.87 L 416.39 151.90 L 415.55 153.94 L 414.70 156.00 L 413.81 158.08 L 412.91 160.18 L 411.98 162.29 L 411.04 164.43 L 410.08 166.58 L 409.10 168.75 L 408.10 170.93 L 407.09 173.13 L 406.06 175.35 L 405.01 177.58 L 403.93 179.83 L 402.84 182.09 L 401.73 184.37 L 400.61 186.65 L 399.46 188.96 L 398.30 191.27 L 397.12 193.60 L 395.92 195.95 L 394.71 198.30 L 393.56 200.72 L 392.93 203.35 L 392.87 206.06 Z" />
</symbol>
</defs>
<!-- isDone: 0 -->
<rect width="700" height="500" style="fill:#fff;stroke-width:0" />
<use class="p0 borderLine" xlink:href="#bl0"/>
<use class="p1 borderLine" xlink:href="#bl1"/>
<use class="p2 borderLine" xlink:href="#bl2"/>
<use class="p3 borderLine" xlink:href="#bl3"/>
<use class="p4 borderLine" xlink:href="#bl4"/>
<use class="p5 borderLine" xlink:href="#bl5"/>
<use class="p6 borderLine" xlink:href="#bl6"/>
<use class="p7 borderLine" xlink:href="#bl7"/>
<use class="q0 outLine" xlink:href="#bl0"/>
<use class="q1 outLine" xlink:href="#bl1"/>
<use class="q2 outLine" xlink:href="#bl2"/>
<use class="q3 outLine" xlink:href="#bl3"/>
<use class="q4 outLine" xlink:href="#bl4"/>
<use class="q5 outLine" xlink:href="#bl5"/>
<use class="q6 outLine" xlink:href="#bl6"/>
<use class="q7 outLine" xlink:href="#bl7"/>
<circle onclick="fromCircle(1)" class="circle" cx="90.5862" cy="260.2857" r="66.8802" />
<text class="tLabel" x="90.59" y="240.29"></text>
<text class="nLabel" x="90.59" y="255.29">40</text>
<text class="belong" x="90.59" y="265.29">(1)</text>
<circle onclick="fromCircle(3)" class="circle" cx="259.5742" cy="127.0315" r="10.5747" />
<text class="tLabel" x="259.57" y="107.03"></text>
<text class="nLabel" x="259.57" y="122.03">1</text>
<text class="belong" x="259.57" y="132.03">(1, 2)</text>
<circle onclick="fromCircle(7)" class="circle" cx="311.7953" cy="205.4955" r="10.5747" />
<text class="tLabel" x="311.80" y="185.50"></text>
<text class="nLabel" x="311.80" y="200.50">1</text>
<text class="belong" x="311.80" y="210.50">(1, 2, 3)</text>
<circle onclick="fromCircle(15)" class="circle" cx="242.5352" cy="194.0020" r="14.9549" />
<text class="tLabel" x="242.54" y="174.00"></text>
<text class="nLabel" x="242.54" y="189.00">2</text>
<text class="belong" x="242.54" y="199.00">(1, 2, 3, 4)</text>
<circle onclick="fromCircle(127)" class="circle" cx="276.5167" cy="232.1625" r="25.9026" />
<text class="tLabel" x="276.52" y="212.16"></text>
<text class="nLabel" x="276.52" y="227.16">6</text>
<text class="belong" x="276.52" y="237.16">(1, 2, 3, 4, 5, 6, 7)</text>
<circle onclick="fromCircle(2)" class="circle" cx="389.6991" cy="270.7684" r="10.5747" />
<text class="tLabel" x="389.70" y="250.77"></text>
<text class="nLabel" x="389.70" y="265.77">1</text>
<text class="belong" x="389.70" y="275.77">(2)</text>
<circle onclick="fromCircle(6)" class="circle" cx="325.6048" cy="337.7747" r="18.3159" />
<text class="tLabel" x="325.60" y="317.77"></text>
<text class="nLabel" x="325.60" y="332.77">3</text>
<text class="belong" x="325.60" y="342.77">(2, 3)</text>
<circle onclick="fromCircle(14)" class="circle" cx="285.5992" cy="165.6333" r="27.9780" />
<text class="tLabel" x="285.60" y="145.63"></text>
<text class="nLabel" x="285.60" y="160.63">7</text>
<text class="belong" x="285.60" y="170.63">(2, 3, 4)</text>
<circle onclick="fromCircle(10)" class="circle" cx="354.9369" cy="236.3849" r="29.9097" />
<text class="tLabel" x="354.94" y="216.38"></text>
<text class="nLabel" x="354.94" y="231.38">8</text>
<text class="belong" x="354.94" y="241.38">(2, 4)</text>
<circle onclick="fromCircle(18)" class="circle" cx="362.7224" cy="301.7894" r="23.6457" />
<text class="tLabel" x="362.72" y="281.79"></text>
<text class="nLabel" x="362.72" y="296.79">5</text>
<text class="belong" x="362.72" y="306.79">(2, 5)</text>
<circle onclick="fromCircle(130)" class="circle" cx="405.5068" cy="204.9761" r="10.5747" />
<text class="tLabel" x="405.51" y="184.98"></text>
<text class="nLabel" x="405.51" y="199.98">1</text>
<text class="belong" x="405.51" y="209.98">(2, 8)</text>
<circle onclick="fromCircle(4)" class="circle" cx="306.9897" cy="377.6853" r="18.3159" />
<text class="tLabel" x="306.99" y="357.69"></text>
<text class="nLabel" x="306.99" y="372.69">3</text>
<text class="belong" x="306.99" y="382.69">(3)</text>
<circle onclick="fromCircle(5)" class="circle" cx="203.5119" cy="234.6974" r="18.3159" />
<text class="tLabel" x="203.51" y="214.70"></text>
<text class="nLabel" x="203.51" y="229.70">3</text>
<text class="belong" x="203.51" y="239.70">(1, 3)</text>
<circle onclick="fromCircle(13)" class="circle" cx="196.6607" cy="184.8649" r="23.6457" />
<text class="tLabel" x="196.66" y="164.86"></text>
<text class="nLabel" x="196.66" y="179.86">5</text>
<text class="belong" x="196.66" y="189.86">(1, 3, 4)</text>
<circle onclick="fromCircle(12)" class="circle" cx="190.3350" cy="126.1737" r="21.1494" />
<text class="tLabel" x="190.34" y="106.17"></text>
<text class="nLabel" x="190.34" y="121.17">4</text>
<text class="belong" x="190.34" y="131.17">(3, 4)</text>
<circle onclick="fromCircle(20)" class="circle" cx="273.4965" cy="340.0474" r="23.6457" />
<text class="tLabel" x="273.50" y="320.05"></text>
<text class="nLabel" x="273.50" y="335.05">5</text>
<text class="belong" x="273.50" y="345.05">(3, 5)</text>
<circle onclick="fromCircle(21)" class="circle" cx="252.1724" cy="287.6201" r="23.6457" />
<text class="tLabel" x="252.17" y="267.62"></text>
<text class="nLabel" x="252.17" y="282.62">5</text>
<text class="belong" x="252.17" y="292.62">(1, 3, 5)</text>
<circle onclick="fromCircle(8)" class="circle" cx="154.3345" cy="113.9883" r="10.5747" />
<text class="tLabel" x="154.33" y="93.99"></text>
<text class="nLabel" x="154.33" y="108.99">1</text>
<text class="belong" x="154.33" y="118.99">(4)</text>
<circle onclick="fromCircle(9)" class="circle" cx="140.5861" cy="158.1713" r="27.9780" />
<text class="tLabel" x="140.59" y="138.17"></text>
<text class="nLabel" x="140.59" y="153.17">7</text>
<text class="belong" x="140.59" y="163.17">(1, 4)</text>
<circle onclick="fromCircle(11)" class="circle" cx="232.4281" cy="148.7765" r="18.3159" />
<text class="tLabel" x="232.43" y="128.78"></text>
<text class="nLabel" x="232.43" y="143.78">3</text>
<text class="belong" x="232.43" y="153.78">(1, 2, 4)</text>
<circle onclick="fromCircle(40)" class="circle" cx="331.8830" cy="167.0212" r="10.5747" />
<text class="tLabel" x="331.88" y="147.02"></text>
<text class="nLabel" x="331.88" y="162.02">1</text>
<text class="belong" x="331.88" y="172.02">(4, 6)</text>
<circle onclick="fromCircle(16)" class="circle" cx="197.6317" cy="328.5508" r="10.5747" />
<text class="tLabel" x="197.63" y="308.55"></text>
<text class="nLabel" x="197.63" y="323.55">1</text>
<text class="belong" x="197.63" y="333.55">(5)</text>
<circle onclick="fromCircle(17)" class="circle" cx="195.4524" cy="287.6283" r="23.6457" />
<text class="tLabel" x="195.45" y="267.63"></text>
<text class="nLabel" x="195.45" y="282.63">5</text>
<text class="belong" x="195.45" y="292.63">(1, 5)</text>
<circle onclick="fromCircle(19)" class="circle" cx="309.1425" cy="283.3824" r="23.6457" />
<text class="tLabel" x="309.14" y="263.38"></text>
<text class="nLabel" x="309.14" y="278.38">5</text>
<text class="belong" x="309.14" y="288.38">(1, 2, 5)</text>
<circle onclick="fromCircle(80)" class="circle" cx="224.4543" cy="322.5788" r="10.5747" />
<text class="tLabel" x="224.45" y="302.58"></text>
<text class="nLabel" x="224.45" y="317.58">1</text>
<text class="belong" x="224.45" y="327.58">(5, 7)</text>
<circle onclick="fromCircle(32)" class="circle" cx="360.6421" cy="177.3825" r="14.9549" />
<text class="tLabel" x="360.64" y="157.38"></text>
<text class="nLabel" x="360.64" y="172.38">2</text>
<text class="belong" x="360.64" y="182.38">(6)</text>
<circle onclick="fromCircle(96)" class="circle" cx="333.8740" cy="192.3651" r="10.5747" />
<text class="tLabel" x="333.87" y="172.37"></text>
<text class="nLabel" x="333.87" y="187.37">1</text>
<text class="belong" x="333.87" y="197.37">(6, 7)</text>
<circle onclick="fromCircle(64)" class="circle" cx="220.1432" cy="360.3617" r="21.1494" />
<text class="tLabel" x="220.14" y="340.36"></text>
<text class="nLabel" x="220.14" y="355.36">4</text>
<text class="belong" x="220.14" y="365.36">(7)</text>
<circle onclick="fromCircle(128)" class="circle" cx="451.7023" cy="160.3614" r="29.9097" />
<text class="tLabel" x="451.70" y="140.36"></text>
<text class="nLabel" x="451.70" y="155.36">8</text>
<text class="belong" x="451.70" y="165.36">(8)</text>
<rect class="p0 borderLine" x="500.00" y="50.00" width="30.00" height="15.00" />
<rect class="q0" x="500.00" y="50.00" width="30.00" height="15.00" />
<text class="legend" x="540.00" y="65.00">Ball2017</text>
<rect class="p1 borderLine" x="500.00" y="90.00" width="30.00" height="15.00" />
<rect class="q1" x="500.00" y="90.00" width="30.00" height="15.00" />
<text class="legend" x="540.00" y="105.00">Courtois2015</text>
<rect class="p2 borderLine" x="500.00" y="130.00" width="30.00" height="15.00" />
<rect class="q2" x="500.00" y="130.00" width="30.00" height="15.00" />
<text class="legend" x="540.00" y="145.00">Hilton2017</text>
<rect class="p3 borderLine" x="500.00" y="170.00" width="30.00" height="15.00" />
<rect class="q3" x="500.00" y="170.00" width="30.00" height="15.00" />
<text class="legend" x="540.00" y="185.00">Ball2017</text>
<rect class="p4 borderLine" x="500.00" y="210.00" width="30.00" height="15.00" />
<rect class="q4" x="500.00" y="210.00" width="30.00" height="15.00" />
<text class="legend" x="540.00" y="225.00">Ball2017</text>
<rect class="p5 borderLine" x="500.00" y="250.00" width="30.00" height="15.00" />
<rect class="q5" x="500.00" y="250.00" width="30.00" height="15.00" />
<text class="legend" x="540.00" y="265.00">Ball2017</text>
<rect class="p6 borderLine" x="500.00" y="290.00" width="30.00" height="15.00" />
<rect class="q6" x="500.00" y="290.00" width="30.00" height="15.00" />
<text class="legend" x="540.00" y="305.00">Courtois2015</text>
<rect class="p7 borderLine" x="500.00" y="330.00" width="30.00" height="15.00" />
<rect class="q7" x="500.00" y="330.00" width="30.00" height="15.00" />
<text class="legend" x="540.00" y="345.00">Hilton2017</text>
</svg>
