<svg xmlns="http://www.w3.org/2000/svg" xmlns:xlink="http://www.w3.org/1999/xlink" width="700" height="500">
<defs>
<style type="text/css"><![CDATA[
  .borderLine {
	   stroke: none;
	   fill-opacity: 0.4;
  }
  .outLine {
	   stroke-width: 1;
	   fill: none;
  }
  .circle {
	   stroke: #888888;
	   stroke-width: 0.5;
	   fill: none;
    pointer-events: all;
  }
  .spcircle {
	   stroke: #FF2222;
	   stroke-width: 1;
	   fill: none;
    pointer-events: all;
  }
  .tLabel {
	   font-family: Arial;
    pointer-events: none;
	   font-size: 14px;
	   text-anchor: middle;
	   alignment-baseline: central;
  }
  .nLabel {
	   font-family: Arial;
    pointer-events: none;
	   font-size: 10px;
	   text-anchor: middle;
	   alignment-baseline: central;
  }
  .belong {
	   font-family: Arial;
    pointer-events: none;
	   font-size: 5px;
	   text-anchor: middle;
	   alignment-baseline: central;
  }
  .p0{
    stroke: none;
    fill: #e6194b;
  }
  .q0{
    fill: none;
    stroke: #e6194b;
  }
  .p1{
    stroke: none;
    fill: #3cb44b;
  }
  .q1{
    fill: none;
    stroke: #3cb44b;
  }
  .p2{
    stroke: none;
    fill: #ffe119;
  }
  .q2{
    fill: none;
    stroke: #ffe119;
  }
  .p3{
    stroke: none;
    fill: #0082c8;
  }
  .q3{
    fill: none;
    stroke: #0082c8;
  }
]]>
</style>
<symbol id="bl0">
<path d="M 363.13 193.88 L 353.75 188.99 L 342.87 186.64 L 331.90 186.80 L 320.88 189.45 L 311.08 195.47 L 303.25 203.20 L 298.08 212.62 L 292.80 222.33 L 292.10 233.70 L 292.95 244.53 L 295.95 254.48 L 300.70 263.34 L 305.99 271.37 L 310.81 279.05 L 314.91 286.42 L 318.50 293.03 L 321.18 298.78 L 320.84 302.33 L 320.18 305.83 L 318.87 309.08 L 317.39 312.68 L 315.80 316.55 L 316.23 320.86 L 318.15 325.05 L 321.79 328.41 L 325.75 331.14 L 330.23 332.91 L 334.55 333.72 L 338.50 335.51 L 342.28 338.79 L 345.71 344.88 L 348.40 352.38 L 351.10 360.91 L 354.92 369.34 L 357.81 377.93 L 361.32 387.07 L 369.26 394.21 L 379.85 398.30 L 391.20 399.58 L 400.46 394.67 L 409.49 390.75 L 418.66 383.66 L 421.28 372.73 L 422.52 362.72 L 421.82 353.67 L 419.26 344.99 L 413.81 337.84 L 411.24 330.61 L 409.12 323.55 L 407.65 316.67 L 407.87 310.86 L 411.24 307.28 L 411.98 302.52 L 412.29 297.25 L 410.76 292.37 L 411.08 286.31 L 407.31 282.86 L 401.78 281.42 L 398.04 277.69 L 395.62 271.33 L 393.29 264.00 L 391.17 255.68 L 389.50 246.84 L 388.34 237.60 L 386.47 228.01 L 383.88 218.18 L 380.04 207.86 L 371.38 200.42 Z" />
</symbol>
<symbol id="bl1">
<path d="M 195.82 234.52 L 187.78 228.64 L 178.77 224.99 L 169.24 223.61 L 159.56 223.08 L 150.84 226.20 L 142.71 230.07 L 135.77 235.60 L 129.51 241.64 L 125.25 249.25 L 122.50 257.32 L 121.35 265.60 L 120.29 273.75 L 118.92 281.82 L 117.87 289.62 L 116.35 296.81 L 113.23 303.23 L 108.30 308.26 L 102.27 312.80 L 96.94 318.75 L 91.16 324.69 L 85.82 330.97 L 82.01 338.84 L 78.28 347.67 L 76.65 356.84 L 76.79 366.38 L 78.99 375.54 L 83.07 383.74 L 88.28 390.86 L 94.48 396.92 L 101.98 401.37 L 109.84 404.28 L 117.84 405.77 L 125.73 405.66 L 133.23 405.40 L 140.85 406.06 L 148.60 406.62 L 156.35 406.76 L 163.73 407.22 L 170.19 408.92 L 175.82 411.80 L 181.76 414.63 L 186.77 418.83 L 193.05 421.81 L 200.05 423.76 L 207.27 423.49 L 215.42 424.16 L 222.85 421.37 L 229.39 418.26 L 234.04 412.11 L 236.02 404.20 L 239.46 397.42 L 241.01 390.08 L 239.02 383.05 L 237.11 376.45 L 234.29 370.27 L 228.83 365.91 L 224.90 360.50 L 220.90 355.20 L 216.74 350.36 L 212.55 345.66 L 208.59 341.17 L 206.00 337.71 L 205.24 335.37 L 207.03 333.99 L 209.11 332.36 L 206.52 330.41 L 206.04 328.69 L 206.68 326.78 L 207.50 324.45 L 206.56 322.78 L 205.16 321.07 L 203.23 319.94 L 202.67 317.60 L 202.35 314.07 L 202.64 309.42 L 203.99 302.86 L 205.07 295.40 L 205.94 287.47 L 208.81 279.63 L 210.38 270.47 L 212.05 260.63 L 207.51 251.36 L 203.57 241.55 Z" />
</symbol>
<symbol id="bl2">
<path d="M 170.98 338.95 L 173.02 342.36 L 174.79 345.42 L 177.88 346.60 L 178.47 350.16 L 176.79 355.66 L 174.93 361.86 L 172.04 367.51 L 167.45 373.62 L 164.57 381.88 L 165.92 391.12 L 167.97 400.34 L 172.05 409.40 L 178.55 416.38 L 185.48 421.93 L 192.67 426.12 L 200.45 430.17 L 208.40 432.48 L 215.46 437.53 L 222.25 443.63 L 228.94 450.12 L 235.70 457.01 L 242.19 464.35 L 247.62 472.95 L 254.91 480.41 L 262.29 487.93 L 271.62 493.04 L 282.00 496.05 L 292.70 497.87 L 303.57 498.29 L 314.04 496.52 L 324.75 495.66 L 333.70 490.07 L 342.69 485.68 L 350.11 479.16 L 355.92 471.33 L 362.30 463.95 L 367.78 455.93 L 372.60 447.53 L 376.83 439.06 L 381.62 431.04 L 386.61 423.29 L 391.75 415.85 L 396.94 408.66 L 402.32 401.91 L 410.09 398.50 L 417.08 391.76 L 423.18 384.53 L 429.64 377.11 L 432.33 367.47 L 430.80 357.68 L 426.92 348.48 L 420.47 340.81 L 414.65 333.73 L 408.25 327.89 L 400.60 325.91 L 394.12 324.76 L 386.33 324.23 L 379.94 324.04 L 376.34 320.00 L 372.80 318.95 L 371.15 315.67 L 368.63 313.48 L 366.54 311.73 L 366.21 309.79 L 365.53 308.00 L 366.57 305.71 L 366.09 303.43 L 365.67 300.76 L 363.34 298.53 L 360.19 296.41 L 355.58 295.36 L 351.17 293.56 L 347.09 290.48 L 341.97 289.86 L 336.74 289.46 L 331.12 288.20 L 325.10 286.51 L 317.97 284.12 L 310.53 279.86 L 302.82 274.74 L 296.45 267.61 L 289.82 260.94 L 281.81 254.75 L 271.92 253.20 L 262.20 249.30 L 251.53 250.40 L 241.29 252.65 L 232.35 257.91 L 223.72 263.15 L 217.30 270.40 L 211.99 277.98 L 208.83 286.02 L 204.89 292.61 L 200.35 298.16 L 196.16 303.06 L 191.79 307.50 L 187.15 308.83 L 182.93 310.46 L 178.91 311.60 L 175.88 313.73 L 172.66 315.44 L 169.81 318.19 L 168.96 322.64 L 166.58 326.36 L 168.14 330.68 L 167.73 335.34 Z" />
</symbol>
<symbol id="bl3">
<path d="M 116.68 261.87 L 117.04 271.65 L 119.06 281.13 L 122.14 290.30 L 127.75 298.32 L 134.21 305.71 L 142.02 310.89 L 149.70 314.80 L 156.25 318.75 L 161.56 322.65 L 165.24 327.03 L 165.00 331.75 L 166.57 334.43 L 170.18 342.83 L 171.18 345.79 L 174.50 348.31 L 177.37 351.70 L 181.74 352.12 L 184.92 353.88 L 187.52 351.82 L 191.56 352.00 L 199.85 349.17 L 201.67 349.58 L 204.20 347.76 L 208.17 347.40 L 213.32 348.31 L 218.45 350.62 L 224.05 353.11 L 230.49 355.96 L 237.20 360.16 L 245.20 362.50 L 253.93 363.63 L 263.20 363.55 L 272.49 361.94 L 281.16 358.68 L 289.81 355.15 L 298.01 351.36 L 306.11 347.93 L 314.13 345.08 L 321.74 342.74 L 328.76 342.40 L 335.58 342.21 L 341.99 341.66 L 347.93 339.40 L 353.82 338.03 L 357.71 333.77 L 360.58 328.67 L 362.64 325.78 L 364.46 322.14 L 365.56 318.46 L 367.18 315.28 L 365.95 312.77 L 365.47 310.27 L 364.14 307.67 L 363.52 304.33 L 363.07 300.49 L 361.66 297.23 L 359.28 293.22 L 360.34 289.53 L 365.77 286.30 L 366.75 283.67 L 377.81 275.65 L 380.64 272.78 L 385.33 268.00 L 390.36 262.00 L 393.53 254.66 L 394.01 246.20 L 396.17 237.61 L 396.64 228.28 L 394.26 219.13 L 389.60 210.80 L 384.91 202.64 L 380.55 194.23 L 376.40 185.57 L 372.44 176.61 L 368.50 167.46 L 364.52 158.18 L 360.64 148.72 L 356.85 139.12 L 353.06 129.44 L 349.39 119.65 L 346.04 109.68 L 342.85 99.54 L 339.49 89.37 L 335.95 79.18 L 331.97 69.09 L 327.42 59.23 L 322.13 49.75 L 315.94 40.71 L 308.60 32.44 L 300.49 24.90 L 291.52 18.46 L 281.93 12.85 L 271.88 7.85 L 261.41 3.61 L 250.51 0.50 L 239.34 -1.59 L 228.01 -2.49 L 216.61 -2.43 L 205.15 -1.35 L 193.68 0.74 L 182.29 3.76 L 171.28 7.86 L 160.82 12.99 L 151.01 19.18 L 142.11 26.51 L 134.06 34.91 L 126.65 44.16 L 120.25 54.23 L 114.57 64.64 L 110.25 75.65 L 106.67 86.85 L 104.40 98.35 L 103.55 110.03 L 104.30 121.71 L 105.87 133.27 L 108.14 144.64 L 110.42 155.86 L 113.07 166.84 L 115.52 177.68 L 117.27 188.53 L 118.47 199.33 L 119.02 209.95 L 118.62 220.36 L 117.66 230.78 L 117.00 241.29 L 116.49 251.67 Z" />
</symbol>
</defs>
<!-- isDone: 0 -->
<rect width="700" height="500" style="fill:#fff;stroke-width:0" />
<use class="p0 borderLine" xlink:href="#bl0"/>
<use class="p1 borderLine" xlink:href="#bl1"/>
<use class="p2 borderLine" xlink:href="#bl2"/>
<use class="p3 borderLine" xlink:href="#bl3"/>
<use class="q0 outLine" xlink:href="#bl0"/>
<use class="q1 outLine" xlink:href="#bl1"/>
<use class="q2 outLine" xlink:href="#bl2"/>
<use class="q3 outLine" xlink:href="#bl3"/>
<circle onclick="fromCircle(1)" class="circle" cx="390.4783" cy="300.0846" r="16.3577" />
<text class="tLabel" x="390.48" y="280.08"></text>
<text class="nLabel" x="390.48" y="295.08">2</text>
<text class="belong" x="390.48" y="305.08">(1)</text>
<circle onclick="fromCircle(2)" class="circle" cx="121.3743" cy="360.2346" r="40.0681" />
<text class="tLabel" x="121.37" y="340.23"></text>
<text class="nLabel" x="121.37" y="355.23">12</text>
<text class="belong" x="121.37" y="365.23">(2)</text>
<circle onclick="fromCircle(6)" class="circle" cx="203.6913" cy="388.9583" r="28.3324" />
<text class="tLabel" x="203.69" y="368.96"></text>
<text class="nLabel" x="203.69" y="383.96">6</text>
<text class="belong" x="203.69" y="393.96">(2, 3)</text>
<circle onclick="fromCircle(14)" class="circle" cx="188.5986" cy="329.6533" r="11.5667" />
<text class="tLabel" x="188.60" y="309.65"></text>
<text class="nLabel" x="188.60" y="324.65">1</text>
<text class="belong" x="188.60" y="334.65">(2, 3, 4)</text>
<circle onclick="fromCircle(10)" class="circle" cx="165.7834" cy="267.0208" r="38.3623" />
<text class="tLabel" x="165.78" y="247.02"></text>
<text class="nLabel" x="165.78" y="262.02">11</text>
<text class="belong" x="165.78" y="272.02">(2, 4)</text>
<circle onclick="fromCircle(4)" class="circle" cx="301.9576" cy="428.7950" r="61.2050" />
<text class="tLabel" x="301.96" y="408.79"></text>
<text class="nLabel" x="301.96" y="423.79">28</text>
<text class="belong" x="301.96" y="433.79">(3)</text>
<circle onclick="fromCircle(5)" class="circle" cx="388.0913" cy="363.2854" r="30.6025" />
<text class="tLabel" x="388.09" y="343.29"></text>
<text class="nLabel" x="388.09" y="358.29">7</text>
<text class="belong" x="388.09" y="368.29">(1, 3)</text>
<circle onclick="fromCircle(13)" class="circle" cx="337.8683" cy="314.3286" r="16.3577" />
<text class="tLabel" x="337.87" y="294.33"></text>
<text class="nLabel" x="337.87" y="309.33">2</text>
<text class="belong" x="337.87" y="319.33">(1, 3, 4)</text>
<circle onclick="fromCircle(12)" class="circle" cx="258.8109" cy="306.6536" r="46.2666" />
<text class="tLabel" x="258.81" y="286.65"></text>
<text class="nLabel" x="258.81" y="301.65">16</text>
<text class="belong" x="258.81" y="311.65">(3, 4)</text>
<circle onclick="fromCircle(8)" class="circle" cx="221.3690" cy="116.0102" r="106.0102" />
<text class="tLabel" x="221.37" y="96.01"></text>
<text class="nLabel" x="221.37" y="111.01">84</text>
<text class="belong" x="221.37" y="121.01">(4)</text>
<circle onclick="fromCircle(9)" class="circle" cx="339.3879" cy="235.3032" r="44.7975" />
<text class="tLabel" x="339.39" y="215.30"></text>
<text class="nLabel" x="339.39" y="230.30">15</text>
<text class="belong" x="339.39" y="240.30">(1, 4)</text>
<rect class="p0 borderLine" x="500.00" y="50.00" width="30.00" height="15.00" />
<rect class="q0" x="500.00" y="50.00" width="30.00" height="15.00" />
<text class="legend" x="540.00" y="65.00">S_salivarius</text>
<rect class="p1 borderLine" x="500.00" y="90.00" width="30.00" height="15.00" />
<rect class="q1" x="500.00" y="90.00" width="30.00" height="15.00" />
<text class="legend" x="540.00" y="105.00">Other</text>
<rect class="p2 borderLine" x="500.00" y="130.00" width="30.00" height="15.00" />
<rect class="q2" x="500.00" y="130.00" width="30.00" height="15.00" />
<text class="legend" x="540.00" y="145.00">GAS</text>
<rect class="p3 borderLine" x="500.00" y="170.00" width="30.00" height="15.00" />
<rect class="q3" x="500.00" y="170.00" width="30.00" height="15.00" />
<text class="legend" x="540.00" y="185.00">GCS/GGS</text>
</svg>
