<svg xmlns="http://www.w3.org/2000/svg" xmlns:xlink="http://www.w3.org/1999/xlink" width="700" height="500">
<defs>
<style type="text/css"><![CDATA[
  .borderLine {
	   stroke: none;
	   fill-opacity: 0.4;
  }
  .outLine {
	   stroke-width: 1;
	   fill: none;
  }
  .circle {
	   stroke: #888888;
	   stroke-width: 0.5;
	   fill: none;
    pointer-events: all;
  }
  .spcircle {
	   stroke: #FF2222;
	   stroke-width: 1;
	   fill: none;
    pointer-events: all;
  }
  .tLabel {
	   font-family: Arial;
    pointer-events: none;
	   font-size: 14px;
	   text-anchor: middle;
	   alignment-baseline: central;
  }
  .nLabel {
	   font-family: Arial;
    pointer-events: none;
	   font-size: 10px;
	   text-anchor: middle;
	   alignment-baseline: central;
  }
  .belong {
	   font-family: Arial;
    pointer-events: none;
	   font-size: 5px;
	   text-anchor: middle;
	   alignment-baseline: central;
  }
  .p0{
    stroke: none;
    fill: #e6194b;
  }
  .q0{
    fill: none;
    stroke: #e6194b;
  }
  .p1{
    stroke: none;
    fill: #3cb44b;
  }
  .q1{
    fill: none;
    stroke: #3cb44b;
  }
  .p2{
    stroke: none;
    fill: #ffe119;
  }
  .q2{
    fill: none;
    stroke: #ffe119;
  }
  .p3{
    stroke: none;
    fill: #0082c8;
  }
  .q3{
    fill: none;
    stroke: #0082c8;
  }
  .p4{
    stroke: none;
    fill: #f58231;
  }
  .q4{
    fill: none;
    stroke: #f58231;
  }
  .p5{
    stroke: none;
    fill: #911eb4;
  }
  .q5{
    fill: none;
    stroke: #911eb4;
  }
]]>
</style>
<symbol id="bl0">
<path d="M 297.68 294.69 L 296.77 293.81 L 295.90 292.97 L 295.04 292.14 L 294.15 291.29 L 293.28 290.47 L 292.46 289.69 L 291.65 288.94 L 290.85 288.21 L 290.04 287.49 L 289.23 286.79 L 288.43 286.10 L 287.64 285.42 L 286.86 284.76 L 286.07 284.12 L 285.27 283.49 L 284.45 282.88 L 283.63 282.29 L 282.81 281.71 L 282.00 281.16 L 281.21 280.63 L 280.44 280.13 L 279.67 279.65 L 278.89 279.20 L 278.06 278.76 L 277.22 278.34 L 276.41 277.97 L 275.63 277.64 L 274.89 277.31 L 274.11 277.01 L 273.27 276.74 L 272.41 276.50 L 271.58 276.29 L 270.77 276.13 L 269.94 275.99 L 269.09 275.88 L 268.20 275.80 L 267.31 275.76 L 266.42 275.74 L 265.53 275.75 L 264.63 275.78 L 263.71 275.85 L 262.77 275.94 L 261.81 276.07 L 260.83 276.21 L 259.84 276.37 L 258.83 276.55 L 257.81 276.76 L 256.77 276.98 L 255.71 277.22 L 254.62 277.49 L 253.53 277.79 L 252.41 278.09 L 251.27 278.41 L 250.15 278.83 L 249.16 279.47 L 248.34 280.33 L 247.70 281.35 L 247.29 282.46 L 247.12 283.63 L 247.21 284.78 L 247.52 285.88 L 248.00 286.88 L 248.58 287.77 L 249.15 288.61 L 249.66 289.45 L 250.08 290.30 L 250.38 291.14 L 250.58 291.94 L 250.69 292.73 L 250.69 293.50 L 250.57 294.27 L 250.37 295.03 L 250.07 295.80 L 249.71 296.64 L 249.27 297.51 L 248.90 298.47 L 248.70 299.49 L 248.76 300.56 L 248.99 301.63 L 249.44 302.66 L 250.03 303.65 L 250.70 304.60 L 251.37 305.57 L 252.04 306.55 L 252.72 307.52 L 253.41 308.46 L 254.10 309.40 L 254.78 310.33 L 255.45 311.24 L 256.14 312.14 L 256.82 313.02 L 257.50 313.89 L 258.19 314.74 L 258.88 315.57 L 259.58 316.39 L 260.26 317.20 L 260.95 318.00 L 261.63 318.80 L 262.32 319.58 L 263.01 320.35 L 263.70 321.11 L 264.37 321.86 L 265.05 322.61 L 265.75 323.36 L 266.45 324.09 L 267.14 324.81 L 267.79 325.53 L 268.42 326.25 L 269.07 326.98 L 269.74 327.69 L 270.43 328.40 L 271.11 329.10 L 271.75 329.81 L 272.38 330.53 L 273.01 331.25 L 273.65 331.96 L 274.31 332.67 L 274.98 333.39 L 275.65 334.11 L 276.31 334.84 L 276.99 335.56 L 277.67 336.27 L 278.37 336.99 L 279.08 337.72 L 279.80 338.46 L 280.53 339.19 L 281.28 339.92 L 282.05 340.64 L 282.82 341.36 L 283.61 342.09 L 284.41 342.82 L 285.23 343.55 L 286.05 344.29 L 286.89 345.02 L 287.74 345.75 L 288.59 346.48 L 289.46 347.22 L 290.34 347.95 L 291.22 348.69 L 292.12 349.44 L 293.02 350.19 L 293.93 350.94 L 294.85 351.68 L 295.77 352.43 L 296.70 353.19 L 297.64 353.94 L 298.59 354.70 L 299.54 355.47 L 300.50 356.22 L 301.47 356.98 L 302.43 357.74 L 303.41 358.49 L 304.39 359.24 L 305.37 359.99 L 306.36 360.73 L 307.35 361.47 L 308.35 362.20 L 309.36 362.92 L 310.38 363.64 L 311.41 364.35 L 312.45 365.05 L 313.49 365.75 L 314.54 366.43 L 315.61 367.12 L 316.69 367.79 L 317.79 368.46 L 318.89 369.13 L 320.00 369.79 L 321.12 370.45 L 322.25 371.11 L 323.38 371.77 L 324.52 372.43 L 325.66 373.08 L 326.82 373.74 L 327.98 374.40 L 329.14 375.06 L 330.30 375.73 L 331.45 376.40 L 332.62 377.07 L 333.79 377.74 L 334.97 378.42 L 336.15 379.10 L 337.33 379.78 L 338.52 380.47 L 339.70 381.17 L 340.89 381.87 L 342.09 382.57 L 343.29 383.28 L 344.49 383.99 L 345.69 384.71 L 346.89 385.44 L 348.08 386.17 L 349.28 386.92 L 350.47 387.68 L 351.67 388.44 L 352.86 389.21 L 354.04 389.99 L 355.22 390.78 L 356.39 391.60 L 357.56 392.42 L 358.73 393.26 L 359.89 394.10 L 361.05 394.95 L 362.21 395.81 L 363.36 396.68 L 364.52 397.55 L 365.67 398.43 L 366.80 399.34 L 367.95 400.21 L 369.11 401.09 L 370.26 401.98 L 371.41 402.87 L 372.55 403.75 L 373.70 404.64 L 374.85 405.53 L 376.00 406.41 L 377.15 407.30 L 378.30 408.18 L 379.44 409.07 L 380.59 409.95 L 381.74 410.84 L 382.89 411.72 L 384.03 412.61 L 385.18 413.49 L 386.33 414.37 L 387.47 415.26 L 388.62 416.14 L 389.77 417.02 L 390.91 417.90 L 392.05 418.79 L 393.19 419.68 L 394.32 420.57 L 395.45 421.46 L 396.56 422.36 L 397.67 423.27 L 398.78 424.20 L 399.87 425.12 L 400.96 426.06 L 402.03 427.00 L 403.09 427.96 L 404.14 428.93 L 405.17 429.92 L 406.20 430.91 L 407.22 431.90 L 408.23 432.90 L 409.24 433.91 L 410.23 434.92 L 411.22 435.94 L 412.20 436.97 L 413.18 438.00 L 414.15 439.02 L 415.12 440.05 L 416.09 441.08 L 417.05 442.11 L 418.01 443.14 L 418.96 444.17 L 419.91 445.20 L 420.86 446.22 L 421.80 447.22 L 422.74 448.22 L 423.68 449.20 L 424.63 450.18 L 425.57 451.15 L 426.51 452.11 L 427.45 453.04 L 428.41 453.94 L 429.37 454.82 L 430.34 455.70 L 431.30 456.57 L 432.26 457.44 L 433.23 458.29 L 434.22 459.12 L 435.21 459.93 L 436.20 460.74 L 437.20 461.56 L 438.20 462.37 L 439.21 463.17 L 440.23 463.97 L 441.24 464.76 L 442.26 465.55 L 443.28 466.33 L 444.30 467.11 L 445.31 467.89 L 446.32 468.65 L 447.32 469.42 L 448.32 470.18 L 449.31 470.94 L 450.29 471.69 L 451.25 472.43 L 452.20 473.16 L 453.13 473.89 L 454.06 474.61 L 454.96 475.35 L 455.87 476.05 L 456.77 476.74 L 457.65 477.43 L 458.51 478.11 L 459.36 478.79 L 460.21 479.45 L 461.05 480.11 L 461.88 480.75 L 462.71 481.38 L 463.54 482.00 L 464.37 482.61 L 465.21 483.20 L 466.04 483.78 L 466.85 484.35 L 467.65 484.90 L 468.45 485.43 L 469.28 485.94 L 470.12 486.43 L 470.95 486.90 L 471.75 487.34 L 472.51 487.76 L 473.27 488.16 L 474.02 488.53 L 474.78 488.86 L 475.54 489.17 L 476.32 489.45 L 477.11 489.68 L 477.89 489.86 L 478.66 489.97 L 479.45 490.00 L 480.23 489.92 L 480.97 489.74 L 481.62 489.46 L 482.20 489.07 L 482.71 488.58 L 483.13 488.00 L 483.43 487.37 L 483.60 486.69 L 483.66 485.95 L 483.61 485.16 L 483.47 484.35 L 483.23 483.56 L 482.92 482.77 L 482.55 481.99 L 482.16 481.22 L 481.75 480.44 L 481.32 479.66 L 480.86 478.88 L 480.38 478.10 L 479.87 477.29 L 479.35 476.46 L 478.79 475.61 L 478.22 474.77 L 477.64 473.95 L 477.04 473.12 L 476.43 472.28 L 475.79 471.44 L 475.13 470.59 L 474.45 469.74 L 473.75 468.88 L 473.03 468.02 L 472.29 467.16 L 471.53 466.28 L 470.77 465.38 L 469.99 464.46 L 469.16 463.52 L 468.30 462.57 L 467.43 461.64 L 466.59 460.74 L 465.65 460.01 L 464.53 459.49 L 463.29 459.16 L 461.99 459.00 L 460.77 458.87 L 459.64 458.69 L 458.55 458.45 L 457.46 458.14 L 456.36 457.78 L 455.27 457.38 L 454.22 456.94 L 453.22 456.44 L 452.24 455.88 L 451.28 455.25 L 450.34 454.57 L 449.41 453.85 L 448.47 453.13 L 447.53 452.41 L 446.60 451.69 L 445.68 450.96 L 444.77 450.22 L 443.86 449.49 L 442.95 448.76 L 442.02 448.04 L 441.08 447.32 L 440.15 446.60 L 439.22 445.87 L 438.28 445.15 L 437.33 444.44 L 436.36 443.73 L 435.39 443.03 L 434.41 442.33 L 433.43 441.62 L 432.44 440.91 L 431.45 440.20 L 430.46 439.49 L 429.47 438.78 L 428.48 438.06 L 427.49 437.34 L 426.49 436.62 L 425.51 435.89 L 424.53 435.14 L 423.55 434.39 L 422.58 433.63 L 421.61 432.88 L 420.64 432.11 L 419.68 431.33 L 418.73 430.54 L 417.79 429.73 L 416.84 428.92 L 415.90 428.11 L 414.97 427.29 L 414.04 426.45 L 413.11 425.59 L 412.20 424.72 L 411.28 423.85 L 410.37 422.96 L 409.46 422.07 L 408.55 421.18 L 407.64 420.27 L 406.73 419.36 L 405.83 418.45 L 404.93 417.54 L 404.03 416.63 L 403.12 415.72 L 402.21 414.81 L 401.30 413.90 L 400.40 412.99 L 399.49 412.08 L 398.57 411.18 L 397.66 410.28 L 396.74 409.37 L 395.82 408.47 L 394.91 407.57 L 393.98 406.67 L 393.06 405.77 L 392.13 404.88 L 391.21 403.99 L 390.28 403.09 L 389.35 402.20 L 388.43 401.31 L 387.50 400.42 L 386.57 399.53 L 385.64 398.65 L 384.70 397.76 L 383.77 396.87 L 382.84 395.99 L 381.90 395.11 L 380.97 394.22 L 380.04 393.34 L 379.11 392.46 L 378.17 391.58 L 377.23 390.70 L 376.29 389.82 L 375.35 388.94 L 374.42 388.05 L 373.47 387.18 L 372.54 386.30 L 371.60 385.41 L 370.66 384.53 L 369.72 383.64 L 368.78 382.76 L 367.85 381.87 L 366.91 380.98 L 365.98 380.09 L 365.06 379.19 L 364.14 378.29 L 363.22 377.39 L 362.30 376.49 L 361.39 375.58 L 360.50 374.67 L 359.61 373.75 L 358.72 372.83 L 357.84 371.91 L 356.96 370.99 L 356.09 370.05 L 355.24 369.09 L 354.40 368.12 L 353.55 367.14 L 352.71 366.16 L 351.87 365.17 L 351.04 364.16 L 350.22 363.12 L 349.41 362.06 L 348.61 360.98 L 347.81 359.87 L 347.01 358.76 L 346.23 357.63 L 345.45 356.48 L 344.69 355.31 L 343.92 354.12 L 343.17 352.93 L 342.42 351.71 L 341.69 350.48 L 340.96 349.24 L 340.24 348.00 L 339.52 346.75 L 338.81 345.50 L 338.10 344.24 L 337.39 342.98 L 336.69 341.72 L 335.98 340.47 L 335.26 339.22 L 334.55 337.97 L 333.83 336.73 L 333.11 335.49 L 332.38 334.27 L 331.63 333.07 L 330.88 331.89 L 330.11 330.73 L 329.34 329.59 L 328.57 328.46 L 327.78 327.35 L 327.00 326.25 L 326.20 325.18 L 325.40 324.14 L 324.59 323.13 L 323.77 322.13 L 322.95 321.15 L 322.13 320.16 L 321.31 319.18 L 320.48 318.21 L 319.64 317.27 L 318.79 316.34 L 317.95 315.41 L 317.10 314.47 L 316.24 313.54 L 315.38 312.61 L 314.51 311.69 L 313.63 310.77 L 312.76 309.86 L 311.88 308.95 L 311.01 308.04 L 310.13 307.14 L 309.25 306.24 L 308.37 305.35 L 307.50 304.46 L 306.63 303.58 L 305.76 302.70 L 304.90 301.83 L 304.03 300.96 L 303.15 300.07 L 302.23 299.16 L 301.30 298.24 L 300.40 297.35 L 299.51 296.48 L 298.60 295.58 Z" />
</symbol>
<symbol id="bl1">
<path d="M 174.11 203.88 L 172.68 203.70 L 171.35 203.54 L 170.16 203.39 L 169.03 203.26 L 167.95 203.14 L 166.90 203.02 L 165.87 202.91 L 164.86 202.81 L 163.86 202.74 L 162.89 202.67 L 161.90 202.55 L 160.93 202.49 L 159.95 202.45 L 158.99 202.42 L 158.06 202.39 L 157.14 202.38 L 156.24 202.39 L 155.35 202.41 L 154.47 202.45 L 153.61 202.50 L 152.77 202.57 L 151.96 202.65 L 151.18 202.76 L 150.40 202.88 L 149.64 203.02 L 148.87 203.20 L 148.10 203.42 L 147.36 203.70 L 146.66 204.03 L 146.00 204.43 L 145.41 204.89 L 144.89 205.41 L 144.47 206.00 L 144.14 206.64 L 143.90 207.30 L 143.76 207.99 L 143.75 208.70 L 143.83 209.44 L 144.01 210.20 L 144.28 210.94 L 144.63 211.68 L 145.04 212.42 L 145.48 213.14 L 145.94 213.86 L 146.42 214.59 L 146.93 215.34 L 147.45 216.12 L 148.01 216.89 L 148.60 217.67 L 149.21 218.47 L 149.83 219.29 L 150.46 220.13 L 151.10 220.96 L 151.76 221.77 L 152.46 222.58 L 153.17 223.39 L 153.88 224.21 L 154.61 225.03 L 155.35 225.84 L 156.13 226.65 L 156.97 227.39 L 157.89 228.03 L 158.87 228.60 L 159.87 229.16 L 160.88 229.73 L 161.91 230.30 L 162.93 230.87 L 163.95 231.46 L 164.97 232.07 L 166.01 232.69 L 167.05 233.31 L 168.10 233.93 L 169.13 234.58 L 170.14 235.25 L 171.14 235.95 L 172.15 236.66 L 173.17 237.37 L 174.19 238.10 L 175.20 238.83 L 176.20 239.58 L 177.20 240.33 L 178.20 241.08 L 179.21 241.84 L 180.21 242.60 L 181.22 243.35 L 182.23 244.09 L 183.25 244.83 L 184.27 245.56 L 185.29 246.28 L 186.31 247.00 L 187.33 247.72 L 188.35 248.42 L 189.39 249.11 L 190.45 249.80 L 191.51 250.48 L 192.58 251.17 L 193.65 251.86 L 194.74 252.53 L 195.85 253.20 L 196.98 253.88 L 198.14 254.56 L 199.31 255.24 L 200.48 255.91 L 201.67 256.59 L 202.87 257.27 L 204.08 257.96 L 205.30 258.65 L 206.53 259.35 L 207.76 260.05 L 209.00 260.76 L 210.23 261.47 L 211.47 262.19 L 212.71 262.91 L 213.95 263.63 L 215.18 264.36 L 216.42 265.09 L 217.65 265.83 L 218.86 266.60 L 220.08 267.37 L 221.31 268.13 L 222.52 268.90 L 223.72 269.69 L 224.92 270.49 L 226.10 271.31 L 227.28 272.15 L 228.46 272.98 L 229.64 273.82 L 230.81 274.68 L 231.97 275.54 L 233.14 276.41 L 234.31 277.27 L 235.48 278.14 L 236.61 279.05 L 237.75 279.95 L 238.90 280.84 L 240.06 281.73 L 241.21 282.63 L 242.36 283.52 L 243.51 284.41 L 244.67 285.30 L 245.82 286.19 L 246.97 287.09 L 248.12 288.00 L 249.27 288.88 L 250.44 289.75 L 251.62 290.61 L 252.78 291.50 L 253.93 292.40 L 255.09 293.30 L 256.24 294.20 L 257.40 295.09 L 258.55 295.98 L 259.69 296.89 L 260.84 297.79 L 261.99 298.69 L 263.13 299.60 L 264.26 300.52 L 265.39 301.43 L 266.54 302.34 L 267.68 303.24 L 268.83 304.13 L 269.98 305.03 L 271.13 305.92 L 272.27 306.81 L 273.42 307.70 L 274.56 308.60 L 275.71 309.49 L 276.85 310.38 L 277.99 311.27 L 279.14 312.16 L 280.28 313.04 L 281.42 313.93 L 282.56 314.82 L 283.70 315.71 L 284.84 316.59 L 285.98 317.48 L 287.12 318.37 L 288.26 319.26 L 289.40 320.15 L 290.54 321.04 L 291.69 321.93 L 292.83 322.82 L 293.97 323.71 L 295.11 324.60 L 296.26 325.50 L 297.40 326.39 L 298.55 327.28 L 299.70 328.17 L 300.84 329.07 L 301.99 329.96 L 303.14 330.85 L 304.28 331.74 L 305.43 332.64 L 306.57 333.53 L 307.72 334.42 L 308.86 335.32 L 310.01 336.21 L 311.14 337.11 L 312.28 338.01 L 313.41 338.92 L 314.53 339.83 L 315.64 340.75 L 316.74 341.68 L 317.84 342.62 L 318.92 343.56 L 320.00 344.51 L 321.06 345.48 L 322.10 346.46 L 323.14 347.45 L 324.16 348.45 L 325.18 349.45 L 326.19 350.45 L 327.20 351.47 L 328.19 352.49 L 329.18 353.51 L 330.16 354.55 L 331.13 355.59 L 332.11 356.62 L 333.08 357.65 L 334.04 358.69 L 335.00 359.73 L 335.96 360.76 L 336.91 361.80 L 337.86 362.82 L 338.80 363.84 L 339.75 364.84 L 340.69 365.83 L 341.63 366.82 L 342.57 367.80 L 343.51 368.76 L 344.45 369.70 L 345.40 370.62 L 346.36 371.51 L 347.32 372.39 L 348.28 373.28 L 349.24 374.16 L 350.21 375.02 L 351.19 375.86 L 352.18 376.69 L 353.17 377.51 L 354.16 378.34 L 355.15 379.16 L 356.16 379.98 L 357.17 380.79 L 358.18 381.59 L 359.19 382.39 L 360.21 383.19 L 361.22 383.98 L 362.22 384.77 L 363.22 385.56 L 364.22 386.34 L 365.21 387.11 L 366.20 387.88 L 367.17 388.64 L 368.12 389.40 L 369.06 390.15 L 370.00 390.90 L 370.93 391.63 L 371.84 392.38 L 372.76 393.10 L 373.66 393.81 L 374.54 394.52 L 375.41 395.22 L 376.28 395.91 L 377.15 396.59 L 378.00 397.27 L 378.85 397.93 L 379.69 398.58 L 380.52 399.23 L 381.36 399.86 L 382.21 400.47 L 383.05 401.08 L 383.89 401.67 L 384.72 402.24 L 385.53 402.80 L 386.35 403.34 L 387.18 403.87 L 388.02 404.37 L 388.87 404.85 L 389.67 405.31 L 390.45 405.74 L 391.21 406.15 L 391.97 406.53 L 392.74 406.88 L 393.52 407.20 L 394.30 407.48 L 395.11 407.73 L 395.91 407.91 L 396.70 408.02 L 397.50 408.06 L 398.31 408.02 L 399.11 407.88 L 399.86 407.63 L 400.58 407.28 L 401.24 406.82 L 401.85 406.28 L 402.38 405.68 L 402.81 405.02 L 403.14 404.29 L 403.38 403.54 L 403.55 402.77 L 403.63 402.00 L 403.65 401.21 L 403.61 400.41 L 403.51 399.63 L 403.37 398.86 L 403.19 398.08 L 402.99 397.30 L 402.76 396.53 L 402.50 395.74 L 402.21 394.92 L 401.90 394.07 L 401.57 393.21 L 401.21 392.35 L 400.84 391.51 L 400.44 390.67 L 400.03 389.81 L 399.61 388.94 L 399.16 388.06 L 398.71 387.17 L 398.24 386.29 L 397.75 385.41 L 397.26 384.52 L 396.75 383.62 L 396.24 382.72 L 395.71 381.80 L 395.18 380.88 L 394.63 379.95 L 394.08 379.01 L 393.52 378.06 L 392.95 377.11 L 392.37 376.14 L 391.79 375.16 L 391.20 374.16 L 390.62 373.15 L 390.00 372.14 L 389.39 371.12 L 388.78 370.09 L 388.16 369.03 L 387.53 367.96 L 386.90 366.88 L 386.26 365.79 L 385.62 364.69 L 384.98 363.59 L 384.33 362.48 L 383.67 361.37 L 383.01 360.25 L 382.35 359.13 L 381.68 358.01 L 381.00 356.89 L 380.32 355.79 L 379.63 354.68 L 378.95 353.57 L 378.25 352.46 L 377.54 351.37 L 376.81 350.28 L 376.06 349.21 L 375.32 348.13 L 374.58 347.05 L 373.84 345.97 L 373.07 344.91 L 372.29 343.86 L 371.50 342.82 L 370.70 341.78 L 369.91 340.74 L 369.12 339.70 L 368.34 338.67 L 367.55 337.64 L 366.78 336.62 L 366.01 335.60 L 365.24 334.58 L 364.49 333.55 L 363.75 332.52 L 363.02 331.49 L 362.32 330.45 L 361.62 329.42 L 360.93 328.38 L 360.26 327.33 L 359.60 326.26 L 358.96 325.18 L 358.33 324.09 L 357.72 322.99 L 357.11 321.88 L 356.52 320.76 L 355.95 319.61 L 355.39 318.44 L 354.85 317.26 L 354.31 316.06 L 353.79 314.86 L 353.28 313.65 L 352.77 312.43 L 352.28 311.21 L 351.78 309.99 L 351.30 308.77 L 350.81 307.56 L 350.32 306.35 L 349.84 305.15 L 349.35 303.96 L 348.86 302.79 L 348.36 301.63 L 347.86 300.49 L 347.35 299.36 L 346.83 298.23 L 346.31 297.11 L 345.78 296.00 L 345.24 294.90 L 344.69 293.81 L 344.14 292.72 L 343.58 291.64 L 343.01 290.56 L 342.44 289.49 L 341.86 288.42 L 341.27 287.35 L 340.68 286.29 L 340.08 285.24 L 339.48 284.19 L 338.88 283.15 L 338.27 282.12 L 337.66 281.09 L 337.05 280.07 L 336.43 279.05 L 335.81 278.04 L 335.19 277.04 L 334.57 276.05 L 333.95 275.07 L 333.33 274.09 L 332.71 273.12 L 332.09 272.16 L 331.48 271.21 L 330.86 270.27 L 330.26 269.33 L 329.65 268.41 L 329.06 267.49 L 328.48 266.58 L 327.90 265.68 L 327.33 264.78 L 326.76 263.90 L 326.20 263.02 L 325.65 262.14 L 325.10 261.27 L 324.55 260.41 L 324.01 259.55 L 323.47 258.70 L 322.93 257.85 L 322.39 257.00 L 321.86 256.16 L 321.32 255.32 L 320.77 254.48 L 320.23 253.65 L 319.68 252.82 L 319.14 251.99 L 318.60 251.17 L 318.05 250.34 L 317.50 249.52 L 316.94 248.71 L 316.38 247.90 L 315.82 247.09 L 315.25 246.29 L 314.69 245.49 L 314.12 244.70 L 313.54 243.92 L 312.96 243.14 L 312.37 242.38 L 311.78 241.62 L 311.18 240.87 L 310.58 240.13 L 309.96 239.40 L 309.34 238.68 L 308.72 237.98 L 308.09 237.28 L 307.45 236.60 L 306.81 235.93 L 306.16 235.28 L 305.53 234.61 L 304.89 233.97 L 304.21 233.37 L 303.54 232.77 L 302.88 232.18 L 302.22 231.61 L 301.55 231.06 L 300.88 230.51 L 300.19 229.99 L 299.49 229.48 L 298.79 228.99 L 298.09 228.51 L 297.37 228.05 L 296.64 227.60 L 295.89 227.17 L 295.13 226.76 L 294.36 226.36 L 293.57 225.97 L 292.76 225.60 L 291.94 225.25 L 291.10 224.90 L 290.25 224.57 L 289.39 224.25 L 288.51 223.95 L 287.62 223.66 L 286.72 223.37 L 285.82 223.10 L 284.90 222.84 L 283.97 222.60 L 283.02 222.36 L 282.06 222.14 L 281.09 221.92 L 280.12 221.71 L 279.13 221.51 L 278.14 221.32 L 277.12 221.14 L 276.09 220.96 L 275.04 220.79 L 273.99 220.62 L 272.93 220.46 L 271.87 220.30 L 270.80 220.15 L 269.72 219.99 L 268.64 219.84 L 267.55 219.69 L 266.47 219.54 L 265.38 219.39 L 264.30 219.23 L 263.21 219.07 L 262.12 218.92 L 261.04 218.76 L 259.95 218.59 L 258.87 218.43 L 257.79 218.26 L 256.71 218.08 L 255.63 217.90 L 254.55 217.72 L 253.47 217.53 L 252.39 217.31 L 251.30 217.12 L 250.21 216.93 L 249.13 216.72 L 248.04 216.51 L 246.94 216.29 L 245.84 216.08 L 244.75 215.85 L 243.65 215.63 L 242.56 215.39 L 241.48 215.15 L 240.39 214.92 L 239.31 214.69 L 238.23 214.43 L 237.15 214.19 L 236.07 213.94 L 235.01 213.68 L 233.96 213.43 L 232.91 213.18 L 231.86 212.93 L 230.81 212.68 L 229.77 212.44 L 228.72 212.21 L 227.68 211.97 L 226.64 211.70 L 225.61 211.44 L 224.56 211.20 L 223.50 210.97 L 222.44 210.73 L 221.39 210.51 L 220.33 210.28 L 219.27 210.06 L 218.20 209.84 L 217.12 209.63 L 216.02 209.42 L 214.92 209.22 L 213.81 209.02 L 212.70 208.81 L 211.58 208.62 L 210.44 208.42 L 209.28 208.24 L 208.10 208.07 L 206.92 207.89 L 205.74 207.72 L 204.55 207.55 L 203.35 207.38 L 202.14 207.21 L 200.92 207.06 L 199.71 206.90 L 198.51 206.75 L 197.31 206.60 L 196.10 206.45 L 194.90 206.31 L 193.71 206.17 L 192.54 206.04 L 191.39 205.90 L 190.25 205.77 L 189.12 205.64 L 188.00 205.51 L 186.89 205.37 L 185.80 205.26 L 184.73 205.14 L 183.67 205.02 L 182.60 204.90 L 181.50 204.77 L 180.37 204.64 L 179.23 204.50 L 178.08 204.36 L 176.80 204.20 L 175.38 204.03 Z" />
</symbol>
<symbol id="bl2">
<path d="M 111.80 338.00 L 111.00 339.28 L 110.25 340.46 L 109.57 341.50 L 108.95 342.47 L 108.37 343.40 L 107.81 344.30 L 107.27 345.19 L 106.74 346.09 L 106.22 346.99 L 105.72 347.87 L 105.24 348.75 L 104.77 349.60 L 104.31 350.46 L 103.88 351.34 L 103.47 352.23 L 103.08 353.10 L 102.71 353.95 L 102.37 354.76 L 102.05 355.56 L 101.76 356.37 L 101.50 357.16 L 101.27 357.95 L 101.07 358.71 L 100.92 359.46 L 100.81 360.23 L 100.76 361.03 L 100.79 361.83 L 100.89 362.62 L 101.07 363.42 L 101.34 364.22 L 101.67 365.00 L 102.06 365.73 L 102.51 366.41 L 103.04 367.07 L 103.60 367.68 L 104.21 368.21 L 104.84 368.67 L 105.51 369.06 L 106.21 369.38 L 106.91 369.63 L 107.60 369.82 L 108.31 369.99 L 109.04 370.12 L 109.80 370.22 L 110.58 370.29 L 111.36 370.34 L 112.17 370.37 L 113.01 370.38 L 113.87 370.37 L 114.74 370.34 L 115.63 370.29 L 116.52 370.22 L 117.41 370.13 L 118.33 370.02 L 119.26 369.90 L 120.20 369.77 L 121.16 369.63 L 122.12 369.47 L 123.09 369.30 L 124.07 369.13 L 125.06 368.94 L 126.06 368.74 L 127.07 368.53 L 128.09 368.32 L 129.13 368.10 L 130.17 367.87 L 131.22 367.64 L 132.29 367.40 L 133.36 367.15 L 134.44 366.88 L 135.53 366.61 L 136.62 366.34 L 137.72 366.06 L 138.84 365.78 L 139.96 365.49 L 141.10 365.20 L 142.25 364.90 L 143.41 364.59 L 144.57 364.28 L 145.75 363.97 L 146.94 363.65 L 148.14 363.32 L 149.36 362.99 L 150.59 362.65 L 151.82 362.30 L 153.07 361.95 L 154.31 361.60 L 155.57 361.23 L 156.83 360.86 L 158.10 360.48 L 159.36 360.10 L 160.63 359.70 L 161.89 359.30 L 163.16 358.90 L 164.43 358.49 L 165.68 358.07 L 166.91 357.64 L 168.14 357.20 L 169.36 356.77 L 170.57 356.34 L 171.78 355.90 L 172.97 355.46 L 174.15 355.02 L 175.30 354.58 L 176.45 354.15 L 177.58 353.72 L 178.71 353.30 L 179.84 352.89 L 180.96 352.49 L 182.07 352.10 L 183.17 351.72 L 184.27 351.35 L 185.37 350.99 L 186.49 350.65 L 187.61 350.33 L 188.73 350.01 L 189.86 349.71 L 191.00 349.42 L 192.15 349.15 L 193.32 348.89 L 194.50 348.64 L 195.70 348.41 L 196.92 348.19 L 198.14 347.97 L 199.38 347.78 L 200.63 347.59 L 201.89 347.41 L 203.17 347.25 L 204.47 347.09 L 205.77 346.93 L 207.06 346.78 L 208.35 346.63 L 209.64 346.48 L 210.94 346.33 L 212.23 346.18 L 213.51 346.03 L 214.78 345.87 L 216.04 345.69 L 217.29 345.51 L 218.53 345.33 L 219.76 345.13 L 220.99 344.93 L 222.21 344.72 L 223.42 344.50 L 224.62 344.26 L 225.82 344.02 L 227.01 343.78 L 228.20 343.52 L 229.38 343.26 L 230.56 342.99 L 231.72 342.71 L 232.89 342.43 L 234.04 342.14 L 235.19 341.85 L 236.33 341.56 L 237.47 341.26 L 238.59 340.96 L 239.71 340.65 L 240.82 340.34 L 241.93 340.03 L 243.02 339.70 L 244.10 339.38 L 245.18 339.06 L 246.24 338.73 L 247.30 338.39 L 248.35 338.05 L 249.38 337.71 L 250.40 337.36 L 251.42 337.01 L 252.42 336.65 L 253.41 336.29 L 254.39 335.92 L 255.35 335.55 L 256.31 335.17 L 257.25 334.79 L 258.18 334.39 L 259.09 334.00 L 260.00 333.59 L 260.89 333.18 L 261.76 332.75 L 262.63 332.32 L 263.48 331.89 L 264.32 331.44 L 265.15 330.98 L 265.97 330.51 L 266.78 330.03 L 267.57 329.55 L 268.36 329.05 L 269.14 328.54 L 269.91 328.02 L 270.67 327.50 L 271.42 326.96 L 272.17 326.42 L 272.90 325.86 L 273.66 325.33 L 274.40 324.77 L 275.13 324.19 L 275.86 323.62 L 276.59 323.05 L 277.32 322.47 L 278.06 321.89 L 278.79 321.29 L 279.52 320.70 L 280.26 320.12 L 281.00 319.52 L 281.73 318.93 L 282.46 318.32 L 283.20 317.71 L 283.93 317.10 L 284.66 316.47 L 285.39 315.85 L 286.12 315.21 L 286.85 314.57 L 287.57 313.92 L 288.29 313.26 L 289.00 312.58 L 289.70 311.89 L 290.40 311.20 L 291.10 310.49 L 291.80 309.78 L 292.50 309.05 L 293.18 308.31 L 293.86 307.55 L 294.53 306.79 L 295.21 306.01 L 295.87 305.23 L 296.53 304.43 L 297.18 303.63 L 297.82 302.81 L 298.45 301.99 L 299.08 301.15 L 299.69 300.31 L 300.29 299.46 L 300.88 298.61 L 301.45 297.75 L 302.01 296.88 L 302.56 296.00 L 303.09 295.12 L 303.61 294.24 L 304.11 293.35 L 304.60 292.45 L 305.06 291.53 L 305.52 290.61 L 305.96 289.70 L 306.39 288.78 L 306.80 287.86 L 307.19 286.93 L 307.57 285.99 L 307.94 285.04 L 308.30 284.10 L 308.64 283.17 L 308.98 282.24 L 309.30 281.32 L 309.61 280.40 L 309.92 279.47 L 310.22 278.55 L 310.51 277.65 L 310.79 276.75 L 311.07 275.86 L 311.34 274.98 L 311.60 274.11 L 311.86 273.24 L 312.11 272.39 L 312.36 271.53 L 312.60 270.69 L 312.83 269.85 L 313.07 269.02 L 313.29 268.19 L 313.52 267.36 L 313.73 266.54 L 313.94 265.71 L 314.14 264.88 L 314.33 264.06 L 314.51 263.23 L 314.67 262.41 L 314.87 261.59 L 315.05 260.76 L 315.16 259.92 L 315.26 259.08 L 315.36 258.24 L 315.44 257.40 L 315.50 256.56 L 315.54 255.71 L 315.56 254.86 L 315.55 254.01 L 315.51 253.15 L 315.45 252.30 L 315.37 251.44 L 315.25 250.58 L 315.12 249.72 L 314.97 248.85 L 314.77 247.99 L 314.54 247.14 L 314.29 246.28 L 314.02 245.43 L 313.70 244.58 L 313.35 243.73 L 312.99 242.88 L 312.61 242.03 L 312.21 241.20 L 311.79 240.38 L 311.34 239.55 L 310.88 238.72 L 310.39 237.89 L 309.89 237.08 L 309.37 236.27 L 308.83 235.48 L 308.28 234.68 L 307.71 233.88 L 307.13 233.08 L 306.53 232.29 L 305.93 231.49 L 305.32 230.70 L 304.70 229.92 L 304.08 229.14 L 303.45 228.36 L 302.82 227.58 L 302.18 226.78 L 301.55 225.97 L 300.92 225.16 L 300.29 224.36 L 299.67 223.57 L 299.05 222.76 L 298.42 221.93 L 297.80 221.06 L 297.18 220.19 L 296.56 219.30 L 295.95 218.41 L 295.34 217.51 L 294.73 216.60 L 294.12 215.66 L 293.51 214.71 L 292.90 213.75 L 292.29 212.78 L 291.68 211.81 L 291.06 210.84 L 290.45 209.87 L 289.83 208.91 L 289.21 207.94 L 288.59 206.98 L 287.97 206.01 L 287.35 205.04 L 286.72 204.08 L 286.08 203.13 L 285.45 202.19 L 284.82 201.26 L 284.19 200.32 L 283.56 199.37 L 282.93 198.40 L 282.30 197.45 L 281.69 196.50 L 281.08 195.56 L 280.47 194.61 L 279.85 193.65 L 279.25 192.68 L 278.65 191.71 L 278.07 190.74 L 277.50 189.78 L 276.93 188.81 L 276.37 187.84 L 275.80 186.86 L 275.25 185.89 L 274.70 184.92 L 274.17 183.96 L 273.63 183.00 L 273.10 182.02 L 272.56 181.04 L 272.04 180.07 L 271.52 179.10 L 271.01 178.13 L 270.48 177.16 L 269.94 176.18 L 269.42 175.19 L 268.92 174.18 L 268.44 173.17 L 267.93 172.17 L 267.40 171.18 L 266.88 170.16 L 266.40 169.12 L 265.94 168.06 L 265.47 167.02 L 264.97 165.98 L 264.48 164.94 L 264.01 163.89 L 263.57 162.83 L 263.12 161.77 L 262.67 160.73 L 262.21 159.69 L 261.76 158.66 L 261.30 157.63 L 260.83 156.61 L 260.38 155.59 L 259.94 154.57 L 259.50 153.55 L 259.02 152.54 L 258.50 151.55 L 257.92 150.59 L 257.30 149.67 L 256.64 148.77 L 255.94 147.91 L 255.21 147.07 L 254.46 146.25 L 253.68 145.48 L 252.86 144.78 L 252.07 144.05 L 251.20 143.43 L 250.28 142.91 L 249.40 142.37 L 248.52 141.86 L 247.61 141.42 L 246.69 140.99 L 245.77 140.59 L 244.83 140.26 L 243.89 139.97 L 242.93 139.74 L 241.95 139.53 L 241.00 139.32 L 240.06 139.13 L 239.11 139.07 L 238.14 139.05 L 237.15 138.99 L 236.19 138.98 L 235.25 138.96 L 234.31 138.98 L 233.34 139.11 L 232.35 139.32 L 231.36 139.56 L 230.43 139.84 L 229.52 140.13 L 228.61 140.45 L 227.65 140.81 L 226.68 141.21 L 225.74 141.70 L 224.82 142.20 L 223.90 142.67 L 223.02 143.23 L 222.18 143.86 L 221.34 144.53 L 220.52 145.21 L 219.71 145.91 L 218.95 146.66 L 218.28 147.49 L 217.63 148.33 L 216.98 149.18 L 216.37 150.04 L 215.81 150.94 L 215.26 151.85 L 214.75 152.79 L 214.32 153.79 L 213.89 154.80 L 213.48 155.82 L 213.09 156.84 L 212.73 157.88 L 212.39 158.93 L 212.03 160.00 L 211.67 161.09 L 211.32 162.19 L 210.97 163.29 L 210.64 164.40 L 210.30 165.52 L 209.96 166.66 L 209.62 167.82 L 209.27 168.99 L 208.93 170.17 L 208.57 171.33 L 208.21 172.48 L 207.85 173.63 L 207.50 174.79 L 207.15 175.97 L 206.81 177.16 L 206.45 178.33 L 206.06 179.48 L 205.68 180.62 L 205.32 181.79 L 204.99 182.96 L 204.64 184.14 L 204.27 185.29 L 203.87 186.45 L 203.49 187.61 L 203.13 188.80 L 202.79 189.99 L 202.44 191.17 L 202.07 192.37 L 201.70 193.56 L 201.32 194.78 L 200.95 196.00 L 200.57 197.23 L 200.20 198.46 L 199.81 199.69 L 199.42 200.94 L 199.03 202.20 L 198.63 203.46 L 198.22 204.72 L 197.80 205.95 L 197.38 207.18 L 196.94 208.42 L 196.49 209.67 L 196.04 210.93 L 195.58 212.17 L 195.11 213.39 L 194.63 214.60 L 194.14 215.81 L 193.65 217.03 L 193.14 218.26 L 192.62 219.49 L 192.10 220.71 L 191.57 221.93 L 191.03 223.14 L 190.48 224.34 L 189.92 225.54 L 189.36 226.74 L 188.78 227.94 L 188.21 229.14 L 187.62 230.32 L 187.03 231.48 L 186.43 232.63 L 185.82 233.77 L 185.22 234.90 L 184.61 236.02 L 183.99 237.14 L 183.34 238.27 L 182.69 239.41 L 182.03 240.53 L 181.37 241.66 L 180.70 242.79 L 180.01 243.92 L 179.32 245.08 L 178.61 246.24 L 177.88 247.42 L 177.15 248.59 L 176.42 249.78 L 175.67 250.97 L 174.92 252.17 L 174.16 253.38 L 173.40 254.60 L 172.63 255.81 L 171.86 257.04 L 171.09 258.26 L 170.32 259.49 L 169.55 260.73 L 168.77 261.95 L 168.01 263.18 L 167.23 264.41 L 166.46 265.64 L 165.69 266.87 L 164.92 268.10 L 164.15 269.33 L 163.38 270.55 L 162.60 271.77 L 161.81 272.98 L 161.01 274.19 L 160.21 275.38 L 159.41 276.58 L 158.61 277.76 L 157.78 278.93 L 156.92 280.08 L 156.05 281.22 L 155.19 282.34 L 154.35 283.46 L 153.49 284.58 L 152.59 285.70 L 151.66 286.82 L 150.72 287.90 L 149.79 288.95 L 148.86 289.99 L 147.93 291.04 L 146.98 292.10 L 146.00 293.16 L 145.01 294.19 L 144.02 295.21 L 143.03 296.20 L 142.05 297.19 L 141.07 298.18 L 140.11 299.17 L 139.16 300.16 L 138.22 301.15 L 137.28 302.14 L 136.37 303.13 L 135.47 304.12 L 134.61 305.11 L 133.79 306.12 L 132.98 307.14 L 132.17 308.17 L 131.36 309.20 L 130.57 310.23 L 129.81 311.28 L 129.06 312.34 L 128.32 313.40 L 127.58 314.47 L 126.84 315.53 L 126.10 316.60 L 125.37 317.67 L 124.65 318.75 L 123.93 319.82 L 123.21 320.89 L 122.50 321.95 L 121.80 323.02 L 121.10 324.07 L 120.40 325.12 L 119.71 326.17 L 119.02 327.20 L 118.34 328.22 L 117.67 329.23 L 116.99 330.23 L 116.30 331.26 L 115.60 332.32 L 114.89 333.39 L 114.19 334.46 L 113.42 335.63 L 112.53 336.88 Z" />
</symbol>
<symbol id="bl3">
<path d="M 45.03 27.08 L 44.13 26.19 L 43.26 25.34 L 42.38 24.51 L 41.48 23.67 L 40.59 22.86 L 39.76 22.08 L 38.97 21.32 L 38.18 20.57 L 37.38 19.84 L 36.58 19.13 L 35.77 18.43 L 34.98 17.74 L 34.21 17.06 L 33.44 16.40 L 32.67 15.76 L 31.89 15.13 L 31.10 14.53 L 30.33 13.95 L 29.59 13.40 L 28.87 12.87 L 28.16 12.36 L 27.43 11.87 L 26.66 11.40 L 25.88 10.99 L 25.12 10.64 L 24.35 10.35 L 23.59 10.13 L 22.82 10.01 L 22.08 10.00 L 21.35 10.11 L 20.64 10.34 L 19.97 10.66 L 19.36 11.07 L 18.80 11.57 L 18.32 12.17 L 17.91 12.83 L 17.56 13.52 L 17.27 14.24 L 17.02 15.00 L 16.82 15.78 L 16.67 16.56 L 16.56 17.34 L 16.47 18.11 L 16.41 18.90 L 16.37 19.71 L 16.35 20.54 L 16.34 21.40 L 16.36 22.28 L 16.39 23.17 L 16.44 24.06 L 16.51 24.96 L 16.59 25.88 L 16.68 26.82 L 16.79 27.77 L 16.91 28.73 L 17.05 29.70 L 17.19 30.68 L 17.34 31.67 L 17.51 32.67 L 17.68 33.68 L 17.86 34.70 L 18.05 35.74 L 18.25 36.78 L 18.47 37.84 L 18.69 38.90 L 18.87 39.98 L 19.11 41.06 L 19.35 42.15 L 19.59 43.25 L 19.84 44.36 L 20.09 45.48 L 20.35 46.62 L 20.61 47.76 L 20.88 48.92 L 21.16 50.08 L 21.44 51.25 L 21.72 52.44 L 22.01 53.64 L 22.31 54.85 L 22.61 56.08 L 22.91 57.31 L 23.23 58.55 L 23.55 59.80 L 23.87 61.05 L 24.20 62.31 L 24.54 63.57 L 24.88 64.84 L 25.24 66.11 L 25.60 67.37 L 25.97 68.64 L 26.35 69.91 L 26.73 71.19 L 27.13 72.45 L 27.55 73.71 L 27.98 74.96 L 28.41 76.22 L 28.85 77.49 L 29.29 78.75 L 29.75 80.00 L 30.23 81.25 L 30.72 82.49 L 31.21 83.74 L 31.70 84.98 L 32.20 86.22 L 32.70 87.47 L 33.20 88.71 L 33.71 89.95 L 34.22 91.19 L 34.72 92.43 L 35.22 93.68 L 35.72 94.92 L 36.21 96.18 L 36.70 97.43 L 37.19 98.69 L 37.67 99.94 L 38.15 101.21 L 38.62 102.48 L 39.08 103.76 L 39.53 105.05 L 39.98 106.34 L 40.42 107.64 L 40.85 108.95 L 41.27 110.26 L 41.68 111.60 L 42.07 112.94 L 42.45 114.30 L 42.82 115.67 L 43.18 117.04 L 43.54 118.42 L 43.89 119.81 L 44.23 121.20 L 44.56 122.60 L 44.89 124.01 L 45.21 125.42 L 45.54 126.83 L 45.86 128.24 L 46.18 129.65 L 46.50 131.07 L 46.82 132.48 L 47.15 133.89 L 47.47 135.30 L 47.79 136.71 L 48.11 138.13 L 48.43 139.54 L 48.76 140.95 L 49.08 142.36 L 49.40 143.78 L 49.72 145.19 L 50.04 146.60 L 50.36 148.01 L 50.69 149.43 L 51.01 150.84 L 51.33 152.25 L 51.65 153.66 L 51.97 155.07 L 52.30 156.49 L 52.62 157.90 L 52.94 159.31 L 53.26 160.72 L 53.58 162.14 L 53.90 163.55 L 54.23 164.96 L 54.55 166.37 L 54.87 167.79 L 55.19 169.20 L 55.51 170.61 L 55.83 172.02 L 56.16 173.44 L 56.48 174.85 L 56.80 176.26 L 57.12 177.67 L 57.44 179.08 L 57.77 180.50 L 58.09 181.91 L 58.41 183.32 L 58.73 184.73 L 59.05 186.15 L 59.37 187.56 L 59.70 188.97 L 60.02 190.38 L 60.34 191.80 L 60.66 193.21 L 60.98 194.62 L 61.31 196.03 L 61.63 197.44 L 61.95 198.86 L 62.27 200.27 L 62.59 201.68 L 62.91 203.09 L 63.24 204.51 L 63.56 205.92 L 63.88 207.33 L 64.20 208.74 L 64.52 210.16 L 64.84 211.57 L 65.17 212.98 L 65.49 214.39 L 65.81 215.80 L 66.13 217.22 L 66.45 218.63 L 66.78 220.04 L 67.10 221.45 L 67.42 222.87 L 67.74 224.28 L 68.06 225.69 L 68.38 227.10 L 68.71 228.52 L 69.03 229.93 L 69.35 231.34 L 69.67 232.75 L 69.99 234.16 L 70.32 235.58 L 70.64 236.99 L 70.96 238.40 L 71.28 239.81 L 71.60 241.23 L 71.92 242.64 L 72.25 244.05 L 72.57 245.46 L 72.89 246.88 L 73.21 248.29 L 73.53 249.70 L 73.85 251.11 L 74.17 252.52 L 74.48 253.93 L 74.79 255.33 L 75.09 256.74 L 75.39 258.13 L 75.67 259.52 L 75.95 260.90 L 76.22 262.28 L 76.48 263.65 L 76.73 265.01 L 76.96 266.36 L 77.18 267.70 L 77.38 269.03 L 77.58 270.36 L 77.77 271.67 L 77.96 272.99 L 78.13 274.31 L 78.29 275.61 L 78.45 276.91 L 78.60 278.20 L 78.74 279.50 L 78.89 280.80 L 79.02 282.10 L 79.16 283.39 L 79.28 284.69 L 79.41 285.99 L 79.53 287.29 L 79.65 288.60 L 79.77 289.91 L 79.88 291.21 L 79.99 292.52 L 80.10 293.83 L 80.22 295.15 L 80.33 296.47 L 80.45 297.80 L 80.57 299.12 L 80.69 300.43 L 80.81 301.76 L 80.94 303.08 L 81.08 304.41 L 81.22 305.73 L 81.37 307.05 L 81.52 308.37 L 81.68 309.68 L 81.86 310.98 L 82.03 312.28 L 82.22 313.57 L 82.41 314.86 L 82.62 316.13 L 82.83 317.40 L 83.05 318.66 L 83.28 319.90 L 83.52 321.14 L 83.76 322.37 L 84.01 323.59 L 84.27 324.80 L 84.54 326.00 L 84.81 327.20 L 85.09 328.39 L 85.37 329.57 L 85.66 330.74 L 85.95 331.90 L 86.24 333.06 L 86.54 334.21 L 86.85 335.36 L 87.15 336.49 L 87.46 337.62 L 87.78 338.74 L 88.09 339.84 L 88.41 340.94 L 88.73 342.03 L 89.06 343.11 L 89.38 344.18 L 89.70 345.23 L 90.03 346.28 L 90.35 347.31 L 90.68 348.33 L 91.01 349.33 L 91.35 350.33 L 91.69 351.30 L 92.03 352.27 L 92.38 353.22 L 92.73 354.15 L 93.09 355.06 L 93.45 355.96 L 93.83 356.84 L 94.21 357.70 L 94.61 358.54 L 95.01 359.36 L 95.42 360.14 L 95.83 360.91 L 96.25 361.65 L 96.69 362.37 L 97.13 363.06 L 97.59 363.72 L 98.06 364.34 L 98.53 364.94 L 99.02 365.50 L 99.51 366.03 L 100.02 366.52 L 100.55 366.98 L 101.08 367.40 L 101.63 367.79 L 102.19 368.14 L 102.77 368.45 L 103.36 368.73 L 103.96 368.96 L 104.58 369.16 L 105.22 369.33 L 105.87 369.46 L 106.53 369.55 L 107.21 369.61 L 107.90 369.64 L 108.61 369.64 L 109.34 369.60 L 110.09 369.55 L 110.84 369.46 L 111.58 369.35 L 112.35 369.22 L 113.13 369.08 L 113.94 368.92 L 114.75 368.74 L 115.56 368.55 L 116.36 368.35 L 117.17 368.14 L 118.00 367.92 L 118.83 367.70 L 119.68 367.47 L 120.53 367.23 L 121.39 366.99 L 122.25 366.75 L 123.13 366.51 L 124.02 366.27 L 124.92 366.02 L 125.84 365.76 L 126.77 365.51 L 127.72 365.25 L 128.67 364.99 L 129.64 364.73 L 130.61 364.46 L 131.59 364.18 L 132.58 363.94 L 133.56 363.66 L 134.54 363.36 L 135.53 363.07 L 136.52 362.77 L 137.51 362.47 L 138.48 362.15 L 139.44 361.82 L 140.40 361.49 L 141.36 361.14 L 142.34 360.78 L 143.31 360.40 L 144.28 360.02 L 145.23 359.62 L 146.18 359.20 L 147.14 358.77 L 148.11 358.33 L 149.09 357.87 L 150.05 357.40 L 151.01 356.92 L 151.97 356.42 L 152.92 355.91 L 153.87 355.39 L 154.81 354.85 L 155.74 354.30 L 156.67 353.74 L 157.59 353.18 L 158.50 352.60 L 159.40 352.02 L 160.27 351.42 L 161.13 350.81 L 161.99 350.20 L 162.85 349.58 L 163.69 348.96 L 164.52 348.33 L 165.33 347.69 L 166.13 347.04 L 166.93 346.39 L 167.72 345.73 L 168.50 345.07 L 169.28 344.41 L 170.05 343.75 L 170.82 343.09 L 171.58 342.42 L 172.34 341.76 L 173.10 341.10 L 173.86 340.43 L 174.61 339.77 L 175.38 339.11 L 176.15 338.45 L 176.93 337.79 L 177.71 337.14 L 178.49 336.48 L 179.27 335.83 L 180.05 335.18 L 180.86 334.53 L 181.67 333.89 L 182.49 333.25 L 183.31 332.61 L 184.13 331.98 L 184.96 331.36 L 185.80 330.74 L 186.63 330.13 L 187.46 329.51 L 188.29 328.88 L 189.11 328.25 L 189.92 327.62 L 190.73 326.99 L 191.53 326.34 L 192.31 325.69 L 193.07 325.02 L 193.81 324.34 L 194.54 323.63 L 195.25 322.91 L 195.95 322.17 L 196.63 321.41 L 197.29 320.65 L 197.93 319.87 L 198.55 319.06 L 199.16 318.24 L 199.76 317.39 L 200.34 316.53 L 200.90 315.66 L 201.45 314.77 L 201.98 313.87 L 202.50 312.95 L 203.01 312.01 L 203.50 311.05 L 204.00 310.08 L 204.46 309.09 L 204.91 308.08 L 205.35 307.06 L 205.79 306.02 L 206.23 304.97 L 206.66 303.90 L 207.08 302.83 L 207.48 301.74 L 207.89 300.64 L 208.30 299.54 L 208.74 298.45 L 209.18 297.36 L 209.58 296.26 L 209.98 295.17 L 210.49 294.11 L 211.16 293.14 L 211.98 292.30 L 212.91 291.59 L 213.92 291.00 L 214.99 290.52 L 216.11 290.16 L 217.28 289.94 L 218.47 289.84 L 219.66 289.78 L 220.85 289.72 L 222.03 289.67 L 223.21 289.62 L 224.40 289.58 L 225.60 289.56 L 226.81 289.55 L 228.00 289.53 L 229.17 289.49 L 230.33 289.45 L 231.50 289.43 L 232.66 289.42 L 233.81 289.41 L 234.95 289.38 L 236.08 289.34 L 237.19 289.32 L 238.30 289.30 L 239.41 289.29 L 240.51 289.28 L 241.60 289.26 L 242.68 289.24 L 243.75 289.23 L 244.81 289.25 L 245.87 289.30 L 246.95 289.35 L 248.01 289.39 L 249.04 289.42 L 250.03 289.42 L 251.00 289.39 L 251.96 289.47 L 252.94 289.46 L 253.90 289.33 L 254.80 289.04 L 255.60 288.68 L 256.34 288.26 L 257.09 287.82 L 257.84 287.37 L 258.56 286.93 L 259.25 286.48 L 259.92 286.04 L 260.57 285.58 L 261.18 285.08 L 261.79 284.58 L 262.39 284.08 L 263.01 283.60 L 263.62 283.11 L 264.18 282.58 L 264.71 282.02 L 265.23 281.45 L 265.76 280.91 L 266.31 280.40 L 266.87 279.86 L 267.41 279.25 L 267.89 278.58 L 268.33 277.87 L 268.75 277.15 L 269.14 276.41 L 269.48 275.63 L 269.73 274.83 L 269.90 274.03 L 270.01 273.20 L 270.04 272.36 L 269.98 271.53 L 269.85 270.73 L 269.65 269.96 L 269.37 269.19 L 269.03 268.44 L 268.65 267.71 L 268.22 267.00 L 267.75 266.32 L 267.29 265.64 L 266.78 264.98 L 266.24 264.32 L 265.66 263.65 L 265.05 262.97 L 264.40 262.30 L 263.72 261.69 L 263.01 261.13 L 262.27 260.59 L 261.50 260.05 L 260.70 259.52 L 259.86 259.00 L 258.99 258.52 L 258.08 258.08 L 257.14 257.66 L 256.16 257.25 L 255.14 256.86 L 254.09 256.47 L 253.01 256.09 L 251.88 255.71 L 250.72 255.35 L 249.52 254.99 L 248.30 254.62 L 247.04 254.25 L 245.75 253.89 L 244.46 253.44 L 243.21 252.88 L 242.04 252.16 L 240.96 251.32 L 240.07 250.42 L 239.46 249.66 L 239.18 249.15 L 239.07 248.86 L 239.64 248.18 L 237.81 244.76 L 237.68 242.11 L 237.01 240.30 L 236.31 238.83 L 235.67 237.50 L 235.06 236.23 L 234.45 234.99 L 233.80 233.75 L 233.12 232.51 L 232.42 231.29 L 231.71 230.09 L 230.99 228.92 L 230.25 227.76 L 229.49 226.62 L 228.72 225.49 L 227.91 224.41 L 227.06 223.38 L 226.17 222.41 L 225.26 221.45 L 224.33 220.51 L 223.40 219.58 L 222.43 218.66 L 221.43 217.78 L 220.41 216.91 L 219.36 216.07 L 218.27 215.23 L 217.22 214.36 L 216.14 213.49 L 215.06 212.64 L 213.95 211.77 L 212.85 210.91 L 211.73 210.03 L 210.62 209.15 L 209.50 208.27 L 208.38 207.39 L 207.27 206.50 L 206.16 205.60 L 205.06 204.68 L 203.96 203.76 L 202.87 202.83 L 201.78 201.89 L 200.69 200.95 L 199.61 199.99 L 198.58 199.00 L 197.53 198.02 L 196.48 197.03 L 195.45 196.02 L 194.42 195.00 L 193.40 193.98 L 192.39 192.95 L 191.39 191.91 L 190.39 190.86 L 189.39 189.82 L 188.40 188.77 L 187.40 187.71 L 186.41 186.66 L 185.41 185.61 L 184.42 184.55 L 183.42 183.50 L 182.42 182.45 L 181.43 181.39 L 180.43 180.34 L 179.44 179.28 L 178.45 178.23 L 177.45 177.18 L 176.46 176.13 L 175.47 175.07 L 174.47 174.02 L 173.48 172.97 L 172.49 171.92 L 171.50 170.87 L 170.51 169.82 L 169.51 168.76 L 168.52 167.71 L 167.53 166.65 L 166.53 165.59 L 165.54 164.54 L 164.54 163.48 L 163.55 162.42 L 162.56 161.37 L 161.56 160.31 L 160.57 159.25 L 159.58 158.20 L 158.58 157.14 L 157.59 156.08 L 156.60 155.03 L 155.60 153.97 L 154.61 152.92 L 153.61 151.86 L 152.62 150.80 L 151.63 149.75 L 150.63 148.69 L 149.64 147.63 L 148.65 146.58 L 147.65 145.52 L 146.66 144.46 L 145.67 143.41 L 144.67 142.35 L 143.68 141.29 L 142.69 140.24 L 141.69 139.18 L 140.70 138.12 L 139.70 137.07 L 138.71 136.01 L 137.72 134.95 L 136.72 133.90 L 135.73 132.84 L 134.74 131.79 L 133.74 130.73 L 132.75 129.67 L 131.76 128.62 L 130.76 127.56 L 129.77 126.50 L 128.77 125.45 L 127.78 124.39 L 126.79 123.33 L 125.79 122.28 L 124.80 121.22 L 123.81 120.16 L 122.81 119.11 L 121.82 118.05 L 120.83 116.99 L 119.83 115.94 L 118.84 114.88 L 117.84 113.82 L 116.85 112.77 L 115.86 111.71 L 114.86 110.66 L 113.87 109.60 L 112.88 108.54 L 111.88 107.49 L 110.89 106.43 L 109.90 105.37 L 108.90 104.32 L 107.91 103.26 L 106.91 102.20 L 105.92 101.15 L 104.93 100.09 L 103.93 99.03 L 102.94 97.98 L 101.95 96.92 L 100.96 95.86 L 99.97 94.80 L 98.98 93.74 L 98.00 92.68 L 97.02 91.61 L 96.06 90.54 L 95.10 89.46 L 94.15 88.37 L 93.21 87.28 L 92.27 86.18 L 91.35 85.07 L 90.45 83.96 L 89.56 82.83 L 88.68 81.69 L 87.81 80.55 L 86.94 79.40 L 86.08 78.25 L 85.23 77.09 L 84.39 75.93 L 83.56 74.76 L 82.74 73.59 L 81.92 72.41 L 81.10 71.24 L 80.29 70.07 L 79.48 68.90 L 78.68 67.73 L 77.88 66.56 L 77.09 65.40 L 76.30 64.26 L 75.52 63.12 L 74.73 62.00 L 73.95 60.89 L 73.17 59.78 L 72.39 58.69 L 71.62 57.61 L 70.84 56.56 L 70.06 55.54 L 69.27 54.53 L 68.48 53.52 L 67.68 52.52 L 66.89 51.52 L 66.10 50.54 L 65.29 49.58 L 64.47 48.63 L 63.65 47.68 L 62.83 46.73 L 62.00 45.78 L 61.16 44.83 L 60.32 43.89 L 59.47 42.95 L 58.61 42.02 L 57.76 41.09 L 56.91 40.16 L 56.05 39.24 L 55.21 38.31 L 54.38 37.38 L 53.56 36.44 L 52.75 35.50 L 51.94 34.56 L 51.13 33.64 L 50.29 32.70 L 49.43 31.74 L 48.59 30.73 L 47.72 29.80 L 46.83 28.92 L 45.93 28.00 Z" />
</symbol>
<symbol id="bl4">
<path d="M 165.37 188.56 L 164.11 189.05 L 162.95 189.51 L 161.93 189.94 L 160.98 190.37 L 160.10 190.78 L 159.26 191.20 L 158.43 191.64 L 157.59 192.11 L 156.76 192.59 L 155.95 193.08 L 155.17 193.56 L 154.40 194.06 L 153.63 194.58 L 152.84 195.13 L 152.06 195.70 L 151.30 196.26 L 150.57 196.80 L 149.87 197.34 L 149.19 197.88 L 148.52 198.42 L 147.87 198.96 L 147.25 199.49 L 146.67 200.02 L 146.12 200.56 L 145.59 201.13 L 145.09 201.74 L 144.64 202.35 L 144.28 202.92 L 143.98 203.50 L 143.72 204.11 L 143.48 204.78 L 143.29 205.47 L 143.18 206.15 L 143.15 206.83 L 143.19 207.52 L 143.28 208.22 L 143.42 208.92 L 143.62 209.63 L 143.87 210.35 L 144.17 211.10 L 144.52 211.87 L 144.92 212.66 L 145.36 213.45 L 145.85 214.26 L 146.39 215.08 L 146.97 215.94 L 147.58 216.82 L 148.22 217.71 L 148.90 218.59 L 149.63 219.48 L 150.40 220.39 L 151.19 221.35 L 152.00 222.31 L 152.83 223.27 L 153.73 224.20 L 154.68 225.11 L 155.63 226.05 L 156.58 227.00 L 157.64 227.78 L 158.83 228.29 L 160.11 228.52 L 161.41 228.45 L 162.67 228.07 L 163.77 227.43 L 164.70 226.61 L 165.46 225.69 L 166.14 224.76 L 166.84 223.83 L 167.55 222.93 L 168.26 222.06 L 168.98 221.25 L 169.69 220.46 L 170.41 219.66 L 171.13 218.86 L 171.89 218.07 L 172.67 217.31 L 173.48 216.57 L 174.31 215.83 L 175.15 215.09 L 175.99 214.31 L 176.84 213.53 L 177.71 212.74 L 178.61 211.96 L 179.55 211.20 L 180.51 210.43 L 181.44 209.65 L 182.37 208.88 L 183.37 208.22 L 184.50 207.77 L 185.71 207.57 L 186.93 207.65 L 188.08 207.97 L 189.14 208.48 L 190.15 209.05 L 191.16 209.57 L 192.15 210.07 L 193.13 210.54 L 194.09 211.00 L 195.03 211.41 L 195.95 211.79 L 196.86 212.11 L 197.75 212.37 L 198.66 212.56 L 199.57 212.71 L 200.46 212.82 L 201.34 212.89 L 202.21 212.92 L 203.08 212.89 L 203.97 212.80 L 204.86 212.68 L 205.75 212.53 L 206.63 212.36 L 207.52 212.18 L 208.41 211.97 L 209.31 211.74 L 210.20 211.50 L 211.10 211.25 L 212.00 211.00 L 212.92 210.74 L 213.83 210.49 L 214.75 210.23 L 215.66 209.97 L 216.58 209.71 L 217.51 209.45 L 218.45 209.18 L 219.40 208.91 L 220.34 208.64 L 221.29 208.36 L 222.25 208.07 L 223.22 207.79 L 224.20 207.51 L 225.21 207.26 L 226.23 207.01 L 227.26 206.76 L 228.29 206.49 L 229.32 206.20 L 230.37 205.90 L 231.42 205.61 L 232.49 205.35 L 233.54 204.96 L 234.53 204.43 L 235.52 203.93 L 236.54 203.45 L 237.55 202.93 L 238.55 202.40 L 239.56 201.85 L 240.55 201.29 L 241.56 200.73 L 242.56 200.19 L 243.57 199.65 L 244.58 199.11 L 245.59 198.55 L 246.59 197.99 L 247.59 197.42 L 248.59 196.83 L 249.57 196.24 L 250.54 195.63 L 251.50 195.02 L 252.46 194.39 L 253.41 193.76 L 254.36 193.12 L 255.31 192.47 L 256.24 191.81 L 257.18 191.17 L 258.12 190.49 L 259.06 189.81 L 260.01 189.12 L 260.96 188.43 L 261.91 187.74 L 262.86 187.03 L 263.83 186.33 L 264.80 185.61 L 265.79 184.89 L 266.78 184.17 L 267.78 183.44 L 268.77 182.71 L 269.77 181.97 L 270.77 181.22 L 271.77 180.47 L 272.78 179.72 L 273.78 178.96 L 274.79 178.19 L 275.78 177.40 L 276.78 176.61 L 277.77 175.80 L 278.76 175.00 L 279.74 174.18 L 280.71 173.34 L 281.68 172.49 L 282.65 171.63 L 283.62 170.75 L 284.59 169.87 L 285.55 168.97 L 286.52 168.07 L 287.49 167.17 L 288.45 166.26 L 289.41 165.34 L 290.38 164.40 L 291.35 163.46 L 292.32 162.53 L 293.30 161.60 L 294.27 160.66 L 295.25 159.72 L 296.24 158.76 L 297.22 157.80 L 298.21 156.84 L 299.20 155.88 L 300.20 154.92 L 301.20 153.96 L 302.21 152.99 L 303.22 152.02 L 304.23 151.05 L 305.24 150.08 L 306.27 149.11 L 307.31 148.16 L 308.35 147.21 L 309.41 146.26 L 310.47 145.31 L 311.54 144.38 L 312.62 143.45 L 313.71 142.54 L 314.82 141.65 L 315.95 140.76 L 317.08 139.88 L 318.22 139.00 L 319.37 138.13 L 320.53 137.27 L 321.69 136.42 L 322.87 135.57 L 324.05 134.73 L 325.23 133.89 L 326.41 133.05 L 327.60 132.21 L 328.78 131.37 L 329.97 130.53 L 331.16 129.69 L 332.34 128.85 L 333.53 128.02 L 334.71 127.18 L 335.90 126.34 L 337.09 125.50 L 338.27 124.66 L 339.46 123.82 L 340.64 122.98 L 341.83 122.14 L 343.02 121.31 L 344.20 120.47 L 345.39 119.63 L 346.58 118.79 L 347.76 117.96 L 348.95 117.13 L 350.15 116.30 L 351.34 115.48 L 352.54 114.67 L 353.74 113.87 L 354.95 113.07 L 356.16 112.28 L 357.38 111.50 L 358.60 110.74 L 359.83 109.99 L 361.07 109.25 L 362.32 108.53 L 363.58 107.81 L 364.84 107.10 L 366.09 106.39 L 367.35 105.70 L 368.61 105.02 L 369.88 104.34 L 371.16 103.67 L 372.43 103.00 L 373.70 102.34 L 374.97 101.68 L 376.25 101.03 L 377.52 100.38 L 378.78 99.73 L 380.04 99.09 L 381.29 98.46 L 382.53 97.83 L 383.75 97.20 L 384.97 96.57 L 386.17 95.95 L 387.37 95.33 L 388.55 94.70 L 389.71 94.08 L 390.85 93.46 L 391.97 92.82 L 393.08 92.19 L 394.18 91.54 L 395.27 90.90 L 396.36 90.25 L 397.43 89.60 L 398.48 88.93 L 399.53 88.25 L 400.58 87.57 L 401.63 86.88 L 402.68 86.19 L 403.72 85.50 L 404.77 84.80 L 405.81 84.11 L 406.87 83.44 L 407.95 82.79 L 409.05 82.17 L 410.15 81.58 L 411.25 81.03 L 412.36 80.52 L 413.50 80.06 L 414.67 79.63 L 415.86 79.24 L 417.06 78.87 L 418.24 78.54 L 419.43 78.23 L 420.61 77.91 L 421.72 77.40 L 422.72 76.71 L 423.60 75.89 L 424.47 75.08 L 425.35 74.28 L 426.21 73.48 L 427.04 72.68 L 427.86 71.88 L 428.67 71.10 L 429.47 70.32 L 430.26 69.53 L 431.03 68.73 L 431.78 67.94 L 432.54 67.16 L 433.28 66.39 L 434.00 65.62 L 434.70 64.82 L 435.36 64.01 L 436.01 63.19 L 436.65 62.41 L 437.28 61.66 L 437.90 60.92 L 438.47 60.17 L 439.01 59.41 L 439.51 58.65 L 440.00 57.91 L 440.48 57.18 L 440.94 56.44 L 441.34 55.69 L 441.64 54.93 L 441.83 54.15 L 441.92 53.41 L 441.91 52.70 L 441.76 52.05 L 441.46 51.46 L 441.05 50.92 L 440.59 50.42 L 440.00 50.02 L 439.31 49.71 L 438.55 49.49 L 437.76 49.36 L 436.97 49.32 L 436.16 49.33 L 435.33 49.40 L 434.51 49.50 L 433.71 49.63 L 432.92 49.79 L 432.13 49.98 L 431.33 50.19 L 430.50 50.43 L 429.63 50.69 L 428.76 50.98 L 427.89 51.28 L 427.03 51.61 L 426.16 51.95 L 425.29 52.31 L 424.39 52.69 L 423.49 53.08 L 422.58 53.49 L 421.68 53.91 L 420.77 54.34 L 419.85 54.78 L 418.93 55.24 L 417.99 55.70 L 417.05 56.18 L 416.09 56.67 L 415.13 57.16 L 414.17 57.66 L 413.19 58.17 L 412.19 58.69 L 411.17 59.20 L 410.15 59.74 L 409.13 60.29 L 408.09 60.83 L 407.03 61.38 L 405.96 61.94 L 404.88 62.50 L 403.77 63.07 L 402.66 63.64 L 401.54 64.22 L 400.41 64.81 L 399.28 65.40 L 398.14 65.99 L 396.99 66.59 L 395.85 67.19 L 394.69 67.80 L 393.54 68.41 L 392.40 69.03 L 391.25 69.66 L 390.11 70.30 L 388.97 70.93 L 387.83 71.57 L 386.70 72.22 L 385.57 72.90 L 384.46 73.60 L 383.34 74.30 L 382.22 75.00 L 381.10 75.71 L 379.99 76.44 L 378.90 77.19 L 377.80 77.97 L 376.71 78.76 L 375.61 79.55 L 374.52 80.34 L 373.42 81.15 L 372.33 81.96 L 371.23 82.78 L 370.12 83.61 L 369.02 84.43 L 367.92 85.26 L 366.81 86.09 L 365.70 86.91 L 364.58 87.73 L 363.46 88.54 L 362.34 89.36 L 361.22 90.17 L 360.09 90.98 L 358.95 91.78 L 357.80 92.57 L 356.64 93.35 L 355.48 94.13 L 354.31 94.90 L 353.13 95.67 L 351.95 96.42 L 350.74 97.16 L 349.53 97.88 L 348.30 98.60 L 347.06 99.31 L 345.82 100.00 L 344.57 100.70 L 343.31 101.38 L 342.04 102.06 L 340.77 102.72 L 339.51 103.39 L 338.25 104.05 L 336.99 104.70 L 335.74 105.36 L 334.50 106.03 L 333.27 106.70 L 332.05 107.38 L 330.84 108.07 L 329.65 108.76 L 328.47 109.45 L 327.31 110.15 L 326.15 110.88 L 325.00 111.62 L 323.86 112.38 L 322.72 113.15 L 321.60 113.91 L 320.49 114.68 L 319.39 115.47 L 318.29 116.27 L 317.19 117.08 L 316.10 117.90 L 315.01 118.72 L 313.93 119.54 L 312.86 120.36 L 311.79 121.19 L 310.72 122.03 L 309.66 122.86 L 308.61 123.71 L 307.57 124.55 L 306.53 125.40 L 305.49 126.25 L 304.47 127.11 L 303.45 127.97 L 302.44 128.83 L 301.44 129.70 L 300.44 130.57 L 299.45 131.45 L 298.46 132.32 L 297.49 133.20 L 296.52 134.09 L 295.55 134.98 L 294.59 135.88 L 293.65 136.79 L 292.71 137.69 L 291.77 138.60 L 290.84 139.52 L 289.91 140.44 L 288.99 141.37 L 288.08 142.30 L 287.17 143.24 L 286.26 144.18 L 285.36 145.13 L 284.47 146.09 L 283.60 147.05 L 282.71 148.02 L 281.80 148.99 L 280.87 149.95 L 279.95 150.92 L 279.08 151.90 L 278.25 152.89 L 277.41 153.89 L 276.52 154.89 L 275.59 155.87 L 274.66 156.85 L 273.78 157.85 L 272.97 158.87 L 272.17 159.89 L 271.33 160.91 L 270.44 161.91 L 269.55 162.91 L 268.69 163.92 L 267.90 164.95 L 267.11 166.00 L 266.28 167.02 L 265.40 168.02 L 264.53 169.01 L 263.70 170.03 L 262.91 171.07 L 262.11 172.11 L 261.27 173.12 L 260.40 174.12 L 259.55 175.12 L 258.72 176.13 L 257.89 177.15 L 257.06 178.16 L 256.21 179.16 L 255.35 180.15 L 254.47 181.11 L 253.54 182.03 L 252.53 182.85 L 251.50 183.65 L 250.43 184.41 L 249.32 185.10 L 248.14 185.68 L 246.94 186.21 L 245.74 186.74 L 244.52 187.20 L 243.26 187.58 L 241.97 187.85 L 240.67 188.07 L 239.35 188.20 L 238.02 188.27 L 236.69 188.31 L 235.35 188.31 L 234.02 188.21 L 232.68 188.12 L 231.34 188.02 L 229.98 187.96 L 228.63 187.86 L 227.28 187.75 L 225.92 187.65 L 224.56 187.53 L 223.21 187.40 L 221.84 187.25 L 220.47 187.09 L 219.10 186.95 L 217.74 186.81 L 216.38 186.67 L 215.01 186.50 L 213.63 186.32 L 212.26 186.14 L 210.89 185.98 L 209.52 185.82 L 208.17 185.66 L 206.82 185.50 L 205.48 185.34 L 204.15 185.18 L 202.83 185.03 L 201.53 184.89 L 200.25 184.77 L 198.98 184.67 L 197.72 184.57 L 196.47 184.48 L 195.23 184.41 L 193.99 184.36 L 192.76 184.33 L 191.52 184.31 L 190.30 184.31 L 189.12 184.33 L 187.96 184.35 L 186.80 184.40 L 185.61 184.47 L 184.39 184.54 L 183.19 184.59 L 182.07 184.73 L 181.00 184.87 L 179.92 185.01 L 178.81 185.17 L 177.68 185.34 L 176.57 185.53 L 175.51 185.73 L 174.47 185.95 L 173.43 186.18 L 172.36 186.43 L 171.25 186.72 L 170.14 187.03 L 169.03 187.35 L 167.82 187.73 L 166.51 188.18 Z" />
</symbol>
<symbol id="bl5">
<path d="M 64.02 420.78 L 63.65 422.06 L 63.32 423.25 L 63.03 424.31 L 62.75 425.31 L 62.50 426.25 L 62.26 427.16 L 62.02 428.07 L 61.78 428.98 L 61.54 429.89 L 61.31 430.78 L 61.10 431.64 L 60.90 432.48 L 60.69 433.36 L 60.48 434.27 L 60.27 435.16 L 60.09 436.02 L 59.93 436.84 L 59.79 437.63 L 59.66 438.43 L 59.55 439.23 L 59.45 440.01 L 59.39 440.77 L 59.35 441.52 L 59.36 442.28 L 59.42 443.06 L 59.55 443.82 L 59.73 444.56 L 59.99 445.29 L 60.33 446.00 L 60.76 446.68 L 61.28 447.28 L 61.88 447.82 L 62.53 448.29 L 63.22 448.69 L 63.95 448.99 L 64.73 449.18 L 65.52 449.27 L 66.30 449.27 L 67.08 449.19 L 67.86 449.04 L 68.65 448.83 L 69.41 448.57 L 70.17 448.27 L 70.92 447.94 L 71.68 447.58 L 72.42 447.19 L 73.18 446.77 L 73.98 446.32 L 74.80 445.86 L 75.64 445.37 L 76.46 444.85 L 77.26 444.32 L 78.06 443.78 L 78.88 443.21 L 79.71 442.63 L 80.55 442.03 L 81.38 441.42 L 82.21 440.80 L 83.04 440.17 L 83.87 439.52 L 84.71 438.87 L 85.56 438.20 L 86.42 437.52 L 87.28 436.84 L 88.15 436.14 L 89.02 435.44 L 89.90 434.72 L 90.80 434.01 L 91.72 433.29 L 92.64 432.56 L 93.56 431.81 L 94.48 431.06 L 95.42 430.30 L 96.37 429.54 L 97.34 428.77 L 98.32 428.00 L 99.30 427.22 L 100.29 426.44 L 101.29 425.65 L 102.29 424.87 L 103.29 424.07 L 104.29 423.27 L 105.30 422.47 L 106.30 421.66 L 107.31 420.85 L 108.30 420.03 L 109.29 419.20 L 110.28 418.38 L 111.26 417.55 L 112.24 416.73 L 113.21 415.88 L 114.17 415.02 L 115.13 414.14 L 116.08 413.25 L 117.04 412.37 L 117.99 411.48 L 118.93 410.56 L 119.87 409.62 L 120.80 408.66 L 121.74 407.68 L 122.68 406.69 L 123.61 405.70 L 124.55 404.70 L 125.50 403.68 L 126.44 402.65 L 127.39 401.62 L 128.35 400.58 L 129.30 399.54 L 130.27 398.51 L 131.23 397.47 L 132.20 396.44 L 133.18 395.40 L 134.15 394.36 L 135.14 393.33 L 136.13 392.32 L 137.13 391.30 L 138.14 390.30 L 139.16 389.30 L 140.18 388.30 L 141.22 387.31 L 142.26 386.33 L 143.32 385.37 L 144.39 384.42 L 145.48 383.47 L 146.57 382.53 L 147.67 381.60 L 148.78 380.68 L 149.90 379.76 L 151.03 378.85 L 152.16 377.95 L 153.30 377.05 L 154.44 376.15 L 155.58 375.25 L 156.73 374.35 L 157.87 373.46 L 159.01 372.56 L 160.16 371.66 L 161.30 370.77 L 162.44 369.87 L 163.59 368.97 L 164.73 368.08 L 165.87 367.18 L 167.01 366.28 L 168.15 365.39 L 169.29 364.49 L 170.43 363.59 L 171.58 362.70 L 172.72 361.80 L 173.86 360.91 L 175.01 360.01 L 176.15 359.12 L 177.30 358.22 L 178.44 357.33 L 179.58 356.43 L 180.73 355.54 L 181.87 354.64 L 183.01 353.75 L 184.16 352.85 L 185.30 351.96 L 186.45 351.06 L 187.59 350.17 L 188.73 349.28 L 189.88 348.39 L 191.02 347.50 L 192.16 346.61 L 193.31 345.72 L 194.45 344.83 L 195.60 343.93 L 196.74 343.04 L 197.89 342.15 L 199.03 341.25 L 200.18 340.37 L 201.32 339.48 L 202.47 338.59 L 203.61 337.70 L 204.75 336.81 L 205.90 335.92 L 207.05 335.03 L 208.19 334.14 L 209.34 333.24 L 210.48 332.35 L 211.63 331.45 L 212.78 330.56 L 213.94 329.68 L 215.08 328.78 L 216.22 327.88 L 217.36 326.98 L 218.51 326.09 L 219.65 325.21 L 220.80 324.32 L 221.95 323.44 L 223.10 322.56 L 224.26 321.69 L 225.42 320.83 L 226.58 319.98 L 227.76 319.14 L 228.93 318.31 L 230.12 317.48 L 231.32 316.68 L 232.51 315.89 L 233.70 315.10 L 234.90 314.30 L 236.07 313.47 L 237.21 312.62 L 238.32 311.75 L 239.43 310.86 L 240.52 309.96 L 241.58 309.02 L 242.58 308.00 L 243.50 306.89 L 244.37 305.71 L 245.21 304.47 L 246.06 303.20 L 246.91 301.90 L 247.74 300.54 L 248.50 299.10 L 249.11 297.57 L 250.05 296.13 L 251.42 295.09 L 252.99 294.49 L 254.67 294.12 L 256.30 294.43 L 257.88 294.51 L 259.41 294.53 L 260.89 294.49 L 262.33 294.40 L 263.74 294.29 L 265.09 294.11 L 266.38 293.85 L 267.59 293.48 L 268.75 293.01 L 269.88 292.47 L 271.00 291.89 L 272.08 291.28 L 273.14 290.63 L 274.17 289.94 L 275.18 289.20 L 276.18 288.44 L 277.18 287.67 L 278.16 286.89 L 279.14 286.11 L 280.12 285.32 L 281.10 284.54 L 282.07 283.76 L 283.03 282.97 L 283.98 282.19 L 284.93 281.41 L 285.87 280.63 L 286.81 279.87 L 287.74 279.11 L 288.66 278.36 L 289.57 277.61 L 290.47 276.86 L 291.37 276.11 L 292.25 275.38 L 293.13 274.66 L 294.00 273.94 L 294.87 273.22 L 295.72 272.51 L 296.56 271.80 L 297.40 271.10 L 298.22 270.40 L 299.02 269.69 L 299.82 268.97 L 300.60 268.25 L 301.37 267.53 L 302.12 266.82 L 302.86 266.11 L 303.58 265.40 L 304.28 264.68 L 304.96 263.96 L 305.61 263.25 L 306.25 262.55 L 306.85 261.86 L 307.43 261.18 L 307.99 260.52 L 308.54 259.85 L 309.06 259.16 L 309.53 258.46 L 309.92 257.74 L 310.24 256.99 L 310.47 256.27 L 310.61 255.56 L 310.62 254.86 L 310.51 254.17 L 310.30 253.50 L 310.00 252.87 L 309.60 252.29 L 309.10 251.75 L 308.53 251.28 L 307.91 250.89 L 307.27 250.55 L 306.59 250.25 L 305.89 249.98 L 305.21 249.76 L 304.52 249.58 L 303.83 249.43 L 303.12 249.29 L 302.38 249.16 L 301.64 249.05 L 300.90 248.95 L 300.14 248.88 L 299.37 248.84 L 298.56 248.81 L 297.74 248.76 L 296.90 248.71 L 296.07 248.68 L 295.25 248.70 L 294.43 248.75 L 293.61 248.82 L 292.77 248.88 L 291.92 248.92 L 291.05 248.96 L 290.18 249.02 L 289.31 249.12 L 288.45 249.29 L 287.60 249.46 L 286.73 249.62 L 285.84 249.76 L 284.93 249.93 L 284.01 250.12 L 283.10 250.34 L 282.22 250.69 L 281.42 251.18 L 280.73 251.82 L 280.12 252.55 L 279.58 253.34 L 279.06 254.13 L 278.48 254.88 L 277.86 255.61 L 277.22 256.33 L 276.56 257.02 L 275.87 257.67 L 275.13 258.27 L 274.33 258.81 L 273.50 259.33 L 272.63 259.83 L 271.76 260.32 L 270.86 260.79 L 269.94 261.24 L 269.02 261.68 L 268.10 262.14 L 267.18 262.60 L 266.27 263.07 L 265.35 263.55 L 264.44 264.05 L 263.56 264.57 L 262.71 265.12 L 261.87 265.69 L 261.02 266.25 L 260.17 266.83 L 259.34 267.42 L 258.54 268.03 L 257.75 268.66 L 256.97 269.29 L 256.19 269.93 L 255.40 270.55 L 254.63 271.21 L 253.86 271.85 L 253.07 272.48 L 252.28 273.10 L 251.49 273.70 L 250.68 274.29 L 249.86 274.88 L 249.01 275.45 L 248.14 275.99 L 247.26 276.52 L 246.37 277.01 L 245.47 277.47 L 244.54 277.91 L 243.60 278.35 L 242.65 278.80 L 241.68 279.28 L 240.70 279.70 L 239.71 280.07 L 238.71 280.44 L 237.71 280.83 L 236.71 281.23 L 235.70 281.63 L 234.68 282.01 L 233.66 282.37 L 232.64 282.73 L 231.62 283.09 L 230.61 283.46 L 229.61 283.83 L 228.63 284.21 L 227.64 284.60 L 226.66 284.99 L 225.67 285.36 L 224.69 285.72 L 223.75 286.11 L 222.82 286.52 L 221.91 286.95 L 221.01 287.37 L 220.11 287.77 L 219.23 288.16 L 218.36 288.57 L 217.51 288.99 L 216.69 289.42 L 215.88 289.85 L 215.11 290.29 L 214.34 290.72 L 213.57 291.13 L 212.87 291.61 L 212.23 292.16 L 211.65 292.73 L 211.10 293.31 L 210.57 293.91 L 210.05 294.49 L 209.55 295.05 L 209.05 295.61 L 208.55 296.15 L 208.03 296.72 L 207.47 297.32 L 206.90 297.94 L 206.34 298.58 L 205.81 299.23 L 205.27 299.92 L 204.73 300.64 L 204.16 301.40 L 203.61 302.22 L 203.08 303.09 L 202.55 304.00 L 202.02 304.93 L 201.51 305.87 L 201.00 306.83 L 200.51 307.76 L 200.04 308.64 L 199.56 309.52 L 199.07 310.38 L 198.61 311.20 L 198.16 311.99 L 197.72 312.73 L 197.24 313.45 L 196.76 314.15 L 196.28 314.82 L 195.83 315.46 L 195.39 316.10 L 194.95 316.74 L 194.49 317.37 L 194.03 317.99 L 193.56 318.61 L 193.06 319.22 L 192.55 319.81 L 192.05 320.40 L 191.57 320.98 L 191.06 321.56 L 190.51 322.15 L 189.90 322.72 L 189.26 323.26 L 188.60 323.78 L 187.95 324.28 L 187.28 324.78 L 186.60 325.24 L 185.92 325.66 L 185.22 326.06 L 184.50 326.45 L 183.77 326.80 L 183.04 327.12 L 182.35 327.42 L 181.69 327.69 L 181.04 327.95 L 180.36 328.20 L 179.65 328.46 L 178.91 328.71 L 178.18 328.96 L 177.44 329.20 L 176.71 329.43 L 175.95 329.65 L 175.16 329.87 L 174.35 330.08 L 173.51 330.27 L 172.66 330.44 L 171.80 330.58 L 170.93 330.71 L 170.07 330.83 L 169.19 330.94 L 168.29 331.04 L 167.37 331.12 L 166.45 331.19 L 165.53 331.26 L 164.61 331.33 L 163.70 331.41 L 162.78 331.48 L 161.85 331.55 L 160.91 331.63 L 159.97 331.72 L 159.03 331.81 L 158.11 331.92 L 157.19 332.05 L 156.26 332.19 L 155.31 332.35 L 154.36 332.51 L 153.42 332.68 L 152.52 332.86 L 151.62 333.07 L 150.72 333.30 L 149.82 333.54 L 148.93 333.79 L 148.05 334.03 L 147.20 334.28 L 146.34 334.54 L 145.49 334.82 L 144.65 335.12 L 143.82 335.42 L 143.00 335.73 L 142.19 336.06 L 141.37 336.39 L 140.55 336.74 L 139.72 337.09 L 138.90 337.46 L 138.08 337.84 L 137.26 338.23 L 136.43 338.63 L 135.59 339.00 L 134.74 339.35 L 133.88 339.67 L 133.00 339.99 L 132.11 340.30 L 131.20 340.60 L 130.29 340.88 L 129.36 341.14 L 128.42 341.38 L 127.45 341.61 L 126.45 341.86 L 125.49 342.20 L 124.59 342.70 L 123.76 343.29 L 122.94 343.95 L 122.11 344.63 L 121.27 345.33 L 120.43 346.03 L 119.58 346.72 L 118.75 347.45 L 117.94 348.20 L 117.12 348.98 L 116.29 349.77 L 115.45 350.54 L 114.61 351.32 L 113.79 352.12 L 112.98 352.94 L 112.18 353.77 L 111.38 354.59 L 110.57 355.39 L 109.77 356.19 L 108.97 357.00 L 108.20 357.84 L 107.45 358.69 L 106.70 359.54 L 105.96 360.34 L 105.20 361.11 L 104.46 361.89 L 103.74 362.70 L 103.04 363.54 L 102.34 364.37 L 101.65 365.17 L 100.94 365.92 L 100.24 366.67 L 99.56 367.43 L 98.87 368.20 L 98.20 368.96 L 97.52 369.71 L 96.85 370.45 L 96.17 371.18 L 95.50 371.91 L 94.83 372.63 L 94.16 373.35 L 93.48 374.06 L 92.81 374.77 L 92.14 375.48 L 91.47 376.19 L 90.79 376.91 L 90.11 377.62 L 89.43 378.33 L 88.75 379.03 L 88.07 379.74 L 87.38 380.46 L 86.70 381.17 L 86.01 381.89 L 85.32 382.61 L 84.63 383.33 L 83.94 384.06 L 83.25 384.79 L 82.57 385.53 L 81.89 386.29 L 81.21 387.05 L 80.54 387.82 L 79.87 388.59 L 79.21 389.38 L 78.56 390.19 L 77.92 391.01 L 77.29 391.85 L 76.68 392.71 L 76.07 393.57 L 75.46 394.45 L 74.87 395.34 L 74.28 396.26 L 73.72 397.21 L 73.16 398.16 L 72.61 399.12 L 72.09 400.06 L 71.57 401.03 L 71.06 402.03 L 70.55 403.05 L 70.05 404.07 L 69.59 405.06 L 69.15 406.02 L 68.73 407.00 L 68.31 408.01 L 67.90 409.03 L 67.50 410.04 L 67.12 411.01 L 66.77 411.98 L 66.43 412.95 L 66.09 413.97 L 65.71 415.01 L 65.38 416.08 L 65.06 417.16 L 64.71 418.34 L 64.33 419.63 Z" />
</symbol>
</defs>
<!-- isDone: 0 -->
<rect width="700" height="500" style="fill:#fff;stroke-width:0" />
<use class="p0 borderLine" xlink:href="#bl0"/>
<use class="p1 borderLine" xlink:href="#bl1"/>
<use class="p2 borderLine" xlink:href="#bl2"/>
<use class="p3 borderLine" xlink:href="#bl3"/>
<use class="p4 borderLine" xlink:href="#bl4"/>
<use class="p5 borderLine" xlink:href="#bl5"/>
<use class="q0 outLine" xlink:href="#bl0"/>
<use class="q1 outLine" xlink:href="#bl1"/>
<use class="q2 outLine" xlink:href="#bl2"/>
<use class="q3 outLine" xlink:href="#bl3"/>
<use class="q4 outLine" xlink:href="#bl4"/>
<use class="q5 outLine" xlink:href="#bl5"/>
<circle onclick="fromCircle(1)" class="circle" cx="462.6856" cy="464.7595" r="4.6731" />
<text class="tLabel" x="462.69" y="444.76"></text>
<text class="nLabel" x="462.69" y="459.76">7</text>
<text class="belong" x="462.69" y="469.76">(1)</text>
<circle onclick="fromCircle(2)" class="circle" cx="381.6102" cy="379.2945" r="4.6731" />
<text class="tLabel" x="381.61" y="359.29"></text>
<text class="nLabel" x="381.61" y="374.29">10</text>
<text class="belong" x="381.61" y="384.29">(2)</text>
<circle onclick="fromCircle(6)" class="circle" cx="247.9336" cy="243.8838" r="8.4757" />
<text class="tLabel" x="247.93" y="223.88"></text>
<text class="nLabel" x="247.93" y="238.88">49</text>
<text class="belong" x="247.93" y="248.88">(2, 3)</text>
<circle onclick="fromCircle(14)" class="circle" cx="232.3563" cy="243.6377" r="4.6731" />
<text class="tLabel" x="232.36" y="223.64"></text>
<text class="nLabel" x="232.36" y="238.64">2</text>
<text class="belong" x="232.36" y="248.64">(2, 3, 4)</text>
<circle onclick="fromCircle(10)" class="circle" cx="185.9363" cy="213.1868" r="4.6731" />
<text class="tLabel" x="185.94" y="193.19"></text>
<text class="nLabel" x="185.94" y="208.19">3</text>
<text class="belong" x="185.94" y="218.19">(2, 4)</text>
<circle onclick="fromCircle(26)" class="circle" cx="160.4342" cy="222.9481" r="4.6731" />
<text class="tLabel" x="160.43" y="202.95"></text>
<text class="nLabel" x="160.43" y="217.95">1</text>
<text class="belong" x="160.43" y="227.95">(2, 4, 5)</text>
<circle onclick="fromCircle(38)" class="circle" cx="284.7203" cy="255.7700" r="4.6731" />
<text class="tLabel" x="284.72" y="235.77"></text>
<text class="nLabel" x="284.72" y="250.77">4</text>
<text class="belong" x="284.72" y="260.77">(2, 3, 6)</text>
<circle onclick="fromCircle(4)" class="circle" cx="236.9324" cy="163.6694" r="20.5125" />
<text class="tLabel" x="236.93" y="143.67"></text>
<text class="nLabel" x="236.93" y="158.67">287</text>
<text class="belong" x="236.93" y="168.67">(3)</text>
<circle onclick="fromCircle(5)" class="circle" cx="254.3315" cy="299.9301" r="4.6731" />
<text class="tLabel" x="254.33" y="279.93"></text>
<text class="nLabel" x="254.33" y="294.93">1</text>
<text class="belong" x="254.33" y="304.93">(1, 3)</text>
<circle onclick="fromCircle(12)" class="circle" cx="194.5393" cy="305.8754" r="4.8433" />
<text class="tLabel" x="194.54" y="285.88"></text>
<text class="nLabel" x="194.54" y="300.88">16</text>
<text class="belong" x="194.54" y="310.88">(3, 4)</text>
<circle onclick="fromCircle(44)" class="circle" cx="127.8212" cy="347.2880" r="4.6731" />
<text class="tLabel" x="127.82" y="327.29"></text>
<text class="nLabel" x="127.82" y="342.29">1</text>
<text class="belong" x="127.82" y="352.29">(3, 4, 6)</text>
<circle onclick="fromCircle(20)" class="circle" cx="231.0850" cy="199.8916" r="4.6731" />
<text class="tLabel" x="231.09" y="179.89"></text>
<text class="nLabel" x="231.09" y="194.89">2</text>
<text class="belong" x="231.09" y="204.89">(3, 5)</text>
<circle onclick="fromCircle(36)" class="circle" cx="218.3063" cy="298.9809" r="7.5616" />
<text class="tLabel" x="218.31" y="278.98"></text>
<text class="nLabel" x="218.31" y="293.98">39</text>
<text class="belong" x="218.31" y="303.98">(3, 6)</text>
<circle onclick="fromCircle(8)" class="circle" cx="43.4940" cy="34.7900" r="5.4149" />
<text class="tLabel" x="43.49" y="14.79"></text>
<text class="nLabel" x="43.49" y="29.79">20</text>
<text class="belong" x="43.49" y="39.79">(4)</text>
<circle onclick="fromCircle(16)" class="circle" cx="418.8709" cy="72.5923" r="4.6731" />
<text class="tLabel" x="418.87" y="52.59"></text>
<text class="nLabel" x="418.87" y="67.59">2</text>
<text class="belong" x="418.87" y="77.59">(5)</text>
<circle onclick="fromCircle(32)" class="circle" cx="81.5413" cy="420.0818" r="7.5616" />
<text class="tLabel" x="81.54" y="400.08"></text>
<text class="nLabel" x="81.54" y="415.08">39</text>
<text class="belong" x="81.54" y="425.08">(6)</text>
<circle onclick="fromCircle(47)" class="circle" cx="252.7216" cy="283.8127" r="4.6731" />
<text class="tLabel" x="252.72" y="263.81"></text>
<text class="nLabel" x="252.72" y="278.81">1</text>
<text class="belong" x="252.72" y="288.81">(1, 2, 3, 4, 6)</text>
<rect class="p0 borderLine" x="500.00" y="50.00" width="30.00" height="15.00" />
<rect class="q0" x="500.00" y="50.00" width="30.00" height="15.00" />
<text class="legend" x="540.00" y="65.00">IBA</text>
<rect class="p1 borderLine" x="500.00" y="90.00" width="30.00" height="15.00" />
<rect class="q1" x="500.00" y="90.00" width="30.00" height="15.00" />
<text class="legend" x="540.00" y="105.00">IC</text>
<rect class="p2 borderLine" x="500.00" y="130.00" width="30.00" height="15.00" />
<rect class="q2" x="500.00" y="130.00" width="30.00" height="15.00" />
<text class="legend" x="540.00" y="145.00">IDA</text>
<rect class="p3 borderLine" x="500.00" y="170.00" width="30.00" height="15.00" />
<rect class="q3" x="500.00" y="170.00" width="30.00" height="15.00" />
<text class="legend" x="540.00" y="185.00">IEA</text>
<rect class="p4 borderLine" x="500.00" y="210.00" width="30.00" height="15.00" />
<rect class="q4" x="500.00" y="210.00" width="30.00" height="15.00" />
<text class="legend" x="540.00" y="225.00">ISS</text>
<rect class="p5 borderLine" x="500.00" y="250.00" width="30.00" height="15.00" />
<rect class="q5" x="500.00" y="250.00" width="30.00" height="15.00" />
<text class="legend" x="540.00" y="265.00">NAS</text>
</svg>
