<svg xmlns="http://www.w3.org/2000/svg" xmlns:xlink="http://www.w3.org/1999/xlink" width="700" height="500">
<defs>
<style type="text/css"><![CDATA[
  .borderLine {
	   stroke: none;
	   fill-opacity: 0.4;
  }
  .outLine {
	   stroke-width: 1;
	   fill: none;
  }
  .circle {
	   stroke: #888888;
	   stroke-width: 0.5;
	   fill: none;
    pointer-events: all;
  }
  .spcircle {
	   stroke: #FF2222;
	   stroke-width: 1;
	   fill: none;
    pointer-events: all;
  }
  .tLabel {
	   font-family: Arial;
    pointer-events: none;
	   font-size: 14px;
	   text-anchor: middle;
	   alignment-baseline: central;
  }
  .nLabel {
	   font-family: Arial;
    pointer-events: none;
	   font-size: 10px;
	   text-anchor: middle;
	   alignment-baseline: central;
  }
  .belong {
	   font-family: Arial;
    pointer-events: none;
	   font-size: 5px;
	   text-anchor: middle;
	   alignment-baseline: central;
  }
  .p0{
    stroke: none;
    fill: #e6194b;
  }
  .q0{
    fill: none;
    stroke: #e6194b;
  }
  .p1{
    stroke: none;
    fill: #3cb44b;
  }
  .q1{
    fill: none;
    stroke: #3cb44b;
  }
  .p2{
    stroke: none;
    fill: #ffe119;
  }
  .q2{
    fill: none;
    stroke: #ffe119;
  }
  .p3{
    stroke: none;
    fill: #0082c8;
  }
  .q3{
    fill: none;
    stroke: #0082c8;
  }
  .p4{
    stroke: none;
    fill: #f58231;
  }
  .q4{
    fill: none;
    stroke: #f58231;
  }
  .p5{
    stroke: none;
    fill: #911eb4;
  }
  .q5{
    fill: none;
    stroke: #911eb4;
  }
  .p6{
    stroke: none;
    fill: #46f0f0;
  }
  .q6{
    fill: none;
    stroke: #46f0f0;
  }
  .p7{
    stroke: none;
    fill: #f032e6;
  }
  .q7{
    fill: none;
    stroke: #f032e6;
  }
]]>
</style>
<symbol id="bl0">
<path d="M 128.44 396.98 L 125.78 410.35 L 126.44 423.81 L 128.48 436.93 L 133.05 449.40 L 139.80 461.00 L 148.33 471.36 L 158.55 480.18 L 170.34 487.27 L 183.57 491.64 L 197.61 492.95 L 212.08 492.39 L 226.46 489.01 L 239.99 482.63 L 252.42 473.74 L 263.55 462.76 L 271.10 448.84 L 275.24 433.29 L 276.80 417.06 L 275.15 400.63 L 271.33 384.52 L 267.40 368.43 L 263.36 352.43 L 259.92 336.14 L 257.46 319.58 L 255.30 302.74 L 252.22 285.63 L 254.73 267.73 L 262.24 252.35 L 271.48 237.92 L 279.80 223.30 L 283.94 207.07 L 288.30 191.04 L 293.91 175.39 L 299.68 159.27 L 303.02 142.42 L 297.40 126.77 L 284.23 116.65 L 266.47 114.46 L 249.40 115.63 L 232.34 116.06 L 215.24 117.19 L 198.61 119.48 L 190.20 132.85 L 182.71 147.36 L 175.34 162.60 L 163.55 175.20 L 146.33 178.68 L 129.82 174.28 L 119.03 161.29 L 113.16 146.60 L 107.23 131.48 L 102.45 116.20 L 96.51 101.81 L 89.48 88.01 L 86.41 71.73 L 84.55 56.36 L 80.45 41.82 L 76.78 27.35 L 67.12 15.85 L 53.18 10.23 L 37.78 10.41 L 24.20 17.96 L 15.21 30.34 L 13.38 44.71 L 16.60 58.42 L 20.24 72.02 L 22.82 85.59 L 25.12 99.23 L 27.90 112.87 L 31.03 126.53 L 37.07 140.19 L 50.74 146.70 L 63.64 154.26 L 76.61 161.74 L 89.88 168.94 L 103.65 176.19 L 114.03 188.77 L 116.61 204.29 L 109.68 217.59 L 101.02 230.72 L 90.69 241.91 L 80.93 253.19 L 76.76 267.66 L 80.23 282.29 L 89.84 293.51 L 101.58 301.78 L 114.01 308.58 L 125.90 316.08 L 136.10 327.04 L 138.04 342.23 L 134.89 356.15 L 132.54 369.86 L 130.53 383.44 Z" />
</symbol>
<symbol id="bl1">
<path d="M 156.27 261.56 L 146.23 270.60 L 136.69 280.02 L 127.11 289.31 L 116.84 297.90 L 105.70 305.79 L 94.37 313.68 L 84.11 323.64 L 79.31 337.20 L 81.20 351.15 L 89.71 361.58 L 100.86 368.87 L 114.60 369.41 L 127.70 364.61 L 140.73 359.68 L 154.01 354.39 L 166.89 348.23 L 180.46 343.47 L 194.48 340.63 L 208.78 340.81 L 223.12 341.26 L 237.61 341.76 L 251.99 342.73 L 266.70 342.75 L 282.32 338.99 L 295.97 332.06 L 309.48 325.34 L 323.02 318.50 L 336.56 311.83 L 350.45 305.67 L 364.83 300.31 L 376.63 289.20 L 381.82 273.96 L 381.76 258.90 L 376.10 245.18 L 365.78 233.44 L 353.52 223.80 L 341.38 214.76 L 333.04 199.71 L 339.65 185.54 L 354.87 186.42 L 365.37 195.11 L 375.36 206.26 L 383.49 218.43 L 396.50 231.31 L 413.17 225.83 L 413.96 209.56 L 403.75 198.63 L 391.05 191.67 L 377.56 185.92 L 364.19 180.16 L 350.88 174.16 L 337.45 168.91 L 326.05 158.22 L 316.74 146.91 L 307.29 135.70 L 298.33 124.17 L 286.70 114.22 L 271.44 112.80 L 256.74 112.89 L 241.59 112.92 L 225.82 113.63 L 210.47 114.31 L 194.88 121.28 L 192.88 135.12 L 204.01 145.83 L 217.99 153.43 L 231.26 160.95 L 244.09 168.27 L 256.92 175.37 L 269.78 181.94 L 282.49 188.44 L 295.22 194.49 L 308.48 200.64 L 321.60 207.94 L 322.18 222.23 L 311.21 232.18 L 298.05 233.71 L 285.37 235.48 L 272.82 237.56 L 260.96 242.32 L 248.22 237.42 L 237.65 230.04 L 234.53 218.86 L 229.75 207.85 L 227.25 195.95 L 225.66 183.85 L 225.38 171.22 L 218.18 160.14 L 209.08 153.10 L 200.79 145.20 L 192.11 137.76 L 183.23 130.70 L 175.26 122.99 L 166.54 115.79 L 156.51 111.73 L 145.92 110.65 L 135.20 113.04 L 125.12 118.77 L 118.50 127.79 L 113.79 137.88 L 112.96 149.91 L 117.82 161.65 L 124.59 172.69 L 136.29 177.81 L 147.12 185.35 L 159.31 190.71 L 171.95 195.02 L 182.04 204.45 L 186.86 217.91 L 184.58 231.75 L 177.33 243.77 L 166.66 252.74 Z" />
</symbol>
<symbol id="bl2">
<path d="M 80.81 64.74 L 70.64 72.61 L 60.14 80.09 L 49.07 86.72 L 38.54 93.88 L 30.89 103.87 L 26.48 115.88 L 27.04 129.01 L 33.09 140.42 L 39.46 151.60 L 46.33 163.48 L 52.39 174.94 L 54.05 187.97 L 56.26 199.94 L 57.07 212.05 L 65.22 222.34 L 75.70 229.03 L 87.87 232.52 L 100.69 236.04 L 114.10 238.49 L 126.76 243.92 L 139.79 249.51 L 154.31 252.63 L 168.36 250.45 L 181.43 244.27 L 193.74 235.76 L 206.57 227.59 L 221.90 228.63 L 234.01 238.01 L 238.36 252.83 L 234.06 267.63 L 226.19 280.10 L 215.88 291.36 L 214.63 307.02 L 223.94 318.19 L 240.16 315.82 L 254.64 311.79 L 268.17 307.40 L 282.15 304.33 L 294.06 295.05 L 300.32 280.40 L 299.12 265.95 L 297.85 250.77 L 294.55 236.17 L 291.48 221.84 L 293.91 206.82 L 295.32 191.76 L 298.75 176.89 L 303.02 161.95 L 307.16 146.90 L 304.63 131.21 L 294.73 118.03 L 280.34 109.51 L 263.84 109.91 L 249.63 118.97 L 236.95 128.21 L 224.18 137.15 L 211.94 146.23 L 196.90 143.73 L 190.61 130.89 L 191.31 116.49 L 193.83 101.73 L 196.17 86.85 L 198.64 71.85 L 198.22 57.54 L 194.10 44.40 L 182.24 35.82 L 168.45 34.78 L 154.19 35.43 L 140.54 38.34 L 127.04 40.99 L 113.70 44.24 L 100.32 45.92 L 89.99 55.72 Z" />
</symbol>
<symbol id="bl3">
<path d="M 66.65 8.67 L 53.12 3.64 L 38.65 3.28 L 25.70 9.70 L 16.06 19.88 L 9.45 32.01 L 8.85 45.29 L 11.97 57.46 L 18.79 68.55 L 28.95 77.81 L 41.98 81.30 L 55.08 84.89 L 68.26 87.70 L 80.22 94.28 L 88.21 105.50 L 93.57 118.61 L 98.43 132.33 L 103.70 146.10 L 108.92 159.99 L 114.97 173.67 L 119.62 188.61 L 122.79 202.83 L 121.88 217.98 L 124.80 233.42 L 133.37 246.66 L 147.25 254.58 L 161.45 260.37 L 175.57 266.49 L 189.79 272.70 L 203.88 279.16 L 220.14 280.38 L 233.57 272.09 L 246.97 263.72 L 259.88 254.52 L 275.13 250.55 L 289.99 253.32 L 299.24 265.10 L 307.33 277.32 L 313.42 291.10 L 324.88 301.72 L 339.55 306.44 L 354.86 306.58 L 368.73 299.64 L 381.41 290.05 L 385.69 275.41 L 386.97 260.59 L 382.76 245.64 L 378.40 230.73 L 373.61 216.12 L 368.49 201.91 L 363.93 186.84 L 350.23 178.23 L 336.38 183.70 L 322.03 188.35 L 309.06 194.52 L 296.32 200.61 L 288.08 213.78 L 285.13 227.15 L 275.13 238.58 L 261.13 244.82 L 246.65 241.62 L 234.44 233.23 L 230.32 219.87 L 231.81 206.45 L 238.94 194.06 L 251.98 186.37 L 266.21 184.73 L 280.53 182.86 L 292.83 174.59 L 303.53 164.62 L 309.64 150.58 L 307.60 135.41 L 300.93 121.66 L 288.97 111.99 L 274.30 108.64 L 258.83 109.90 L 246.62 120.56 L 235.28 130.67 L 223.38 140.56 L 210.00 148.89 L 195.17 145.13 L 187.20 133.06 L 179.18 120.73 L 171.21 107.82 L 164.04 94.33 L 155.64 81.41 L 146.06 69.03 L 137.44 56.95 L 127.71 45.73 L 115.46 37.69 L 103.01 30.13 L 90.50 22.65 L 77.97 16.29 Z" />
</symbol>
<symbol id="bl4">
<path d="M 14.14 178.09 L 15.38 192.01 L 18.66 205.62 L 22.76 219.06 L 27.19 232.44 L 31.79 245.70 L 36.48 258.75 L 41.27 271.67 L 46.27 284.47 L 51.44 297.18 L 56.80 309.80 L 62.04 322.54 L 67.65 335.20 L 74.01 347.44 L 79.20 360.28 L 89.54 369.03 L 101.05 374.61 L 114.11 375.25 L 126.70 370.70 L 137.55 362.48 L 148.38 354.04 L 159.61 346.14 L 171.32 339.16 L 183.20 332.69 L 194.58 324.61 L 201.81 312.89 L 203.43 299.32 L 200.20 285.74 L 191.97 274.42 L 179.90 267.33 L 166.93 262.64 L 153.80 258.23 L 140.78 253.07 L 130.01 243.62 L 121.40 232.45 L 120.62 218.44 L 124.22 205.01 L 133.10 194.19 L 145.30 187.08 L 159.35 185.70 L 173.21 189.79 L 185.85 197.06 L 199.99 201.31 L 214.86 200.77 L 228.60 194.79 L 242.93 189.87 L 257.25 185.76 L 273.09 185.36 L 289.18 180.31 L 302.45 170.14 L 309.89 155.65 L 310.26 139.11 L 303.41 122.87 L 291.13 111.69 L 275.13 106.85 L 258.08 108.45 L 244.18 118.16 L 235.10 133.39 L 233.07 150.66 L 231.21 167.29 L 230.28 184.07 L 219.93 197.71 L 203.71 201.80 L 188.38 197.93 L 174.38 190.30 L 158.37 185.85 L 142.79 184.57 L 127.48 179.26 L 115.27 168.41 L 108.46 154.22 L 101.28 139.84 L 96.39 124.57 L 92.21 109.67 L 84.61 96.42 L 72.80 87.39 L 58.72 83.71 L 43.89 85.72 L 31.29 94.02 L 25.11 107.53 L 21.40 121.56 L 18.61 135.78 L 15.73 149.96 L 13.98 164.18 Z" />
</symbol>
<symbol id="bl5">
<path d="M 308.74 78.54 L 297.22 83.62 L 286.26 90.77 L 274.06 98.75 L 260.89 106.32 L 247.34 113.91 L 237.29 125.41 L 232.81 139.73 L 233.31 153.63 L 239.22 165.34 L 247.57 175.97 L 259.24 183.15 L 272.62 185.96 L 285.98 188.79 L 299.17 191.50 L 312.63 193.51 L 324.10 200.38 L 331.37 215.27 L 342.32 223.01 L 357.47 221.37 L 368.81 212.45 L 372.13 197.98 L 370.85 185.03 L 371.64 171.96 L 371.91 158.70 L 371.46 145.28 L 365.94 132.57 L 357.43 121.97 L 348.78 111.49 L 339.73 101.16 L 332.01 90.27 L 322.16 79.57 Z" />
</symbol>
<symbol id="bl6">
<path d="M 10.89 171.81 L 9.95 182.63 L 14.98 193.08 L 24.20 201.15 L 38.07 202.91 L 47.97 198.98 L 59.22 173.02 L 65.92 168.17 L 73.23 159.62 L 81.23 151.15 L 89.40 142.66 L 97.25 134.07 L 104.69 125.20 L 113.20 117.36 L 121.76 110.14 L 136.22 102.89 L 152.33 101.59 L 168.63 102.82 L 184.68 103.81 L 200.53 104.89 L 217.33 107.61 L 230.59 119.54 L 231.81 137.34 L 231.91 155.21 L 240.23 170.97 L 253.81 181.34 L 275.00 186.57 L 288.11 183.45 L 298.25 177.76 L 307.46 167.95 L 313.05 155.07 L 315.58 141.54 L 322.40 129.14 L 329.90 117.94 L 336.20 104.99 L 335.07 90.26 L 324.87 79.76 L 312.35 74.37 L 299.95 68.29 L 287.23 62.54 L 274.69 56.41 L 261.87 49.82 L 248.34 43.82 L 233.59 43.23 L 220.35 48.14 L 209.20 59.08 L 203.64 74.38 L 196.55 85.25 L 186.90 90.86 L 174.15 93.69 L 160.84 96.31 L 148.45 99.46 L 135.30 102.96 L 121.75 110.37 L 112.47 118.90 L 102.49 127.36 L 94.08 137.00 L 86.13 147.61 L 74.31 154.79 L 61.67 158.31 L 48.68 157.22 L 36.51 153.36 L 24.87 155.44 L 15.71 161.96 Z" />
</symbol>
<symbol id="bl7">
<path d="M 405.92 189.28 L 389.29 189.47 L 375.80 200.89 L 371.45 218.48 L 382.35 235.98 L 390.53 249.84 L 395.42 266.43 L 404.50 281.48 L 415.99 294.67 L 431.42 302.35 L 448.33 305.37 L 465.17 301.39 L 479.10 291.46 L 488.34 276.89 L 493.30 260.08 L 490.77 242.48 L 483.02 226.58 L 469.48 215.32 L 453.50 208.39 L 437.92 200.75 L 422.12 193.52 Z" />
</symbol>
</defs>
<!-- isDone: 0 -->
<rect width="700" height="500" style="fill:#fff;stroke-width:0" />
<use class="p0 borderLine" xlink:href="#bl0"/>
<use class="p1 borderLine" xlink:href="#bl1"/>
<use class="p2 borderLine" xlink:href="#bl2"/>
<use class="p3 borderLine" xlink:href="#bl3"/>
<use class="p4 borderLine" xlink:href="#bl4"/>
<use class="p5 borderLine" xlink:href="#bl5"/>
<use class="p6 borderLine" xlink:href="#bl6"/>
<use class="p7 borderLine" xlink:href="#bl7"/>
<use class="q0 outLine" xlink:href="#bl0"/>
<use class="q1 outLine" xlink:href="#bl1"/>
<use class="q2 outLine" xlink:href="#bl2"/>
<use class="q3 outLine" xlink:href="#bl3"/>
<use class="q4 outLine" xlink:href="#bl4"/>
<use class="q5 outLine" xlink:href="#bl5"/>
<use class="q6 outLine" xlink:href="#bl6"/>
<use class="q7 outLine" xlink:href="#bl7"/>
<circle onclick="fromCircle(1)" class="circle" cx="201.5412" cy="417.6833" r="73.4475" />
<text class="tLabel" x="201.54" y="397.68"></text>
<text class="nLabel" x="201.54" y="412.68">40</text>
<text class="belong" x="201.54" y="422.68">(1)</text>
<circle onclick="fromCircle(3)" class="circle" cx="207.4177" cy="130.1715" r="11.6131" />
<text class="tLabel" x="207.42" y="110.17"></text>
<text class="nLabel" x="207.42" y="125.17">1</text>
<text class="belong" x="207.42" y="135.17">(1, 2)</text>
<circle onclick="fromCircle(7)" class="circle" cx="230.2305" cy="300.9547" r="11.6131" />
<text class="tLabel" x="230.23" y="280.95"></text>
<text class="nLabel" x="230.23" y="295.95">1</text>
<text class="belong" x="230.23" y="305.95">(1, 2, 3)</text>
<circle onclick="fromCircle(15)" class="circle" cx="205.8089" cy="176.1804" r="16.4234" />
<text class="tLabel" x="205.81" y="156.18"></text>
<text class="nLabel" x="205.81" y="171.18">2</text>
<text class="belong" x="205.81" y="181.18">(1, 2, 3, 4)</text>
<circle onclick="fromCircle(127)" class="circle" cx="272.8526" cy="145.0289" r="28.4461" />
<text class="tLabel" x="272.85" y="125.03"></text>
<text class="nLabel" x="272.85" y="140.03">6</text>
<text class="belong" x="272.85" y="150.03">(1, 2, 3, 4, 5, 6, 7)</text>
<circle onclick="fromCircle(2)" class="circle" cx="271.2214" cy="328.1691" r="11.6131" />
<text class="tLabel" x="271.22" y="308.17"></text>
<text class="nLabel" x="271.22" y="323.17">1</text>
<text class="belong" x="271.22" y="333.17">(2)</text>
<circle onclick="fromCircle(6)" class="circle" cx="274.7410" cy="278.1004" r="20.1144" />
<text class="tLabel" x="274.74" y="258.10"></text>
<text class="nLabel" x="274.74" y="273.10">3</text>
<text class="belong" x="274.74" y="283.10">(2, 3)</text>
<circle onclick="fromCircle(14)" class="circle" cx="148.1114" cy="145.1006" r="30.7253" />
<text class="tLabel" x="148.11" y="125.10"></text>
<text class="nLabel" x="148.11" y="140.10">7</text>
<text class="belong" x="148.11" y="150.10">(2, 3, 4)</text>
<circle onclick="fromCircle(10)" class="circle" cx="346.0435" cy="266.6628" r="32.8467" />
<text class="tLabel" x="346.04" y="246.66"></text>
<text class="nLabel" x="346.04" y="261.66">8</text>
<text class="belong" x="346.04" y="271.66">(2, 4)</text>
<circle onclick="fromCircle(18)" class="circle" cx="109.7531" cy="339.6823" r="25.9676" />
<text class="tLabel" x="109.75" y="319.68"></text>
<text class="nLabel" x="109.75" y="334.68">5</text>
<text class="belong" x="109.75" y="344.68">(2, 5)</text>
<circle onclick="fromCircle(130)" class="circle" cx="398.5274" cy="214.4395" r="11.6131" />
<text class="tLabel" x="398.53" y="194.44"></text>
<text class="nLabel" x="398.53" y="209.44">1</text>
<text class="belong" x="398.53" y="219.44">(2, 8)</text>
<circle onclick="fromCircle(4)" class="circle" cx="172.8463" cy="60.0519" r="20.1144" />
<text class="tLabel" x="172.85" y="40.05"></text>
<text class="nLabel" x="172.85" y="55.05">3</text>
<text class="belong" x="172.85" y="65.05">(3)</text>
<circle onclick="fromCircle(5)" class="circle" cx="257.9246" cy="214.9865" r="20.1144" />
<text class="tLabel" x="257.92" y="194.99"></text>
<text class="nLabel" x="257.92" y="209.99">3</text>
<text class="belong" x="257.92" y="219.99">(1, 3)</text>
<circle onclick="fromCircle(13)" class="circle" cx="157.0077" cy="220.9930" r="25.9676" />
<text class="tLabel" x="157.01" y="200.99"></text>
<text class="nLabel" x="157.01" y="215.99">5</text>
<text class="belong" x="157.01" y="225.99">(1, 3, 4)</text>
<circle onclick="fromCircle(12)" class="circle" cx="111.2823" cy="75.5705" r="23.2261" />
<text class="tLabel" x="111.28" y="55.57"></text>
<text class="nLabel" x="111.28" y="70.57">4</text>
<text class="belong" x="111.28" y="80.57">(3, 4)</text>
<circle onclick="fromCircle(20)" class="circle" cx="88.1433" cy="200.0540" r="25.9676" />
<text class="tLabel" x="88.14" y="180.05"></text>
<text class="nLabel" x="88.14" y="195.05">5</text>
<text class="belong" x="88.14" y="205.05">(3, 5)</text>
<circle onclick="fromCircle(21)" class="circle" cx="58.1187" cy="119.4467" r="25.9676" />
<text class="tLabel" x="58.12" y="99.45"></text>
<text class="nLabel" x="58.12" y="114.45">5</text>
<text class="belong" x="58.12" y="124.45">(1, 3, 5)</text>
<circle onclick="fromCircle(8)" class="circle" cx="307.9580" cy="216.7006" r="11.6131" />
<text class="tLabel" x="307.96" y="196.70"></text>
<text class="nLabel" x="307.96" y="211.70">1</text>
<text class="belong" x="307.96" y="221.70">(4)</text>
<circle onclick="fromCircle(9)" class="circle" cx="46.8829" cy="42.3261" r="30.7253" />
<text class="tLabel" x="46.88" y="22.33"></text>
<text class="nLabel" x="46.88" y="37.33">7</text>
<text class="belong" x="46.88" y="47.33">(1, 4)</text>
<circle onclick="fromCircle(11)" class="circle" cx="212.7641" cy="253.2406" r="20.1144" />
<text class="tLabel" x="212.76" y="233.24"></text>
<text class="nLabel" x="212.76" y="248.24">3</text>
<text class="belong" x="212.76" y="258.24">(1, 2, 4)</text>
<circle onclick="fromCircle(40)" class="circle" cx="348.4132" cy="200.0781" r="11.6131" />
<text class="tLabel" x="348.41" y="180.08"></text>
<text class="nLabel" x="348.41" y="195.08">1</text>
<text class="belong" x="348.41" y="205.08">(4, 6)</text>
<circle onclick="fromCircle(16)" class="circle" cx="54.1452" cy="245.4331" r="11.6131" />
<text class="tLabel" x="54.15" y="225.43"></text>
<text class="nLabel" x="54.15" y="240.43">1</text>
<text class="belong" x="54.15" y="250.43">(5)</text>
<circle onclick="fromCircle(17)" class="circle" cx="104.8376" cy="268.8903" r="25.9676" />
<text class="tLabel" x="104.84" y="248.89"></text>
<text class="nLabel" x="104.84" y="263.89">5</text>
<text class="belong" x="104.84" y="273.89">(1, 5)</text>
<circle onclick="fromCircle(19)" class="circle" cx="168.1426" cy="300.7714" r="25.9676" />
<text class="tLabel" x="168.14" y="280.77"></text>
<text class="nLabel" x="168.14" y="295.77">5</text>
<text class="belong" x="168.14" y="305.77">(1, 2, 5)</text>
<circle onclick="fromCircle(80)" class="circle" cx="35.0178" cy="177.8038" r="11.6131" />
<text class="tLabel" x="35.02" y="157.80"></text>
<text class="nLabel" x="35.02" y="172.80">1</text>
<text class="belong" x="35.02" y="182.80">(5, 7)</text>
<circle onclick="fromCircle(32)" class="circle" cx="344.0895" cy="149.3319" r="16.4234" />
<text class="tLabel" x="344.09" y="129.33"></text>
<text class="nLabel" x="344.09" y="144.33">2</text>
<text class="belong" x="344.09" y="154.33">(6)</text>
<circle onclick="fromCircle(96)" class="circle" cx="311.6940" cy="100.9414" r="11.6131" />
<text class="tLabel" x="311.69" y="80.94"></text>
<text class="nLabel" x="311.69" y="95.94">1</text>
<text class="belong" x="311.69" y="105.94">(6, 7)</text>
<circle onclick="fromCircle(64)" class="circle" cx="239.9354" cy="79.4953" r="23.2261" />
<text class="tLabel" x="239.94" y="59.50"></text>
<text class="nLabel" x="239.94" y="74.50">4</text>
<text class="belong" x="239.94" y="84.50">(7)</text>
<circle onclick="fromCircle(128)" class="circle" cx="445.2267" cy="256.8823" r="32.8467" />
<text class="tLabel" x="445.23" y="236.88"></text>
<text class="nLabel" x="445.23" y="251.88">8</text>
<text class="belong" x="445.23" y="261.88">(8)</text>
<rect class="p0 borderLine" x="500.00" y="50.00" width="30.00" height="15.00" />
<rect class="q0" x="500.00" y="50.00" width="30.00" height="15.00" />
<text class="legend" x="540.00" y="65.00">Ball2017</text>
<rect class="p1 borderLine" x="500.00" y="90.00" width="30.00" height="15.00" />
<rect class="q1" x="500.00" y="90.00" width="30.00" height="15.00" />
<text class="legend" x="540.00" y="105.00">Courtois2015</text>
<rect class="p2 borderLine" x="500.00" y="130.00" width="30.00" height="15.00" />
<rect class="q2" x="500.00" y="130.00" width="30.00" height="15.00" />
<text class="legend" x="540.00" y="145.00">Hilton2017</text>
<rect class="p3 borderLine" x="500.00" y="170.00" width="30.00" height="15.00" />
<rect class="q3" x="500.00" y="170.00" width="30.00" height="15.00" />
<text class="legend" x="540.00" y="185.00">Ball2017</text>
<rect class="p4 borderLine" x="500.00" y="210.00" width="30.00" height="15.00" />
<rect class="q4" x="500.00" y="210.00" width="30.00" height="15.00" />
<text class="legend" x="540.00" y="225.00">Courtois2015</text>
<rect class="p5 borderLine" x="500.00" y="250.00" width="30.00" height="15.00" />
<rect class="q5" x="500.00" y="250.00" width="30.00" height="15.00" />
<text class="legend" x="540.00" y="265.00">Hilton2017</text>
<rect class="p6 borderLine" x="500.00" y="290.00" width="30.00" height="15.00" />
<rect class="q6" x="500.00" y="290.00" width="30.00" height="15.00" />
<text class="legend" x="540.00" y="305.00">Courtois2015</text>
<rect class="p7 borderLine" x="500.00" y="330.00" width="30.00" height="15.00" />
<rect class="q7" x="500.00" y="330.00" width="30.00" height="15.00" />
<text class="legend" x="540.00" y="345.00">Hilton2017</text>
</svg>
