<svg xmlns="http://www.w3.org/2000/svg" xmlns:xlink="http://www.w3.org/1999/xlink" width="700" height="500">
<defs>
<style type="text/css"><![CDATA[
  .borderLine {
	   stroke: none;
	   fill-opacity: 0.4;
  }
  .outLine {
	   stroke-width: 1;
	   fill: none;
  }
  .circle {
	   stroke: #888888;
	   stroke-width: 0.5;
	   fill: none;
    pointer-events: all;
  }
  .spcircle {
	   stroke: #FF2222;
	   stroke-width: 1;
	   fill: none;
    pointer-events: all;
  }
  .tLabel {
	   font-family: Arial;
    pointer-events: none;
	   font-size: 14px;
	   text-anchor: middle;
	   alignment-baseline: central;
  }
  .nLabel {
	   font-family: Arial;
    pointer-events: none;
	   font-size: 10px;
	   text-anchor: middle;
	   alignment-baseline: central;
  }
  .belong {
	   font-family: Arial;
    pointer-events: none;
	   font-size: 5px;
	   text-anchor: middle;
	   alignment-baseline: central;
  }
  .p0{
    stroke: none;
    fill: #e6194b;
  }
  .q0{
    fill: none;
    stroke: #e6194b;
  }
  .p1{
    stroke: none;
    fill: #3cb44b;
  }
  .q1{
    fill: none;
    stroke: #3cb44b;
  }
  .p2{
    stroke: none;
    fill: #ffe119;
  }
  .q2{
    fill: none;
    stroke: #ffe119;
  }
  .p3{
    stroke: none;
    fill: #0082c8;
  }
  .q3{
    fill: none;
    stroke: #0082c8;
  }
  .p4{
    stroke: none;
    fill: #f58231;
  }
  .q4{
    fill: none;
    stroke: #f58231;
  }
  .p5{
    stroke: none;
    fill: #911eb4;
  }
  .q5{
    fill: none;
    stroke: #911eb4;
  }
]]>
</style>
<symbol id="bl0">
<path d="M 42.18 248.04 L 36.61 255.74 L 32.01 264.06 L 27.16 272.12 L 23.31 280.35 L 19.64 288.18 L 16.38 296.16 L 14.32 304.56 L 12.65 312.84 L 10.84 321.34 L 10.00 330.48 L 11.15 339.50 L 11.58 348.28 L 13.98 357.02 L 16.01 366.11 L 19.14 375.00 L 23.84 382.94 L 28.80 391.07 L 34.36 399.34 L 40.77 406.73 L 47.99 413.87 L 56.45 419.89 L 64.86 425.46 L 73.56 429.91 L 82.78 433.18 L 91.89 436.56 L 101.40 438.38 L 111.30 439.21 L 120.55 439.69 L 129.90 440.26 L 139.23 438.58 L 148.41 437.99 L 157.86 437.41 L 166.90 436.93 L 175.45 436.11 L 184.50 435.59 L 193.12 434.74 L 201.77 433.91 L 210.36 432.86 L 219.54 431.18 L 229.33 429.45 L 238.51 428.60 L 247.95 427.63 L 257.65 427.22 L 266.59 425.98 L 275.48 424.53 L 284.11 421.32 L 292.24 416.62 L 299.47 410.16 L 304.50 402.18 L 309.08 393.33 L 310.98 384.12 L 313.89 374.93 L 315.33 365.73 L 315.81 356.70 L 317.79 347.27 L 320.21 338.29 L 322.76 328.89 L 325.07 320.27 L 328.04 310.85 L 329.20 301.88 L 328.24 292.24 L 324.75 283.62 L 319.42 275.91 L 314.26 267.84 L 311.42 258.13 L 309.98 248.90 L 311.01 239.37 L 314.25 229.82 L 318.76 222.27 L 324.08 214.88 L 329.97 207.64 L 335.36 199.98 L 341.61 193.04 L 347.74 186.13 L 353.39 177.95 L 357.11 168.74 L 357.51 158.46 L 354.90 148.66 L 348.71 140.66 L 340.41 135.17 L 330.87 132.24 L 321.31 130.08 L 311.43 128.99 L 301.42 127.23 L 291.87 125.50 L 282.37 123.58 L 273.11 122.22 L 263.63 120.51 L 254.33 120.84 L 245.37 123.42 L 237.11 128.45 L 230.07 135.45 L 224.77 143.85 L 218.08 151.31 L 210.81 158.17 L 202.12 163.28 L 192.46 165.76 L 182.64 165.72 L 173.54 163.33 L 164.98 160.23 L 156.84 156.26 L 148.32 152.28 L 139.50 148.99 L 130.32 147.21 L 120.97 146.76 L 111.53 148.68 L 103.55 153.24 L 95.94 159.27 L 90.50 167.28 L 86.36 175.46 L 80.82 183.42 L 75.97 191.86 L 71.04 199.88 L 66.20 208.21 L 61.56 216.62 L 56.67 224.33 L 51.37 232.02 L 46.98 240.15 Z" />
</symbol>
<symbol id="bl1">
<path d="M 135.34 91.28 L 126.59 94.17 L 120.70 101.33 L 119.39 110.54 L 123.45 119.94 L 128.43 127.38 L 133.68 135.15 L 139.46 142.74 L 145.38 150.41 L 151.42 157.74 L 157.14 164.57 L 161.00 172.06 L 162.68 180.57 L 162.80 189.45 L 160.66 197.99 L 159.75 206.54 L 162.24 214.80 L 165.64 222.41 L 170.62 229.29 L 176.49 235.46 L 182.75 241.51 L 189.18 247.23 L 195.78 252.42 L 201.48 260.06 L 207.23 267.18 L 211.30 274.27 L 216.19 281.77 L 223.43 286.38 L 231.85 289.08 L 240.61 289.71 L 248.45 287.29 L 256.35 282.60 L 262.80 275.69 L 268.74 269.78 L 276.37 265.61 L 284.83 263.89 L 293.71 263.33 L 302.03 264.94 L 309.45 268.36 L 317.26 272.61 L 322.49 279.56 L 328.91 284.78 L 335.36 289.46 L 343.24 292.31 L 352.57 293.41 L 361.47 293.55 L 369.77 294.60 L 376.49 298.84 L 384.08 302.31 L 389.98 307.67 L 396.24 312.49 L 403.09 317.90 L 409.83 322.74 L 416.23 327.62 L 424.33 330.91 L 432.81 333.95 L 441.64 333.92 L 450.24 333.87 L 458.32 331.05 L 466.44 327.36 L 473.22 321.86 L 479.87 316.51 L 484.34 308.67 L 487.16 300.94 L 489.26 293.07 L 489.40 284.46 L 488.48 276.64 L 487.04 268.61 L 483.59 261.16 L 479.11 254.09 L 474.53 247.16 L 470.88 239.27 L 465.72 232.59 L 460.72 224.98 L 455.64 217.60 L 450.90 211.35 L 446.27 204.36 L 441.23 197.41 L 435.87 190.77 L 430.38 184.17 L 424.77 177.26 L 419.57 170.20 L 414.79 162.61 L 407.31 157.36 L 398.87 154.05 L 389.78 153.61 L 380.26 155.19 L 372.49 161.61 L 366.42 168.45 L 359.75 174.68 L 352.30 180.48 L 345.83 186.32 L 337.41 190.24 L 327.90 191.84 L 318.59 190.21 L 310.88 186.56 L 301.70 183.62 L 292.76 185.78 L 285.13 189.74 L 276.92 193.19 L 268.71 195.82 L 260.17 197.13 L 251.90 195.86 L 243.32 193.09 L 235.76 187.44 L 229.50 180.53 L 224.93 172.19 L 222.42 163.50 L 222.43 154.73 L 224.07 146.16 L 224.92 137.43 L 226.58 129.29 L 225.51 120.26 L 223.10 111.50 L 218.03 104.25 L 211.45 97.84 L 203.38 92.94 L 195.60 90.27 L 186.69 89.39 L 177.45 89.55 L 169.28 89.83 L 161.16 89.52 L 152.92 90.02 L 144.24 90.95 Z" />
</symbol>
<symbol id="bl2">
<path d="M 259.33 323.00 L 264.08 328.57 L 270.17 333.63 L 277.34 336.85 L 284.99 339.24 L 292.47 343.03 L 300.47 344.84 L 307.66 347.08 L 315.71 349.24 L 323.18 352.05 L 330.93 354.00 L 338.64 356.52 L 345.41 359.92 L 353.14 361.76 L 361.12 361.89 L 368.41 360.65 L 375.60 357.58 L 381.90 353.00 L 386.67 346.95 L 390.24 340.51 L 392.81 333.23 L 392.86 325.70 L 392.96 318.01 L 394.00 310.31 L 394.30 302.92 L 393.47 294.41 L 392.83 286.63 L 393.13 278.25 L 395.01 270.95 L 398.37 262.93 L 400.89 256.15 L 404.23 248.72 L 406.14 241.59 L 408.40 234.40 L 411.19 226.91 L 413.09 219.09 L 414.33 211.33 L 416.54 203.74 L 419.09 196.56 L 421.93 189.21 L 422.85 181.23 L 420.65 174.00 L 417.34 166.43 L 413.14 159.79 L 409.49 153.76 L 405.53 147.68 L 401.75 141.19 L 397.95 134.40 L 394.64 128.01 L 391.42 121.53 L 387.56 115.55 L 382.99 109.36 L 377.60 103.02 L 372.85 97.02 L 368.14 89.84 L 362.72 83.34 L 355.85 78.60 L 348.58 75.13 L 340.96 71.30 L 333.54 67.72 L 326.40 64.57 L 319.42 60.70 L 312.62 57.34 L 305.18 54.37 L 298.60 51.45 L 291.91 47.65 L 283.80 45.89 L 275.56 45.53 L 266.76 46.99 L 258.61 49.76 L 252.27 54.37 L 246.44 60.00 L 241.65 67.55 L 238.87 75.45 L 237.24 82.99 L 235.76 91.53 L 233.58 99.30 L 231.54 107.44 L 229.82 115.89 L 227.73 124.52 L 226.73 133.13 L 225.03 141.31 L 223.06 149.94 L 222.59 158.12 L 223.31 166.04 L 225.63 174.31 L 229.77 181.05 L 234.95 187.27 L 241.79 191.81 L 248.39 196.21 L 255.97 197.59 L 262.73 201.66 L 268.18 207.56 L 270.66 215.38 L 268.73 223.59 L 264.88 230.16 L 262.91 238.15 L 263.62 246.67 L 266.40 254.00 L 266.76 262.68 L 264.69 270.34 L 261.36 276.78 L 256.84 283.90 L 254.30 291.40 L 252.14 299.68 L 252.64 308.04 L 255.12 315.78 Z" />
</symbol>
<symbol id="bl3">
<path d="M 222.50 398.21 L 226.20 404.85 L 230.00 411.89 L 235.89 417.21 L 243.32 420.35 L 251.49 424.10 L 259.60 426.94 L 267.69 425.95 L 275.29 424.89 L 283.15 422.75 L 290.86 420.24 L 298.28 418.00 L 306.71 415.70 L 315.33 413.70 L 323.51 410.59 L 330.98 406.97 L 339.87 405.46 L 347.97 404.16 L 355.66 400.81 L 362.60 397.74 L 370.89 395.04 L 378.37 390.70 L 385.74 386.34 L 392.77 381.60 L 400.20 376.26 L 407.88 371.58 L 415.38 367.14 L 422.75 361.55 L 429.51 355.84 L 436.91 350.84 L 443.82 346.15 L 449.53 341.45 L 455.89 336.46 L 462.40 331.55 L 468.75 326.47 L 475.27 320.69 L 480.72 314.06 L 485.10 306.51 L 488.24 297.69 L 489.78 288.68 L 490.00 279.67 L 487.25 271.37 L 484.03 263.16 L 480.40 255.56 L 474.63 250.40 L 467.53 244.76 L 459.65 240.83 L 451.74 237.45 L 443.64 234.14 L 435.69 231.07 L 427.44 228.88 L 419.88 226.02 L 412.54 223.28 L 405.25 220.36 L 398.09 216.95 L 390.60 214.02 L 381.84 211.39 L 374.43 207.33 L 367.57 203.67 L 359.46 202.68 L 350.65 202.02 L 342.64 204.62 L 334.05 207.64 L 327.19 210.51 L 319.86 213.14 L 312.04 215.80 L 304.33 217.79 L 297.19 217.49 L 290.19 215.69 L 282.74 215.49 L 275.97 217.69 L 269.15 221.70 L 264.98 228.35 L 258.02 232.41 L 249.64 232.95 L 242.04 230.59 L 234.01 230.12 L 227.15 231.97 L 220.06 236.08 L 213.89 241.57 L 210.20 248.23 L 207.89 255.78 L 207.57 263.69 L 209.90 271.30 L 213.32 277.63 L 217.29 284.95 L 220.19 292.60 L 222.81 299.86 L 224.88 308.08 L 226.65 316.17 L 227.83 324.18 L 228.25 332.42 L 226.84 341.00 L 225.86 349.57 L 223.92 358.36 L 222.00 366.30 L 219.65 374.48 L 219.60 382.20 L 219.95 390.06 Z" />
</symbol>
<symbol id="bl4">
<path d="M 192.37 80.61 L 184.96 85.40 L 177.85 89.99 L 169.56 93.83 L 162.05 99.91 L 156.31 106.48 L 151.81 115.19 L 145.19 123.02 L 137.28 128.58 L 129.18 134.10 L 121.20 139.89 L 113.47 145.68 L 106.47 151.37 L 98.87 156.89 L 92.67 163.68 L 88.06 172.54 L 85.91 181.79 L 87.13 190.89 L 89.46 199.62 L 93.50 207.36 L 99.61 214.11 L 107.28 219.52 L 115.98 222.85 L 125.31 223.16 L 134.28 224.01 L 143.42 225.69 L 152.50 228.06 L 160.91 231.18 L 169.14 234.73 L 177.31 236.32 L 185.41 239.52 L 194.21 241.51 L 203.29 241.50 L 212.91 239.49 L 221.70 234.06 L 228.22 227.82 L 233.99 219.41 L 237.16 210.50 L 242.10 202.63 L 250.71 198.57 L 259.80 197.01 L 268.04 196.36 L 276.26 193.20 L 283.15 189.35 L 289.59 183.72 L 294.35 176.48 L 297.77 168.42 L 299.02 158.94 L 300.12 150.42 L 302.25 141.99 L 303.75 133.12 L 305.33 124.17 L 307.11 114.76 L 309.89 105.80 L 312.33 96.50 L 314.22 87.23 L 313.76 78.21 L 311.92 68.95 L 306.62 60.57 L 299.62 53.94 L 291.55 48.70 L 282.15 46.40 L 273.49 45.89 L 265.09 47.23 L 256.71 50.35 L 248.95 53.82 L 240.82 56.92 L 232.38 59.06 L 224.39 62.31 L 216.44 65.58 L 208.02 69.73 L 200.29 76.15 Z" />
</symbol>
<symbol id="bl5">
<path d="M 317.94 443.01 L 324.01 449.50 L 331.80 453.28 L 340.15 454.47 L 348.61 453.20 L 355.71 447.99 L 360.61 441.32 L 362.74 432.63 L 362.05 424.06 L 360.07 416.26 L 358.24 408.36 L 354.93 400.88 L 351.83 393.75 L 348.48 385.75 L 345.15 378.60 L 338.21 373.67 L 329.01 372.86 L 321.14 376.40 L 316.04 383.54 L 314.88 392.46 L 315.18 401.05 L 315.62 409.51 L 314.09 417.81 L 314.81 426.42 L 315.05 434.43 Z" />
</symbol>
</defs>
<!-- isDone: 0 -->
<rect width="700" height="500" style="fill:#fff;stroke-width:0" />
<use class="p0 borderLine" xlink:href="#bl0"/>
<use class="p1 borderLine" xlink:href="#bl1"/>
<use class="p2 borderLine" xlink:href="#bl2"/>
<use class="p3 borderLine" xlink:href="#bl3"/>
<use class="p4 borderLine" xlink:href="#bl4"/>
<use class="p5 borderLine" xlink:href="#bl5"/>
<use class="q0 outLine" xlink:href="#bl0"/>
<use class="q1 outLine" xlink:href="#bl1"/>
<use class="q2 outLine" xlink:href="#bl2"/>
<use class="q3 outLine" xlink:href="#bl3"/>
<use class="q4 outLine" xlink:href="#bl4"/>
<use class="q5 outLine" xlink:href="#bl5"/>
<circle onclick="fromCircle(1)" class="circle" cx="119.1611" cy="331.2832" r="90.2096" />
<text class="tLabel" x="119.16" y="311.28"></text>
<text class="nLabel" x="119.16" y="326.28">40</text>
<text class="belong" x="119.16" y="336.28">(1)</text>
<circle onclick="fromCircle(3)" class="circle" cx="253.0054" cy="215.9481" r="14.2634" />
<text class="tLabel" x="253.01" y="195.95"></text>
<text class="nLabel" x="253.01" y="210.95">1</text>
<text class="belong" x="253.01" y="220.95">(1, 2)</text>
<circle onclick="fromCircle(7)" class="circle" cx="302.0297" cy="200.8874" r="14.2634" />
<text class="tLabel" x="302.03" y="180.89"></text>
<text class="nLabel" x="302.03" y="195.89">1</text>
<text class="belong" x="302.03" y="205.89">(1, 2, 3)</text>
<circle onclick="fromCircle(15)" class="circle" cx="286.9493" cy="239.5013" r="20.1715" />
<text class="tLabel" x="286.95" y="219.50"></text>
<text class="nLabel" x="286.95" y="234.50">2</text>
<text class="belong" x="286.95" y="244.50">(1, 2, 3, 4)</text>
<circle onclick="fromCircle(2)" class="circle" cx="136.4209" cy="108.1844" r="14.2634" />
<text class="tLabel" x="136.42" y="88.18"></text>
<text class="nLabel" x="136.42" y="103.18">1</text>
<text class="belong" x="136.42" y="113.18">(2)</text>
<circle onclick="fromCircle(6)" class="circle" cx="392.5177" cy="183.3547" r="24.7049" />
<text class="tLabel" x="392.52" y="163.35"></text>
<text class="nLabel" x="392.52" y="178.35">3</text>
<text class="belong" x="392.52" y="188.35">(2, 3)</text>
<circle onclick="fromCircle(14)" class="circle" cx="355.5776" cy="248.3740" r="37.7374" />
<text class="tLabel" x="355.58" y="228.37"></text>
<text class="nLabel" x="355.58" y="243.37">7</text>
<text class="belong" x="355.58" y="253.37">(2, 3, 4)</text>
<circle onclick="fromCircle(10)" class="circle" cx="441.1935" cy="285.6389" r="40.3430" />
<text class="tLabel" x="441.19" y="265.64"></text>
<text class="nLabel" x="441.19" y="280.64">8</text>
<text class="belong" x="441.19" y="290.64">(2, 4)</text>
<circle onclick="fromCircle(18)" class="circle" cx="188.0155" cy="127.8001" r="31.8939" />
<text class="tLabel" x="188.02" y="107.80"></text>
<text class="nLabel" x="188.02" y="122.80">5</text>
<text class="belong" x="188.02" y="132.80">(2, 5)</text>
<circle onclick="fromCircle(4)" class="circle" cx="341.1544" cy="104.4626" r="24.7049" />
<text class="tLabel" x="341.15" y="84.46"></text>
<text class="nLabel" x="341.15" y="99.46">3</text>
<text class="belong" x="341.15" y="109.46">(3)</text>
<circle onclick="fromCircle(5)" class="circle" cx="328.2708" cy="162.0976" r="24.7049" />
<text class="tLabel" x="328.27" y="142.10"></text>
<text class="nLabel" x="328.27" y="157.10">3</text>
<text class="belong" x="328.27" y="167.10">(1, 3)</text>
<circle onclick="fromCircle(13)" class="circle" cx="291.0750" cy="301.7279" r="31.8939" />
<text class="tLabel" x="291.07" y="281.73"></text>
<text class="nLabel" x="291.07" y="296.73">5</text>
<text class="belong" x="291.07" y="306.73">(1, 3, 4)</text>
<circle onclick="fromCircle(12)" class="circle" cx="358.4338" cy="327.6992" r="28.5268" />
<text class="tLabel" x="358.43" y="307.70"></text>
<text class="nLabel" x="358.43" y="322.70">4</text>
<text class="belong" x="358.43" y="332.70">(3, 4)</text>
<circle onclick="fromCircle(20)" class="circle" cx="276.2219" cy="84.0691" r="31.8939" />
<text class="tLabel" x="276.22" y="64.07"></text>
<text class="nLabel" x="276.22" y="79.07">5</text>
<text class="belong" x="276.22" y="89.07">(3, 5)</text>
<circle onclick="fromCircle(21)" class="circle" cx="260.7271" cy="158.4194" r="31.8939" />
<text class="tLabel" x="260.73" y="138.42"></text>
<text class="nLabel" x="260.73" y="153.42">5</text>
<text class="belong" x="260.73" y="163.42">(1, 3, 5)</text>
<circle onclick="fromCircle(8)" class="circle" cx="365.3968" cy="378.5536" r="14.2634" />
<text class="tLabel" x="365.40" y="358.55"></text>
<text class="nLabel" x="365.40" y="373.55">1</text>
<text class="belong" x="365.40" y="383.55">(4)</text>
<circle onclick="fromCircle(9)" class="circle" cx="264.7885" cy="380.6672" r="37.7374" />
<text class="tLabel" x="264.79" y="360.67"></text>
<text class="nLabel" x="264.79" y="375.67">7</text>
<text class="belong" x="264.79" y="385.67">(1, 4)</text>
<circle onclick="fromCircle(11)" class="circle" cx="237.1754" cy="259.9672" r="24.7049" />
<text class="tLabel" x="237.18" y="239.97"></text>
<text class="nLabel" x="237.18" y="254.97">3</text>
<text class="belong" x="237.18" y="264.97">(1, 2, 4)</text>
<circle onclick="fromCircle(40)" class="circle" cx="331.8600" cy="389.7276" r="14.2634" />
<text class="tLabel" x="331.86" y="369.73"></text>
<text class="nLabel" x="331.86" y="384.73">1</text>
<text class="belong" x="331.86" y="394.73">(4, 6)</text>
<circle onclick="fromCircle(16)" class="circle" cx="219.8213" cy="82.4876" r="14.2634" />
<text class="tLabel" x="219.82" y="62.49"></text>
<text class="nLabel" x="219.82" y="77.49">1</text>
<text class="belong" x="219.82" y="87.49">(5)</text>
<circle onclick="fromCircle(17)" class="circle" cx="124.7242" cy="185.0406" r="31.8939" />
<text class="tLabel" x="124.72" y="165.04"></text>
<text class="nLabel" x="124.72" y="180.04">5</text>
<text class="belong" x="124.72" y="190.04">(1, 5)</text>
<circle onclick="fromCircle(19)" class="circle" cx="198.8815" cy="203.5653" r="31.8939" />
<text class="tLabel" x="198.88" y="183.57"></text>
<text class="nLabel" x="198.88" y="198.57">5</text>
<text class="belong" x="198.88" y="208.57">(1, 2, 5)</text>
<circle onclick="fromCircle(32)" class="circle" cx="338.8206" cy="430.1847" r="20.1715" />
<text class="tLabel" x="338.82" y="410.18"></text>
<text class="nLabel" x="338.82" y="425.18">2</text>
<text class="belong" x="338.82" y="435.18">(6)</text>
<rect class="p0 borderLine" x="500.00" y="50.00" width="30.00" height="15.00" />
<rect class="q0" x="500.00" y="50.00" width="30.00" height="15.00" />
<text class="legend" x="540.00" y="65.00">Ball2017</text>
<rect class="p1 borderLine" x="500.00" y="90.00" width="30.00" height="15.00" />
<rect class="q1" x="500.00" y="90.00" width="30.00" height="15.00" />
<text class="legend" x="540.00" y="105.00">Courtois2015</text>
<rect class="p2 borderLine" x="500.00" y="130.00" width="30.00" height="15.00" />
<rect class="q2" x="500.00" y="130.00" width="30.00" height="15.00" />
<text class="legend" x="540.00" y="145.00">Hilton2017</text>
<rect class="p3 borderLine" x="500.00" y="170.00" width="30.00" height="15.00" />
<rect class="q3" x="500.00" y="170.00" width="30.00" height="15.00" />
<text class="legend" x="540.00" y="185.00">Ball2017</text>
<rect class="p4 borderLine" x="500.00" y="210.00" width="30.00" height="15.00" />
<rect class="q4" x="500.00" y="210.00" width="30.00" height="15.00" />
<text class="legend" x="540.00" y="225.00">Ball2017</text>
<rect class="p5 borderLine" x="500.00" y="250.00" width="30.00" height="15.00" />
<rect class="q5" x="500.00" y="250.00" width="30.00" height="15.00" />
<text class="legend" x="540.00" y="265.00">Ball2017</text>
</svg>
