<svg xmlns="http://www.w3.org/2000/svg" xmlns:xlink="http://www.w3.org/1999/xlink" width="700" height="500">
<defs>
<style type="text/css"><![CDATA[
  .borderLine {
	   stroke: none;
	   fill-opacity: 0.4;
  }
  .outLine {
	   stroke-width: 1;
	   fill: none;
  }
  .circle {
	   stroke: #888888;
	   stroke-width: 0.5;
	   fill: none;
    pointer-events: all;
  }
  .spcircle {
	   stroke: #FF2222;
	   stroke-width: 1;
	   fill: none;
    pointer-events: all;
  }
  .tLabel {
	   font-family: Arial;
    pointer-events: none;
	   font-size: 14px;
	   text-anchor: middle;
	   alignment-baseline: central;
  }
  .nLabel {
	   font-family: Arial;
    pointer-events: none;
	   font-size: 10px;
	   text-anchor: middle;
	   alignment-baseline: central;
  }
  .belong {
	   font-family: Arial;
    pointer-events: none;
	   font-size: 5px;
	   text-anchor: middle;
	   alignment-baseline: central;
  }
  .p0{
    stroke: none;
    fill: #e6194b;
  }
  .q0{
    fill: none;
    stroke: #e6194b;
  }
  .p1{
    stroke: none;
    fill: #3cb44b;
  }
  .q1{
    fill: none;
    stroke: #3cb44b;
  }
  .p2{
    stroke: none;
    fill: #ffe119;
  }
  .q2{
    fill: none;
    stroke: #ffe119;
  }
  .p3{
    stroke: none;
    fill: #0082c8;
  }
  .q3{
    fill: none;
    stroke: #0082c8;
  }
  .p4{
    stroke: none;
    fill: #f58231;
  }
  .q4{
    fill: none;
    stroke: #f58231;
  }
  .p5{
    stroke: none;
    fill: #911eb4;
  }
  .q5{
    fill: none;
    stroke: #911eb4;
  }
]]>
</style>
<symbol id="bl0">
<path d="M 59.39 30.53 L 52.94 35.90 L 46.05 40.99 L 39.82 47.24 L 34.29 53.62 L 28.80 60.00 L 24.60 67.62 L 19.97 75.38 L 16.60 84.10 L 13.90 92.90 L 11.35 101.80 L 10.69 111.10 L 10.00 120.11 L 10.52 129.31 L 11.49 138.42 L 13.47 147.47 L 15.91 156.03 L 19.02 164.45 L 22.79 172.57 L 27.42 180.44 L 32.69 187.78 L 38.33 194.78 L 44.88 201.48 L 52.23 207.33 L 59.99 212.98 L 67.89 218.29 L 76.38 222.16 L 85.04 225.24 L 93.98 227.76 L 103.20 229.12 L 112.39 231.04 L 121.68 232.92 L 130.87 234.75 L 139.83 236.74 L 148.84 238.94 L 157.73 240.91 L 166.28 242.11 L 175.23 243.79 L 183.88 246.26 L 192.95 246.07 L 201.67 246.99 L 210.73 249.40 L 218.46 254.62 L 225.58 261.41 L 230.22 269.23 L 232.58 278.96 L 234.71 289.33 L 237.57 299.02 L 243.66 307.67 L 251.33 313.46 L 260.81 316.38 L 270.47 316.61 L 279.70 313.01 L 288.24 306.75 L 294.66 300.27 L 302.69 294.81 L 310.90 289.52 L 320.62 285.99 L 330.74 284.85 L 340.39 284.89 L 349.71 288.34 L 358.71 293.94 L 366.04 300.26 L 371.00 308.85 L 374.95 318.69 L 376.65 327.96 L 376.61 337.52 L 376.02 346.68 L 375.18 355.81 L 379.14 364.99 L 387.59 370.24 L 396.90 370.51 L 405.62 368.26 L 414.68 365.48 L 423.16 362.69 L 431.99 359.93 L 441.32 357.96 L 451.18 356.24 L 459.52 352.32 L 467.71 347.33 L 474.39 340.85 L 479.39 332.60 L 482.80 323.28 L 484.74 313.92 L 483.77 305.22 L 481.33 296.27 L 477.26 287.70 L 471.20 280.17 L 463.81 274.26 L 455.58 268.85 L 447.05 264.91 L 438.79 260.57 L 430.06 256.77 L 422.01 252.92 L 414.64 247.95 L 408.39 240.18 L 405.02 231.42 L 403.48 222.63 L 404.51 213.81 L 407.54 204.86 L 411.01 196.68 L 410.63 187.31 L 407.71 178.37 L 402.03 170.39 L 394.47 164.75 L 385.41 161.98 L 376.92 162.04 L 368.75 164.26 L 360.15 167.62 L 351.02 169.38 L 342.48 169.73 L 334.20 167.28 L 326.53 163.68 L 320.09 157.94 L 315.08 151.38 L 310.02 144.66 L 305.85 138.24 L 301.77 131.02 L 297.56 123.84 L 292.19 117.15 L 286.17 111.09 L 279.03 105.56 L 272.43 99.96 L 264.98 94.74 L 257.80 90.06 L 250.73 84.89 L 243.48 79.73 L 236.11 75.05 L 229.52 70.28 L 222.81 65.45 L 216.05 60.21 L 208.89 55.60 L 202.27 50.56 L 195.69 45.18 L 189.22 39.42 L 182.03 33.95 L 174.76 28.53 L 166.63 24.40 L 158.43 21.06 L 150.55 17.94 L 142.21 16.13 L 133.54 14.46 L 124.64 13.62 L 115.86 13.29 L 107.23 13.94 L 99.04 15.02 L 90.74 16.96 L 82.61 19.53 L 74.73 22.25 L 67.03 26.42 Z" />
</symbol>
<symbol id="bl1">
<path d="M 167.51 229.30 L 165.65 238.21 L 164.34 247.13 L 162.54 255.00 L 160.57 262.60 L 158.74 270.77 L 156.90 279.40 L 156.48 288.28 L 158.42 297.45 L 162.34 304.90 L 165.69 313.09 L 169.52 320.59 L 173.00 328.36 L 176.72 336.34 L 180.78 344.25 L 184.88 351.68 L 188.76 359.37 L 192.05 367.01 L 195.24 374.69 L 199.19 382.08 L 203.18 389.19 L 208.88 396.69 L 215.76 402.17 L 222.93 406.05 L 231.42 409.48 L 239.64 410.71 L 248.09 411.04 L 257.04 409.07 L 264.98 406.15 L 273.75 404.57 L 281.25 407.11 L 288.83 410.56 L 296.35 414.39 L 303.85 418.68 L 311.84 423.57 L 319.43 428.52 L 328.12 429.35 L 337.59 428.43 L 345.80 427.18 L 354.42 426.49 L 364.36 425.21 L 372.31 423.67 L 380.80 421.51 L 388.78 416.43 L 394.52 409.19 L 398.07 400.04 L 399.87 391.22 L 402.48 381.49 L 405.00 373.13 L 407.03 365.21 L 409.15 356.45 L 407.50 347.37 L 402.32 339.56 L 395.36 332.50 L 388.54 326.45 L 383.10 320.80 L 376.76 314.69 L 371.07 307.95 L 365.92 300.80 L 359.13 294.18 L 351.74 289.43 L 344.77 283.05 L 340.11 275.14 L 337.29 266.83 L 336.43 257.54 L 333.10 249.99 L 327.47 244.33 L 320.22 239.76 L 312.06 238.56 L 303.73 237.12 L 295.66 233.45 L 288.93 228.75 L 283.22 222.45 L 278.50 215.35 L 275.64 207.55 L 271.24 200.59 L 265.54 194.39 L 258.40 189.35 L 249.70 186.30 L 241.43 184.66 L 232.91 185.97 L 224.67 188.83 L 217.58 192.89 L 210.57 196.34 L 203.16 199.94 L 196.26 203.55 L 189.14 207.47 L 181.60 211.44 L 174.37 215.28 L 169.39 221.46 Z" />
</symbol>
<symbol id="bl2">
<path d="M 329.25 97.92 L 321.22 103.05 L 315.19 110.28 L 311.04 118.65 L 308.40 128.74 L 305.87 137.82 L 303.63 145.73 L 300.81 154.99 L 295.64 163.10 L 289.00 171.09 L 282.26 178.76 L 277.70 186.28 L 276.18 194.64 L 275.89 203.25 L 277.39 211.71 L 279.48 220.32 L 280.99 229.24 L 282.77 238.44 L 284.88 247.46 L 286.64 255.43 L 287.98 263.78 L 290.20 272.28 L 293.96 280.85 L 294.30 290.17 L 292.53 299.93 L 289.83 307.35 L 287.82 315.85 L 286.05 324.29 L 286.04 334.11 L 287.69 342.41 L 291.19 351.02 L 294.96 358.20 L 301.02 363.90 L 306.68 369.91 L 312.42 375.54 L 318.24 381.94 L 323.53 387.35 L 329.53 392.30 L 335.09 397.77 L 339.76 404.02 L 343.83 410.20 L 349.50 416.75 L 355.86 421.01 L 363.36 423.72 L 371.13 423.93 L 378.18 423.78 L 384.87 419.48 L 390.70 414.17 L 396.02 407.22 L 398.19 398.95 L 400.67 391.87 L 403.66 384.00 L 404.99 376.10 L 406.95 368.10 L 408.97 359.66 L 409.33 351.57 L 405.50 343.47 L 400.31 336.11 L 396.78 328.81 L 394.12 321.17 L 393.42 312.87 L 394.29 304.30 L 396.59 296.11 L 400.42 288.54 L 406.15 281.23 L 411.67 276.02 L 419.21 270.93 L 427.14 267.06 L 434.50 263.24 L 442.36 259.11 L 449.94 254.68 L 457.53 250.25 L 464.22 244.19 L 468.61 236.99 L 471.49 227.73 L 471.59 218.17 L 469.67 208.81 L 467.85 200.03 L 466.13 191.83 L 463.87 183.70 L 461.32 175.01 L 458.85 166.78 L 455.60 158.58 L 452.06 149.94 L 448.29 141.55 L 444.31 133.72 L 440.75 126.02 L 434.36 119.97 L 426.81 115.68 L 418.04 113.00 L 408.99 109.96 L 400.98 106.77 L 392.58 104.40 L 384.37 102.52 L 376.14 99.75 L 366.59 97.01 L 357.62 93.88 L 347.32 92.85 L 338.05 94.08 Z" />
</symbol>
<symbol id="bl3">
<path d="M 255.79 430.70 L 262.36 436.43 L 270.78 438.42 L 279.32 436.69 L 286.45 430.40 L 291.37 425.11 L 297.37 418.53 L 303.02 411.91 L 308.42 405.77 L 314.63 398.65 L 321.95 393.23 L 328.58 388.36 L 336.56 382.58 L 343.46 377.48 L 349.89 371.56 L 357.95 366.44 L 364.26 360.98 L 370.21 354.04 L 375.12 347.04 L 382.00 340.23 L 390.81 336.79 L 399.57 338.35 L 406.68 344.67 L 413.64 349.96 L 420.59 353.78 L 428.63 356.29 L 436.98 357.31 L 446.09 357.34 L 455.13 355.32 L 463.64 350.89 L 470.89 344.04 L 476.94 336.51 L 481.39 327.96 L 483.70 318.70 L 484.78 309.64 L 485.39 300.36 L 487.39 291.71 L 488.21 283.12 L 488.38 274.68 L 489.09 266.19 L 490.00 257.81 L 486.89 249.84 L 483.52 241.98 L 479.86 234.29 L 476.20 226.10 L 472.89 217.88 L 469.16 209.43 L 464.61 201.49 L 458.45 195.16 L 451.12 191.14 L 442.71 188.38 L 433.71 188.56 L 425.21 190.11 L 418.11 194.76 L 411.45 200.39 L 407.00 207.56 L 400.35 213.81 L 392.79 218.89 L 383.67 221.16 L 375.23 220.43 L 366.48 220.95 L 359.29 223.84 L 350.79 227.19 L 342.26 230.25 L 334.05 233.46 L 325.87 236.69 L 316.86 238.78 L 307.89 239.50 L 298.89 242.42 L 291.78 246.47 L 283.59 249.01 L 276.02 251.75 L 268.16 254.78 L 259.98 256.98 L 252.48 260.18 L 245.70 264.94 L 239.41 271.36 L 236.03 278.44 L 234.72 287.47 L 231.93 295.84 L 228.50 304.50 L 222.44 310.92 L 216.79 317.83 L 211.25 324.78 L 205.87 332.19 L 200.61 339.07 L 197.46 347.05 L 195.60 356.16 L 195.09 364.80 L 196.26 373.81 L 198.66 382.45 L 203.16 389.08 L 209.01 396.48 L 215.67 402.50 L 222.28 407.84 L 229.81 412.51 L 236.31 416.80 L 243.03 421.50 L 250.14 425.67 Z" />
</symbol>
<symbol id="bl4">
<path d="M 159.57 269.51 L 157.13 278.06 L 156.14 286.45 L 157.83 294.88 L 160.96 302.95 L 166.16 309.66 L 172.11 315.58 L 179.03 320.31 L 187.35 323.48 L 196.03 322.94 L 204.17 321.96 L 212.91 318.53 L 219.97 313.52 L 225.59 307.78 L 229.86 299.83 L 232.52 291.95 L 235.22 283.85 L 237.34 275.14 L 241.67 268.05 L 247.88 262.74 L 255.57 258.96 L 263.50 256.08 L 271.57 252.86 L 279.53 250.15 L 287.29 247.20 L 295.14 244.38 L 302.39 240.78 L 311.52 239.00 L 320.59 237.82 L 329.26 235.00 L 337.68 230.61 L 344.55 224.11 L 348.68 215.91 L 351.42 206.75 L 352.24 197.03 L 351.56 188.39 L 354.11 179.35 L 359.29 171.59 L 365.60 165.83 L 372.56 160.70 L 378.67 154.36 L 383.23 146.23 L 385.61 137.80 L 385.96 129.17 L 384.63 120.19 L 381.31 112.20 L 376.05 105.28 L 369.56 99.43 L 362.11 95.78 L 353.64 93.16 L 345.10 90.58 L 336.69 89.98 L 328.07 89.43 L 320.05 87.53 L 311.70 86.57 L 303.56 84.46 L 295.04 85.35 L 287.75 89.25 L 280.70 93.37 L 273.09 97.13 L 265.49 100.52 L 257.41 103.75 L 249.71 106.78 L 242.00 111.01 L 235.35 116.58 L 230.09 123.39 L 226.98 131.69 L 225.31 140.26 L 223.53 148.77 L 221.67 157.26 L 219.38 165.19 L 216.76 173.73 L 213.94 182.41 L 210.42 191.01 L 208.03 199.89 L 205.56 208.81 L 202.93 217.92 L 202.12 226.85 L 200.05 235.63 L 194.18 242.78 L 186.26 246.66 L 177.98 250.23 L 170.55 255.13 L 164.38 261.48 Z" />
</symbol>
<symbol id="bl5">
<path d="M 290.64 441.68 L 290.47 432.13 L 289.10 422.46 L 286.42 412.89 L 278.10 405.71 L 267.02 405.34 L 257.97 411.67 L 254.65 422.15 L 252.92 432.16 L 249.97 441.50 L 247.31 450.63 L 244.73 459.76 L 245.76 469.16 L 249.90 477.39 L 256.60 483.33 L 264.55 486.18 L 273.14 486.71 L 281.42 483.55 L 287.97 477.63 L 292.06 469.82 L 293.17 460.57 L 291.89 451.04 Z" />
</symbol>
</defs>
<!-- isDone: 0 -->
<rect width="700" height="500" style="fill:#fff;stroke-width:0" />
<use class="p0 borderLine" xlink:href="#bl0"/>
<use class="p1 borderLine" xlink:href="#bl1"/>
<use class="p2 borderLine" xlink:href="#bl2"/>
<use class="p3 borderLine" xlink:href="#bl3"/>
<use class="p4 borderLine" xlink:href="#bl4"/>
<use class="p5 borderLine" xlink:href="#bl5"/>
<use class="q0 outLine" xlink:href="#bl0"/>
<use class="q1 outLine" xlink:href="#bl1"/>
<use class="q2 outLine" xlink:href="#bl2"/>
<use class="q3 outLine" xlink:href="#bl3"/>
<use class="q4 outLine" xlink:href="#bl4"/>
<use class="q5 outLine" xlink:href="#bl5"/>
<circle onclick="fromCircle(1)" class="circle" cx="118.5867" cy="121.7626" r="90.2677" />
<text class="tLabel" x="118.59" y="101.76"></text>
<text class="nLabel" x="118.59" y="116.76">40</text>
<text class="belong" x="118.59" y="126.76">(1)</text>
<circle onclick="fromCircle(3)" class="circle" cx="184.6715" cy="228.7369" r="14.2726" />
<text class="tLabel" x="184.67" y="208.74"></text>
<text class="nLabel" x="184.67" y="223.74">1</text>
<text class="belong" x="184.67" y="233.74">(1, 2)</text>
<circle onclick="fromCircle(7)" class="circle" cx="392.1526" cy="353.9205" r="14.2726" />
<text class="tLabel" x="392.15" y="333.92"></text>
<text class="nLabel" x="392.15" y="348.92">1</text>
<text class="belong" x="392.15" y="358.92">(1, 2, 3)</text>
<circle onclick="fromCircle(15)" class="circle" cx="312.5839" cy="263.0773" r="20.1845" />
<text class="tLabel" x="312.58" y="243.08"></text>
<text class="nLabel" x="312.58" y="258.08">2</text>
<text class="belong" x="312.58" y="268.08">(1, 2, 3, 4)</text>
<circle onclick="fromCircle(2)" class="circle" cx="324.9400" cy="412.4631" r="14.2726" />
<text class="tLabel" x="324.94" y="392.46"></text>
<text class="nLabel" x="324.94" y="407.46">1</text>
<text class="belong" x="324.94" y="417.46">(2)</text>
<circle onclick="fromCircle(6)" class="circle" cx="368.9169" cy="394.3909" r="24.7208" />
<text class="tLabel" x="368.92" y="374.39"></text>
<text class="nLabel" x="368.92" y="389.39">3</text>
<text class="belong" x="368.92" y="399.39">(2, 3)</text>
<circle onclick="fromCircle(14)" class="circle" cx="331.1596" cy="330.0037" r="37.7617" />
<text class="tLabel" x="331.16" y="310.00"></text>
<text class="nLabel" x="331.16" y="325.00">7</text>
<text class="belong" x="331.16" y="335.00">(2, 3, 4)</text>
<circle onclick="fromCircle(10)" class="circle" cx="243.5364" cy="362.4705" r="40.3690" />
<text class="tLabel" x="243.54" y="342.47"></text>
<text class="nLabel" x="243.54" y="357.47">8</text>
<text class="belong" x="243.54" y="367.47">(2, 4)</text>
<circle onclick="fromCircle(18)" class="circle" cx="194.9050" cy="284.6591" r="31.9145" />
<text class="tLabel" x="194.91" y="264.66"></text>
<text class="nLabel" x="194.91" y="279.66">5</text>
<text class="belong" x="194.91" y="289.66">(2, 5)</text>
<circle onclick="fromCircle(4)" class="circle" cx="415.8000" cy="143.3919" r="24.7208" />
<text class="tLabel" x="415.80" y="123.39"></text>
<text class="nLabel" x="415.80" y="138.39">3</text>
<text class="belong" x="415.80" y="148.39">(3)</text>
<circle onclick="fromCircle(5)" class="circle" cx="381.1745" cy="191.4052" r="24.7208" />
<text class="tLabel" x="381.17" y="171.41"></text>
<text class="nLabel" x="381.17" y="186.41">3</text>
<text class="belong" x="381.17" y="196.41">(1, 3)</text>
<circle onclick="fromCircle(13)" class="circle" cx="374.8854" cy="258.8595" r="31.9145" />
<text class="tLabel" x="374.89" y="238.86"></text>
<text class="nLabel" x="374.89" y="253.86">5</text>
<text class="belong" x="374.89" y="263.86">(1, 3, 4)</text>
<circle onclick="fromCircle(12)" class="circle" cx="437.6773" cy="222.4574" r="28.5452" />
<text class="tLabel" x="437.68" y="202.46"></text>
<text class="nLabel" x="437.68" y="217.46">4</text>
<text class="belong" x="437.68" y="227.46">(3, 4)</text>
<circle onclick="fromCircle(20)" class="circle" cx="347.7728" cy="131.3457" r="31.9145" />
<text class="tLabel" x="347.77" y="111.35"></text>
<text class="nLabel" x="347.77" y="126.35">5</text>
<text class="belong" x="347.77" y="136.35">(3, 5)</text>
<circle onclick="fromCircle(21)" class="circle" cx="313.9200" cy="199.9132" r="31.9145" />
<text class="tLabel" x="313.92" y="179.91"></text>
<text class="nLabel" x="313.92" y="194.91">5</text>
<text class="belong" x="313.92" y="204.91">(1, 3, 5)</text>
<circle onclick="fromCircle(8)" class="circle" cx="473.1540" cy="259.8629" r="14.2726" />
<text class="tLabel" x="473.15" y="239.86"></text>
<text class="nLabel" x="473.15" y="254.86">1</text>
<text class="belong" x="473.15" y="264.86">(4)</text>
<circle onclick="fromCircle(9)" class="circle" cx="439.0123" cy="312.1732" r="37.7617" />
<text class="tLabel" x="439.01" y="292.17"></text>
<text class="nLabel" x="439.01" y="307.17">7</text>
<text class="belong" x="439.01" y="317.17">(1, 4)</text>
<circle onclick="fromCircle(11)" class="circle" cx="264.7284" cy="287.1838" r="24.7208" />
<text class="tLabel" x="264.73" y="267.18"></text>
<text class="nLabel" x="264.73" y="282.18">3</text>
<text class="belong" x="264.73" y="292.18">(1, 2, 4)</text>
<circle onclick="fromCircle(40)" class="circle" cx="271.8350" cy="421.7118" r="14.2726" />
<text class="tLabel" x="271.83" y="401.71"></text>
<text class="nLabel" x="271.83" y="416.71">1</text>
<text class="belong" x="271.83" y="426.71">(4, 6)</text>
<circle onclick="fromCircle(16)" class="circle" cx="300.7123" cy="101.3327" r="14.2726" />
<text class="tLabel" x="300.71" y="81.33"></text>
<text class="nLabel" x="300.71" y="96.33">1</text>
<text class="belong" x="300.71" y="106.33">(5)</text>
<circle onclick="fromCircle(17)" class="circle" cx="263.5587" cy="142.4718" r="31.9145" />
<text class="tLabel" x="263.56" y="122.47"></text>
<text class="nLabel" x="263.56" y="137.47">5</text>
<text class="belong" x="263.56" y="147.47">(1, 5)</text>
<circle onclick="fromCircle(19)" class="circle" cx="240.7624" cy="223.6065" r="31.9145" />
<text class="tLabel" x="240.76" y="203.61"></text>
<text class="nLabel" x="240.76" y="218.61">5</text>
<text class="belong" x="240.76" y="228.61">(1, 2, 5)</text>
<circle onclick="fromCircle(32)" class="circle" cx="268.9969" cy="462.6378" r="20.1845" />
<text class="tLabel" x="269.00" y="442.64"></text>
<text class="nLabel" x="269.00" y="457.64">2</text>
<text class="belong" x="269.00" y="467.64">(6)</text>
<rect class="p0 borderLine" x="500.00" y="50.00" width="30.00" height="15.00" />
<rect class="q0" x="500.00" y="50.00" width="30.00" height="15.00" />
<text class="legend" x="540.00" y="65.00">Ball2017</text>
<rect class="p1 borderLine" x="500.00" y="90.00" width="30.00" height="15.00" />
<rect class="q1" x="500.00" y="90.00" width="30.00" height="15.00" />
<text class="legend" x="540.00" y="105.00">Courtois2015</text>
<rect class="p2 borderLine" x="500.00" y="130.00" width="30.00" height="15.00" />
<rect class="q2" x="500.00" y="130.00" width="30.00" height="15.00" />
<text class="legend" x="540.00" y="145.00">Hilton2017</text>
<rect class="p3 borderLine" x="500.00" y="170.00" width="30.00" height="15.00" />
<rect class="q3" x="500.00" y="170.00" width="30.00" height="15.00" />
<text class="legend" x="540.00" y="185.00">Ball2017</text>
<rect class="p4 borderLine" x="500.00" y="210.00" width="30.00" height="15.00" />
<rect class="q4" x="500.00" y="210.00" width="30.00" height="15.00" />
<text class="legend" x="540.00" y="225.00">Ball2017</text>
<rect class="p5 borderLine" x="500.00" y="250.00" width="30.00" height="15.00" />
<rect class="q5" x="500.00" y="250.00" width="30.00" height="15.00" />
<text class="legend" x="540.00" y="265.00">Ball2017</text>
</svg>
