<svg xmlns="http://www.w3.org/2000/svg" xmlns:xlink="http://www.w3.org/1999/xlink" width="700" height="500">
<defs>
<style type="text/css"><![CDATA[
  .borderLine {
	   stroke: none;
	   fill-opacity: 0.4;
  }
  .outLine {
	   stroke-width: 1;
	   fill: none;
  }
  .circle {
	   stroke: #888888;
	   stroke-width: 0.5;
	   fill: none;
    pointer-events: all;
  }
  .spcircle {
	   stroke: #FF2222;
	   stroke-width: 1;
	   fill: none;
    pointer-events: all;
  }
  .tLabel {
	   font-family: Arial;
    pointer-events: none;
	   font-size: 14px;
	   text-anchor: middle;
	   alignment-baseline: central;
  }
  .nLabel {
	   font-family: Arial;
    pointer-events: none;
	   font-size: 10px;
	   text-anchor: middle;
	   alignment-baseline: central;
  }
  .belong {
	   font-family: Arial;
    pointer-events: none;
	   font-size: 5px;
	   text-anchor: middle;
	   alignment-baseline: central;
  }
  .p0{
    stroke: none;
    fill: #e6194b;
  }
  .q0{
    fill: none;
    stroke: #e6194b;
  }
  .p1{
    stroke: none;
    fill: #3cb44b;
  }
  .q1{
    fill: none;
    stroke: #3cb44b;
  }
  .p2{
    stroke: none;
    fill: #ffe119;
  }
  .q2{
    fill: none;
    stroke: #ffe119;
  }
  .p3{
    stroke: none;
    fill: #0082c8;
  }
  .q3{
    fill: none;
    stroke: #0082c8;
  }
]]>
</style>
<symbol id="bl0">
<path d="M 145.77 259.53 L 133.28 250.26 L 121.18 241.05 L 109.51 232.09 L 98.25 223.40 L 87.42 215.45 L 77.09 208.55 L 66.94 199.23 L 58.09 188.16 L 48.12 199.71 L 40.92 208.77 L 34.28 217.55 L 27.88 226.63 L 22.15 236.42 L 17.11 246.43 L 12.77 256.39 L 9.18 266.31 L 6.31 276.14 L 4.16 285.85 L 2.73 295.42 L 2.02 304.81 L 2.06 313.97 L 2.87 322.87 L 4.48 331.44 L 6.93 339.62 L 10.25 347.35 L 14.47 354.56 L 19.61 361.20 L 25.67 367.22 L 32.64 372.61 L 40.48 377.36 L 49.15 381.47 L 58.60 385.00 L 68.74 387.97 L 79.51 390.44 L 90.84 392.47 L 102.66 394.10 L 114.92 395.36 L 127.57 396.29 L 140.54 396.89 L 153.81 397.18 L 167.33 397.16 L 181.06 396.81 L 195.01 396.14 L 209.08 395.10 L 223.25 393.64 L 237.06 391.52 L 251.28 388.94 L 266.48 387.29 L 278.87 380.75 L 286.66 374.12 L 290.51 359.65 L 282.91 350.33 L 267.70 340.59 L 253.53 332.43 L 239.83 323.98 L 225.89 314.79 L 212.18 305.60 L 198.53 296.43 L 185.02 287.28 L 171.69 278.08 L 158.59 268.82 Z" />
</symbol>
<symbol id="bl1">
<path d="M 196.81 111.81 L 185.31 112.79 L 173.91 114.06 L 162.79 115.86 L 151.90 117.85 L 141.39 120.37 L 127.95 119.30 L 122.79 135.63 L 135.47 143.28 L 141.76 153.01 L 148.62 163.12 L 156.35 173.60 L 164.23 184.31 L 172.16 195.36 L 180.04 206.68 L 187.81 218.24 L 195.66 229.96 L 203.77 241.51 L 211.01 254.35 L 221.53 263.56 L 232.54 272.45 L 243.35 281.40 L 254.04 290.31 L 264.65 299.01 L 274.86 307.75 L 284.84 316.54 L 293.99 325.46 L 303.12 334.21 L 311.23 342.36 L 320.74 350.17 L 328.09 336.84 L 334.13 327.63 L 339.03 317.15 L 343.59 307.09 L 347.53 296.31 L 351.04 285.68 L 354.11 274.98 L 356.75 264.27 L 358.99 253.56 L 360.83 242.86 L 362.30 232.18 L 363.47 221.45 L 364.16 210.79 L 365.25 199.91 L 364.13 189.59 L 362.59 179.26 L 359.96 169.35 L 356.05 160.01 L 350.70 151.40 L 344.17 143.49 L 336.63 136.30 L 329.47 128.13 L 320.35 122.19 L 310.17 118.24 L 299.42 116.19 L 288.61 114.10 L 277.41 113.05 L 266.09 112.24 L 254.68 111.51 L 243.16 111.05 L 231.58 110.82 L 219.98 110.87 L 208.40 111.22 Z" />
</symbol>
<symbol id="bl2">
<path d="M 323.86 333.32 L 310.92 333.96 L 298.11 337.06 L 285.04 341.11 L 273.54 346.95 L 265.04 354.07 L 255.57 364.89 L 254.74 380.77 L 272.96 382.23 L 283.47 390.23 L 294.70 396.76 L 306.44 402.68 L 318.28 407.79 L 329.90 412.42 L 341.15 416.66 L 352.10 420.54 L 362.73 424.09 L 373.01 427.32 L 382.92 430.24 L 392.45 432.84 L 401.59 435.12 L 410.34 437.08 L 418.69 438.72 L 426.64 440.06 L 434.18 441.09 L 441.30 441.83 L 448.00 442.30 L 454.26 442.51 L 460.08 442.46 L 465.45 442.18 L 470.36 441.67 L 474.84 440.99 L 478.70 439.83 L 482.08 438.43 L 484.84 436.58 L 487.13 434.63 L 488.90 432.48 L 490.15 430.16 L 490.88 427.68 L 491.08 425.04 L 490.74 422.27 L 489.88 419.34 L 488.52 416.23 L 486.46 413.17 L 483.78 410.07 L 480.42 407.03 L 476.58 403.81 L 472.24 400.47 L 467.38 397.02 L 462.02 393.46 L 456.16 389.81 L 449.80 386.05 L 442.95 382.21 L 435.62 378.26 L 427.80 374.22 L 419.49 370.09 L 410.72 365.85 L 401.50 361.51 L 391.83 357.05 L 381.73 352.55 L 371.19 347.90 L 360.19 343.44 L 348.66 339.20 L 336.57 335.75 Z" />
</symbol>
<symbol id="bl3">
<path d="M 3.32 78.86 L 1.86 82.64 L 0.73 86.71 L -0.08 91.06 L -0.54 95.69 L -0.67 100.58 L -0.45 105.73 L 0.13 111.11 L 1.06 116.73 L 2.35 122.58 L 4.01 128.63 L 6.04 134.88 L 8.45 141.31 L 11.25 147.91 L 14.43 154.67 L 18.01 161.59 L 21.98 168.66 L 26.26 175.75 L 30.91 183.34 L 36.11 190.33 L 41.77 197.61 L 48.92 204.38 L 55.26 216.93 L 63.45 204.96 L 70.01 199.40 L 77.09 192.04 L 84.62 185.44 L 92.62 178.51 L 101.08 172.26 L 110.06 166.36 L 119.22 160.62 L 128.54 154.95 L 139.35 151.38 L 148.72 145.99 L 160.59 141.73 L 158.83 126.17 L 147.35 120.77 L 139.64 114.39 L 132.36 107.97 L 124.79 101.96 L 117.37 96.33 L 110.02 91.09 L 102.88 86.26 L 95.95 81.82 L 89.24 77.77 L 82.73 74.13 L 76.44 70.88 L 70.37 68.02 L 64.50 65.57 L 58.85 63.50 L 53.43 61.84 L 48.22 60.57 L 43.24 59.69 L 38.49 59.19 L 33.97 59.09 L 29.70 59.41 L 25.68 60.19 L 21.92 61.32 L 18.42 62.82 L 15.18 64.66 L 12.22 66.85 L 9.55 69.37 L 7.17 72.22 L 5.09 75.38 Z" />
</symbol>
</defs>
<!-- isDone: 0 -->
<rect width="700" height="500" style="fill:#fff;stroke-width:0" />
<use class="p0 borderLine" xlink:href="#bl0"/>
<use class="p1 borderLine" xlink:href="#bl1"/>
<use class="p2 borderLine" xlink:href="#bl2"/>
<use class="p3 borderLine" xlink:href="#bl3"/>
<use class="q0 outLine" xlink:href="#bl0"/>
<use class="q1 outLine" xlink:href="#bl1"/>
<use class="q2 outLine" xlink:href="#bl2"/>
<use class="q3 outLine" xlink:href="#bl3"/>
<circle onclick="fromCircle(1)" class="circle" cx="84.7688" cy="314.1456" r="74.7688" />
<text class="tLabel" x="84.77" y="294.15"></text>
<text class="nLabel" x="84.77" y="309.15">1378</text>
<text class="belong" x="84.77" y="319.15">(1)</text>
<circle onclick="fromCircle(2)" class="circle" cx="278.8647" cy="199.6158" r="85.5962" />
<text class="tLabel" x="278.86" y="179.62"></text>
<text class="nLabel" x="278.86" y="194.62">1806</text>
<text class="belong" x="278.86" y="204.62">(2)</text>
<circle onclick="fromCircle(6)" class="circle" cx="317.4758" cy="339.6498" r="5.6969" />
<text class="tLabel" x="317.48" y="319.65"></text>
<text class="nLabel" x="317.48" y="334.65">8</text>
<text class="belong" x="317.48" y="344.65">(2, 3)</text>
<circle onclick="fromCircle(10)" class="circle" cx="144.1220" cy="136.0500" r="10.8466" />
<text class="tLabel" x="144.12" y="116.05"></text>
<text class="nLabel" x="144.12" y="131.05">29</text>
<text class="belong" x="144.12" y="141.05">(2, 4)</text>
<circle onclick="fromCircle(4)" class="circle" cx="473.1483" cy="423.8531" r="16.8517" />
<text class="tLabel" x="473.15" y="403.85"></text>
<text class="nLabel" x="473.15" y="418.85">70</text>
<text class="belong" x="473.15" y="428.85">(3)</text>
<circle onclick="fromCircle(5)" class="circle" cx="274.5997" cy="366.1441" r="13.6608" />
<text class="tLabel" x="274.60" y="346.14"></text>
<text class="nLabel" x="274.60" y="361.14">46</text>
<text class="belong" x="274.60" y="371.14">(1, 3)</text>
<circle onclick="fromCircle(8)" class="circle" cx="32.4953" cy="71.8737" r="12.5785" />
<text class="tLabel" x="32.50" y="51.87"></text>
<text class="nLabel" x="32.50" y="66.87">39</text>
<text class="belong" x="32.50" y="76.87">(4)</text>
<circle onclick="fromCircle(9)" class="circle" cx="56.2485" cy="206.9096" r="4.9337" />
<text class="tLabel" x="56.25" y="186.91"></text>
<text class="nLabel" x="56.25" y="201.91">6</text>
<text class="belong" x="56.25" y="211.91">(1, 4)</text>
<rect class="p0 borderLine" x="500.00" y="50.00" width="30.00" height="15.00" />
<rect class="q0" x="500.00" y="50.00" width="30.00" height="15.00" />
<text class="legend" x="540.00" y="65.00">Up_in_POU3F2_KO_iNs</text>
<rect class="p1 borderLine" x="500.00" y="90.00" width="30.00" height="15.00" />
<rect class="q1" x="500.00" y="90.00" width="30.00" height="15.00" />
<text class="legend" x="540.00" y="105.00">Down_in_POU3F2_KO_iNs</text>
<rect class="p2 borderLine" x="500.00" y="130.00" width="30.00" height="15.00" />
<rect class="q2" x="500.00" y="130.00" width="30.00" height="15.00" />
<text class="legend" x="540.00" y="145.00">Up_in_VGF_KO_iNs</text>
<rect class="p3 borderLine" x="500.00" y="170.00" width="30.00" height="15.00" />
<rect class="q3" x="500.00" y="170.00" width="30.00" height="15.00" />
<text class="legend" x="540.00" y="185.00">Down_in_VGF_KO_iNs</text>
</svg>
