<svg xmlns="http://www.w3.org/2000/svg" xmlns:xlink="http://www.w3.org/1999/xlink" width="700" height="500">
<defs>
<style type="text/css"><![CDATA[
  .borderLine {
	   stroke: none;
	   fill-opacity: 0.4;
  }
  .outLine {
	   stroke-width: 1;
	   fill: none;
  }
  .circle {
	   stroke: #888888;
	   stroke-width: 0.5;
	   fill: none;
    pointer-events: all;
  }
  .spcircle {
	   stroke: #FF2222;
	   stroke-width: 1;
	   fill: none;
    pointer-events: all;
  }
  .tLabel {
	   font-family: Arial;
    pointer-events: none;
	   font-size: 14px;
	   text-anchor: middle;
	   alignment-baseline: central;
  }
  .nLabel {
	   font-family: Arial;
    pointer-events: none;
	   font-size: 10px;
	   text-anchor: middle;
	   alignment-baseline: central;
  }
  .belong {
	   font-family: Arial;
    pointer-events: none;
	   font-size: 5px;
	   text-anchor: middle;
	   alignment-baseline: central;
  }
  .p0{
    stroke: none;
    fill: #e6194b;
  }
  .q0{
    fill: none;
    stroke: #e6194b;
  }
  .p1{
    stroke: none;
    fill: #3cb44b;
  }
  .q1{
    fill: none;
    stroke: #3cb44b;
  }
  .p2{
    stroke: none;
    fill: #ffe119;
  }
  .q2{
    fill: none;
    stroke: #ffe119;
  }
  .p3{
    stroke: none;
    fill: #0082c8;
  }
  .q3{
    fill: none;
    stroke: #0082c8;
  }
]]>
</style>
<symbol id="bl0">
<path d="M 342.76 267.32 L 371.41 288.46 L 362.82 282.97 L 362.40 278.70 L 323.44 292.08 L 295.70 317.11 L 327.61 331.65 L 361.53 293.69 L 347.97 329.89 L 341.95 323.01 L 323.97 333.73 L 313.91 385.68 L 373.06 392.25 L 368.27 297.17 L 380.46 268.82 L 363.46 290.85 L 371.27 284.80 L 355.50 311.47 L 403.94 298.71 L 422.14 266.82 L 394.67 259.54 L 376.19 287.32 L 378.31 291.32 L 378.04 278.19 L 398.51 262.70 L 397.33 226.26 L 372.48 183.22 L 311.00 198.99 L 318.33 252.00 L 323.47 287.75 L 324.36 271.38 Z" />
</symbol>
<symbol id="bl1">
<path d="M 267.95 315.46 L 229.41 292.50 L 219.83 248.71 L 165.59 238.65 L 158.57 292.02 L 204.90 326.43 L 241.52 338.48 L 247.16 301.17 L 246.12 291.23 L 263.93 311.32 L 222.31 314.79 L 162.98 321.68 L 148.61 369.09 L 178.19 401.65 L 223.48 391.37 L 228.69 350.45 L 230.92 331.24 L 271.32 316.35 L 239.99 338.57 L 239.52 356.95 L 282.03 367.05 L 300.00 318.70 L 254.09 311.04 L 251.15 315.77 L 258.60 302.87 L 251.05 295.36 L 243.71 294.41 L 242.59 295.44 L 258.70 308.05 L 255.12 301.03 L 257.85 306.71 L 262.14 307.25 L 251.66 316.72 Z" />
</symbol>
<symbol id="bl2">
<path d="M 259.43 314.02 L 225.49 343.25 L 258.80 314.89 L 219.98 328.09 L 236.25 355.81 L 259.07 375.30 L 290.86 364.49 L 294.00 357.72 L 282.98 366.86 L 262.60 383.03 L 237.86 456.80 L 301.67 495.47 L 356.04 471.44 L 393.69 433.11 L 412.69 397.08 L 408.60 360.45 L 402.57 345.15 L 439.70 388.09 L 460.68 390.39 L 464.08 345.23 L 473.56 319.20 L 414.54 303.53 L 320.69 336.35 L 361.24 320.62 L 367.48 302.66 L 363.14 303.76 L 372.92 304.57 L 367.03 284.99 L 332.73 274.60 L 365.21 277.77 L 367.32 296.32 L 365.86 305.43 L 371.85 294.60 L 363.20 288.60 L 332.75 282.36 L 327.20 283.41 L 332.16 335.37 L 309.61 237.33 L 239.52 234.00 L 236.35 294.97 L 207.81 325.15 L 190.88 322.19 L 215.43 327.40 L 256.90 315.98 L 264.49 319.03 L 272.56 314.51 L 260.39 314.87 L 260.43 313.65 Z" />
</symbol>
<symbol id="bl3">
<path d="M 165.34 227.23 L 172.66 228.27 L 163.84 222.18 L 152.41 217.99 L 136.94 230.39 L 134.49 267.87 L 165.73 312.83 L 181.67 318.99 L 228.16 295.36 L 210.92 317.91 L 220.19 340.18 L 220.75 316.02 L 198.62 317.66 L 222.97 347.59 L 222.60 346.75 L 223.18 327.00 L 265.54 317.99 L 262.29 318.51 L 261.21 317.88 L 261.45 318.57 L 266.79 325.89 L 310.10 323.98 L 294.49 324.08 L 293.43 370.82 L 369.34 289.90 L 411.67 316.85 L 419.47 268.88 L 411.28 271.33 L 414.09 305.00 L 394.88 317.36 L 371.31 304.10 L 363.15 282.77 L 366.62 294.79 L 368.85 294.89 L 370.51 295.00 L 365.89 291.18 L 394.38 263.83 L 403.03 219.87 L 387.46 185.86 L 363.39 175.42 L 348.24 179.26 L 339.16 182.63 L 332.81 185.68 L 329.05 186.68 L 321.89 174.83 L 314.80 155.25 L 313.18 132.69 L 310.02 108.63 L 305.06 85.68 L 293.76 65.84 L 284.61 45.06 L 272.00 25.48 L 256.23 5.84 L 237.22 -14.80 L 212.85 -30.06 L 184.38 -35.62 L 155.19 -30.61 L 129.49 -15.95 L 111.52 8.14 L 98.86 32.55 L 89.88 55.75 L 74.44 75.22 L 66.66 99.66 L 67.11 128.32 L 66.57 158.22 L 76.27 187.80 L 99.37 213.44 L 130.05 230.20 L 151.11 231.81 Z" />
</symbol>
</defs>
<!-- isDone: 0 -->
<rect width="700" height="500" style="fill:#fff;stroke-width:0" />
<use class="p0 borderLine" xlink:href="#bl0"/>
<use class="p1 borderLine" xlink:href="#bl1"/>
<use class="p2 borderLine" xlink:href="#bl2"/>
<use class="p3 borderLine" xlink:href="#bl3"/>
<use class="q0 outLine" xlink:href="#bl0"/>
<use class="q1 outLine" xlink:href="#bl1"/>
<use class="q2 outLine" xlink:href="#bl2"/>
<use class="q3 outLine" xlink:href="#bl3"/>
<circle onclick="fromCircle(1)" class="circle" cx="390.7775" cy="285.4648" r="14.4915" />
<text class="tLabel" x="390.78" y="265.46"></text>
<text class="nLabel" x="390.78" y="280.46">2</text>
<text class="belong" x="390.78" y="290.46">(1)</text>
<circle onclick="fromCircle(2)" class="circle" cx="192.1725" cy="360.6339" r="35.4967" />
<text class="tLabel" x="192.17" y="340.63"></text>
<text class="nLabel" x="192.17" y="355.63">12</text>
<text class="belong" x="192.17" y="365.63">(2)</text>
<circle onclick="fromCircle(6)" class="circle" cx="272.7075" cy="346.0244" r="25.0999" />
<text class="tLabel" x="272.71" y="326.02"></text>
<text class="nLabel" x="272.71" y="341.02">6</text>
<text class="belong" x="272.71" y="351.02">(2, 3)</text>
<circle onclick="fromCircle(14)" class="circle" cx="243.1442" cy="308.1609" r="10.2470" />
<text class="tLabel" x="243.14" y="288.16"></text>
<text class="nLabel" x="243.14" y="303.16">1</text>
<text class="belong" x="243.14" y="313.16">(2, 3, 4)</text>
<circle onclick="fromCircle(10)" class="circle" cx="197.0001" cy="277.6321" r="33.9855" />
<text class="tLabel" x="197.00" y="257.63"></text>
<text class="nLabel" x="197.00" y="272.63">11</text>
<text class="belong" x="197.00" y="282.63">(2, 4)</text>
<circle onclick="fromCircle(4)" class="circle" cx="307.3479" cy="435.0365" r="54.2221" />
<text class="tLabel" x="307.35" y="415.04"></text>
<text class="nLabel" x="307.35" y="430.04">28</text>
<text class="belong" x="307.35" y="440.04">(3)</text>
<circle onclick="fromCircle(5)" class="circle" cx="346.0213" cy="356.2604" r="27.1110" />
<text class="tLabel" x="346.02" y="336.26"></text>
<text class="nLabel" x="346.02" y="351.26">7</text>
<text class="belong" x="346.02" y="361.26">(1, 3)</text>
<circle onclick="fromCircle(13)" class="circle" cx="342.3967" cy="300.2939" r="14.4915" />
<text class="tLabel" x="342.40" y="280.29"></text>
<text class="nLabel" x="342.40" y="295.29">2</text>
<text class="belong" x="342.40" y="305.29">(1, 3, 4)</text>
<circle onclick="fromCircle(12)" class="circle" cx="280.9763" cy="273.5367" r="40.9880" />
<text class="tLabel" x="280.98" y="253.54"></text>
<text class="nLabel" x="280.98" y="268.54">16</text>
<text class="belong" x="280.98" y="278.54">(3, 4)</text>
<circle onclick="fromCircle(8)" class="circle" cx="209.0606" cy="132.3009" r="93.9154" />
<text class="tLabel" x="209.06" y="112.30"></text>
<text class="nLabel" x="209.06" y="127.30">84</text>
<text class="belong" x="209.06" y="137.30">(4)</text>
<circle onclick="fromCircle(9)" class="circle" cx="351.3226" cy="226.1399" r="39.6865" />
<text class="tLabel" x="351.32" y="206.14"></text>
<text class="nLabel" x="351.32" y="221.14">15</text>
<text class="belong" x="351.32" y="231.14">(1, 4)</text>
<rect class="p0 borderLine" x="500.00" y="50.00" width="30.00" height="15.00" />
<rect class="q0" x="500.00" y="50.00" width="30.00" height="15.00" />
<text class="legend" x="540.00" y="65.00">S_salivarius</text>
<rect class="p1 borderLine" x="500.00" y="90.00" width="30.00" height="15.00" />
<rect class="q1" x="500.00" y="90.00" width="30.00" height="15.00" />
<text class="legend" x="540.00" y="105.00">Other</text>
<rect class="p2 borderLine" x="500.00" y="130.00" width="30.00" height="15.00" />
<rect class="q2" x="500.00" y="130.00" width="30.00" height="15.00" />
<text class="legend" x="540.00" y="145.00">GAS</text>
<rect class="p3 borderLine" x="500.00" y="170.00" width="30.00" height="15.00" />
<rect class="q3" x="500.00" y="170.00" width="30.00" height="15.00" />
<text class="legend" x="540.00" y="185.00">GCS/GGS</text>
</svg>
