<svg xmlns="http://www.w3.org/2000/svg" xmlns:xlink="http://www.w3.org/1999/xlink" width="700" height="500">
<defs>
<style type="text/css"><![CDATA[
  .borderLine {
	   stroke: none;
	   fill-opacity: 0.4;
  }
  .outLine {
	   stroke-width: 1;
	   fill: none;
  }
  .circle {
	   stroke: #888888;
	   stroke-width: 0.5;
	   fill: none;
    pointer-events: all;
  }
  .spcircle {
	   stroke: #FF2222;
	   stroke-width: 1;
	   fill: none;
    pointer-events: all;
  }
  .tLabel {
	   font-family: Arial;
    pointer-events: none;
	   font-size: 14px;
	   text-anchor: middle;
	   alignment-baseline: central;
  }
  .nLabel {
	   font-family: Arial;
    pointer-events: none;
	   font-size: 10px;
	   text-anchor: middle;
	   alignment-baseline: central;
  }
  .belong {
	   font-family: Arial;
    pointer-events: none;
	   font-size: 5px;
	   text-anchor: middle;
	   alignment-baseline: central;
  }
  .p0{
    stroke: none;
    fill: #e6194b;
  }
  .q0{
    fill: none;
    stroke: #e6194b;
  }
  .p1{
    stroke: none;
    fill: #3cb44b;
  }
  .q1{
    fill: none;
    stroke: #3cb44b;
  }
  .p2{
    stroke: none;
    fill: #ffe119;
  }
  .q2{
    fill: none;
    stroke: #ffe119;
  }
  .p3{
    stroke: none;
    fill: #0082c8;
  }
  .q3{
    fill: none;
    stroke: #0082c8;
  }
]]>
</style>
<symbol id="bl0">
<path d="M 230.60 208.71 L 229.23 198.69 L 226.24 188.29 L 223.68 178.55 L 214.44 174.22 L 203.86 173.27 L 193.69 172.46 L 184.94 172.36 L 174.66 172.94 L 163.99 170.75 L 153.88 171.41 L 143.98 174.67 L 136.76 182.75 L 129.41 190.37 L 122.36 198.34 L 115.86 206.20 L 105.75 212.95 L 95.81 219.55 L 84.91 225.76 L 74.49 232.12 L 64.56 239.81 L 55.43 248.70 L 47.38 258.54 L 40.42 269.34 L 34.73 281.07 L 30.27 293.89 L 27.37 307.62 L 25.53 321.22 L 26.45 334.52 L 28.66 347.68 L 32.22 360.54 L 37.19 372.80 L 43.59 384.11 L 50.99 394.46 L 59.43 403.70 L 68.80 411.92 L 78.83 418.98 L 89.38 424.81 L 100.35 429.42 L 111.60 432.85 L 122.87 434.99 L 134.11 436.03 L 145.44 435.74 L 156.56 434.44 L 167.21 432.09 L 177.08 428.88 L 186.75 424.89 L 195.57 420.05 L 203.98 414.52 L 211.90 408.30 L 218.69 401.74 L 224.90 394.49 L 230.63 387.33 L 235.40 379.36 L 239.45 371.11 L 242.87 362.71 L 245.64 354.10 L 247.73 345.18 L 249.22 336.54 L 249.74 327.61 L 249.68 318.75 L 248.82 309.97 L 247.36 301.22 L 245.51 292.04 L 243.45 282.86 L 241.96 273.52 L 240.79 264.48 L 239.74 255.35 L 238.24 245.76 L 237.34 236.12 L 235.72 227.44 L 231.86 219.18 Z" />
</symbol>
<symbol id="bl1">
<path d="M 262.03 85.64 L 253.98 91.84 L 245.70 98.59 L 237.70 105.43 L 230.30 112.50 L 222.59 119.79 L 214.07 127.46 L 204.88 135.37 L 193.86 144.25 L 183.85 153.51 L 185.78 155.57 L 195.68 167.01 L 209.07 171.74 L 219.12 174.99 L 225.47 181.37 L 230.14 191.01 L 234.67 200.73 L 238.96 211.87 L 243.16 223.41 L 247.62 233.35 L 253.13 243.33 L 259.11 252.37 L 265.57 260.67 L 272.76 268.18 L 281.00 275.04 L 290.32 282.20 L 300.92 288.43 L 312.37 293.83 L 324.57 298.27 L 337.42 301.52 L 350.83 303.58 L 364.38 303.97 L 378.09 303.00 L 391.57 300.38 L 404.89 296.44 L 417.62 291.14 L 429.56 284.49 L 440.44 276.90 L 450.37 268.33 L 459.33 258.85 L 467.05 248.82 L 473.74 238.21 L 479.20 227.04 L 483.61 215.49 L 486.88 203.44 L 489.04 191.12 L 490.11 178.94 L 489.68 167.14 L 488.37 155.64 L 486.00 143.90 L 482.42 132.78 L 477.67 121.35 L 472.00 110.66 L 465.46 100.59 L 457.78 90.68 L 448.95 81.80 L 439.34 73.94 L 428.98 66.87 L 418.17 60.69 L 406.90 55.67 L 395.15 52.09 L 383.39 49.65 L 371.93 48.12 L 360.54 47.75 L 348.75 48.52 L 337.36 50.09 L 326.49 52.91 L 315.83 56.35 L 306.29 60.35 L 297.29 64.66 L 288.10 69.07 L 278.92 73.88 L 270.37 79.69 Z" />
</symbol>
<symbol id="bl2">
<path d="M 108.42 161.77 L 105.10 162.37 L 102.32 162.41 L 98.95 162.86 L 94.71 163.85 L 91.34 164.53 L 88.74 165.32 L 86.27 166.38 L 84.05 167.65 L 81.60 169.06 L 79.65 170.58 L 77.64 172.22 L 76.06 174.24 L 74.79 176.33 L 73.63 178.46 L 72.66 180.69 L 71.91 182.97 L 71.50 185.25 L 71.31 187.53 L 71.27 189.78 L 71.56 191.94 L 72.16 194.02 L 72.81 196.08 L 73.61 197.95 L 74.56 199.85 L 75.45 201.60 L 76.51 203.16 L 77.61 204.92 L 79.01 206.26 L 80.23 207.60 L 81.28 208.84 L 82.81 209.85 L 84.19 210.78 L 85.86 211.68 L 87.65 212.35 L 89.49 212.96 L 91.49 213.51 L 93.54 213.99 L 95.97 214.38 L 98.42 214.86 L 101.06 215.00 L 103.55 215.10 L 106.06 215.04 L 108.56 215.00 L 110.65 214.95 L 112.44 214.78 L 114.45 214.78 L 116.14 214.49 L 117.85 213.96 L 119.97 213.39 L 122.19 212.92 L 124.45 212.42 L 126.85 212.04 L 129.52 211.81 L 132.36 211.59 L 135.52 211.46 L 138.74 211.46 L 142.22 211.72 L 146.05 212.45 L 149.54 212.97 L 155.71 213.35 L 161.94 211.86 L 166.19 209.74 L 170.64 206.42 L 174.65 203.24 L 178.42 199.01 L 180.98 195.30 L 184.44 191.99 L 187.62 187.42 L 190.14 183.11 L 192.88 180.07 L 195.99 176.22 L 202.22 174.16 L 216.23 174.15 L 227.52 172.95 L 232.53 167.39 L 216.87 159.30 L 209.54 154.44 L 207.05 151.13 L 198.35 151.39 L 191.60 151.73 L 187.21 151.83 L 183.16 152.16 L 179.55 151.68 L 175.33 151.14 L 171.38 150.80 L 167.29 150.99 L 163.26 152.14 L 159.36 152.29 L 154.80 152.92 L 150.07 153.74 L 144.97 154.30 L 139.62 154.92 L 134.44 156.34 L 129.63 158.54 L 125.86 159.95 L 122.52 160.78 L 118.90 161.46 L 115.50 161.33 L 112.12 161.09 Z" />
</symbol>
<symbol id="bl3">
<path d="M 230.31 121.78 L 229.77 118.36 L 228.90 114.94 L 227.49 111.75 L 226.64 108.67 L 225.15 106.02 L 223.78 103.12 L 222.47 100.39 L 221.34 97.59 L 218.75 96.08 L 216.67 94.51 L 214.39 93.18 L 211.54 92.13 L 208.95 91.29 L 206.15 91.38 L 203.38 91.61 L 201.12 92.18 L 198.76 93.01 L 196.31 94.22 L 194.25 95.71 L 192.29 97.68 L 190.57 99.72 L 189.59 101.70 L 188.79 103.42 L 188.18 105.33 L 187.62 108.07 L 187.54 110.86 L 187.85 113.94 L 188.76 116.90 L 190.04 119.59 L 191.30 122.15 L 192.33 124.21 L 193.52 126.68 L 194.80 129.81 L 195.84 132.80 L 197.05 135.79 L 198.43 139.68 L 200.26 144.39 L 203.80 149.35 L 208.26 153.73 L 216.29 159.66 L 232.28 162.88 L 234.48 170.34 L 225.26 172.74 L 209.50 172.35 L 204.71 174.19 L 204.75 177.44 L 206.69 181.02 L 208.17 183.53 L 210.60 186.82 L 212.50 189.47 L 215.76 191.45 L 219.91 191.44 L 223.30 189.24 L 225.41 186.44 L 227.40 184.85 L 228.19 181.37 L 228.97 177.76 L 230.34 175.48 L 231.20 170.76 L 231.56 166.57 L 232.89 162.20 L 234.43 157.63 L 235.15 154.34 L 236.33 150.95 L 237.60 142.59 L 240.97 135.00 L 239.23 131.35 L 233.13 128.47 L 231.06 125.19 Z" />
</symbol>
</defs>
<!-- isDone: 0 -->
<rect width="700" height="500" style="fill:#fff;stroke-width:0" />
<use class="p0 borderLine" xlink:href="#bl0"/>
<use class="p1 borderLine" xlink:href="#bl1"/>
<use class="p2 borderLine" xlink:href="#bl2"/>
<use class="p3 borderLine" xlink:href="#bl3"/>
<use class="q0 outLine" xlink:href="#bl0"/>
<use class="q1 outLine" xlink:href="#bl1"/>
<use class="q2 outLine" xlink:href="#bl2"/>
<use class="q3 outLine" xlink:href="#bl3"/>
<circle onclick="fromCircle(1)" class="circle" cx="137.9523" cy="324.1372" r="111.7671" />
<text class="tLabel" x="137.95" y="304.14"></text>
<text class="nLabel" x="137.95" y="319.14">1378</text>
<text class="belong" x="137.95" y="329.14">(1)</text>
<circle onclick="fromCircle(2)" class="circle" cx="362.0476" cy="175.8628" r="127.9523" />
<text class="tLabel" x="362.05" y="155.86"></text>
<text class="nLabel" x="362.05" y="170.86">1806</text>
<text class="belong" x="362.05" y="180.86">(2)</text>
<circle onclick="fromCircle(6)" class="circle" cx="204.2527" cy="161.3509" r="8.5160" />
<text class="tLabel" x="204.25" y="141.35"></text>
<text class="nLabel" x="204.25" y="156.35">8</text>
<text class="belong" x="204.25" y="166.35">(2, 3)</text>
<circle onclick="fromCircle(10)" class="circle" cx="221.1224" cy="143.0115" r="16.2139" />
<text class="tLabel" x="221.12" y="123.01"></text>
<text class="nLabel" x="221.12" y="138.01">29</text>
<text class="belong" x="221.12" y="148.01">(2, 4)</text>
<circle onclick="fromCircle(4)" class="circle" cx="97.3777" cy="189.0181" r="25.1906" />
<text class="tLabel" x="97.38" y="169.02"></text>
<text class="nLabel" x="97.38" y="184.02">70</text>
<text class="belong" x="97.38" y="194.02">(3)</text>
<circle onclick="fromCircle(5)" class="circle" cx="155.4369" cy="192.4096" r="20.4206" />
<text class="tLabel" x="155.44" y="172.41"></text>
<text class="nLabel" x="155.44" y="187.41">46</text>
<text class="belong" x="155.44" y="197.41">(1, 3)</text>
<circle onclick="fromCircle(8)" class="circle" cx="206.3703" cy="110.2242" r="18.8028" />
<text class="tLabel" x="206.37" y="90.22"></text>
<text class="nLabel" x="206.37" y="105.22">39</text>
<text class="belong" x="206.37" y="115.22">(4)</text>
<circle onclick="fromCircle(9)" class="circle" cx="217.4902" cy="183.9338" r="7.3751" />
<text class="tLabel" x="217.49" y="163.93"></text>
<text class="nLabel" x="217.49" y="178.93">6</text>
<text class="belong" x="217.49" y="188.93">(1, 4)</text>
<rect class="p0 borderLine" x="500.00" y="50.00" width="30.00" height="15.00" />
<rect class="q0" x="500.00" y="50.00" width="30.00" height="15.00" />
<text class="legend" x="540.00" y="65.00">Up_in_POU3F2_KO_iNs</text>
<rect class="p1 borderLine" x="500.00" y="90.00" width="30.00" height="15.00" />
<rect class="q1" x="500.00" y="90.00" width="30.00" height="15.00" />
<text class="legend" x="540.00" y="105.00">Down_in_POU3F2_KO_iNs</text>
<rect class="p2 borderLine" x="500.00" y="130.00" width="30.00" height="15.00" />
<rect class="q2" x="500.00" y="130.00" width="30.00" height="15.00" />
<text class="legend" x="540.00" y="145.00">Up_in_VGF_KO_iNs</text>
<rect class="p3 borderLine" x="500.00" y="170.00" width="30.00" height="15.00" />
<rect class="q3" x="500.00" y="170.00" width="30.00" height="15.00" />
<text class="legend" x="540.00" y="185.00">Down_in_VGF_KO_iNs</text>
</svg>
