<svg xmlns="http://www.w3.org/2000/svg" xmlns:xlink="http://www.w3.org/1999/xlink" width="700" height="500">
<defs>
<style type="text/css"><![CDATA[
  .borderLine {
	   stroke: none;
	   fill-opacity: 0.4;
  }
  .outLine {
	   stroke-width: 1;
	   fill: none;
  }
  .circle {
	   stroke: #888888;
	   stroke-width: 0.5;
	   fill: none;
    pointer-events: all;
  }
  .spcircle {
	   stroke: #FF2222;
	   stroke-width: 1;
	   fill: none;
    pointer-events: all;
  }
  .tLabel {
	   font-family: Arial;
    pointer-events: none;
	   font-size: 14px;
	   text-anchor: middle;
	   alignment-baseline: central;
  }
  .nLabel {
	   font-family: Arial;
    pointer-events: none;
	   font-size: 10px;
	   text-anchor: middle;
	   alignment-baseline: central;
  }
  .belong {
	   font-family: Arial;
    pointer-events: none;
	   font-size: 5px;
	   text-anchor: middle;
	   alignment-baseline: central;
  }
  .p0{
    stroke: none;
    fill: #e6194b;
  }
  .q0{
    fill: none;
    stroke: #e6194b;
  }
  .p1{
    stroke: none;
    fill: #3cb44b;
  }
  .q1{
    fill: none;
    stroke: #3cb44b;
  }
  .p2{
    stroke: none;
    fill: #ffe119;
  }
  .q2{
    fill: none;
    stroke: #ffe119;
  }
  .p3{
    stroke: none;
    fill: #0082c8;
  }
  .q3{
    fill: none;
    stroke: #0082c8;
  }
  .p4{
    stroke: none;
    fill: #f58231;
  }
  .q4{
    fill: none;
    stroke: #f58231;
  }
  .p5{
    stroke: none;
    fill: #911eb4;
  }
  .q5{
    fill: none;
    stroke: #911eb4;
  }
  .p6{
    stroke: none;
    fill: #46f0f0;
  }
  .q6{
    fill: none;
    stroke: #46f0f0;
  }
  .p7{
    stroke: none;
    fill: #f032e6;
  }
  .q7{
    fill: none;
    stroke: #f032e6;
  }
]]>
</style>
<symbol id="bl0">
<path d="M 263.27 92.51 L 261.66 93.84 L 260.22 95.31 L 259.02 96.95 L 258.00 98.71 L 256.96 100.47 L 256.30 102.44 L 255.75 104.47 L 255.27 106.52 L 255.17 108.61 L 255.28 110.71 L 255.53 112.78 L 255.81 114.84 L 256.02 116.93 L 256.17 119.03 L 256.26 121.15 L 256.34 123.28 L 256.45 125.42 L 256.61 127.58 L 256.81 129.75 L 257.05 131.93 L 257.28 134.12 L 257.52 136.33 L 257.78 138.54 L 258.06 140.75 L 258.35 142.98 L 258.67 145.20 L 259.01 147.44 L 259.37 149.68 L 259.78 151.92 L 260.21 154.16 L 260.66 156.40 L 261.12 158.65 L 261.59 160.89 L 262.06 163.14 L 262.54 165.38 L 263.03 167.62 L 263.53 169.86 L 264.06 172.10 L 264.61 174.34 L 265.19 176.59 L 265.79 178.82 L 266.41 181.06 L 267.05 183.30 L 267.72 185.53 L 268.43 187.76 L 269.15 189.99 L 269.90 192.22 L 270.68 194.44 L 271.50 196.65 L 272.33 198.87 L 273.19 201.07 L 274.08 203.27 L 274.99 205.47 L 275.90 207.66 L 276.78 209.87 L 277.53 212.14 L 278.01 214.52 L 278.52 216.91 L 279.33 219.21 L 280.35 221.45 L 281.52 223.62 L 282.87 225.68 L 284.47 227.56 L 285.80 229.63 L 287.39 231.49 L 289.05 233.25 L 290.38 235.27 L 291.68 237.32 L 292.99 239.37 L 294.32 241.41 L 295.68 243.45 L 297.05 245.47 L 298.47 247.47 L 299.91 249.45 L 301.37 251.42 L 302.85 253.38 L 304.35 255.34 L 305.86 257.28 L 307.41 259.19 L 308.98 261.08 L 310.58 262.93 L 312.21 264.75 L 313.84 266.54 L 315.47 268.29 L 317.11 270.00 L 318.73 271.68 L 320.30 273.33 L 322.02 274.82 L 323.54 276.48 L 325.24 278.03 L 326.93 279.63 L 328.64 281.25 L 330.37 282.88 L 332.14 284.52 L 333.94 286.13 L 335.79 287.73 L 337.69 289.32 L 339.61 290.91 L 341.57 292.48 L 343.56 294.03 L 345.57 295.53 L 347.62 297.01 L 349.71 298.47 L 351.82 299.93 L 353.91 301.44 L 355.98 302.99 L 357.99 304.60 L 359.97 306.22 L 361.94 307.79 L 363.91 309.33 L 365.75 310.99 L 367.82 312.35 L 369.81 313.69 L 371.87 314.94 L 374.06 316.14 L 376.30 317.38 L 378.54 318.74 L 380.72 320.15 L 382.80 321.54 L 384.78 322.96 L 386.61 324.47 L 388.52 325.67 L 391.20 326.11 L 392.34 328.53 L 394.28 329.93 L 396.27 331.33 L 398.42 332.62 L 400.58 333.87 L 402.62 335.15 L 404.45 336.59 L 405.87 338.33 L 407.49 339.95 L 409.78 341.42 L 412.63 341.51 L 415.24 341.34 L 417.26 339.84 L 419.19 338.26 L 420.07 335.96 L 421.16 333.90 L 422.25 331.88 L 423.54 330.01 L 424.94 328.20 L 426.40 326.39 L 427.85 324.55 L 429.22 322.65 L 430.45 320.65 L 431.43 318.50 L 432.32 316.29 L 433.28 314.12 L 434.32 311.94 L 435.53 309.75 L 436.86 307.54 L 438.30 305.28 L 439.82 303.01 L 441.41 300.73 L 442.98 298.43 L 444.42 296.09 L 445.82 293.80 L 447.24 291.67 L 448.65 289.54 L 451.64 288.21 L 451.27 284.88 L 452.75 282.19 L 451.13 279.75 L 451.32 277.08 L 451.43 274.40 L 451.13 271.82 L 450.76 269.39 L 450.66 267.22 L 450.68 265.15 L 450.58 262.95 L 450.19 260.47 L 449.76 257.79 L 448.86 255.01 L 449.27 252.22 L 449.63 249.65 L 450.14 247.26 L 450.50 245.16 L 450.80 243.17 L 451.12 241.02 L 451.50 238.52 L 451.88 235.82 L 452.23 233.03 L 452.36 230.37 L 453.59 227.97 L 454.05 225.07 L 451.22 223.56 L 449.74 221.85 L 448.02 220.57 L 446.51 219.15 L 444.64 218.28 L 442.60 217.65 L 440.41 217.37 L 437.83 217.92 L 435.16 218.90 L 432.69 220.05 L 430.21 221.04 L 427.55 221.43 L 424.85 221.64 L 422.27 222.04 L 419.90 222.20 L 417.93 221.59 L 415.96 220.96 L 414.30 219.54 L 412.41 217.95 L 410.46 216.10 L 408.40 214.10 L 406.42 212.20 L 404.73 210.67 L 403.16 209.29 L 401.45 207.77 L 399.42 205.93 L 397.34 204.12 L 395.47 202.74 L 393.68 201.54 L 392.25 200.16 L 391.66 198.35 L 391.43 196.37 L 391.00 194.23 L 390.12 191.75 L 389.08 189.11 L 388.15 186.50 L 387.20 183.91 L 386.06 181.39 L 384.77 178.94 L 383.31 176.58 L 381.75 174.30 L 380.15 172.12 L 378.49 169.99 L 376.76 167.92 L 375.01 165.87 L 373.26 163.82 L 371.50 161.81 L 369.73 159.87 L 367.94 157.95 L 366.15 156.04 L 364.35 154.14 L 362.55 152.26 L 360.75 150.39 L 358.95 148.52 L 357.11 146.69 L 355.19 144.95 L 353.19 143.30 L 351.11 141.72 L 348.96 140.23 L 346.75 138.88 L 344.52 137.63 L 342.30 136.47 L 340.12 135.33 L 337.52 135.19 L 335.29 133.67 L 333.63 131.92 L 331.42 130.90 L 329.31 129.74 L 327.26 128.53 L 325.23 127.33 L 323.24 126.16 L 321.30 125.06 L 319.37 124.07 L 317.45 123.28 L 315.69 122.34 L 312.21 122.37 L 312.87 119.01 L 311.27 117.32 L 309.64 115.65 L 308.02 113.97 L 306.37 112.26 L 304.67 110.52 L 302.99 108.75 L 301.37 106.96 L 299.79 105.17 L 298.22 103.38 L 296.68 101.59 L 295.20 99.77 L 293.73 97.98 L 292.24 96.27 L 290.67 94.67 L 289.20 92.98 L 287.52 91.43 L 285.51 90.33 L 283.35 89.72 L 281.31 88.95 L 279.22 88.44 L 277.10 88.25 L 274.96 88.27 L 272.83 88.42 L 270.75 88.77 L 268.76 89.46 L 266.84 90.33 L 264.94 91.24 Z" />
</symbol>
<symbol id="bl1">
<path d="M 38.09 164.31 L 38.83 166.12 L 40.78 166.53 L 41.88 168.20 L 43.08 169.88 L 44.60 171.21 L 46.28 172.40 L 48.04 173.64 L 49.85 174.92 L 51.72 176.26 L 53.63 177.61 L 55.59 178.98 L 57.59 180.33 L 59.63 181.66 L 61.71 182.98 L 63.81 184.29 L 65.93 185.61 L 68.06 186.96 L 70.20 188.33 L 72.35 189.71 L 74.52 191.09 L 76.73 192.48 L 78.96 193.86 L 81.24 195.25 L 83.54 196.63 L 85.86 198.01 L 88.20 199.39 L 90.55 200.79 L 92.91 202.18 L 95.29 203.58 L 97.69 204.98 L 100.11 206.38 L 102.56 207.77 L 105.03 209.15 L 107.52 210.51 L 110.02 211.87 L 112.53 213.22 L 115.06 214.57 L 117.60 215.91 L 120.15 217.25 L 122.72 218.58 L 125.31 219.91 L 127.92 221.22 L 130.54 222.53 L 133.19 223.83 L 135.84 225.12 L 138.52 226.40 L 141.21 227.68 L 143.70 228.85 L 145.72 229.79 L 147.54 230.62 L 149.36 231.46 L 151.20 232.29 L 153.03 233.11 L 154.87 233.93 L 156.72 234.75 L 158.58 235.57 L 160.44 236.38 L 162.31 237.19 L 164.18 237.99 L 166.06 238.79 L 167.94 239.59 L 169.83 240.38 L 171.73 241.17 L 173.63 241.95 L 175.54 242.74 L 177.45 243.51 L 179.37 244.29 L 181.29 245.06 L 183.21 245.82 L 185.15 246.58 L 187.09 247.34 L 189.03 248.09 L 190.97 248.84 L 192.93 249.59 L 194.88 250.33 L 196.85 251.07 L 198.81 251.80 L 200.78 252.53 L 202.76 253.25 L 204.74 253.97 L 206.72 254.69 L 208.71 255.40 L 210.70 256.11 L 212.69 256.81 L 214.69 257.51 L 216.69 258.20 L 218.69 258.89 L 220.70 259.57 L 222.70 260.25 L 224.71 260.92 L 226.73 261.59 L 228.74 262.26 L 230.75 262.92 L 232.77 263.57 L 234.80 264.23 L 236.82 264.87 L 238.84 265.52 L 240.87 266.16 L 242.89 266.79 L 244.92 267.42 L 246.95 268.04 L 248.98 268.66 L 251.01 269.27 L 253.04 269.87 L 255.08 270.47 L 257.11 271.06 L 259.14 271.64 L 261.18 272.22 L 263.21 272.80 L 265.24 273.37 L 267.27 273.93 L 269.30 274.50 L 271.33 275.06 L 273.37 275.62 L 275.40 276.17 L 277.44 276.71 L 279.47 277.27 L 281.50 277.83 L 283.53 278.39 L 285.55 278.96 L 287.56 279.53 L 289.57 280.10 L 291.57 280.67 L 293.56 281.21 L 295.54 281.75 L 297.52 282.28 L 299.48 282.80 L 301.44 283.31 L 303.61 283.87 L 306.29 284.56 L 309.17 285.28 L 312.03 285.94 L 314.83 286.70 L 317.70 287.21 L 320.56 287.84 L 323.45 288.47 L 326.34 289.10 L 329.25 289.74 L 332.15 290.39 L 335.04 291.04 L 337.92 291.68 L 340.78 292.31 L 343.64 292.94 L 346.51 293.53 L 349.39 294.12 L 352.29 294.70 L 355.19 295.28 L 358.08 295.88 L 360.95 296.45 L 363.77 296.94 L 366.56 297.35 L 369.29 297.65 L 371.98 298.01 L 374.59 298.61 L 377.22 299.22 L 379.92 299.60 L 382.65 299.85 L 385.35 300.05 L 388.01 300.26 L 390.59 300.57 L 393.12 300.69 L 395.61 300.29 L 398.11 300.08 L 400.70 300.88 L 403.10 302.27 L 405.04 304.01 L 406.68 305.95 L 408.47 307.68 L 410.33 309.29 L 412.24 310.76 L 413.98 312.31 L 415.27 314.20 L 416.56 316.21 L 418.33 318.21 L 420.53 319.79 L 423.24 320.44 L 425.95 320.44 L 428.13 319.87 L 430.14 319.39 L 432.27 319.74 L 434.51 320.39 L 436.88 320.93 L 439.29 321.37 L 441.67 321.71 L 444.04 321.94 L 446.42 322.06 L 448.77 322.10 L 451.09 322.08 L 453.45 322.08 L 455.98 322.19 L 458.51 322.06 L 461.13 321.82 L 463.07 320.11 L 464.98 318.72 L 466.44 316.93 L 467.02 314.72 L 466.97 312.87 L 466.85 311.27 L 466.87 309.56 L 466.82 307.65 L 466.45 305.42 L 465.78 303.07 L 464.71 300.82 L 463.45 298.56 L 462.14 296.22 L 460.73 293.95 L 459.18 291.93 L 457.75 290.03 L 456.74 288.15 L 455.93 286.20 L 455.18 284.06 L 454.47 281.79 L 453.79 279.40 L 452.98 277.01 L 451.81 274.77 L 450.24 272.94 L 448.06 271.88 L 445.61 271.24 L 443.14 270.81 L 440.74 270.31 L 438.54 269.43 L 436.47 268.36 L 434.50 267.21 L 432.54 265.97 L 430.53 264.63 L 428.43 263.33 L 426.21 262.27 L 424.06 261.18 L 422.07 259.91 L 420.61 258.13 L 419.40 256.12 L 418.90 253.89 L 418.11 251.94 L 417.36 249.92 L 416.71 247.57 L 416.18 245.00 L 415.81 242.29 L 415.49 239.54 L 415.15 236.85 L 414.86 234.22 L 414.68 231.67 L 414.43 229.24 L 413.89 226.96 L 413.12 224.70 L 412.10 222.33 L 411.05 219.90 L 410.19 217.44 L 409.77 214.93 L 410.18 212.33 L 410.88 209.80 L 411.44 207.48 L 411.98 205.24 L 412.58 202.98 L 413.17 200.63 L 413.64 198.09 L 413.86 195.51 L 413.61 192.98 L 412.93 190.51 L 411.71 188.13 L 410.15 185.96 L 408.33 184.19 L 406.57 182.48 L 405.22 180.51 L 404.02 178.42 L 402.75 176.26 L 401.36 174.12 L 399.76 172.05 L 398.06 170.04 L 396.34 168.05 L 394.64 166.05 L 393.00 163.99 L 391.38 161.90 L 389.73 159.82 L 388.05 157.75 L 386.34 155.72 L 384.62 153.71 L 382.90 151.72 L 381.18 149.76 L 379.44 147.83 L 377.68 145.94 L 375.90 144.10 L 374.13 142.27 L 372.40 140.40 L 370.70 138.50 L 369.02 136.54 L 367.32 134.57 L 365.56 132.64 L 363.79 130.76 L 362.02 128.94 L 360.25 127.19 L 358.46 125.50 L 356.69 123.85 L 354.98 122.19 L 353.27 120.57 L 351.53 119.01 L 349.87 117.38 L 348.18 115.59 L 345.85 114.93 L 343.63 113.92 L 341.15 114.11 L 338.81 114.14 L 336.50 114.00 L 334.22 113.78 L 331.95 113.53 L 329.70 113.29 L 327.43 113.07 L 325.16 112.83 L 322.89 112.56 L 320.62 112.19 L 318.38 111.40 L 315.66 111.29 L 313.72 113.35 L 311.57 114.44 L 309.47 115.65 L 307.34 116.83 L 305.19 117.98 L 303.00 119.10 L 300.79 120.21 L 298.58 121.35 L 296.35 122.51 L 294.11 123.67 L 291.85 124.86 L 289.55 126.10 L 287.17 127.31 L 284.66 128.38 L 282.03 129.26 L 279.42 130.54 L 276.50 130.27 L 273.58 130.84 L 270.81 129.76 L 267.94 129.49 L 265.08 129.24 L 262.22 129.07 L 259.36 128.96 L 256.49 128.92 L 253.62 128.89 L 250.73 128.84 L 247.84 128.79 L 244.93 128.75 L 242.02 128.71 L 239.09 128.67 L 236.17 128.64 L 233.24 128.62 L 230.31 128.62 L 227.39 128.62 L 224.46 128.63 L 221.54 128.64 L 218.61 128.66 L 215.70 128.68 L 212.78 128.73 L 209.86 128.79 L 206.94 128.88 L 204.02 128.97 L 201.11 129.08 L 198.20 129.21 L 195.29 129.35 L 192.40 129.51 L 189.50 129.70 L 186.62 129.90 L 183.73 130.13 L 180.85 130.36 L 177.98 130.61 L 175.11 130.88 L 172.25 131.15 L 169.39 131.43 L 166.54 131.72 L 163.69 132.02 L 160.86 132.32 L 158.02 132.64 L 155.20 132.96 L 152.38 133.29 L 149.57 133.63 L 146.77 133.97 L 143.97 134.32 L 141.19 134.67 L 138.41 135.04 L 135.63 135.40 L 132.87 135.78 L 130.12 136.17 L 127.39 136.56 L 124.67 136.97 L 121.96 137.39 L 119.27 137.81 L 116.59 138.24 L 113.92 138.66 L 111.26 139.09 L 108.59 139.52 L 105.94 139.96 L 103.29 140.41 L 100.67 140.88 L 98.07 141.36 L 95.51 141.85 L 92.97 142.36 L 90.47 142.86 L 87.99 143.39 L 85.53 143.91 L 83.10 144.45 L 80.67 145.00 L 78.27 145.56 L 75.87 146.13 L 73.50 146.70 L 71.15 147.28 L 68.81 147.84 L 66.49 148.41 L 64.17 148.99 L 61.87 149.57 L 59.60 150.16 L 57.38 150.73 L 55.22 151.27 L 53.09 151.83 L 50.95 152.46 L 48.86 153.15 L 46.85 153.87 L 44.92 154.46 L 43.06 154.66 L 41.25 154.98 L 39.51 155.98 L 38.10 157.38 L 37.39 159.08 L 37.23 160.87 L 37.47 162.61 Z" />
</symbol>
<symbol id="bl2">
<path d="M 305.84 278.86 L 304.57 280.55 L 303.35 282.24 L 302.22 283.92 L 301.16 285.57 L 300.12 287.15 L 299.11 288.66 L 298.21 290.12 L 297.38 291.50 L 296.56 292.79 L 295.82 294.05 L 295.22 295.31 L 294.81 296.59 L 294.57 297.91 L 294.52 299.27 L 294.65 300.63 L 295.08 301.94 L 295.73 303.20 L 296.40 304.51 L 297.04 305.91 L 297.70 307.39 L 298.42 308.92 L 299.19 310.52 L 300.02 312.16 L 300.97 313.82 L 302.04 315.48 L 303.22 317.13 L 304.50 318.76 L 305.88 320.37 L 307.39 321.94 L 309.01 323.49 L 310.73 324.99 L 312.57 326.46 L 314.52 327.89 L 316.58 329.26 L 318.75 330.59 L 321.02 331.85 L 323.39 333.07 L 325.86 334.23 L 328.41 335.33 L 331.05 336.38 L 333.78 337.37 L 336.58 338.31 L 339.11 339.09 L 340.90 339.60 L 342.38 339.99 L 343.87 340.37 L 345.38 340.73 L 346.90 341.08 L 348.44 341.40 L 349.98 341.68 L 351.54 341.94 L 353.09 342.17 L 354.65 342.39 L 356.21 342.63 L 357.77 342.87 L 359.35 343.09 L 360.95 343.26 L 362.55 343.37 L 364.16 343.47 L 365.78 343.61 L 367.41 343.79 L 369.07 344.01 L 370.73 344.21 L 372.39 344.32 L 374.03 344.37 L 375.63 344.38 L 377.20 344.36 L 378.77 344.30 L 380.34 344.26 L 381.91 344.23 L 383.48 344.22 L 384.96 345.37 L 386.73 345.33 L 388.35 344.62 L 389.94 344.66 L 391.16 343.70 L 392.26 342.38 L 393.44 341.22 L 394.51 340.06 L 395.23 338.69 L 395.83 337.27 L 396.54 335.93 L 397.35 334.62 L 398.29 333.30 L 399.33 331.99 L 400.46 330.73 L 401.53 329.45 L 402.37 328.08 L 403.14 326.67 L 404.03 325.29 L 404.94 323.86 L 405.79 322.26 L 406.64 320.60 L 407.56 318.95 L 408.52 317.30 L 409.50 315.66 L 410.42 314.01 L 411.13 312.32 L 411.74 310.57 L 412.31 308.72 L 412.73 306.73 L 412.85 304.51 L 413.35 302.51 L 415.06 301.22 L 417.19 300.37 L 419.12 299.81 L 420.88 299.19 L 422.45 298.15 L 424.04 297.17 L 425.87 296.70 L 427.77 296.51 L 429.60 296.43 L 431.42 296.32 L 433.28 296.06 L 435.22 295.72 L 437.33 295.37 L 439.47 295.07 L 441.51 294.89 L 443.54 294.77 L 445.61 294.64 L 447.63 294.20 L 449.44 293.03 L 450.91 291.54 L 451.80 290.07 L 453.03 288.89 L 453.86 287.34 L 454.80 285.94 L 454.63 284.18 L 454.30 282.31 L 453.88 280.60 L 453.64 278.91 L 453.06 277.18 L 452.37 275.39 L 451.73 273.51 L 451.02 271.63 L 450.08 269.89 L 449.12 268.20 L 448.37 266.47 L 447.68 264.74 L 446.95 263.01 L 446.15 261.30 L 445.21 259.66 L 444.21 258.04 L 443.22 256.44 L 442.25 254.85 L 441.27 253.26 L 440.34 251.64 L 439.49 249.94 L 438.73 248.18 L 438.13 246.37 L 437.41 244.59 L 436.25 242.94 L 434.97 241.25 L 433.81 239.29 L 432.63 237.34 L 431.30 235.68 L 430.31 233.93 L 430.29 231.68 L 429.75 229.30 L 430.40 226.95 L 430.19 224.73 L 430.14 222.62 L 430.11 220.49 L 429.97 218.20 L 429.76 215.89 L 429.51 213.67 L 429.09 211.49 L 428.34 209.29 L 427.07 207.36 L 425.73 205.51 L 424.31 203.70 L 422.96 201.77 L 421.58 199.85 L 420.07 198.05 L 418.53 196.38 L 417.08 194.90 L 415.74 193.37 L 414.54 191.50 L 413.30 189.46 L 413.66 186.12 L 410.95 184.61 L 408.81 183.63 L 407.26 182.23 L 405.58 181.07 L 403.51 180.61 L 401.26 180.45 L 399.07 180.48 L 397.01 180.98 L 395.00 181.67 L 393.29 182.64 L 392.29 184.26 L 391.59 186.15 L 391.01 188.12 L 390.50 190.21 L 390.09 192.42 L 388.89 194.43 L 387.58 196.52 L 386.96 198.93 L 386.62 201.40 L 386.25 203.68 L 385.78 205.85 L 385.08 207.94 L 384.33 209.98 L 383.68 211.99 L 383.04 213.96 L 382.31 215.84 L 381.53 217.69 L 380.66 219.57 L 379.78 221.51 L 378.95 223.53 L 378.10 225.59 L 377.14 227.60 L 376.01 229.50 L 374.57 231.17 L 373.01 232.74 L 371.50 234.28 L 370.09 235.84 L 368.83 237.49 L 367.54 239.07 L 366.01 240.43 L 364.40 241.75 L 362.87 243.20 L 361.28 244.58 L 359.49 245.63 L 357.59 246.48 L 355.65 247.18 L 353.89 248.18 L 352.02 248.91 L 350.34 249.99 L 348.66 251.01 L 346.96 251.95 L 345.23 252.74 L 343.51 253.43 L 341.84 254.08 L 340.21 254.74 L 338.66 255.47 L 337.18 256.26 L 335.79 257.14 L 334.45 258.02 L 333.14 258.84 L 331.56 259.81 L 329.33 261.11 L 326.79 262.44 L 324.28 263.77 L 321.85 265.15 L 319.56 266.61 L 317.36 268.07 L 315.23 269.45 L 313.16 270.74 L 311.27 272.06 L 309.61 273.58 L 308.45 275.46 L 307.15 277.17 Z" />
</symbol>
<symbol id="bl3">
<path d="M 374.94 75.98 L 372.71 77.31 L 370.35 78.69 L 367.92 80.19 L 365.73 81.64 L 364.18 82.72 L 362.90 83.62 L 361.60 84.56 L 360.28 85.54 L 358.96 86.56 L 357.63 87.61 L 356.30 88.72 L 354.96 89.85 L 353.60 91.01 L 352.24 92.20 L 350.86 93.42 L 349.47 94.66 L 348.08 95.92 L 346.67 97.22 L 345.27 98.54 L 343.87 99.90 L 342.47 101.30 L 341.07 102.74 L 339.66 104.22 L 338.25 105.73 L 336.83 107.26 L 335.45 108.84 L 334.15 110.49 L 332.92 112.20 L 331.76 114.00 L 330.56 115.80 L 329.20 117.51 L 327.82 119.23 L 326.58 121.07 L 325.23 122.85 L 323.75 124.62 L 321.66 125.83 L 319.95 127.51 L 318.20 129.22 L 316.32 130.90 L 314.41 132.61 L 312.55 134.44 L 310.74 136.29 L 309.14 138.23 L 307.25 139.92 L 305.39 141.71 L 303.38 143.44 L 301.14 145.07 L 298.81 146.71 L 296.54 148.48 L 294.38 150.40 L 292.45 152.55 L 290.56 154.78 L 288.53 156.94 L 286.64 158.95 L 285.21 160.66 L 283.97 162.24 L 282.73 163.84 L 281.48 165.48 L 280.22 167.13 L 279.01 168.82 L 277.92 170.63 L 276.87 172.49 L 275.95 174.41 L 275.31 176.46 L 274.79 178.58 L 274.25 180.70 L 273.65 182.81 L 273.03 184.93 L 272.47 187.08 L 272.08 189.31 L 271.75 191.56 L 271.48 193.86 L 271.33 196.25 L 271.23 198.68 L 271.23 201.12 L 271.45 203.54 L 271.77 205.97 L 272.12 208.38 L 272.53 210.75 L 272.96 213.11 L 273.47 215.46 L 274.16 217.80 L 274.92 220.14 L 275.82 222.42 L 277.03 224.56 L 278.37 226.66 L 279.70 228.76 L 281.01 230.86 L 282.31 232.96 L 283.74 234.97 L 285.48 236.75 L 287.34 238.44 L 289.22 240.11 L 291.10 241.74 L 292.98 243.36 L 294.95 244.86 L 297.09 246.11 L 299.30 247.25 L 301.52 248.37 L 303.77 249.45 L 306.02 250.52 L 308.29 251.47 L 310.61 252.17 L 312.94 252.76 L 315.26 253.36 L 317.54 253.97 L 319.81 254.58 L 322.07 255.11 L 324.30 255.46 L 326.52 255.72 L 328.70 256.06 L 330.80 256.56 L 332.86 257.12 L 334.93 257.73 L 337.03 258.39 L 339.14 259.13 L 341.25 259.84 L 343.34 260.54 L 345.41 261.25 L 347.48 261.95 L 349.55 262.63 L 351.61 263.31 L 353.66 264.00 L 355.69 264.71 L 357.71 265.43 L 359.73 266.16 L 361.73 266.88 L 363.73 267.60 L 365.72 268.32 L 367.69 269.02 L 369.66 269.71 L 371.63 270.41 L 373.58 271.10 L 375.52 271.79 L 377.46 272.48 L 379.37 273.17 L 381.28 273.87 L 383.39 274.63 L 385.98 275.55 L 388.76 276.55 L 391.50 277.58 L 394.19 278.64 L 396.81 279.73 L 399.39 280.80 L 401.94 281.83 L 404.48 282.75 L 406.99 283.48 L 409.47 284.13 L 411.86 284.77 L 414.21 285.49 L 416.51 286.38 L 418.78 287.42 L 421.04 288.60 L 423.31 289.72 L 425.60 290.58 L 427.86 291.29 L 430.02 291.93 L 432.13 292.69 L 434.22 293.82 L 436.35 294.86 L 438.56 295.32 L 440.75 295.46 L 442.83 296.12 L 444.96 295.52 L 447.21 294.94 L 449.39 294.24 L 451.15 292.88 L 452.57 291.18 L 453.65 289.39 L 454.54 287.51 L 455.38 285.49 L 456.15 283.39 L 456.80 281.22 L 457.39 279.04 L 457.96 276.94 L 458.48 274.85 L 458.90 272.70 L 459.25 270.50 L 459.50 268.23 L 459.77 265.97 L 460.20 263.78 L 460.74 261.71 L 461.41 259.85 L 462.28 258.05 L 462.71 255.92 L 463.09 253.78 L 462.94 251.69 L 462.75 249.60 L 462.94 247.45 L 463.20 245.29 L 463.28 243.12 L 463.27 240.92 L 463.22 238.69 L 463.15 236.42 L 463.11 234.11 L 463.07 231.79 L 463.05 229.46 L 463.04 227.13 L 463.03 224.81 L 463.03 222.49 L 463.02 220.17 L 463.01 217.84 L 462.99 215.49 L 462.95 213.15 L 462.89 210.79 L 462.81 208.44 L 462.70 206.10 L 462.58 203.76 L 462.44 201.43 L 462.30 199.10 L 462.16 196.78 L 462.01 194.47 L 461.84 192.16 L 461.66 189.86 L 461.46 187.57 L 461.24 185.29 L 461.00 183.02 L 460.75 180.76 L 460.48 178.50 L 460.19 176.25 L 459.88 174.01 L 459.57 171.78 L 459.23 169.56 L 458.88 167.36 L 458.51 165.18 L 458.13 163.01 L 457.73 160.86 L 457.31 158.73 L 456.89 156.61 L 456.45 154.51 L 456.00 152.43 L 455.54 150.36 L 455.07 148.32 L 454.58 146.29 L 454.08 144.28 L 453.57 142.29 L 453.05 140.32 L 452.51 138.37 L 451.96 136.45 L 451.39 134.54 L 450.81 132.66 L 450.22 130.80 L 449.61 128.97 L 448.99 127.15 L 448.35 125.37 L 447.71 123.60 L 447.05 121.86 L 446.37 120.14 L 445.69 118.45 L 444.99 116.79 L 444.28 115.15 L 443.56 113.54 L 442.83 111.95 L 442.08 110.39 L 441.32 108.86 L 440.55 107.36 L 439.77 105.89 L 438.98 104.44 L 438.17 103.02 L 437.36 101.63 L 436.53 100.27 L 435.69 98.94 L 434.84 97.64 L 433.98 96.37 L 433.11 95.13 L 432.02 93.65 L 430.43 91.60 L 428.60 89.40 L 426.73 87.32 L 424.82 85.37 L 422.87 83.56 L 420.90 81.87 L 418.89 80.32 L 416.85 78.89 L 414.78 77.60 L 412.69 76.44 L 410.58 75.42 L 408.45 74.54 L 406.30 73.80 L 404.14 73.19 L 401.97 72.71 L 399.79 72.36 L 397.61 72.13 L 395.43 71.98 L 393.28 71.86 L 391.15 71.75 L 389.05 71.60 L 386.99 71.47 L 384.96 71.53 L 382.95 71.80 L 380.98 72.45 L 379.06 73.48 L 377.06 74.68 Z" />
</symbol>
<symbol id="bl4">
<path d="M 379.18 349.86 L 380.75 351.84 L 382.24 353.81 L 383.50 355.93 L 384.66 358.10 L 385.88 360.27 L 387.14 362.40 L 388.47 364.43 L 389.79 366.42 L 391.06 368.40 L 392.27 370.38 L 393.41 372.36 L 394.52 374.31 L 395.64 376.23 L 396.77 378.11 L 397.89 379.97 L 399.01 381.82 L 400.11 383.65 L 401.21 385.47 L 402.31 387.25 L 403.43 388.99 L 404.57 390.67 L 405.70 392.31 L 406.81 393.91 L 407.90 395.48 L 408.95 397.03 L 409.97 398.56 L 410.98 400.07 L 411.98 401.54 L 412.99 402.96 L 413.99 404.35 L 414.98 405.69 L 415.95 407.00 L 416.90 408.27 L 418.03 409.79 L 419.63 411.86 L 421.38 414.08 L 423.05 416.16 L 424.64 418.06 L 426.15 419.82 L 427.52 421.45 L 428.78 422.95 L 429.90 424.31 L 430.88 425.60 L 431.87 426.73 L 432.92 427.68 L 434.02 428.41 L 435.10 428.94 L 436.14 429.33 L 437.16 429.60 L 438.22 429.80 L 439.33 429.88 L 440.45 429.82 L 441.53 429.65 L 442.55 429.35 L 443.53 428.83 L 444.54 428.17 L 445.53 427.37 L 446.50 426.42 L 447.38 425.25 L 448.10 423.88 L 448.65 422.33 L 449.18 420.64 L 449.78 418.82 L 450.47 416.87 L 451.26 414.78 L 452.12 412.54 L 453.04 410.16 L 453.99 407.63 L 454.96 404.95 L 455.81 402.47 L 456.40 400.67 L 456.87 399.18 L 457.33 397.65 L 457.79 396.08 L 458.24 394.48 L 458.68 392.86 L 459.12 391.20 L 459.55 389.51 L 459.97 387.79 L 460.39 386.04 L 460.80 384.26 L 461.22 382.45 L 461.63 380.61 L 462.04 378.74 L 462.44 376.85 L 462.83 374.93 L 463.20 372.98 L 463.57 371.01 L 463.91 369.02 L 464.26 367.02 L 464.60 365.00 L 464.94 362.96 L 465.27 360.90 L 465.59 358.82 L 465.90 356.71 L 466.20 354.57 L 466.51 352.40 L 466.82 350.20 L 467.17 347.94 L 467.56 345.65 L 468.02 343.32 L 468.46 340.96 L 468.78 338.59 L 468.95 336.22 L 468.91 333.91 L 468.88 331.62 L 469.11 329.35 L 469.42 327.02 L 469.67 324.56 L 469.86 322.05 L 469.99 319.58 L 470.18 317.12 L 470.58 314.60 L 471.08 311.99 L 471.64 309.19 L 471.67 306.49 L 470.46 304.21 L 468.65 302.24 L 466.68 300.54 L 464.77 298.81 L 463.16 296.73 L 461.76 294.44 L 460.56 292.06 L 459.65 289.71 L 459.24 287.53 L 458.91 285.37 L 457.81 283.30 L 456.63 280.88 L 456.66 278.34 L 455.56 276.02 L 454.42 273.82 L 453.45 271.87 L 452.55 270.01 L 451.30 268.19 L 449.23 266.44 L 446.90 265.11 L 444.76 264.70 L 442.70 264.69 L 440.70 264.98 L 438.83 265.99 L 437.02 267.30 L 435.33 268.71 L 433.91 270.32 L 432.62 272.03 L 431.23 273.84 L 429.63 275.90 L 427.82 277.94 L 425.73 279.68 L 423.50 281.25 L 421.18 282.75 L 418.87 284.38 L 416.21 285.58 L 413.61 286.91 L 411.10 288.16 L 408.62 289.33 L 406.11 290.38 L 403.62 291.53 L 401.20 292.99 L 398.74 294.52 L 396.13 295.90 L 393.71 297.20 L 391.87 298.47 L 389.75 298.99 L 388.23 300.77 L 386.44 302.89 L 385.21 305.46 L 383.75 307.84 L 382.43 310.08 L 381.18 311.89 L 379.98 313.51 L 378.77 315.31 L 377.58 317.52 L 376.55 319.80 L 375.91 321.86 L 375.43 323.81 L 374.79 325.87 L 373.56 328.09 L 372.84 330.64 L 372.24 333.20 L 372.57 335.82 L 372.47 338.61 L 373.87 340.97 L 375.32 343.04 L 376.29 345.45 L 377.64 347.72 Z" />
</symbol>
<symbol id="bl5">
<path d="M 442.77 252.61 L 442.70 255.07 L 442.29 257.30 L 442.06 259.23 L 441.64 260.92 L 440.66 262.41 L 439.45 263.74 L 438.27 264.89 L 436.93 266.12 L 435.13 267.75 L 433.43 269.50 L 432.52 271.05 L 431.59 272.57 L 430.16 274.58 L 428.69 276.71 L 427.71 278.95 L 427.28 281.40 L 427.41 283.97 L 427.84 286.50 L 428.49 288.92 L 429.54 291.22 L 430.94 293.23 L 432.40 294.98 L 434.00 296.57 L 435.84 298.01 L 437.93 299.04 L 440.11 299.50 L 442.40 299.57 L 444.83 299.09 L 447.08 298.62 L 449.10 298.42 L 450.92 297.81 L 452.55 296.77 L 454.22 295.93 L 455.90 295.49 L 457.43 295.15 L 458.87 294.68 L 460.40 294.11 L 462.10 293.73 L 463.83 293.72 L 465.40 293.81 L 466.70 293.71 L 467.72 293.33 L 468.85 292.68 L 469.90 291.76 L 470.77 290.56 L 471.88 289.37 L 473.23 288.06 L 475.21 286.36 L 476.68 284.70 L 477.83 282.79 L 479.02 280.93 L 479.67 278.96 L 479.91 276.68 L 480.50 274.20 L 481.61 271.81 L 483.07 269.65 L 484.37 267.54 L 485.03 265.28 L 485.40 262.96 L 486.00 260.69 L 486.56 258.40 L 487.04 256.07 L 487.00 253.42 L 487.16 250.76 L 486.51 248.80 L 486.15 247.10 L 485.42 245.55 L 484.46 244.14 L 483.38 242.90 L 481.82 241.88 L 479.42 241.20 L 477.06 240.81 L 475.32 240.66 L 473.80 240.66 L 472.26 240.86 L 470.72 241.22 L 469.20 241.77 L 467.72 242.51 L 466.34 243.49 L 464.66 244.37 L 462.19 244.64 L 459.71 244.34 L 457.92 243.79 L 456.33 243.25 L 454.57 242.85 L 452.77 242.70 L 451.05 242.99 L 449.35 243.58 L 447.62 244.38 L 446.07 245.51 L 444.96 247.19 L 444.14 249.05 L 443.32 250.74 Z" />
</symbol>
<symbol id="bl6">
<path d="M 427.91 337.27 L 428.23 339.38 L 428.98 341.43 L 429.71 343.21 L 430.58 344.71 L 431.79 345.79 L 433.10 346.77 L 434.31 347.95 L 435.48 349.19 L 436.66 350.36 L 438.20 351.39 L 440.31 351.83 L 442.11 351.42 L 443.62 350.68 L 445.11 349.91 L 446.50 349.00 L 447.67 347.78 L 448.82 346.58 L 450.42 345.86 L 451.24 344.34 L 452.02 342.73 L 452.83 341.18 L 453.23 339.53 L 453.74 337.86 L 453.75 336.15 L 453.36 334.47 L 453.16 332.61 L 452.35 330.79 L 451.51 328.85 L 449.83 327.62 L 448.55 326.35 L 447.09 325.21 L 445.66 324.17 L 444.53 322.73 L 443.57 321.43 L 442.79 320.07 L 441.95 318.64 L 441.29 317.11 L 441.04 315.45 L 441.11 313.54 L 440.87 311.28 L 441.44 309.26 L 441.71 307.26 L 442.80 305.32 L 443.90 303.39 L 445.28 301.95 L 446.75 300.78 L 448.15 299.57 L 449.66 298.54 L 451.25 297.76 L 452.97 297.17 L 454.88 296.78 L 456.83 296.64 L 458.68 296.91 L 460.55 296.62 L 462.23 296.79 L 463.64 297.68 L 465.29 298.22 L 466.54 299.61 L 468.03 300.76 L 469.29 302.28 L 470.21 303.69 L 471.82 306.08 L 472.35 307.39 L 473.28 308.80 L 474.69 309.85 L 476.29 310.70 L 477.84 311.49 L 479.42 312.18 L 481.13 312.70 L 482.92 312.91 L 484.74 312.56 L 486.57 312.17 L 488.47 312.19 L 489.96 311.17 L 491.50 310.65 L 492.63 309.53 L 494.03 308.85 L 495.46 308.12 L 496.88 307.14 L 498.08 305.92 L 498.79 304.43 L 499.21 302.71 L 499.45 300.78 L 499.48 298.76 L 499.19 296.76 L 498.94 294.82 L 498.60 293.03 L 497.99 291.37 L 497.15 289.72 L 496.21 288.12 L 495.01 286.75 L 493.72 285.42 L 492.18 284.39 L 490.69 283.33 L 489.09 282.36 L 487.51 281.44 L 486.06 280.51 L 484.76 279.42 L 483.64 277.94 L 482.52 276.36 L 481.21 274.91 L 479.95 273.41 L 478.99 271.66 L 477.85 269.87 L 476.04 268.23 L 473.85 266.97 L 471.48 266.45 L 469.24 265.26 L 466.89 265.71 L 464.82 265.57 L 462.92 266.35 L 461.05 267.21 L 459.31 267.79 L 457.42 267.94 L 455.28 267.79 L 453.09 267.71 L 451.02 267.42 L 449.17 266.72 L 447.36 266.02 L 445.52 265.25 L 443.48 264.61 L 441.37 264.37 L 439.27 264.92 L 437.36 266.12 L 435.31 267.23 L 433.32 268.21 L 431.59 269.38 L 430.18 270.67 L 429.35 272.27 L 428.70 274.02 L 427.86 275.78 L 427.01 277.56 L 426.68 279.45 L 426.28 281.31 L 426.23 283.09 L 426.13 284.89 L 426.29 286.89 L 426.73 288.97 L 427.54 291.03 L 428.68 292.88 L 430.24 294.29 L 432.02 295.61 L 434.02 296.97 L 435.75 298.69 L 437.50 300.14 L 438.95 301.66 L 439.80 303.49 L 440.39 305.66 L 440.69 308.12 L 440.44 310.32 L 440.16 312.29 L 439.70 314.23 L 439.51 316.45 L 438.43 318.44 L 436.99 320.05 L 436.00 322.14 L 434.59 324.50 L 432.97 326.65 L 431.49 328.11 L 430.52 329.68 L 429.07 331.06 L 428.82 333.13 L 428.12 335.14 Z" />
</symbol>
<symbol id="bl7">
<path d="M 18.58 139.22 L 16.77 139.46 L 14.94 139.80 L 13.10 139.80 L 11.34 139.95 L 9.80 140.77 L 8.37 141.82 L 6.98 142.75 L 5.66 143.66 L 4.49 144.66 L 3.40 145.76 L 2.36 146.99 L 1.19 148.57 L -0.08 150.86 L -0.90 153.60 L -1.14 156.46 L -0.94 159.28 L -0.64 161.79 L -0.52 163.60 L -0.06 165.30 L 1.03 167.24 L 1.86 168.88 L 2.58 170.18 L 3.69 171.20 L 4.93 172.13 L 6.08 173.13 L 7.25 174.14 L 8.54 175.08 L 9.94 175.92 L 11.49 176.59 L 13.13 177.10 L 14.87 177.45 L 16.65 177.62 L 18.45 177.57 L 20.26 177.44 L 22.09 177.19 L 23.92 176.95 L 25.76 176.72 L 27.62 176.52 L 29.52 176.38 L 31.45 176.25 L 33.41 176.11 L 35.39 175.94 L 37.41 175.78 L 39.48 175.59 L 41.62 175.36 L 43.79 175.07 L 45.94 174.68 L 48.03 174.10 L 50.08 173.37 L 51.88 172.07 L 53.71 170.68 L 55.38 169.04 L 56.71 167.04 L 57.59 164.81 L 57.73 162.42 L 57.44 159.95 L 57.13 157.40 L 56.01 155.08 L 55.33 152.44 L 53.08 150.93 L 51.23 149.33 L 49.33 147.97 L 47.25 147.08 L 45.10 146.51 L 42.93 146.19 L 40.79 145.97 L 38.72 145.70 L 36.71 145.31 L 34.77 144.71 L 32.88 144.00 L 31.05 143.26 L 29.24 142.51 L 27.44 141.80 L 25.66 141.14 L 23.95 140.44 L 22.14 140.09 L 20.37 139.54 Z" />
</symbol>
</defs>
<!-- isDone: 0 -->
<rect width="700" height="500" style="fill:#fff;stroke-width:0" />
<use class="p0 borderLine" xlink:href="#bl0"/>
<use class="p1 borderLine" xlink:href="#bl1"/>
<use class="p2 borderLine" xlink:href="#bl2"/>
<use class="p3 borderLine" xlink:href="#bl3"/>
<use class="p4 borderLine" xlink:href="#bl4"/>
<use class="p5 borderLine" xlink:href="#bl5"/>
<use class="p6 borderLine" xlink:href="#bl6"/>
<use class="p7 borderLine" xlink:href="#bl7"/>
<use class="q0 outLine" xlink:href="#bl0"/>
<use class="q1 outLine" xlink:href="#bl1"/>
<use class="q2 outLine" xlink:href="#bl2"/>
<use class="q3 outLine" xlink:href="#bl3"/>
<use class="q4 outLine" xlink:href="#bl4"/>
<use class="q5 outLine" xlink:href="#bl5"/>
<use class="q6 outLine" xlink:href="#bl6"/>
<use class="q7 outLine" xlink:href="#bl7"/>
<circle onclick="fromCircle(1)" class="circle" cx="275.7199" cy="108.5720" r="18.9778" />
<text class="tLabel" x="275.72" y="88.57"></text>
<text class="nLabel" x="275.72" y="103.57">40</text>
<text class="belong" x="275.72" y="113.57">(1)</text>
<circle onclick="fromCircle(3)" class="circle" cx="302.4823" cy="132.4656" r="3.4616" />
<text class="tLabel" x="302.48" y="112.47"></text>
<text class="nLabel" x="302.48" y="127.47">1</text>
<text class="belong" x="302.48" y="137.47">(1, 2)</text>
<circle onclick="fromCircle(7)" class="circle" cx="335.0810" cy="266.8428" r="3.4616" />
<text class="tLabel" x="335.08" y="246.84"></text>
<text class="nLabel" x="335.08" y="261.84">1</text>
<text class="belong" x="335.08" y="271.84">(1, 2, 3)</text>
<circle onclick="fromCircle(15)" class="circle" cx="413.5425" cy="274.8692" r="4.2436" />
<text class="tLabel" x="413.54" y="254.87"></text>
<text class="nLabel" x="413.54" y="269.87">2</text>
<text class="belong" x="413.54" y="279.87">(1, 2, 3, 4)</text>
<circle onclick="fromCircle(127)" class="spcircle" cx="442.7526" cy="283.0454" r="7.3501" />
<text class="tLabel" x="442.75" y="263.05"></text>
<text class="nLabel" x="442.75" y="278.05">6</text>
<text class="belong" x="442.75" y="288.05">(1, 2, 3, 4, 5, 6, 7)</text>
<circle onclick="fromCircle(2)" class="circle" cx="317.8490" cy="117.9145" r="3.4616" />
<text class="tLabel" x="317.85" y="97.91"></text>
<text class="nLabel" x="317.85" y="112.91">1</text>
<text class="belong" x="317.85" y="122.91">(2)</text>
<circle onclick="fromCircle(6)" class="circle" cx="317.0956" cy="279.1417" r="5.1973" />
<text class="tLabel" x="317.10" y="259.14"></text>
<text class="nLabel" x="317.10" y="274.14">3</text>
<text class="belong" x="317.10" y="284.14">(2, 3)</text>
<circle onclick="fromCircle(14)" class="circle" cx="401.9982" cy="193.3664" r="7.9390" />
<text class="tLabel" x="402.00" y="173.37"></text>
<text class="nLabel" x="402.00" y="188.37">7</text>
<text class="belong" x="402.00" y="198.37">(2, 3, 4)</text>
<circle onclick="fromCircle(10)" class="circle" cx="342.0479" cy="125.3012" r="8.4871" />
<text class="tLabel" x="342.05" y="105.30"></text>
<text class="nLabel" x="342.05" y="120.30">8</text>
<text class="belong" x="342.05" y="130.30">(2, 4)</text>
<circle onclick="fromCircle(18)" class="circle" cx="456.8699" cy="312.8448" r="6.7097" />
<text class="tLabel" x="456.87" y="292.84"></text>
<text class="nLabel" x="456.87" y="307.84">5</text>
<text class="belong" x="456.87" y="317.84">(2, 5)</text>
<circle onclick="fromCircle(130)" class="circle" cx="43.3759" cy="160.9147" r="3.4616" />
<text class="tLabel" x="43.38" y="140.91"></text>
<text class="nLabel" x="43.38" y="155.91">1</text>
<text class="belong" x="43.38" y="165.91">(2, 8)</text>
<circle onclick="fromCircle(4)" class="circle" cx="303.9383" cy="298.4844" r="5.1973" />
<text class="tLabel" x="303.94" y="278.48"></text>
<text class="nLabel" x="303.94" y="293.48">3</text>
<text class="belong" x="303.94" y="303.48">(3)</text>
<circle onclick="fromCircle(5)" class="spcircle" cx="370.3032" cy="306.1674" r="5.1973" />
<text class="tLabel" x="370.30" y="286.17"></text>
<text class="nLabel" x="370.30" y="301.17">3</text>
<text class="belong" x="370.30" y="311.17">(1, 3)</text>
<circle onclick="fromCircle(13)" class="circle" cx="428.1262" cy="252.6490" r="6.7097" />
<text class="tLabel" x="428.13" y="232.65"></text>
<text class="nLabel" x="428.13" y="247.65">5</text>
<text class="belong" x="428.13" y="257.65">(1, 3, 4)</text>
<circle onclick="fromCircle(12)" class="circle" cx="419.2813" cy="214.1651" r="6.0013" />
<text class="tLabel" x="419.28" y="194.17"></text>
<text class="nLabel" x="419.28" y="209.17">4</text>
<text class="belong" x="419.28" y="219.17">(3, 4)</text>
<circle onclick="fromCircle(20)" class="circle" cx="385.7936" cy="333.8556" r="6.7097" />
<text class="tLabel" x="385.79" y="313.86"></text>
<text class="nLabel" x="385.79" y="328.86">5</text>
<text class="belong" x="385.79" y="338.86">(3, 5)</text>
<circle onclick="fromCircle(21)" class="circle" cx="397.8649" cy="310.3919" r="6.7097" />
<text class="tLabel" x="397.86" y="290.39"></text>
<text class="nLabel" x="397.86" y="305.39">5</text>
<text class="belong" x="397.86" y="315.39">(1, 3, 5)</text>
<circle onclick="fromCircle(8)" class="circle" cx="384.8428" cy="80.3866" r="3.4616" />
<text class="tLabel" x="384.84" y="60.39"></text>
<text class="nLabel" x="384.84" y="75.39">1</text>
<text class="belong" x="384.84" y="85.39">(4)</text>
<circle onclick="fromCircle(9)" class="circle" cx="442.2113" cy="228.7955" r="7.9390" />
<text class="tLabel" x="442.21" y="208.80"></text>
<text class="nLabel" x="442.21" y="223.80">7</text>
<text class="belong" x="442.21" y="233.80">(1, 4)</text>
<circle onclick="fromCircle(11)" class="circle" cx="328.8810" cy="197.6627" r="51.9727" />
<text class="tLabel" x="328.88" y="177.66"></text>
<text class="nLabel" x="328.88" y="192.66">300</text>
<text class="belong" x="328.88" y="202.66">(1, 2, 4)</text>
<circle onclick="fromCircle(40)" class="circle" cx="454.0344" cy="255.0293" r="3.4616" />
<text class="tLabel" x="454.03" y="235.03"></text>
<text class="nLabel" x="454.03" y="250.03">1</text>
<text class="belong" x="454.03" y="260.03">(4, 6)</text>
<circle onclick="fromCircle(16)" class="circle" cx="438.8362" cy="419.6135" r="3.4616" />
<text class="tLabel" x="438.84" y="399.61"></text>
<text class="nLabel" x="438.84" y="414.61">1</text>
<text class="belong" x="438.84" y="424.61">(5)</text>
<circle onclick="fromCircle(17)" class="circle" cx="412.2578" cy="333.4472" r="6.7097" />
<text class="tLabel" x="412.26" y="313.45"></text>
<text class="nLabel" x="412.26" y="328.45">5</text>
<text class="belong" x="412.26" y="338.45">(1, 5)</text>
<circle onclick="fromCircle(19)" class="circle" cx="424.5043" cy="309.9014" r="6.7097" />
<text class="tLabel" x="424.50" y="289.90"></text>
<text class="nLabel" x="424.50" y="304.90">5</text>
<text class="belong" x="424.50" y="314.90">(1, 2, 5)</text>
<circle onclick="fromCircle(80)" class="circle" cx="440.9540" cy="336.6943" r="3.4616" />
<text class="tLabel" x="440.95" y="316.69"></text>
<text class="nLabel" x="440.95" y="331.69">1</text>
<text class="belong" x="440.95" y="341.69">(5, 7)</text>
<circle onclick="fromCircle(32)" class="circle" cx="474.6396" cy="253.1288" r="4.2436" />
<text class="tLabel" x="474.64" y="233.13"></text>
<text class="nLabel" x="474.64" y="248.13">2</text>
<text class="belong" x="474.64" y="258.13">(6)</text>
<circle onclick="fromCircle(96)" class="circle" cx="466.5494" cy="278.6127" r="3.4616" />
<text class="tLabel" x="466.55" y="258.61"></text>
<text class="nLabel" x="466.55" y="273.61">1</text>
<text class="belong" x="466.55" y="283.61">(6, 7)</text>
<circle onclick="fromCircle(64)" class="circle" cx="483.9987" cy="297.1140" r="6.0013" />
<text class="tLabel" x="484.00" y="277.11"></text>
<text class="nLabel" x="484.00" y="292.11">4</text>
<text class="belong" x="484.00" y="302.11">(7)</text>
<circle onclick="fromCircle(128)" class="circle" cx="18.4871" cy="158.6224" r="8.4871" />
<text class="tLabel" x="18.49" y="138.62"></text>
<text class="nLabel" x="18.49" y="153.62">8</text>
<text class="belong" x="18.49" y="163.62">(8)</text>
<rect class="p0 borderLine" x="500.00" y="50.00" width="30.00" height="15.00" />
<rect class="q0" x="500.00" y="50.00" width="30.00" height="15.00" />
<text class="legend" x="540.00" y="65.00">Ball2017</text>
<rect class="p1 borderLine" x="500.00" y="90.00" width="30.00" height="15.00" />
<rect class="q1" x="500.00" y="90.00" width="30.00" height="15.00" />
<text class="legend" x="540.00" y="105.00">Courtois2015</text>
<rect class="p2 borderLine" x="500.00" y="130.00" width="30.00" height="15.00" />
<rect class="q2" x="500.00" y="130.00" width="30.00" height="15.00" />
<text class="legend" x="540.00" y="145.00">Hilton2017</text>
<rect class="p3 borderLine" x="500.00" y="170.00" width="30.00" height="15.00" />
<rect class="q3" x="500.00" y="170.00" width="30.00" height="15.00" />
<text class="legend" x="540.00" y="185.00">Ball2017</text>
<rect class="p4 borderLine" x="500.00" y="210.00" width="30.00" height="15.00" />
<rect class="q4" x="500.00" y="210.00" width="30.00" height="15.00" />
<text class="legend" x="540.00" y="225.00">Courtois2015</text>
<rect class="p5 borderLine" x="500.00" y="250.00" width="30.00" height="15.00" />
<rect class="q5" x="500.00" y="250.00" width="30.00" height="15.00" />
<text class="legend" x="540.00" y="265.00">Hilton2017</text>
<rect class="p6 borderLine" x="500.00" y="290.00" width="30.00" height="15.00" />
<rect class="q6" x="500.00" y="290.00" width="30.00" height="15.00" />
<text class="legend" x="540.00" y="305.00">Courtois2015</text>
<rect class="p7 borderLine" x="500.00" y="330.00" width="30.00" height="15.00" />
<rect class="q7" x="500.00" y="330.00" width="30.00" height="15.00" />
<text class="legend" x="540.00" y="345.00">Hilton2017</text>
</svg>
