<svg xmlns="http://www.w3.org/2000/svg" xmlns:xlink="http://www.w3.org/1999/xlink" width="700" height="500">
<defs>
<style type="text/css"><![CDATA[
  .borderLine {
	   stroke: none;
	   fill-opacity: 0.4;
  }
  .outLine {
	   stroke-width: 1;
	   fill: none;
  }
  .circle {
	   stroke: #888888;
	   stroke-width: 0.5;
	   fill: none;
    pointer-events: all;
  }
  .spcircle {
	   stroke: #FF2222;
	   stroke-width: 1;
	   fill: none;
    pointer-events: all;
  }
  .tLabel {
	   font-family: Arial;
    pointer-events: none;
	   font-size: 14px;
	   text-anchor: middle;
	   alignment-baseline: central;
  }
  .nLabel {
	   font-family: Arial;
    pointer-events: none;
	   font-size: 10px;
	   text-anchor: middle;
	   alignment-baseline: central;
  }
  .belong {
	   font-family: Arial;
    pointer-events: none;
	   font-size: 5px;
	   text-anchor: middle;
	   alignment-baseline: central;
  }
  .p0{
    stroke: none;
    fill: #e6194b;
  }
  .q0{
    fill: none;
    stroke: #e6194b;
  }
  .p1{
    stroke: none;
    fill: #3cb44b;
  }
  .q1{
    fill: none;
    stroke: #3cb44b;
  }
  .p2{
    stroke: none;
    fill: #ffe119;
  }
  .q2{
    fill: none;
    stroke: #ffe119;
  }
  .p3{
    stroke: none;
    fill: #0082c8;
  }
  .q3{
    fill: none;
    stroke: #0082c8;
  }
  .p4{
    stroke: none;
    fill: #f58231;
  }
  .q4{
    fill: none;
    stroke: #f58231;
  }
  .p5{
    stroke: none;
    fill: #911eb4;
  }
  .q5{
    fill: none;
    stroke: #911eb4;
  }
  .p6{
    stroke: none;
    fill: #46f0f0;
  }
  .q6{
    fill: none;
    stroke: #46f0f0;
  }
  .p7{
    stroke: none;
    fill: #f032e6;
  }
  .q7{
    fill: none;
    stroke: #f032e6;
  }
]]>
</style>
<symbol id="bl0">
<path d="M 136.22 152.10 L 135.73 151.69 L 133.09 146.70 L 129.71 141.52 L 125.66 136.83 L 121.17 132.82 L 116.59 129.53 L 111.16 127.34 L 105.44 125.74 L 99.64 124.89 L 94.15 124.85 L 89.80 125.16 L 87.96 125.57 L 83.17 127.46 L 77.32 130.52 L 71.46 134.95 L 66.32 139.62 L 61.81 145.03 L 58.61 150.69 L 56.09 155.96 L 54.27 160.83 L 54.46 166.09 L 55.29 171.88 L 56.80 178.27 L 59.20 184.65 L 62.51 190.81 L 66.51 196.37 L 71.06 200.78 L 75.56 203.96 L 80.14 206.08 L 85.93 207.07 L 92.84 207.18 L 100.66 206.46 L 108.22 205.39 L 115.39 203.16 L 121.99 199.73 L 126.99 196.48 L 128.95 196.85 L 130.41 197.57 L 133.11 199.50 L 136.50 202.09 L 140.33 205.11 L 143.92 208.28 L 146.45 211.63 L 147.60 215.57 L 150.08 218.71 L 153.95 219.85 L 157.97 219.59 L 161.81 220.80 L 165.93 223.06 L 170.19 225.65 L 174.45 228.28 L 178.72 230.90 L 182.99 233.53 L 187.26 236.15 L 191.51 238.73 L 195.54 240.86 L 199.10 241.52 L 202.91 239.61 L 208.07 237.72 L 213.90 237.50 L 218.41 238.40 L 220.56 239.50 L 224.36 242.55 L 227.81 247.47 L 229.49 253.51 L 229.50 258.53 L 229.10 260.16 L 230.19 261.97 L 233.47 264.43 L 237.73 267.16 L 242.23 269.93 L 246.74 272.71 L 251.25 275.47 L 255.80 278.06 L 260.66 279.93 L 265.65 282.65 L 270.31 285.43 L 274.32 288.91 L 278.29 292.10 L 282.80 294.87 L 287.31 297.64 L 291.76 300.41 L 295.85 303.19 L 299.06 306.17 L 301.92 310.02 L 303.66 314.58 L 305.89 318.70 L 309.73 321.23 L 314.28 321.99 L 318.45 320.26 L 321.37 316.83 L 322.21 312.22 L 322.76 307.51 L 325.15 303.72 L 328.78 300.12 L 332.78 296.50 L 336.83 292.88 L 340.87 289.26 L 344.92 285.64 L 348.96 282.02 L 353.01 278.40 L 357.05 274.79 L 361.10 271.17 L 365.14 267.55 L 369.19 263.93 L 373.23 260.31 L 377.28 256.69 L 381.32 253.07 L 385.37 249.46 L 389.42 245.84 L 393.40 242.33 L 397.06 239.50 L 400.24 238.84 L 404.96 240.94 L 410.76 242.53 L 415.56 242.52 L 418.05 241.92 L 421.52 240.13 L 425.05 237.22 L 427.75 233.54 L 429.34 230.00 L 429.75 227.47 L 429.38 222.57 L 427.42 216.75 L 423.49 211.97 L 418.22 208.28 L 411.98 206.63 L 406.54 207.06 L 404.23 205.75 L 402.30 202.01 L 400.22 197.39 L 398.10 192.59 L 395.98 187.78 L 393.87 182.98 L 391.75 178.17 L 389.63 173.36 L 387.52 168.55 L 385.40 163.74 L 383.28 158.93 L 381.17 154.12 L 379.05 149.32 L 376.93 144.51 L 374.82 139.70 L 372.85 134.93 L 372.21 130.62 L 371.86 126.16 L 372.11 122.44 L 373.86 118.97 L 375.07 115.30 L 374.54 111.39 L 372.93 107.67 L 370.52 104.65 L 366.96 103.08 L 362.90 102.43 L 359.01 102.72 L 355.93 104.36 L 353.03 105.21 L 348.87 106.65 L 344.04 108.13 L 339.99 109.49 L 336.04 109.94 L 331.32 109.53 L 326.36 108.85 L 321.40 108.17 L 316.61 107.48 L 312.76 106.49 L 311.42 104.16 L 309.11 98.75 L 304.42 94.28 L 298.96 91.64 L 293.12 91.27 L 287.67 93.20 L 283.40 96.96 L 280.92 102.12 L 279.43 106.99 L 276.75 109.39 L 272.52 110.98 L 267.73 112.45 L 262.85 113.93 L 257.97 115.41 L 253.10 116.88 L 248.23 118.37 L 243.53 119.98 L 239.34 122.09 L 235.93 125.10 L 232.52 127.49 L 228.78 128.77 L 224.95 128.94 L 221.23 128.34 L 217.06 128.26 L 212.38 129.26 L 207.51 130.68 L 202.63 132.15 L 197.75 133.63 L 192.87 135.11 L 187.99 136.59 L 183.11 138.06 L 178.29 139.42 L 173.71 140.35 L 169.65 140.29 L 166.62 138.62 L 163.57 136.87 L 160.06 136.23 L 156.54 136.70 L 153.53 138.51 L 151.27 141.22 L 150.06 144.58 L 148.53 147.72 L 145.22 149.77 L 141.31 151.17 L 138.47 151.90 L 137.36 151.91 Z" />
</symbol>
<symbol id="bl1">
<path d="M 17.95 464.30 L 14.06 465.40 L 10.67 468.41 L 10.00 472.91 L 12.35 476.74 L 16.64 478.13 L 20.90 476.41 L 23.01 472.43 L 23.51 468.52 L 26.15 465.55 L 30.19 462.63 L 34.69 459.63 L 39.24 456.63 L 43.80 453.64 L 48.35 450.64 L 52.91 447.64 L 57.46 444.64 L 62.02 441.64 L 66.57 438.64 L 71.13 435.65 L 75.69 432.65 L 80.24 429.65 L 84.80 426.65 L 89.35 423.65 L 93.91 420.66 L 98.46 417.66 L 103.02 414.66 L 107.57 411.66 L 112.13 408.66 L 116.68 405.67 L 121.24 402.67 L 125.80 399.67 L 130.35 396.67 L 134.91 393.67 L 139.46 390.68 L 144.02 387.68 L 148.57 384.68 L 153.13 381.68 L 157.68 378.68 L 162.24 375.68 L 166.79 372.69 L 171.35 369.69 L 175.91 366.69 L 180.46 363.69 L 185.02 360.69 L 189.57 357.70 L 194.13 354.70 L 198.68 351.70 L 203.24 348.70 L 207.79 345.70 L 212.35 342.71 L 216.90 339.71 L 221.46 336.71 L 226.01 333.71 L 230.57 330.72 L 235.13 327.92 L 239.64 325.79 L 244.26 324.87 L 248.52 323.41 L 251.85 320.33 L 254.84 316.62 L 258.22 313.12 L 262.24 310.01 L 267.09 308.24 L 272.32 305.58 L 276.51 301.53 L 280.00 298.19 L 284.46 295.25 L 288.84 292.29 L 292.69 289.05 L 296.44 284.65 L 301.56 281.43 L 306.82 279.81 L 311.28 277.52 L 315.74 274.66 L 320.21 271.72 L 324.68 268.78 L 329.07 265.92 L 333.00 263.63 L 335.90 263.21 L 339.45 265.36 L 343.91 267.45 L 348.82 267.99 L 353.66 266.87 L 357.83 264.25 L 360.83 260.57 L 362.54 256.10 L 362.69 251.20 L 361.30 246.65 L 358.49 242.75 L 354.70 239.95 L 351.39 237.84 L 350.44 234.56 L 350.69 229.75 L 351.20 224.36 L 351.73 218.87 L 352.27 213.38 L 352.80 208.02 L 353.50 203.38 L 355.16 200.66 L 359.41 199.41 L 364.29 197.15 L 368.28 193.57 L 370.69 188.65 L 371.51 183.15 L 370.60 177.84 L 367.85 173.23 L 363.72 169.77 L 358.78 167.87 L 353.45 167.45 L 348.42 168.62 L 344.38 170.10 L 341.61 169.15 L 338.32 166.18 L 334.72 162.55 L 331.06 158.82 L 327.41 155.09 L 323.75 151.39 L 320.10 148.06 L 316.44 146.25 L 312.82 147.88 L 309.20 151.03 L 305.58 154.56 L 302.02 158.08 L 299.02 161.32 L 297.91 164.03 L 299.79 168.17 L 300.70 174.01 L 299.41 180.05 L 296.76 184.71 L 292.33 187.75 L 285.92 189.20 L 279.53 188.29 L 274.53 185.10 L 270.99 179.72 L 270.06 173.13 L 271.96 166.54 L 275.43 162.32 L 280.47 159.51 L 286.70 158.57 L 292.61 160.13 L 296.14 162.00 L 298.71 160.96 L 301.99 158.04 L 305.58 154.56 L 309.18 151.01 L 312.41 147.46 L 314.15 143.91 L 312.54 140.35 L 309.44 136.79 L 305.98 133.23 L 302.49 129.67 L 298.99 126.16 L 295.34 122.99 L 291.15 120.77 L 286.76 118.00 L 283.22 114.69 L 280.72 110.65 L 278.60 106.14 L 275.30 102.02 L 271.51 98.06 L 267.64 94.12 L 263.78 90.17 L 259.91 86.23 L 256.04 82.28 L 252.18 78.34 L 248.31 74.39 L 244.44 70.45 L 240.58 66.50 L 236.83 62.63 L 233.81 59.16 L 233.14 56.28 L 235.03 51.18 L 235.57 44.88 L 233.62 39.15 L 229.60 34.71 L 224.14 32.22 L 218.60 32.03 L 213.34 33.95 L 209.05 37.74 L 206.54 42.70 L 206.19 48.44 L 207.77 54.13 L 210.45 58.36 L 210.49 61.19 L 208.58 64.89 L 206.08 69.03 L 203.49 73.25 L 200.90 77.47 L 198.31 81.69 L 195.74 85.91 L 193.52 90.06 L 192.73 93.84 L 195.13 96.85 L 198.96 99.50 L 203.14 102.08 L 207.29 104.61 L 211.10 106.62 L 214.30 106.87 L 219.04 104.10 L 225.50 102.35 L 232.13 103.99 L 237.39 109.36 L 239.03 116.61 L 236.64 123.47 L 231.11 127.74 L 224.07 128.63 L 218.24 126.43 L 213.96 121.57 L 212.39 115.15 L 212.42 109.88 L 210.77 107.13 L 207.25 104.65 L 203.14 102.08 L 198.94 99.52 L 194.81 97.32 L 191.03 96.56 L 187.98 99.02 L 185.29 102.92 L 182.67 107.17 L 180.05 111.45 L 177.42 115.73 L 174.80 120.00 L 172.17 124.28 L 169.55 128.52 L 166.91 132.45 L 164.03 135.21 L 160.53 135.98 L 156.89 136.59 L 153.72 138.39 L 151.34 141.10 L 150.44 144.62 L 150.72 148.32 L 152.25 151.70 L 153.59 155.12 L 152.88 159.34 L 151.01 164.15 L 148.83 169.17 L 146.70 174.22 L 144.74 179.33 L 142.73 184.52 L 140.51 189.62 L 138.09 194.58 L 135.65 199.46 L 133.38 204.46 L 131.17 209.50 L 128.96 214.54 L 126.76 219.58 L 124.55 224.62 L 122.34 229.67 L 120.14 234.71 L 117.93 239.75 L 115.72 244.79 L 113.52 249.83 L 111.31 254.87 L 109.10 259.91 L 106.89 264.95 L 104.69 269.99 L 102.48 275.04 L 100.27 280.08 L 98.07 285.12 L 95.86 290.16 L 93.65 295.20 L 91.45 300.24 L 89.24 305.28 L 87.03 310.32 L 84.83 315.37 L 82.62 320.41 L 80.41 325.45 L 78.20 330.49 L 76.00 335.53 L 73.79 340.57 L 71.58 345.61 L 69.38 350.65 L 67.17 355.69 L 64.96 360.74 L 62.76 365.78 L 60.55 370.82 L 58.34 375.86 L 56.14 380.90 L 53.93 385.94 L 51.72 390.98 L 49.51 396.02 L 47.31 401.06 L 45.10 406.11 L 42.89 411.15 L 40.69 416.19 L 38.48 421.23 L 36.27 426.27 L 34.07 431.31 L 31.86 436.35 L 29.65 441.39 L 27.45 446.43 L 25.24 451.48 L 23.03 456.47 L 20.72 461.06 Z" />
</symbol>
<symbol id="bl2">
<path d="M 210.31 236.82 L 206.24 237.98 L 201.89 240.45 L 198.18 243.55 L 195.30 247.43 L 193.23 252.09 L 192.74 257.32 L 194.20 262.49 L 197.06 267.38 L 201.25 271.18 L 207.01 273.35 L 212.88 273.72 L 217.68 272.89 L 219.51 273.96 L 221.30 277.22 L 223.45 281.51 L 225.70 286.08 L 227.96 290.67 L 230.22 295.26 L 232.44 299.82 L 234.34 304.08 L 235.41 307.34 L 235.45 309.15 L 234.66 311.48 L 233.98 314.30 L 234.03 317.23 L 234.58 319.60 L 235.63 320.89 L 238.16 322.60 L 241.45 324.50 L 244.70 326.75 L 247.29 330.31 L 249.59 334.64 L 251.85 339.21 L 254.11 343.80 L 256.36 348.39 L 258.62 352.98 L 260.88 357.57 L 263.10 362.05 L 264.95 365.94 L 265.64 368.10 L 264.88 369.03 L 262.62 371.34 L 260.86 374.83 L 260.31 378.51 L 260.38 381.56 L 261.10 383.51 L 263.33 386.71 L 266.94 389.55 L 271.31 390.76 L 275.88 389.84 L 279.86 387.24 L 282.47 383.30 L 283.28 378.39 L 282.27 373.46 L 280.03 369.86 L 280.51 366.73 L 282.76 362.67 L 285.55 358.19 L 288.41 353.65 L 291.27 349.11 L 294.12 344.56 L 296.98 340.02 L 299.83 335.48 L 302.69 330.97 L 305.56 326.78 L 308.62 323.83 L 312.27 323.04 L 316.03 322.36 L 319.25 320.42 L 321.58 317.49 L 322.54 313.85 L 322.31 310.00 L 321.20 306.52 L 320.18 302.98 L 320.41 298.68 L 320.21 294.10 L 321.41 289.13 L 323.01 283.99 L 324.66 278.83 L 326.31 273.67 L 327.96 268.52 L 329.61 263.36 L 331.21 258.20 L 332.65 253.00 L 334.07 247.70 L 336.05 242.68 L 337.84 237.58 L 339.50 232.42 L 341.15 227.26 L 342.80 222.11 L 344.45 216.95 L 346.09 211.80 L 347.74 206.77 L 349.35 202.46 L 351.45 200.19 L 355.70 199.90 L 360.79 198.91 L 365.38 196.45 L 368.88 192.52 L 371.07 187.68 L 371.67 182.48 L 370.37 177.38 L 367.62 172.90 L 363.68 169.70 L 358.91 167.89 L 353.94 167.36 L 349.85 167.30 L 347.49 165.08 L 345.40 160.87 L 343.23 155.98 L 341.05 150.98 L 338.87 145.98 L 336.70 140.98 L 334.52 135.98 L 332.34 130.98 L 330.17 125.98 L 327.99 120.98 L 325.81 115.97 L 323.63 110.97 L 321.46 105.97 L 319.28 100.97 L 317.10 95.97 L 314.93 90.97 L 312.75 85.97 L 310.57 80.96 L 308.40 75.96 L 306.22 70.96 L 304.04 65.96 L 301.89 61.00 L 300.11 56.43 L 299.68 53.11 L 301.22 50.19 L 304.01 43.69 L 304.41 37.31 L 303.67 32.24 L 300.86 27.66 L 296.71 24.13 L 292.04 22.24 L 286.94 22.86 L 281.95 24.96 L 278.41 27.79 L 277.00 29.64 L 275.62 32.81 L 274.78 37.09 L 275.05 42.10 L 276.15 46.77 L 276.71 48.13 L 277.08 49.85 L 275.42 52.92 L 272.49 56.81 L 269.16 60.98 L 265.79 65.16 L 262.43 69.34 L 259.06 73.52 L 255.69 77.70 L 252.32 81.89 L 248.95 86.07 L 245.58 90.25 L 242.22 94.43 L 238.86 98.50 L 235.68 101.87 L 232.50 103.21 L 227.54 102.41 L 221.63 102.96 L 216.42 105.81 L 213.05 110.65 L 212.30 116.55 L 214.07 122.07 L 217.82 126.18 L 221.69 128.91 L 222.82 132.46 L 222.56 137.24 L 221.94 142.46 L 221.31 147.76 L 220.67 153.05 L 220.04 158.35 L 219.48 163.61 L 219.76 168.51 L 219.59 174.28 L 217.70 178.91 L 213.84 181.85 L 211.59 185.40 L 212.17 188.98 L 214.56 192.49 L 215.48 196.46 L 215.25 201.56 L 214.74 207.02 L 214.21 212.52 L 213.69 218.01 L 213.16 223.51 L 212.63 228.92 L 211.93 233.75 Z" />
</symbol>
<symbol id="bl3">
<path d="M 161.44 77.70 L 160.67 76.27 L 160.03 73.15 L 158.11 70.72 L 157.18 69.89 L 155.95 69.59 L 153.10 69.37 L 150.47 70.16 L 149.41 70.67 L 148.78 71.66 L 147.66 74.12 L 147.49 76.96 L 148.05 78.76 L 150.03 81.20 L 152.83 83.25 L 154.12 87.05 L 154.71 92.09 L 155.15 97.50 L 155.58 102.97 L 156.01 108.43 L 156.44 113.90 L 156.87 119.36 L 157.29 124.81 L 157.53 130.10 L 156.97 134.82 L 154.79 138.63 L 152.30 142.25 L 151.15 145.92 L 152.73 149.34 L 155.55 152.71 L 158.30 156.18 L 159.77 160.13 L 160.43 164.73 L 160.84 169.61 L 161.22 174.54 L 161.63 179.45 L 162.28 184.09 L 164.02 187.57 L 168.10 188.59 L 173.28 188.44 L 178.70 188.02 L 184.14 187.59 L 189.57 187.16 L 195.01 186.73 L 200.42 186.30 L 205.51 185.81 L 209.81 185.14 L 213.28 182.43 L 217.65 180.06 L 221.40 180.79 L 225.14 185.54 L 222.69 191.53 L 216.90 193.11 L 212.53 189.81 L 209.56 186.93 L 205.47 186.13 L 200.41 186.32 L 195.01 186.73 L 189.57 187.16 L 184.14 187.59 L 178.70 188.02 L 173.28 188.46 L 168.15 189.15 L 164.28 190.92 L 163.17 194.99 L 163.87 199.77 L 165.60 205.05 L 164.30 210.93 L 164.53 216.39 L 164.95 221.81 L 165.38 227.22 L 165.81 232.64 L 166.24 238.06 L 166.66 243.48 L 167.09 248.89 L 167.52 254.31 L 167.94 259.73 L 168.37 265.14 L 168.80 270.56 L 169.23 275.98 L 169.65 281.37 L 170.00 286.48 L 169.89 290.54 L 168.26 292.54 L 163.76 295.63 L 159.19 299.78 L 156.31 304.68 L 155.01 309.35 L 154.74 314.56 L 155.98 320.03 L 158.71 324.69 L 161.56 327.61 L 163.61 329.00 L 167.58 330.85 L 172.97 331.69 L 178.47 331.02 L 182.70 329.40 L 184.08 328.71 L 185.27 327.76 L 188.45 324.48 L 191.13 319.23 L 192.55 313.14 L 192.75 308.04 L 192.88 306.53 L 194.18 305.52 L 197.60 304.01 L 202.33 302.21 L 207.44 300.32 L 212.58 298.44 L 217.73 296.55 L 222.87 294.67 L 228.01 292.79 L 233.16 290.90 L 238.30 289.01 L 243.35 286.90 L 248.04 284.07 L 253.21 281.45 L 258.96 280.00 L 264.05 279.34 L 269.17 277.70 L 274.31 275.83 L 279.46 273.94 L 284.60 272.06 L 289.75 270.17 L 294.89 268.29 L 300.04 266.41 L 305.18 264.52 L 310.32 262.64 L 315.47 260.75 L 320.61 258.87 L 325.63 256.98 L 329.95 254.93 L 332.55 251.99 L 334.56 246.91 L 338.05 242.20 L 341.99 239.62 L 344.35 238.82 L 348.02 238.38 L 352.29 239.03 L 356.16 240.81 L 358.95 242.85 L 360.57 243.49 L 363.65 242.92 L 368.18 241.43 L 373.21 239.60 L 378.31 237.73 L 383.41 235.87 L 388.40 234.07 L 392.78 232.82 L 395.74 233.47 L 399.19 237.33 L 404.17 240.53 L 408.45 242.31 L 410.91 242.76 L 414.67 242.65 L 418.98 241.46 L 422.82 239.29 L 425.50 237.00 L 426.41 236.10 L 427.04 234.97 L 428.61 231.81 L 429.76 227.54 L 429.82 223.09 L 428.95 219.44 L 427.90 217.15 L 425.03 213.31 L 420.58 209.61 L 416.30 207.00 L 414.97 204.16 L 415.12 199.53 L 415.66 194.16 L 416.22 188.67 L 416.79 183.17 L 417.36 177.67 L 417.93 172.22 L 418.68 167.19 L 420.11 163.48 L 422.87 161.58 L 425.09 158.79 L 425.58 155.42 L 424.45 152.38 L 422.00 150.27 L 418.72 149.60 L 415.43 150.60 L 412.48 152.25 L 408.64 152.14 L 403.84 150.91 L 398.67 149.36 L 393.46 147.80 L 388.24 146.23 L 383.02 144.66 L 377.81 143.09 L 372.59 141.52 L 367.42 140.08 L 362.76 139.91 L 357.37 140.06 L 350.59 139.02 L 345.39 136.00 L 339.81 133.54 L 335.11 131.02 L 330.62 129.04 L 325.63 127.40 L 320.43 125.83 L 315.21 124.26 L 309.99 122.73 L 304.80 121.55 L 299.68 121.60 L 293.62 121.49 L 287.87 118.89 L 283.24 115.78 L 278.54 113.47 L 273.47 111.72 L 268.26 110.14 L 263.05 108.57 L 257.83 107.00 L 252.61 105.43 L 247.40 103.86 L 242.18 102.29 L 236.96 100.72 L 231.75 99.15 L 226.53 97.58 L 221.31 96.01 L 216.10 94.44 L 210.88 92.88 L 205.66 91.31 L 200.45 89.74 L 195.23 88.17 L 190.02 86.60 L 184.80 85.03 L 179.58 83.46 L 174.37 81.89 L 169.22 80.33 L 164.56 78.87 Z" />
</symbol>
<symbol id="bl4">
<path d="M 235.49 41.44 L 232.35 37.23 L 227.57 33.45 L 222.06 31.91 L 216.27 32.63 L 211.12 35.56 L 207.60 39.96 L 206.13 45.59 L 206.77 51.56 L 208.89 56.09 L 210.57 58.09 L 214.01 60.50 L 218.88 62.00 L 223.94 61.82 L 227.72 60.52 L 228.98 60.33 L 230.25 62.03 L 232.66 65.84 L 235.49 70.40 L 238.39 75.07 L 241.28 79.75 L 244.17 84.43 L 247.06 89.11 L 249.95 93.79 L 252.84 98.47 L 255.74 103.15 L 258.63 107.84 L 261.52 112.51 L 264.41 117.20 L 267.30 121.88 L 270.19 126.56 L 273.09 131.24 L 275.98 135.92 L 278.87 140.60 L 281.76 145.28 L 284.65 149.96 L 287.59 154.56 L 290.87 158.70 L 295.15 161.69 L 298.75 165.93 L 300.62 171.05 L 301.79 176.00 L 303.73 180.50 L 306.28 184.94 L 309.01 189.37 L 311.75 193.81 L 314.49 198.25 L 317.23 202.69 L 319.98 207.13 L 322.72 211.56 L 325.46 216.00 L 328.20 220.44 L 330.95 224.88 L 333.69 229.32 L 336.36 233.70 L 338.49 237.66 L 338.72 240.71 L 335.93 244.56 L 333.54 249.93 L 333.43 255.92 L 335.73 261.51 L 339.93 265.63 L 345.43 267.78 L 351.02 267.70 L 355.53 267.03 L 358.26 268.70 L 360.92 272.31 L 363.76 276.56 L 366.61 280.92 L 369.46 285.27 L 372.32 289.62 L 375.17 293.98 L 377.97 298.32 L 380.27 302.43 L 380.87 306.01 L 379.16 310.19 L 380.82 314.99 L 384.63 317.10 L 388.76 316.80 L 391.62 314.20 L 392.31 310.28 L 390.73 306.33 L 387.43 303.97 L 385.88 300.16 L 385.14 295.14 L 384.59 289.72 L 384.04 284.24 L 383.50 278.77 L 382.95 273.29 L 382.41 267.81 L 381.87 262.33 L 381.32 256.85 L 380.78 251.37 L 380.23 245.89 L 379.69 240.41 L 379.15 234.93 L 378.60 229.46 L 378.06 223.98 L 377.52 218.50 L 376.97 213.02 L 376.43 207.54 L 375.88 202.06 L 375.34 196.58 L 374.80 191.10 L 374.25 185.62 L 373.71 180.15 L 373.17 174.67 L 372.62 169.19 L 372.08 163.71 L 371.53 158.23 L 370.99 152.75 L 370.45 147.27 L 369.91 141.80 L 369.67 136.49 L 370.68 131.58 L 371.53 126.28 L 371.86 121.63 L 373.74 117.15 L 374.53 112.79 L 372.78 108.70 L 369.78 104.83 L 367.00 100.96 L 365.61 96.41 L 364.91 91.37 L 364.38 86.15 L 363.86 80.93 L 363.34 75.70 L 362.82 70.48 L 362.31 65.25 L 361.82 60.10 L 361.67 55.39 L 362.47 51.89 L 364.09 48.89 L 365.20 46.00 L 365.26 43.09 L 364.61 40.76 L 363.65 39.65 L 361.52 38.65 L 359.28 38.27 L 358.31 38.29 L 357.36 38.75 L 355.18 40.08 L 353.20 41.81 L 351.77 42.46 L 348.77 42.43 L 344.21 41.91 L 339.10 41.21 L 333.89 40.51 L 328.69 39.80 L 323.48 39.10 L 318.27 38.39 L 313.14 37.67 L 308.51 36.69 L 305.30 34.61 L 303.19 30.26 L 300.06 25.88 L 295.54 22.94 L 290.21 21.87 L 284.93 23.06 L 280.31 25.94 L 276.91 30.14 L 274.93 34.70 L 272.24 37.03 L 267.92 38.17 L 262.96 39.00 L 257.89 39.82 L 252.82 40.63 L 247.75 41.44 L 242.78 42.22 L 238.40 42.61 Z" />
</symbol>
<symbol id="bl5">
<path d="M 363.62 168.87 L 358.35 167.77 L 351.75 167.80 L 345.60 170.35 L 340.96 175.45 L 338.81 182.04 L 339.64 188.96 L 343.35 194.88 L 349.02 198.70 L 354.32 199.88 L 357.18 199.83 L 361.29 198.77 L 365.73 196.29 L 369.20 192.63 L 371.25 189.11 L 372.15 188.03 L 374.56 188.42 L 379.01 189.56 L 384.18 190.91 L 389.47 192.28 L 394.77 193.65 L 400.07 195.02 L 405.36 196.39 L 410.66 197.76 L 415.95 199.13 L 421.25 200.50 L 426.55 201.87 L 431.84 203.24 L 437.14 204.60 L 442.44 205.97 L 447.73 207.34 L 453.03 208.71 L 458.33 210.08 L 463.53 211.46 L 468.08 213.00 L 470.71 215.47 L 472.38 220.55 L 476.21 224.05 L 478.97 225.10 L 483.49 224.66 L 487.48 222.90 L 489.21 220.61 L 490.00 216.12 L 488.43 211.07 L 484.58 207.22 L 479.64 206.03 L 476.83 203.33 L 474.70 199.04 L 472.66 194.22 L 470.62 189.32 L 468.58 184.41 L 466.54 179.51 L 464.50 174.61 L 462.46 169.71 L 460.42 164.81 L 458.38 159.91 L 456.34 155.00 L 454.30 150.10 L 452.26 145.20 L 450.22 140.30 L 448.18 135.40 L 446.14 130.50 L 444.10 125.60 L 442.06 120.69 L 440.02 115.79 L 437.98 110.89 L 435.94 105.99 L 433.93 101.11 L 432.28 96.48 L 431.93 92.53 L 433.73 89.23 L 433.87 85.04 L 431.75 81.80 L 428.27 80.35 L 424.46 81.10 L 421.67 83.92 L 421.05 88.00 L 422.15 91.46 L 420.72 95.14 L 417.92 99.25 L 414.74 103.55 L 411.52 107.86 L 408.30 112.18 L 405.09 116.49 L 401.87 120.80 L 398.65 125.11 L 395.44 129.43 L 392.22 133.74 L 389.00 138.05 L 385.79 142.36 L 382.57 146.68 L 379.35 150.99 L 376.14 155.30 L 372.92 159.62 L 369.72 163.83 L 366.71 167.38 Z" />
</symbol>
<symbol id="bl6">
<path d="M 345.41 361.45 L 340.81 363.81 L 336.22 367.65 L 333.93 371.86 L 333.30 374.34 L 333.74 378.06 L 335.31 382.29 L 338.17 385.73 L 341.14 387.74 L 342.40 388.39 L 343.80 388.68 L 347.47 388.94 L 352.06 387.88 L 355.99 385.41 L 358.44 382.53 L 359.19 381.35 L 359.55 379.97 L 360.03 376.22 L 359.37 371.57 L 357.25 367.52 L 354.88 364.88 L 354.41 363.50 L 355.71 360.90 L 358.16 356.95 L 360.97 352.50 L 363.82 347.98 L 366.68 343.46 L 369.53 338.94 L 372.39 334.42 L 375.24 329.90 L 378.10 325.43 L 381.00 321.34 L 384.31 318.43 L 388.60 316.77 L 391.68 313.36 L 392.01 308.63 L 389.55 304.88 L 389.04 300.71 L 389.64 295.88 L 390.56 290.77 L 391.49 285.62 L 392.43 280.47 L 393.36 275.32 L 394.30 270.17 L 395.23 265.02 L 396.16 259.87 L 397.10 254.72 L 398.03 249.57 L 398.87 244.50 L 399.14 239.86 L 397.84 236.26 L 395.18 232.25 L 393.51 227.36 L 393.37 221.99 L 394.95 216.57 L 398.02 212.10 L 401.96 208.94 L 404.89 206.52 L 406.40 202.58 L 407.41 197.87 L 408.32 192.91 L 409.22 187.93 L 410.13 182.96 L 411.03 177.98 L 411.93 173.01 L 412.78 168.03 L 413.25 163.16 L 412.83 158.62 L 412.71 154.29 L 414.82 150.53 L 416.47 146.37 L 417.61 141.63 L 418.53 136.65 L 419.44 131.64 L 420.35 126.64 L 421.26 121.64 L 422.17 116.63 L 423.07 111.63 L 423.98 106.63 L 424.90 101.67 L 426.00 97.10 L 427.89 93.78 L 431.49 92.22 L 433.79 89.11 L 434.18 86.89 L 433.31 83.53 L 431.31 81.03 L 430.31 80.15 L 428.91 80.02 L 425.73 80.49 L 422.90 82.20 L 421.61 84.03 L 421.00 87.63 L 422.12 91.38 L 420.71 95.13 L 417.91 99.25 L 414.74 103.55 L 411.52 107.86 L 408.30 112.18 L 405.09 116.49 L 401.87 120.80 L 398.65 125.11 L 395.44 129.43 L 392.22 133.74 L 389.00 138.05 L 385.79 142.36 L 382.57 146.68 L 379.35 150.99 L 376.14 155.30 L 372.92 159.62 L 369.73 163.83 L 366.78 167.41 L 364.13 169.02 L 360.24 168.13 L 355.44 167.37 L 350.52 167.93 L 345.90 169.95 L 342.13 173.32 L 339.62 177.75 L 338.60 182.89 L 339.17 188.07 L 341.38 192.73 L 344.96 196.46 L 349.35 198.90 L 353.01 200.42 L 354.10 202.84 L 354.10 206.98 L 353.88 211.80 L 353.66 216.75 L 353.44 221.70 L 353.21 226.65 L 353.02 231.52 L 353.21 235.96 L 354.74 239.40 L 358.62 242.90 L 361.82 248.00 L 362.75 253.85 L 361.25 259.71 L 357.57 264.48 L 353.51 267.77 L 351.62 271.37 L 351.00 276.26 L 350.73 281.68 L 350.48 287.19 L 350.23 292.70 L 349.98 298.21 L 349.73 303.73 L 349.48 309.24 L 349.23 314.75 L 348.98 320.26 L 348.74 325.78 L 348.49 331.29 L 348.24 336.80 L 347.99 342.31 L 347.74 347.83 L 347.48 353.24 L 347.03 358.09 Z" />
</symbol>
<symbol id="bl7">
<path d="M 92.78 256.31 L 97.94 252.77 L 102.95 247.00 L 105.76 239.33 L 105.59 232.45 L 102.15 225.71 L 96.31 220.49 L 88.64 217.80 L 81.72 218.25 L 75.23 221.78 L 70.00 227.29 L 66.99 234.85 L 67.06 241.85 L 71.06 248.31 L 76.69 253.47 L 84.21 256.55 L 89.62 257.24 L 91.30 258.86 L 92.51 263.19 L 93.77 268.37 L 95.03 273.69 L 96.30 279.02 L 97.56 284.35 L 98.81 289.62 L 99.94 294.50 L 100.50 298.05 L 99.57 299.72 L 96.92 302.32 L 96.00 305.78 L 96.17 307.25 L 96.74 308.72 L 99.31 311.36 L 102.70 312.25 L 104.16 312.10 L 105.61 311.54 L 108.28 309.02 L 109.23 305.63 L 109.07 304.16 L 108.54 302.70 L 106.02 300.00 L 102.55 299.00 L 101.04 297.90 L 100.01 294.47 L 98.82 289.62 L 97.56 284.35 L 96.30 279.02 L 95.03 273.69 L 93.77 268.37 L 92.54 263.17 L 91.77 258.71 Z" />
</symbol>
</defs>
<!-- isDone: 0 -->
<rect width="700" height="500" style="fill:#fff;stroke-width:0" />
<use class="p0 borderLine" xlink:href="#bl0"/>
<use class="p1 borderLine" xlink:href="#bl1"/>
<use class="p2 borderLine" xlink:href="#bl2"/>
<use class="p3 borderLine" xlink:href="#bl3"/>
<use class="p4 borderLine" xlink:href="#bl4"/>
<use class="p5 borderLine" xlink:href="#bl5"/>
<use class="p6 borderLine" xlink:href="#bl6"/>
<use class="p7 borderLine" xlink:href="#bl7"/>
<use class="q0 outLine" xlink:href="#bl0"/>
<use class="q1 outLine" xlink:href="#bl1"/>
<use class="q2 outLine" xlink:href="#bl2"/>
<use class="q3 outLine" xlink:href="#bl3"/>
<use class="q4 outLine" xlink:href="#bl4"/>
<use class="q5 outLine" xlink:href="#bl5"/>
<use class="q6 outLine" xlink:href="#bl6"/>
<use class="q7 outLine" xlink:href="#bl7"/>
<circle onclick="fromCircle(1)" class="circle" cx="96.0020" cy="166.4519" r="34.9880" />
<text class="tLabel" x="96.00" y="146.45"></text>
<text class="nLabel" x="96.00" y="161.45">40</text>
<text class="belong" x="96.00" y="171.45">(1)</text>
<circle onclick="fromCircle(3)" class="circle" cx="158.8615" cy="203.5124" r="5.5321" />
<text class="tLabel" x="158.86" y="183.51"></text>
<text class="nLabel" x="158.86" y="198.51">1</text>
<text class="belong" x="158.86" y="208.51">(1, 2)</text>
<circle onclick="fromCircle(7)" class="circle" cx="218.3950" cy="186.6235" r="5.5321" />
<text class="tLabel" x="218.39" y="166.62"></text>
<text class="nLabel" x="218.39" y="181.62">1</text>
<text class="belong" x="218.39" y="191.62">(1, 2, 3)</text>
<circle onclick="fromCircle(15)" class="circle" cx="279.2050" cy="243.4850" r="7.8236" />
<text class="tLabel" x="279.20" y="223.48"></text>
<text class="nLabel" x="279.20" y="238.48">2</text>
<text class="belong" x="279.20" y="248.48">(1, 2, 3, 4)</text>
<circle onclick="fromCircle(127)" class="circle" cx="355.3198" cy="183.6781" r="13.5508" />
<text class="tLabel" x="355.32" y="163.68"></text>
<text class="nLabel" x="355.32" y="178.68">6</text>
<text class="belong" x="355.32" y="188.68">(1, 2, 3, 4, 5, 6, 7)</text>
<circle onclick="fromCircle(2)" class="circle" cx="16.5517" cy="471.4326" r="5.5321" />
<text class="tLabel" x="16.55" y="451.43"></text>
<text class="nLabel" x="16.55" y="466.43">1</text>
<text class="belong" x="16.55" y="476.43">(2)</text>
<circle onclick="fromCircle(6)" class="circle" cx="264.0448" cy="293.8639" r="9.5819" />
<text class="tLabel" x="264.04" y="273.86"></text>
<text class="nLabel" x="264.04" y="288.86">3</text>
<text class="belong" x="264.04" y="298.86">(2, 3)</text>
<circle onclick="fromCircle(14)" class="circle" cx="211.1567" cy="256.5155" r="14.6365" />
<text class="tLabel" x="211.16" y="236.52"></text>
<text class="nLabel" x="211.16" y="251.52">7</text>
<text class="belong" x="211.16" y="261.52">(2, 3, 4)</text>
<circle onclick="fromCircle(10)" class="circle" cx="173.8250" cy="311.3192" r="15.6471" />
<text class="tLabel" x="173.82" y="291.32"></text>
<text class="nLabel" x="173.82" y="306.32">8</text>
<text class="belong" x="173.82" y="316.32">(2, 4)</text>
<circle onclick="fromCircle(18)" class="circle" cx="220.8655" cy="46.7933" r="12.3701" />
<text class="tLabel" x="220.87" y="26.79"></text>
<text class="nLabel" x="220.87" y="41.79">5</text>
<text class="belong" x="220.87" y="51.79">(2, 5)</text>
<circle onclick="fromCircle(130)" class="circle" cx="102.5919" cy="305.6326" r="5.5321" />
<text class="tLabel" x="102.59" y="285.63"></text>
<text class="nLabel" x="102.59" y="300.63">1</text>
<text class="belong" x="102.59" y="310.63">(2, 8)</text>
<circle onclick="fromCircle(4)" class="circle" cx="271.7972" cy="378.2169" r="9.5819" />
<text class="tLabel" x="271.80" y="358.22"></text>
<text class="nLabel" x="271.80" y="373.22">3</text>
<text class="belong" x="271.80" y="383.22">(3)</text>
<circle onclick="fromCircle(5)" class="circle" cx="310.0798" cy="299.3217" r="9.5819" />
<text class="tLabel" x="310.08" y="279.32"></text>
<text class="nLabel" x="310.08" y="294.32">3</text>
<text class="belong" x="310.08" y="304.32">(1, 3)</text>
<circle onclick="fromCircle(13)" class="circle" cx="285.8194" cy="173.7977" r="12.3701" />
<text class="tLabel" x="285.82" y="153.80"></text>
<text class="nLabel" x="285.82" y="168.80">5</text>
<text class="belong" x="285.82" y="178.80">(1, 3, 4)</text>
<circle onclick="fromCircle(12)" class="circle" cx="225.7126" cy="115.5453" r="11.0642" />
<text class="tLabel" x="225.71" y="95.55"></text>
<text class="nLabel" x="225.71" y="110.55">4</text>
<text class="belong" x="225.71" y="120.55">(3, 4)</text>
<circle onclick="fromCircle(20)" class="circle" cx="289.9153" cy="36.9764" r="12.3701" />
<text class="tLabel" x="289.92" y="16.98"></text>
<text class="nLabel" x="289.92" y="31.98">5</text>
<text class="belong" x="289.92" y="41.98">(3, 5)</text>
<circle onclick="fromCircle(21)" class="circle" cx="296.8947" cy="107.0481" r="12.3701" />
<text class="tLabel" x="296.89" y="87.05"></text>
<text class="nLabel" x="296.89" y="102.05">5</text>
<text class="belong" x="296.89" y="112.05">(1, 3, 5)</text>
<circle onclick="fromCircle(8)" class="circle" cx="154.0662" cy="75.9731" r="5.5321" />
<text class="tLabel" x="154.07" y="55.97"></text>
<text class="nLabel" x="154.07" y="70.97">1</text>
<text class="belong" x="154.07" y="80.97">(4)</text>
<circle onclick="fromCircle(9)" class="circle" cx="410.8405" cy="224.1825" r="14.6365" />
<text class="tLabel" x="410.84" y="204.18"></text>
<text class="nLabel" x="410.84" y="219.18">7</text>
<text class="belong" x="410.84" y="229.18">(1, 4)</text>
<circle onclick="fromCircle(11)" class="circle" cx="194.2032" cy="149.3358" r="9.5819" />
<text class="tLabel" x="194.20" y="129.34"></text>
<text class="nLabel" x="194.20" y="144.34">3</text>
<text class="belong" x="194.20" y="154.34">(1, 2, 4)</text>
<circle onclick="fromCircle(40)" class="circle" cx="419.0018" cy="156.2605" r="5.5321" />
<text class="tLabel" x="419.00" y="136.26"></text>
<text class="nLabel" x="419.00" y="151.26">1</text>
<text class="belong" x="419.00" y="161.26">(4, 6)</text>
<circle onclick="fromCircle(16)" class="circle" cx="356.7490" cy="48.3488" r="5.5321" />
<text class="tLabel" x="356.75" y="28.35"></text>
<text class="nLabel" x="356.75" y="43.35">1</text>
<text class="belong" x="356.75" y="53.35">(5)</text>
<circle onclick="fromCircle(17)" class="circle" cx="351.5352" cy="119.0056" r="12.3701" />
<text class="tLabel" x="351.54" y="99.01"></text>
<text class="nLabel" x="351.54" y="114.01">5</text>
<text class="belong" x="351.54" y="124.01">(1, 5)</text>
<circle onclick="fromCircle(19)" class="circle" cx="347.9633" cy="253.1983" r="12.3701" />
<text class="tLabel" x="347.96" y="233.20"></text>
<text class="nLabel" x="347.96" y="248.20">5</text>
<text class="belong" x="347.96" y="258.20">(1, 2, 5)</text>
<circle onclick="fromCircle(80)" class="circle" cx="385.6923" cy="310.5128" r="5.5321" />
<text class="tLabel" x="385.69" y="290.51"></text>
<text class="nLabel" x="385.69" y="305.51">1</text>
<text class="belong" x="385.69" y="315.51">(5, 7)</text>
<circle onclick="fromCircle(32)" class="circle" cx="480.1468" cy="215.4456" r="7.8236" />
<text class="tLabel" x="480.15" y="195.45"></text>
<text class="nLabel" x="480.15" y="210.45">2</text>
<text class="belong" x="480.15" y="220.45">(6)</text>
<circle onclick="fromCircle(96)" class="circle" cx="427.5393" cy="86.9813" r="5.5321" />
<text class="tLabel" x="427.54" y="66.98"></text>
<text class="nLabel" x="427.54" y="81.98">1</text>
<text class="belong" x="427.54" y="91.98">(6, 7)</text>
<circle onclick="fromCircle(64)" class="circle" cx="346.7808" cy="375.6866" r="11.0642" />
<text class="tLabel" x="346.78" y="355.69"></text>
<text class="nLabel" x="346.78" y="370.69">4</text>
<text class="belong" x="346.78" y="380.69">(7)</text>
<circle onclick="fromCircle(128)" class="circle" cx="85.9734" cy="236.3081" r="15.6471" />
<text class="tLabel" x="85.97" y="216.31"></text>
<text class="nLabel" x="85.97" y="231.31">8</text>
<text class="belong" x="85.97" y="241.31">(8)</text>
<rect class="p0 borderLine" x="500.00" y="50.00" width="30.00" height="15.00" />
<rect class="q0" x="500.00" y="50.00" width="30.00" height="15.00" />
<text class="legend" x="540.00" y="65.00">Ball2017</text>
<rect class="p1 borderLine" x="500.00" y="90.00" width="30.00" height="15.00" />
<rect class="q1" x="500.00" y="90.00" width="30.00" height="15.00" />
<text class="legend" x="540.00" y="105.00">Courtois2015</text>
<rect class="p2 borderLine" x="500.00" y="130.00" width="30.00" height="15.00" />
<rect class="q2" x="500.00" y="130.00" width="30.00" height="15.00" />
<text class="legend" x="540.00" y="145.00">Hilton2017</text>
<rect class="p3 borderLine" x="500.00" y="170.00" width="30.00" height="15.00" />
<rect class="q3" x="500.00" y="170.00" width="30.00" height="15.00" />
<text class="legend" x="540.00" y="185.00">Ball2017</text>
<rect class="p4 borderLine" x="500.00" y="210.00" width="30.00" height="15.00" />
<rect class="q4" x="500.00" y="210.00" width="30.00" height="15.00" />
<text class="legend" x="540.00" y="225.00">Ball2017</text>
<rect class="p5 borderLine" x="500.00" y="250.00" width="30.00" height="15.00" />
<rect class="q5" x="500.00" y="250.00" width="30.00" height="15.00" />
<text class="legend" x="540.00" y="265.00">Ball2017</text>
<rect class="p6 borderLine" x="500.00" y="290.00" width="30.00" height="15.00" />
<rect class="q6" x="500.00" y="290.00" width="30.00" height="15.00" />
<text class="legend" x="540.00" y="305.00">Courtois2015</text>
<rect class="p7 borderLine" x="500.00" y="330.00" width="30.00" height="15.00" />
<rect class="q7" x="500.00" y="330.00" width="30.00" height="15.00" />
<text class="legend" x="540.00" y="345.00">Hilton2017</text>
</svg>
