<svg xmlns="http://www.w3.org/2000/svg" xmlns:xlink="http://www.w3.org/1999/xlink" width="700" height="500">
<defs>
<style type="text/css"><![CDATA[
  .borderLine {
	   stroke: none;
	   fill-opacity: 0.4;
  }
  .outLine {
	   stroke-width: 1;
	   fill: none;
  }
  .circle {
	   stroke: #888888;
	   stroke-width: 0.5;
	   fill: none;
    pointer-events: all;
  }
  .spcircle {
	   stroke: #FF2222;
	   stroke-width: 1;
	   fill: none;
    pointer-events: all;
  }
  .tLabel {
	   font-family: Arial;
    pointer-events: none;
	   font-size: 14px;
	   text-anchor: middle;
	   alignment-baseline: central;
  }
  .nLabel {
	   font-family: Arial;
    pointer-events: none;
	   font-size: 10px;
	   text-anchor: middle;
	   alignment-baseline: central;
  }
  .belong {
	   font-family: Arial;
    pointer-events: none;
	   font-size: 5px;
	   text-anchor: middle;
	   alignment-baseline: central;
  }
  .p0{
    stroke: none;
    fill: #e6194b;
  }
  .q0{
    fill: none;
    stroke: #e6194b;
  }
  .p1{
    stroke: none;
    fill: #3cb44b;
  }
  .q1{
    fill: none;
    stroke: #3cb44b;
  }
  .p2{
    stroke: none;
    fill: #ffe119;
  }
  .q2{
    fill: none;
    stroke: #ffe119;
  }
  .p3{
    stroke: none;
    fill: #0082c8;
  }
  .q3{
    fill: none;
    stroke: #0082c8;
  }
]]>
</style>
<symbol id="bl0">
<path d="M 214.05 244.79 L 209.02 241.45 L 203.33 239.53 L 197.41 239.42 L 191.54 240.14 L 185.63 240.79 L 179.88 241.70 L 174.20 242.78 L 168.53 243.98 L 162.85 245.24 L 157.17 246.53 L 151.50 247.84 L 145.85 249.17 L 140.22 250.55 L 134.60 251.97 L 128.99 253.42 L 123.39 254.87 L 117.82 256.33 L 112.24 257.79 L 106.68 259.30 L 101.19 260.89 L 95.75 262.58 L 90.36 264.39 L 85.03 266.36 L 79.83 268.51 L 74.70 270.88 L 69.67 273.49 L 64.77 276.34 L 60.00 279.43 L 55.40 282.75 L 50.96 286.29 L 46.72 290.03 L 42.67 293.97 L 38.86 298.10 L 35.26 302.41 L 31.91 306.90 L 28.79 311.55 L 25.90 316.32 L 23.25 321.20 L 20.83 326.19 L 18.62 331.24 L 16.66 336.39 L 14.94 341.67 L 13.51 346.91 L 12.26 352.17 L 11.33 357.55 L 10.65 362.97 L 10.25 368.09 L 10.01 373.29 L 10.06 378.62 L 10.37 383.95 L 10.95 389.30 L 11.74 394.60 L 12.72 399.79 L 13.91 404.67 L 15.30 409.34 L 16.83 413.92 L 18.53 418.46 L 20.41 422.88 L 22.47 427.13 L 24.70 431.31 L 27.04 435.51 L 29.55 439.48 L 32.20 443.29 L 35.09 446.89 L 38.06 450.55 L 41.11 454.16 L 44.40 457.60 L 47.86 460.85 L 51.50 463.92 L 55.22 466.94 L 59.10 469.80 L 63.13 472.50 L 67.30 475.04 L 71.60 477.44 L 76.03 479.69 L 80.61 481.76 L 85.32 483.60 L 90.14 485.19 L 95.04 486.61 L 100.01 487.85 L 105.13 488.69 L 110.38 489.21 L 115.50 489.85 L 120.71 490.40 L 126.02 490.52 L 131.35 490.25 L 136.72 489.78 L 142.08 489.20 L 147.46 488.33 L 152.79 487.18 L 158.10 485.83 L 163.39 484.21 L 168.59 482.26 L 173.69 480.03 L 178.70 477.54 L 183.60 474.82 L 188.37 471.86 L 192.99 468.68 L 197.44 465.26 L 201.73 461.63 L 205.82 457.80 L 209.71 453.77 L 213.38 449.57 L 216.80 445.18 L 219.98 440.66 L 222.96 436.04 L 225.77 431.27 L 228.38 426.35 L 230.83 421.33 L 233.02 416.10 L 235.19 410.84 L 237.34 405.58 L 239.63 400.48 L 241.98 395.41 L 244.36 390.35 L 246.74 385.29 L 249.11 380.23 L 251.47 375.16 L 253.82 370.09 L 256.12 365.00 L 258.36 359.91 L 260.59 354.80 L 262.99 349.71 L 265.32 344.58 L 267.08 339.38 L 268.96 334.33 L 270.04 328.94 L 267.75 323.83 L 264.97 318.83 L 262.21 313.75 L 258.86 308.86 L 255.36 304.03 L 252.01 299.13 L 248.65 294.20 L 245.21 289.27 L 241.72 284.33 L 238.21 279.37 L 234.71 274.41 L 231.25 269.41 L 227.90 264.34 L 224.62 259.23 L 221.11 254.26 L 217.81 249.23 Z" />
</symbol>
<symbol id="bl1">
<path d="M 366.72 10.28 L 360.60 9.98 L 354.40 10.04 L 348.16 10.38 L 341.93 10.99 L 335.75 11.90 L 329.53 13.12 L 323.45 14.59 L 317.43 16.38 L 311.51 18.44 L 305.74 20.77 L 300.08 23.39 L 294.53 26.25 L 289.11 29.39 L 283.83 32.79 L 278.70 36.44 L 273.71 40.39 L 268.86 44.61 L 264.22 49.07 L 259.78 53.77 L 255.56 58.72 L 251.57 63.87 L 247.82 69.25 L 244.37 74.86 L 241.15 80.63 L 238.18 86.59 L 235.53 92.74 L 233.21 99.07 L 231.19 105.48 L 229.46 112.01 L 228.09 118.62 L 227.06 125.32 L 226.38 132.08 L 225.99 138.88 L 226.06 145.70 L 226.34 152.51 L 226.51 159.33 L 226.65 166.14 L 226.72 172.87 L 226.69 179.56 L 226.53 186.22 L 226.25 192.88 L 225.79 199.62 L 225.38 206.46 L 226.64 213.29 L 231.21 219.50 L 235.97 225.51 L 240.67 231.60 L 245.32 237.69 L 249.86 243.77 L 254.35 249.79 L 258.79 255.74 L 263.17 261.66 L 267.51 267.58 L 271.83 273.44 L 276.10 279.23 L 280.27 285.02 L 284.37 290.85 L 288.38 296.65 L 292.23 302.54 L 297.89 306.66 L 304.63 308.46 L 311.36 306.74 L 317.64 304.16 L 323.88 301.58 L 330.07 299.00 L 336.20 296.44 L 342.26 293.86 L 348.26 291.20 L 354.18 288.52 L 360.05 285.86 L 365.89 283.22 L 371.70 280.59 L 377.48 277.96 L 383.22 275.34 L 388.95 272.74 L 394.64 270.18 L 400.26 267.63 L 405.85 265.10 L 411.36 262.59 L 416.83 260.02 L 422.21 257.19 L 427.47 254.10 L 432.55 250.78 L 437.44 247.26 L 442.15 243.54 L 446.66 239.63 L 450.97 235.54 L 455.07 231.27 L 458.98 226.84 L 462.66 222.25 L 466.12 217.52 L 469.36 212.65 L 472.37 207.67 L 475.15 202.57 L 477.70 197.37 L 480.06 192.10 L 482.08 186.70 L 483.91 181.25 L 485.54 175.76 L 486.85 170.18 L 487.95 164.57 L 488.80 158.96 L 489.43 153.38 L 489.79 147.76 L 489.95 142.16 L 489.81 136.57 L 489.45 131.01 L 488.93 125.49 L 488.07 120.03 L 487.12 114.62 L 485.79 109.27 L 484.32 103.98 L 482.64 98.75 L 480.72 93.59 L 478.59 88.52 L 476.26 83.51 L 473.71 78.60 L 470.99 73.81 L 467.99 69.12 L 464.87 64.54 L 461.53 60.10 L 458.00 55.81 L 454.28 51.64 L 450.33 47.65 L 446.25 43.81 L 441.95 40.13 L 437.48 36.63 L 432.84 33.31 L 428.04 30.17 L 423.09 27.18 L 417.98 24.43 L 412.72 21.90 L 407.35 19.60 L 401.83 17.52 L 396.21 15.66 L 390.48 14.07 L 384.64 12.74 L 378.72 11.65 L 372.73 10.84 Z" />
</symbol>
<symbol id="bl2">
<path d="M 176.67 251.49 L 177.11 255.05 L 177.64 258.62 L 178.37 262.01 L 179.34 265.27 L 180.36 268.43 L 181.87 271.33 L 183.86 274.18 L 186.23 276.51 L 188.68 278.44 L 191.14 280.00 L 193.62 281.01 L 196.37 281.43 L 199.35 281.58 L 202.51 281.50 L 205.79 281.09 L 209.05 280.02 L 212.11 278.22 L 214.81 275.80 L 217.17 272.94 L 218.99 269.89 L 220.25 266.48 L 221.23 263.04 L 222.12 259.76 L 223.05 256.65 L 224.21 253.60 L 225.53 250.64 L 226.90 247.73 L 228.28 244.83 L 229.66 241.96 L 231.07 239.12 L 232.51 236.30 L 233.95 233.49 L 235.34 230.68 L 236.67 227.87 L 237.96 225.06 L 239.16 222.22 L 240.25 219.34 L 241.15 216.43 L 241.89 213.51 L 242.60 210.46 L 242.97 207.31 L 241.93 204.61 L 240.22 202.18 L 237.43 200.32 L 234.41 199.10 L 231.50 197.75 L 228.59 196.40 L 225.57 195.07 L 222.47 193.79 L 219.36 192.45 L 216.19 191.14 L 212.98 189.90 L 209.80 188.79 L 206.43 187.98 L 203.03 187.40 L 199.51 187.19 L 195.92 187.28 L 192.31 188.09 L 188.51 189.48 L 185.18 191.33 L 182.13 193.55 L 179.52 196.15 L 177.25 199.11 L 175.68 202.33 L 174.41 205.65 L 173.43 209.09 L 172.95 212.57 L 173.16 216.06 L 173.91 219.49 L 174.25 222.99 L 174.45 226.56 L 174.82 230.16 L 175.21 233.76 L 175.50 237.33 L 175.73 240.89 L 175.98 244.44 L 176.28 247.97 Z" />
</symbol>
<symbol id="bl3">
<path d="M 285.69 289.81 L 284.08 292.19 L 282.39 294.50 L 280.67 296.76 L 278.93 299.00 L 277.17 301.24 L 275.40 303.48 L 273.59 305.71 L 271.76 307.92 L 269.86 310.12 L 267.91 312.31 L 265.93 314.51 L 263.99 316.72 L 262.08 318.92 L 259.91 321.12 L 257.58 323.33 L 255.60 325.62 L 254.53 328.34 L 254.41 331.21 L 255.46 333.76 L 257.51 335.91 L 260.56 337.32 L 263.91 337.99 L 267.31 338.54 L 270.34 339.21 L 273.28 339.94 L 276.27 340.61 L 279.19 341.29 L 281.96 342.06 L 284.72 342.72 L 287.49 343.18 L 290.36 343.04 L 293.12 342.59 L 295.77 341.77 L 298.36 340.51 L 300.72 338.89 L 302.89 337.00 L 304.78 334.76 L 306.49 332.46 L 308.08 330.07 L 309.44 327.47 L 310.75 324.79 L 312.06 322.09 L 313.29 319.33 L 314.45 316.53 L 315.57 313.71 L 316.62 310.87 L 317.58 308.01 L 318.47 305.14 L 319.27 302.25 L 320.01 299.35 L 320.63 296.42 L 321.13 293.46 L 321.33 290.47 L 320.91 287.52 L 320.00 284.74 L 318.78 282.09 L 317.07 279.85 L 315.06 277.96 L 312.80 276.41 L 310.29 275.25 L 307.58 274.67 L 304.80 274.25 L 301.89 274.49 L 298.99 275.29 L 296.32 276.44 L 293.85 278.10 L 291.71 280.22 L 290.01 282.66 L 288.71 285.04 L 287.24 287.44 Z" />
</symbol>
</defs>
<!-- isDone: 0 -->
<rect width="700" height="500" style="fill:#fff;stroke-width:0" />
<use class="p0 borderLine" xlink:href="#bl0"/>
<use class="p1 borderLine" xlink:href="#bl1"/>
<use class="p2 borderLine" xlink:href="#bl2"/>
<use class="p3 borderLine" xlink:href="#bl3"/>
<use class="q0 outLine" xlink:href="#bl0"/>
<use class="q1 outLine" xlink:href="#bl1"/>
<use class="q2 outLine" xlink:href="#bl2"/>
<use class="q3 outLine" xlink:href="#bl3"/>
<circle onclick="fromCircle(1)" class="circle" cx="125.3284" cy="374.7605" r="115.2394" />
<text class="tLabel" x="125.33" y="354.76"></text>
<text class="nLabel" x="125.33" y="369.76">1378</text>
<text class="belong" x="125.33" y="379.76">(1)</text>
<circle onclick="fromCircle(2)" class="circle" cx="357.9836" cy="141.9275" r="131.9275" />
<text class="tLabel" x="357.98" y="121.93"></text>
<text class="nLabel" x="357.98" y="136.93">1806</text>
<text class="belong" x="357.98" y="146.93">(2)</text>
<circle onclick="fromCircle(6)" class="circle" cx="233.9773" cy="208.4011" r="8.7805" />
<text class="tLabel" x="233.98" y="188.40"></text>
<text class="nLabel" x="233.98" y="203.40">8</text>
<text class="belong" x="233.98" y="213.40">(2, 3)</text>
<circle onclick="fromCircle(10)" class="circle" cx="304.5228" cy="291.1153" r="16.7177" />
<text class="tLabel" x="304.52" y="271.12"></text>
<text class="nLabel" x="304.52" y="286.12">29</text>
<text class="belong" x="304.52" y="296.12">(2, 4)</text>
<circle onclick="fromCircle(4)" class="circle" cx="199.3666" cy="213.2262" r="25.9732" />
<text class="tLabel" x="199.37" y="193.23"></text>
<text class="nLabel" x="199.37" y="208.23">70</text>
<text class="belong" x="199.37" y="218.23">(3)</text>
<circle onclick="fromCircle(5)" class="circle" cx="199.9719" cy="260.5056" r="21.0550" />
<text class="tLabel" x="199.97" y="240.51"></text>
<text class="nLabel" x="199.97" y="255.51">46</text>
<text class="belong" x="199.97" y="265.51">(1, 3)</text>
<circle onclick="fromCircle(8)" class="circle" cx="288.7059" cy="323.6956" r="19.3869" />
<text class="tLabel" x="288.71" y="303.70"></text>
<text class="nLabel" x="288.71" y="318.70">39</text>
<text class="belong" x="288.71" y="328.70">(4)</text>
<circle onclick="fromCircle(9)" class="circle" cx="262.0939" cy="329.8316" r="7.6042" />
<text class="tLabel" x="262.09" y="309.83"></text>
<text class="nLabel" x="262.09" y="324.83">6</text>
<text class="belong" x="262.09" y="334.83">(1, 4)</text>
<rect class="p0 borderLine" x="500.00" y="50.00" width="30.00" height="15.00" />
<rect class="q0" x="500.00" y="50.00" width="30.00" height="15.00" />
<text class="legend" x="540.00" y="65.00">Up_in_POU3F2_KO_iNs</text>
<rect class="p1 borderLine" x="500.00" y="90.00" width="30.00" height="15.00" />
<rect class="q1" x="500.00" y="90.00" width="30.00" height="15.00" />
<text class="legend" x="540.00" y="105.00">Down_in_POU3F2_KO_iNs</text>
<rect class="p2 borderLine" x="500.00" y="130.00" width="30.00" height="15.00" />
<rect class="q2" x="500.00" y="130.00" width="30.00" height="15.00" />
<text class="legend" x="540.00" y="145.00">Up_in_VGF_KO_iNs</text>
<rect class="p3 borderLine" x="500.00" y="170.00" width="30.00" height="15.00" />
<rect class="q3" x="500.00" y="170.00" width="30.00" height="15.00" />
<text class="legend" x="540.00" y="185.00">Down_in_VGF_KO_iNs</text>
</svg>
