<svg xmlns="http://www.w3.org/2000/svg" xmlns:xlink="http://www.w3.org/1999/xlink" width="700" height="500">
<defs>
<style type="text/css"><![CDATA[
  .borderLine {
	   stroke: none;
	   fill-opacity: 0.4;
  }
  .outLine {
	   stroke-width: 1;
	   fill: none;
  }
  .circle {
	   stroke: #888888;
	   stroke-width: 0.5;
	   fill: none;
    pointer-events: all;
  }
  .spcircle {
	   stroke: #FF2222;
	   stroke-width: 1;
	   fill: none;
    pointer-events: all;
  }
  .tLabel {
	   font-family: Arial;
    pointer-events: none;
	   font-size: 14px;
	   text-anchor: middle;
	   alignment-baseline: central;
  }
  .nLabel {
	   font-family: Arial;
    pointer-events: none;
	   font-size: 10px;
	   text-anchor: middle;
	   alignment-baseline: central;
  }
  .belong {
	   font-family: Arial;
    pointer-events: none;
	   font-size: 5px;
	   text-anchor: middle;
	   alignment-baseline: central;
  }
  .p0{
    stroke: none;
    fill: #e6194b;
  }
  .q0{
    fill: none;
    stroke: #e6194b;
  }
  .p1{
    stroke: none;
    fill: #3cb44b;
  }
  .q1{
    fill: none;
    stroke: #3cb44b;
  }
  .p2{
    stroke: none;
    fill: #ffe119;
  }
  .q2{
    fill: none;
    stroke: #ffe119;
  }
  .p3{
    stroke: none;
    fill: #0082c8;
  }
  .q3{
    fill: none;
    stroke: #0082c8;
  }
]]>
</style>
<symbol id="bl0">
<path d="M 170.76 352.52 L 173.87 366.20 L 180.70 378.84 L 190.66 389.28 L 203.41 396.90 L 216.70 403.99 L 229.65 411.67 L 242.71 418.70 L 255.21 426.09 L 267.91 433.07 L 282.56 435.31 L 297.15 435.92 L 311.72 436.36 L 326.18 435.34 L 340.20 433.69 L 354.24 432.14 L 365.65 423.63 L 375.39 412.32 L 377.07 396.97 L 374.71 381.34 L 363.68 369.87 L 352.38 359.22 L 340.56 349.42 L 329.10 339.25 L 318.28 328.75 L 304.02 320.63 L 289.66 315.99 L 275.34 311.37 L 261.06 307.14 L 247.04 303.06 L 233.48 298.36 L 219.22 297.64 L 205.27 299.16 L 193.59 306.03 L 183.41 314.70 L 174.72 325.30 L 170.78 338.54 Z" />
</symbol>
<symbol id="bl1">
<path d="M 321.71 93.10 L 304.39 98.30 L 286.96 104.52 L 269.71 111.21 L 255.58 123.08 L 248.57 139.97 L 249.04 158.70 L 255.60 177.14 L 271.11 189.76 L 289.41 196.80 L 307.54 203.04 L 325.13 209.99 L 342.18 217.60 L 358.98 225.81 L 375.33 234.48 L 392.18 241.42 L 409.70 244.90 L 427.05 239.50 L 441.17 227.49 L 446.90 209.56 L 444.58 192.29 L 444.29 175.05 L 444.22 158.01 L 444.13 141.10 L 445.01 124.47 L 441.70 107.56 L 434.04 92.51 L 421.87 80.68 L 406.24 73.41 L 388.93 71.97 L 372.39 77.80 L 355.61 83.00 L 338.74 88.07 Z" />
</symbol>
<symbol id="bl2">
<path d="M 240.79 250.94 L 239.28 269.24 L 245.22 286.58 L 255.87 301.12 L 266.78 314.88 L 274.66 330.94 L 277.54 348.36 L 283.10 364.97 L 289.93 380.89 L 296.72 396.57 L 303.17 412.09 L 311.19 425.26 L 323.26 434.56 L 337.50 438.04 L 352.06 437.57 L 366.28 433.03 L 380.40 427.82 L 394.23 421.62 L 407.82 414.78 L 421.34 407.55 L 434.83 399.97 L 448.08 392.05 L 461.40 384.39 L 474.59 375.72 L 484.60 363.69 L 492.34 350.28 L 497.59 335.22 L 498.87 319.67 L 497.46 304.02 L 492.34 289.14 L 485.37 275.49 L 477.73 262.44 L 470.84 249.11 L 464.00 235.95 L 457.76 222.62 L 451.90 209.06 L 444.37 196.20 L 437.08 183.26 L 424.72 173.63 L 409.34 170.37 L 393.73 171.82 L 378.05 173.22 L 362.35 174.63 L 346.38 174.78 L 331.43 183.90 L 318.94 195.38 L 302.11 199.76 L 284.92 200.78 L 269.22 207.80 L 256.43 219.45 L 246.80 234.01 Z" />
</symbol>
<symbol id="bl3">
<path d="M 127.89 71.65 L 107.88 73.99 L 88.32 79.50 L 69.78 88.10 L 53.12 99.74 L 38.08 113.75 L 25.32 130.39 L 15.70 149.24 L 10.00 169.80 L 7.34 190.94 L 8.95 212.36 L 13.53 233.68 L 22.37 253.64 L 34.23 272.00 L 49.33 287.82 L 66.19 301.67 L 83.64 314.70 L 100.88 327.83 L 117.95 340.96 L 134.86 354.13 L 151.51 367.49 L 167.83 381.15 L 184.36 394.49 L 203.13 404.35 L 223.93 407.34 L 244.16 402.31 L 260.53 391.89 L 277.77 383.94 L 293.09 376.29 L 307.80 370.18 L 327.17 356.05 L 334.96 337.07 L 342.10 318.85 L 348.26 300.86 L 354.16 283.12 L 359.24 265.02 L 362.44 246.82 L 364.92 228.99 L 366.30 211.46 L 369.58 187.64 L 363.24 175.65 L 355.02 160.10 L 346.94 144.67 L 341.88 127.35 L 331.88 113.05 L 316.94 103.24 L 299.70 98.18 L 281.85 94.38 L 263.58 90.74 L 244.90 87.25 L 225.93 83.94 L 206.74 80.64 L 187.34 77.39 L 167.66 75.04 L 147.98 72.38 Z" />
</symbol>
</defs>
<!-- isDone: 0 -->
<rect width="700" height="500" style="fill:#fff;stroke-width:0" />
<use class="p0 borderLine" xlink:href="#bl0"/>
<use class="p1 borderLine" xlink:href="#bl1"/>
<use class="p2 borderLine" xlink:href="#bl2"/>
<use class="p3 borderLine" xlink:href="#bl3"/>
<use class="q0 outLine" xlink:href="#bl0"/>
<use class="q1 outLine" xlink:href="#bl1"/>
<use class="q2 outLine" xlink:href="#bl2"/>
<use class="q3 outLine" xlink:href="#bl3"/>
<circle onclick="fromCircle(1)" class="circle" cx="277.5349" cy="414.7669" r="17.3439" />
<text class="tLabel" x="277.53" y="394.77"></text>
<text class="nLabel" x="277.53" y="409.77">2</text>
<text class="belong" x="277.53" y="419.77">(1)</text>
<circle onclick="fromCircle(2)" class="circle" cx="395.3492" cy="120.8419" r="42.4838" />
<text class="tLabel" x="395.35" y="100.84"></text>
<text class="nLabel" x="395.35" y="115.84">12</text>
<text class="belong" x="395.35" y="125.84">(2)</text>
<circle onclick="fromCircle(6)" class="circle" cx="407.8345" cy="209.2976" r="30.0406" />
<text class="tLabel" x="407.83" y="189.30"></text>
<text class="nLabel" x="407.83" y="204.30">6</text>
<text class="belong" x="407.83" y="214.30">(2, 3)</text>
<circle onclick="fromCircle(14)" class="circle" cx="347.5313" cy="196.8990" r="12.2640" />
<text class="tLabel" x="347.53" y="176.90"></text>
<text class="nLabel" x="347.53" y="191.90">1</text>
<text class="belong" x="347.53" y="201.90">(2, 3, 4)</text>
<circle onclick="fromCircle(10)" class="circle" cx="295.3507" cy="150.2844" r="40.6751" />
<text class="tLabel" x="295.35" y="130.28"></text>
<text class="nLabel" x="295.35" y="145.28">11</text>
<text class="belong" x="295.35" y="155.28">(2, 4)</text>
<circle onclick="fromCircle(4)" class="circle" cx="425.6979" cy="319.5875" r="64.8950" />
<text class="tLabel" x="425.70" y="299.59"></text>
<text class="nLabel" x="425.70" y="314.59">28</text>
<text class="belong" x="425.70" y="324.59">(3)</text>
<circle onclick="fromCircle(5)" class="circle" cx="341.8591" cy="397.4786" r="32.4475" />
<text class="tLabel" x="341.86" y="377.48"></text>
<text class="nLabel" x="341.86" y="392.48">7</text>
<text class="belong" x="341.86" y="402.48">(1, 3)</text>
<circle onclick="fromCircle(13)" class="circle" cx="302.4596" cy="341.4078" r="17.3439" />
<text class="tLabel" x="302.46" y="321.41"></text>
<text class="nLabel" x="302.46" y="336.41">2</text>
<text class="belong" x="302.46" y="346.41">(1, 3, 4)</text>
<circle onclick="fromCircle(12)" class="circle" cx="299.1225" cy="258.1234" r="49.0560" />
<text class="tLabel" x="299.12" y="238.12"></text>
<text class="nLabel" x="299.12" y="253.12">16</text>
<text class="belong" x="299.12" y="263.12">(3, 4)</text>
<circle onclick="fromCircle(8)" class="circle" cx="131.5814" cy="195.5697" r="112.4015" />
<text class="tLabel" x="131.58" y="175.57"></text>
<text class="nLabel" x="131.58" y="190.57">84</text>
<text class="belong" x="131.58" y="200.57">(4)</text>
<circle onclick="fromCircle(9)" class="circle" cx="221.1146" cy="348.2253" r="47.4983" />
<text class="tLabel" x="221.11" y="328.23"></text>
<text class="nLabel" x="221.11" y="343.23">15</text>
<text class="belong" x="221.11" y="353.23">(1, 4)</text>
<rect class="p0 borderLine" x="500.00" y="50.00" width="30.00" height="15.00" />
<rect class="q0" x="500.00" y="50.00" width="30.00" height="15.00" />
<text class="legend" x="540.00" y="65.00">S_salivarius</text>
<rect class="p1 borderLine" x="500.00" y="90.00" width="30.00" height="15.00" />
<rect class="q1" x="500.00" y="90.00" width="30.00" height="15.00" />
<text class="legend" x="540.00" y="105.00">Other</text>
<rect class="p2 borderLine" x="500.00" y="130.00" width="30.00" height="15.00" />
<rect class="q2" x="500.00" y="130.00" width="30.00" height="15.00" />
<text class="legend" x="540.00" y="145.00">GAS</text>
<rect class="p3 borderLine" x="500.00" y="170.00" width="30.00" height="15.00" />
<rect class="q3" x="500.00" y="170.00" width="30.00" height="15.00" />
<text class="legend" x="540.00" y="185.00">GCS/GGS</text>
</svg>
