Points
164
57.377	60.7715	0
55.3127	59.5501	0
53.5606	61.1882	0
54.6408	63.3298	0
56.9995	62.8947	0
59.2261	64.9495	0
61.4526	67.0043	0
63.6791	69.0592	0
65.9056	71.114	0
68.1322	73.1688	0
68.1322	73.1688	0
67.6041	74.4319	0
68.0121	75.7387	0
68.0121	75.7387	0
68.0121	75.7387	0
69.165	76.4769	0
70.5227	76.3007	0
70.5227	76.3007	0
70.5227	76.3007	0
71.4489	75.2926	0
71.5097	73.9249	0
71.5097	73.9249	0
71.5097	73.9249	0
70.6766	72.8385	0
69.34	72.5425	0
69.34	72.5425	0
68.8815	69.0715	0
68.423	65.6005	0
67.9645	62.1295	0
67.506	58.6585	0
69.2058	57.0649	0
68.243	54.9431	0
65.9244	55.1729	0
65.3969	57.4425	0
62.7236	58.5522	0
60.0503	59.6618	0
56.5742	61.5383	0
55.5298	60.4938	0
54.4853	61.5383	0
55.5298	62.5827	0
71.5882	67.4135	0
71.5882	67.4135	0
72.8543	66.5533	0
73.1414	65.0497	0
73.1414	65.0497	0
70.7777	63.4964	0
69.2244	65.8602	0
69.2244	65.8602	0
70.0846	67.1264	0
71.5882	67.4135	0
71.5882	67.4135	0
72.1907	70.3256	0
72.7932	73.2378	0
73.3958	76.1499	0
73.9983	79.0621	0
72.445	81.4258	0
74.8088	82.9791	0
76.3621	80.6154	0
73.9983	79.0621	0
73.3958	76.1499	0
72.7932	73.2378	0
72.1907	70.3256	0
68.7223	86.8358	0
66.6252	88.4066	0
67.8826	90.7053	0
70.3364	89.7868	0
69.7753	87.2274	0
71.4916	84.9257	0
73.208	82.6239	0
75.2986	82.8091	0
76.4035	81.0247	0
75.306	79.2358	0
73.2147	79.4123	0
72.0027	77.7729	0
70.7908	76.1335	0
70.7908	76.1335	0
71.5459	74.9954	0
71.3944	73.638	0
71.3944	73.6381	0
71.3944	73.6381	0
70.407	72.6944	0
69.0442	72.6046	0
69.0442	72.6046	0
69.0442	72.6046	0
67.9415	73.4104	0
67.6131	74.7361	0
67.6131	74.7361	0
67.6131	74.7361	0
68.2122	75.9635	0
69.4594	76.5201	0
69.4594	76.5201	0
69.2137	79.9587	0
68.968	83.3973	0
81.6105	62.7451	0
81.6105	62.7451	0
82.936	61.9794	0
83.3317	60.5007	0
83.3317	60.5007	0
83.3317	60.5007	0
82.566	59.1753	0
81.0873	58.7795	0
81.0873	58.7795	0
81.0873	58.7795	0
79.7619	59.5452	0
79.3661	61.0239	0
79.3661	61.0239	0
79.3661	61.0239	0
80.1318	62.3493	0
81.6105	62.7451	0
81.6105	62.7451	0
82.0385	65.9893	0
82.4665	69.2334	0
82.8946	72.4775	0
83.3226	75.7217	0
83.7506	78.9658	0
84.1786	82.2099	0
82.4574	84.4544	0
84.7018	86.1756	0
86.423	83.9312	0
84.1786	82.2099	0
83.7506	78.9658	0
83.3226	75.7217	0
82.8946	72.4775	0
82.4665	69.2334	0
82.0385	65.9893	0
69.1651	57.2323	0
68.2008	54.9194	0
65.7346	55.3637	0
65.6381	57.8677	0
68.0628	58.5005	0
69.2135	61.0653	0
70.3642	63.6302	0
69.1839	65.5184	0
70.4816	67.3279	0
72.6486	66.8158	0
72.9988	64.6167	0
76.2659	63.1086	0
79.533	61.6005	0
79.533	61.6005	0
80.493	62.5699	0
81.8512	62.6982	0
81.8512	62.6982	0
81.8512	62.6982	0
82.9757	61.9258	0
83.3433	60.612	0
83.3433	60.612	0
83.3433	60.612	0
82.7829	59.3681	0
81.5553	58.773	0
81.5553	58.773	0
81.5553	58.773	0
80.2317	59.1034	0
79.4279	60.2057	0
79.4279	60.2057	0
76.007	59.2146	0
72.586	58.2234	0
55.5298	61.5383	1.04447
74.4036	81.0206	0.852803
71.1829	65.4549	2
68.5797	88.8307	0.630689
69.6019	74.5252	1.70561
84.4402	84.1928	0.630689
81.3489	60.7623	1.59545
67.2441	56.6757	1.04447
Springs
156
0	1	5000	0
1	2	5000	0
2	3	5000	0
3	4	5000	0
4	5	5000	0
5	6	5000	0
6	7	5000	0
7	8	5000	0
8	9	5000	0
9	10	5000	0
10	11	5000	0
11	12	5000	0
12	13	5000	0
13	14	5000	0
14	15	5000	0
15	16	5000	0
16	17	5000	0
17	18	5000	0
18	19	5000	0
19	20	5000	0
20	21	5000	0
21	22	5000	0
22	23	5000	0
23	24	5000	0
24	25	5000	0
25	26	5000	0
26	27	5000	0
27	28	5000	0
28	29	5000	0
29	30	5000	0
30	31	5000	0
31	32	5000	0
32	33	5000	0
33	34	5000	0
34	35	5000	0
35	0	5000	0
36	37	5000	0
37	38	5000	0
38	39	5000	0
39	36	5000	0
40	41	5000	0
41	42	5000	0
42	43	5000	0
43	44	5000	0
44	45	5000	0
45	46	5000	0
46	47	5000	0
47	48	5000	0
48	49	5000	0
49	50	5000	0
50	51	5000	0
51	52	5000	0
52	53	5000	0
53	54	5000	0
54	55	5000	0
55	56	5000	0
56	57	5000	0
57	58	5000	0
58	59	5000	0
59	60	5000	0
60	61	5000	0
61	40	5000	0
62	63	5000	0
63	64	5000	0
64	65	5000	0
65	66	5000	0
66	67	5000	0
67	68	5000	0
68	69	5000	0
69	70	5000	0
70	71	5000	0
71	72	5000	0
72	73	5000	0
73	74	5000	0
74	75	5000	0
75	76	5000	0
76	77	5000	0
77	78	5000	0
78	79	5000	0
79	80	5000	0
80	81	5000	0
81	82	5000	0
82	83	5000	0
83	84	5000	0
84	85	5000	0
85	86	5000	0
86	87	5000	0
87	88	5000	0
88	89	5000	0
89	90	5000	0
90	91	5000	0
91	92	5000	0
92	62	5000	0
93	94	5000	0
94	95	5000	0
95	96	5000	0
96	97	5000	0
97	98	5000	0
98	99	5000	0
99	100	5000	0
100	101	5000	0
101	102	5000	0
102	103	5000	0
103	104	5000	0
104	105	5000	0
105	106	5000	0
106	107	5000	0
107	108	5000	0
108	109	5000	0
109	110	5000	0
110	111	5000	0
111	112	5000	0
112	113	5000	0
113	114	5000	0
114	115	5000	0
115	116	5000	0
116	117	5000	0
117	118	5000	0
118	119	5000	0
119	120	5000	0
120	121	5000	0
121	122	5000	0
122	123	5000	0
123	124	5000	0
124	93	5000	0
125	126	5000	0
126	127	5000	0
127	128	5000	0
128	129	5000	0
129	130	5000	0
130	131	5000	0
131	132	5000	0
132	133	5000	0
133	134	5000	0
134	135	5000	0
135	136	5000	0
136	137	5000	0
137	138	5000	0
138	139	5000	0
139	140	5000	0
140	141	5000	0
141	142	5000	0
142	143	5000	0
143	144	5000	0
144	145	5000	0
145	146	5000	0
146	147	5000	0
147	148	5000	0
148	149	5000	0
149	150	5000	0
150	151	5000	0
151	152	5000	0
152	153	5000	0
153	154	5000	0
154	155	5000	0
155	125	5000	0
