<svg xmlns="http://www.w3.org/2000/svg" xmlns:xlink="http://www.w3.org/1999/xlink" width="700" height="500">
<defs>
<style type="text/css"><![CDATA[
  .borderLine {
	   stroke: none;
	   fill-opacity: 0.4;
  }
  .outLine {
	   stroke-width: 1;
	   fill: none;
  }
  .circle {
	   stroke: #888888;
	   stroke-width: 0.5;
	   fill: none;
    pointer-events: all;
  }
  .spcircle {
	   stroke: #FF2222;
	   stroke-width: 1;
	   fill: none;
    pointer-events: all;
  }
  .tLabel {
	   font-family: Arial;
    pointer-events: none;
	   font-size: 14px;
	   text-anchor: middle;
	   alignment-baseline: central;
  }
  .nLabel {
	   font-family: Arial;
    pointer-events: none;
	   font-size: 10px;
	   text-anchor: middle;
	   alignment-baseline: central;
  }
  .belong {
	   font-family: Arial;
    pointer-events: none;
	   font-size: 5px;
	   text-anchor: middle;
	   alignment-baseline: central;
  }
  .p0{
    stroke: none;
    fill: #e6194b;
  }
  .q0{
    fill: none;
    stroke: #e6194b;
  }
  .p1{
    stroke: none;
    fill: #3cb44b;
  }
  .q1{
    fill: none;
    stroke: #3cb44b;
  }
  .p2{
    stroke: none;
    fill: #ffe119;
  }
  .q2{
    fill: none;
    stroke: #ffe119;
  }
  .p3{
    stroke: none;
    fill: #0082c8;
  }
  .q3{
    fill: none;
    stroke: #0082c8;
  }
]]>
</style>
<symbol id="bl0">
<path d="M 63.48 137.94 L 49.54 110.08 L 18.59 113.67 L 11.41 143.99 L 37.46 161.09 L 42.70 332.03 L 19.25 347.01 L 21.32 374.76 L 46.72 386.11 L 68.77 369.14 L 280.60 452.88 L 290.94 485.55 L 325.03 482.05 L 328.54 447.97 L 295.87 437.61 L 194.64 181.18 L 211.52 159.92 L 201.55 134.67 L 174.70 130.68 L 157.83 151.94 Z" />
</symbol>
<symbol id="bl1">
<path d="M 236.80 28.84 L 224.54 -3.29 L 190.62 2.39 L 189.50 36.76 L 222.98 44.64 L 292.22 186.16 L 277.04 209.07 L 289.64 233.49 L 317.10 234.39 L 331.29 210.86 L 428.90 211.99 L 449.09 238.54 L 479.78 225.48 L 474.63 192.52 L 441.42 189.44 L 380.93 94.87 L 393.42 73.26 L 382.99 50.58 L 358.45 46.02 L 340.56 63.42 Z" />
</symbol>
<symbol id="bl2">
<path d="M 59.01 336.86 L 30.09 335.57 L 16.45 361.11 L 33.61 384.42 L 62.05 379.00 L 129.71 451.52 L 121.88 477.90 L 141.12 497.57 L 167.66 490.32 L 174.23 463.60 L 342.87 413.23 L 331.33 374.59 L 263.78 338.11 L 300.26 270.56 L 367.81 307.04 L 331.33 374.59 L 342.87 413.23 L 434.63 385.82 L 456.10 404.82 L 482.63 393.97 L 484.64 365.38 L 459.88 350.92 L 456.80 239.44 L 480.80 223.45 L 476.86 194.89 L 449.44 185.98 L 429.47 206.79 L 211.25 161.45 L 202.12 135.13 L 174.62 130.71 L 157.71 152.85 L 169.19 178.22 Z" />
</symbol>
<symbol id="bl3">
<path d="M 209.32 144.54 L 183.97 128.79 L 159.48 145.84 L 165.43 175.07 L 194.64 181.18 L 295.87 437.61 L 278.70 463.25 L 296.61 488.38 L 326.46 480.51 L 329.65 449.81 L 436.83 391.10 L 462.21 405.15 L 485.79 388.26 L 480.64 359.71 L 452.64 352.12 L 374.30 97.94 L 393.40 73.63 L 377.36 47.21 L 346.99 52.93 L 341.67 83.39 Z" />
</symbol>
</defs>
<!-- isDone: 0 -->
<rect width="700" height="500" style="fill:#fff;stroke-width:0" />
<use class="p0 borderLine" xlink:href="#bl0"/>
<use class="p1 borderLine" xlink:href="#bl1"/>
<use class="p2 borderLine" xlink:href="#bl2"/>
<use class="p3 borderLine" xlink:href="#bl3"/>
<use class="q0 outLine" xlink:href="#bl0"/>
<use class="q1 outLine" xlink:href="#bl1"/>
<use class="q2 outLine" xlink:href="#bl2"/>
<use class="q3 outLine" xlink:href="#bl3"/>
<circle class="spcircle" cx="63.4786" cy="137.9403" r="2" />
<circle class="spcircle" cx="49.5361" cy="110.0763" r="2" />
<circle class="spcircle" cx="18.5870" cy="113.6746" r="2" />
<circle class="spcircle" cx="11.4091" cy="143.9942" r="2" />
<circle class="spcircle" cx="37.4599" cy="161.0866" r="2" />
<circle class="spcircle" cx="42.6972" cy="332.0251" r="2" />
<circle class="spcircle" cx="19.2524" cy="347.0124" r="2" />
<circle class="spcircle" cx="21.3184" cy="374.7614" r="2" />
<circle class="spcircle" cx="46.7241" cy="386.1118" r="2" />
<circle class="spcircle" cx="68.7716" cy="369.1357" r="2" />
<circle class="spcircle" cx="280.5978" cy="452.8766" r="2" />
<circle class="spcircle" cx="290.9414" cy="485.5452" r="2" />
<circle class="spcircle" cx="325.0302" cy="482.0543" r="2" />
<circle class="spcircle" cx="328.5375" cy="447.9672" r="2" />
<circle class="spcircle" cx="295.8739" cy="437.6079" r="2" />
<circle class="spcircle" cx="194.6429" cy="181.1762" r="2" />
<circle class="spcircle" cx="211.5250" cy="159.9187" r="2" />
<circle class="spcircle" cx="201.5548" cy="134.6703" r="2" />
<circle class="spcircle" cx="174.7036" cy="130.6823" r="2" />
<circle class="spcircle" cx="157.8258" cy="151.9432" r="2" />
<circle class="spcircle" cx="236.7992" cy="28.8412" r="2" />
<circle class="spcircle" cx="224.5394" cy="-3.2940" r="2" />
<circle class="spcircle" cx="190.6175" cy="2.3871" r="2" />
<circle class="spcircle" cx="189.4967" cy="36.7632" r="2" />
<circle class="spcircle" cx="222.9766" cy="44.6418" r="2" />
<circle class="spcircle" cx="292.2153" cy="186.1593" r="2" />
<circle class="spcircle" cx="277.0405" cy="209.0673" r="2" />
<circle class="spcircle" cx="289.6410" cy="233.4861" r="2" />
<circle class="spcircle" cx="317.1042" cy="234.3921" r="2" />
<circle class="spcircle" cx="331.2868" cy="210.8570" r="2" />
<circle class="spcircle" cx="428.9030" cy="211.9912" r="2" />
<circle class="spcircle" cx="449.0891" cy="238.5442" r="2" />
<circle class="spcircle" cx="479.7787" cy="225.4795" r="2" />
<circle class="spcircle" cx="474.6319" cy="192.5242" r="2" />
<circle class="spcircle" cx="441.4200" cy="189.4395" r="2" />
<circle class="spcircle" cx="380.9337" cy="94.8669" r="2" />
<circle class="spcircle" cx="393.4234" cy="73.2577" r="2" />
<circle class="spcircle" cx="382.9880" cy="50.5850" r="2" />
<circle class="spcircle" cx="358.4504" cy="46.0180" r="2" />
<circle class="spcircle" cx="340.5566" cy="63.4181" r="2" />
<circle class="spcircle" cx="59.0126" cy="336.8619" r="2" />
<circle class="spcircle" cx="30.0929" cy="335.5707" r="2" />
<circle class="spcircle" cx="16.4544" cy="361.1052" r="2" />
<circle class="spcircle" cx="33.6092" cy="384.4232" r="2" />
<circle class="spcircle" cx="62.0459" cy="379.0035" r="2" />
<circle class="spcircle" cx="129.7063" cy="451.5224" r="2" />
<circle class="spcircle" cx="121.8766" cy="477.8989" r="2" />
<circle class="spcircle" cx="141.1171" cy="497.5669" r="2" />
<circle class="spcircle" cx="167.6592" cy="490.3185" r="2" />
<circle class="spcircle" cx="174.2324" cy="463.6011" r="2" />
<circle class="spcircle" cx="434.6275" cy="385.8245" r="2" />
<circle class="spcircle" cx="456.0951" cy="404.8176" r="2" />
<circle class="spcircle" cx="482.6264" cy="393.9694" r="2" />
<circle class="spcircle" cx="484.6369" cy="365.3765" r="2" />
<circle class="spcircle" cx="459.8847" cy="350.9223" r="2" />
<circle class="spcircle" cx="456.7968" cy="239.4403" r="2" />
<circle class="spcircle" cx="480.7954" cy="223.4527" r="2" />
<circle class="spcircle" cx="476.8617" cy="194.8859" r="2" />
<circle class="spcircle" cx="449.4352" cy="185.9796" r="2" />
<circle class="spcircle" cx="429.4687" cy="206.7852" r="2" />
<circle class="spcircle" cx="211.2524" cy="161.4497" r="2" />
<circle class="spcircle" cx="202.1228" cy="135.1339" r="2" />
<circle class="spcircle" cx="174.6212" cy="130.7150" r="2" />
<circle class="spcircle" cx="157.7072" cy="152.8461" r="2" />
<circle class="spcircle" cx="169.1917" cy="178.2228" r="2" />
<circle class="spcircle" cx="209.3165" cy="144.5423" r="2" />
<circle class="spcircle" cx="183.9718" cy="128.7933" r="2" />
<circle class="spcircle" cx="159.4779" cy="145.8353" r="2" />
<circle class="spcircle" cx="165.4342" cy="175.0741" r="2" />
<circle class="spcircle" cx="194.6429" cy="181.1762" r="2" />
<circle class="spcircle" cx="295.8739" cy="437.6079" r="2" />
<circle class="spcircle" cx="278.6998" cy="463.2517" r="2" />
<circle class="spcircle" cx="296.6145" cy="488.3838" r="2" />
<circle class="spcircle" cx="326.4574" cy="480.5128" r="2" />
<circle class="spcircle" cx="329.6470" cy="449.8145" r="2" />
<circle class="spcircle" cx="436.8303" cy="391.0974" r="2" />
<circle class="spcircle" cx="462.2075" cy="405.1546" r="2" />
<circle class="spcircle" cx="485.7899" cy="388.2586" r="2" />
<circle class="spcircle" cx="480.6407" cy="359.7087" r="2" />
<circle class="spcircle" cx="452.6414" cy="352.1160" r="2" />
<circle class="spcircle" cx="374.3033" cy="97.9398" r="2" />
<circle class="spcircle" cx="393.4033" cy="73.6345" r="2" />
<circle class="spcircle" cx="377.3641" cy="47.2091" r="2" />
<circle class="spcircle" cx="346.9868" cy="52.9347" r="2" />
<circle class="spcircle" cx="341.6678" cy="83.3857" r="2" />
<circle onclick="fromCircle(1)" class="circle" cx="36.6286" cy="133.9552" r="9.1115" />
<text class="tLabel" x="36.63" y="113.96"></text>
<text class="nLabel" x="36.63" y="128.96">2</text>
<text class="belong" x="36.63" y="138.96">(1)</text>
<circle onclick="fromCircle(2)" class="circle" cx="211.0474" cy="20.2595" r="10.2595" />
<text class="tLabel" x="211.05" y="0.26"></text>
<text class="nLabel" x="211.05" y="15.26">12</text>
<text class="belong" x="211.05" y="25.26">(2)</text>
<circle onclick="fromCircle(6)" class="circle" cx="456.0453" cy="212.3066" r="9.1115" />
<text class="tLabel" x="456.05" y="192.31"></text>
<text class="nLabel" x="456.05" y="207.31">6</text>
<text class="belong" x="456.05" y="217.31">(2, 3)</text>
<circle onclick="fromCircle(14)" class="circle" cx="304.1446" cy="210.5416" r="9.1115" />
<text class="tLabel" x="304.14" y="190.54"></text>
<text class="nLabel" x="304.14" y="205.54">1</text>
<text class="belong" x="304.14" y="215.54">(2, 3, 4)</text>
<circle onclick="fromCircle(10)" class="circle" cx="366.3084" cy="71.9998" r="9.8227" />
<text class="tLabel" x="366.31" y="52.00"></text>
<text class="nLabel" x="366.31" y="67.00">11</text>
<text class="belong" x="366.31" y="77.00">(2, 4)</text>
<circle onclick="fromCircle(4)" class="circle" cx="148.2237" cy="471.3696" r="15.6717" />
<text class="tLabel" x="148.22" y="451.37"></text>
<text class="nLabel" x="148.22" y="466.37">28</text>
<text class="belong" x="148.22" y="476.37">(3)</text>
<circle onclick="fromCircle(5)" class="circle" cx="43.5285" cy="359.1564" r="9.1115" />
<text class="tLabel" x="43.53" y="339.16"></text>
<text class="nLabel" x="43.53" y="354.16">7</text>
<text class="belong" x="43.53" y="364.16">(1, 3)</text>
<circle onclick="fromCircle(13)" class="circle" cx="184.6758" cy="155.9283" r="9.1115" />
<text class="tLabel" x="184.68" y="135.93"></text>
<text class="nLabel" x="184.68" y="150.93">2</text>
<text class="belong" x="184.68" y="160.93">(1, 3, 4)</text>
<circle onclick="fromCircle(12)" class="circle" cx="460.6362" cy="378.0560" r="11.8467" />
<text class="tLabel" x="460.64" y="358.06"></text>
<text class="nLabel" x="460.64" y="373.06">16</text>
<text class="belong" x="460.64" y="383.06">(3, 4)</text>
<circle onclick="fromCircle(8)" class="circle" cx="315.7956" cy="322.5735" r="27.1441" />
<text class="tLabel" x="315.80" y="302.57"></text>
<text class="nLabel" x="315.80" y="317.57">84</text>
<text class="belong" x="315.80" y="327.57">(4)</text>
<circle onclick="fromCircle(9)" class="circle" cx="305.8410" cy="462.8559" r="11.4705" />
<text class="tLabel" x="305.84" y="442.86"></text>
<text class="nLabel" x="305.84" y="457.86">15</text>
<text class="belong" x="305.84" y="467.86">(1, 4)</text>
<rect class="p0 borderLine" x="500.00" y="50.00" width="30.00" height="15.00" />
<rect class="q0" x="500.00" y="50.00" width="30.00" height="15.00" />
<text class="legend" x="540.00" y="65.00">S_salivarius</text>
<rect class="p1 borderLine" x="500.00" y="90.00" width="30.00" height="15.00" />
<rect class="q1" x="500.00" y="90.00" width="30.00" height="15.00" />
<text class="legend" x="540.00" y="105.00">Other</text>
<rect class="p2 borderLine" x="500.00" y="130.00" width="30.00" height="15.00" />
<rect class="q2" x="500.00" y="130.00" width="30.00" height="15.00" />
<text class="legend" x="540.00" y="145.00">GAS</text>
<rect class="p3 borderLine" x="500.00" y="170.00" width="30.00" height="15.00" />
<rect class="q3" x="500.00" y="170.00" width="30.00" height="15.00" />
<text class="legend" x="540.00" y="185.00">GCS/GGS</text>
</svg>
